<?xml version="1.0" encoding="utf-8" standalone="no"?>
<!DOCTYPE svg PUBLIC "-//W3C//DTD SVG 1.1//EN"
  "http://www.w3.org/Graphics/SVG/1.1/DTD/svg11.dtd">
<svg xmlns:xlink="http://www.w3.org/1999/xlink" width="460.8pt" height="345.6pt" viewBox="0 0 460.8 345.6" xmlns="http://www.w3.org/2000/svg" version="1.1">
 <metadata>
  <rdf:RDF xmlns:dc="http://purl.org/dc/elements/1.1/" xmlns:cc="http://creativecommons.org/ns#" xmlns:rdf="http://www.w3.org/1999/02/22-rdf-syntax-ns#">
   <cc:Work>
    <dc:type rdf:resource="http://purl.org/dc/dcmitype/StillImage"/>
    <dc:date>2024-11-12T22:27:50.214344</dc:date>
    <dc:format>image/svg+xml</dc:format>
    <dc:creator>
     <cc:Agent>
      <dc:title>Matplotlib v3.8.2, https://matplotlib.org/</dc:title>
     </cc:Agent>
    </dc:creator>
   </cc:Work>
  </rdf:RDF>
 </metadata>
 <defs>
  <style type="text/css">*{stroke-linejoin: round; stroke-linecap: butt}</style>
 </defs>
 <g id="figure_1">
  <g id="patch_1">
   <path d="M 0 345.6 
L 460.8 345.6 
L 460.8 0 
L 0 0 
z
" style="fill: #ffffff"/>
  </g>
  <g id="axes_1">
   <g id="patch_2">
    <path d="M 57.6 307.584 
L 414.72 307.584 
L 414.72 41.472 
L 57.6 41.472 
z
" style="fill: #ffffff"/>
   </g>
   <g id="PolyCollection_1">
    <defs>
     <path id="m54811bbc49" d="M 73.832727 -73.042587 
L 73.832727 -57.52058 
L 74.918528 -57.994391 
L 76.00433 -57.989603 
L 77.090131 -58.256006 
L 78.175932 -58.091378 
L 79.261733 -58.441301 
L 80.347534 -58.471122 
L 81.433335 -58.561672 
L 82.519137 -58.933709 
L 83.604938 -59.278902 
L 84.690739 -59.20999 
L 85.77654 -59.440446 
L 86.862341 -59.635454 
L 87.948142 -59.936398 
L 89.033943 -60.172134 
L 90.119745 -60.378901 
L 91.205546 -60.593936 
L 92.291347 -60.966145 
L 93.377148 -61.255323 
L 94.462949 -61.625106 
L 95.54875 -62.133682 
L 96.634552 -62.30711 
L 97.720353 -62.887542 
L 98.806154 -63.159317 
L 99.891955 -63.287508 
L 100.977756 -63.667102 
L 102.063557 -63.878741 
L 103.149358 -63.951487 
L 104.23516 -64.125007 
L 105.320961 -64.575326 
L 106.406762 -65.073014 
L 107.492563 -65.503737 
L 108.578364 -65.744429 
L 109.664165 -65.808376 
L 110.749967 -65.895223 
L 111.835768 -65.854988 
L 112.921569 -66.488296 
L 114.00737 -66.912944 
L 115.093171 -66.994678 
L 116.178972 -67.088565 
L 117.264773 -67.0753 
L 118.350575 -67.131434 
L 119.436376 -67.325424 
L 120.522177 -67.109577 
L 121.607978 -67.439758 
L 122.693779 -67.646941 
L 123.77958 -67.505514 
L 124.865382 -67.521958 
L 125.951183 -67.479433 
L 127.036984 -67.720637 
L 128.122785 -67.509336 
L 129.208586 -67.395678 
L 130.294387 -67.373962 
L 131.380189 -66.435407 
L 132.46599 -65.482068 
L 133.551791 -64.822553 
L 134.637592 -64.489078 
L 135.723393 -63.7597 
L 136.809194 -62.962035 
L 137.894995 -62.127801 
L 138.980797 -61.20417 
L 140.066598 -61.053412 
L 141.152399 -60.626505 
L 142.2382 -60.934164 
L 143.324001 -60.871351 
L 144.409802 -61.095911 
L 145.495604 -61.284166 
L 146.581405 -60.774198 
L 147.667206 -60.933097 
L 148.753007 -61.107188 
L 149.838808 -60.893495 
L 150.924609 -60.606103 
L 152.01041 -60.116231 
L 153.096212 -59.887846 
L 154.182013 -59.340811 
L 155.267814 -58.797942 
L 156.353615 -58.570853 
L 157.439416 -58.35526 
L 158.525217 -58.154622 
L 159.611019 -57.855385 
L 160.69682 -57.666096 
L 161.782621 -57.491265 
L 162.868422 -57.444378 
L 163.954223 -57.265904 
L 165.040024 -57.479863 
L 166.125825 -57.488614 
L 167.211627 -57.708312 
L 168.297428 -57.710697 
L 169.383229 -57.306582 
L 170.46903 -57.487382 
L 171.554831 -57.403787 
L 172.640632 -57.495382 
L 173.726434 -57.573601 
L 174.812235 -57.439384 
L 175.898036 -57.161612 
L 176.983837 -57.212382 
L 178.069638 -56.883655 
L 179.155439 -56.683416 
L 180.24124 -56.571005 
L 181.327042 -56.510372 
L 182.412843 -56.094277 
L 183.498644 -55.823386 
L 184.584445 -55.707949 
L 185.670246 -55.371411 
L 186.756047 -54.801503 
L 187.841849 -54.664967 
L 188.92765 -54.174467 
L 190.013451 -53.953526 
L 191.099252 -53.743254 
L 192.185053 -53.727824 
L 193.270854 -53.294131 
L 194.356656 -53.110447 
L 195.442457 -52.748895 
L 196.528258 -52.622276 
L 197.614059 -52.475428 
L 198.69986 -51.871627 
L 199.785661 -51.631428 
L 200.871462 -51.810739 
L 201.957264 -51.91735 
L 203.043065 -51.867638 
L 204.128866 -51.656255 
L 205.214667 -51.262229 
L 206.300468 -51.413533 
L 207.386269 -51.304951 
L 208.472071 -51.638511 
L 209.557872 -51.920871 
L 210.643673 -51.901513 
L 211.729474 -51.85162 
L 212.815275 -51.816491 
L 213.901076 -51.842986 
L 214.986877 -51.69558 
L 216.072679 -51.528197 
L 217.15848 -51.73606 
L 218.244281 -51.707594 
L 219.330082 -51.478862 
L 220.415883 -51.398984 
L 221.501684 -51.372707 
L 222.587486 -51.275248 
L 223.673287 -51.177198 
L 224.759088 -50.867 
L 225.844889 -50.65154 
L 226.93069 -50.693863 
L 228.016491 -50.465311 
L 229.102292 -50.400225 
L 230.188094 -50.112 
L 231.273895 -50.194282 
L 232.359696 -50.431167 
L 233.445497 -50.535491 
L 234.531298 -50.589837 
L 235.617099 -50.521908 
L 236.702901 -50.42142 
L 237.788702 -50.537597 
L 238.874503 -50.877054 
L 239.960304 -50.645461 
L 241.046105 -50.719428 
L 242.131906 -50.87479 
L 243.217708 -50.924324 
L 244.303509 -51.136232 
L 245.38931 -50.874543 
L 246.475111 -51.664903 
L 247.560912 -52.089897 
L 248.646713 -52.317459 
L 249.732514 -52.787262 
L 250.818316 -53.50574 
L 251.904117 -53.813918 
L 252.989918 -54.325839 
L 254.075719 -54.805073 
L 255.16152 -55.211383 
L 256.247321 -55.921417 
L 257.333123 -56.629517 
L 258.418924 -57.467137 
L 259.504725 -58.416348 
L 260.590526 -59.383995 
L 261.676327 -60.30933 
L 262.762128 -61.529586 
L 263.847929 -62.81883 
L 264.933731 -63.905772 
L 266.019532 -65.353175 
L 267.105333 -66.60001 
L 268.191134 -68.038948 
L 269.276935 -69.480257 
L 270.362736 -70.302965 
L 271.448538 -71.271908 
L 272.534339 -72.072629 
L 273.62014 -73.247877 
L 274.705941 -74.408351 
L 275.791742 -75.533094 
L 276.877543 -76.773895 
L 277.963344 -78.029297 
L 279.049146 -79.180946 
L 280.134947 -80.45351 
L 281.220748 -81.738271 
L 282.306549 -82.967179 
L 283.39235 -84.144703 
L 284.478151 -85.329455 
L 285.563953 -86.518227 
L 286.649754 -87.829533 
L 287.735555 -88.792036 
L 288.821356 -90.022362 
L 289.907157 -91.141729 
L 290.992958 -92.296056 
L 292.07876 -93.297932 
L 293.164561 -94.329811 
L 294.250362 -95.517303 
L 295.336163 -96.529213 
L 296.421964 -97.307768 
L 297.507765 -97.959753 
L 298.593566 -98.593426 
L 299.679368 -99.346755 
L 300.765169 -99.610535 
L 301.85097 -99.996307 
L 302.936771 -100.559024 
L 304.022572 -101.480813 
L 305.108373 -102.309274 
L 306.194175 -102.996376 
L 307.279976 -103.618445 
L 308.365777 -104.282241 
L 309.451578 -105.075366 
L 310.537379 -105.450396 
L 311.62318 -105.841712 
L 312.708981 -106.477525 
L 313.794783 -106.969535 
L 314.880584 -107.643193 
L 315.966385 -108.230247 
L 317.052186 -108.693892 
L 318.137987 -109.301254 
L 319.223788 -109.754504 
L 320.30959 -109.892327 
L 321.395391 -110.300579 
L 322.481192 -110.679919 
L 323.566993 -110.975999 
L 324.652794 -111.091105 
L 325.738595 -111.170508 
L 326.824396 -111.40207 
L 327.910198 -111.489845 
L 328.995999 -111.452268 
L 330.0818 -111.447123 
L 331.167601 -111.282842 
L 332.253402 -111.251213 
L 333.339203 -111.106488 
L 334.425005 -111.164007 
L 335.510806 -111.20289 
L 336.596607 -111.195291 
L 337.682408 -111.146016 
L 338.768209 -111.065597 
L 339.85401 -111.042232 
L 340.939811 -111.132099 
L 342.025613 -111.078549 
L 343.111414 -111.1593 
L 344.197215 -111.245279 
L 345.283016 -111.066598 
L 346.368817 -111.405073 
L 347.454618 -111.752276 
L 348.54042 -112.00802 
L 349.626221 -112.106141 
L 350.712022 -112.318658 
L 351.797823 -112.702207 
L 352.883624 -113.017219 
L 353.969425 -113.100852 
L 355.055227 -113.125831 
L 356.141028 -113.22175 
L 357.226829 -113.446798 
L 358.31263 -113.247575 
L 359.398431 -113.193072 
L 360.484232 -113.311074 
L 361.570033 -113.428765 
L 362.655835 -113.476502 
L 363.741636 -113.791808 
L 364.827437 -114.423791 
L 365.913238 -114.685632 
L 366.999039 -114.877982 
L 368.08484 -114.743963 
L 369.170642 -114.651225 
L 370.256443 -114.535604 
L 371.342244 -114.573685 
L 372.428045 -114.328639 
L 373.513846 -114.223298 
L 374.599647 -113.871499 
L 375.685448 -113.570567 
L 376.77125 -113.029388 
L 377.857051 -112.515687 
L 378.942852 -111.788536 
L 380.028653 -110.87349 
L 381.114454 -110.259513 
L 382.200255 -109.657459 
L 383.286057 -109.1875 
L 384.371858 -108.555338 
L 385.457659 -108.344064 
L 386.54346 -107.962356 
L 387.629261 -107.397525 
L 388.715062 -107.185662 
L 389.800863 -106.800971 
L 390.886665 -106.537669 
L 391.972466 -105.996452 
L 393.058267 -105.748836 
L 394.144068 -105.481685 
L 395.229869 -105.537989 
L 396.31567 -105.443011 
L 397.401472 -105.046435 
L 398.487273 -104.687012 
L 398.487273 -254.989395 
L 398.487273 -254.989395 
L 397.401472 -256.603036 
L 396.31567 -257.692055 
L 395.229869 -259.335693 
L 394.144068 -260.047087 
L 393.058267 -261.284683 
L 391.972466 -262.562584 
L 390.886665 -264.91157 
L 389.800863 -266.923763 
L 388.715062 -268.824139 
L 387.629261 -270.817515 
L 386.54346 -272.492915 
L 385.457659 -274.525059 
L 384.371858 -275.842632 
L 383.286057 -277.56972 
L 382.200255 -279.588322 
L 381.114454 -281.30081 
L 380.028653 -282.982824 
L 378.942852 -285.20335 
L 377.857051 -287.103575 
L 376.77125 -288.567908 
L 375.685448 -290.078171 
L 374.599647 -290.938276 
L 373.513846 -291.477357 
L 372.428045 -291.761293 
L 371.342244 -291.936237 
L 370.256443 -292.032 
L 369.170642 -291.342215 
L 368.08484 -290.865711 
L 366.999039 -291.077371 
L 365.913238 -290.962144 
L 364.827437 -290.100161 
L 363.741636 -289.145056 
L 362.655835 -288.76055 
L 361.570033 -288.642524 
L 360.484232 -288.096704 
L 359.398431 -287.525608 
L 358.31263 -286.9422 
L 357.226829 -286.645162 
L 356.141028 -285.458683 
L 355.055227 -284.817883 
L 353.969425 -284.374286 
L 352.883624 -283.790725 
L 351.797823 -282.993537 
L 350.712022 -281.652466 
L 349.626221 -280.447391 
L 348.54042 -279.904905 
L 347.454618 -278.82045 
L 346.368817 -277.825113 
L 345.283016 -276.739622 
L 344.197215 -276.556816 
L 343.111414 -275.299006 
L 342.025613 -274.2677 
L 340.939811 -273.342985 
L 339.85401 -272.413985 
L 338.768209 -271.494016 
L 337.682408 -270.392196 
L 336.596607 -269.312832 
L 335.510806 -268.341507 
L 334.425005 -266.814996 
L 333.339203 -265.422867 
L 332.253402 -264.472788 
L 331.167601 -263.206357 
L 330.0818 -262.17457 
L 328.995999 -261.474797 
L 327.910198 -260.227148 
L 326.824396 -258.548189 
L 325.738595 -256.716949 
L 324.652794 -254.941251 
L 323.566993 -253.16718 
L 322.481192 -251.31309 
L 321.395391 -249.081724 
L 320.30959 -246.940393 
L 319.223788 -245.061503 
L 318.137987 -242.508675 
L 317.052186 -239.975077 
L 315.966385 -237.683749 
L 314.880584 -235.235602 
L 313.794783 -232.769469 
L 312.708981 -230.933589 
L 311.62318 -228.540952 
L 310.537379 -226.736866 
L 309.451578 -225.144245 
L 308.365777 -222.835054 
L 307.279976 -221.153465 
L 306.194175 -219.084625 
L 305.108373 -217.574359 
L 304.022572 -216.05878 
L 302.936771 -214.003522 
L 301.85097 -212.386705 
L 300.765169 -211.108223 
L 299.679368 -209.907734 
L 298.593566 -208.089654 
L 297.507765 -206.60963 
L 296.421964 -204.677807 
L 295.336163 -202.867992 
L 294.250362 -200.521955 
L 293.164561 -197.884728 
L 292.07876 -195.982524 
L 290.992958 -193.84825 
L 289.907157 -191.125041 
L 288.821356 -188.337177 
L 287.735555 -185.200845 
L 286.649754 -182.825191 
L 285.563953 -180.150739 
L 284.478151 -177.515843 
L 283.39235 -175.011758 
L 282.306549 -172.188622 
L 281.220748 -169.095627 
L 280.134947 -166.189903 
L 279.049146 -163.477618 
L 277.963344 -160.99691 
L 276.877543 -158.690864 
L 275.791742 -156.21331 
L 274.705941 -153.650626 
L 273.62014 -151.259693 
L 272.534339 -148.805133 
L 271.448538 -146.772742 
L 270.362736 -144.565075 
L 269.276935 -142.571968 
L 268.191134 -139.97289 
L 267.105333 -137.38158 
L 266.019532 -135.074768 
L 264.933731 -132.163376 
L 263.847929 -130.228617 
L 262.762128 -127.981766 
L 261.676327 -125.630481 
L 260.590526 -123.97066 
L 259.504725 -122.251892 
L 258.418924 -120.717988 
L 257.333123 -119.202412 
L 256.247321 -117.771558 
L 255.16152 -116.371012 
L 254.075719 -115.185671 
L 252.989918 -113.951472 
L 251.904117 -112.644353 
L 250.818316 -111.821686 
L 249.732514 -110.490467 
L 248.646713 -109.304265 
L 247.560912 -108.498528 
L 246.475111 -107.56078 
L 245.38931 -106.299133 
L 244.303509 -105.977865 
L 243.217708 -105.256723 
L 242.131906 -104.780864 
L 241.046105 -104.118506 
L 239.960304 -103.56512 
L 238.874503 -103.454123 
L 237.788702 -102.833856 
L 236.702901 -102.79076 
L 235.617099 -102.338675 
L 234.531298 -102.341131 
L 233.445497 -102.187549 
L 232.359696 -102.059327 
L 231.273895 -101.687822 
L 230.188094 -101.614349 
L 229.102292 -101.850522 
L 228.016491 -101.509477 
L 226.93069 -101.230508 
L 225.844889 -101.000572 
L 224.759088 -100.930303 
L 223.673287 -100.791184 
L 222.587486 -100.381313 
L 221.501684 -99.794255 
L 220.415883 -99.245784 
L 219.330082 -98.619556 
L 218.244281 -98.31134 
L 217.15848 -97.785562 
L 216.072679 -97.224232 
L 214.986877 -97.049324 
L 213.901076 -96.525634 
L 212.815275 -96.084373 
L 211.729474 -95.868275 
L 210.643673 -95.781939 
L 209.557872 -95.596646 
L 208.472071 -95.246822 
L 207.386269 -94.466456 
L 206.300468 -94.493772 
L 205.214667 -94.206187 
L 204.128866 -94.20841 
L 203.043065 -93.867339 
L 201.957264 -93.239492 
L 200.871462 -92.656178 
L 199.785661 -91.420728 
L 198.69986 -91.039084 
L 197.614059 -90.923176 
L 196.528258 -90.018731 
L 195.442457 -89.066447 
L 194.356656 -88.078868 
L 193.270854 -87.115738 
L 192.185053 -86.536218 
L 191.099252 -85.540317 
L 190.013451 -84.871632 
L 188.92765 -83.854169 
L 187.841849 -83.08903 
L 186.756047 -82.015113 
L 185.670246 -81.284322 
L 184.584445 -80.663498 
L 183.498644 -79.682699 
L 182.412843 -78.805774 
L 181.327042 -77.078785 
L 180.24124 -76.088789 
L 179.155439 -75.053391 
L 178.069638 -74.2787 
L 176.983837 -73.731354 
L 175.898036 -72.948057 
L 174.812235 -72.261641 
L 173.726434 -71.455276 
L 172.640632 -70.749873 
L 171.554831 -69.9834 
L 170.46903 -69.407257 
L 169.383229 -68.711662 
L 168.297428 -68.604829 
L 167.211627 -68.362697 
L 166.125825 -67.908673 
L 165.040024 -67.615873 
L 163.954223 -67.262603 
L 162.868422 -67.106805 
L 161.782621 -66.914996 
L 160.69682 -66.985688 
L 159.611019 -67.069309 
L 158.525217 -67.34414 
L 157.439416 -67.528913 
L 156.353615 -67.785813 
L 155.267814 -68.15726 
L 154.182013 -68.596974 
L 153.096212 -69.030834 
L 152.01041 -69.206236 
L 150.924609 -69.444196 
L 149.838808 -69.557792 
L 148.753007 -69.877622 
L 147.667206 -69.950026 
L 146.581405 -70.025916 
L 145.495604 -70.492351 
L 144.409802 -70.64805 
L 143.324001 -70.754623 
L 142.2382 -70.956283 
L 141.152399 -71.078914 
L 140.066598 -71.484504 
L 138.980797 -71.727258 
L 137.894995 -72.401617 
L 136.809194 -73.030843 
L 135.723393 -73.188404 
L 134.637592 -73.577688 
L 133.551791 -73.570405 
L 132.46599 -73.740835 
L 131.380189 -74.003709 
L 130.294387 -74.427943 
L 129.208586 -74.368199 
L 128.122785 -74.409982 
L 127.036984 -74.451747 
L 125.951183 -74.369827 
L 124.865382 -74.233543 
L 123.77958 -73.966847 
L 122.693779 -73.972557 
L 121.607978 -73.852992 
L 120.522177 -73.568836 
L 119.436376 -73.731947 
L 118.350575 -73.738641 
L 117.264773 -73.752024 
L 116.178972 -73.771183 
L 115.093171 -73.805784 
L 114.00737 -73.868148 
L 112.921569 -73.600158 
L 111.835768 -73.205323 
L 110.749967 -73.338381 
L 109.664165 -73.408137 
L 108.578364 -73.542462 
L 107.492563 -73.560734 
L 106.406762 -73.37268 
L 105.320961 -73.229599 
L 104.23516 -72.700647 
L 103.149358 -72.728211 
L 102.063557 -73.002513 
L 100.977756 -72.920695 
L 99.891955 -72.717575 
L 98.806154 -72.472638 
L 97.720353 -72.12382 
L 96.634552 -71.520725 
L 95.54875 -71.365083 
L 94.462949 -71.053304 
L 93.377148 -70.858498 
L 92.291347 -70.841004 
L 91.205546 -70.722108 
L 90.119745 -70.787226 
L 89.033943 -70.963342 
L 87.948142 -70.988672 
L 86.862341 -70.716141 
L 85.77654 -70.519162 
L 84.690739 -70.680357 
L 83.604938 -71.111 
L 82.519137 -71.370636 
L 81.433335 -71.326453 
L 80.347534 -71.899314 
L 79.261733 -72.24073 
L 78.175932 -71.936314 
L 77.090131 -72.596003 
L 76.00433 -73.009196 
L 74.918528 -73.396341 
L 73.832727 -73.042587 
z
" style="stroke: #ff00ff; stroke-opacity: 0.1"/>
    </defs>
    <g clip-path="url(#p183bca02a2)">
     <use xlink:href="#m54811bbc49" x="0" y="345.6" style="fill: #ff00ff; fill-opacity: 0.1; stroke: #ff00ff; stroke-opacity: 0.1"/>
    </g>
   </g>
   <g id="matplotlib.axis_1">
    <g id="xtick_1">
     <g id="line2d_1">
      <defs>
       <path id="me4058e9c18" d="M 0 0 
L 0 3.5 
" style="stroke: #000000; stroke-width: 0.8"/>
      </defs>
      <g>
       <use xlink:href="#me4058e9c18" x="73.832727" y="307.584" style="stroke: #000000; stroke-width: 0.8"/>
      </g>
     </g>
     <g id="text_1">
      <!-- −5 -->
      <g transform="translate(66.461634 322.182437) scale(0.1 -0.1)">
       <defs>
        <path id="DejaVuSans-2212" d="M 678 2272 
L 4684 2272 
L 4684 1741 
L 678 1741 
L 678 2272 
z
" transform="scale(0.015625)"/>
        <path id="DejaVuSans-35" d="M 691 4666 
L 3169 4666 
L 3169 4134 
L 1269 4134 
L 1269 2991 
Q 1406 3038 1543 3061 
Q 1681 3084 1819 3084 
Q 2600 3084 3056 2656 
Q 3513 2228 3513 1497 
Q 3513 744 3044 326 
Q 2575 -91 1722 -91 
Q 1428 -91 1123 -41 
Q 819 9 494 109 
L 494 744 
Q 775 591 1075 516 
Q 1375 441 1709 441 
Q 2250 441 2565 725 
Q 2881 1009 2881 1497 
Q 2881 1984 2565 2268 
Q 2250 2553 1709 2553 
Q 1456 2553 1204 2497 
Q 953 2441 691 2322 
L 691 4666 
z
" transform="scale(0.015625)"/>
       </defs>
       <use xlink:href="#DejaVuSans-2212"/>
       <use xlink:href="#DejaVuSans-35" x="83.789062"/>
      </g>
     </g>
    </g>
    <g id="xtick_2">
     <g id="line2d_2">
      <g>
       <use xlink:href="#me4058e9c18" x="95.54875" y="307.584" style="stroke: #000000; stroke-width: 0.8"/>
      </g>
     </g>
     <g id="text_2">
      <!-- −4 -->
      <g transform="translate(88.177657 322.182437) scale(0.1 -0.1)">
       <defs>
        <path id="DejaVuSans-34" d="M 2419 4116 
L 825 1625 
L 2419 1625 
L 2419 4116 
z
M 2253 4666 
L 3047 4666 
L 3047 1625 
L 3713 1625 
L 3713 1100 
L 3047 1100 
L 3047 0 
L 2419 0 
L 2419 1100 
L 313 1100 
L 313 1709 
L 2253 4666 
z
" transform="scale(0.015625)"/>
       </defs>
       <use xlink:href="#DejaVuSans-2212"/>
       <use xlink:href="#DejaVuSans-34" x="83.789062"/>
      </g>
     </g>
    </g>
    <g id="xtick_3">
     <g id="line2d_3">
      <g>
       <use xlink:href="#me4058e9c18" x="117.264773" y="307.584" style="stroke: #000000; stroke-width: 0.8"/>
      </g>
     </g>
     <g id="text_3">
      <!-- −3 -->
      <g transform="translate(109.89368 322.182437) scale(0.1 -0.1)">
       <defs>
        <path id="DejaVuSans-33" d="M 2597 2516 
Q 3050 2419 3304 2112 
Q 3559 1806 3559 1356 
Q 3559 666 3084 287 
Q 2609 -91 1734 -91 
Q 1441 -91 1130 -33 
Q 819 25 488 141 
L 488 750 
Q 750 597 1062 519 
Q 1375 441 1716 441 
Q 2309 441 2620 675 
Q 2931 909 2931 1356 
Q 2931 1769 2642 2001 
Q 2353 2234 1838 2234 
L 1294 2234 
L 1294 2753 
L 1863 2753 
Q 2328 2753 2575 2939 
Q 2822 3125 2822 3475 
Q 2822 3834 2567 4026 
Q 2313 4219 1838 4219 
Q 1578 4219 1281 4162 
Q 984 4106 628 3988 
L 628 4550 
Q 988 4650 1302 4700 
Q 1616 4750 1894 4750 
Q 2613 4750 3031 4423 
Q 3450 4097 3450 3541 
Q 3450 3153 3228 2886 
Q 3006 2619 2597 2516 
z
" transform="scale(0.015625)"/>
       </defs>
       <use xlink:href="#DejaVuSans-2212"/>
       <use xlink:href="#DejaVuSans-33" x="83.789062"/>
      </g>
     </g>
    </g>
    <g id="xtick_4">
     <g id="line2d_4">
      <g>
       <use xlink:href="#me4058e9c18" x="138.980797" y="307.584" style="stroke: #000000; stroke-width: 0.8"/>
      </g>
     </g>
     <g id="text_4">
      <!-- −2 -->
      <g transform="translate(131.609703 322.182437) scale(0.1 -0.1)">
       <defs>
        <path id="DejaVuSans-32" d="M 1228 531 
L 3431 531 
L 3431 0 
L 469 0 
L 469 531 
Q 828 903 1448 1529 
Q 2069 2156 2228 2338 
Q 2531 2678 2651 2914 
Q 2772 3150 2772 3378 
Q 2772 3750 2511 3984 
Q 2250 4219 1831 4219 
Q 1534 4219 1204 4116 
Q 875 4013 500 3803 
L 500 4441 
Q 881 4594 1212 4672 
Q 1544 4750 1819 4750 
Q 2544 4750 2975 4387 
Q 3406 4025 3406 3419 
Q 3406 3131 3298 2873 
Q 3191 2616 2906 2266 
Q 2828 2175 2409 1742 
Q 1991 1309 1228 531 
z
" transform="scale(0.015625)"/>
       </defs>
       <use xlink:href="#DejaVuSans-2212"/>
       <use xlink:href="#DejaVuSans-32" x="83.789062"/>
      </g>
     </g>
    </g>
    <g id="xtick_5">
     <g id="line2d_5">
      <g>
       <use xlink:href="#me4058e9c18" x="160.69682" y="307.584" style="stroke: #000000; stroke-width: 0.8"/>
      </g>
     </g>
     <g id="text_5">
      <!-- −1 -->
      <g transform="translate(153.325726 322.182437) scale(0.1 -0.1)">
       <defs>
        <path id="DejaVuSans-31" d="M 794 531 
L 1825 531 
L 1825 4091 
L 703 3866 
L 703 4441 
L 1819 4666 
L 2450 4666 
L 2450 531 
L 3481 531 
L 3481 0 
L 794 0 
L 794 531 
z
" transform="scale(0.015625)"/>
       </defs>
       <use xlink:href="#DejaVuSans-2212"/>
       <use xlink:href="#DejaVuSans-31" x="83.789062"/>
      </g>
     </g>
    </g>
    <g id="xtick_6">
     <g id="line2d_6">
      <g>
       <use xlink:href="#me4058e9c18" x="182.412843" y="307.584" style="stroke: #000000; stroke-width: 0.8"/>
      </g>
     </g>
     <g id="text_6">
      <!-- 0 -->
      <g transform="translate(179.231593 322.182437) scale(0.1 -0.1)">
       <defs>
        <path id="DejaVuSans-30" d="M 2034 4250 
Q 1547 4250 1301 3770 
Q 1056 3291 1056 2328 
Q 1056 1369 1301 889 
Q 1547 409 2034 409 
Q 2525 409 2770 889 
Q 3016 1369 3016 2328 
Q 3016 3291 2770 3770 
Q 2525 4250 2034 4250 
z
M 2034 4750 
Q 2819 4750 3233 4129 
Q 3647 3509 3647 2328 
Q 3647 1150 3233 529 
Q 2819 -91 2034 -91 
Q 1250 -91 836 529 
Q 422 1150 422 2328 
Q 422 3509 836 4129 
Q 1250 4750 2034 4750 
z
" transform="scale(0.015625)"/>
       </defs>
       <use xlink:href="#DejaVuSans-30"/>
      </g>
     </g>
    </g>
    <g id="xtick_7">
     <g id="line2d_7">
      <g>
       <use xlink:href="#me4058e9c18" x="204.128866" y="307.584" style="stroke: #000000; stroke-width: 0.8"/>
      </g>
     </g>
     <g id="text_7">
      <!-- 1 -->
      <g transform="translate(200.947616 322.182437) scale(0.1 -0.1)">
       <use xlink:href="#DejaVuSans-31"/>
      </g>
     </g>
    </g>
    <g id="xtick_8">
     <g id="line2d_8">
      <g>
       <use xlink:href="#me4058e9c18" x="225.844889" y="307.584" style="stroke: #000000; stroke-width: 0.8"/>
      </g>
     </g>
     <g id="text_8">
      <!-- 2 -->
      <g transform="translate(222.663639 322.182437) scale(0.1 -0.1)">
       <use xlink:href="#DejaVuSans-32"/>
      </g>
     </g>
    </g>
    <g id="xtick_9">
     <g id="line2d_9">
      <g>
       <use xlink:href="#me4058e9c18" x="247.560912" y="307.584" style="stroke: #000000; stroke-width: 0.8"/>
      </g>
     </g>
     <g id="text_9">
      <!-- 3 -->
      <g transform="translate(244.379662 322.182437) scale(0.1 -0.1)">
       <use xlink:href="#DejaVuSans-33"/>
      </g>
     </g>
    </g>
    <g id="xtick_10">
     <g id="line2d_10">
      <g>
       <use xlink:href="#me4058e9c18" x="269.276935" y="307.584" style="stroke: #000000; stroke-width: 0.8"/>
      </g>
     </g>
     <g id="text_10">
      <!-- 4 -->
      <g transform="translate(266.095685 322.182437) scale(0.1 -0.1)">
       <use xlink:href="#DejaVuSans-34"/>
      </g>
     </g>
    </g>
    <g id="xtick_11">
     <g id="line2d_11">
      <g>
       <use xlink:href="#me4058e9c18" x="290.992958" y="307.584" style="stroke: #000000; stroke-width: 0.8"/>
      </g>
     </g>
     <g id="text_11">
      <!-- 5 -->
      <g transform="translate(287.811708 322.182437) scale(0.1 -0.1)">
       <use xlink:href="#DejaVuSans-35"/>
      </g>
     </g>
    </g>
    <g id="xtick_12">
     <g id="line2d_12">
      <g>
       <use xlink:href="#me4058e9c18" x="312.708981" y="307.584" style="stroke: #000000; stroke-width: 0.8"/>
      </g>
     </g>
     <g id="text_12">
      <!-- 6 -->
      <g transform="translate(309.527731 322.182437) scale(0.1 -0.1)">
       <defs>
        <path id="DejaVuSans-36" d="M 2113 2584 
Q 1688 2584 1439 2293 
Q 1191 2003 1191 1497 
Q 1191 994 1439 701 
Q 1688 409 2113 409 
Q 2538 409 2786 701 
Q 3034 994 3034 1497 
Q 3034 2003 2786 2293 
Q 2538 2584 2113 2584 
z
M 3366 4563 
L 3366 3988 
Q 3128 4100 2886 4159 
Q 2644 4219 2406 4219 
Q 1781 4219 1451 3797 
Q 1122 3375 1075 2522 
Q 1259 2794 1537 2939 
Q 1816 3084 2150 3084 
Q 2853 3084 3261 2657 
Q 3669 2231 3669 1497 
Q 3669 778 3244 343 
Q 2819 -91 2113 -91 
Q 1303 -91 875 529 
Q 447 1150 447 2328 
Q 447 3434 972 4092 
Q 1497 4750 2381 4750 
Q 2619 4750 2861 4703 
Q 3103 4656 3366 4563 
z
" transform="scale(0.015625)"/>
       </defs>
       <use xlink:href="#DejaVuSans-36"/>
      </g>
     </g>
    </g>
    <g id="xtick_13">
     <g id="line2d_13">
      <g>
       <use xlink:href="#me4058e9c18" x="334.425005" y="307.584" style="stroke: #000000; stroke-width: 0.8"/>
      </g>
     </g>
     <g id="text_13">
      <!-- 7 -->
      <g transform="translate(331.243755 322.182437) scale(0.1 -0.1)">
       <defs>
        <path id="DejaVuSans-37" d="M 525 4666 
L 3525 4666 
L 3525 4397 
L 1831 0 
L 1172 0 
L 2766 4134 
L 525 4134 
L 525 4666 
z
" transform="scale(0.015625)"/>
       </defs>
       <use xlink:href="#DejaVuSans-37"/>
      </g>
     </g>
    </g>
    <g id="xtick_14">
     <g id="line2d_14">
      <g>
       <use xlink:href="#me4058e9c18" x="356.141028" y="307.584" style="stroke: #000000; stroke-width: 0.8"/>
      </g>
     </g>
     <g id="text_14">
      <!-- 8 -->
      <g transform="translate(352.959778 322.182437) scale(0.1 -0.1)">
       <defs>
        <path id="DejaVuSans-38" d="M 2034 2216 
Q 1584 2216 1326 1975 
Q 1069 1734 1069 1313 
Q 1069 891 1326 650 
Q 1584 409 2034 409 
Q 2484 409 2743 651 
Q 3003 894 3003 1313 
Q 3003 1734 2745 1975 
Q 2488 2216 2034 2216 
z
M 1403 2484 
Q 997 2584 770 2862 
Q 544 3141 544 3541 
Q 544 4100 942 4425 
Q 1341 4750 2034 4750 
Q 2731 4750 3128 4425 
Q 3525 4100 3525 3541 
Q 3525 3141 3298 2862 
Q 3072 2584 2669 2484 
Q 3125 2378 3379 2068 
Q 3634 1759 3634 1313 
Q 3634 634 3220 271 
Q 2806 -91 2034 -91 
Q 1263 -91 848 271 
Q 434 634 434 1313 
Q 434 1759 690 2068 
Q 947 2378 1403 2484 
z
M 1172 3481 
Q 1172 3119 1398 2916 
Q 1625 2713 2034 2713 
Q 2441 2713 2670 2916 
Q 2900 3119 2900 3481 
Q 2900 3844 2670 4047 
Q 2441 4250 2034 4250 
Q 1625 4250 1398 4047 
Q 1172 3844 1172 3481 
z
" transform="scale(0.015625)"/>
       </defs>
       <use xlink:href="#DejaVuSans-38"/>
      </g>
     </g>
    </g>
    <g id="xtick_15">
     <g id="line2d_15">
      <g>
       <use xlink:href="#me4058e9c18" x="377.857051" y="307.584" style="stroke: #000000; stroke-width: 0.8"/>
      </g>
     </g>
     <g id="text_15">
      <!-- 9 -->
      <g transform="translate(374.675801 322.182437) scale(0.1 -0.1)">
       <defs>
        <path id="DejaVuSans-39" d="M 703 97 
L 703 672 
Q 941 559 1184 500 
Q 1428 441 1663 441 
Q 2288 441 2617 861 
Q 2947 1281 2994 2138 
Q 2813 1869 2534 1725 
Q 2256 1581 1919 1581 
Q 1219 1581 811 2004 
Q 403 2428 403 3163 
Q 403 3881 828 4315 
Q 1253 4750 1959 4750 
Q 2769 4750 3195 4129 
Q 3622 3509 3622 2328 
Q 3622 1225 3098 567 
Q 2575 -91 1691 -91 
Q 1453 -91 1209 -44 
Q 966 3 703 97 
z
M 1959 2075 
Q 2384 2075 2632 2365 
Q 2881 2656 2881 3163 
Q 2881 3666 2632 3958 
Q 2384 4250 1959 4250 
Q 1534 4250 1286 3958 
Q 1038 3666 1038 3163 
Q 1038 2656 1286 2365 
Q 1534 2075 1959 2075 
z
" transform="scale(0.015625)"/>
       </defs>
       <use xlink:href="#DejaVuSans-39"/>
      </g>
     </g>
    </g>
    <g id="xtick_16">
     <g id="line2d_16">
      <g>
       <use xlink:href="#me4058e9c18" x="399.573074" y="307.584" style="stroke: #000000; stroke-width: 0.8"/>
      </g>
     </g>
     <g id="text_16">
      <!-- 10 -->
      <g transform="translate(393.210574 322.182437) scale(0.1 -0.1)">
       <use xlink:href="#DejaVuSans-31"/>
       <use xlink:href="#DejaVuSans-30" x="63.623047"/>
      </g>
     </g>
    </g>
    <g id="text_17">
     <!-- Time (s) -->
     <g transform="translate(215.831094 335.860562) scale(0.1 -0.1)">
      <defs>
       <path id="DejaVuSans-54" d="M -19 4666 
L 3928 4666 
L 3928 4134 
L 2272 4134 
L 2272 0 
L 1638 0 
L 1638 4134 
L -19 4134 
L -19 4666 
z
" transform="scale(0.015625)"/>
       <path id="DejaVuSans-69" d="M 603 3500 
L 1178 3500 
L 1178 0 
L 603 0 
L 603 3500 
z
M 603 4863 
L 1178 4863 
L 1178 4134 
L 603 4134 
L 603 4863 
z
" transform="scale(0.015625)"/>
       <path id="DejaVuSans-6d" d="M 3328 2828 
Q 3544 3216 3844 3400 
Q 4144 3584 4550 3584 
Q 5097 3584 5394 3201 
Q 5691 2819 5691 2113 
L 5691 0 
L 5113 0 
L 5113 2094 
Q 5113 2597 4934 2840 
Q 4756 3084 4391 3084 
Q 3944 3084 3684 2787 
Q 3425 2491 3425 1978 
L 3425 0 
L 2847 0 
L 2847 2094 
Q 2847 2600 2669 2842 
Q 2491 3084 2119 3084 
Q 1678 3084 1418 2786 
Q 1159 2488 1159 1978 
L 1159 0 
L 581 0 
L 581 3500 
L 1159 3500 
L 1159 2956 
Q 1356 3278 1631 3431 
Q 1906 3584 2284 3584 
Q 2666 3584 2933 3390 
Q 3200 3197 3328 2828 
z
" transform="scale(0.015625)"/>
       <path id="DejaVuSans-65" d="M 3597 1894 
L 3597 1613 
L 953 1613 
Q 991 1019 1311 708 
Q 1631 397 2203 397 
Q 2534 397 2845 478 
Q 3156 559 3463 722 
L 3463 178 
Q 3153 47 2828 -22 
Q 2503 -91 2169 -91 
Q 1331 -91 842 396 
Q 353 884 353 1716 
Q 353 2575 817 3079 
Q 1281 3584 2069 3584 
Q 2775 3584 3186 3129 
Q 3597 2675 3597 1894 
z
M 3022 2063 
Q 3016 2534 2758 2815 
Q 2500 3097 2075 3097 
Q 1594 3097 1305 2825 
Q 1016 2553 972 2059 
L 3022 2063 
z
" transform="scale(0.015625)"/>
       <path id="DejaVuSans-20" transform="scale(0.015625)"/>
       <path id="DejaVuSans-28" d="M 1984 4856 
Q 1566 4138 1362 3434 
Q 1159 2731 1159 2009 
Q 1159 1288 1364 580 
Q 1569 -128 1984 -844 
L 1484 -844 
Q 1016 -109 783 600 
Q 550 1309 550 2009 
Q 550 2706 781 3412 
Q 1013 4119 1484 4856 
L 1984 4856 
z
" transform="scale(0.015625)"/>
       <path id="DejaVuSans-73" d="M 2834 3397 
L 2834 2853 
Q 2591 2978 2328 3040 
Q 2066 3103 1784 3103 
Q 1356 3103 1142 2972 
Q 928 2841 928 2578 
Q 928 2378 1081 2264 
Q 1234 2150 1697 2047 
L 1894 2003 
Q 2506 1872 2764 1633 
Q 3022 1394 3022 966 
Q 3022 478 2636 193 
Q 2250 -91 1575 -91 
Q 1294 -91 989 -36 
Q 684 19 347 128 
L 347 722 
Q 666 556 975 473 
Q 1284 391 1588 391 
Q 1994 391 2212 530 
Q 2431 669 2431 922 
Q 2431 1156 2273 1281 
Q 2116 1406 1581 1522 
L 1381 1569 
Q 847 1681 609 1914 
Q 372 2147 372 2553 
Q 372 3047 722 3315 
Q 1072 3584 1716 3584 
Q 2034 3584 2315 3537 
Q 2597 3491 2834 3397 
z
" transform="scale(0.015625)"/>
       <path id="DejaVuSans-29" d="M 513 4856 
L 1013 4856 
Q 1481 4119 1714 3412 
Q 1947 2706 1947 2009 
Q 1947 1309 1714 600 
Q 1481 -109 1013 -844 
L 513 -844 
Q 928 -128 1133 580 
Q 1338 1288 1338 2009 
Q 1338 2731 1133 3434 
Q 928 4138 513 4856 
z
" transform="scale(0.015625)"/>
      </defs>
      <use xlink:href="#DejaVuSans-54"/>
      <use xlink:href="#DejaVuSans-69" x="57.958984"/>
      <use xlink:href="#DejaVuSans-6d" x="85.742188"/>
      <use xlink:href="#DejaVuSans-65" x="183.154297"/>
      <use xlink:href="#DejaVuSans-20" x="244.677734"/>
      <use xlink:href="#DejaVuSans-28" x="276.464844"/>
      <use xlink:href="#DejaVuSans-73" x="315.478516"/>
      <use xlink:href="#DejaVuSans-29" x="367.578125"/>
     </g>
    </g>
   </g>
   <g id="matplotlib.axis_2">
    <g id="ytick_1">
     <g id="line2d_17">
      <defs>
       <path id="m12f44f66c7" d="M 0 0 
L -3.5 0 
" style="stroke: #000000; stroke-width: 0.8"/>
      </defs>
      <g>
       <use xlink:href="#m12f44f66c7" x="57.6" y="278.966258" style="stroke: #000000; stroke-width: 0.8"/>
      </g>
     </g>
     <g id="text_18">
      <!-- 0 -->
      <g transform="translate(44.2375 282.765477) scale(0.1 -0.1)">
       <use xlink:href="#DejaVuSans-30"/>
      </g>
     </g>
    </g>
    <g id="ytick_2">
     <g id="line2d_18">
      <g>
       <use xlink:href="#m12f44f66c7" x="57.6" y="248.642831" style="stroke: #000000; stroke-width: 0.8"/>
      </g>
     </g>
     <g id="text_19">
      <!-- 2 -->
      <g transform="translate(44.2375 252.44205) scale(0.1 -0.1)">
       <use xlink:href="#DejaVuSans-32"/>
      </g>
     </g>
    </g>
    <g id="ytick_3">
     <g id="line2d_19">
      <g>
       <use xlink:href="#m12f44f66c7" x="57.6" y="218.319405" style="stroke: #000000; stroke-width: 0.8"/>
      </g>
     </g>
     <g id="text_20">
      <!-- 4 -->
      <g transform="translate(44.2375 222.118624) scale(0.1 -0.1)">
       <use xlink:href="#DejaVuSans-34"/>
      </g>
     </g>
    </g>
    <g id="ytick_4">
     <g id="line2d_20">
      <g>
       <use xlink:href="#m12f44f66c7" x="57.6" y="187.995978" style="stroke: #000000; stroke-width: 0.8"/>
      </g>
     </g>
     <g id="text_21">
      <!-- 6 -->
      <g transform="translate(44.2375 191.795197) scale(0.1 -0.1)">
       <use xlink:href="#DejaVuSans-36"/>
      </g>
     </g>
    </g>
    <g id="ytick_5">
     <g id="line2d_21">
      <g>
       <use xlink:href="#m12f44f66c7" x="57.6" y="157.672552" style="stroke: #000000; stroke-width: 0.8"/>
      </g>
     </g>
     <g id="text_22">
      <!-- 8 -->
      <g transform="translate(44.2375 161.47177) scale(0.1 -0.1)">
       <use xlink:href="#DejaVuSans-38"/>
      </g>
     </g>
    </g>
    <g id="ytick_6">
     <g id="line2d_22">
      <g>
       <use xlink:href="#m12f44f66c7" x="57.6" y="127.349125" style="stroke: #000000; stroke-width: 0.8"/>
      </g>
     </g>
     <g id="text_23">
      <!-- 10 -->
      <g transform="translate(37.875 131.148344) scale(0.1 -0.1)">
       <use xlink:href="#DejaVuSans-31"/>
       <use xlink:href="#DejaVuSans-30" x="63.623047"/>
      </g>
     </g>
    </g>
    <g id="ytick_7">
     <g id="line2d_23">
      <g>
       <use xlink:href="#m12f44f66c7" x="57.6" y="97.025699" style="stroke: #000000; stroke-width: 0.8"/>
      </g>
     </g>
     <g id="text_24">
      <!-- 12 -->
      <g transform="translate(37.875 100.824917) scale(0.1 -0.1)">
       <use xlink:href="#DejaVuSans-31"/>
       <use xlink:href="#DejaVuSans-32" x="63.623047"/>
      </g>
     </g>
    </g>
    <g id="ytick_8">
     <g id="line2d_24">
      <g>
       <use xlink:href="#m12f44f66c7" x="57.6" y="66.702272" style="stroke: #000000; stroke-width: 0.8"/>
      </g>
     </g>
     <g id="text_25">
      <!-- 14 -->
      <g transform="translate(37.875 70.501491) scale(0.1 -0.1)">
       <use xlink:href="#DejaVuSans-31"/>
       <use xlink:href="#DejaVuSans-34" x="63.623047"/>
      </g>
     </g>
    </g>
    <g id="text_26">
     <!-- Z-Score -->
     <g transform="translate(31.795312 193.67175) rotate(-90) scale(0.1 -0.1)">
      <defs>
       <path id="DejaVuSans-5a" d="M 359 4666 
L 4025 4666 
L 4025 4184 
L 1075 531 
L 4097 531 
L 4097 0 
L 288 0 
L 288 481 
L 3238 4134 
L 359 4134 
L 359 4666 
z
" transform="scale(0.015625)"/>
       <path id="DejaVuSans-2d" d="M 313 2009 
L 1997 2009 
L 1997 1497 
L 313 1497 
L 313 2009 
z
" transform="scale(0.015625)"/>
       <path id="DejaVuSans-53" d="M 3425 4513 
L 3425 3897 
Q 3066 4069 2747 4153 
Q 2428 4238 2131 4238 
Q 1616 4238 1336 4038 
Q 1056 3838 1056 3469 
Q 1056 3159 1242 3001 
Q 1428 2844 1947 2747 
L 2328 2669 
Q 3034 2534 3370 2195 
Q 3706 1856 3706 1288 
Q 3706 609 3251 259 
Q 2797 -91 1919 -91 
Q 1588 -91 1214 -16 
Q 841 59 441 206 
L 441 856 
Q 825 641 1194 531 
Q 1563 422 1919 422 
Q 2459 422 2753 634 
Q 3047 847 3047 1241 
Q 3047 1584 2836 1778 
Q 2625 1972 2144 2069 
L 1759 2144 
Q 1053 2284 737 2584 
Q 422 2884 422 3419 
Q 422 4038 858 4394 
Q 1294 4750 2059 4750 
Q 2388 4750 2728 4690 
Q 3069 4631 3425 4513 
z
" transform="scale(0.015625)"/>
       <path id="DejaVuSans-63" d="M 3122 3366 
L 3122 2828 
Q 2878 2963 2633 3030 
Q 2388 3097 2138 3097 
Q 1578 3097 1268 2742 
Q 959 2388 959 1747 
Q 959 1106 1268 751 
Q 1578 397 2138 397 
Q 2388 397 2633 464 
Q 2878 531 3122 666 
L 3122 134 
Q 2881 22 2623 -34 
Q 2366 -91 2075 -91 
Q 1284 -91 818 406 
Q 353 903 353 1747 
Q 353 2603 823 3093 
Q 1294 3584 2113 3584 
Q 2378 3584 2631 3529 
Q 2884 3475 3122 3366 
z
" transform="scale(0.015625)"/>
       <path id="DejaVuSans-6f" d="M 1959 3097 
Q 1497 3097 1228 2736 
Q 959 2375 959 1747 
Q 959 1119 1226 758 
Q 1494 397 1959 397 
Q 2419 397 2687 759 
Q 2956 1122 2956 1747 
Q 2956 2369 2687 2733 
Q 2419 3097 1959 3097 
z
M 1959 3584 
Q 2709 3584 3137 3096 
Q 3566 2609 3566 1747 
Q 3566 888 3137 398 
Q 2709 -91 1959 -91 
Q 1206 -91 779 398 
Q 353 888 353 1747 
Q 353 2609 779 3096 
Q 1206 3584 1959 3584 
z
" transform="scale(0.015625)"/>
       <path id="DejaVuSans-72" d="M 2631 2963 
Q 2534 3019 2420 3045 
Q 2306 3072 2169 3072 
Q 1681 3072 1420 2755 
Q 1159 2438 1159 1844 
L 1159 0 
L 581 0 
L 581 3500 
L 1159 3500 
L 1159 2956 
Q 1341 3275 1631 3429 
Q 1922 3584 2338 3584 
Q 2397 3584 2469 3576 
Q 2541 3569 2628 3553 
L 2631 2963 
z
" transform="scale(0.015625)"/>
      </defs>
      <use xlink:href="#DejaVuSans-5a"/>
      <use xlink:href="#DejaVuSans-2d" x="66.755859"/>
      <use xlink:href="#DejaVuSans-53" x="102.839844"/>
      <use xlink:href="#DejaVuSans-63" x="166.316406"/>
      <use xlink:href="#DejaVuSans-6f" x="221.296875"/>
      <use xlink:href="#DejaVuSans-72" x="282.478516"/>
      <use xlink:href="#DejaVuSans-65" x="321.341797"/>
     </g>
    </g>
   </g>
   <g id="line2d_25">
    <path d="M 73.832727 280.318416 
L 74.918528 279.904634 
L 76.00433 280.100601 
L 77.090131 280.173995 
L 78.175932 280.586154 
L 79.261733 280.258985 
L 81.433335 280.655938 
L 82.519137 280.447828 
L 83.604938 280.405049 
L 84.690739 280.654827 
L 85.77654 280.620196 
L 89.033943 280.032262 
L 91.205546 279.941978 
L 96.634552 278.686083 
L 97.720353 278.094319 
L 98.806154 277.784023 
L 102.063557 277.159373 
L 103.149358 277.260151 
L 104.23516 277.187173 
L 105.320961 276.697538 
L 107.492563 276.067764 
L 108.578364 275.956554 
L 111.835768 276.069844 
L 112.921569 275.555773 
L 114.00737 275.209454 
L 120.522177 275.260793 
L 121.607978 274.953625 
L 122.693779 274.790251 
L 123.77958 274.86382 
L 127.036984 274.513808 
L 129.208586 274.718061 
L 130.294387 274.699048 
L 132.46599 275.988548 
L 133.551791 276.403521 
L 134.637592 276.566617 
L 137.894995 278.335291 
L 138.980797 279.134286 
L 140.066598 279.331042 
L 141.152399 279.747291 
L 142.2382 279.654777 
L 143.324001 279.787013 
L 145.495604 279.711741 
L 146.581405 280.199943 
L 148.753007 280.107595 
L 153.096212 281.14066 
L 155.267814 282.122399 
L 157.439416 282.657914 
L 161.782621 283.39687 
L 163.954223 283.335747 
L 165.040024 283.052132 
L 166.125825 282.901356 
L 167.211627 282.564495 
L 168.297428 282.442237 
L 169.383229 282.590878 
L 170.46903 282.15268 
L 171.554831 281.906407 
L 173.726434 281.085561 
L 174.812235 280.749488 
L 175.898036 280.545166 
L 176.983837 280.128132 
L 178.069638 280.018823 
L 179.155439 279.731597 
L 181.327042 278.805422 
L 182.412843 278.149974 
L 183.498644 277.846957 
L 184.584445 277.414276 
L 186.756047 277.191692 
L 187.841849 276.723002 
L 188.92765 276.585682 
L 190.013451 276.187421 
L 191.099252 275.958215 
L 192.185053 275.467979 
L 193.270854 275.395066 
L 197.614059 273.900698 
L 198.69986 274.144645 
L 199.785661 274.073922 
L 200.871462 273.366541 
L 203.043065 272.732512 
L 204.128866 272.667668 
L 205.214667 272.865792 
L 206.300468 272.646347 
L 207.386269 272.714297 
L 208.472071 272.157333 
L 209.557872 271.841242 
L 213.901076 271.41569 
L 214.986877 271.227548 
L 216.072679 271.223786 
L 217.15848 270.839189 
L 218.244281 270.590533 
L 219.330082 270.550791 
L 222.587486 269.77172 
L 223.673287 269.615809 
L 225.844889 269.773944 
L 229.102292 269.474627 
L 230.188094 269.736826 
L 231.273895 269.658948 
L 232.359696 269.354753 
L 234.531298 269.134516 
L 235.617099 269.169709 
L 237.788702 268.914273 
L 238.874503 268.434412 
L 239.960304 268.494709 
L 243.217708 267.509477 
L 244.303509 267.042952 
L 245.38931 267.013162 
L 246.475111 265.987158 
L 247.560912 265.305787 
L 248.646713 264.789138 
L 249.732514 263.961136 
L 250.818316 262.936287 
L 251.904117 262.370864 
L 254.075719 260.604628 
L 255.16152 259.808803 
L 258.418924 256.507438 
L 261.676327 252.630094 
L 263.847929 249.076276 
L 264.933731 247.565426 
L 266.019532 245.386028 
L 267.105333 243.609205 
L 269.276935 239.573887 
L 271.448538 236.577675 
L 272.534339 235.161119 
L 280.134947 222.278293 
L 283.39235 216.021769 
L 287.735555 208.603559 
L 289.907157 204.466615 
L 290.992958 202.527847 
L 293.164561 199.49273 
L 294.250362 197.580371 
L 295.336163 195.901398 
L 297.507765 193.315309 
L 298.593566 192.25846 
L 299.679368 190.972756 
L 301.85097 189.408494 
L 302.936771 188.318727 
L 304.022572 186.830203 
L 308.365777 182.041353 
L 309.451578 180.490195 
L 311.62318 178.408668 
L 312.708981 176.894443 
L 313.794783 175.730498 
L 315.966385 172.643002 
L 317.052186 171.265516 
L 319.223788 168.191996 
L 320.30959 167.18364 
L 323.566993 163.52841 
L 327.910198 159.741504 
L 328.995999 159.136468 
L 331.167601 158.355401 
L 332.253402 157.737999 
L 333.339203 157.335323 
L 335.510806 155.827801 
L 343.111414 152.370847 
L 344.197215 151.698952 
L 345.283016 151.69689 
L 348.54042 149.643538 
L 349.626221 149.323234 
L 350.712022 148.614438 
L 351.797823 147.752128 
L 352.883624 147.196028 
L 356.141028 146.259783 
L 357.226829 145.55402 
L 358.31263 145.505112 
L 360.484232 144.896111 
L 361.570033 144.564355 
L 362.655835 144.481474 
L 363.741636 144.131568 
L 364.827437 143.338024 
L 365.913238 142.776112 
L 366.999039 142.622324 
L 368.08484 142.795163 
L 370.256443 142.316198 
L 371.342244 142.345039 
L 373.513846 142.749672 
L 374.599647 143.195112 
L 375.685448 143.775631 
L 377.857051 145.790369 
L 378.942852 147.104057 
L 380.028653 148.671843 
L 384.371858 153.401015 
L 385.457659 154.165439 
L 387.629261 156.49248 
L 390.886665 159.87538 
L 391.972466 161.320482 
L 394.144068 162.835614 
L 395.229869 163.163159 
L 398.487273 165.761796 
L 398.487273 165.761796 
" clip-path="url(#p183bca02a2)" style="fill: none; stroke: #ff00ff; stroke-width: 1.5; stroke-linecap: square"/>
   </g>
   <g id="line2d_26">
    <path d="M 182.412843 307.584 
L 182.412843 41.472 
" clip-path="url(#p183bca02a2)" style="fill: none; stroke: #000000; stroke-width: 1.5; stroke-linecap: square"/>
   </g>
   <g id="patch_3">
    <path d="M 57.6 307.584 
L 57.6 41.472 
" style="fill: none; stroke: #000000; stroke-width: 0.8; stroke-linejoin: miter; stroke-linecap: square"/>
   </g>
   <g id="patch_4">
    <path d="M 414.72 307.584 
L 414.72 41.472 
" style="fill: none; stroke: #000000; stroke-width: 0.8; stroke-linejoin: miter; stroke-linecap: square"/>
   </g>
   <g id="patch_5">
    <path d="M 57.6 307.584 
L 414.72 307.584 
" style="fill: none; stroke: #000000; stroke-width: 0.8; stroke-linejoin: miter; stroke-linecap: square"/>
   </g>
   <g id="patch_6">
    <path d="M 57.6 41.472 
L 414.72 41.472 
" style="fill: none; stroke: #000000; stroke-width: 0.8; stroke-linejoin: miter; stroke-linecap: square"/>
   </g>
   <g id="text_27">
    <!-- Event 16_p=0.203 -->
    <g transform="translate(180.415312 35.472) scale(0.12 -0.12)">
     <defs>
      <path id="DejaVuSans-45" d="M 628 4666 
L 3578 4666 
L 3578 4134 
L 1259 4134 
L 1259 2753 
L 3481 2753 
L 3481 2222 
L 1259 2222 
L 1259 531 
L 3634 531 
L 3634 0 
L 628 0 
L 628 4666 
z
" transform="scale(0.015625)"/>
      <path id="DejaVuSans-76" d="M 191 3500 
L 800 3500 
L 1894 563 
L 2988 3500 
L 3597 3500 
L 2284 0 
L 1503 0 
L 191 3500 
z
" transform="scale(0.015625)"/>
      <path id="DejaVuSans-6e" d="M 3513 2113 
L 3513 0 
L 2938 0 
L 2938 2094 
Q 2938 2591 2744 2837 
Q 2550 3084 2163 3084 
Q 1697 3084 1428 2787 
Q 1159 2491 1159 1978 
L 1159 0 
L 581 0 
L 581 3500 
L 1159 3500 
L 1159 2956 
Q 1366 3272 1645 3428 
Q 1925 3584 2291 3584 
Q 2894 3584 3203 3211 
Q 3513 2838 3513 2113 
z
" transform="scale(0.015625)"/>
      <path id="DejaVuSans-74" d="M 1172 4494 
L 1172 3500 
L 2356 3500 
L 2356 3053 
L 1172 3053 
L 1172 1153 
Q 1172 725 1289 603 
Q 1406 481 1766 481 
L 2356 481 
L 2356 0 
L 1766 0 
Q 1100 0 847 248 
Q 594 497 594 1153 
L 594 3053 
L 172 3053 
L 172 3500 
L 594 3500 
L 594 4494 
L 1172 4494 
z
" transform="scale(0.015625)"/>
      <path id="DejaVuSans-5f" d="M 3263 -1063 
L 3263 -1509 
L -63 -1509 
L -63 -1063 
L 3263 -1063 
z
" transform="scale(0.015625)"/>
      <path id="DejaVuSans-70" d="M 1159 525 
L 1159 -1331 
L 581 -1331 
L 581 3500 
L 1159 3500 
L 1159 2969 
Q 1341 3281 1617 3432 
Q 1894 3584 2278 3584 
Q 2916 3584 3314 3078 
Q 3713 2572 3713 1747 
Q 3713 922 3314 415 
Q 2916 -91 2278 -91 
Q 1894 -91 1617 61 
Q 1341 213 1159 525 
z
M 3116 1747 
Q 3116 2381 2855 2742 
Q 2594 3103 2138 3103 
Q 1681 3103 1420 2742 
Q 1159 2381 1159 1747 
Q 1159 1113 1420 752 
Q 1681 391 2138 391 
Q 2594 391 2855 752 
Q 3116 1113 3116 1747 
z
" transform="scale(0.015625)"/>
      <path id="DejaVuSans-3d" d="M 678 2906 
L 4684 2906 
L 4684 2381 
L 678 2381 
L 678 2906 
z
M 678 1631 
L 4684 1631 
L 4684 1100 
L 678 1100 
L 678 1631 
z
" transform="scale(0.015625)"/>
      <path id="DejaVuSans-2e" d="M 684 794 
L 1344 794 
L 1344 0 
L 684 0 
L 684 794 
z
" transform="scale(0.015625)"/>
     </defs>
     <use xlink:href="#DejaVuSans-45"/>
     <use xlink:href="#DejaVuSans-76" x="63.183594"/>
     <use xlink:href="#DejaVuSans-65" x="122.363281"/>
     <use xlink:href="#DejaVuSans-6e" x="183.886719"/>
     <use xlink:href="#DejaVuSans-74" x="247.265625"/>
     <use xlink:href="#DejaVuSans-20" x="286.474609"/>
     <use xlink:href="#DejaVuSans-31" x="318.261719"/>
     <use xlink:href="#DejaVuSans-36" x="381.884766"/>
     <use xlink:href="#DejaVuSans-5f" x="445.507812"/>
     <use xlink:href="#DejaVuSans-70" x="495.507812"/>
     <use xlink:href="#DejaVuSans-3d" x="558.984375"/>
     <use xlink:href="#DejaVuSans-30" x="642.773438"/>
     <use xlink:href="#DejaVuSans-2e" x="706.396484"/>
     <use xlink:href="#DejaVuSans-32" x="738.183594"/>
     <use xlink:href="#DejaVuSans-30" x="801.806641"/>
     <use xlink:href="#DejaVuSans-33" x="865.429688"/>
    </g>
   </g>
  </g>
 </g>
 <defs>
  <clipPath id="p183bca02a2">
   <rect x="57.6" y="41.472" width="357.12" height="266.112"/>
  </clipPath>
 </defs>
</svg>
