<?xml version="1.0" encoding="utf-8" standalone="no"?>
<!DOCTYPE svg PUBLIC "-//W3C//DTD SVG 1.1//EN"
  "http://www.w3.org/Graphics/SVG/1.1/DTD/svg11.dtd">
<svg xmlns:xlink="http://www.w3.org/1999/xlink" width="460.8pt" height="345.6pt" viewBox="0 0 460.8 345.6" xmlns="http://www.w3.org/2000/svg" version="1.1">
 <metadata>
  <rdf:RDF xmlns:dc="http://purl.org/dc/elements/1.1/" xmlns:cc="http://creativecommons.org/ns#" xmlns:rdf="http://www.w3.org/1999/02/22-rdf-syntax-ns#">
   <cc:Work>
    <dc:type rdf:resource="http://purl.org/dc/dcmitype/StillImage"/>
    <dc:date>2024-11-14T18:55:14.566268</dc:date>
    <dc:format>image/svg+xml</dc:format>
    <dc:creator>
     <cc:Agent>
      <dc:title>Matplotlib v3.8.2, https://matplotlib.org/</dc:title>
     </cc:Agent>
    </dc:creator>
   </cc:Work>
  </rdf:RDF>
 </metadata>
 <defs>
  <style type="text/css">*{stroke-linejoin: round; stroke-linecap: butt}</style>
 </defs>
 <g id="figure_1">
  <g id="patch_1">
   <path d="M 0 345.6 
L 460.8 345.6 
L 460.8 0 
L 0 0 
z
" style="fill: #ffffff"/>
  </g>
  <g id="axes_1">
   <g id="patch_2">
    <path d="M 57.6 307.584 
L 414.72 307.584 
L 414.72 41.472 
L 57.6 41.472 
z
" style="fill: #ffffff"/>
   </g>
   <g id="PolyCollection_1">
    <defs>
     <path id="mc25e157f0d" d="M 73.832727 -129.442716 
L 73.832727 -90.593245 
L 74.918528 -91.268734 
L 76.00433 -91.604784 
L 77.090131 -93.014161 
L 78.175932 -93.19013 
L 79.261733 -94.290021 
L 80.347534 -95.556886 
L 81.433335 -95.619604 
L 82.519137 -94.844257 
L 83.604938 -95.436042 
L 84.690739 -96.576556 
L 85.77654 -98.388558 
L 86.862341 -99.691682 
L 87.948142 -100.90331 
L 89.033943 -100.268289 
L 90.119745 -100.746912 
L 91.205546 -102.130834 
L 92.291347 -102.794802 
L 93.377148 -103.014877 
L 94.462949 -104.452787 
L 95.54875 -106.283592 
L 96.634552 -107.008075 
L 97.720353 -107.648457 
L 98.806154 -108.339365 
L 99.891955 -109.246021 
L 100.977756 -110.77993 
L 102.063557 -110.902594 
L 103.149358 -111.171937 
L 104.23516 -110.036112 
L 105.320961 -111.034461 
L 106.406762 -111.106746 
L 107.492563 -111.354581 
L 108.578364 -111.040562 
L 109.664165 -111.528542 
L 110.749967 -111.966963 
L 111.835768 -111.297875 
L 112.921569 -110.424955 
L 114.00737 -110.281978 
L 115.093171 -109.067036 
L 116.178972 -108.785546 
L 117.264773 -108.034638 
L 118.350575 -108.671706 
L 119.436376 -107.801173 
L 120.522177 -108.511285 
L 121.607978 -109.586306 
L 122.693779 -108.836182 
L 123.77958 -108.34147 
L 124.865382 -108.541883 
L 125.951183 -109.511927 
L 127.036984 -110.494632 
L 128.122785 -111.075723 
L 129.208586 -112.183294 
L 130.294387 -113.482109 
L 131.380189 -113.748191 
L 132.46599 -114.820416 
L 133.551791 -115.526679 
L 134.637592 -116.414093 
L 135.723393 -115.887442 
L 136.809194 -116.585274 
L 137.894995 -117.881196 
L 138.980797 -118.651378 
L 140.066598 -119.918912 
L 141.152399 -119.428186 
L 142.2382 -119.522479 
L 143.324001 -119.068565 
L 144.409802 -119.317558 
L 145.495604 -118.970798 
L 146.581405 -120.651735 
L 147.667206 -121.441326 
L 148.753007 -121.41437 
L 149.838808 -120.074651 
L 150.924609 -118.709624 
L 152.01041 -118.007856 
L 153.096212 -117.578683 
L 154.182013 -117.661437 
L 155.267814 -115.71731 
L 156.353615 -113.958196 
L 157.439416 -113.062117 
L 158.525217 -110.768672 
L 159.611019 -108.974294 
L 160.69682 -106.800605 
L 161.782621 -105.549327 
L 162.868422 -103.86339 
L 163.954223 -102.622958 
L 165.040024 -101.14372 
L 166.125825 -100.781332 
L 167.211627 -99.789466 
L 168.297428 -99.449311 
L 169.383229 -98.780957 
L 170.46903 -99.266326 
L 171.554831 -97.974445 
L 172.640632 -98.472241 
L 173.726434 -98.178634 
L 174.812235 -98.900636 
L 175.898036 -100.765275 
L 176.983837 -101.322837 
L 178.069638 -102.402493 
L 179.155439 -104.122274 
L 180.24124 -105.733067 
L 181.327042 -107.612578 
L 182.412843 -108.331558 
L 183.498644 -109.989402 
L 184.584445 -110.398095 
L 185.670246 -112.202626 
L 186.756047 -113.080055 
L 187.841849 -114.281998 
L 188.92765 -114.298257 
L 190.013451 -114.654764 
L 191.099252 -115.241741 
L 192.185053 -116.14855 
L 193.270854 -116.622372 
L 194.356656 -117.538696 
L 195.442457 -117.674843 
L 196.528258 -119.062142 
L 197.614059 -118.61402 
L 198.69986 -119.781619 
L 199.785661 -120.888506 
L 200.871462 -121.026584 
L 201.957264 -122.141018 
L 203.043065 -123.219168 
L 204.128866 -125.50286 
L 205.214667 -126.629779 
L 206.300468 -128.978459 
L 207.386269 -130.345958 
L 208.472071 -133.452569 
L 209.557872 -134.570531 
L 210.643673 -134.87396 
L 211.729474 -135.095764 
L 212.815275 -137.060842 
L 213.901076 -138.939025 
L 214.986877 -140.335506 
L 216.072679 -142.081601 
L 217.15848 -143.345156 
L 218.244281 -146.262616 
L 219.330082 -151.146106 
L 220.415883 -154.58405 
L 221.501684 -157.631157 
L 222.587486 -160.481211 
L 223.673287 -163.31904 
L 224.759088 -165.519207 
L 225.844889 -166.854233 
L 226.93069 -168.321778 
L 228.016491 -168.271512 
L 229.102292 -168.805412 
L 230.188094 -170.044476 
L 231.273895 -171.18789 
L 232.359696 -171.99418 
L 233.445497 -172.026506 
L 234.531298 -172.017435 
L 235.617099 -171.970847 
L 236.702901 -171.865345 
L 237.788702 -171.795808 
L 238.874503 -170.638732 
L 239.960304 -170.363111 
L 241.046105 -169.180734 
L 242.131906 -168.835577 
L 243.217708 -168.182419 
L 244.303509 -168.769392 
L 245.38931 -169.361323 
L 246.475111 -169.229875 
L 247.560912 -167.899555 
L 248.646713 -167.536883 
L 249.732514 -166.608263 
L 250.818316 -166.198698 
L 251.904117 -164.494152 
L 252.989918 -163.481352 
L 254.075719 -162.399771 
L 255.16152 -161.839119 
L 256.247321 -161.136464 
L 257.333123 -160.3903 
L 258.418924 -159.53264 
L 259.504725 -158.390357 
L 260.590526 -156.221403 
L 261.676327 -155.704885 
L 262.762128 -153.950143 
L 263.847929 -152.519364 
L 264.933731 -151.594497 
L 266.019532 -149.57569 
L 267.105333 -148.095592 
L 268.191134 -145.460526 
L 269.276935 -143.681638 
L 270.362736 -142.086035 
L 271.448538 -139.841485 
L 272.534339 -138.505239 
L 273.62014 -137.388943 
L 274.705941 -137.066383 
L 275.791742 -135.613342 
L 276.877543 -133.848858 
L 277.963344 -131.519933 
L 279.049146 -130.734773 
L 280.134947 -129.804499 
L 281.220748 -128.285834 
L 282.306549 -127.22634 
L 283.39235 -123.923081 
L 284.478151 -120.990619 
L 285.563953 -118.478909 
L 286.649754 -117.210717 
L 287.735555 -116.919493 
L 288.821356 -115.569307 
L 289.907157 -115.44192 
L 290.992958 -114.998708 
L 292.07876 -115.504142 
L 293.164561 -114.391032 
L 294.250362 -113.416832 
L 295.336163 -112.502586 
L 296.421964 -111.976795 
L 297.507765 -110.944939 
L 298.593566 -111.538791 
L 299.679368 -110.834179 
L 300.765169 -110.066512 
L 301.85097 -108.783215 
L 302.936771 -108.777012 
L 304.022572 -108.088739 
L 305.108373 -107.338283 
L 306.194175 -106.020569 
L 307.279976 -105.985067 
L 308.365777 -103.67526 
L 309.451578 -102.064692 
L 310.537379 -100.856842 
L 311.62318 -99.427521 
L 312.708981 -98.182219 
L 313.794783 -97.612394 
L 314.880584 -97.270891 
L 315.966385 -98.05917 
L 317.052186 -98.66118 
L 318.137987 -98.83653 
L 319.223788 -98.408815 
L 320.30959 -96.900292 
L 321.395391 -96.674146 
L 322.481192 -95.445177 
L 323.566993 -96.422792 
L 324.652794 -97.154329 
L 325.738595 -96.509679 
L 326.824396 -96.408452 
L 327.910198 -96.469375 
L 328.995999 -95.800477 
L 330.0818 -95.204127 
L 331.167601 -94.858669 
L 332.253402 -94.458247 
L 333.339203 -94.099717 
L 334.425005 -93.263174 
L 335.510806 -93.111904 
L 336.596607 -91.29566 
L 337.682408 -90.027836 
L 338.768209 -88.911063 
L 339.85401 -88.125103 
L 340.939811 -88.229012 
L 342.025613 -88.612399 
L 343.111414 -88.384735 
L 344.197215 -87.250204 
L 345.283016 -86.375902 
L 346.368817 -85.261889 
L 347.454618 -84.192468 
L 348.54042 -83.774696 
L 349.626221 -84.661093 
L 350.712022 -83.762124 
L 351.797823 -82.42401 
L 352.883624 -82.860507 
L 353.969425 -81.613512 
L 355.055227 -80.681493 
L 356.141028 -80.33222 
L 357.226829 -80.274043 
L 358.31263 -79.609838 
L 359.398431 -78.140913 
L 360.484232 -76.511848 
L 361.570033 -75.743527 
L 362.655835 -74.179863 
L 363.741636 -73.278327 
L 364.827437 -72.958589 
L 365.913238 -73.656178 
L 366.999039 -72.889179 
L 368.08484 -72.075218 
L 369.170642 -72.564625 
L 370.256443 -72.137237 
L 371.342244 -70.794722 
L 372.428045 -70.781658 
L 373.513846 -69.872518 
L 374.599647 -71.102174 
L 375.685448 -71.631168 
L 376.77125 -70.729615 
L 377.857051 -69.424559 
L 378.942852 -68.063385 
L 380.028653 -65.513229 
L 381.114454 -64.04667 
L 382.200255 -63.259627 
L 383.286057 -61.447491 
L 384.371858 -60.95043 
L 385.457659 -58.976127 
L 386.54346 -58.228842 
L 387.629261 -56.56378 
L 388.715062 -54.87872 
L 389.800863 -54.278167 
L 390.886665 -54.111353 
L 391.972466 -53.360426 
L 393.058267 -53.482683 
L 394.144068 -53.572886 
L 395.229869 -52.730454 
L 396.31567 -52.237787 
L 397.401472 -50.830717 
L 398.487273 -50.112 
L 398.487273 -245.209324 
L 398.487273 -245.209324 
L 397.401472 -246.352237 
L 396.31567 -247.996352 
L 395.229869 -248.976496 
L 394.144068 -250.000751 
L 393.058267 -250.238124 
L 391.972466 -250.466781 
L 390.886665 -251.772575 
L 389.800863 -252.491277 
L 388.715062 -253.945946 
L 387.629261 -255.763701 
L 386.54346 -257.613202 
L 385.457659 -258.053763 
L 384.371858 -259.552761 
L 383.286057 -259.356066 
L 382.200255 -260.567367 
L 381.114454 -260.535754 
L 380.028653 -261.117821 
L 378.942852 -262.292606 
L 377.857051 -262.392415 
L 376.77125 -261.986173 
L 375.685448 -261.147952 
L 374.599647 -258.78914 
L 373.513846 -255.634171 
L 372.428045 -254.279709 
L 371.342244 -251.970034 
L 370.256443 -250.948531 
L 369.170642 -249.305577 
L 368.08484 -246.65345 
L 366.999039 -245.613761 
L 365.913238 -244.357141 
L 364.827437 -242.04453 
L 363.741636 -240.840508 
L 362.655835 -240.124044 
L 361.570033 -240.128628 
L 360.484232 -239.087746 
L 359.398431 -238.930564 
L 358.31263 -238.452515 
L 357.226829 -237.129833 
L 356.141028 -235.168849 
L 355.055227 -233.404424 
L 353.969425 -232.381958 
L 352.883624 -231.826846 
L 351.797823 -229.058002 
L 350.712022 -228.607107 
L 349.626221 -227.406367 
L 348.54042 -224.370509 
L 347.454618 -222.915088 
L 346.368817 -222.155021 
L 345.283016 -221.596066 
L 344.197215 -221.09554 
L 343.111414 -220.934202 
L 342.025613 -219.722709 
L 340.939811 -217.829332 
L 339.85401 -216.410364 
L 338.768209 -216.126888 
L 337.682408 -215.767312 
L 336.596607 -215.902348 
L 335.510806 -216.398432 
L 334.425005 -215.491627 
L 333.339203 -215.605337 
L 332.253402 -215.140413 
L 331.167601 -214.95268 
L 330.0818 -214.645357 
L 328.995999 -214.702307 
L 327.910198 -214.291484 
L 326.824396 -213.70881 
L 325.738595 -212.948914 
L 324.652794 -212.940051 
L 323.566993 -211.453666 
L 322.481192 -210.149635 
L 321.395391 -211.145263 
L 320.30959 -211.34409 
L 319.223788 -212.652816 
L 318.137987 -213.615436 
L 317.052186 -214.114314 
L 315.966385 -213.899484 
L 314.880584 -212.74124 
L 313.794783 -213.490394 
L 312.708981 -215.147143 
L 311.62318 -217.493763 
L 310.537379 -219.597853 
L 309.451578 -221.809103 
L 308.365777 -223.934386 
L 307.279976 -226.485809 
L 306.194175 -226.932072 
L 305.108373 -229.451589 
L 304.022572 -231.294578 
L 302.936771 -232.602581 
L 301.85097 -233.239684 
L 300.765169 -235.121517 
L 299.679368 -236.161066 
L 298.593566 -237.076003 
L 297.507765 -235.987831 
L 296.421964 -237.001384 
L 295.336163 -238.138331 
L 294.250362 -239.135713 
L 293.164561 -240.781784 
L 292.07876 -242.923806 
L 290.992958 -243.224893 
L 289.907157 -244.781159 
L 288.821356 -246.105922 
L 287.735555 -249.128898 
L 286.649754 -250.060507 
L 285.563953 -252.870491 
L 284.478151 -257.281284 
L 283.39235 -261.602942 
L 282.306549 -266.051901 
L 281.220748 -268.42425 
L 280.134947 -269.588738 
L 279.049146 -270.311473 
L 277.963344 -271.392832 
L 276.877543 -274.247373 
L 275.791742 -276.173461 
L 274.705941 -277.327113 
L 273.62014 -277.656782 
L 272.534339 -278.688382 
L 271.448538 -280.144647 
L 270.362736 -282.423149 
L 269.276935 -283.491615 
L 268.191134 -284.85796 
L 267.105333 -287.141946 
L 266.019532 -288.065873 
L 264.933731 -288.736214 
L 263.847929 -289.240562 
L 262.762128 -289.669537 
L 261.676327 -290.994074 
L 260.590526 -290.447362 
L 259.504725 -291.538484 
L 258.418924 -291.419385 
L 257.333123 -291.139226 
L 256.247321 -291.033023 
L 255.16152 -290.548547 
L 254.075719 -289.744769 
L 252.989918 -290.090785 
L 251.904117 -290.248091 
L 250.818316 -291.414417 
L 249.732514 -291.111651 
L 248.646713 -291.219193 
L 247.560912 -290.906043 
L 246.475111 -292.032 
L 245.38931 -291.186902 
L 244.303509 -290.369378 
L 243.217708 -289.591904 
L 242.131906 -290.031333 
L 241.046105 -289.8489 
L 239.960304 -290.948265 
L 238.874503 -290.532879 
L 237.788702 -291.210342 
L 236.702901 -290.608199 
L 235.617099 -290.561301 
L 234.531298 -289.783247 
L 233.445497 -289.287622 
L 232.359696 -288.691727 
L 231.273895 -287.04642 
L 230.188094 -284.847758 
L 229.102292 -282.323883 
L 228.016491 -280.792021 
L 226.93069 -279.654136 
L 225.844889 -276.56613 
L 224.759088 -273.5828 
L 223.673287 -269.454277 
L 222.587486 -264.864669 
L 221.501684 -260.404564 
L 220.415883 -255.46897 
L 219.330082 -250.323107 
L 218.244281 -243.908565 
L 217.15848 -239.37071 
L 216.072679 -237.006436 
L 214.986877 -234.074643 
L 213.901076 -231.449346 
L 212.815275 -228.271032 
L 211.729474 -224.836911 
L 210.643673 -223.090236 
L 209.557872 -221.511546 
L 208.472071 -218.940092 
L 207.386269 -214.54209 
L 206.300468 -212.059932 
L 205.214667 -208.634527 
L 204.128866 -206.073022 
L 203.043065 -202.533185 
L 201.957264 -200.423688 
L 200.871462 -197.943537 
L 199.785661 -196.447546 
L 198.69986 -193.888099 
L 197.614059 -191.170834 
L 196.528258 -190.326882 
L 195.442457 -187.550414 
L 194.356656 -185.971065 
L 193.270854 -183.487303 
L 192.185053 -181.471668 
L 191.099252 -179.004108 
L 190.013451 -176.850736 
L 188.92765 -174.759957 
L 187.841849 -172.966703 
L 186.756047 -169.834067 
L 185.670246 -166.787703 
L 184.584445 -162.838118 
L 183.498644 -160.674364 
L 182.412843 -157.169651 
L 181.327042 -152.892818 
L 180.24124 -149.288678 
L 179.155439 -145.906007 
L 178.069638 -142.679561 
L 176.983837 -140.032414 
L 175.898036 -138.012829 
L 174.812235 -134.873353 
L 173.726434 -133.10486 
L 172.640632 -132.211233 
L 171.554831 -130.734062 
L 170.46903 -131.181219 
L 169.383229 -129.939091 
L 168.297428 -130.036063 
L 167.211627 -129.951156 
L 166.125825 -130.238862 
L 165.040024 -129.659668 
L 163.954223 -130.42717 
L 162.868422 -131.092679 
L 161.782621 -132.098099 
L 160.69682 -132.492436 
L 159.611019 -133.888318 
L 158.525217 -134.833665 
L 157.439416 -136.490412 
L 156.353615 -136.76584 
L 155.267814 -138.010208 
L 154.182013 -139.377716 
L 153.096212 -138.793738 
L 152.01041 -138.748772 
L 150.924609 -139.231331 
L 149.838808 -140.446156 
L 148.753007 -141.730061 
L 147.667206 -141.611187 
L 146.581405 -140.868592 
L 145.495604 -139.102544 
L 144.409802 -139.365626 
L 143.324001 -139.23346 
L 142.2382 -139.613395 
L 141.152399 -139.163231 
L 140.066598 -139.540126 
L 138.980797 -138.176746 
L 137.894995 -137.417664 
L 136.809194 -136.191504 
L 135.723393 -135.821544 
L 134.637592 -136.644763 
L 133.551791 -135.731411 
L 132.46599 -135.081607 
L 131.380189 -134.277152 
L 130.294387 -134.06997 
L 129.208586 -132.818697 
L 128.122785 -131.703106 
L 127.036984 -130.801792 
L 125.951183 -129.732877 
L 124.865382 -128.75429 
L 123.77958 -128.431172 
L 122.693779 -128.373133 
L 121.607978 -128.891313 
L 120.522177 -127.968328 
L 119.436376 -127.389941 
L 118.350575 -127.946919 
L 117.264773 -127.141351 
L 116.178972 -127.938723 
L 115.093171 -128.187937 
L 114.00737 -129.426552 
L 112.921569 -129.724463 
L 111.835768 -130.561289 
L 110.749967 -131.49442 
L 109.664165 -131.483048 
L 108.578364 -131.405172 
L 107.492563 -132.204688 
L 106.406762 -132.344115 
L 105.320961 -132.762903 
L 104.23516 -132.089124 
L 103.149358 -133.77296 
L 102.063557 -134.089895 
L 100.977756 -134.223804 
L 99.891955 -132.853545 
L 98.806154 -132.61267 
L 97.720353 -132.440476 
L 96.634552 -131.865237 
L 95.54875 -131.312346 
L 94.462949 -129.883245 
L 93.377148 -128.704584 
L 92.291347 -128.925899 
L 91.205546 -128.6559 
L 90.119745 -127.734055 
L 89.033943 -127.836611 
L 87.948142 -128.906599 
L 86.862341 -128.320771 
L 85.77654 -127.708615 
L 84.690739 -126.668847 
L 83.604938 -126.350663 
L 82.519137 -126.602651 
L 81.433335 -128.134762 
L 80.347534 -128.975339 
L 79.261733 -128.689036 
L 78.175932 -128.459964 
L 77.090131 -128.98235 
L 76.00433 -128.4554 
L 74.918528 -128.931332 
L 73.832727 -129.442716 
z
" style="stroke: #ff00ff; stroke-opacity: 0.1"/>
    </defs>
    <g clip-path="url(#pf97be0d31b)">
     <use xlink:href="#mc25e157f0d" x="0" y="345.6" style="fill: #ff00ff; fill-opacity: 0.1; stroke: #ff00ff; stroke-opacity: 0.1"/>
    </g>
   </g>
   <g id="matplotlib.axis_1">
    <g id="xtick_1">
     <g id="line2d_1">
      <defs>
       <path id="mb089ccf160" d="M 0 0 
L 0 3.5 
" style="stroke: #000000; stroke-width: 0.8"/>
      </defs>
      <g>
       <use xlink:href="#mb089ccf160" x="73.832727" y="307.584" style="stroke: #000000; stroke-width: 0.8"/>
      </g>
     </g>
     <g id="text_1">
      <!-- −5 -->
      <g transform="translate(66.461634 322.182437) scale(0.1 -0.1)">
       <defs>
        <path id="DejaVuSans-2212" d="M 678 2272 
L 4684 2272 
L 4684 1741 
L 678 1741 
L 678 2272 
z
" transform="scale(0.015625)"/>
        <path id="DejaVuSans-35" d="M 691 4666 
L 3169 4666 
L 3169 4134 
L 1269 4134 
L 1269 2991 
Q 1406 3038 1543 3061 
Q 1681 3084 1819 3084 
Q 2600 3084 3056 2656 
Q 3513 2228 3513 1497 
Q 3513 744 3044 326 
Q 2575 -91 1722 -91 
Q 1428 -91 1123 -41 
Q 819 9 494 109 
L 494 744 
Q 775 591 1075 516 
Q 1375 441 1709 441 
Q 2250 441 2565 725 
Q 2881 1009 2881 1497 
Q 2881 1984 2565 2268 
Q 2250 2553 1709 2553 
Q 1456 2553 1204 2497 
Q 953 2441 691 2322 
L 691 4666 
z
" transform="scale(0.015625)"/>
       </defs>
       <use xlink:href="#DejaVuSans-2212"/>
       <use xlink:href="#DejaVuSans-35" x="83.789062"/>
      </g>
     </g>
    </g>
    <g id="xtick_2">
     <g id="line2d_2">
      <g>
       <use xlink:href="#mb089ccf160" x="95.54875" y="307.584" style="stroke: #000000; stroke-width: 0.8"/>
      </g>
     </g>
     <g id="text_2">
      <!-- −4 -->
      <g transform="translate(88.177657 322.182437) scale(0.1 -0.1)">
       <defs>
        <path id="DejaVuSans-34" d="M 2419 4116 
L 825 1625 
L 2419 1625 
L 2419 4116 
z
M 2253 4666 
L 3047 4666 
L 3047 1625 
L 3713 1625 
L 3713 1100 
L 3047 1100 
L 3047 0 
L 2419 0 
L 2419 1100 
L 313 1100 
L 313 1709 
L 2253 4666 
z
" transform="scale(0.015625)"/>
       </defs>
       <use xlink:href="#DejaVuSans-2212"/>
       <use xlink:href="#DejaVuSans-34" x="83.789062"/>
      </g>
     </g>
    </g>
    <g id="xtick_3">
     <g id="line2d_3">
      <g>
       <use xlink:href="#mb089ccf160" x="117.264773" y="307.584" style="stroke: #000000; stroke-width: 0.8"/>
      </g>
     </g>
     <g id="text_3">
      <!-- −3 -->
      <g transform="translate(109.89368 322.182437) scale(0.1 -0.1)">
       <defs>
        <path id="DejaVuSans-33" d="M 2597 2516 
Q 3050 2419 3304 2112 
Q 3559 1806 3559 1356 
Q 3559 666 3084 287 
Q 2609 -91 1734 -91 
Q 1441 -91 1130 -33 
Q 819 25 488 141 
L 488 750 
Q 750 597 1062 519 
Q 1375 441 1716 441 
Q 2309 441 2620 675 
Q 2931 909 2931 1356 
Q 2931 1769 2642 2001 
Q 2353 2234 1838 2234 
L 1294 2234 
L 1294 2753 
L 1863 2753 
Q 2328 2753 2575 2939 
Q 2822 3125 2822 3475 
Q 2822 3834 2567 4026 
Q 2313 4219 1838 4219 
Q 1578 4219 1281 4162 
Q 984 4106 628 3988 
L 628 4550 
Q 988 4650 1302 4700 
Q 1616 4750 1894 4750 
Q 2613 4750 3031 4423 
Q 3450 4097 3450 3541 
Q 3450 3153 3228 2886 
Q 3006 2619 2597 2516 
z
" transform="scale(0.015625)"/>
       </defs>
       <use xlink:href="#DejaVuSans-2212"/>
       <use xlink:href="#DejaVuSans-33" x="83.789062"/>
      </g>
     </g>
    </g>
    <g id="xtick_4">
     <g id="line2d_4">
      <g>
       <use xlink:href="#mb089ccf160" x="138.980797" y="307.584" style="stroke: #000000; stroke-width: 0.8"/>
      </g>
     </g>
     <g id="text_4">
      <!-- −2 -->
      <g transform="translate(131.609703 322.182437) scale(0.1 -0.1)">
       <defs>
        <path id="DejaVuSans-32" d="M 1228 531 
L 3431 531 
L 3431 0 
L 469 0 
L 469 531 
Q 828 903 1448 1529 
Q 2069 2156 2228 2338 
Q 2531 2678 2651 2914 
Q 2772 3150 2772 3378 
Q 2772 3750 2511 3984 
Q 2250 4219 1831 4219 
Q 1534 4219 1204 4116 
Q 875 4013 500 3803 
L 500 4441 
Q 881 4594 1212 4672 
Q 1544 4750 1819 4750 
Q 2544 4750 2975 4387 
Q 3406 4025 3406 3419 
Q 3406 3131 3298 2873 
Q 3191 2616 2906 2266 
Q 2828 2175 2409 1742 
Q 1991 1309 1228 531 
z
" transform="scale(0.015625)"/>
       </defs>
       <use xlink:href="#DejaVuSans-2212"/>
       <use xlink:href="#DejaVuSans-32" x="83.789062"/>
      </g>
     </g>
    </g>
    <g id="xtick_5">
     <g id="line2d_5">
      <g>
       <use xlink:href="#mb089ccf160" x="160.69682" y="307.584" style="stroke: #000000; stroke-width: 0.8"/>
      </g>
     </g>
     <g id="text_5">
      <!-- −1 -->
      <g transform="translate(153.325726 322.182437) scale(0.1 -0.1)">
       <defs>
        <path id="DejaVuSans-31" d="M 794 531 
L 1825 531 
L 1825 4091 
L 703 3866 
L 703 4441 
L 1819 4666 
L 2450 4666 
L 2450 531 
L 3481 531 
L 3481 0 
L 794 0 
L 794 531 
z
" transform="scale(0.015625)"/>
       </defs>
       <use xlink:href="#DejaVuSans-2212"/>
       <use xlink:href="#DejaVuSans-31" x="83.789062"/>
      </g>
     </g>
    </g>
    <g id="xtick_6">
     <g id="line2d_6">
      <g>
       <use xlink:href="#mb089ccf160" x="182.412843" y="307.584" style="stroke: #000000; stroke-width: 0.8"/>
      </g>
     </g>
     <g id="text_6">
      <!-- 0 -->
      <g transform="translate(179.231593 322.182437) scale(0.1 -0.1)">
       <defs>
        <path id="DejaVuSans-30" d="M 2034 4250 
Q 1547 4250 1301 3770 
Q 1056 3291 1056 2328 
Q 1056 1369 1301 889 
Q 1547 409 2034 409 
Q 2525 409 2770 889 
Q 3016 1369 3016 2328 
Q 3016 3291 2770 3770 
Q 2525 4250 2034 4250 
z
M 2034 4750 
Q 2819 4750 3233 4129 
Q 3647 3509 3647 2328 
Q 3647 1150 3233 529 
Q 2819 -91 2034 -91 
Q 1250 -91 836 529 
Q 422 1150 422 2328 
Q 422 3509 836 4129 
Q 1250 4750 2034 4750 
z
" transform="scale(0.015625)"/>
       </defs>
       <use xlink:href="#DejaVuSans-30"/>
      </g>
     </g>
    </g>
    <g id="xtick_7">
     <g id="line2d_7">
      <g>
       <use xlink:href="#mb089ccf160" x="204.128866" y="307.584" style="stroke: #000000; stroke-width: 0.8"/>
      </g>
     </g>
     <g id="text_7">
      <!-- 1 -->
      <g transform="translate(200.947616 322.182437) scale(0.1 -0.1)">
       <use xlink:href="#DejaVuSans-31"/>
      </g>
     </g>
    </g>
    <g id="xtick_8">
     <g id="line2d_8">
      <g>
       <use xlink:href="#mb089ccf160" x="225.844889" y="307.584" style="stroke: #000000; stroke-width: 0.8"/>
      </g>
     </g>
     <g id="text_8">
      <!-- 2 -->
      <g transform="translate(222.663639 322.182437) scale(0.1 -0.1)">
       <use xlink:href="#DejaVuSans-32"/>
      </g>
     </g>
    </g>
    <g id="xtick_9">
     <g id="line2d_9">
      <g>
       <use xlink:href="#mb089ccf160" x="247.560912" y="307.584" style="stroke: #000000; stroke-width: 0.8"/>
      </g>
     </g>
     <g id="text_9">
      <!-- 3 -->
      <g transform="translate(244.379662 322.182437) scale(0.1 -0.1)">
       <use xlink:href="#DejaVuSans-33"/>
      </g>
     </g>
    </g>
    <g id="xtick_10">
     <g id="line2d_10">
      <g>
       <use xlink:href="#mb089ccf160" x="269.276935" y="307.584" style="stroke: #000000; stroke-width: 0.8"/>
      </g>
     </g>
     <g id="text_10">
      <!-- 4 -->
      <g transform="translate(266.095685 322.182437) scale(0.1 -0.1)">
       <use xlink:href="#DejaVuSans-34"/>
      </g>
     </g>
    </g>
    <g id="xtick_11">
     <g id="line2d_11">
      <g>
       <use xlink:href="#mb089ccf160" x="290.992958" y="307.584" style="stroke: #000000; stroke-width: 0.8"/>
      </g>
     </g>
     <g id="text_11">
      <!-- 5 -->
      <g transform="translate(287.811708 322.182437) scale(0.1 -0.1)">
       <use xlink:href="#DejaVuSans-35"/>
      </g>
     </g>
    </g>
    <g id="xtick_12">
     <g id="line2d_12">
      <g>
       <use xlink:href="#mb089ccf160" x="312.708981" y="307.584" style="stroke: #000000; stroke-width: 0.8"/>
      </g>
     </g>
     <g id="text_12">
      <!-- 6 -->
      <g transform="translate(309.527731 322.182437) scale(0.1 -0.1)">
       <defs>
        <path id="DejaVuSans-36" d="M 2113 2584 
Q 1688 2584 1439 2293 
Q 1191 2003 1191 1497 
Q 1191 994 1439 701 
Q 1688 409 2113 409 
Q 2538 409 2786 701 
Q 3034 994 3034 1497 
Q 3034 2003 2786 2293 
Q 2538 2584 2113 2584 
z
M 3366 4563 
L 3366 3988 
Q 3128 4100 2886 4159 
Q 2644 4219 2406 4219 
Q 1781 4219 1451 3797 
Q 1122 3375 1075 2522 
Q 1259 2794 1537 2939 
Q 1816 3084 2150 3084 
Q 2853 3084 3261 2657 
Q 3669 2231 3669 1497 
Q 3669 778 3244 343 
Q 2819 -91 2113 -91 
Q 1303 -91 875 529 
Q 447 1150 447 2328 
Q 447 3434 972 4092 
Q 1497 4750 2381 4750 
Q 2619 4750 2861 4703 
Q 3103 4656 3366 4563 
z
" transform="scale(0.015625)"/>
       </defs>
       <use xlink:href="#DejaVuSans-36"/>
      </g>
     </g>
    </g>
    <g id="xtick_13">
     <g id="line2d_13">
      <g>
       <use xlink:href="#mb089ccf160" x="334.425005" y="307.584" style="stroke: #000000; stroke-width: 0.8"/>
      </g>
     </g>
     <g id="text_13">
      <!-- 7 -->
      <g transform="translate(331.243755 322.182437) scale(0.1 -0.1)">
       <defs>
        <path id="DejaVuSans-37" d="M 525 4666 
L 3525 4666 
L 3525 4397 
L 1831 0 
L 1172 0 
L 2766 4134 
L 525 4134 
L 525 4666 
z
" transform="scale(0.015625)"/>
       </defs>
       <use xlink:href="#DejaVuSans-37"/>
      </g>
     </g>
    </g>
    <g id="xtick_14">
     <g id="line2d_14">
      <g>
       <use xlink:href="#mb089ccf160" x="356.141028" y="307.584" style="stroke: #000000; stroke-width: 0.8"/>
      </g>
     </g>
     <g id="text_14">
      <!-- 8 -->
      <g transform="translate(352.959778 322.182437) scale(0.1 -0.1)">
       <defs>
        <path id="DejaVuSans-38" d="M 2034 2216 
Q 1584 2216 1326 1975 
Q 1069 1734 1069 1313 
Q 1069 891 1326 650 
Q 1584 409 2034 409 
Q 2484 409 2743 651 
Q 3003 894 3003 1313 
Q 3003 1734 2745 1975 
Q 2488 2216 2034 2216 
z
M 1403 2484 
Q 997 2584 770 2862 
Q 544 3141 544 3541 
Q 544 4100 942 4425 
Q 1341 4750 2034 4750 
Q 2731 4750 3128 4425 
Q 3525 4100 3525 3541 
Q 3525 3141 3298 2862 
Q 3072 2584 2669 2484 
Q 3125 2378 3379 2068 
Q 3634 1759 3634 1313 
Q 3634 634 3220 271 
Q 2806 -91 2034 -91 
Q 1263 -91 848 271 
Q 434 634 434 1313 
Q 434 1759 690 2068 
Q 947 2378 1403 2484 
z
M 1172 3481 
Q 1172 3119 1398 2916 
Q 1625 2713 2034 2713 
Q 2441 2713 2670 2916 
Q 2900 3119 2900 3481 
Q 2900 3844 2670 4047 
Q 2441 4250 2034 4250 
Q 1625 4250 1398 4047 
Q 1172 3844 1172 3481 
z
" transform="scale(0.015625)"/>
       </defs>
       <use xlink:href="#DejaVuSans-38"/>
      </g>
     </g>
    </g>
    <g id="xtick_15">
     <g id="line2d_15">
      <g>
       <use xlink:href="#mb089ccf160" x="377.857051" y="307.584" style="stroke: #000000; stroke-width: 0.8"/>
      </g>
     </g>
     <g id="text_15">
      <!-- 9 -->
      <g transform="translate(374.675801 322.182437) scale(0.1 -0.1)">
       <defs>
        <path id="DejaVuSans-39" d="M 703 97 
L 703 672 
Q 941 559 1184 500 
Q 1428 441 1663 441 
Q 2288 441 2617 861 
Q 2947 1281 2994 2138 
Q 2813 1869 2534 1725 
Q 2256 1581 1919 1581 
Q 1219 1581 811 2004 
Q 403 2428 403 3163 
Q 403 3881 828 4315 
Q 1253 4750 1959 4750 
Q 2769 4750 3195 4129 
Q 3622 3509 3622 2328 
Q 3622 1225 3098 567 
Q 2575 -91 1691 -91 
Q 1453 -91 1209 -44 
Q 966 3 703 97 
z
M 1959 2075 
Q 2384 2075 2632 2365 
Q 2881 2656 2881 3163 
Q 2881 3666 2632 3958 
Q 2384 4250 1959 4250 
Q 1534 4250 1286 3958 
Q 1038 3666 1038 3163 
Q 1038 2656 1286 2365 
Q 1534 2075 1959 2075 
z
" transform="scale(0.015625)"/>
       </defs>
       <use xlink:href="#DejaVuSans-39"/>
      </g>
     </g>
    </g>
    <g id="xtick_16">
     <g id="line2d_16">
      <g>
       <use xlink:href="#mb089ccf160" x="399.573074" y="307.584" style="stroke: #000000; stroke-width: 0.8"/>
      </g>
     </g>
     <g id="text_16">
      <!-- 10 -->
      <g transform="translate(393.210574 322.182437) scale(0.1 -0.1)">
       <use xlink:href="#DejaVuSans-31"/>
       <use xlink:href="#DejaVuSans-30" x="63.623047"/>
      </g>
     </g>
    </g>
    <g id="text_17">
     <!-- Time (s) -->
     <g transform="translate(215.831094 335.860562) scale(0.1 -0.1)">
      <defs>
       <path id="DejaVuSans-54" d="M -19 4666 
L 3928 4666 
L 3928 4134 
L 2272 4134 
L 2272 0 
L 1638 0 
L 1638 4134 
L -19 4134 
L -19 4666 
z
" transform="scale(0.015625)"/>
       <path id="DejaVuSans-69" d="M 603 3500 
L 1178 3500 
L 1178 0 
L 603 0 
L 603 3500 
z
M 603 4863 
L 1178 4863 
L 1178 4134 
L 603 4134 
L 603 4863 
z
" transform="scale(0.015625)"/>
       <path id="DejaVuSans-6d" d="M 3328 2828 
Q 3544 3216 3844 3400 
Q 4144 3584 4550 3584 
Q 5097 3584 5394 3201 
Q 5691 2819 5691 2113 
L 5691 0 
L 5113 0 
L 5113 2094 
Q 5113 2597 4934 2840 
Q 4756 3084 4391 3084 
Q 3944 3084 3684 2787 
Q 3425 2491 3425 1978 
L 3425 0 
L 2847 0 
L 2847 2094 
Q 2847 2600 2669 2842 
Q 2491 3084 2119 3084 
Q 1678 3084 1418 2786 
Q 1159 2488 1159 1978 
L 1159 0 
L 581 0 
L 581 3500 
L 1159 3500 
L 1159 2956 
Q 1356 3278 1631 3431 
Q 1906 3584 2284 3584 
Q 2666 3584 2933 3390 
Q 3200 3197 3328 2828 
z
" transform="scale(0.015625)"/>
       <path id="DejaVuSans-65" d="M 3597 1894 
L 3597 1613 
L 953 1613 
Q 991 1019 1311 708 
Q 1631 397 2203 397 
Q 2534 397 2845 478 
Q 3156 559 3463 722 
L 3463 178 
Q 3153 47 2828 -22 
Q 2503 -91 2169 -91 
Q 1331 -91 842 396 
Q 353 884 353 1716 
Q 353 2575 817 3079 
Q 1281 3584 2069 3584 
Q 2775 3584 3186 3129 
Q 3597 2675 3597 1894 
z
M 3022 2063 
Q 3016 2534 2758 2815 
Q 2500 3097 2075 3097 
Q 1594 3097 1305 2825 
Q 1016 2553 972 2059 
L 3022 2063 
z
" transform="scale(0.015625)"/>
       <path id="DejaVuSans-20" transform="scale(0.015625)"/>
       <path id="DejaVuSans-28" d="M 1984 4856 
Q 1566 4138 1362 3434 
Q 1159 2731 1159 2009 
Q 1159 1288 1364 580 
Q 1569 -128 1984 -844 
L 1484 -844 
Q 1016 -109 783 600 
Q 550 1309 550 2009 
Q 550 2706 781 3412 
Q 1013 4119 1484 4856 
L 1984 4856 
z
" transform="scale(0.015625)"/>
       <path id="DejaVuSans-73" d="M 2834 3397 
L 2834 2853 
Q 2591 2978 2328 3040 
Q 2066 3103 1784 3103 
Q 1356 3103 1142 2972 
Q 928 2841 928 2578 
Q 928 2378 1081 2264 
Q 1234 2150 1697 2047 
L 1894 2003 
Q 2506 1872 2764 1633 
Q 3022 1394 3022 966 
Q 3022 478 2636 193 
Q 2250 -91 1575 -91 
Q 1294 -91 989 -36 
Q 684 19 347 128 
L 347 722 
Q 666 556 975 473 
Q 1284 391 1588 391 
Q 1994 391 2212 530 
Q 2431 669 2431 922 
Q 2431 1156 2273 1281 
Q 2116 1406 1581 1522 
L 1381 1569 
Q 847 1681 609 1914 
Q 372 2147 372 2553 
Q 372 3047 722 3315 
Q 1072 3584 1716 3584 
Q 2034 3584 2315 3537 
Q 2597 3491 2834 3397 
z
" transform="scale(0.015625)"/>
       <path id="DejaVuSans-29" d="M 513 4856 
L 1013 4856 
Q 1481 4119 1714 3412 
Q 1947 2706 1947 2009 
Q 1947 1309 1714 600 
Q 1481 -109 1013 -844 
L 513 -844 
Q 928 -128 1133 580 
Q 1338 1288 1338 2009 
Q 1338 2731 1133 3434 
Q 928 4138 513 4856 
z
" transform="scale(0.015625)"/>
      </defs>
      <use xlink:href="#DejaVuSans-54"/>
      <use xlink:href="#DejaVuSans-69" x="57.958984"/>
      <use xlink:href="#DejaVuSans-6d" x="85.742188"/>
      <use xlink:href="#DejaVuSans-65" x="183.154297"/>
      <use xlink:href="#DejaVuSans-20" x="244.677734"/>
      <use xlink:href="#DejaVuSans-28" x="276.464844"/>
      <use xlink:href="#DejaVuSans-73" x="315.478516"/>
      <use xlink:href="#DejaVuSans-29" x="367.578125"/>
     </g>
    </g>
   </g>
   <g id="matplotlib.axis_2">
    <g id="ytick_1">
     <g id="line2d_17">
      <defs>
       <path id="md9933988fe" d="M 0 0 
L -3.5 0 
" style="stroke: #000000; stroke-width: 0.8"/>
      </defs>
      <g>
       <use xlink:href="#md9933988fe" x="57.6" y="288.440707" style="stroke: #000000; stroke-width: 0.8"/>
      </g>
     </g>
     <g id="text_18">
      <!-- −0.50 -->
      <g transform="translate(19.954687 292.239926) scale(0.1 -0.1)">
       <defs>
        <path id="DejaVuSans-2e" d="M 684 794 
L 1344 794 
L 1344 0 
L 684 0 
L 684 794 
z
" transform="scale(0.015625)"/>
       </defs>
       <use xlink:href="#DejaVuSans-2212"/>
       <use xlink:href="#DejaVuSans-30" x="83.789062"/>
       <use xlink:href="#DejaVuSans-2e" x="147.412109"/>
       <use xlink:href="#DejaVuSans-35" x="179.199219"/>
       <use xlink:href="#DejaVuSans-30" x="242.822266"/>
      </g>
     </g>
    </g>
    <g id="ytick_2">
     <g id="line2d_18">
      <g>
       <use xlink:href="#md9933988fe" x="57.6" y="256.814723" style="stroke: #000000; stroke-width: 0.8"/>
      </g>
     </g>
     <g id="text_19">
      <!-- −0.25 -->
      <g transform="translate(19.954687 260.613942) scale(0.1 -0.1)">
       <use xlink:href="#DejaVuSans-2212"/>
       <use xlink:href="#DejaVuSans-30" x="83.789062"/>
       <use xlink:href="#DejaVuSans-2e" x="147.412109"/>
       <use xlink:href="#DejaVuSans-32" x="179.199219"/>
       <use xlink:href="#DejaVuSans-35" x="242.822266"/>
      </g>
     </g>
    </g>
    <g id="ytick_3">
     <g id="line2d_19">
      <g>
       <use xlink:href="#md9933988fe" x="57.6" y="225.18874" style="stroke: #000000; stroke-width: 0.8"/>
      </g>
     </g>
     <g id="text_20">
      <!-- 0.00 -->
      <g transform="translate(28.334375 228.987958) scale(0.1 -0.1)">
       <use xlink:href="#DejaVuSans-30"/>
       <use xlink:href="#DejaVuSans-2e" x="63.623047"/>
       <use xlink:href="#DejaVuSans-30" x="95.410156"/>
       <use xlink:href="#DejaVuSans-30" x="159.033203"/>
      </g>
     </g>
    </g>
    <g id="ytick_4">
     <g id="line2d_20">
      <g>
       <use xlink:href="#md9933988fe" x="57.6" y="193.562756" style="stroke: #000000; stroke-width: 0.8"/>
      </g>
     </g>
     <g id="text_21">
      <!-- 0.25 -->
      <g transform="translate(28.334375 197.361975) scale(0.1 -0.1)">
       <use xlink:href="#DejaVuSans-30"/>
       <use xlink:href="#DejaVuSans-2e" x="63.623047"/>
       <use xlink:href="#DejaVuSans-32" x="95.410156"/>
       <use xlink:href="#DejaVuSans-35" x="159.033203"/>
      </g>
     </g>
    </g>
    <g id="ytick_5">
     <g id="line2d_21">
      <g>
       <use xlink:href="#md9933988fe" x="57.6" y="161.936773" style="stroke: #000000; stroke-width: 0.8"/>
      </g>
     </g>
     <g id="text_22">
      <!-- 0.50 -->
      <g transform="translate(28.334375 165.735991) scale(0.1 -0.1)">
       <use xlink:href="#DejaVuSans-30"/>
       <use xlink:href="#DejaVuSans-2e" x="63.623047"/>
       <use xlink:href="#DejaVuSans-35" x="95.410156"/>
       <use xlink:href="#DejaVuSans-30" x="159.033203"/>
      </g>
     </g>
    </g>
    <g id="ytick_6">
     <g id="line2d_22">
      <g>
       <use xlink:href="#md9933988fe" x="57.6" y="130.310789" style="stroke: #000000; stroke-width: 0.8"/>
      </g>
     </g>
     <g id="text_23">
      <!-- 0.75 -->
      <g transform="translate(28.334375 134.110008) scale(0.1 -0.1)">
       <use xlink:href="#DejaVuSans-30"/>
       <use xlink:href="#DejaVuSans-2e" x="63.623047"/>
       <use xlink:href="#DejaVuSans-37" x="95.410156"/>
       <use xlink:href="#DejaVuSans-35" x="159.033203"/>
      </g>
     </g>
    </g>
    <g id="ytick_7">
     <g id="line2d_23">
      <g>
       <use xlink:href="#md9933988fe" x="57.6" y="98.684806" style="stroke: #000000; stroke-width: 0.8"/>
      </g>
     </g>
     <g id="text_24">
      <!-- 1.00 -->
      <g transform="translate(28.334375 102.484024) scale(0.1 -0.1)">
       <use xlink:href="#DejaVuSans-31"/>
       <use xlink:href="#DejaVuSans-2e" x="63.623047"/>
       <use xlink:href="#DejaVuSans-30" x="95.410156"/>
       <use xlink:href="#DejaVuSans-30" x="159.033203"/>
      </g>
     </g>
    </g>
    <g id="ytick_8">
     <g id="line2d_24">
      <g>
       <use xlink:href="#md9933988fe" x="57.6" y="67.058822" style="stroke: #000000; stroke-width: 0.8"/>
      </g>
     </g>
     <g id="text_25">
      <!-- 1.25 -->
      <g transform="translate(28.334375 70.858041) scale(0.1 -0.1)">
       <use xlink:href="#DejaVuSans-31"/>
       <use xlink:href="#DejaVuSans-2e" x="63.623047"/>
       <use xlink:href="#DejaVuSans-32" x="95.410156"/>
       <use xlink:href="#DejaVuSans-35" x="159.033203"/>
      </g>
     </g>
    </g>
    <g id="text_26">
     <!-- Z-Score -->
     <g transform="translate(13.875 193.67175) rotate(-90) scale(0.1 -0.1)">
      <defs>
       <path id="DejaVuSans-5a" d="M 359 4666 
L 4025 4666 
L 4025 4184 
L 1075 531 
L 4097 531 
L 4097 0 
L 288 0 
L 288 481 
L 3238 4134 
L 359 4134 
L 359 4666 
z
" transform="scale(0.015625)"/>
       <path id="DejaVuSans-2d" d="M 313 2009 
L 1997 2009 
L 1997 1497 
L 313 1497 
L 313 2009 
z
" transform="scale(0.015625)"/>
       <path id="DejaVuSans-53" d="M 3425 4513 
L 3425 3897 
Q 3066 4069 2747 4153 
Q 2428 4238 2131 4238 
Q 1616 4238 1336 4038 
Q 1056 3838 1056 3469 
Q 1056 3159 1242 3001 
Q 1428 2844 1947 2747 
L 2328 2669 
Q 3034 2534 3370 2195 
Q 3706 1856 3706 1288 
Q 3706 609 3251 259 
Q 2797 -91 1919 -91 
Q 1588 -91 1214 -16 
Q 841 59 441 206 
L 441 856 
Q 825 641 1194 531 
Q 1563 422 1919 422 
Q 2459 422 2753 634 
Q 3047 847 3047 1241 
Q 3047 1584 2836 1778 
Q 2625 1972 2144 2069 
L 1759 2144 
Q 1053 2284 737 2584 
Q 422 2884 422 3419 
Q 422 4038 858 4394 
Q 1294 4750 2059 4750 
Q 2388 4750 2728 4690 
Q 3069 4631 3425 4513 
z
" transform="scale(0.015625)"/>
       <path id="DejaVuSans-63" d="M 3122 3366 
L 3122 2828 
Q 2878 2963 2633 3030 
Q 2388 3097 2138 3097 
Q 1578 3097 1268 2742 
Q 959 2388 959 1747 
Q 959 1106 1268 751 
Q 1578 397 2138 397 
Q 2388 397 2633 464 
Q 2878 531 3122 666 
L 3122 134 
Q 2881 22 2623 -34 
Q 2366 -91 2075 -91 
Q 1284 -91 818 406 
Q 353 903 353 1747 
Q 353 2603 823 3093 
Q 1294 3584 2113 3584 
Q 2378 3584 2631 3529 
Q 2884 3475 3122 3366 
z
" transform="scale(0.015625)"/>
       <path id="DejaVuSans-6f" d="M 1959 3097 
Q 1497 3097 1228 2736 
Q 959 2375 959 1747 
Q 959 1119 1226 758 
Q 1494 397 1959 397 
Q 2419 397 2687 759 
Q 2956 1122 2956 1747 
Q 2956 2369 2687 2733 
Q 2419 3097 1959 3097 
z
M 1959 3584 
Q 2709 3584 3137 3096 
Q 3566 2609 3566 1747 
Q 3566 888 3137 398 
Q 2709 -91 1959 -91 
Q 1206 -91 779 398 
Q 353 888 353 1747 
Q 353 2609 779 3096 
Q 1206 3584 1959 3584 
z
" transform="scale(0.015625)"/>
       <path id="DejaVuSans-72" d="M 2631 2963 
Q 2534 3019 2420 3045 
Q 2306 3072 2169 3072 
Q 1681 3072 1420 2755 
Q 1159 2438 1159 1844 
L 1159 0 
L 581 0 
L 581 3500 
L 1159 3500 
L 1159 2956 
Q 1341 3275 1631 3429 
Q 1922 3584 2338 3584 
Q 2397 3584 2469 3576 
Q 2541 3569 2628 3553 
L 2631 2963 
z
" transform="scale(0.015625)"/>
      </defs>
      <use xlink:href="#DejaVuSans-5a"/>
      <use xlink:href="#DejaVuSans-2d" x="66.755859"/>
      <use xlink:href="#DejaVuSans-53" x="102.839844"/>
      <use xlink:href="#DejaVuSans-63" x="166.316406"/>
      <use xlink:href="#DejaVuSans-6f" x="221.296875"/>
      <use xlink:href="#DejaVuSans-72" x="282.478516"/>
      <use xlink:href="#DejaVuSans-65" x="321.341797"/>
     </g>
    </g>
   </g>
   <g id="line2d_25">
    <path d="M 73.832727 235.58202 
L 74.918528 235.499967 
L 76.00433 235.569908 
L 77.090131 234.601745 
L 78.175932 234.774953 
L 80.347534 233.333887 
L 81.433335 233.722817 
L 82.519137 234.876546 
L 83.604938 234.706648 
L 84.690739 233.977299 
L 85.77654 232.551414 
L 87.948142 230.695045 
L 89.033943 231.54755 
L 90.119745 231.359517 
L 91.205546 230.206633 
L 92.291347 229.739649 
L 93.377148 229.740269 
L 94.462949 228.431984 
L 95.54875 226.802031 
L 97.720353 225.555533 
L 98.806154 225.123982 
L 99.891955 224.550217 
L 100.977756 223.098133 
L 103.149358 223.127551 
L 104.23516 224.537382 
L 105.320961 223.701318 
L 106.406762 223.87457 
L 107.492563 223.820365 
L 108.578364 224.377133 
L 110.749967 223.869309 
L 112.921569 225.525291 
L 114.00737 225.745735 
L 115.093171 226.972514 
L 116.178972 227.237865 
L 117.264773 228.012006 
L 118.350575 227.290687 
L 119.436376 228.004443 
L 120.522177 227.360193 
L 121.607978 226.36119 
L 122.693779 226.995343 
L 123.77958 227.213679 
L 124.865382 226.951913 
L 127.036984 224.951788 
L 128.122785 224.210586 
L 129.208586 223.099005 
L 130.294387 221.823961 
L 131.380189 221.587329 
L 132.46599 220.648988 
L 133.551791 219.970955 
L 134.637592 219.070572 
L 135.723393 219.745507 
L 136.809194 219.211611 
L 137.894995 217.95057 
L 138.980797 217.185938 
L 140.066598 215.870481 
L 141.152399 216.304292 
L 142.2382 216.032063 
L 143.324001 216.448988 
L 144.409802 216.258408 
L 145.495604 216.563329 
L 146.581405 214.839837 
L 147.667206 214.073744 
L 148.753007 214.027784 
L 150.924609 216.629522 
L 152.01041 217.221686 
L 153.096212 217.41379 
L 154.182013 217.080424 
L 156.353615 220.237982 
L 157.439416 220.823735 
L 158.525217 222.798832 
L 159.611019 224.168694 
L 160.69682 225.953479 
L 161.782621 226.776287 
L 162.868422 228.121965 
L 163.954223 229.074936 
L 165.040024 230.198306 
L 166.125825 230.089903 
L 167.211627 230.729689 
L 168.297428 230.857313 
L 169.383229 231.239976 
L 170.46903 230.376228 
L 171.554831 231.245747 
L 172.640632 230.258263 
L 173.726434 229.958253 
L 174.812235 228.713006 
L 175.898036 226.210948 
L 176.983837 224.922374 
L 178.069638 223.058973 
L 180.24124 218.089128 
L 182.412843 212.849395 
L 183.498644 210.268117 
L 184.584445 208.981894 
L 185.670246 206.104835 
L 187.841849 201.97565 
L 188.92765 201.070893 
L 191.099252 198.477075 
L 192.185053 196.789891 
L 193.270854 195.545163 
L 194.356656 193.84512 
L 195.442457 192.987372 
L 196.528258 190.905488 
L 197.614059 190.707573 
L 199.785661 186.931974 
L 200.871462 186.114939 
L 203.043065 182.723824 
L 204.128866 179.812059 
L 205.214667 177.967847 
L 206.300468 175.080804 
L 207.386269 173.155976 
L 208.472071 169.403669 
L 209.557872 167.558962 
L 211.729474 165.633662 
L 213.901076 160.405814 
L 214.986877 158.394925 
L 216.072679 156.055982 
L 217.15848 154.242067 
L 218.244281 150.51441 
L 219.330082 144.865394 
L 221.501684 136.58214 
L 223.673287 129.213342 
L 224.759088 126.048997 
L 226.93069 121.612043 
L 228.016491 121.068233 
L 229.102292 120.035352 
L 231.273895 116.482845 
L 232.359696 115.257047 
L 235.617099 114.333926 
L 236.702901 114.363228 
L 237.788702 114.096925 
L 238.874503 115.014194 
L 239.960304 114.944312 
L 241.046105 116.085183 
L 242.131906 116.166545 
L 243.217708 116.712838 
L 245.38931 115.325888 
L 246.475111 114.969062 
L 247.560912 116.197201 
L 248.646713 116.221962 
L 249.732514 116.740043 
L 250.818316 116.793443 
L 251.904117 118.228879 
L 252.989918 118.813932 
L 254.075719 119.52773 
L 255.16152 119.406167 
L 256.247321 119.515256 
L 258.418924 120.123987 
L 259.504725 120.635579 
L 260.590526 122.265618 
L 261.676327 122.250521 
L 262.762128 123.79016 
L 263.847929 124.720037 
L 264.933731 125.434644 
L 267.105333 127.981231 
L 268.191134 130.440757 
L 269.276935 132.013374 
L 270.362736 133.345408 
L 271.448538 135.606934 
L 272.534339 137.003189 
L 273.62014 138.077137 
L 274.705941 138.403252 
L 275.791742 139.706598 
L 276.877543 141.551885 
L 277.963344 144.143618 
L 280.134947 145.903382 
L 281.220748 147.244958 
L 282.306549 148.960879 
L 284.478151 156.464049 
L 285.563953 159.9253 
L 286.649754 161.964388 
L 287.735555 162.575805 
L 288.821356 164.762385 
L 289.907157 165.48846 
L 290.992958 166.488199 
L 292.07876 166.386026 
L 293.164561 168.013592 
L 294.250362 169.323727 
L 297.507765 172.133615 
L 298.593566 171.292603 
L 300.765169 173.005986 
L 301.85097 174.588551 
L 302.936771 174.910204 
L 304.022572 175.908342 
L 305.108373 177.205064 
L 306.194175 179.123679 
L 307.279976 179.364562 
L 308.365777 181.795177 
L 310.537379 185.372653 
L 312.708981 188.935319 
L 313.794783 190.048606 
L 314.880584 190.593934 
L 315.966385 189.620673 
L 317.052186 189.212253 
L 318.137987 189.374017 
L 319.223788 190.069184 
L 320.30959 191.477809 
L 321.395391 191.690296 
L 322.481192 192.802594 
L 324.652794 190.55281 
L 325.738595 190.870704 
L 327.910198 190.21957 
L 328.995999 190.348608 
L 330.0818 190.675258 
L 333.339203 190.747473 
L 334.425005 191.222599 
L 335.510806 190.844832 
L 336.596607 192.000996 
L 337.682408 192.702426 
L 338.768209 193.081024 
L 339.85401 193.332267 
L 340.939811 192.570828 
L 342.025613 191.432446 
L 343.111414 190.940532 
L 344.197215 191.427128 
L 347.454618 192.046222 
L 348.54042 191.527398 
L 349.626221 189.56627 
L 350.712022 189.415385 
L 351.797823 189.858994 
L 352.883624 188.256324 
L 353.969425 188.602265 
L 355.055227 188.557042 
L 356.141028 187.849465 
L 357.226829 186.898062 
L 358.31263 186.568823 
L 359.398431 187.064261 
L 360.484232 187.800203 
L 361.570033 187.663922 
L 362.655835 188.448046 
L 363.741636 188.540582 
L 364.827437 188.098441 
L 365.913238 186.593341 
L 366.999039 186.34853 
L 368.08484 186.235666 
L 369.170642 184.664899 
L 370.256443 184.057116 
L 371.342244 184.217622 
L 372.428045 183.069316 
L 373.513846 182.846655 
L 374.599647 180.654343 
L 375.685448 179.21044 
L 376.77125 179.242106 
L 377.857051 179.691513 
L 378.942852 180.422005 
L 380.028653 182.284475 
L 381.114454 183.308788 
L 382.200255 183.686503 
L 383.286057 185.198222 
L 384.371858 185.348404 
L 385.457659 187.085055 
L 386.54346 187.678978 
L 388.715062 191.187667 
L 389.800863 192.215278 
L 390.886665 192.658036 
L 391.972466 193.686397 
L 394.144068 193.813181 
L 395.229869 194.746525 
L 396.31567 195.482931 
L 397.401472 197.008523 
L 398.487273 197.939338 
L 398.487273 197.939338 
" clip-path="url(#pf97be0d31b)" style="fill: none; stroke: #ff00ff; stroke-width: 1.5; stroke-linecap: square"/>
   </g>
   <g id="line2d_26">
    <path d="M 182.412843 307.584 
L 182.412843 41.472 
" clip-path="url(#pf97be0d31b)" style="fill: none; stroke: #000000; stroke-width: 1.5; stroke-linecap: square"/>
   </g>
   <g id="patch_3">
    <path d="M 57.6 307.584 
L 57.6 41.472 
" style="fill: none; stroke: #000000; stroke-width: 0.8; stroke-linejoin: miter; stroke-linecap: square"/>
   </g>
   <g id="patch_4">
    <path d="M 414.72 307.584 
L 414.72 41.472 
" style="fill: none; stroke: #000000; stroke-width: 0.8; stroke-linejoin: miter; stroke-linecap: square"/>
   </g>
   <g id="patch_5">
    <path d="M 57.6 307.584 
L 414.72 307.584 
" style="fill: none; stroke: #000000; stroke-width: 0.8; stroke-linejoin: miter; stroke-linecap: square"/>
   </g>
   <g id="patch_6">
    <path d="M 57.6 41.472 
L 414.72 41.472 
" style="fill: none; stroke: #000000; stroke-width: 0.8; stroke-linejoin: miter; stroke-linecap: square"/>
   </g>
   <g id="text_27">
    <!-- Event 16_p=0.285 -->
    <g transform="translate(180.415312 35.472) scale(0.12 -0.12)">
     <defs>
      <path id="DejaVuSans-45" d="M 628 4666 
L 3578 4666 
L 3578 4134 
L 1259 4134 
L 1259 2753 
L 3481 2753 
L 3481 2222 
L 1259 2222 
L 1259 531 
L 3634 531 
L 3634 0 
L 628 0 
L 628 4666 
z
" transform="scale(0.015625)"/>
      <path id="DejaVuSans-76" d="M 191 3500 
L 800 3500 
L 1894 563 
L 2988 3500 
L 3597 3500 
L 2284 0 
L 1503 0 
L 191 3500 
z
" transform="scale(0.015625)"/>
      <path id="DejaVuSans-6e" d="M 3513 2113 
L 3513 0 
L 2938 0 
L 2938 2094 
Q 2938 2591 2744 2837 
Q 2550 3084 2163 3084 
Q 1697 3084 1428 2787 
Q 1159 2491 1159 1978 
L 1159 0 
L 581 0 
L 581 3500 
L 1159 3500 
L 1159 2956 
Q 1366 3272 1645 3428 
Q 1925 3584 2291 3584 
Q 2894 3584 3203 3211 
Q 3513 2838 3513 2113 
z
" transform="scale(0.015625)"/>
      <path id="DejaVuSans-74" d="M 1172 4494 
L 1172 3500 
L 2356 3500 
L 2356 3053 
L 1172 3053 
L 1172 1153 
Q 1172 725 1289 603 
Q 1406 481 1766 481 
L 2356 481 
L 2356 0 
L 1766 0 
Q 1100 0 847 248 
Q 594 497 594 1153 
L 594 3053 
L 172 3053 
L 172 3500 
L 594 3500 
L 594 4494 
L 1172 4494 
z
" transform="scale(0.015625)"/>
      <path id="DejaVuSans-5f" d="M 3263 -1063 
L 3263 -1509 
L -63 -1509 
L -63 -1063 
L 3263 -1063 
z
" transform="scale(0.015625)"/>
      <path id="DejaVuSans-70" d="M 1159 525 
L 1159 -1331 
L 581 -1331 
L 581 3500 
L 1159 3500 
L 1159 2969 
Q 1341 3281 1617 3432 
Q 1894 3584 2278 3584 
Q 2916 3584 3314 3078 
Q 3713 2572 3713 1747 
Q 3713 922 3314 415 
Q 2916 -91 2278 -91 
Q 1894 -91 1617 61 
Q 1341 213 1159 525 
z
M 3116 1747 
Q 3116 2381 2855 2742 
Q 2594 3103 2138 3103 
Q 1681 3103 1420 2742 
Q 1159 2381 1159 1747 
Q 1159 1113 1420 752 
Q 1681 391 2138 391 
Q 2594 391 2855 752 
Q 3116 1113 3116 1747 
z
" transform="scale(0.015625)"/>
      <path id="DejaVuSans-3d" d="M 678 2906 
L 4684 2906 
L 4684 2381 
L 678 2381 
L 678 2906 
z
M 678 1631 
L 4684 1631 
L 4684 1100 
L 678 1100 
L 678 1631 
z
" transform="scale(0.015625)"/>
     </defs>
     <use xlink:href="#DejaVuSans-45"/>
     <use xlink:href="#DejaVuSans-76" x="63.183594"/>
     <use xlink:href="#DejaVuSans-65" x="122.363281"/>
     <use xlink:href="#DejaVuSans-6e" x="183.886719"/>
     <use xlink:href="#DejaVuSans-74" x="247.265625"/>
     <use xlink:href="#DejaVuSans-20" x="286.474609"/>
     <use xlink:href="#DejaVuSans-31" x="318.261719"/>
     <use xlink:href="#DejaVuSans-36" x="381.884766"/>
     <use xlink:href="#DejaVuSans-5f" x="445.507812"/>
     <use xlink:href="#DejaVuSans-70" x="495.507812"/>
     <use xlink:href="#DejaVuSans-3d" x="558.984375"/>
     <use xlink:href="#DejaVuSans-30" x="642.773438"/>
     <use xlink:href="#DejaVuSans-2e" x="706.396484"/>
     <use xlink:href="#DejaVuSans-32" x="738.183594"/>
     <use xlink:href="#DejaVuSans-38" x="801.806641"/>
     <use xlink:href="#DejaVuSans-35" x="865.429688"/>
    </g>
   </g>
  </g>
 </g>
 <defs>
  <clipPath id="pf97be0d31b">
   <rect x="57.6" y="41.472" width="357.12" height="266.112"/>
  </clipPath>
 </defs>
</svg>
