<?xml version="1.0" encoding="utf-8" standalone="no"?>
<!DOCTYPE svg PUBLIC "-//W3C//DTD SVG 1.1//EN"
  "http://www.w3.org/Graphics/SVG/1.1/DTD/svg11.dtd">
<svg xmlns:xlink="http://www.w3.org/1999/xlink" width="460.8pt" height="345.6pt" viewBox="0 0 460.8 345.6" xmlns="http://www.w3.org/2000/svg" version="1.1">
 <metadata>
  <rdf:RDF xmlns:dc="http://purl.org/dc/elements/1.1/" xmlns:cc="http://creativecommons.org/ns#" xmlns:rdf="http://www.w3.org/1999/02/22-rdf-syntax-ns#">
   <cc:Work>
    <dc:type rdf:resource="http://purl.org/dc/dcmitype/StillImage"/>
    <dc:date>2024-11-12T22:27:51.258840</dc:date>
    <dc:format>image/svg+xml</dc:format>
    <dc:creator>
     <cc:Agent>
      <dc:title>Matplotlib v3.8.2, https://matplotlib.org/</dc:title>
     </cc:Agent>
    </dc:creator>
   </cc:Work>
  </rdf:RDF>
 </metadata>
 <defs>
  <style type="text/css">*{stroke-linejoin: round; stroke-linecap: butt}</style>
 </defs>
 <g id="figure_1">
  <g id="patch_1">
   <path d="M 0 345.6 
L 460.8 345.6 
L 460.8 0 
L 0 0 
z
" style="fill: #ffffff"/>
  </g>
  <g id="axes_1">
   <g id="patch_2">
    <path d="M 57.6 307.584 
L 414.72 307.584 
L 414.72 41.472 
L 57.6 41.472 
z
" style="fill: #ffffff"/>
   </g>
   <g id="PolyCollection_1">
    <defs>
     <path id="m34768b85f1" d="M 73.832727 -175.63042 
L 73.832727 -135.813875 
L 74.918528 -135.612767 
L 76.00433 -135.539458 
L 77.090131 -135.461666 
L 78.175932 -135.185194 
L 79.261733 -134.954041 
L 80.347534 -135.000975 
L 81.433335 -135.316432 
L 82.519137 -135.445932 
L 83.604938 -136.506182 
L 84.690739 -136.708433 
L 85.77654 -136.43715 
L 86.862341 -135.877181 
L 87.948142 -136.543508 
L 89.033943 -137.60471 
L 90.119745 -137.487181 
L 91.205546 -137.958065 
L 92.291347 -138.411837 
L 93.377148 -138.948076 
L 94.462949 -139.358608 
L 95.54875 -139.827221 
L 96.634552 -140.69362 
L 97.720353 -141.273151 
L 98.806154 -141.409681 
L 99.891955 -142.133007 
L 100.977756 -143.24211 
L 102.063557 -144.110977 
L 103.149358 -144.828673 
L 104.23516 -145.721741 
L 105.320961 -146.707715 
L 106.406762 -147.506129 
L 107.492563 -149.324384 
L 108.578364 -150.288027 
L 109.664165 -150.334461 
L 110.749967 -150.927194 
L 111.835768 -151.37329 
L 112.921569 -152.394694 
L 114.00737 -153.260359 
L 115.093171 -154.279499 
L 116.178972 -154.395483 
L 117.264773 -155.852011 
L 118.350575 -157.313306 
L 119.436376 -157.933281 
L 120.522177 -158.523819 
L 121.607978 -159.296923 
L 122.693779 -159.658114 
L 123.77958 -159.609569 
L 124.865382 -160.297433 
L 125.951183 -159.526254 
L 127.036984 -157.792027 
L 128.122785 -159.48743 
L 129.208586 -159.860531 
L 130.294387 -159.92513 
L 131.380189 -160.601786 
L 132.46599 -161.451483 
L 133.551791 -163.531111 
L 134.637592 -164.148914 
L 135.723393 -164.943952 
L 136.809194 -166.077103 
L 137.894995 -166.962678 
L 138.980797 -167.847523 
L 140.066598 -168.710852 
L 141.152399 -168.146378 
L 142.2382 -167.218631 
L 143.324001 -167.227013 
L 144.409802 -165.868497 
L 145.495604 -165.48795 
L 146.581405 -165.096262 
L 147.667206 -164.462201 
L 148.753007 -163.937619 
L 149.838808 -163.340642 
L 150.924609 -162.729624 
L 152.01041 -161.413611 
L 153.096212 -160.122959 
L 154.182013 -159.732627 
L 155.267814 -158.61636 
L 156.353615 -158.096113 
L 157.439416 -157.414413 
L 158.525217 -156.306833 
L 159.611019 -155.550647 
L 160.69682 -154.130199 
L 161.782621 -153.2254 
L 162.868422 -152.7279 
L 163.954223 -152.697302 
L 165.040024 -153.009419 
L 166.125825 -153.026757 
L 167.211627 -152.523563 
L 168.297428 -152.334669 
L 169.383229 -151.887061 
L 170.46903 -151.421205 
L 171.554831 -150.743652 
L 172.640632 -150.243278 
L 173.726434 -149.54112 
L 174.812235 -148.846338 
L 175.898036 -148.144937 
L 176.983837 -147.200693 
L 178.069638 -146.543004 
L 179.155439 -145.08559 
L 180.24124 -143.614166 
L 181.327042 -142.732347 
L 182.412843 -140.025195 
L 183.498644 -138.934558 
L 184.584445 -137.357943 
L 185.670246 -136.172079 
L 186.756047 -134.636592 
L 187.841849 -133.212279 
L 188.92765 -132.144835 
L 190.013451 -130.731401 
L 191.099252 -129.100966 
L 192.185053 -126.874402 
L 193.270854 -124.967437 
L 194.356656 -123.422281 
L 195.442457 -121.698279 
L 196.528258 -119.727754 
L 197.614059 -117.921958 
L 198.69986 -116.23467 
L 199.785661 -114.28627 
L 200.871462 -112.394949 
L 201.957264 -110.8841 
L 203.043065 -109.11111 
L 204.128866 -107.996777 
L 205.214667 -107.094901 
L 206.300468 -105.711032 
L 207.386269 -104.626667 
L 208.472071 -102.590947 
L 209.557872 -100.977475 
L 210.643673 -98.999433 
L 211.729474 -97.279973 
L 212.815275 -95.967146 
L 213.901076 -94.661518 
L 214.986877 -93.393069 
L 216.072679 -91.941643 
L 217.15848 -90.249325 
L 218.244281 -88.783436 
L 219.330082 -87.370558 
L 220.415883 -85.68645 
L 221.501684 -84.442962 
L 222.587486 -83.032673 
L 223.673287 -82.109618 
L 224.759088 -80.902778 
L 225.844889 -79.350999 
L 226.93069 -77.513831 
L 228.016491 -75.685509 
L 229.102292 -73.961961 
L 230.188094 -72.848671 
L 231.273895 -71.21973 
L 232.359696 -69.807667 
L 233.445497 -68.656564 
L 234.531298 -67.465205 
L 235.617099 -66.272685 
L 236.702901 -65.470686 
L 237.788702 -64.274249 
L 238.874503 -63.380323 
L 239.960304 -62.538916 
L 241.046105 -61.87637 
L 242.131906 -61.455293 
L 243.217708 -61.186847 
L 244.303509 -60.897511 
L 245.38931 -60.374368 
L 246.475111 -59.94871 
L 247.560912 -59.292496 
L 248.646713 -59.022361 
L 249.732514 -58.467165 
L 250.818316 -57.927003 
L 251.904117 -57.616156 
L 252.989918 -56.882348 
L 254.075719 -56.539921 
L 255.16152 -56.05824 
L 256.247321 -56.160716 
L 257.333123 -55.929909 
L 258.418924 -56.031519 
L 259.504725 -55.835399 
L 260.590526 -55.672702 
L 261.676327 -55.634369 
L 262.762128 -55.881779 
L 263.847929 -55.980629 
L 264.933731 -56.045005 
L 266.019532 -55.984645 
L 267.105333 -56.264455 
L 268.191134 -56.475892 
L 269.276935 -56.961709 
L 270.362736 -57.346927 
L 271.448538 -57.645266 
L 272.534339 -58.644098 
L 273.62014 -59.246281 
L 274.705941 -60.118132 
L 275.791742 -60.915052 
L 276.877543 -61.485134 
L 277.963344 -62.225862 
L 279.049146 -62.976868 
L 280.134947 -63.813047 
L 281.220748 -64.528101 
L 282.306549 -65.22742 
L 283.39235 -65.858992 
L 284.478151 -66.426895 
L 285.563953 -67.043549 
L 286.649754 -67.573447 
L 287.735555 -67.721491 
L 288.821356 -68.039859 
L 289.907157 -68.551483 
L 290.992958 -68.928762 
L 292.07876 -69.097407 
L 293.164561 -69.32111 
L 294.250362 -69.428476 
L 295.336163 -69.948943 
L 296.421964 -70.211583 
L 297.507765 -70.222705 
L 298.593566 -70.295859 
L 299.679368 -70.500709 
L 300.765169 -70.780939 
L 301.85097 -70.814591 
L 302.936771 -70.950448 
L 304.022572 -71.235387 
L 305.108373 -71.136661 
L 306.194175 -70.997226 
L 307.279976 -70.882659 
L 308.365777 -70.689887 
L 309.451578 -70.613929 
L 310.537379 -70.316851 
L 311.62318 -70.257384 
L 312.708981 -69.825106 
L 313.794783 -69.640686 
L 314.880584 -69.458469 
L 315.966385 -69.18007 
L 317.052186 -69.535115 
L 318.137987 -69.137598 
L 319.223788 -68.993558 
L 320.30959 -68.796168 
L 321.395391 -68.43628 
L 322.481192 -67.997761 
L 323.566993 -67.621181 
L 324.652794 -67.246853 
L 325.738595 -66.642631 
L 326.824396 -65.891757 
L 327.910198 -64.909823 
L 328.995999 -64.31248 
L 330.0818 -63.8571 
L 331.167601 -63.41402 
L 332.253402 -62.711433 
L 333.339203 -61.617336 
L 334.425005 -60.960112 
L 335.510806 -60.378124 
L 336.596607 -59.654223 
L 337.682408 -58.649429 
L 338.768209 -57.763395 
L 339.85401 -56.905578 
L 340.939811 -56.179046 
L 342.025613 -55.104568 
L 343.111414 -54.206861 
L 344.197215 -53.314919 
L 345.283016 -52.64972 
L 346.368817 -52.019968 
L 347.454618 -51.308249 
L 348.54042 -51.105299 
L 349.626221 -51.15336 
L 350.712022 -51.162204 
L 351.797823 -51.224477 
L 352.883624 -51.117531 
L 353.969425 -50.716726 
L 355.055227 -50.600176 
L 356.141028 -50.541578 
L 357.226829 -50.369534 
L 358.31263 -50.381553 
L 359.398431 -50.481331 
L 360.484232 -50.577028 
L 361.570033 -50.82786 
L 362.655835 -50.696336 
L 363.741636 -50.264065 
L 364.827437 -50.112 
L 365.913238 -50.396958 
L 366.999039 -50.80216 
L 368.08484 -51.037802 
L 369.170642 -51.332814 
L 370.256443 -51.566502 
L 371.342244 -51.968959 
L 372.428045 -52.024164 
L 373.513846 -52.519764 
L 374.599647 -52.806927 
L 375.685448 -53.385244 
L 376.77125 -53.992586 
L 377.857051 -54.708679 
L 378.942852 -55.351458 
L 380.028653 -56.015851 
L 381.114454 -56.206092 
L 382.200255 -57.056063 
L 383.286057 -58.020481 
L 384.371858 -58.467251 
L 385.457659 -59.317749 
L 386.54346 -59.958451 
L 387.629261 -60.440928 
L 388.715062 -61.052017 
L 389.800863 -61.883187 
L 390.886665 -62.327864 
L 391.972466 -63.2151 
L 393.058267 -63.974184 
L 394.144068 -64.17633 
L 395.229869 -64.368499 
L 396.31567 -64.640767 
L 397.401472 -64.899646 
L 398.487273 -64.762762 
L 398.487273 -230.039958 
L 398.487273 -230.039958 
L 397.401472 -229.274541 
L 396.31567 -227.456031 
L 395.229869 -224.891381 
L 394.144068 -223.610888 
L 393.058267 -222.355119 
L 391.972466 -220.141175 
L 390.886665 -218.484507 
L 389.800863 -215.746081 
L 388.715062 -213.504127 
L 387.629261 -211.658585 
L 386.54346 -209.685867 
L 385.457659 -207.694097 
L 384.371858 -205.900332 
L 383.286057 -203.967876 
L 382.200255 -202.312196 
L 381.114454 -200.277812 
L 380.028653 -198.883148 
L 378.942852 -196.851664 
L 377.857051 -194.831391 
L 376.77125 -192.811857 
L 375.685448 -191.00417 
L 374.599647 -189.032889 
L 373.513846 -187.212603 
L 372.428045 -185.876344 
L 371.342244 -184.856089 
L 370.256443 -184.719306 
L 369.170642 -184.169249 
L 368.08484 -184.109717 
L 366.999039 -184.103923 
L 365.913238 -184.047097 
L 364.827437 -184.151835 
L 363.741636 -184.427493 
L 362.655835 -185.498548 
L 361.570033 -186.948099 
L 360.484232 -187.506056 
L 359.398431 -187.826556 
L 358.31263 -188.498312 
L 357.226829 -189.276053 
L 356.141028 -190.615838 
L 355.055227 -191.791109 
L 353.969425 -193.478343 
L 352.883624 -195.594539 
L 351.797823 -197.85661 
L 350.712022 -199.680814 
L 349.626221 -201.967294 
L 348.54042 -204.55672 
L 347.454618 -206.71412 
L 346.368817 -208.737016 
L 345.283016 -210.854458 
L 344.197215 -212.909054 
L 343.111414 -215.090227 
L 342.025613 -216.642635 
L 340.939811 -218.906912 
L 339.85401 -221.28865 
L 338.768209 -224.281396 
L 337.682408 -227.235632 
L 336.596607 -230.298268 
L 335.510806 -233.19445 
L 334.425005 -234.509521 
L 333.339203 -236.540608 
L 332.253402 -239.513649 
L 331.167601 -242.087838 
L 330.0818 -244.366837 
L 328.995999 -246.633249 
L 327.910198 -249.054423 
L 326.824396 -251.783921 
L 325.738595 -254.737542 
L 324.652794 -257.044595 
L 323.566993 -259.418103 
L 322.481192 -261.950373 
L 321.395391 -264.715743 
L 320.30959 -266.999101 
L 319.223788 -269.279925 
L 318.137987 -270.950461 
L 317.052186 -272.709857 
L 315.966385 -274.467767 
L 314.880584 -275.993018 
L 313.794783 -278.196061 
L 312.708981 -280.581104 
L 311.62318 -282.639502 
L 310.537379 -284.056796 
L 309.451578 -285.525852 
L 308.365777 -286.52523 
L 307.279976 -287.613047 
L 306.194175 -288.048026 
L 305.108373 -288.302547 
L 304.022572 -289.417171 
L 302.936771 -290.244463 
L 301.85097 -291.201255 
L 300.765169 -292.032 
L 299.679368 -291.940675 
L 298.593566 -291.601795 
L 297.507765 -291.398527 
L 296.421964 -291.867665 
L 295.336163 -291.261199 
L 294.250362 -290.973457 
L 293.164561 -290.561483 
L 292.07876 -289.4316 
L 290.992958 -288.659375 
L 289.907157 -287.093532 
L 288.821356 -285.301986 
L 287.735555 -282.860009 
L 286.649754 -281.191945 
L 285.563953 -278.749189 
L 284.478151 -275.861605 
L 283.39235 -274.034066 
L 282.306549 -272.007948 
L 281.220748 -270.115089 
L 280.134947 -268.133236 
L 279.049146 -266.05256 
L 277.963344 -264.321881 
L 276.877543 -262.258334 
L 275.791742 -260.207101 
L 274.705941 -257.884009 
L 273.62014 -255.864607 
L 272.534339 -252.837936 
L 271.448538 -250.598726 
L 270.362736 -248.751709 
L 269.276935 -246.512062 
L 268.191134 -244.06423 
L 267.105333 -241.847435 
L 266.019532 -239.125563 
L 264.933731 -236.632326 
L 263.847929 -233.460172 
L 262.762128 -230.201439 
L 261.676327 -228.167502 
L 260.590526 -225.545475 
L 259.504725 -222.4502 
L 258.418924 -219.668054 
L 257.333123 -217.127321 
L 256.247321 -215.010896 
L 255.16152 -212.452778 
L 254.075719 -210.365387 
L 252.989918 -208.982841 
L 251.904117 -207.820327 
L 250.818316 -206.172202 
L 249.732514 -204.762941 
L 248.646713 -203.354782 
L 247.560912 -201.799851 
L 246.475111 -201.052833 
L 245.38931 -200.398546 
L 244.303509 -199.906924 
L 243.217708 -199.23125 
L 242.131906 -198.020603 
L 241.046105 -198.265306 
L 239.960304 -197.360835 
L 238.874503 -196.886179 
L 237.788702 -196.225274 
L 236.702901 -196.416419 
L 235.617099 -196.750934 
L 234.531298 -197.290393 
L 233.445497 -197.475608 
L 232.359696 -198.064579 
L 231.273895 -199.322525 
L 230.188094 -200.349304 
L 229.102292 -200.606608 
L 228.016491 -201.572253 
L 226.93069 -202.799483 
L 225.844889 -204.652314 
L 224.759088 -205.832085 
L 223.673287 -206.475519 
L 222.587486 -207.331786 
L 221.501684 -207.798917 
L 220.415883 -208.961952 
L 219.330082 -210.050896 
L 218.244281 -210.890717 
L 217.15848 -211.061102 
L 216.072679 -211.616401 
L 214.986877 -211.608415 
L 213.901076 -211.629524 
L 212.815275 -211.399751 
L 211.729474 -211.101255 
L 210.643673 -211.738754 
L 209.557872 -211.596004 
L 208.472071 -211.857669 
L 207.386269 -211.838116 
L 206.300468 -211.201757 
L 205.214667 -211.357515 
L 204.128866 -210.935627 
L 203.043065 -210.652047 
L 201.957264 -211.424431 
L 200.871462 -212.036234 
L 199.785661 -213.429327 
L 198.69986 -214.910479 
L 197.614059 -215.016912 
L 196.528258 -215.883187 
L 195.442457 -217.9944 
L 194.356656 -219.721968 
L 193.270854 -220.738352 
L 192.185053 -221.804153 
L 191.099252 -223.220315 
L 190.013451 -223.846107 
L 188.92765 -223.097848 
L 187.841849 -221.84169 
L 186.756047 -222.676159 
L 185.670246 -222.262781 
L 184.584445 -222.329731 
L 183.498644 -222.273481 
L 182.412843 -221.673043 
L 181.327042 -220.700103 
L 180.24124 -220.006324 
L 179.155439 -219.123667 
L 178.069638 -218.090784 
L 176.983837 -216.773096 
L 175.898036 -216.077895 
L 174.812235 -214.830798 
L 173.726434 -213.286253 
L 172.640632 -211.399336 
L 171.554831 -209.81233 
L 170.46903 -209.370907 
L 169.383229 -207.144052 
L 168.297428 -205.093173 
L 167.211627 -202.994993 
L 166.125825 -201.471452 
L 165.040024 -199.802349 
L 163.954223 -197.880282 
L 162.868422 -194.843999 
L 161.782621 -192.717273 
L 160.69682 -191.451247 
L 159.611019 -190.050931 
L 158.525217 -189.107295 
L 157.439416 -187.599414 
L 156.353615 -186.208748 
L 155.267814 -184.898485 
L 154.182013 -184.02588 
L 153.096212 -183.017985 
L 152.01041 -182.743707 
L 150.924609 -182.38109 
L 149.838808 -181.659759 
L 148.753007 -181.038714 
L 147.667206 -180.207795 
L 146.581405 -179.847902 
L 145.495604 -179.082962 
L 144.409802 -178.483831 
L 143.324001 -178.102222 
L 142.2382 -177.218236 
L 141.152399 -176.655264 
L 140.066598 -176.1344 
L 138.980797 -175.369764 
L 137.894995 -174.819422 
L 136.809194 -174.376111 
L 135.723393 -173.904743 
L 134.637592 -173.505937 
L 133.551791 -173.026173 
L 132.46599 -172.682735 
L 131.380189 -172.461958 
L 130.294387 -172.472591 
L 129.208586 -171.951684 
L 128.122785 -171.588856 
L 127.036984 -170.94537 
L 125.951183 -170.807782 
L 124.865382 -170.94021 
L 123.77958 -170.472372 
L 122.693779 -170.458817 
L 121.607978 -170.09523 
L 120.522177 -169.734232 
L 119.436376 -169.678638 
L 118.350575 -169.614024 
L 117.264773 -169.045325 
L 116.178972 -169.413871 
L 115.093171 -170.618946 
L 114.00737 -171.062029 
L 112.921569 -172.096676 
L 111.835768 -172.606667 
L 110.749967 -173.3936 
L 109.664165 -173.824803 
L 108.578364 -174.754285 
L 107.492563 -175.145964 
L 106.406762 -174.814029 
L 105.320961 -174.663798 
L 104.23516 -174.511775 
L 103.149358 -174.368005 
L 102.063557 -173.900767 
L 100.977756 -173.736967 
L 99.891955 -174.061748 
L 98.806154 -173.462656 
L 97.720353 -173.482578 
L 96.634552 -173.537377 
L 95.54875 -172.830802 
L 94.462949 -172.798959 
L 93.377148 -172.966705 
L 92.291347 -173.302585 
L 91.205546 -173.944876 
L 90.119745 -174.049416 
L 89.033943 -174.955811 
L 87.948142 -174.841346 
L 86.862341 -174.83474 
L 85.77654 -175.191657 
L 84.690739 -175.814898 
L 83.604938 -175.46033 
L 82.519137 -174.648034 
L 81.433335 -174.418733 
L 80.347534 -174.152352 
L 79.261733 -174.231004 
L 78.175932 -174.556269 
L 77.090131 -174.537316 
L 76.00433 -174.523989 
L 74.918528 -175.058672 
L 73.832727 -175.63042 
z
" style="stroke: #ff00ff; stroke-opacity: 0.1"/>
    </defs>
    <g clip-path="url(#paaf859a365)">
     <use xlink:href="#m34768b85f1" x="0" y="345.6" style="fill: #ff00ff; fill-opacity: 0.1; stroke: #ff00ff; stroke-opacity: 0.1"/>
    </g>
   </g>
   <g id="matplotlib.axis_1">
    <g id="xtick_1">
     <g id="line2d_1">
      <defs>
       <path id="m48d71b5d2c" d="M 0 0 
L 0 3.5 
" style="stroke: #000000; stroke-width: 0.8"/>
      </defs>
      <g>
       <use xlink:href="#m48d71b5d2c" x="73.832727" y="307.584" style="stroke: #000000; stroke-width: 0.8"/>
      </g>
     </g>
     <g id="text_1">
      <!-- −5 -->
      <g transform="translate(66.461634 322.182437) scale(0.1 -0.1)">
       <defs>
        <path id="DejaVuSans-2212" d="M 678 2272 
L 4684 2272 
L 4684 1741 
L 678 1741 
L 678 2272 
z
" transform="scale(0.015625)"/>
        <path id="DejaVuSans-35" d="M 691 4666 
L 3169 4666 
L 3169 4134 
L 1269 4134 
L 1269 2991 
Q 1406 3038 1543 3061 
Q 1681 3084 1819 3084 
Q 2600 3084 3056 2656 
Q 3513 2228 3513 1497 
Q 3513 744 3044 326 
Q 2575 -91 1722 -91 
Q 1428 -91 1123 -41 
Q 819 9 494 109 
L 494 744 
Q 775 591 1075 516 
Q 1375 441 1709 441 
Q 2250 441 2565 725 
Q 2881 1009 2881 1497 
Q 2881 1984 2565 2268 
Q 2250 2553 1709 2553 
Q 1456 2553 1204 2497 
Q 953 2441 691 2322 
L 691 4666 
z
" transform="scale(0.015625)"/>
       </defs>
       <use xlink:href="#DejaVuSans-2212"/>
       <use xlink:href="#DejaVuSans-35" x="83.789062"/>
      </g>
     </g>
    </g>
    <g id="xtick_2">
     <g id="line2d_2">
      <g>
       <use xlink:href="#m48d71b5d2c" x="95.54875" y="307.584" style="stroke: #000000; stroke-width: 0.8"/>
      </g>
     </g>
     <g id="text_2">
      <!-- −4 -->
      <g transform="translate(88.177657 322.182437) scale(0.1 -0.1)">
       <defs>
        <path id="DejaVuSans-34" d="M 2419 4116 
L 825 1625 
L 2419 1625 
L 2419 4116 
z
M 2253 4666 
L 3047 4666 
L 3047 1625 
L 3713 1625 
L 3713 1100 
L 3047 1100 
L 3047 0 
L 2419 0 
L 2419 1100 
L 313 1100 
L 313 1709 
L 2253 4666 
z
" transform="scale(0.015625)"/>
       </defs>
       <use xlink:href="#DejaVuSans-2212"/>
       <use xlink:href="#DejaVuSans-34" x="83.789062"/>
      </g>
     </g>
    </g>
    <g id="xtick_3">
     <g id="line2d_3">
      <g>
       <use xlink:href="#m48d71b5d2c" x="117.264773" y="307.584" style="stroke: #000000; stroke-width: 0.8"/>
      </g>
     </g>
     <g id="text_3">
      <!-- −3 -->
      <g transform="translate(109.89368 322.182437) scale(0.1 -0.1)">
       <defs>
        <path id="DejaVuSans-33" d="M 2597 2516 
Q 3050 2419 3304 2112 
Q 3559 1806 3559 1356 
Q 3559 666 3084 287 
Q 2609 -91 1734 -91 
Q 1441 -91 1130 -33 
Q 819 25 488 141 
L 488 750 
Q 750 597 1062 519 
Q 1375 441 1716 441 
Q 2309 441 2620 675 
Q 2931 909 2931 1356 
Q 2931 1769 2642 2001 
Q 2353 2234 1838 2234 
L 1294 2234 
L 1294 2753 
L 1863 2753 
Q 2328 2753 2575 2939 
Q 2822 3125 2822 3475 
Q 2822 3834 2567 4026 
Q 2313 4219 1838 4219 
Q 1578 4219 1281 4162 
Q 984 4106 628 3988 
L 628 4550 
Q 988 4650 1302 4700 
Q 1616 4750 1894 4750 
Q 2613 4750 3031 4423 
Q 3450 4097 3450 3541 
Q 3450 3153 3228 2886 
Q 3006 2619 2597 2516 
z
" transform="scale(0.015625)"/>
       </defs>
       <use xlink:href="#DejaVuSans-2212"/>
       <use xlink:href="#DejaVuSans-33" x="83.789062"/>
      </g>
     </g>
    </g>
    <g id="xtick_4">
     <g id="line2d_4">
      <g>
       <use xlink:href="#m48d71b5d2c" x="138.980797" y="307.584" style="stroke: #000000; stroke-width: 0.8"/>
      </g>
     </g>
     <g id="text_4">
      <!-- −2 -->
      <g transform="translate(131.609703 322.182437) scale(0.1 -0.1)">
       <defs>
        <path id="DejaVuSans-32" d="M 1228 531 
L 3431 531 
L 3431 0 
L 469 0 
L 469 531 
Q 828 903 1448 1529 
Q 2069 2156 2228 2338 
Q 2531 2678 2651 2914 
Q 2772 3150 2772 3378 
Q 2772 3750 2511 3984 
Q 2250 4219 1831 4219 
Q 1534 4219 1204 4116 
Q 875 4013 500 3803 
L 500 4441 
Q 881 4594 1212 4672 
Q 1544 4750 1819 4750 
Q 2544 4750 2975 4387 
Q 3406 4025 3406 3419 
Q 3406 3131 3298 2873 
Q 3191 2616 2906 2266 
Q 2828 2175 2409 1742 
Q 1991 1309 1228 531 
z
" transform="scale(0.015625)"/>
       </defs>
       <use xlink:href="#DejaVuSans-2212"/>
       <use xlink:href="#DejaVuSans-32" x="83.789062"/>
      </g>
     </g>
    </g>
    <g id="xtick_5">
     <g id="line2d_5">
      <g>
       <use xlink:href="#m48d71b5d2c" x="160.69682" y="307.584" style="stroke: #000000; stroke-width: 0.8"/>
      </g>
     </g>
     <g id="text_5">
      <!-- −1 -->
      <g transform="translate(153.325726 322.182437) scale(0.1 -0.1)">
       <defs>
        <path id="DejaVuSans-31" d="M 794 531 
L 1825 531 
L 1825 4091 
L 703 3866 
L 703 4441 
L 1819 4666 
L 2450 4666 
L 2450 531 
L 3481 531 
L 3481 0 
L 794 0 
L 794 531 
z
" transform="scale(0.015625)"/>
       </defs>
       <use xlink:href="#DejaVuSans-2212"/>
       <use xlink:href="#DejaVuSans-31" x="83.789062"/>
      </g>
     </g>
    </g>
    <g id="xtick_6">
     <g id="line2d_6">
      <g>
       <use xlink:href="#m48d71b5d2c" x="182.412843" y="307.584" style="stroke: #000000; stroke-width: 0.8"/>
      </g>
     </g>
     <g id="text_6">
      <!-- 0 -->
      <g transform="translate(179.231593 322.182437) scale(0.1 -0.1)">
       <defs>
        <path id="DejaVuSans-30" d="M 2034 4250 
Q 1547 4250 1301 3770 
Q 1056 3291 1056 2328 
Q 1056 1369 1301 889 
Q 1547 409 2034 409 
Q 2525 409 2770 889 
Q 3016 1369 3016 2328 
Q 3016 3291 2770 3770 
Q 2525 4250 2034 4250 
z
M 2034 4750 
Q 2819 4750 3233 4129 
Q 3647 3509 3647 2328 
Q 3647 1150 3233 529 
Q 2819 -91 2034 -91 
Q 1250 -91 836 529 
Q 422 1150 422 2328 
Q 422 3509 836 4129 
Q 1250 4750 2034 4750 
z
" transform="scale(0.015625)"/>
       </defs>
       <use xlink:href="#DejaVuSans-30"/>
      </g>
     </g>
    </g>
    <g id="xtick_7">
     <g id="line2d_7">
      <g>
       <use xlink:href="#m48d71b5d2c" x="204.128866" y="307.584" style="stroke: #000000; stroke-width: 0.8"/>
      </g>
     </g>
     <g id="text_7">
      <!-- 1 -->
      <g transform="translate(200.947616 322.182437) scale(0.1 -0.1)">
       <use xlink:href="#DejaVuSans-31"/>
      </g>
     </g>
    </g>
    <g id="xtick_8">
     <g id="line2d_8">
      <g>
       <use xlink:href="#m48d71b5d2c" x="225.844889" y="307.584" style="stroke: #000000; stroke-width: 0.8"/>
      </g>
     </g>
     <g id="text_8">
      <!-- 2 -->
      <g transform="translate(222.663639 322.182437) scale(0.1 -0.1)">
       <use xlink:href="#DejaVuSans-32"/>
      </g>
     </g>
    </g>
    <g id="xtick_9">
     <g id="line2d_9">
      <g>
       <use xlink:href="#m48d71b5d2c" x="247.560912" y="307.584" style="stroke: #000000; stroke-width: 0.8"/>
      </g>
     </g>
     <g id="text_9">
      <!-- 3 -->
      <g transform="translate(244.379662 322.182437) scale(0.1 -0.1)">
       <use xlink:href="#DejaVuSans-33"/>
      </g>
     </g>
    </g>
    <g id="xtick_10">
     <g id="line2d_10">
      <g>
       <use xlink:href="#m48d71b5d2c" x="269.276935" y="307.584" style="stroke: #000000; stroke-width: 0.8"/>
      </g>
     </g>
     <g id="text_10">
      <!-- 4 -->
      <g transform="translate(266.095685 322.182437) scale(0.1 -0.1)">
       <use xlink:href="#DejaVuSans-34"/>
      </g>
     </g>
    </g>
    <g id="xtick_11">
     <g id="line2d_11">
      <g>
       <use xlink:href="#m48d71b5d2c" x="290.992958" y="307.584" style="stroke: #000000; stroke-width: 0.8"/>
      </g>
     </g>
     <g id="text_11">
      <!-- 5 -->
      <g transform="translate(287.811708 322.182437) scale(0.1 -0.1)">
       <use xlink:href="#DejaVuSans-35"/>
      </g>
     </g>
    </g>
    <g id="xtick_12">
     <g id="line2d_12">
      <g>
       <use xlink:href="#m48d71b5d2c" x="312.708981" y="307.584" style="stroke: #000000; stroke-width: 0.8"/>
      </g>
     </g>
     <g id="text_12">
      <!-- 6 -->
      <g transform="translate(309.527731 322.182437) scale(0.1 -0.1)">
       <defs>
        <path id="DejaVuSans-36" d="M 2113 2584 
Q 1688 2584 1439 2293 
Q 1191 2003 1191 1497 
Q 1191 994 1439 701 
Q 1688 409 2113 409 
Q 2538 409 2786 701 
Q 3034 994 3034 1497 
Q 3034 2003 2786 2293 
Q 2538 2584 2113 2584 
z
M 3366 4563 
L 3366 3988 
Q 3128 4100 2886 4159 
Q 2644 4219 2406 4219 
Q 1781 4219 1451 3797 
Q 1122 3375 1075 2522 
Q 1259 2794 1537 2939 
Q 1816 3084 2150 3084 
Q 2853 3084 3261 2657 
Q 3669 2231 3669 1497 
Q 3669 778 3244 343 
Q 2819 -91 2113 -91 
Q 1303 -91 875 529 
Q 447 1150 447 2328 
Q 447 3434 972 4092 
Q 1497 4750 2381 4750 
Q 2619 4750 2861 4703 
Q 3103 4656 3366 4563 
z
" transform="scale(0.015625)"/>
       </defs>
       <use xlink:href="#DejaVuSans-36"/>
      </g>
     </g>
    </g>
    <g id="xtick_13">
     <g id="line2d_13">
      <g>
       <use xlink:href="#m48d71b5d2c" x="334.425005" y="307.584" style="stroke: #000000; stroke-width: 0.8"/>
      </g>
     </g>
     <g id="text_13">
      <!-- 7 -->
      <g transform="translate(331.243755 322.182437) scale(0.1 -0.1)">
       <defs>
        <path id="DejaVuSans-37" d="M 525 4666 
L 3525 4666 
L 3525 4397 
L 1831 0 
L 1172 0 
L 2766 4134 
L 525 4134 
L 525 4666 
z
" transform="scale(0.015625)"/>
       </defs>
       <use xlink:href="#DejaVuSans-37"/>
      </g>
     </g>
    </g>
    <g id="xtick_14">
     <g id="line2d_14">
      <g>
       <use xlink:href="#m48d71b5d2c" x="356.141028" y="307.584" style="stroke: #000000; stroke-width: 0.8"/>
      </g>
     </g>
     <g id="text_14">
      <!-- 8 -->
      <g transform="translate(352.959778 322.182437) scale(0.1 -0.1)">
       <defs>
        <path id="DejaVuSans-38" d="M 2034 2216 
Q 1584 2216 1326 1975 
Q 1069 1734 1069 1313 
Q 1069 891 1326 650 
Q 1584 409 2034 409 
Q 2484 409 2743 651 
Q 3003 894 3003 1313 
Q 3003 1734 2745 1975 
Q 2488 2216 2034 2216 
z
M 1403 2484 
Q 997 2584 770 2862 
Q 544 3141 544 3541 
Q 544 4100 942 4425 
Q 1341 4750 2034 4750 
Q 2731 4750 3128 4425 
Q 3525 4100 3525 3541 
Q 3525 3141 3298 2862 
Q 3072 2584 2669 2484 
Q 3125 2378 3379 2068 
Q 3634 1759 3634 1313 
Q 3634 634 3220 271 
Q 2806 -91 2034 -91 
Q 1263 -91 848 271 
Q 434 634 434 1313 
Q 434 1759 690 2068 
Q 947 2378 1403 2484 
z
M 1172 3481 
Q 1172 3119 1398 2916 
Q 1625 2713 2034 2713 
Q 2441 2713 2670 2916 
Q 2900 3119 2900 3481 
Q 2900 3844 2670 4047 
Q 2441 4250 2034 4250 
Q 1625 4250 1398 4047 
Q 1172 3844 1172 3481 
z
" transform="scale(0.015625)"/>
       </defs>
       <use xlink:href="#DejaVuSans-38"/>
      </g>
     </g>
    </g>
    <g id="xtick_15">
     <g id="line2d_15">
      <g>
       <use xlink:href="#m48d71b5d2c" x="377.857051" y="307.584" style="stroke: #000000; stroke-width: 0.8"/>
      </g>
     </g>
     <g id="text_15">
      <!-- 9 -->
      <g transform="translate(374.675801 322.182437) scale(0.1 -0.1)">
       <defs>
        <path id="DejaVuSans-39" d="M 703 97 
L 703 672 
Q 941 559 1184 500 
Q 1428 441 1663 441 
Q 2288 441 2617 861 
Q 2947 1281 2994 2138 
Q 2813 1869 2534 1725 
Q 2256 1581 1919 1581 
Q 1219 1581 811 2004 
Q 403 2428 403 3163 
Q 403 3881 828 4315 
Q 1253 4750 1959 4750 
Q 2769 4750 3195 4129 
Q 3622 3509 3622 2328 
Q 3622 1225 3098 567 
Q 2575 -91 1691 -91 
Q 1453 -91 1209 -44 
Q 966 3 703 97 
z
M 1959 2075 
Q 2384 2075 2632 2365 
Q 2881 2656 2881 3163 
Q 2881 3666 2632 3958 
Q 2384 4250 1959 4250 
Q 1534 4250 1286 3958 
Q 1038 3666 1038 3163 
Q 1038 2656 1286 2365 
Q 1534 2075 1959 2075 
z
" transform="scale(0.015625)"/>
       </defs>
       <use xlink:href="#DejaVuSans-39"/>
      </g>
     </g>
    </g>
    <g id="xtick_16">
     <g id="line2d_16">
      <g>
       <use xlink:href="#m48d71b5d2c" x="399.573074" y="307.584" style="stroke: #000000; stroke-width: 0.8"/>
      </g>
     </g>
     <g id="text_16">
      <!-- 10 -->
      <g transform="translate(393.210574 322.182437) scale(0.1 -0.1)">
       <use xlink:href="#DejaVuSans-31"/>
       <use xlink:href="#DejaVuSans-30" x="63.623047"/>
      </g>
     </g>
    </g>
    <g id="text_17">
     <!-- Time (s) -->
     <g transform="translate(215.831094 335.860562) scale(0.1 -0.1)">
      <defs>
       <path id="DejaVuSans-54" d="M -19 4666 
L 3928 4666 
L 3928 4134 
L 2272 4134 
L 2272 0 
L 1638 0 
L 1638 4134 
L -19 4134 
L -19 4666 
z
" transform="scale(0.015625)"/>
       <path id="DejaVuSans-69" d="M 603 3500 
L 1178 3500 
L 1178 0 
L 603 0 
L 603 3500 
z
M 603 4863 
L 1178 4863 
L 1178 4134 
L 603 4134 
L 603 4863 
z
" transform="scale(0.015625)"/>
       <path id="DejaVuSans-6d" d="M 3328 2828 
Q 3544 3216 3844 3400 
Q 4144 3584 4550 3584 
Q 5097 3584 5394 3201 
Q 5691 2819 5691 2113 
L 5691 0 
L 5113 0 
L 5113 2094 
Q 5113 2597 4934 2840 
Q 4756 3084 4391 3084 
Q 3944 3084 3684 2787 
Q 3425 2491 3425 1978 
L 3425 0 
L 2847 0 
L 2847 2094 
Q 2847 2600 2669 2842 
Q 2491 3084 2119 3084 
Q 1678 3084 1418 2786 
Q 1159 2488 1159 1978 
L 1159 0 
L 581 0 
L 581 3500 
L 1159 3500 
L 1159 2956 
Q 1356 3278 1631 3431 
Q 1906 3584 2284 3584 
Q 2666 3584 2933 3390 
Q 3200 3197 3328 2828 
z
" transform="scale(0.015625)"/>
       <path id="DejaVuSans-65" d="M 3597 1894 
L 3597 1613 
L 953 1613 
Q 991 1019 1311 708 
Q 1631 397 2203 397 
Q 2534 397 2845 478 
Q 3156 559 3463 722 
L 3463 178 
Q 3153 47 2828 -22 
Q 2503 -91 2169 -91 
Q 1331 -91 842 396 
Q 353 884 353 1716 
Q 353 2575 817 3079 
Q 1281 3584 2069 3584 
Q 2775 3584 3186 3129 
Q 3597 2675 3597 1894 
z
M 3022 2063 
Q 3016 2534 2758 2815 
Q 2500 3097 2075 3097 
Q 1594 3097 1305 2825 
Q 1016 2553 972 2059 
L 3022 2063 
z
" transform="scale(0.015625)"/>
       <path id="DejaVuSans-20" transform="scale(0.015625)"/>
       <path id="DejaVuSans-28" d="M 1984 4856 
Q 1566 4138 1362 3434 
Q 1159 2731 1159 2009 
Q 1159 1288 1364 580 
Q 1569 -128 1984 -844 
L 1484 -844 
Q 1016 -109 783 600 
Q 550 1309 550 2009 
Q 550 2706 781 3412 
Q 1013 4119 1484 4856 
L 1984 4856 
z
" transform="scale(0.015625)"/>
       <path id="DejaVuSans-73" d="M 2834 3397 
L 2834 2853 
Q 2591 2978 2328 3040 
Q 2066 3103 1784 3103 
Q 1356 3103 1142 2972 
Q 928 2841 928 2578 
Q 928 2378 1081 2264 
Q 1234 2150 1697 2047 
L 1894 2003 
Q 2506 1872 2764 1633 
Q 3022 1394 3022 966 
Q 3022 478 2636 193 
Q 2250 -91 1575 -91 
Q 1294 -91 989 -36 
Q 684 19 347 128 
L 347 722 
Q 666 556 975 473 
Q 1284 391 1588 391 
Q 1994 391 2212 530 
Q 2431 669 2431 922 
Q 2431 1156 2273 1281 
Q 2116 1406 1581 1522 
L 1381 1569 
Q 847 1681 609 1914 
Q 372 2147 372 2553 
Q 372 3047 722 3315 
Q 1072 3584 1716 3584 
Q 2034 3584 2315 3537 
Q 2597 3491 2834 3397 
z
" transform="scale(0.015625)"/>
       <path id="DejaVuSans-29" d="M 513 4856 
L 1013 4856 
Q 1481 4119 1714 3412 
Q 1947 2706 1947 2009 
Q 1947 1309 1714 600 
Q 1481 -109 1013 -844 
L 513 -844 
Q 928 -128 1133 580 
Q 1338 1288 1338 2009 
Q 1338 2731 1133 3434 
Q 928 4138 513 4856 
z
" transform="scale(0.015625)"/>
      </defs>
      <use xlink:href="#DejaVuSans-54"/>
      <use xlink:href="#DejaVuSans-69" x="57.958984"/>
      <use xlink:href="#DejaVuSans-6d" x="85.742188"/>
      <use xlink:href="#DejaVuSans-65" x="183.154297"/>
      <use xlink:href="#DejaVuSans-20" x="244.677734"/>
      <use xlink:href="#DejaVuSans-28" x="276.464844"/>
      <use xlink:href="#DejaVuSans-73" x="315.478516"/>
      <use xlink:href="#DejaVuSans-29" x="367.578125"/>
     </g>
    </g>
   </g>
   <g id="matplotlib.axis_2">
    <g id="ytick_1">
     <g id="line2d_17">
      <defs>
       <path id="m1717c7251a" d="M 0 0 
L -3.5 0 
" style="stroke: #000000; stroke-width: 0.8"/>
      </defs>
      <g>
       <use xlink:href="#m1717c7251a" x="57.6" y="284.640559" style="stroke: #000000; stroke-width: 0.8"/>
      </g>
     </g>
     <g id="text_18">
      <!-- −4 -->
      <g transform="translate(35.857813 288.439778) scale(0.1 -0.1)">
       <use xlink:href="#DejaVuSans-2212"/>
       <use xlink:href="#DejaVuSans-34" x="83.789062"/>
      </g>
     </g>
    </g>
    <g id="ytick_2">
     <g id="line2d_18">
      <g>
       <use xlink:href="#m1717c7251a" x="57.6" y="231.796546" style="stroke: #000000; stroke-width: 0.8"/>
      </g>
     </g>
     <g id="text_19">
      <!-- −2 -->
      <g transform="translate(35.857813 235.595765) scale(0.1 -0.1)">
       <use xlink:href="#DejaVuSans-2212"/>
       <use xlink:href="#DejaVuSans-32" x="83.789062"/>
      </g>
     </g>
    </g>
    <g id="ytick_3">
     <g id="line2d_19">
      <g>
       <use xlink:href="#m1717c7251a" x="57.6" y="178.952534" style="stroke: #000000; stroke-width: 0.8"/>
      </g>
     </g>
     <g id="text_20">
      <!-- 0 -->
      <g transform="translate(44.2375 182.751752) scale(0.1 -0.1)">
       <use xlink:href="#DejaVuSans-30"/>
      </g>
     </g>
    </g>
    <g id="ytick_4">
     <g id="line2d_20">
      <g>
       <use xlink:href="#m1717c7251a" x="57.6" y="126.108521" style="stroke: #000000; stroke-width: 0.8"/>
      </g>
     </g>
     <g id="text_21">
      <!-- 2 -->
      <g transform="translate(44.2375 129.90774) scale(0.1 -0.1)">
       <use xlink:href="#DejaVuSans-32"/>
      </g>
     </g>
    </g>
    <g id="ytick_5">
     <g id="line2d_21">
      <g>
       <use xlink:href="#m1717c7251a" x="57.6" y="73.264509" style="stroke: #000000; stroke-width: 0.8"/>
      </g>
     </g>
     <g id="text_22">
      <!-- 4 -->
      <g transform="translate(44.2375 77.063727) scale(0.1 -0.1)">
       <use xlink:href="#DejaVuSans-34"/>
      </g>
     </g>
    </g>
    <g id="text_23">
     <!-- Z-Score -->
     <g transform="translate(29.778125 193.67175) rotate(-90) scale(0.1 -0.1)">
      <defs>
       <path id="DejaVuSans-5a" d="M 359 4666 
L 4025 4666 
L 4025 4184 
L 1075 531 
L 4097 531 
L 4097 0 
L 288 0 
L 288 481 
L 3238 4134 
L 359 4134 
L 359 4666 
z
" transform="scale(0.015625)"/>
       <path id="DejaVuSans-2d" d="M 313 2009 
L 1997 2009 
L 1997 1497 
L 313 1497 
L 313 2009 
z
" transform="scale(0.015625)"/>
       <path id="DejaVuSans-53" d="M 3425 4513 
L 3425 3897 
Q 3066 4069 2747 4153 
Q 2428 4238 2131 4238 
Q 1616 4238 1336 4038 
Q 1056 3838 1056 3469 
Q 1056 3159 1242 3001 
Q 1428 2844 1947 2747 
L 2328 2669 
Q 3034 2534 3370 2195 
Q 3706 1856 3706 1288 
Q 3706 609 3251 259 
Q 2797 -91 1919 -91 
Q 1588 -91 1214 -16 
Q 841 59 441 206 
L 441 856 
Q 825 641 1194 531 
Q 1563 422 1919 422 
Q 2459 422 2753 634 
Q 3047 847 3047 1241 
Q 3047 1584 2836 1778 
Q 2625 1972 2144 2069 
L 1759 2144 
Q 1053 2284 737 2584 
Q 422 2884 422 3419 
Q 422 4038 858 4394 
Q 1294 4750 2059 4750 
Q 2388 4750 2728 4690 
Q 3069 4631 3425 4513 
z
" transform="scale(0.015625)"/>
       <path id="DejaVuSans-63" d="M 3122 3366 
L 3122 2828 
Q 2878 2963 2633 3030 
Q 2388 3097 2138 3097 
Q 1578 3097 1268 2742 
Q 959 2388 959 1747 
Q 959 1106 1268 751 
Q 1578 397 2138 397 
Q 2388 397 2633 464 
Q 2878 531 3122 666 
L 3122 134 
Q 2881 22 2623 -34 
Q 2366 -91 2075 -91 
Q 1284 -91 818 406 
Q 353 903 353 1747 
Q 353 2603 823 3093 
Q 1294 3584 2113 3584 
Q 2378 3584 2631 3529 
Q 2884 3475 3122 3366 
z
" transform="scale(0.015625)"/>
       <path id="DejaVuSans-6f" d="M 1959 3097 
Q 1497 3097 1228 2736 
Q 959 2375 959 1747 
Q 959 1119 1226 758 
Q 1494 397 1959 397 
Q 2419 397 2687 759 
Q 2956 1122 2956 1747 
Q 2956 2369 2687 2733 
Q 2419 3097 1959 3097 
z
M 1959 3584 
Q 2709 3584 3137 3096 
Q 3566 2609 3566 1747 
Q 3566 888 3137 398 
Q 2709 -91 1959 -91 
Q 1206 -91 779 398 
Q 353 888 353 1747 
Q 353 2609 779 3096 
Q 1206 3584 1959 3584 
z
" transform="scale(0.015625)"/>
       <path id="DejaVuSans-72" d="M 2631 2963 
Q 2534 3019 2420 3045 
Q 2306 3072 2169 3072 
Q 1681 3072 1420 2755 
Q 1159 2438 1159 1844 
L 1159 0 
L 581 0 
L 581 3500 
L 1159 3500 
L 1159 2956 
Q 1341 3275 1631 3429 
Q 1922 3584 2338 3584 
Q 2397 3584 2469 3576 
Q 2541 3569 2628 3553 
L 2631 2963 
z
" transform="scale(0.015625)"/>
      </defs>
      <use xlink:href="#DejaVuSans-5a"/>
      <use xlink:href="#DejaVuSans-2d" x="66.755859"/>
      <use xlink:href="#DejaVuSans-53" x="102.839844"/>
      <use xlink:href="#DejaVuSans-63" x="166.316406"/>
      <use xlink:href="#DejaVuSans-6f" x="221.296875"/>
      <use xlink:href="#DejaVuSans-72" x="282.478516"/>
      <use xlink:href="#DejaVuSans-65" x="321.341797"/>
     </g>
    </g>
   </g>
   <g id="line2d_22">
    <path d="M 73.832727 189.877852 
L 76.00433 190.568277 
L 78.175932 190.729269 
L 79.261733 191.007478 
L 80.347534 191.023336 
L 82.519137 190.553017 
L 83.604938 189.616744 
L 84.690739 189.338335 
L 86.862341 190.24404 
L 87.948142 189.907573 
L 89.033943 189.31974 
L 90.119745 189.831701 
L 91.205546 189.64853 
L 92.291347 189.742789 
L 94.462949 189.521216 
L 95.54875 189.270989 
L 96.634552 188.484502 
L 97.720353 188.222136 
L 98.806154 188.163831 
L 99.891955 187.502623 
L 100.977756 187.110462 
L 104.23516 185.483242 
L 106.406762 184.439921 
L 107.492563 183.364826 
L 108.578364 183.078844 
L 109.664165 183.520368 
L 110.749967 183.439603 
L 111.835768 183.610022 
L 112.921569 183.354315 
L 114.00737 183.438806 
L 115.093171 183.150777 
L 116.178972 183.695323 
L 117.264773 183.151332 
L 118.350575 182.136335 
L 120.522177 181.470974 
L 121.607978 180.903923 
L 122.693779 180.541535 
L 123.77958 180.559029 
L 124.865382 179.981178 
L 125.951183 180.432982 
L 127.036984 181.231301 
L 128.122785 180.061857 
L 132.46599 178.532891 
L 133.551791 177.321358 
L 135.723393 176.175653 
L 137.894995 174.70895 
L 140.066598 173.177374 
L 141.152399 173.199179 
L 142.2382 173.381566 
L 143.324001 172.935382 
L 144.409802 173.423836 
L 146.581405 173.127918 
L 147.667206 173.265002 
L 148.753007 173.111834 
L 150.924609 173.044643 
L 153.096212 174.029528 
L 154.182013 173.720747 
L 155.267814 173.842578 
L 157.439416 173.093087 
L 159.611019 172.799211 
L 160.69682 172.809277 
L 161.782621 172.628664 
L 162.868422 171.81405 
L 163.954223 170.311208 
L 165.040024 169.194116 
L 166.125825 168.350895 
L 167.211627 167.840722 
L 168.297428 166.886079 
L 170.46903 165.203944 
L 171.554831 165.322009 
L 174.812235 163.761432 
L 175.898036 163.488584 
L 176.983837 163.613106 
L 178.069638 163.283106 
L 181.327042 163.883775 
L 182.412843 164.750881 
L 183.498644 164.995981 
L 185.670246 166.38257 
L 186.756047 166.943625 
L 187.841849 168.073016 
L 188.92765 167.978659 
L 190.013451 168.311246 
L 191.099252 169.439359 
L 192.185053 171.260723 
L 193.270854 172.747106 
L 194.356656 174.027875 
L 195.442457 175.75366 
L 196.528258 177.794529 
L 197.614059 179.130565 
L 198.69986 180.027426 
L 200.871462 183.384408 
L 201.957264 184.445734 
L 203.043065 185.718421 
L 204.128866 186.133798 
L 205.214667 186.373792 
L 206.300468 187.143606 
L 207.386269 187.367609 
L 209.557872 189.31326 
L 210.643673 190.230906 
L 211.729474 191.409386 
L 213.901076 192.454479 
L 216.072679 193.820978 
L 217.15848 194.944787 
L 218.244281 195.762923 
L 219.330082 196.889273 
L 220.415883 198.275799 
L 221.501684 199.47906 
L 224.759088 202.232569 
L 225.844889 203.598343 
L 226.93069 205.443343 
L 229.102292 208.315716 
L 230.188094 209.001013 
L 232.359696 211.663877 
L 233.445497 212.533914 
L 234.531298 213.222201 
L 235.617099 214.088191 
L 236.702901 214.656448 
L 237.788702 215.350239 
L 239.960304 215.650125 
L 241.046105 215.529162 
L 242.131906 215.862052 
L 243.217708 215.390952 
L 244.303509 215.197782 
L 245.38931 215.213543 
L 247.560912 215.053826 
L 248.646713 214.411428 
L 250.818316 213.550398 
L 251.904117 212.881759 
L 252.989918 212.667406 
L 254.075719 212.147346 
L 255.16152 211.344491 
L 256.247321 210.014194 
L 257.333123 209.071385 
L 262.762128 202.558391 
L 264.933731 199.261334 
L 266.019532 198.044896 
L 267.105333 196.544055 
L 268.191134 195.329939 
L 270.362736 192.550682 
L 271.448538 191.478004 
L 275.791742 185.038924 
L 280.134947 179.626859 
L 283.39235 175.653471 
L 284.478151 174.45575 
L 285.563953 172.703631 
L 286.649754 171.217304 
L 287.735555 170.30925 
L 288.821356 168.929078 
L 289.907157 167.777493 
L 290.992958 166.805932 
L 292.07876 166.335496 
L 293.164561 165.658704 
L 294.250362 165.399034 
L 296.421964 164.560376 
L 297.507765 164.789384 
L 298.593566 164.651173 
L 300.765169 164.193531 
L 306.194175 166.077374 
L 307.279976 166.352147 
L 309.451578 167.530109 
L 310.537379 168.413176 
L 311.62318 169.151557 
L 314.880584 172.874257 
L 315.966385 173.776081 
L 317.052186 174.477514 
L 318.137987 175.555971 
L 319.223788 176.463258 
L 321.395391 179.023989 
L 323.566993 182.080358 
L 325.738595 184.909913 
L 327.910198 188.617877 
L 330.0818 191.488031 
L 331.167601 192.849071 
L 332.253402 194.487459 
L 333.339203 196.521028 
L 334.425005 197.865184 
L 335.510806 198.813713 
L 336.596607 200.623754 
L 339.85401 206.502886 
L 342.025613 209.726399 
L 343.111414 210.951456 
L 345.283016 213.847911 
L 347.454618 216.588816 
L 350.712022 220.178491 
L 351.797823 221.059457 
L 353.969425 223.502465 
L 355.055227 224.404358 
L 356.141028 225.021292 
L 357.226829 225.777206 
L 359.398431 226.446056 
L 361.570033 226.712021 
L 363.741636 228.254221 
L 364.827437 228.468082 
L 365.913238 228.377973 
L 368.08484 228.02624 
L 369.170642 227.848969 
L 370.256443 227.457096 
L 371.342244 227.187476 
L 372.428045 226.649746 
L 374.599647 224.680092 
L 380.028653 218.150501 
L 381.114454 217.358048 
L 383.286057 214.605821 
L 385.457659 212.094077 
L 387.629261 209.550244 
L 388.715062 208.321928 
L 390.886665 205.193814 
L 391.972466 203.921863 
L 393.058267 202.435349 
L 395.229869 200.97006 
L 396.31567 199.551601 
L 397.401472 198.512906 
L 398.487273 198.19864 
L 398.487273 198.19864 
" clip-path="url(#paaf859a365)" style="fill: none; stroke: #ff00ff; stroke-width: 1.5; stroke-linecap: square"/>
   </g>
   <g id="line2d_23">
    <path d="M 182.412843 307.584 
L 182.412843 41.472 
" clip-path="url(#paaf859a365)" style="fill: none; stroke: #000000; stroke-width: 1.5; stroke-linecap: square"/>
   </g>
   <g id="patch_3">
    <path d="M 57.6 307.584 
L 57.6 41.472 
" style="fill: none; stroke: #000000; stroke-width: 0.8; stroke-linejoin: miter; stroke-linecap: square"/>
   </g>
   <g id="patch_4">
    <path d="M 414.72 307.584 
L 414.72 41.472 
" style="fill: none; stroke: #000000; stroke-width: 0.8; stroke-linejoin: miter; stroke-linecap: square"/>
   </g>
   <g id="patch_5">
    <path d="M 57.6 307.584 
L 414.72 307.584 
" style="fill: none; stroke: #000000; stroke-width: 0.8; stroke-linejoin: miter; stroke-linecap: square"/>
   </g>
   <g id="patch_6">
    <path d="M 57.6 41.472 
L 414.72 41.472 
" style="fill: none; stroke: #000000; stroke-width: 0.8; stroke-linejoin: miter; stroke-linecap: square"/>
   </g>
   <g id="text_24">
    <!-- Event 9_p=0.843 -->
    <g transform="translate(184.232812 35.472) scale(0.12 -0.12)">
     <defs>
      <path id="DejaVuSans-45" d="M 628 4666 
L 3578 4666 
L 3578 4134 
L 1259 4134 
L 1259 2753 
L 3481 2753 
L 3481 2222 
L 1259 2222 
L 1259 531 
L 3634 531 
L 3634 0 
L 628 0 
L 628 4666 
z
" transform="scale(0.015625)"/>
      <path id="DejaVuSans-76" d="M 191 3500 
L 800 3500 
L 1894 563 
L 2988 3500 
L 3597 3500 
L 2284 0 
L 1503 0 
L 191 3500 
z
" transform="scale(0.015625)"/>
      <path id="DejaVuSans-6e" d="M 3513 2113 
L 3513 0 
L 2938 0 
L 2938 2094 
Q 2938 2591 2744 2837 
Q 2550 3084 2163 3084 
Q 1697 3084 1428 2787 
Q 1159 2491 1159 1978 
L 1159 0 
L 581 0 
L 581 3500 
L 1159 3500 
L 1159 2956 
Q 1366 3272 1645 3428 
Q 1925 3584 2291 3584 
Q 2894 3584 3203 3211 
Q 3513 2838 3513 2113 
z
" transform="scale(0.015625)"/>
      <path id="DejaVuSans-74" d="M 1172 4494 
L 1172 3500 
L 2356 3500 
L 2356 3053 
L 1172 3053 
L 1172 1153 
Q 1172 725 1289 603 
Q 1406 481 1766 481 
L 2356 481 
L 2356 0 
L 1766 0 
Q 1100 0 847 248 
Q 594 497 594 1153 
L 594 3053 
L 172 3053 
L 172 3500 
L 594 3500 
L 594 4494 
L 1172 4494 
z
" transform="scale(0.015625)"/>
      <path id="DejaVuSans-5f" d="M 3263 -1063 
L 3263 -1509 
L -63 -1509 
L -63 -1063 
L 3263 -1063 
z
" transform="scale(0.015625)"/>
      <path id="DejaVuSans-70" d="M 1159 525 
L 1159 -1331 
L 581 -1331 
L 581 3500 
L 1159 3500 
L 1159 2969 
Q 1341 3281 1617 3432 
Q 1894 3584 2278 3584 
Q 2916 3584 3314 3078 
Q 3713 2572 3713 1747 
Q 3713 922 3314 415 
Q 2916 -91 2278 -91 
Q 1894 -91 1617 61 
Q 1341 213 1159 525 
z
M 3116 1747 
Q 3116 2381 2855 2742 
Q 2594 3103 2138 3103 
Q 1681 3103 1420 2742 
Q 1159 2381 1159 1747 
Q 1159 1113 1420 752 
Q 1681 391 2138 391 
Q 2594 391 2855 752 
Q 3116 1113 3116 1747 
z
" transform="scale(0.015625)"/>
      <path id="DejaVuSans-3d" d="M 678 2906 
L 4684 2906 
L 4684 2381 
L 678 2381 
L 678 2906 
z
M 678 1631 
L 4684 1631 
L 4684 1100 
L 678 1100 
L 678 1631 
z
" transform="scale(0.015625)"/>
      <path id="DejaVuSans-2e" d="M 684 794 
L 1344 794 
L 1344 0 
L 684 0 
L 684 794 
z
" transform="scale(0.015625)"/>
     </defs>
     <use xlink:href="#DejaVuSans-45"/>
     <use xlink:href="#DejaVuSans-76" x="63.183594"/>
     <use xlink:href="#DejaVuSans-65" x="122.363281"/>
     <use xlink:href="#DejaVuSans-6e" x="183.886719"/>
     <use xlink:href="#DejaVuSans-74" x="247.265625"/>
     <use xlink:href="#DejaVuSans-20" x="286.474609"/>
     <use xlink:href="#DejaVuSans-39" x="318.261719"/>
     <use xlink:href="#DejaVuSans-5f" x="381.884766"/>
     <use xlink:href="#DejaVuSans-70" x="431.884766"/>
     <use xlink:href="#DejaVuSans-3d" x="495.361328"/>
     <use xlink:href="#DejaVuSans-30" x="579.150391"/>
     <use xlink:href="#DejaVuSans-2e" x="642.773438"/>
     <use xlink:href="#DejaVuSans-38" x="674.560547"/>
     <use xlink:href="#DejaVuSans-34" x="738.183594"/>
     <use xlink:href="#DejaVuSans-33" x="801.806641"/>
    </g>
   </g>
  </g>
 </g>
 <defs>
  <clipPath id="paaf859a365">
   <rect x="57.6" y="41.472" width="357.12" height="266.112"/>
  </clipPath>
 </defs>
</svg>
