<?xml version="1.0" encoding="utf-8" standalone="no"?>
<!DOCTYPE svg PUBLIC "-//W3C//DTD SVG 1.1//EN"
  "http://www.w3.org/Graphics/SVG/1.1/DTD/svg11.dtd">
<svg xmlns:xlink="http://www.w3.org/1999/xlink" width="460.8pt" height="345.6pt" viewBox="0 0 460.8 345.6" xmlns="http://www.w3.org/2000/svg" version="1.1">
 <metadata>
  <rdf:RDF xmlns:dc="http://purl.org/dc/elements/1.1/" xmlns:cc="http://creativecommons.org/ns#" xmlns:rdf="http://www.w3.org/1999/02/22-rdf-syntax-ns#">
   <cc:Work>
    <dc:type rdf:resource="http://purl.org/dc/dcmitype/StillImage"/>
    <dc:date>2024-11-14T18:55:16.099639</dc:date>
    <dc:format>image/svg+xml</dc:format>
    <dc:creator>
     <cc:Agent>
      <dc:title>Matplotlib v3.8.2, https://matplotlib.org/</dc:title>
     </cc:Agent>
    </dc:creator>
   </cc:Work>
  </rdf:RDF>
 </metadata>
 <defs>
  <style type="text/css">*{stroke-linejoin: round; stroke-linecap: butt}</style>
 </defs>
 <g id="figure_1">
  <g id="patch_1">
   <path d="M 0 345.6 
L 460.8 345.6 
L 460.8 0 
L 0 0 
z
" style="fill: #ffffff"/>
  </g>
  <g id="axes_1">
   <g id="patch_2">
    <path d="M 57.6 307.584 
L 414.72 307.584 
L 414.72 41.472 
L 57.6 41.472 
z
" style="fill: #ffffff"/>
   </g>
   <g id="PolyCollection_1">
    <defs>
     <path id="m7105e005d2" d="M 73.832727 -227.085698 
L 73.832727 -185.109608 
L 74.918528 -184.5282 
L 76.00433 -184.221556 
L 77.090131 -183.889785 
L 78.175932 -184.508544 
L 79.261733 -184.471808 
L 80.347534 -184.397412 
L 81.433335 -184.816568 
L 82.519137 -185.605107 
L 83.604938 -183.55816 
L 84.690739 -179.344848 
L 85.77654 -176.403113 
L 86.862341 -173.866633 
L 87.948142 -171.273681 
L 89.033943 -171.890205 
L 90.119745 -172.431718 
L 91.205546 -173.376536 
L 92.291347 -174.118031 
L 93.377148 -175.353283 
L 94.462949 -176.737832 
L 95.54875 -179.345065 
L 96.634552 -180.690844 
L 97.720353 -183.222269 
L 98.806154 -185.411088 
L 99.891955 -187.117795 
L 100.977756 -188.680707 
L 102.063557 -190.516508 
L 103.149358 -190.615896 
L 104.23516 -193.303392 
L 105.320961 -196.523103 
L 106.406762 -199.235087 
L 107.492563 -202.140538 
L 108.578364 -203.579437 
L 109.664165 -204.567175 
L 110.749967 -205.850835 
L 111.835768 -207.336487 
L 112.921569 -208.803216 
L 114.00737 -210.2538 
L 115.093171 -211.968196 
L 116.178972 -213.706349 
L 117.264773 -215.16898 
L 118.350575 -216.6577 
L 119.436376 -218.166521 
L 120.522177 -219.772151 
L 121.607978 -220.953797 
L 122.693779 -222.536477 
L 123.77958 -224.245771 
L 124.865382 -225.948017 
L 125.951183 -227.537144 
L 127.036984 -229.064224 
L 128.122785 -230.166337 
L 129.208586 -231.66002 
L 130.294387 -233.110688 
L 131.380189 -234.706176 
L 132.46599 -236.29626 
L 133.551791 -238.429393 
L 134.637592 -241.111922 
L 135.723393 -243.863614 
L 136.809194 -246.269032 
L 137.894995 -248.622411 
L 138.980797 -251.413559 
L 140.066598 -253.821392 
L 141.152399 -256.370491 
L 142.2382 -257.819978 
L 143.324001 -259.262525 
L 144.409802 -261.056576 
L 145.495604 -262.53912 
L 146.581405 -263.907036 
L 147.667206 -264.873274 
L 148.753007 -266.19191 
L 149.838808 -267.511507 
L 150.924609 -268.833873 
L 152.01041 -270.140816 
L 153.096212 -271.833009 
L 154.182013 -273.543786 
L 155.267814 -274.781406 
L 156.353615 -270.592154 
L 157.439416 -266.718683 
L 158.525217 -262.396879 
L 159.611019 -256.41702 
L 160.69682 -252.636039 
L 161.782621 -248.01594 
L 162.868422 -244.867448 
L 163.954223 -242.887601 
L 165.040024 -239.696666 
L 166.125825 -236.962125 
L 167.211627 -236.89923 
L 168.297428 -235.231992 
L 169.383229 -233.999151 
L 170.46903 -231.494397 
L 171.554831 -229.596647 
L 172.640632 -226.635793 
L 173.726434 -224.782297 
L 174.812235 -224.980909 
L 175.898036 -225.57468 
L 176.983837 -226.071086 
L 178.069638 -226.906322 
L 179.155439 -228.100981 
L 180.24124 -228.281545 
L 181.327042 -229.689266 
L 182.412843 -230.572298 
L 183.498644 -231.259939 
L 184.584445 -229.592963 
L 185.670246 -229.118991 
L 186.756047 -229.196376 
L 187.841849 -228.577828 
L 188.92765 -229.685362 
L 190.013451 -230.90585 
L 191.099252 -232.156336 
L 192.185053 -232.768562 
L 193.270854 -234.078404 
L 194.356656 -234.337465 
L 195.442457 -236.387808 
L 196.528258 -237.549053 
L 197.614059 -237.418928 
L 198.69986 -240.293043 
L 199.785661 -239.062939 
L 200.871462 -238.97565 
L 201.957264 -237.480374 
L 203.043065 -235.837072 
L 204.128866 -233.0798 
L 205.214667 -229.995188 
L 206.300468 -227.434541 
L 207.386269 -225.709 
L 208.472071 -225.53482 
L 209.557872 -224.090495 
L 210.643673 -222.18333 
L 211.729474 -221.617552 
L 212.815275 -222.710591 
L 213.901076 -221.901799 
L 214.986877 -222.331963 
L 216.072679 -222.5058 
L 217.15848 -225.268991 
L 218.244281 -227.100621 
L 219.330082 -228.357588 
L 220.415883 -229.177526 
L 221.501684 -232.000518 
L 222.587486 -233.742479 
L 223.673287 -233.878752 
L 224.759088 -233.150593 
L 225.844889 -232.173817 
L 226.93069 -231.87301 
L 228.016491 -232.023843 
L 229.102292 -232.210819 
L 230.188094 -232.996808 
L 231.273895 -233.943943 
L 232.359696 -234.984421 
L 233.445497 -236.194834 
L 234.531298 -237.295784 
L 235.617099 -238.505012 
L 236.702901 -239.149616 
L 237.788702 -240.018965 
L 238.874503 -241.134089 
L 239.960304 -242.835539 
L 241.046105 -243.88878 
L 242.131906 -244.595531 
L 243.217708 -245.600996 
L 244.303509 -246.66745 
L 245.38931 -247.176556 
L 246.475111 -247.841507 
L 247.560912 -247.584118 
L 248.646713 -248.366126 
L 249.732514 -248.107568 
L 250.818316 -247.936417 
L 251.904117 -248.191592 
L 252.989918 -246.793238 
L 254.075719 -245.018401 
L 255.16152 -243.832856 
L 256.247321 -242.220259 
L 257.333123 -241.224174 
L 258.418924 -242.287878 
L 259.504725 -242.538557 
L 260.590526 -241.517546 
L 261.676327 -241.181118 
L 262.762128 -240.055476 
L 263.847929 -240.7407 
L 264.933731 -239.720621 
L 266.019532 -240.015391 
L 267.105333 -239.332827 
L 268.191134 -238.377956 
L 269.276935 -237.279063 
L 270.362736 -237.298467 
L 271.448538 -235.432815 
L 272.534339 -233.531394 
L 273.62014 -231.479577 
L 274.705941 -229.732433 
L 275.791742 -226.887681 
L 276.877543 -222.89061 
L 277.963344 -221.074938 
L 279.049146 -218.441739 
L 280.134947 -215.789426 
L 281.220748 -211.658932 
L 282.306549 -209.062117 
L 283.39235 -205.634685 
L 284.478151 -201.529604 
L 285.563953 -195.323681 
L 286.649754 -191.114788 
L 287.735555 -185.428571 
L 288.821356 -181.016142 
L 289.907157 -176.597574 
L 290.992958 -172.495015 
L 292.07876 -167.582076 
L 293.164561 -163.294295 
L 294.250362 -159.591675 
L 295.336163 -157.432421 
L 296.421964 -154.804133 
L 297.507765 -150.898518 
L 298.593566 -147.963984 
L 299.679368 -142.908934 
L 300.765169 -135.638348 
L 301.85097 -131.145115 
L 302.936771 -125.954798 
L 304.022572 -122.347587 
L 305.108373 -118.996641 
L 306.194175 -113.827753 
L 307.279976 -108.091124 
L 308.365777 -103.365084 
L 309.451578 -98.488466 
L 310.537379 -94.764077 
L 311.62318 -91.050274 
L 312.708981 -87.357838 
L 313.794783 -83.384589 
L 314.880584 -78.21297 
L 315.966385 -74.181724 
L 317.052186 -71.614168 
L 318.137987 -68.198479 
L 319.223788 -66.552897 
L 320.30959 -64.914149 
L 321.395391 -62.924903 
L 322.481192 -58.613192 
L 323.566993 -54.448843 
L 324.652794 -54.865947 
L 325.738595 -52.387791 
L 326.824396 -51.697291 
L 327.910198 -50.112 
L 328.995999 -50.324182 
L 330.0818 -50.278984 
L 331.167601 -51.374654 
L 332.253402 -51.23647 
L 333.339203 -51.690048 
L 334.425005 -52.836687 
L 335.510806 -55.354119 
L 336.596607 -56.647708 
L 337.682408 -57.162725 
L 338.768209 -59.205958 
L 339.85401 -60.773556 
L 340.939811 -62.588094 
L 342.025613 -64.721377 
L 343.111414 -66.145586 
L 344.197215 -68.650968 
L 345.283016 -71.526381 
L 346.368817 -72.529939 
L 347.454618 -74.83626 
L 348.54042 -78.899339 
L 349.626221 -82.797741 
L 350.712022 -88.662013 
L 351.797823 -92.52143 
L 352.883624 -95.668995 
L 353.969425 -98.990795 
L 355.055227 -102.993624 
L 356.141028 -107.283024 
L 357.226829 -111.889141 
L 358.31263 -114.741005 
L 359.398431 -119.309724 
L 360.484232 -122.936036 
L 361.570033 -127.810381 
L 362.655835 -131.566038 
L 363.741636 -138.196172 
L 364.827437 -145.902541 
L 365.913238 -152.088263 
L 366.999039 -156.606431 
L 368.08484 -161.033851 
L 369.170642 -164.522825 
L 370.256443 -168.472905 
L 371.342244 -171.745714 
L 372.428045 -173.577401 
L 373.513846 -178.029343 
L 374.599647 -180.454468 
L 375.685448 -182.937487 
L 376.77125 -184.593377 
L 377.857051 -185.462306 
L 378.942852 -187.041172 
L 380.028653 -188.639848 
L 381.114454 -188.870631 
L 382.200255 -189.304384 
L 383.286057 -188.990818 
L 384.371858 -188.706533 
L 385.457659 -188.970492 
L 386.54346 -191.715696 
L 387.629261 -192.288968 
L 388.715062 -192.572877 
L 389.800863 -195.790117 
L 390.886665 -196.385994 
L 391.972466 -197.561268 
L 393.058267 -199.235346 
L 394.144068 -200.522218 
L 395.229869 -200.929336 
L 396.31567 -204.296308 
L 397.401472 -207.57518 
L 398.487273 -208.930829 
L 398.487273 -254.465816 
L 398.487273 -254.465816 
L 397.401472 -254.233893 
L 396.31567 -254.096054 
L 395.229869 -253.93118 
L 394.144068 -253.876031 
L 393.058267 -254.390697 
L 391.972466 -255.212848 
L 390.886665 -255.739803 
L 389.800863 -256.435306 
L 388.715062 -256.777633 
L 387.629261 -257.240581 
L 386.54346 -257.258045 
L 385.457659 -258.017355 
L 384.371858 -258.903393 
L 383.286057 -259.453144 
L 382.200255 -260.327396 
L 381.114454 -261.610275 
L 380.028653 -262.660153 
L 378.942852 -264.320601 
L 377.857051 -265.520651 
L 376.77125 -266.596212 
L 375.685448 -268.0556 
L 374.599647 -269.361077 
L 373.513846 -270.82788 
L 372.428045 -271.77749 
L 371.342244 -272.218865 
L 370.256443 -272.436957 
L 369.170642 -272.549487 
L 368.08484 -272.372985 
L 366.999039 -271.874469 
L 365.913238 -271.584713 
L 364.827437 -271.843682 
L 363.741636 -271.496799 
L 362.655835 -271.16472 
L 361.570033 -270.666197 
L 360.484232 -269.866042 
L 359.398431 -269.642582 
L 358.31263 -269.16476 
L 357.226829 -268.730137 
L 356.141028 -268.022621 
L 355.055227 -268.118183 
L 353.969425 -267.568645 
L 352.883624 -266.942691 
L 351.797823 -267.024012 
L 350.712022 -266.379693 
L 349.626221 -266.269374 
L 348.54042 -265.731455 
L 347.454618 -265.337015 
L 346.368817 -265.048019 
L 345.283016 -264.444701 
L 344.197215 -263.603954 
L 343.111414 -262.626848 
L 342.025613 -261.494243 
L 340.939811 -259.837084 
L 339.85401 -258.617699 
L 338.768209 -257.750086 
L 337.682408 -256.4241 
L 336.596607 -255.60102 
L 335.510806 -254.515265 
L 334.425005 -253.593663 
L 333.339203 -252.824332 
L 332.253402 -251.955284 
L 331.167601 -250.491737 
L 330.0818 -249.492716 
L 328.995999 -248.73131 
L 327.910198 -247.589015 
L 326.824396 -246.782249 
L 325.738595 -246.029203 
L 324.652794 -245.135175 
L 323.566993 -244.388929 
L 322.481192 -244.361331 
L 321.395391 -243.851578 
L 320.30959 -243.417599 
L 319.223788 -242.943691 
L 318.137987 -242.335915 
L 317.052186 -241.633005 
L 315.966385 -241.259318 
L 314.880584 -240.535358 
L 313.794783 -240.150906 
L 312.708981 -239.807909 
L 311.62318 -239.602016 
L 310.537379 -239.339665 
L 309.451578 -239.189301 
L 308.365777 -239.018109 
L 307.279976 -239.738103 
L 306.194175 -240.442416 
L 305.108373 -241.259258 
L 304.022572 -242.429183 
L 302.936771 -244.195935 
L 301.85097 -245.163845 
L 300.765169 -245.914181 
L 299.679368 -246.967314 
L 298.593566 -248.283483 
L 297.507765 -249.42402 
L 296.421964 -251.197297 
L 295.336163 -252.941732 
L 294.250362 -254.515624 
L 293.164561 -256.139214 
L 292.07876 -257.443722 
L 290.992958 -258.621624 
L 289.907157 -259.416869 
L 288.821356 -260.001607 
L 287.735555 -259.583007 
L 286.649754 -259.621002 
L 285.563953 -259.23384 
L 284.478151 -258.916585 
L 283.39235 -258.580079 
L 282.306549 -258.075848 
L 281.220748 -257.629118 
L 280.134947 -257.187216 
L 279.049146 -257.063724 
L 277.963344 -257.108995 
L 276.877543 -257.420474 
L 275.791742 -257.646958 
L 274.705941 -257.530821 
L 273.62014 -257.680676 
L 272.534339 -257.564619 
L 271.448538 -257.264139 
L 270.362736 -257.198551 
L 269.276935 -256.956219 
L 268.191134 -257.150887 
L 267.105333 -257.826433 
L 266.019532 -258.051258 
L 264.933731 -257.746163 
L 263.847929 -257.936171 
L 262.762128 -257.499553 
L 261.676327 -257.183736 
L 260.590526 -257.214265 
L 259.504725 -256.316357 
L 258.418924 -254.853017 
L 257.333123 -254.318324 
L 256.247321 -253.366745 
L 255.16152 -252.788076 
L 254.075719 -252.113332 
L 252.989918 -251.469787 
L 251.904117 -250.604288 
L 250.818316 -250.093085 
L 249.732514 -249.469257 
L 248.646713 -249.067543 
L 247.560912 -248.144333 
L 246.475111 -249.076323 
L 245.38931 -249.470171 
L 244.303509 -248.587871 
L 243.217708 -248.92367 
L 242.131906 -247.910667 
L 241.046105 -247.0679 
L 239.960304 -246.673107 
L 238.874503 -247.144227 
L 237.788702 -246.761777 
L 236.702901 -246.337961 
L 235.617099 -243.149112 
L 234.531298 -241.707981 
L 233.445497 -240.143524 
L 232.359696 -237.623818 
L 231.273895 -237.092441 
L 230.188094 -238.315711 
L 229.102292 -239.591841 
L 228.016491 -237.865703 
L 226.93069 -236.39489 
L 225.844889 -236.199472 
L 224.759088 -235.408306 
L 223.673287 -234.885442 
L 222.587486 -234.752387 
L 221.501684 -235.068858 
L 220.415883 -235.767386 
L 219.330082 -236.14144 
L 218.244281 -236.649626 
L 217.15848 -237.761079 
L 216.072679 -239.099785 
L 214.986877 -240.344473 
L 213.901076 -241.377176 
L 212.815275 -242.680312 
L 211.729474 -243.907263 
L 210.643673 -245.463923 
L 209.557872 -246.909332 
L 208.472071 -248.585438 
L 207.386269 -250.507335 
L 206.300468 -252.295832 
L 205.214667 -254.025478 
L 204.128866 -255.635384 
L 203.043065 -257.527008 
L 201.957264 -259.397429 
L 200.871462 -261.505918 
L 199.785661 -263.124648 
L 198.69986 -265.795617 
L 197.614059 -268.314643 
L 196.528258 -270.576342 
L 195.442457 -272.723527 
L 194.356656 -274.409868 
L 193.270854 -275.825368 
L 192.185053 -277.372623 
L 191.099252 -278.540279 
L 190.013451 -279.396199 
L 188.92765 -280.350298 
L 187.841849 -281.129768 
L 186.756047 -281.626047 
L 185.670246 -282.411085 
L 184.584445 -283.24101 
L 183.498644 -283.762263 
L 182.412843 -284.084556 
L 181.327042 -284.926522 
L 180.24124 -285.6466 
L 179.155439 -286.048109 
L 178.069638 -286.431552 
L 176.983837 -286.481041 
L 175.898036 -286.876004 
L 174.812235 -286.887588 
L 173.726434 -286.716041 
L 172.640632 -285.959241 
L 171.554831 -285.945683 
L 170.46903 -285.46634 
L 169.383229 -285.165793 
L 168.297428 -284.289926 
L 167.211627 -284.12689 
L 166.125825 -283.718806 
L 165.040024 -283.167112 
L 163.954223 -282.400452 
L 162.868422 -281.542238 
L 161.782621 -280.245207 
L 160.69682 -279.42102 
L 159.611019 -278.545617 
L 158.525217 -277.382358 
L 157.439416 -276.377616 
L 156.353615 -275.906332 
L 155.267814 -275.847927 
L 154.182013 -280.549409 
L 153.096212 -285.831884 
L 152.01041 -289.251764 
L 150.924609 -290.841311 
L 149.838808 -291.626737 
L 148.753007 -292.032 
L 147.667206 -291.396352 
L 146.581405 -289.601021 
L 145.495604 -288.557508 
L 144.409802 -289.490147 
L 143.324001 -288.240897 
L 142.2382 -287.044964 
L 141.152399 -285.249607 
L 140.066598 -282.367966 
L 138.980797 -281.563208 
L 137.894995 -279.842401 
L 136.809194 -278.277173 
L 135.723393 -275.72916 
L 134.637592 -276.073309 
L 133.551791 -274.094231 
L 132.46599 -271.83995 
L 131.380189 -272.132815 
L 130.294387 -269.812394 
L 129.208586 -269.415096 
L 128.122785 -267.47786 
L 127.036984 -266.057343 
L 125.951183 -265.016569 
L 124.865382 -262.843805 
L 123.77958 -259.81598 
L 122.693779 -256.297077 
L 121.607978 -252.218168 
L 120.522177 -246.250153 
L 119.436376 -241.858716 
L 118.350575 -238.734137 
L 117.264773 -233.958793 
L 116.178972 -230.994592 
L 115.093171 -227.084405 
L 114.00737 -223.765391 
L 112.921569 -220.994758 
L 111.835768 -217.86501 
L 110.749967 -212.594263 
L 109.664165 -208.996436 
L 108.578364 -206.254345 
L 107.492563 -202.41534 
L 106.406762 -201.326214 
L 105.320961 -199.925657 
L 104.23516 -198.694003 
L 103.149358 -197.149605 
L 102.063557 -196.011804 
L 100.977756 -195.036805 
L 99.891955 -193.930386 
L 98.806154 -192.9649 
L 97.720353 -192.404971 
L 96.634552 -191.82437 
L 95.54875 -191.051203 
L 94.462949 -190.776036 
L 93.377148 -190.811958 
L 92.291347 -190.141416 
L 91.205546 -189.83427 
L 90.119745 -189.418427 
L 89.033943 -188.971328 
L 87.948142 -188.746285 
L 86.862341 -188.223261 
L 85.77654 -187.651394 
L 84.690739 -187.326665 
L 83.604938 -186.633881 
L 82.519137 -189.920857 
L 81.433335 -193.406645 
L 80.347534 -196.108868 
L 79.261733 -199.901572 
L 78.175932 -204.641561 
L 77.090131 -208.749035 
L 76.00433 -215.135232 
L 74.918528 -221.417559 
L 73.832727 -227.085698 
z
" style="stroke: #ff00ff; stroke-opacity: 0.1"/>
    </defs>
    <g clip-path="url(#p1eaa2e2d6e)">
     <use xlink:href="#m7105e005d2" x="0" y="345.6" style="fill: #ff00ff; fill-opacity: 0.1; stroke: #ff00ff; stroke-opacity: 0.1"/>
    </g>
   </g>
   <g id="matplotlib.axis_1">
    <g id="xtick_1">
     <g id="line2d_1">
      <defs>
       <path id="mafcb8d8cef" d="M 0 0 
L 0 3.5 
" style="stroke: #000000; stroke-width: 0.8"/>
      </defs>
      <g>
       <use xlink:href="#mafcb8d8cef" x="73.832727" y="307.584" style="stroke: #000000; stroke-width: 0.8"/>
      </g>
     </g>
     <g id="text_1">
      <!-- −5 -->
      <g transform="translate(66.461634 322.182437) scale(0.1 -0.1)">
       <defs>
        <path id="DejaVuSans-2212" d="M 678 2272 
L 4684 2272 
L 4684 1741 
L 678 1741 
L 678 2272 
z
" transform="scale(0.015625)"/>
        <path id="DejaVuSans-35" d="M 691 4666 
L 3169 4666 
L 3169 4134 
L 1269 4134 
L 1269 2991 
Q 1406 3038 1543 3061 
Q 1681 3084 1819 3084 
Q 2600 3084 3056 2656 
Q 3513 2228 3513 1497 
Q 3513 744 3044 326 
Q 2575 -91 1722 -91 
Q 1428 -91 1123 -41 
Q 819 9 494 109 
L 494 744 
Q 775 591 1075 516 
Q 1375 441 1709 441 
Q 2250 441 2565 725 
Q 2881 1009 2881 1497 
Q 2881 1984 2565 2268 
Q 2250 2553 1709 2553 
Q 1456 2553 1204 2497 
Q 953 2441 691 2322 
L 691 4666 
z
" transform="scale(0.015625)"/>
       </defs>
       <use xlink:href="#DejaVuSans-2212"/>
       <use xlink:href="#DejaVuSans-35" x="83.789062"/>
      </g>
     </g>
    </g>
    <g id="xtick_2">
     <g id="line2d_2">
      <g>
       <use xlink:href="#mafcb8d8cef" x="95.54875" y="307.584" style="stroke: #000000; stroke-width: 0.8"/>
      </g>
     </g>
     <g id="text_2">
      <!-- −4 -->
      <g transform="translate(88.177657 322.182437) scale(0.1 -0.1)">
       <defs>
        <path id="DejaVuSans-34" d="M 2419 4116 
L 825 1625 
L 2419 1625 
L 2419 4116 
z
M 2253 4666 
L 3047 4666 
L 3047 1625 
L 3713 1625 
L 3713 1100 
L 3047 1100 
L 3047 0 
L 2419 0 
L 2419 1100 
L 313 1100 
L 313 1709 
L 2253 4666 
z
" transform="scale(0.015625)"/>
       </defs>
       <use xlink:href="#DejaVuSans-2212"/>
       <use xlink:href="#DejaVuSans-34" x="83.789062"/>
      </g>
     </g>
    </g>
    <g id="xtick_3">
     <g id="line2d_3">
      <g>
       <use xlink:href="#mafcb8d8cef" x="117.264773" y="307.584" style="stroke: #000000; stroke-width: 0.8"/>
      </g>
     </g>
     <g id="text_3">
      <!-- −3 -->
      <g transform="translate(109.89368 322.182437) scale(0.1 -0.1)">
       <defs>
        <path id="DejaVuSans-33" d="M 2597 2516 
Q 3050 2419 3304 2112 
Q 3559 1806 3559 1356 
Q 3559 666 3084 287 
Q 2609 -91 1734 -91 
Q 1441 -91 1130 -33 
Q 819 25 488 141 
L 488 750 
Q 750 597 1062 519 
Q 1375 441 1716 441 
Q 2309 441 2620 675 
Q 2931 909 2931 1356 
Q 2931 1769 2642 2001 
Q 2353 2234 1838 2234 
L 1294 2234 
L 1294 2753 
L 1863 2753 
Q 2328 2753 2575 2939 
Q 2822 3125 2822 3475 
Q 2822 3834 2567 4026 
Q 2313 4219 1838 4219 
Q 1578 4219 1281 4162 
Q 984 4106 628 3988 
L 628 4550 
Q 988 4650 1302 4700 
Q 1616 4750 1894 4750 
Q 2613 4750 3031 4423 
Q 3450 4097 3450 3541 
Q 3450 3153 3228 2886 
Q 3006 2619 2597 2516 
z
" transform="scale(0.015625)"/>
       </defs>
       <use xlink:href="#DejaVuSans-2212"/>
       <use xlink:href="#DejaVuSans-33" x="83.789062"/>
      </g>
     </g>
    </g>
    <g id="xtick_4">
     <g id="line2d_4">
      <g>
       <use xlink:href="#mafcb8d8cef" x="138.980797" y="307.584" style="stroke: #000000; stroke-width: 0.8"/>
      </g>
     </g>
     <g id="text_4">
      <!-- −2 -->
      <g transform="translate(131.609703 322.182437) scale(0.1 -0.1)">
       <defs>
        <path id="DejaVuSans-32" d="M 1228 531 
L 3431 531 
L 3431 0 
L 469 0 
L 469 531 
Q 828 903 1448 1529 
Q 2069 2156 2228 2338 
Q 2531 2678 2651 2914 
Q 2772 3150 2772 3378 
Q 2772 3750 2511 3984 
Q 2250 4219 1831 4219 
Q 1534 4219 1204 4116 
Q 875 4013 500 3803 
L 500 4441 
Q 881 4594 1212 4672 
Q 1544 4750 1819 4750 
Q 2544 4750 2975 4387 
Q 3406 4025 3406 3419 
Q 3406 3131 3298 2873 
Q 3191 2616 2906 2266 
Q 2828 2175 2409 1742 
Q 1991 1309 1228 531 
z
" transform="scale(0.015625)"/>
       </defs>
       <use xlink:href="#DejaVuSans-2212"/>
       <use xlink:href="#DejaVuSans-32" x="83.789062"/>
      </g>
     </g>
    </g>
    <g id="xtick_5">
     <g id="line2d_5">
      <g>
       <use xlink:href="#mafcb8d8cef" x="160.69682" y="307.584" style="stroke: #000000; stroke-width: 0.8"/>
      </g>
     </g>
     <g id="text_5">
      <!-- −1 -->
      <g transform="translate(153.325726 322.182437) scale(0.1 -0.1)">
       <defs>
        <path id="DejaVuSans-31" d="M 794 531 
L 1825 531 
L 1825 4091 
L 703 3866 
L 703 4441 
L 1819 4666 
L 2450 4666 
L 2450 531 
L 3481 531 
L 3481 0 
L 794 0 
L 794 531 
z
" transform="scale(0.015625)"/>
       </defs>
       <use xlink:href="#DejaVuSans-2212"/>
       <use xlink:href="#DejaVuSans-31" x="83.789062"/>
      </g>
     </g>
    </g>
    <g id="xtick_6">
     <g id="line2d_6">
      <g>
       <use xlink:href="#mafcb8d8cef" x="182.412843" y="307.584" style="stroke: #000000; stroke-width: 0.8"/>
      </g>
     </g>
     <g id="text_6">
      <!-- 0 -->
      <g transform="translate(179.231593 322.182437) scale(0.1 -0.1)">
       <defs>
        <path id="DejaVuSans-30" d="M 2034 4250 
Q 1547 4250 1301 3770 
Q 1056 3291 1056 2328 
Q 1056 1369 1301 889 
Q 1547 409 2034 409 
Q 2525 409 2770 889 
Q 3016 1369 3016 2328 
Q 3016 3291 2770 3770 
Q 2525 4250 2034 4250 
z
M 2034 4750 
Q 2819 4750 3233 4129 
Q 3647 3509 3647 2328 
Q 3647 1150 3233 529 
Q 2819 -91 2034 -91 
Q 1250 -91 836 529 
Q 422 1150 422 2328 
Q 422 3509 836 4129 
Q 1250 4750 2034 4750 
z
" transform="scale(0.015625)"/>
       </defs>
       <use xlink:href="#DejaVuSans-30"/>
      </g>
     </g>
    </g>
    <g id="xtick_7">
     <g id="line2d_7">
      <g>
       <use xlink:href="#mafcb8d8cef" x="204.128866" y="307.584" style="stroke: #000000; stroke-width: 0.8"/>
      </g>
     </g>
     <g id="text_7">
      <!-- 1 -->
      <g transform="translate(200.947616 322.182437) scale(0.1 -0.1)">
       <use xlink:href="#DejaVuSans-31"/>
      </g>
     </g>
    </g>
    <g id="xtick_8">
     <g id="line2d_8">
      <g>
       <use xlink:href="#mafcb8d8cef" x="225.844889" y="307.584" style="stroke: #000000; stroke-width: 0.8"/>
      </g>
     </g>
     <g id="text_8">
      <!-- 2 -->
      <g transform="translate(222.663639 322.182437) scale(0.1 -0.1)">
       <use xlink:href="#DejaVuSans-32"/>
      </g>
     </g>
    </g>
    <g id="xtick_9">
     <g id="line2d_9">
      <g>
       <use xlink:href="#mafcb8d8cef" x="247.560912" y="307.584" style="stroke: #000000; stroke-width: 0.8"/>
      </g>
     </g>
     <g id="text_9">
      <!-- 3 -->
      <g transform="translate(244.379662 322.182437) scale(0.1 -0.1)">
       <use xlink:href="#DejaVuSans-33"/>
      </g>
     </g>
    </g>
    <g id="xtick_10">
     <g id="line2d_10">
      <g>
       <use xlink:href="#mafcb8d8cef" x="269.276935" y="307.584" style="stroke: #000000; stroke-width: 0.8"/>
      </g>
     </g>
     <g id="text_10">
      <!-- 4 -->
      <g transform="translate(266.095685 322.182437) scale(0.1 -0.1)">
       <use xlink:href="#DejaVuSans-34"/>
      </g>
     </g>
    </g>
    <g id="xtick_11">
     <g id="line2d_11">
      <g>
       <use xlink:href="#mafcb8d8cef" x="290.992958" y="307.584" style="stroke: #000000; stroke-width: 0.8"/>
      </g>
     </g>
     <g id="text_11">
      <!-- 5 -->
      <g transform="translate(287.811708 322.182437) scale(0.1 -0.1)">
       <use xlink:href="#DejaVuSans-35"/>
      </g>
     </g>
    </g>
    <g id="xtick_12">
     <g id="line2d_12">
      <g>
       <use xlink:href="#mafcb8d8cef" x="312.708981" y="307.584" style="stroke: #000000; stroke-width: 0.8"/>
      </g>
     </g>
     <g id="text_12">
      <!-- 6 -->
      <g transform="translate(309.527731 322.182437) scale(0.1 -0.1)">
       <defs>
        <path id="DejaVuSans-36" d="M 2113 2584 
Q 1688 2584 1439 2293 
Q 1191 2003 1191 1497 
Q 1191 994 1439 701 
Q 1688 409 2113 409 
Q 2538 409 2786 701 
Q 3034 994 3034 1497 
Q 3034 2003 2786 2293 
Q 2538 2584 2113 2584 
z
M 3366 4563 
L 3366 3988 
Q 3128 4100 2886 4159 
Q 2644 4219 2406 4219 
Q 1781 4219 1451 3797 
Q 1122 3375 1075 2522 
Q 1259 2794 1537 2939 
Q 1816 3084 2150 3084 
Q 2853 3084 3261 2657 
Q 3669 2231 3669 1497 
Q 3669 778 3244 343 
Q 2819 -91 2113 -91 
Q 1303 -91 875 529 
Q 447 1150 447 2328 
Q 447 3434 972 4092 
Q 1497 4750 2381 4750 
Q 2619 4750 2861 4703 
Q 3103 4656 3366 4563 
z
" transform="scale(0.015625)"/>
       </defs>
       <use xlink:href="#DejaVuSans-36"/>
      </g>
     </g>
    </g>
    <g id="xtick_13">
     <g id="line2d_13">
      <g>
       <use xlink:href="#mafcb8d8cef" x="334.425005" y="307.584" style="stroke: #000000; stroke-width: 0.8"/>
      </g>
     </g>
     <g id="text_13">
      <!-- 7 -->
      <g transform="translate(331.243755 322.182437) scale(0.1 -0.1)">
       <defs>
        <path id="DejaVuSans-37" d="M 525 4666 
L 3525 4666 
L 3525 4397 
L 1831 0 
L 1172 0 
L 2766 4134 
L 525 4134 
L 525 4666 
z
" transform="scale(0.015625)"/>
       </defs>
       <use xlink:href="#DejaVuSans-37"/>
      </g>
     </g>
    </g>
    <g id="xtick_14">
     <g id="line2d_14">
      <g>
       <use xlink:href="#mafcb8d8cef" x="356.141028" y="307.584" style="stroke: #000000; stroke-width: 0.8"/>
      </g>
     </g>
     <g id="text_14">
      <!-- 8 -->
      <g transform="translate(352.959778 322.182437) scale(0.1 -0.1)">
       <defs>
        <path id="DejaVuSans-38" d="M 2034 2216 
Q 1584 2216 1326 1975 
Q 1069 1734 1069 1313 
Q 1069 891 1326 650 
Q 1584 409 2034 409 
Q 2484 409 2743 651 
Q 3003 894 3003 1313 
Q 3003 1734 2745 1975 
Q 2488 2216 2034 2216 
z
M 1403 2484 
Q 997 2584 770 2862 
Q 544 3141 544 3541 
Q 544 4100 942 4425 
Q 1341 4750 2034 4750 
Q 2731 4750 3128 4425 
Q 3525 4100 3525 3541 
Q 3525 3141 3298 2862 
Q 3072 2584 2669 2484 
Q 3125 2378 3379 2068 
Q 3634 1759 3634 1313 
Q 3634 634 3220 271 
Q 2806 -91 2034 -91 
Q 1263 -91 848 271 
Q 434 634 434 1313 
Q 434 1759 690 2068 
Q 947 2378 1403 2484 
z
M 1172 3481 
Q 1172 3119 1398 2916 
Q 1625 2713 2034 2713 
Q 2441 2713 2670 2916 
Q 2900 3119 2900 3481 
Q 2900 3844 2670 4047 
Q 2441 4250 2034 4250 
Q 1625 4250 1398 4047 
Q 1172 3844 1172 3481 
z
" transform="scale(0.015625)"/>
       </defs>
       <use xlink:href="#DejaVuSans-38"/>
      </g>
     </g>
    </g>
    <g id="xtick_15">
     <g id="line2d_15">
      <g>
       <use xlink:href="#mafcb8d8cef" x="377.857051" y="307.584" style="stroke: #000000; stroke-width: 0.8"/>
      </g>
     </g>
     <g id="text_15">
      <!-- 9 -->
      <g transform="translate(374.675801 322.182437) scale(0.1 -0.1)">
       <defs>
        <path id="DejaVuSans-39" d="M 703 97 
L 703 672 
Q 941 559 1184 500 
Q 1428 441 1663 441 
Q 2288 441 2617 861 
Q 2947 1281 2994 2138 
Q 2813 1869 2534 1725 
Q 2256 1581 1919 1581 
Q 1219 1581 811 2004 
Q 403 2428 403 3163 
Q 403 3881 828 4315 
Q 1253 4750 1959 4750 
Q 2769 4750 3195 4129 
Q 3622 3509 3622 2328 
Q 3622 1225 3098 567 
Q 2575 -91 1691 -91 
Q 1453 -91 1209 -44 
Q 966 3 703 97 
z
M 1959 2075 
Q 2384 2075 2632 2365 
Q 2881 2656 2881 3163 
Q 2881 3666 2632 3958 
Q 2384 4250 1959 4250 
Q 1534 4250 1286 3958 
Q 1038 3666 1038 3163 
Q 1038 2656 1286 2365 
Q 1534 2075 1959 2075 
z
" transform="scale(0.015625)"/>
       </defs>
       <use xlink:href="#DejaVuSans-39"/>
      </g>
     </g>
    </g>
    <g id="xtick_16">
     <g id="line2d_16">
      <g>
       <use xlink:href="#mafcb8d8cef" x="399.573074" y="307.584" style="stroke: #000000; stroke-width: 0.8"/>
      </g>
     </g>
     <g id="text_16">
      <!-- 10 -->
      <g transform="translate(393.210574 322.182437) scale(0.1 -0.1)">
       <use xlink:href="#DejaVuSans-31"/>
       <use xlink:href="#DejaVuSans-30" x="63.623047"/>
      </g>
     </g>
    </g>
    <g id="text_17">
     <!-- Time (s) -->
     <g transform="translate(215.831094 335.860562) scale(0.1 -0.1)">
      <defs>
       <path id="DejaVuSans-54" d="M -19 4666 
L 3928 4666 
L 3928 4134 
L 2272 4134 
L 2272 0 
L 1638 0 
L 1638 4134 
L -19 4134 
L -19 4666 
z
" transform="scale(0.015625)"/>
       <path id="DejaVuSans-69" d="M 603 3500 
L 1178 3500 
L 1178 0 
L 603 0 
L 603 3500 
z
M 603 4863 
L 1178 4863 
L 1178 4134 
L 603 4134 
L 603 4863 
z
" transform="scale(0.015625)"/>
       <path id="DejaVuSans-6d" d="M 3328 2828 
Q 3544 3216 3844 3400 
Q 4144 3584 4550 3584 
Q 5097 3584 5394 3201 
Q 5691 2819 5691 2113 
L 5691 0 
L 5113 0 
L 5113 2094 
Q 5113 2597 4934 2840 
Q 4756 3084 4391 3084 
Q 3944 3084 3684 2787 
Q 3425 2491 3425 1978 
L 3425 0 
L 2847 0 
L 2847 2094 
Q 2847 2600 2669 2842 
Q 2491 3084 2119 3084 
Q 1678 3084 1418 2786 
Q 1159 2488 1159 1978 
L 1159 0 
L 581 0 
L 581 3500 
L 1159 3500 
L 1159 2956 
Q 1356 3278 1631 3431 
Q 1906 3584 2284 3584 
Q 2666 3584 2933 3390 
Q 3200 3197 3328 2828 
z
" transform="scale(0.015625)"/>
       <path id="DejaVuSans-65" d="M 3597 1894 
L 3597 1613 
L 953 1613 
Q 991 1019 1311 708 
Q 1631 397 2203 397 
Q 2534 397 2845 478 
Q 3156 559 3463 722 
L 3463 178 
Q 3153 47 2828 -22 
Q 2503 -91 2169 -91 
Q 1331 -91 842 396 
Q 353 884 353 1716 
Q 353 2575 817 3079 
Q 1281 3584 2069 3584 
Q 2775 3584 3186 3129 
Q 3597 2675 3597 1894 
z
M 3022 2063 
Q 3016 2534 2758 2815 
Q 2500 3097 2075 3097 
Q 1594 3097 1305 2825 
Q 1016 2553 972 2059 
L 3022 2063 
z
" transform="scale(0.015625)"/>
       <path id="DejaVuSans-20" transform="scale(0.015625)"/>
       <path id="DejaVuSans-28" d="M 1984 4856 
Q 1566 4138 1362 3434 
Q 1159 2731 1159 2009 
Q 1159 1288 1364 580 
Q 1569 -128 1984 -844 
L 1484 -844 
Q 1016 -109 783 600 
Q 550 1309 550 2009 
Q 550 2706 781 3412 
Q 1013 4119 1484 4856 
L 1984 4856 
z
" transform="scale(0.015625)"/>
       <path id="DejaVuSans-73" d="M 2834 3397 
L 2834 2853 
Q 2591 2978 2328 3040 
Q 2066 3103 1784 3103 
Q 1356 3103 1142 2972 
Q 928 2841 928 2578 
Q 928 2378 1081 2264 
Q 1234 2150 1697 2047 
L 1894 2003 
Q 2506 1872 2764 1633 
Q 3022 1394 3022 966 
Q 3022 478 2636 193 
Q 2250 -91 1575 -91 
Q 1294 -91 989 -36 
Q 684 19 347 128 
L 347 722 
Q 666 556 975 473 
Q 1284 391 1588 391 
Q 1994 391 2212 530 
Q 2431 669 2431 922 
Q 2431 1156 2273 1281 
Q 2116 1406 1581 1522 
L 1381 1569 
Q 847 1681 609 1914 
Q 372 2147 372 2553 
Q 372 3047 722 3315 
Q 1072 3584 1716 3584 
Q 2034 3584 2315 3537 
Q 2597 3491 2834 3397 
z
" transform="scale(0.015625)"/>
       <path id="DejaVuSans-29" d="M 513 4856 
L 1013 4856 
Q 1481 4119 1714 3412 
Q 1947 2706 1947 2009 
Q 1947 1309 1714 600 
Q 1481 -109 1013 -844 
L 513 -844 
Q 928 -128 1133 580 
Q 1338 1288 1338 2009 
Q 1338 2731 1133 3434 
Q 928 4138 513 4856 
z
" transform="scale(0.015625)"/>
      </defs>
      <use xlink:href="#DejaVuSans-54"/>
      <use xlink:href="#DejaVuSans-69" x="57.958984"/>
      <use xlink:href="#DejaVuSans-6d" x="85.742188"/>
      <use xlink:href="#DejaVuSans-65" x="183.154297"/>
      <use xlink:href="#DejaVuSans-20" x="244.677734"/>
      <use xlink:href="#DejaVuSans-28" x="276.464844"/>
      <use xlink:href="#DejaVuSans-73" x="315.478516"/>
      <use xlink:href="#DejaVuSans-29" x="367.578125"/>
     </g>
    </g>
   </g>
   <g id="matplotlib.axis_2">
    <g id="ytick_1">
     <g id="line2d_17">
      <defs>
       <path id="m8694708e54" d="M 0 0 
L -3.5 0 
" style="stroke: #000000; stroke-width: 0.8"/>
      </defs>
      <g>
       <use xlink:href="#m8694708e54" x="57.6" y="300.877529" style="stroke: #000000; stroke-width: 0.8"/>
      </g>
     </g>
     <g id="text_18">
      <!-- −5 -->
      <g transform="translate(35.857813 304.676748) scale(0.1 -0.1)">
       <use xlink:href="#DejaVuSans-2212"/>
       <use xlink:href="#DejaVuSans-35" x="83.789062"/>
      </g>
     </g>
    </g>
    <g id="ytick_2">
     <g id="line2d_18">
      <g>
       <use xlink:href="#m8694708e54" x="57.6" y="263.048533" style="stroke: #000000; stroke-width: 0.8"/>
      </g>
     </g>
     <g id="text_19">
      <!-- −4 -->
      <g transform="translate(35.857813 266.847751) scale(0.1 -0.1)">
       <use xlink:href="#DejaVuSans-2212"/>
       <use xlink:href="#DejaVuSans-34" x="83.789062"/>
      </g>
     </g>
    </g>
    <g id="ytick_3">
     <g id="line2d_19">
      <g>
       <use xlink:href="#m8694708e54" x="57.6" y="225.219536" style="stroke: #000000; stroke-width: 0.8"/>
      </g>
     </g>
     <g id="text_20">
      <!-- −3 -->
      <g transform="translate(35.857813 229.018755) scale(0.1 -0.1)">
       <use xlink:href="#DejaVuSans-2212"/>
       <use xlink:href="#DejaVuSans-33" x="83.789062"/>
      </g>
     </g>
    </g>
    <g id="ytick_4">
     <g id="line2d_20">
      <g>
       <use xlink:href="#m8694708e54" x="57.6" y="187.39054" style="stroke: #000000; stroke-width: 0.8"/>
      </g>
     </g>
     <g id="text_21">
      <!-- −2 -->
      <g transform="translate(35.857813 191.189759) scale(0.1 -0.1)">
       <use xlink:href="#DejaVuSans-2212"/>
       <use xlink:href="#DejaVuSans-32" x="83.789062"/>
      </g>
     </g>
    </g>
    <g id="ytick_5">
     <g id="line2d_21">
      <g>
       <use xlink:href="#m8694708e54" x="57.6" y="149.561544" style="stroke: #000000; stroke-width: 0.8"/>
      </g>
     </g>
     <g id="text_22">
      <!-- −1 -->
      <g transform="translate(35.857813 153.360763) scale(0.1 -0.1)">
       <use xlink:href="#DejaVuSans-2212"/>
       <use xlink:href="#DejaVuSans-31" x="83.789062"/>
      </g>
     </g>
    </g>
    <g id="ytick_6">
     <g id="line2d_22">
      <g>
       <use xlink:href="#m8694708e54" x="57.6" y="111.732548" style="stroke: #000000; stroke-width: 0.8"/>
      </g>
     </g>
     <g id="text_23">
      <!-- 0 -->
      <g transform="translate(44.2375 115.531766) scale(0.1 -0.1)">
       <use xlink:href="#DejaVuSans-30"/>
      </g>
     </g>
    </g>
    <g id="ytick_7">
     <g id="line2d_23">
      <g>
       <use xlink:href="#m8694708e54" x="57.6" y="73.903551" style="stroke: #000000; stroke-width: 0.8"/>
      </g>
     </g>
     <g id="text_24">
      <!-- 1 -->
      <g transform="translate(44.2375 77.70277) scale(0.1 -0.1)">
       <use xlink:href="#DejaVuSans-31"/>
      </g>
     </g>
    </g>
    <g id="text_25">
     <!-- Z-Score -->
     <g transform="translate(29.778125 193.67175) rotate(-90) scale(0.1 -0.1)">
      <defs>
       <path id="DejaVuSans-5a" d="M 359 4666 
L 4025 4666 
L 4025 4184 
L 1075 531 
L 4097 531 
L 4097 0 
L 288 0 
L 288 481 
L 3238 4134 
L 359 4134 
L 359 4666 
z
" transform="scale(0.015625)"/>
       <path id="DejaVuSans-2d" d="M 313 2009 
L 1997 2009 
L 1997 1497 
L 313 1497 
L 313 2009 
z
" transform="scale(0.015625)"/>
       <path id="DejaVuSans-53" d="M 3425 4513 
L 3425 3897 
Q 3066 4069 2747 4153 
Q 2428 4238 2131 4238 
Q 1616 4238 1336 4038 
Q 1056 3838 1056 3469 
Q 1056 3159 1242 3001 
Q 1428 2844 1947 2747 
L 2328 2669 
Q 3034 2534 3370 2195 
Q 3706 1856 3706 1288 
Q 3706 609 3251 259 
Q 2797 -91 1919 -91 
Q 1588 -91 1214 -16 
Q 841 59 441 206 
L 441 856 
Q 825 641 1194 531 
Q 1563 422 1919 422 
Q 2459 422 2753 634 
Q 3047 847 3047 1241 
Q 3047 1584 2836 1778 
Q 2625 1972 2144 2069 
L 1759 2144 
Q 1053 2284 737 2584 
Q 422 2884 422 3419 
Q 422 4038 858 4394 
Q 1294 4750 2059 4750 
Q 2388 4750 2728 4690 
Q 3069 4631 3425 4513 
z
" transform="scale(0.015625)"/>
       <path id="DejaVuSans-63" d="M 3122 3366 
L 3122 2828 
Q 2878 2963 2633 3030 
Q 2388 3097 2138 3097 
Q 1578 3097 1268 2742 
Q 959 2388 959 1747 
Q 959 1106 1268 751 
Q 1578 397 2138 397 
Q 2388 397 2633 464 
Q 2878 531 3122 666 
L 3122 134 
Q 2881 22 2623 -34 
Q 2366 -91 2075 -91 
Q 1284 -91 818 406 
Q 353 903 353 1747 
Q 353 2603 823 3093 
Q 1294 3584 2113 3584 
Q 2378 3584 2631 3529 
Q 2884 3475 3122 3366 
z
" transform="scale(0.015625)"/>
       <path id="DejaVuSans-6f" d="M 1959 3097 
Q 1497 3097 1228 2736 
Q 959 2375 959 1747 
Q 959 1119 1226 758 
Q 1494 397 1959 397 
Q 2419 397 2687 759 
Q 2956 1122 2956 1747 
Q 2956 2369 2687 2733 
Q 2419 3097 1959 3097 
z
M 1959 3584 
Q 2709 3584 3137 3096 
Q 3566 2609 3566 1747 
Q 3566 888 3137 398 
Q 2709 -91 1959 -91 
Q 1206 -91 779 398 
Q 353 888 353 1747 
Q 353 2609 779 3096 
Q 1206 3584 1959 3584 
z
" transform="scale(0.015625)"/>
       <path id="DejaVuSans-72" d="M 2631 2963 
Q 2534 3019 2420 3045 
Q 2306 3072 2169 3072 
Q 1681 3072 1420 2755 
Q 1159 2438 1159 1844 
L 1159 0 
L 581 0 
L 581 3500 
L 1159 3500 
L 1159 2956 
Q 1341 3275 1631 3429 
Q 1922 3584 2338 3584 
Q 2397 3584 2469 3576 
Q 2541 3569 2628 3553 
L 2631 2963 
z
" transform="scale(0.015625)"/>
      </defs>
      <use xlink:href="#DejaVuSans-5a"/>
      <use xlink:href="#DejaVuSans-2d" x="66.755859"/>
      <use xlink:href="#DejaVuSans-53" x="102.839844"/>
      <use xlink:href="#DejaVuSans-63" x="166.316406"/>
      <use xlink:href="#DejaVuSans-6f" x="221.296875"/>
      <use xlink:href="#DejaVuSans-72" x="282.478516"/>
      <use xlink:href="#DejaVuSans-65" x="321.341797"/>
     </g>
    </g>
   </g>
   <g id="line2d_24">
    <path d="M 73.832727 139.502347 
L 76.00433 145.921606 
L 77.090131 149.28059 
L 78.175932 151.024948 
L 79.261733 153.41331 
L 80.347534 155.34686 
L 81.433335 156.488393 
L 82.519137 157.837018 
L 83.604938 160.503979 
L 84.690739 162.264244 
L 85.77654 163.572747 
L 87.948142 165.590017 
L 90.119745 164.674928 
L 91.205546 163.994597 
L 92.291347 163.470276 
L 93.377148 162.51738 
L 94.462949 161.843066 
L 95.54875 160.401866 
L 96.634552 159.342393 
L 98.806154 156.412006 
L 102.063557 152.335844 
L 103.149358 151.717249 
L 107.492563 143.322061 
L 108.578364 140.683109 
L 109.664165 138.818195 
L 110.749967 136.377451 
L 111.835768 132.999252 
L 115.093171 126.073699 
L 116.178972 123.249529 
L 117.264773 121.036113 
L 118.350575 117.904082 
L 119.436376 115.587382 
L 120.522177 112.588848 
L 121.607978 109.014018 
L 123.77958 103.569124 
L 124.865382 101.204089 
L 125.951183 99.323144 
L 128.122785 96.777902 
L 129.208586 95.062442 
L 130.294387 94.138459 
L 131.380189 92.180505 
L 132.46599 91.531895 
L 134.637592 87.007385 
L 135.723393 85.803613 
L 136.809194 83.326898 
L 137.894995 81.367594 
L 138.980797 79.111617 
L 140.066598 77.505321 
L 141.152399 74.789951 
L 142.2382 73.167529 
L 143.324001 71.848289 
L 144.409802 70.326638 
L 145.495604 70.051686 
L 146.581405 68.845971 
L 147.667206 67.465187 
L 148.753007 66.488045 
L 149.838808 66.030878 
L 150.924609 65.762408 
L 152.01041 65.90371 
L 153.096212 66.767553 
L 155.267814 70.285333 
L 156.353615 72.350757 
L 158.525217 75.710381 
L 159.611019 78.118681 
L 160.69682 79.57147 
L 161.782621 81.469426 
L 162.868422 82.395157 
L 163.954223 82.955974 
L 166.125825 85.259535 
L 167.211627 85.08694 
L 168.297428 85.839041 
L 169.383229 86.017528 
L 170.46903 87.119632 
L 171.554831 87.828835 
L 172.640632 89.302483 
L 173.726434 89.850831 
L 176.983837 89.323936 
L 179.155439 88.525455 
L 180.24124 88.635928 
L 181.327042 88.292106 
L 182.412843 88.271573 
L 183.498644 88.088899 
L 184.584445 89.183013 
L 185.670246 89.834962 
L 186.756047 90.188789 
L 187.841849 90.746202 
L 191.099252 90.251693 
L 192.185053 90.529408 
L 193.270854 90.648114 
L 194.356656 91.226333 
L 195.442457 91.044333 
L 196.528258 91.537303 
L 197.614059 92.733214 
L 198.69986 92.55567 
L 199.785661 94.506207 
L 200.871462 95.359216 
L 203.043065 98.91796 
L 206.300468 105.734814 
L 207.386269 107.491833 
L 208.472071 108.539871 
L 210.643673 111.776374 
L 211.729474 112.837593 
L 212.815275 112.904548 
L 213.901076 113.960512 
L 214.986877 114.261782 
L 216.072679 114.797207 
L 217.15848 114.084965 
L 219.330082 113.350486 
L 220.415883 113.127544 
L 221.501684 112.065312 
L 222.587486 111.352567 
L 223.673287 111.217903 
L 226.93069 111.46605 
L 228.016491 110.655227 
L 229.102292 109.69867 
L 231.273895 110.081808 
L 232.359696 109.29588 
L 233.445497 107.430821 
L 235.617099 104.772938 
L 236.702901 102.856212 
L 239.960304 100.845677 
L 242.131906 99.346901 
L 243.217708 98.337667 
L 244.303509 97.97234 
L 245.38931 97.276636 
L 246.475111 97.141085 
L 247.560912 97.735775 
L 248.646713 96.883166 
L 249.732514 96.811588 
L 250.818316 96.585249 
L 251.904117 96.20206 
L 252.989918 96.468487 
L 254.075719 97.034134 
L 255.16152 97.289534 
L 256.247321 97.806498 
L 257.333123 97.828751 
L 259.504725 96.172543 
L 260.590526 96.234095 
L 261.676327 96.417573 
L 262.762128 96.822486 
L 263.847929 96.261565 
L 264.933731 96.866608 
L 266.019532 96.566676 
L 267.105333 97.02037 
L 268.191134 97.835579 
L 269.276935 98.482359 
L 270.362736 98.351491 
L 274.705941 101.968373 
L 275.791742 103.332681 
L 276.877543 105.444458 
L 277.963344 106.508034 
L 280.134947 109.111679 
L 281.220748 110.955975 
L 282.306549 112.031017 
L 283.39235 113.492618 
L 284.478151 115.376905 
L 285.563953 118.32124 
L 286.649754 120.232105 
L 287.735555 123.094211 
L 288.821356 125.091125 
L 290.992958 130.04168 
L 293.164561 135.883246 
L 294.250362 138.54635 
L 295.336163 140.412924 
L 296.421964 142.599285 
L 297.507765 145.438731 
L 298.593566 147.476266 
L 299.679368 150.661876 
L 300.765169 154.823736 
L 301.85097 157.44552 
L 302.936771 160.524634 
L 304.022572 163.211615 
L 305.108373 165.472051 
L 308.365777 174.408404 
L 309.451578 176.761116 
L 313.794783 183.832253 
L 314.880584 186.225836 
L 315.966385 187.879479 
L 317.052186 188.976413 
L 318.137987 190.332803 
L 320.30959 191.434126 
L 321.395391 192.21176 
L 323.566993 196.181114 
L 324.652794 195.599439 
L 325.738595 196.391503 
L 326.824396 196.36023 
L 327.910198 196.749492 
L 328.995999 196.072254 
L 330.0818 195.71415 
L 331.167601 194.666804 
L 333.339203 193.34281 
L 334.425005 192.384825 
L 335.510806 190.665308 
L 336.596607 189.475636 
L 337.682408 188.806587 
L 338.768209 187.121978 
L 339.85401 185.904373 
L 340.939811 184.387411 
L 342.025613 182.49219 
L 343.111414 181.213783 
L 345.283016 177.614459 
L 346.368817 176.811021 
L 347.454618 175.513363 
L 349.626221 171.066443 
L 350.712022 168.079147 
L 351.797823 165.827279 
L 352.883624 164.294157 
L 353.969425 162.32028 
L 357.226829 155.290361 
L 358.31263 153.647118 
L 359.398431 151.123847 
L 360.484232 149.198961 
L 361.570033 146.361711 
L 362.655835 144.234621 
L 363.741636 140.753514 
L 364.827437 136.726888 
L 365.913238 133.763512 
L 368.08484 128.896582 
L 370.256443 125.145069 
L 371.342244 123.617711 
L 372.428045 122.922555 
L 373.513846 121.171389 
L 375.685448 120.103456 
L 376.77125 120.005206 
L 377.857051 120.108521 
L 378.942852 119.919113 
L 380.028653 119.949999 
L 382.200255 120.78411 
L 383.286057 121.378019 
L 385.457659 122.106076 
L 386.54346 121.113129 
L 387.629261 120.835226 
L 388.715062 120.924745 
L 389.800863 119.487288 
L 390.886665 119.537102 
L 393.058267 118.786978 
L 394.144068 118.400876 
L 395.229869 118.169742 
L 397.401472 114.695463 
L 398.487273 113.901678 
L 398.487273 113.901678 
" clip-path="url(#p1eaa2e2d6e)" style="fill: none; stroke: #ff00ff; stroke-width: 1.5; stroke-linecap: square"/>
   </g>
   <g id="line2d_25">
    <path d="M 182.412843 307.584 
L 182.412843 41.472 
" clip-path="url(#p1eaa2e2d6e)" style="fill: none; stroke: #000000; stroke-width: 1.5; stroke-linecap: square"/>
   </g>
   <g id="patch_3">
    <path d="M 57.6 307.584 
L 57.6 41.472 
" style="fill: none; stroke: #000000; stroke-width: 0.8; stroke-linejoin: miter; stroke-linecap: square"/>
   </g>
   <g id="patch_4">
    <path d="M 414.72 307.584 
L 414.72 41.472 
" style="fill: none; stroke: #000000; stroke-width: 0.8; stroke-linejoin: miter; stroke-linecap: square"/>
   </g>
   <g id="patch_5">
    <path d="M 57.6 307.584 
L 414.72 307.584 
" style="fill: none; stroke: #000000; stroke-width: 0.8; stroke-linejoin: miter; stroke-linecap: square"/>
   </g>
   <g id="patch_6">
    <path d="M 57.6 41.472 
L 414.72 41.472 
" style="fill: none; stroke: #000000; stroke-width: 0.8; stroke-linejoin: miter; stroke-linecap: square"/>
   </g>
   <g id="text_26">
    <!-- Event 8_p=0.728 -->
    <g transform="translate(184.232812 35.472) scale(0.12 -0.12)">
     <defs>
      <path id="DejaVuSans-45" d="M 628 4666 
L 3578 4666 
L 3578 4134 
L 1259 4134 
L 1259 2753 
L 3481 2753 
L 3481 2222 
L 1259 2222 
L 1259 531 
L 3634 531 
L 3634 0 
L 628 0 
L 628 4666 
z
" transform="scale(0.015625)"/>
      <path id="DejaVuSans-76" d="M 191 3500 
L 800 3500 
L 1894 563 
L 2988 3500 
L 3597 3500 
L 2284 0 
L 1503 0 
L 191 3500 
z
" transform="scale(0.015625)"/>
      <path id="DejaVuSans-6e" d="M 3513 2113 
L 3513 0 
L 2938 0 
L 2938 2094 
Q 2938 2591 2744 2837 
Q 2550 3084 2163 3084 
Q 1697 3084 1428 2787 
Q 1159 2491 1159 1978 
L 1159 0 
L 581 0 
L 581 3500 
L 1159 3500 
L 1159 2956 
Q 1366 3272 1645 3428 
Q 1925 3584 2291 3584 
Q 2894 3584 3203 3211 
Q 3513 2838 3513 2113 
z
" transform="scale(0.015625)"/>
      <path id="DejaVuSans-74" d="M 1172 4494 
L 1172 3500 
L 2356 3500 
L 2356 3053 
L 1172 3053 
L 1172 1153 
Q 1172 725 1289 603 
Q 1406 481 1766 481 
L 2356 481 
L 2356 0 
L 1766 0 
Q 1100 0 847 248 
Q 594 497 594 1153 
L 594 3053 
L 172 3053 
L 172 3500 
L 594 3500 
L 594 4494 
L 1172 4494 
z
" transform="scale(0.015625)"/>
      <path id="DejaVuSans-5f" d="M 3263 -1063 
L 3263 -1509 
L -63 -1509 
L -63 -1063 
L 3263 -1063 
z
" transform="scale(0.015625)"/>
      <path id="DejaVuSans-70" d="M 1159 525 
L 1159 -1331 
L 581 -1331 
L 581 3500 
L 1159 3500 
L 1159 2969 
Q 1341 3281 1617 3432 
Q 1894 3584 2278 3584 
Q 2916 3584 3314 3078 
Q 3713 2572 3713 1747 
Q 3713 922 3314 415 
Q 2916 -91 2278 -91 
Q 1894 -91 1617 61 
Q 1341 213 1159 525 
z
M 3116 1747 
Q 3116 2381 2855 2742 
Q 2594 3103 2138 3103 
Q 1681 3103 1420 2742 
Q 1159 2381 1159 1747 
Q 1159 1113 1420 752 
Q 1681 391 2138 391 
Q 2594 391 2855 752 
Q 3116 1113 3116 1747 
z
" transform="scale(0.015625)"/>
      <path id="DejaVuSans-3d" d="M 678 2906 
L 4684 2906 
L 4684 2381 
L 678 2381 
L 678 2906 
z
M 678 1631 
L 4684 1631 
L 4684 1100 
L 678 1100 
L 678 1631 
z
" transform="scale(0.015625)"/>
      <path id="DejaVuSans-2e" d="M 684 794 
L 1344 794 
L 1344 0 
L 684 0 
L 684 794 
z
" transform="scale(0.015625)"/>
     </defs>
     <use xlink:href="#DejaVuSans-45"/>
     <use xlink:href="#DejaVuSans-76" x="63.183594"/>
     <use xlink:href="#DejaVuSans-65" x="122.363281"/>
     <use xlink:href="#DejaVuSans-6e" x="183.886719"/>
     <use xlink:href="#DejaVuSans-74" x="247.265625"/>
     <use xlink:href="#DejaVuSans-20" x="286.474609"/>
     <use xlink:href="#DejaVuSans-38" x="318.261719"/>
     <use xlink:href="#DejaVuSans-5f" x="381.884766"/>
     <use xlink:href="#DejaVuSans-70" x="431.884766"/>
     <use xlink:href="#DejaVuSans-3d" x="495.361328"/>
     <use xlink:href="#DejaVuSans-30" x="579.150391"/>
     <use xlink:href="#DejaVuSans-2e" x="642.773438"/>
     <use xlink:href="#DejaVuSans-37" x="674.560547"/>
     <use xlink:href="#DejaVuSans-32" x="738.183594"/>
     <use xlink:href="#DejaVuSans-38" x="801.806641"/>
    </g>
   </g>
  </g>
 </g>
 <defs>
  <clipPath id="p1eaa2e2d6e">
   <rect x="57.6" y="41.472" width="357.12" height="266.112"/>
  </clipPath>
 </defs>
</svg>
