<?xml version="1.0" encoding="utf-8" standalone="no"?>
<!DOCTYPE svg PUBLIC "-//W3C//DTD SVG 1.1//EN"
  "http://www.w3.org/Graphics/SVG/1.1/DTD/svg11.dtd">
<svg xmlns:xlink="http://www.w3.org/1999/xlink" width="460.8pt" height="345.6pt" viewBox="0 0 460.8 345.6" xmlns="http://www.w3.org/2000/svg" version="1.1">
 <metadata>
  <rdf:RDF xmlns:dc="http://purl.org/dc/elements/1.1/" xmlns:cc="http://creativecommons.org/ns#" xmlns:rdf="http://www.w3.org/1999/02/22-rdf-syntax-ns#">
   <cc:Work>
    <dc:type rdf:resource="http://purl.org/dc/dcmitype/StillImage"/>
    <dc:date>2024-11-14T18:55:15.504971</dc:date>
    <dc:format>image/svg+xml</dc:format>
    <dc:creator>
     <cc:Agent>
      <dc:title>Matplotlib v3.8.2, https://matplotlib.org/</dc:title>
     </cc:Agent>
    </dc:creator>
   </cc:Work>
  </rdf:RDF>
 </metadata>
 <defs>
  <style type="text/css">*{stroke-linejoin: round; stroke-linecap: butt}</style>
 </defs>
 <g id="figure_1">
  <g id="patch_1">
   <path d="M 0 345.6 
L 460.8 345.6 
L 460.8 0 
L 0 0 
z
" style="fill: #ffffff"/>
  </g>
  <g id="axes_1">
   <g id="patch_2">
    <path d="M 57.6 307.584 
L 414.72 307.584 
L 414.72 41.472 
L 57.6 41.472 
z
" style="fill: #ffffff"/>
   </g>
   <g id="PolyCollection_1">
    <defs>
     <path id="m4f52ae5e06" d="M 73.832727 -57.791924 
L 73.832727 -50.112 
L 74.918528 -50.509005 
L 76.00433 -50.772406 
L 77.090131 -50.957337 
L 78.175932 -51.458463 
L 79.261733 -52.05947 
L 80.347534 -52.467518 
L 81.433335 -52.874028 
L 82.519137 -53.154045 
L 83.604938 -53.519445 
L 84.690739 -54.16341 
L 85.77654 -54.483762 
L 86.862341 -54.803868 
L 87.948142 -55.484387 
L 89.033943 -55.955263 
L 90.119745 -56.56132 
L 91.205546 -57.229736 
L 92.291347 -57.968984 
L 93.377148 -58.780782 
L 94.462949 -59.407833 
L 95.54875 -59.732086 
L 96.634552 -60.125039 
L 97.720353 -60.973186 
L 98.806154 -61.524906 
L 99.891955 -61.824123 
L 100.977756 -62.151174 
L 102.063557 -62.619214 
L 103.149358 -63.12273 
L 104.23516 -63.456676 
L 105.320961 -63.932383 
L 106.406762 -64.331665 
L 107.492563 -64.70039 
L 108.578364 -65.217013 
L 109.664165 -65.600893 
L 110.749967 -65.942939 
L 111.835768 -66.240725 
L 112.921569 -66.565469 
L 114.00737 -66.760182 
L 115.093171 -67.063432 
L 116.178972 -67.090545 
L 117.264773 -67.347327 
L 118.350575 -67.711414 
L 119.436376 -68.133813 
L 120.522177 -68.523975 
L 121.607978 -68.969728 
L 122.693779 -69.482692 
L 123.77958 -69.950444 
L 124.865382 -70.482338 
L 125.951183 -70.949414 
L 127.036984 -71.42188 
L 128.122785 -71.744522 
L 129.208586 -72.027118 
L 130.294387 -72.377695 
L 131.380189 -72.609044 
L 132.46599 -72.692397 
L 133.551791 -72.8966 
L 134.637592 -73.156722 
L 135.723393 -73.317879 
L 136.809194 -73.410691 
L 137.894995 -73.636865 
L 138.980797 -73.929976 
L 140.066598 -74.433375 
L 141.152399 -74.981521 
L 142.2382 -75.536507 
L 143.324001 -75.873408 
L 144.409802 -76.682591 
L 145.495604 -77.311843 
L 146.581405 -78.003159 
L 147.667206 -78.684094 
L 148.753007 -79.25933 
L 149.838808 -79.966702 
L 150.924609 -80.767634 
L 152.01041 -81.299221 
L 153.096212 -81.950572 
L 154.182013 -82.339508 
L 155.267814 -82.799451 
L 156.353615 -83.139999 
L 157.439416 -83.504605 
L 158.525217 -84.006142 
L 159.611019 -84.291408 
L 160.69682 -84.600906 
L 161.782621 -84.719539 
L 162.868422 -84.735493 
L 163.954223 -84.894186 
L 165.040024 -85.109669 
L 166.125825 -85.434925 
L 167.211627 -85.448849 
L 168.297428 -85.58018 
L 169.383229 -85.734178 
L 170.46903 -85.733079 
L 171.554831 -85.923281 
L 172.640632 -86.026977 
L 173.726434 -86.098793 
L 174.812235 -86.001994 
L 175.898036 -86.116772 
L 176.983837 -86.165252 
L 178.069638 -86.447959 
L 179.155439 -86.62913 
L 180.24124 -86.93967 
L 181.327042 -87.374385 
L 182.412843 -87.717653 
L 183.498644 -87.970177 
L 184.584445 -88.369674 
L 185.670246 -88.595053 
L 186.756047 -88.979919 
L 187.841849 -89.42731 
L 188.92765 -89.826766 
L 190.013451 -90.201346 
L 191.099252 -90.326108 
L 192.185053 -90.844017 
L 193.270854 -91.218621 
L 194.356656 -91.78864 
L 195.442457 -92.422047 
L 196.528258 -93.205436 
L 197.614059 -94.055606 
L 198.69986 -94.735798 
L 199.785661 -95.579806 
L 200.871462 -96.573201 
L 201.957264 -97.717341 
L 203.043065 -98.840299 
L 204.128866 -99.948892 
L 205.214667 -101.190454 
L 206.300468 -102.704013 
L 207.386269 -103.887555 
L 208.472071 -105.386257 
L 209.557872 -107.141861 
L 210.643673 -108.650405 
L 211.729474 -110.468699 
L 212.815275 -112.440481 
L 213.901076 -114.286688 
L 214.986877 -116.089207 
L 216.072679 -117.905643 
L 217.15848 -119.718284 
L 218.244281 -121.329132 
L 219.330082 -122.893799 
L 220.415883 -124.349273 
L 221.501684 -125.685251 
L 222.587486 -127.257178 
L 223.673287 -128.904971 
L 224.759088 -130.597796 
L 225.844889 -132.671198 
L 226.93069 -134.670008 
L 228.016491 -136.63958 
L 229.102292 -138.545246 
L 230.188094 -140.567733 
L 231.273895 -142.524438 
L 232.359696 -144.19914 
L 233.445497 -146.108209 
L 234.531298 -147.810131 
L 235.617099 -149.435275 
L 236.702901 -151.195505 
L 237.788702 -153.023312 
L 238.874503 -154.84576 
L 239.960304 -156.51443 
L 241.046105 -158.236887 
L 242.131906 -159.909498 
L 243.217708 -161.58723 
L 244.303509 -162.871125 
L 245.38931 -164.480631 
L 246.475111 -165.908801 
L 247.560912 -167.376973 
L 248.646713 -168.783954 
L 249.732514 -170.230118 
L 250.818316 -171.715424 
L 251.904117 -172.965577 
L 252.989918 -174.294602 
L 254.075719 -175.635702 
L 255.16152 -177.098368 
L 256.247321 -178.740707 
L 257.333123 -180.161428 
L 258.418924 -181.618797 
L 259.504725 -182.921804 
L 260.590526 -184.46093 
L 261.676327 -185.703189 
L 262.762128 -187.070072 
L 263.847929 -188.291465 
L 264.933731 -189.434316 
L 266.019532 -190.448161 
L 267.105333 -191.311367 
L 268.191134 -192.140156 
L 269.276935 -192.872695 
L 270.362736 -193.583448 
L 271.448538 -194.258366 
L 272.534339 -194.691866 
L 273.62014 -194.885435 
L 274.705941 -195.143686 
L 275.791742 -195.481648 
L 276.877543 -195.617822 
L 277.963344 -195.712642 
L 279.049146 -195.968984 
L 280.134947 -196.275118 
L 281.220748 -196.713805 
L 282.306549 -197.205902 
L 283.39235 -197.749091 
L 284.478151 -198.053766 
L 285.563953 -198.422964 
L 286.649754 -198.806177 
L 287.735555 -199.027038 
L 288.821356 -198.975659 
L 289.907157 -198.786799 
L 290.992958 -198.824382 
L 292.07876 -198.571044 
L 293.164561 -198.427916 
L 294.250362 -198.231363 
L 295.336163 -198.069722 
L 296.421964 -197.780652 
L 297.507765 -197.481199 
L 298.593566 -197.320258 
L 299.679368 -197.368425 
L 300.765169 -197.291824 
L 301.85097 -197.211779 
L 302.936771 -197.044975 
L 304.022572 -196.894504 
L 305.108373 -196.660988 
L 306.194175 -196.672727 
L 307.279976 -196.628991 
L 308.365777 -196.674645 
L 309.451578 -196.389758 
L 310.537379 -196.334209 
L 311.62318 -196.283624 
L 312.708981 -196.246646 
L 313.794783 -196.068068 
L 314.880584 -195.864639 
L 315.966385 -195.783008 
L 317.052186 -195.688718 
L 318.137987 -195.560631 
L 319.223788 -195.198961 
L 320.30959 -194.803722 
L 321.395391 -194.562584 
L 322.481192 -194.052395 
L 323.566993 -193.720812 
L 324.652794 -193.004237 
L 325.738595 -192.456863 
L 326.824396 -192.071012 
L 327.910198 -191.614004 
L 328.995999 -190.825596 
L 330.0818 -190.125725 
L 331.167601 -189.457254 
L 332.253402 -188.690256 
L 333.339203 -187.956581 
L 334.425005 -187.226717 
L 335.510806 -186.430061 
L 336.596607 -185.607362 
L 337.682408 -184.873662 
L 338.768209 -184.217409 
L 339.85401 -183.257008 
L 340.939811 -182.381533 
L 342.025613 -181.655751 
L 343.111414 -180.819668 
L 344.197215 -179.845872 
L 345.283016 -178.85753 
L 346.368817 -177.923734 
L 347.454618 -176.720845 
L 348.54042 -175.786527 
L 349.626221 -174.851177 
L 350.712022 -173.986949 
L 351.797823 -172.925518 
L 352.883624 -172.064308 
L 353.969425 -171.038834 
L 355.055227 -169.972467 
L 356.141028 -169.19897 
L 357.226829 -168.527958 
L 358.31263 -167.787839 
L 359.398431 -167.108792 
L 360.484232 -166.606503 
L 361.570033 -165.813885 
L 362.655835 -165.129179 
L 363.741636 -164.377809 
L 364.827437 -163.487332 
L 365.913238 -162.661413 
L 366.999039 -161.945424 
L 368.08484 -161.366582 
L 369.170642 -160.704105 
L 370.256443 -160.016224 
L 371.342244 -159.066574 
L 372.428045 -158.211076 
L 373.513846 -157.553215 
L 374.599647 -156.788489 
L 375.685448 -155.909631 
L 376.77125 -155.118439 
L 377.857051 -154.527613 
L 378.942852 -153.767338 
L 380.028653 -152.882773 
L 381.114454 -152.069565 
L 382.200255 -151.392733 
L 383.286057 -150.957957 
L 384.371858 -150.186263 
L 385.457659 -149.545599 
L 386.54346 -148.937454 
L 387.629261 -148.184848 
L 388.715062 -147.737223 
L 389.800863 -146.990579 
L 390.886665 -146.198851 
L 391.972466 -145.506819 
L 393.058267 -144.78536 
L 394.144068 -144.034268 
L 395.229869 -143.348799 
L 396.31567 -142.799939 
L 397.401472 -142.279056 
L 398.487273 -141.6776 
L 398.487273 -274.097007 
L 398.487273 -274.097007 
L 397.401472 -275.013926 
L 396.31567 -275.780324 
L 395.229869 -276.486087 
L 394.144068 -277.329694 
L 393.058267 -278.125275 
L 391.972466 -278.753207 
L 390.886665 -279.359222 
L 389.800863 -280.083037 
L 388.715062 -280.622685 
L 387.629261 -280.676399 
L 386.54346 -280.994056 
L 385.457659 -281.197984 
L 384.371858 -281.369387 
L 383.286057 -281.845487 
L 382.200255 -281.960262 
L 381.114454 -282.395949 
L 380.028653 -282.93578 
L 378.942852 -283.461002 
L 377.857051 -283.856267 
L 376.77125 -284.014642 
L 375.685448 -284.420772 
L 374.599647 -285.095398 
L 373.513846 -285.623571 
L 372.428045 -285.976811 
L 371.342244 -286.642865 
L 370.256443 -287.375988 
L 369.170642 -287.884378 
L 368.08484 -288.282087 
L 366.999039 -288.785481 
L 365.913238 -289.274829 
L 364.827437 -289.788602 
L 363.741636 -290.267887 
L 362.655835 -290.299925 
L 361.570033 -290.509704 
L 360.484232 -290.708313 
L 359.398431 -290.581413 
L 358.31263 -290.62655 
L 357.226829 -290.732353 
L 356.141028 -290.575873 
L 355.055227 -290.414088 
L 353.969425 -290.571537 
L 352.883624 -290.573921 
L 351.797823 -290.296144 
L 350.712022 -290.192447 
L 349.626221 -289.957982 
L 348.54042 -289.79791 
L 347.454618 -289.76465 
L 346.368817 -289.957752 
L 345.283016 -289.918168 
L 344.197215 -289.913403 
L 343.111414 -290.023377 
L 342.025613 -289.851453 
L 340.939811 -289.571281 
L 339.85401 -289.464981 
L 338.768209 -289.66732 
L 337.682408 -289.336649 
L 336.596607 -289.089949 
L 335.510806 -288.824204 
L 334.425005 -288.574892 
L 333.339203 -288.298431 
L 332.253402 -287.991681 
L 331.167601 -287.787385 
L 330.0818 -287.494539 
L 328.995999 -287.319209 
L 327.910198 -287.393273 
L 326.824396 -287.193382 
L 325.738595 -286.847287 
L 324.652794 -286.85579 
L 323.566993 -287.235623 
L 322.481192 -287.207655 
L 321.395391 -287.388964 
L 320.30959 -287.330671 
L 319.223788 -287.335036 
L 318.137987 -287.371972 
L 317.052186 -287.189204 
L 315.966385 -287.044134 
L 314.880584 -286.876071 
L 313.794783 -286.688165 
L 312.708981 -286.648472 
L 311.62318 -286.308591 
L 310.537379 -286.066261 
L 309.451578 -285.768516 
L 308.365777 -285.96193 
L 307.279976 -285.710865 
L 306.194175 -285.620391 
L 305.108373 -285.4077 
L 304.022572 -285.557734 
L 302.936771 -285.632302 
L 301.85097 -285.741973 
L 300.765169 -285.841249 
L 299.679368 -286.072367 
L 298.593566 -286.493357 
L 297.507765 -287.000502 
L 296.421964 -287.81325 
L 295.336163 -288.687971 
L 294.250362 -289.292787 
L 293.164561 -289.722178 
L 292.07876 -290.081714 
L 290.992958 -290.650462 
L 289.907157 -290.777598 
L 288.821356 -291.432293 
L 287.735555 -291.895744 
L 286.649754 -292.032 
L 285.563953 -291.798373 
L 284.478151 -291.553683 
L 283.39235 -291.175652 
L 282.306549 -290.672051 
L 281.220748 -290.347278 
L 280.134947 -290.066659 
L 279.049146 -289.692662 
L 277.963344 -289.187084 
L 276.877543 -289.13799 
L 275.791742 -288.792755 
L 274.705941 -288.034584 
L 273.62014 -287.563376 
L 272.534339 -287.164936 
L 271.448538 -286.378511 
L 270.362736 -285.327977 
L 269.276935 -284.130338 
L 268.191134 -282.918615 
L 267.105333 -281.361496 
L 266.019532 -279.647801 
L 264.933731 -277.799618 
L 263.847929 -275.813354 
L 262.762128 -273.60186 
L 261.676327 -271.232922 
L 260.590526 -269.065039 
L 259.504725 -266.551793 
L 258.418924 -264.34342 
L 257.333123 -261.856684 
L 256.247321 -259.294218 
L 255.16152 -256.415319 
L 254.075719 -253.625421 
L 252.989918 -250.890099 
L 251.904117 -248.09165 
L 250.818316 -245.344746 
L 249.732514 -242.270522 
L 248.646713 -239.11014 
L 247.560912 -236.14064 
L 246.475111 -232.986647 
L 245.38931 -229.899132 
L 244.303509 -226.397929 
L 243.217708 -223.248821 
L 242.131906 -219.802149 
L 241.046105 -216.389915 
L 239.960304 -212.931801 
L 238.874503 -209.482838 
L 237.788702 -206.025226 
L 236.702901 -202.54194 
L 235.617099 -198.998073 
L 234.531298 -195.51668 
L 233.445497 -191.954568 
L 232.359696 -188.017149 
L 231.273895 -184.38825 
L 230.188094 -180.542389 
L 229.102292 -176.828752 
L 228.016491 -173.332578 
L 226.93069 -169.760894 
L 225.844889 -166.314813 
L 224.759088 -162.629188 
L 223.673287 -159.32861 
L 222.587486 -156.146256 
L 221.501684 -153.22675 
L 220.415883 -150.6784 
L 219.330082 -148.099134 
L 218.244281 -145.383877 
L 217.15848 -142.835258 
L 216.072679 -140.244217 
L 214.986877 -137.708224 
L 213.901076 -135.396505 
L 212.815275 -133.055325 
L 211.729474 -130.810117 
L 210.643673 -128.734129 
L 209.557872 -126.669202 
L 208.472071 -124.679634 
L 207.386269 -122.882358 
L 206.300468 -121.413402 
L 205.214667 -119.89656 
L 204.128866 -118.55754 
L 203.043065 -117.251113 
L 201.957264 -115.910417 
L 200.871462 -114.604925 
L 199.785661 -113.52065 
L 198.69986 -112.615783 
L 197.614059 -111.877846 
L 196.528258 -110.964874 
L 195.442457 -109.982744 
L 194.356656 -108.959796 
L 193.270854 -108.12898 
L 192.185053 -107.337101 
L 191.099252 -106.606978 
L 190.013451 -105.883917 
L 188.92765 -105.167891 
L 187.841849 -104.526994 
L 186.756047 -103.93441 
L 185.670246 -103.32758 
L 184.584445 -102.766714 
L 183.498644 -102.193566 
L 182.412843 -101.560255 
L 181.327042 -100.335617 
L 180.24124 -99.614066 
L 179.155439 -98.952048 
L 178.069638 -98.517047 
L 176.983837 -97.993379 
L 175.898036 -97.584983 
L 174.812235 -97.187474 
L 173.726434 -96.69425 
L 172.640632 -96.199155 
L 171.554831 -95.764093 
L 170.46903 -95.166036 
L 169.383229 -94.648694 
L 168.297428 -93.963555 
L 167.211627 -93.461232 
L 166.125825 -93.135351 
L 165.040024 -92.435133 
L 163.954223 -91.877856 
L 162.868422 -91.240117 
L 161.782621 -90.876651 
L 160.69682 -90.419823 
L 159.611019 -89.825735 
L 158.525217 -89.300427 
L 157.439416 -88.62026 
L 156.353615 -88.177597 
L 155.267814 -87.741084 
L 154.182013 -87.347138 
L 153.096212 -86.934674 
L 152.01041 -86.445024 
L 150.924609 -86.186394 
L 149.838808 -85.67116 
L 148.753007 -85.162319 
L 147.667206 -84.988183 
L 146.581405 -84.549546 
L 145.495604 -84.05639 
L 144.409802 -83.537855 
L 143.324001 -82.960866 
L 142.2382 -82.919262 
L 141.152399 -82.564556 
L 140.066598 -82.164859 
L 138.980797 -81.843853 
L 137.894995 -81.753347 
L 136.809194 -81.459777 
L 135.723393 -81.378008 
L 134.637592 -81.122116 
L 133.551791 -80.911674 
L 132.46599 -80.749112 
L 131.380189 -80.546182 
L 130.294387 -80.225813 
L 129.208586 -79.714089 
L 128.122785 -79.308641 
L 127.036984 -78.746632 
L 125.951183 -78.069204 
L 124.865382 -77.431679 
L 123.77958 -76.861735 
L 122.693779 -76.243709 
L 121.607978 -75.541952 
L 120.522177 -74.930939 
L 119.436376 -74.375016 
L 118.350575 -73.840238 
L 117.264773 -73.342785 
L 116.178972 -72.995744 
L 115.093171 -72.831235 
L 114.00737 -72.552405 
L 112.921569 -72.23132 
L 111.835768 -71.904431 
L 110.749967 -71.55028 
L 109.664165 -71.073222 
L 108.578364 -70.595232 
L 107.492563 -69.996529 
L 106.406762 -69.482414 
L 105.320961 -69.00866 
L 104.23516 -68.502056 
L 103.149358 -68.209864 
L 102.063557 -67.829561 
L 100.977756 -67.42518 
L 99.891955 -67.098119 
L 98.806154 -66.746593 
L 97.720353 -66.159564 
L 96.634552 -65.455101 
L 95.54875 -65.099253 
L 94.462949 -64.734182 
L 93.377148 -64.175991 
L 92.291347 -63.546531 
L 91.205546 -62.873386 
L 90.119745 -62.254679 
L 89.033943 -61.739549 
L 87.948142 -61.390117 
L 86.862341 -60.962449 
L 85.77654 -60.755261 
L 84.690739 -60.516617 
L 83.604938 -60.138303 
L 82.519137 -59.929124 
L 81.433335 -59.79728 
L 80.347534 -59.459035 
L 79.261733 -59.28626 
L 78.175932 -58.870365 
L 77.090131 -58.537808 
L 76.00433 -58.351815 
L 74.918528 -58.126059 
L 73.832727 -57.791924 
z
" style="stroke: #ff00ff; stroke-opacity: 0.1"/>
    </defs>
    <g clip-path="url(#pea0d72b13e)">
     <use xlink:href="#m4f52ae5e06" x="0" y="345.6" style="fill: #ff00ff; fill-opacity: 0.1; stroke: #ff00ff; stroke-opacity: 0.1"/>
    </g>
   </g>
   <g id="matplotlib.axis_1">
    <g id="xtick_1">
     <g id="line2d_1">
      <defs>
       <path id="m52960163d5" d="M 0 0 
L 0 3.5 
" style="stroke: #000000; stroke-width: 0.8"/>
      </defs>
      <g>
       <use xlink:href="#m52960163d5" x="73.832727" y="307.584" style="stroke: #000000; stroke-width: 0.8"/>
      </g>
     </g>
     <g id="text_1">
      <!-- −5 -->
      <g transform="translate(66.461634 322.182437) scale(0.1 -0.1)">
       <defs>
        <path id="DejaVuSans-2212" d="M 678 2272 
L 4684 2272 
L 4684 1741 
L 678 1741 
L 678 2272 
z
" transform="scale(0.015625)"/>
        <path id="DejaVuSans-35" d="M 691 4666 
L 3169 4666 
L 3169 4134 
L 1269 4134 
L 1269 2991 
Q 1406 3038 1543 3061 
Q 1681 3084 1819 3084 
Q 2600 3084 3056 2656 
Q 3513 2228 3513 1497 
Q 3513 744 3044 326 
Q 2575 -91 1722 -91 
Q 1428 -91 1123 -41 
Q 819 9 494 109 
L 494 744 
Q 775 591 1075 516 
Q 1375 441 1709 441 
Q 2250 441 2565 725 
Q 2881 1009 2881 1497 
Q 2881 1984 2565 2268 
Q 2250 2553 1709 2553 
Q 1456 2553 1204 2497 
Q 953 2441 691 2322 
L 691 4666 
z
" transform="scale(0.015625)"/>
       </defs>
       <use xlink:href="#DejaVuSans-2212"/>
       <use xlink:href="#DejaVuSans-35" x="83.789062"/>
      </g>
     </g>
    </g>
    <g id="xtick_2">
     <g id="line2d_2">
      <g>
       <use xlink:href="#m52960163d5" x="95.54875" y="307.584" style="stroke: #000000; stroke-width: 0.8"/>
      </g>
     </g>
     <g id="text_2">
      <!-- −4 -->
      <g transform="translate(88.177657 322.182437) scale(0.1 -0.1)">
       <defs>
        <path id="DejaVuSans-34" d="M 2419 4116 
L 825 1625 
L 2419 1625 
L 2419 4116 
z
M 2253 4666 
L 3047 4666 
L 3047 1625 
L 3713 1625 
L 3713 1100 
L 3047 1100 
L 3047 0 
L 2419 0 
L 2419 1100 
L 313 1100 
L 313 1709 
L 2253 4666 
z
" transform="scale(0.015625)"/>
       </defs>
       <use xlink:href="#DejaVuSans-2212"/>
       <use xlink:href="#DejaVuSans-34" x="83.789062"/>
      </g>
     </g>
    </g>
    <g id="xtick_3">
     <g id="line2d_3">
      <g>
       <use xlink:href="#m52960163d5" x="117.264773" y="307.584" style="stroke: #000000; stroke-width: 0.8"/>
      </g>
     </g>
     <g id="text_3">
      <!-- −3 -->
      <g transform="translate(109.89368 322.182437) scale(0.1 -0.1)">
       <defs>
        <path id="DejaVuSans-33" d="M 2597 2516 
Q 3050 2419 3304 2112 
Q 3559 1806 3559 1356 
Q 3559 666 3084 287 
Q 2609 -91 1734 -91 
Q 1441 -91 1130 -33 
Q 819 25 488 141 
L 488 750 
Q 750 597 1062 519 
Q 1375 441 1716 441 
Q 2309 441 2620 675 
Q 2931 909 2931 1356 
Q 2931 1769 2642 2001 
Q 2353 2234 1838 2234 
L 1294 2234 
L 1294 2753 
L 1863 2753 
Q 2328 2753 2575 2939 
Q 2822 3125 2822 3475 
Q 2822 3834 2567 4026 
Q 2313 4219 1838 4219 
Q 1578 4219 1281 4162 
Q 984 4106 628 3988 
L 628 4550 
Q 988 4650 1302 4700 
Q 1616 4750 1894 4750 
Q 2613 4750 3031 4423 
Q 3450 4097 3450 3541 
Q 3450 3153 3228 2886 
Q 3006 2619 2597 2516 
z
" transform="scale(0.015625)"/>
       </defs>
       <use xlink:href="#DejaVuSans-2212"/>
       <use xlink:href="#DejaVuSans-33" x="83.789062"/>
      </g>
     </g>
    </g>
    <g id="xtick_4">
     <g id="line2d_4">
      <g>
       <use xlink:href="#m52960163d5" x="138.980797" y="307.584" style="stroke: #000000; stroke-width: 0.8"/>
      </g>
     </g>
     <g id="text_4">
      <!-- −2 -->
      <g transform="translate(131.609703 322.182437) scale(0.1 -0.1)">
       <defs>
        <path id="DejaVuSans-32" d="M 1228 531 
L 3431 531 
L 3431 0 
L 469 0 
L 469 531 
Q 828 903 1448 1529 
Q 2069 2156 2228 2338 
Q 2531 2678 2651 2914 
Q 2772 3150 2772 3378 
Q 2772 3750 2511 3984 
Q 2250 4219 1831 4219 
Q 1534 4219 1204 4116 
Q 875 4013 500 3803 
L 500 4441 
Q 881 4594 1212 4672 
Q 1544 4750 1819 4750 
Q 2544 4750 2975 4387 
Q 3406 4025 3406 3419 
Q 3406 3131 3298 2873 
Q 3191 2616 2906 2266 
Q 2828 2175 2409 1742 
Q 1991 1309 1228 531 
z
" transform="scale(0.015625)"/>
       </defs>
       <use xlink:href="#DejaVuSans-2212"/>
       <use xlink:href="#DejaVuSans-32" x="83.789062"/>
      </g>
     </g>
    </g>
    <g id="xtick_5">
     <g id="line2d_5">
      <g>
       <use xlink:href="#m52960163d5" x="160.69682" y="307.584" style="stroke: #000000; stroke-width: 0.8"/>
      </g>
     </g>
     <g id="text_5">
      <!-- −1 -->
      <g transform="translate(153.325726 322.182437) scale(0.1 -0.1)">
       <defs>
        <path id="DejaVuSans-31" d="M 794 531 
L 1825 531 
L 1825 4091 
L 703 3866 
L 703 4441 
L 1819 4666 
L 2450 4666 
L 2450 531 
L 3481 531 
L 3481 0 
L 794 0 
L 794 531 
z
" transform="scale(0.015625)"/>
       </defs>
       <use xlink:href="#DejaVuSans-2212"/>
       <use xlink:href="#DejaVuSans-31" x="83.789062"/>
      </g>
     </g>
    </g>
    <g id="xtick_6">
     <g id="line2d_6">
      <g>
       <use xlink:href="#m52960163d5" x="182.412843" y="307.584" style="stroke: #000000; stroke-width: 0.8"/>
      </g>
     </g>
     <g id="text_6">
      <!-- 0 -->
      <g transform="translate(179.231593 322.182437) scale(0.1 -0.1)">
       <defs>
        <path id="DejaVuSans-30" d="M 2034 4250 
Q 1547 4250 1301 3770 
Q 1056 3291 1056 2328 
Q 1056 1369 1301 889 
Q 1547 409 2034 409 
Q 2525 409 2770 889 
Q 3016 1369 3016 2328 
Q 3016 3291 2770 3770 
Q 2525 4250 2034 4250 
z
M 2034 4750 
Q 2819 4750 3233 4129 
Q 3647 3509 3647 2328 
Q 3647 1150 3233 529 
Q 2819 -91 2034 -91 
Q 1250 -91 836 529 
Q 422 1150 422 2328 
Q 422 3509 836 4129 
Q 1250 4750 2034 4750 
z
" transform="scale(0.015625)"/>
       </defs>
       <use xlink:href="#DejaVuSans-30"/>
      </g>
     </g>
    </g>
    <g id="xtick_7">
     <g id="line2d_7">
      <g>
       <use xlink:href="#m52960163d5" x="204.128866" y="307.584" style="stroke: #000000; stroke-width: 0.8"/>
      </g>
     </g>
     <g id="text_7">
      <!-- 1 -->
      <g transform="translate(200.947616 322.182437) scale(0.1 -0.1)">
       <use xlink:href="#DejaVuSans-31"/>
      </g>
     </g>
    </g>
    <g id="xtick_8">
     <g id="line2d_8">
      <g>
       <use xlink:href="#m52960163d5" x="225.844889" y="307.584" style="stroke: #000000; stroke-width: 0.8"/>
      </g>
     </g>
     <g id="text_8">
      <!-- 2 -->
      <g transform="translate(222.663639 322.182437) scale(0.1 -0.1)">
       <use xlink:href="#DejaVuSans-32"/>
      </g>
     </g>
    </g>
    <g id="xtick_9">
     <g id="line2d_9">
      <g>
       <use xlink:href="#m52960163d5" x="247.560912" y="307.584" style="stroke: #000000; stroke-width: 0.8"/>
      </g>
     </g>
     <g id="text_9">
      <!-- 3 -->
      <g transform="translate(244.379662 322.182437) scale(0.1 -0.1)">
       <use xlink:href="#DejaVuSans-33"/>
      </g>
     </g>
    </g>
    <g id="xtick_10">
     <g id="line2d_10">
      <g>
       <use xlink:href="#m52960163d5" x="269.276935" y="307.584" style="stroke: #000000; stroke-width: 0.8"/>
      </g>
     </g>
     <g id="text_10">
      <!-- 4 -->
      <g transform="translate(266.095685 322.182437) scale(0.1 -0.1)">
       <use xlink:href="#DejaVuSans-34"/>
      </g>
     </g>
    </g>
    <g id="xtick_11">
     <g id="line2d_11">
      <g>
       <use xlink:href="#m52960163d5" x="290.992958" y="307.584" style="stroke: #000000; stroke-width: 0.8"/>
      </g>
     </g>
     <g id="text_11">
      <!-- 5 -->
      <g transform="translate(287.811708 322.182437) scale(0.1 -0.1)">
       <use xlink:href="#DejaVuSans-35"/>
      </g>
     </g>
    </g>
    <g id="xtick_12">
     <g id="line2d_12">
      <g>
       <use xlink:href="#m52960163d5" x="312.708981" y="307.584" style="stroke: #000000; stroke-width: 0.8"/>
      </g>
     </g>
     <g id="text_12">
      <!-- 6 -->
      <g transform="translate(309.527731 322.182437) scale(0.1 -0.1)">
       <defs>
        <path id="DejaVuSans-36" d="M 2113 2584 
Q 1688 2584 1439 2293 
Q 1191 2003 1191 1497 
Q 1191 994 1439 701 
Q 1688 409 2113 409 
Q 2538 409 2786 701 
Q 3034 994 3034 1497 
Q 3034 2003 2786 2293 
Q 2538 2584 2113 2584 
z
M 3366 4563 
L 3366 3988 
Q 3128 4100 2886 4159 
Q 2644 4219 2406 4219 
Q 1781 4219 1451 3797 
Q 1122 3375 1075 2522 
Q 1259 2794 1537 2939 
Q 1816 3084 2150 3084 
Q 2853 3084 3261 2657 
Q 3669 2231 3669 1497 
Q 3669 778 3244 343 
Q 2819 -91 2113 -91 
Q 1303 -91 875 529 
Q 447 1150 447 2328 
Q 447 3434 972 4092 
Q 1497 4750 2381 4750 
Q 2619 4750 2861 4703 
Q 3103 4656 3366 4563 
z
" transform="scale(0.015625)"/>
       </defs>
       <use xlink:href="#DejaVuSans-36"/>
      </g>
     </g>
    </g>
    <g id="xtick_13">
     <g id="line2d_13">
      <g>
       <use xlink:href="#m52960163d5" x="334.425005" y="307.584" style="stroke: #000000; stroke-width: 0.8"/>
      </g>
     </g>
     <g id="text_13">
      <!-- 7 -->
      <g transform="translate(331.243755 322.182437) scale(0.1 -0.1)">
       <defs>
        <path id="DejaVuSans-37" d="M 525 4666 
L 3525 4666 
L 3525 4397 
L 1831 0 
L 1172 0 
L 2766 4134 
L 525 4134 
L 525 4666 
z
" transform="scale(0.015625)"/>
       </defs>
       <use xlink:href="#DejaVuSans-37"/>
      </g>
     </g>
    </g>
    <g id="xtick_14">
     <g id="line2d_14">
      <g>
       <use xlink:href="#m52960163d5" x="356.141028" y="307.584" style="stroke: #000000; stroke-width: 0.8"/>
      </g>
     </g>
     <g id="text_14">
      <!-- 8 -->
      <g transform="translate(352.959778 322.182437) scale(0.1 -0.1)">
       <defs>
        <path id="DejaVuSans-38" d="M 2034 2216 
Q 1584 2216 1326 1975 
Q 1069 1734 1069 1313 
Q 1069 891 1326 650 
Q 1584 409 2034 409 
Q 2484 409 2743 651 
Q 3003 894 3003 1313 
Q 3003 1734 2745 1975 
Q 2488 2216 2034 2216 
z
M 1403 2484 
Q 997 2584 770 2862 
Q 544 3141 544 3541 
Q 544 4100 942 4425 
Q 1341 4750 2034 4750 
Q 2731 4750 3128 4425 
Q 3525 4100 3525 3541 
Q 3525 3141 3298 2862 
Q 3072 2584 2669 2484 
Q 3125 2378 3379 2068 
Q 3634 1759 3634 1313 
Q 3634 634 3220 271 
Q 2806 -91 2034 -91 
Q 1263 -91 848 271 
Q 434 634 434 1313 
Q 434 1759 690 2068 
Q 947 2378 1403 2484 
z
M 1172 3481 
Q 1172 3119 1398 2916 
Q 1625 2713 2034 2713 
Q 2441 2713 2670 2916 
Q 2900 3119 2900 3481 
Q 2900 3844 2670 4047 
Q 2441 4250 2034 4250 
Q 1625 4250 1398 4047 
Q 1172 3844 1172 3481 
z
" transform="scale(0.015625)"/>
       </defs>
       <use xlink:href="#DejaVuSans-38"/>
      </g>
     </g>
    </g>
    <g id="xtick_15">
     <g id="line2d_15">
      <g>
       <use xlink:href="#m52960163d5" x="377.857051" y="307.584" style="stroke: #000000; stroke-width: 0.8"/>
      </g>
     </g>
     <g id="text_15">
      <!-- 9 -->
      <g transform="translate(374.675801 322.182437) scale(0.1 -0.1)">
       <defs>
        <path id="DejaVuSans-39" d="M 703 97 
L 703 672 
Q 941 559 1184 500 
Q 1428 441 1663 441 
Q 2288 441 2617 861 
Q 2947 1281 2994 2138 
Q 2813 1869 2534 1725 
Q 2256 1581 1919 1581 
Q 1219 1581 811 2004 
Q 403 2428 403 3163 
Q 403 3881 828 4315 
Q 1253 4750 1959 4750 
Q 2769 4750 3195 4129 
Q 3622 3509 3622 2328 
Q 3622 1225 3098 567 
Q 2575 -91 1691 -91 
Q 1453 -91 1209 -44 
Q 966 3 703 97 
z
M 1959 2075 
Q 2384 2075 2632 2365 
Q 2881 2656 2881 3163 
Q 2881 3666 2632 3958 
Q 2384 4250 1959 4250 
Q 1534 4250 1286 3958 
Q 1038 3666 1038 3163 
Q 1038 2656 1286 2365 
Q 1534 2075 1959 2075 
z
" transform="scale(0.015625)"/>
       </defs>
       <use xlink:href="#DejaVuSans-39"/>
      </g>
     </g>
    </g>
    <g id="xtick_16">
     <g id="line2d_16">
      <g>
       <use xlink:href="#m52960163d5" x="399.573074" y="307.584" style="stroke: #000000; stroke-width: 0.8"/>
      </g>
     </g>
     <g id="text_16">
      <!-- 10 -->
      <g transform="translate(393.210574 322.182437) scale(0.1 -0.1)">
       <use xlink:href="#DejaVuSans-31"/>
       <use xlink:href="#DejaVuSans-30" x="63.623047"/>
      </g>
     </g>
    </g>
    <g id="text_17">
     <!-- Time (s) -->
     <g transform="translate(215.831094 335.860562) scale(0.1 -0.1)">
      <defs>
       <path id="DejaVuSans-54" d="M -19 4666 
L 3928 4666 
L 3928 4134 
L 2272 4134 
L 2272 0 
L 1638 0 
L 1638 4134 
L -19 4134 
L -19 4666 
z
" transform="scale(0.015625)"/>
       <path id="DejaVuSans-69" d="M 603 3500 
L 1178 3500 
L 1178 0 
L 603 0 
L 603 3500 
z
M 603 4863 
L 1178 4863 
L 1178 4134 
L 603 4134 
L 603 4863 
z
" transform="scale(0.015625)"/>
       <path id="DejaVuSans-6d" d="M 3328 2828 
Q 3544 3216 3844 3400 
Q 4144 3584 4550 3584 
Q 5097 3584 5394 3201 
Q 5691 2819 5691 2113 
L 5691 0 
L 5113 0 
L 5113 2094 
Q 5113 2597 4934 2840 
Q 4756 3084 4391 3084 
Q 3944 3084 3684 2787 
Q 3425 2491 3425 1978 
L 3425 0 
L 2847 0 
L 2847 2094 
Q 2847 2600 2669 2842 
Q 2491 3084 2119 3084 
Q 1678 3084 1418 2786 
Q 1159 2488 1159 1978 
L 1159 0 
L 581 0 
L 581 3500 
L 1159 3500 
L 1159 2956 
Q 1356 3278 1631 3431 
Q 1906 3584 2284 3584 
Q 2666 3584 2933 3390 
Q 3200 3197 3328 2828 
z
" transform="scale(0.015625)"/>
       <path id="DejaVuSans-65" d="M 3597 1894 
L 3597 1613 
L 953 1613 
Q 991 1019 1311 708 
Q 1631 397 2203 397 
Q 2534 397 2845 478 
Q 3156 559 3463 722 
L 3463 178 
Q 3153 47 2828 -22 
Q 2503 -91 2169 -91 
Q 1331 -91 842 396 
Q 353 884 353 1716 
Q 353 2575 817 3079 
Q 1281 3584 2069 3584 
Q 2775 3584 3186 3129 
Q 3597 2675 3597 1894 
z
M 3022 2063 
Q 3016 2534 2758 2815 
Q 2500 3097 2075 3097 
Q 1594 3097 1305 2825 
Q 1016 2553 972 2059 
L 3022 2063 
z
" transform="scale(0.015625)"/>
       <path id="DejaVuSans-20" transform="scale(0.015625)"/>
       <path id="DejaVuSans-28" d="M 1984 4856 
Q 1566 4138 1362 3434 
Q 1159 2731 1159 2009 
Q 1159 1288 1364 580 
Q 1569 -128 1984 -844 
L 1484 -844 
Q 1016 -109 783 600 
Q 550 1309 550 2009 
Q 550 2706 781 3412 
Q 1013 4119 1484 4856 
L 1984 4856 
z
" transform="scale(0.015625)"/>
       <path id="DejaVuSans-73" d="M 2834 3397 
L 2834 2853 
Q 2591 2978 2328 3040 
Q 2066 3103 1784 3103 
Q 1356 3103 1142 2972 
Q 928 2841 928 2578 
Q 928 2378 1081 2264 
Q 1234 2150 1697 2047 
L 1894 2003 
Q 2506 1872 2764 1633 
Q 3022 1394 3022 966 
Q 3022 478 2636 193 
Q 2250 -91 1575 -91 
Q 1294 -91 989 -36 
Q 684 19 347 128 
L 347 722 
Q 666 556 975 473 
Q 1284 391 1588 391 
Q 1994 391 2212 530 
Q 2431 669 2431 922 
Q 2431 1156 2273 1281 
Q 2116 1406 1581 1522 
L 1381 1569 
Q 847 1681 609 1914 
Q 372 2147 372 2553 
Q 372 3047 722 3315 
Q 1072 3584 1716 3584 
Q 2034 3584 2315 3537 
Q 2597 3491 2834 3397 
z
" transform="scale(0.015625)"/>
       <path id="DejaVuSans-29" d="M 513 4856 
L 1013 4856 
Q 1481 4119 1714 3412 
Q 1947 2706 1947 2009 
Q 1947 1309 1714 600 
Q 1481 -109 1013 -844 
L 513 -844 
Q 928 -128 1133 580 
Q 1338 1288 1338 2009 
Q 1338 2731 1133 3434 
Q 928 4138 513 4856 
z
" transform="scale(0.015625)"/>
      </defs>
      <use xlink:href="#DejaVuSans-54"/>
      <use xlink:href="#DejaVuSans-69" x="57.958984"/>
      <use xlink:href="#DejaVuSans-6d" x="85.742188"/>
      <use xlink:href="#DejaVuSans-65" x="183.154297"/>
      <use xlink:href="#DejaVuSans-20" x="244.677734"/>
      <use xlink:href="#DejaVuSans-28" x="276.464844"/>
      <use xlink:href="#DejaVuSans-73" x="315.478516"/>
      <use xlink:href="#DejaVuSans-29" x="367.578125"/>
     </g>
    </g>
   </g>
   <g id="matplotlib.axis_2">
    <g id="ytick_1">
     <g id="line2d_17">
      <defs>
       <path id="m3283018e2e" d="M 0 0 
L -3.5 0 
" style="stroke: #000000; stroke-width: 0.8"/>
      </defs>
      <g>
       <use xlink:href="#m3283018e2e" x="57.6" y="304.160157" style="stroke: #000000; stroke-width: 0.8"/>
      </g>
     </g>
     <g id="text_18">
      <!-- −2 -->
      <g transform="translate(35.857813 307.959375) scale(0.1 -0.1)">
       <use xlink:href="#DejaVuSans-2212"/>
       <use xlink:href="#DejaVuSans-32" x="83.789062"/>
      </g>
     </g>
    </g>
    <g id="ytick_2">
     <g id="line2d_18">
      <g>
       <use xlink:href="#m3283018e2e" x="57.6" y="271.246917" style="stroke: #000000; stroke-width: 0.8"/>
      </g>
     </g>
     <g id="text_19">
      <!-- 0 -->
      <g transform="translate(44.2375 275.046136) scale(0.1 -0.1)">
       <use xlink:href="#DejaVuSans-30"/>
      </g>
     </g>
    </g>
    <g id="ytick_3">
     <g id="line2d_19">
      <g>
       <use xlink:href="#m3283018e2e" x="57.6" y="238.333678" style="stroke: #000000; stroke-width: 0.8"/>
      </g>
     </g>
     <g id="text_20">
      <!-- 2 -->
      <g transform="translate(44.2375 242.132897) scale(0.1 -0.1)">
       <use xlink:href="#DejaVuSans-32"/>
      </g>
     </g>
    </g>
    <g id="ytick_4">
     <g id="line2d_20">
      <g>
       <use xlink:href="#m3283018e2e" x="57.6" y="205.420439" style="stroke: #000000; stroke-width: 0.8"/>
      </g>
     </g>
     <g id="text_21">
      <!-- 4 -->
      <g transform="translate(44.2375 209.219657) scale(0.1 -0.1)">
       <use xlink:href="#DejaVuSans-34"/>
      </g>
     </g>
    </g>
    <g id="ytick_5">
     <g id="line2d_21">
      <g>
       <use xlink:href="#m3283018e2e" x="57.6" y="172.507199" style="stroke: #000000; stroke-width: 0.8"/>
      </g>
     </g>
     <g id="text_22">
      <!-- 6 -->
      <g transform="translate(44.2375 176.306418) scale(0.1 -0.1)">
       <use xlink:href="#DejaVuSans-36"/>
      </g>
     </g>
    </g>
    <g id="ytick_6">
     <g id="line2d_22">
      <g>
       <use xlink:href="#m3283018e2e" x="57.6" y="139.59396" style="stroke: #000000; stroke-width: 0.8"/>
      </g>
     </g>
     <g id="text_23">
      <!-- 8 -->
      <g transform="translate(44.2375 143.393179) scale(0.1 -0.1)">
       <use xlink:href="#DejaVuSans-38"/>
      </g>
     </g>
    </g>
    <g id="ytick_7">
     <g id="line2d_23">
      <g>
       <use xlink:href="#m3283018e2e" x="57.6" y="106.680721" style="stroke: #000000; stroke-width: 0.8"/>
      </g>
     </g>
     <g id="text_24">
      <!-- 10 -->
      <g transform="translate(37.875 110.479939) scale(0.1 -0.1)">
       <use xlink:href="#DejaVuSans-31"/>
       <use xlink:href="#DejaVuSans-30" x="63.623047"/>
      </g>
     </g>
    </g>
    <g id="ytick_8">
     <g id="line2d_24">
      <g>
       <use xlink:href="#m3283018e2e" x="57.6" y="73.767481" style="stroke: #000000; stroke-width: 0.8"/>
      </g>
     </g>
     <g id="text_25">
      <!-- 12 -->
      <g transform="translate(37.875 77.5667) scale(0.1 -0.1)">
       <use xlink:href="#DejaVuSans-31"/>
       <use xlink:href="#DejaVuSans-32" x="63.623047"/>
      </g>
     </g>
    </g>
    <g id="text_26">
     <!-- Z-Score -->
     <g transform="translate(29.778125 193.67175) rotate(-90) scale(0.1 -0.1)">
      <defs>
       <path id="DejaVuSans-5a" d="M 359 4666 
L 4025 4666 
L 4025 4184 
L 1075 531 
L 4097 531 
L 4097 0 
L 288 0 
L 288 481 
L 3238 4134 
L 359 4134 
L 359 4666 
z
" transform="scale(0.015625)"/>
       <path id="DejaVuSans-2d" d="M 313 2009 
L 1997 2009 
L 1997 1497 
L 313 1497 
L 313 2009 
z
" transform="scale(0.015625)"/>
       <path id="DejaVuSans-53" d="M 3425 4513 
L 3425 3897 
Q 3066 4069 2747 4153 
Q 2428 4238 2131 4238 
Q 1616 4238 1336 4038 
Q 1056 3838 1056 3469 
Q 1056 3159 1242 3001 
Q 1428 2844 1947 2747 
L 2328 2669 
Q 3034 2534 3370 2195 
Q 3706 1856 3706 1288 
Q 3706 609 3251 259 
Q 2797 -91 1919 -91 
Q 1588 -91 1214 -16 
Q 841 59 441 206 
L 441 856 
Q 825 641 1194 531 
Q 1563 422 1919 422 
Q 2459 422 2753 634 
Q 3047 847 3047 1241 
Q 3047 1584 2836 1778 
Q 2625 1972 2144 2069 
L 1759 2144 
Q 1053 2284 737 2584 
Q 422 2884 422 3419 
Q 422 4038 858 4394 
Q 1294 4750 2059 4750 
Q 2388 4750 2728 4690 
Q 3069 4631 3425 4513 
z
" transform="scale(0.015625)"/>
       <path id="DejaVuSans-63" d="M 3122 3366 
L 3122 2828 
Q 2878 2963 2633 3030 
Q 2388 3097 2138 3097 
Q 1578 3097 1268 2742 
Q 959 2388 959 1747 
Q 959 1106 1268 751 
Q 1578 397 2138 397 
Q 2388 397 2633 464 
Q 2878 531 3122 666 
L 3122 134 
Q 2881 22 2623 -34 
Q 2366 -91 2075 -91 
Q 1284 -91 818 406 
Q 353 903 353 1747 
Q 353 2603 823 3093 
Q 1294 3584 2113 3584 
Q 2378 3584 2631 3529 
Q 2884 3475 3122 3366 
z
" transform="scale(0.015625)"/>
       <path id="DejaVuSans-6f" d="M 1959 3097 
Q 1497 3097 1228 2736 
Q 959 2375 959 1747 
Q 959 1119 1226 758 
Q 1494 397 1959 397 
Q 2419 397 2687 759 
Q 2956 1122 2956 1747 
Q 2956 2369 2687 2733 
Q 2419 3097 1959 3097 
z
M 1959 3584 
Q 2709 3584 3137 3096 
Q 3566 2609 3566 1747 
Q 3566 888 3137 398 
Q 2709 -91 1959 -91 
Q 1206 -91 779 398 
Q 353 888 353 1747 
Q 353 2609 779 3096 
Q 1206 3584 1959 3584 
z
" transform="scale(0.015625)"/>
       <path id="DejaVuSans-72" d="M 2631 2963 
Q 2534 3019 2420 3045 
Q 2306 3072 2169 3072 
Q 1681 3072 1420 2755 
Q 1159 2438 1159 1844 
L 1159 0 
L 581 0 
L 581 3500 
L 1159 3500 
L 1159 2956 
Q 1341 3275 1631 3429 
Q 1922 3584 2338 3584 
Q 2397 3584 2469 3576 
Q 2541 3569 2628 3553 
L 2631 2963 
z
" transform="scale(0.015625)"/>
      </defs>
      <use xlink:href="#DejaVuSans-5a"/>
      <use xlink:href="#DejaVuSans-2d" x="66.755859"/>
      <use xlink:href="#DejaVuSans-53" x="102.839844"/>
      <use xlink:href="#DejaVuSans-63" x="166.316406"/>
      <use xlink:href="#DejaVuSans-6f" x="221.296875"/>
      <use xlink:href="#DejaVuSans-72" x="282.478516"/>
      <use xlink:href="#DejaVuSans-65" x="321.341797"/>
     </g>
    </g>
   </g>
   <g id="line2d_25">
    <path d="M 73.832727 291.648038 
L 74.918528 291.282468 
L 78.175932 290.435586 
L 79.261733 289.927135 
L 83.604938 288.771126 
L 84.690739 288.259987 
L 86.862341 287.716841 
L 87.948142 287.162748 
L 89.033943 286.752594 
L 91.205546 285.548439 
L 94.462949 283.528993 
L 96.634552 282.80993 
L 97.720353 282.033625 
L 98.806154 281.46425 
L 102.063557 280.375612 
L 103.149358 279.933703 
L 104.23516 279.620634 
L 109.664165 277.262943 
L 111.835768 276.527422 
L 115.093171 275.652666 
L 116.178972 275.556856 
L 117.264773 275.254944 
L 120.522177 273.872543 
L 124.865382 271.642991 
L 128.122785 270.073418 
L 131.380189 269.022387 
L 133.551791 268.695863 
L 135.723393 268.252056 
L 136.809194 268.164766 
L 140.066598 267.300883 
L 142.2382 266.372116 
L 143.324001 266.182863 
L 145.495604 264.915884 
L 147.667206 263.763861 
L 148.753007 263.389176 
L 150.924609 262.122986 
L 152.01041 261.727877 
L 153.096212 261.157377 
L 157.439416 259.537567 
L 158.525217 258.946716 
L 161.782621 257.801905 
L 162.868422 257.612195 
L 166.125825 256.314862 
L 167.211627 256.14496 
L 170.46903 255.150442 
L 171.554831 254.756313 
L 179.155439 252.809411 
L 181.327042 251.744999 
L 182.412843 250.961046 
L 186.756047 249.142836 
L 193.270854 245.926199 
L 195.442457 244.397604 
L 197.614059 242.633274 
L 198.69986 241.924209 
L 199.785661 241.049772 
L 200.871462 240.010937 
L 205.214667 235.056493 
L 208.472071 230.567055 
L 211.729474 224.960592 
L 222.587486 203.898283 
L 224.759088 198.986508 
L 228.016491 190.613921 
L 230.188094 185.044939 
L 233.445497 176.568612 
L 242.131906 155.744176 
L 243.217708 153.181975 
L 244.303509 150.965473 
L 245.38931 148.410119 
L 251.904117 135.071387 
L 259.504725 120.863202 
L 260.590526 118.837016 
L 264.933731 111.983033 
L 267.105333 109.263568 
L 268.191134 108.070614 
L 271.448538 105.281561 
L 272.534339 104.671599 
L 274.705941 104.010865 
L 275.791742 103.462799 
L 276.877543 103.222094 
L 277.963344 103.150137 
L 286.649754 100.180911 
L 287.735555 100.138609 
L 288.821356 100.396024 
L 289.907157 100.817802 
L 290.992958 100.862578 
L 292.07876 101.273621 
L 294.250362 101.837925 
L 295.336163 102.221153 
L 297.507765 103.35915 
L 298.593566 103.693192 
L 300.765169 104.033464 
L 304.022572 104.373881 
L 305.108373 104.565656 
L 308.365777 104.281712 
L 309.451578 104.520863 
L 312.708981 104.152441 
L 314.880584 104.229645 
L 318.137987 104.133699 
L 323.566993 105.121783 
L 324.652794 105.669987 
L 325.738595 105.947925 
L 327.910198 106.096362 
L 328.995999 106.527598 
L 333.339203 107.472494 
L 336.596607 108.251344 
L 338.768209 108.657635 
L 339.85401 109.239005 
L 340.939811 109.623593 
L 343.111414 110.178477 
L 345.283016 111.212151 
L 346.368817 111.659257 
L 347.454618 112.357253 
L 349.626221 113.19542 
L 350.712022 113.510302 
L 351.797823 113.989169 
L 352.883624 114.280886 
L 356.141028 115.712578 
L 357.226829 115.969844 
L 359.398431 116.754898 
L 360.484232 116.942592 
L 362.655835 117.885448 
L 363.741636 118.277152 
L 366.999039 120.234548 
L 370.256443 121.903894 
L 372.428045 123.506056 
L 373.513846 124.011607 
L 374.599647 124.658057 
L 375.685448 125.434799 
L 376.77125 126.03346 
L 377.857051 126.40806 
L 378.942852 126.98583 
L 381.114454 128.367243 
L 382.200255 128.923502 
L 383.286057 129.198278 
L 384.371858 129.822175 
L 386.54346 130.634245 
L 387.629261 131.169377 
L 388.715062 131.420046 
L 391.972466 133.469987 
L 394.144068 134.918019 
L 395.229869 135.682557 
L 397.401472 136.953509 
L 398.487273 137.712697 
L 398.487273 137.712697 
" clip-path="url(#pea0d72b13e)" style="fill: none; stroke: #ff00ff; stroke-width: 1.5; stroke-linecap: square"/>
   </g>
   <g id="line2d_26">
    <path d="M 182.412843 307.584 
L 182.412843 41.472 
" clip-path="url(#pea0d72b13e)" style="fill: none; stroke: #000000; stroke-width: 1.5; stroke-linecap: square"/>
   </g>
   <g id="patch_3">
    <path d="M 57.6 307.584 
L 57.6 41.472 
" style="fill: none; stroke: #000000; stroke-width: 0.8; stroke-linejoin: miter; stroke-linecap: square"/>
   </g>
   <g id="patch_4">
    <path d="M 414.72 307.584 
L 414.72 41.472 
" style="fill: none; stroke: #000000; stroke-width: 0.8; stroke-linejoin: miter; stroke-linecap: square"/>
   </g>
   <g id="patch_5">
    <path d="M 57.6 307.584 
L 414.72 307.584 
" style="fill: none; stroke: #000000; stroke-width: 0.8; stroke-linejoin: miter; stroke-linecap: square"/>
   </g>
   <g id="patch_6">
    <path d="M 57.6 41.472 
L 414.72 41.472 
" style="fill: none; stroke: #000000; stroke-width: 0.8; stroke-linejoin: miter; stroke-linecap: square"/>
   </g>
   <g id="text_27">
    <!-- Event 18_p=0.009 -->
    <g transform="translate(180.415312 35.472) scale(0.12 -0.12)">
     <defs>
      <path id="DejaVuSans-45" d="M 628 4666 
L 3578 4666 
L 3578 4134 
L 1259 4134 
L 1259 2753 
L 3481 2753 
L 3481 2222 
L 1259 2222 
L 1259 531 
L 3634 531 
L 3634 0 
L 628 0 
L 628 4666 
z
" transform="scale(0.015625)"/>
      <path id="DejaVuSans-76" d="M 191 3500 
L 800 3500 
L 1894 563 
L 2988 3500 
L 3597 3500 
L 2284 0 
L 1503 0 
L 191 3500 
z
" transform="scale(0.015625)"/>
      <path id="DejaVuSans-6e" d="M 3513 2113 
L 3513 0 
L 2938 0 
L 2938 2094 
Q 2938 2591 2744 2837 
Q 2550 3084 2163 3084 
Q 1697 3084 1428 2787 
Q 1159 2491 1159 1978 
L 1159 0 
L 581 0 
L 581 3500 
L 1159 3500 
L 1159 2956 
Q 1366 3272 1645 3428 
Q 1925 3584 2291 3584 
Q 2894 3584 3203 3211 
Q 3513 2838 3513 2113 
z
" transform="scale(0.015625)"/>
      <path id="DejaVuSans-74" d="M 1172 4494 
L 1172 3500 
L 2356 3500 
L 2356 3053 
L 1172 3053 
L 1172 1153 
Q 1172 725 1289 603 
Q 1406 481 1766 481 
L 2356 481 
L 2356 0 
L 1766 0 
Q 1100 0 847 248 
Q 594 497 594 1153 
L 594 3053 
L 172 3053 
L 172 3500 
L 594 3500 
L 594 4494 
L 1172 4494 
z
" transform="scale(0.015625)"/>
      <path id="DejaVuSans-5f" d="M 3263 -1063 
L 3263 -1509 
L -63 -1509 
L -63 -1063 
L 3263 -1063 
z
" transform="scale(0.015625)"/>
      <path id="DejaVuSans-70" d="M 1159 525 
L 1159 -1331 
L 581 -1331 
L 581 3500 
L 1159 3500 
L 1159 2969 
Q 1341 3281 1617 3432 
Q 1894 3584 2278 3584 
Q 2916 3584 3314 3078 
Q 3713 2572 3713 1747 
Q 3713 922 3314 415 
Q 2916 -91 2278 -91 
Q 1894 -91 1617 61 
Q 1341 213 1159 525 
z
M 3116 1747 
Q 3116 2381 2855 2742 
Q 2594 3103 2138 3103 
Q 1681 3103 1420 2742 
Q 1159 2381 1159 1747 
Q 1159 1113 1420 752 
Q 1681 391 2138 391 
Q 2594 391 2855 752 
Q 3116 1113 3116 1747 
z
" transform="scale(0.015625)"/>
      <path id="DejaVuSans-3d" d="M 678 2906 
L 4684 2906 
L 4684 2381 
L 678 2381 
L 678 2906 
z
M 678 1631 
L 4684 1631 
L 4684 1100 
L 678 1100 
L 678 1631 
z
" transform="scale(0.015625)"/>
      <path id="DejaVuSans-2e" d="M 684 794 
L 1344 794 
L 1344 0 
L 684 0 
L 684 794 
z
" transform="scale(0.015625)"/>
     </defs>
     <use xlink:href="#DejaVuSans-45"/>
     <use xlink:href="#DejaVuSans-76" x="63.183594"/>
     <use xlink:href="#DejaVuSans-65" x="122.363281"/>
     <use xlink:href="#DejaVuSans-6e" x="183.886719"/>
     <use xlink:href="#DejaVuSans-74" x="247.265625"/>
     <use xlink:href="#DejaVuSans-20" x="286.474609"/>
     <use xlink:href="#DejaVuSans-31" x="318.261719"/>
     <use xlink:href="#DejaVuSans-38" x="381.884766"/>
     <use xlink:href="#DejaVuSans-5f" x="445.507812"/>
     <use xlink:href="#DejaVuSans-70" x="495.507812"/>
     <use xlink:href="#DejaVuSans-3d" x="558.984375"/>
     <use xlink:href="#DejaVuSans-30" x="642.773438"/>
     <use xlink:href="#DejaVuSans-2e" x="706.396484"/>
     <use xlink:href="#DejaVuSans-30" x="738.183594"/>
     <use xlink:href="#DejaVuSans-30" x="801.806641"/>
     <use xlink:href="#DejaVuSans-39" x="865.429688"/>
    </g>
   </g>
  </g>
 </g>
 <defs>
  <clipPath id="pea0d72b13e">
   <rect x="57.6" y="41.472" width="357.12" height="266.112"/>
  </clipPath>
 </defs>
</svg>
