<?xml version="1.0" encoding="utf-8" standalone="no"?>
<!DOCTYPE svg PUBLIC "-//W3C//DTD SVG 1.1//EN"
  "http://www.w3.org/Graphics/SVG/1.1/DTD/svg11.dtd">
<svg xmlns:xlink="http://www.w3.org/1999/xlink" width="460.8pt" height="345.6pt" viewBox="0 0 460.8 345.6" xmlns="http://www.w3.org/2000/svg" version="1.1">
 <metadata>
  <rdf:RDF xmlns:dc="http://purl.org/dc/elements/1.1/" xmlns:cc="http://creativecommons.org/ns#" xmlns:rdf="http://www.w3.org/1999/02/22-rdf-syntax-ns#">
   <cc:Work>
    <dc:type rdf:resource="http://purl.org/dc/dcmitype/StillImage"/>
    <dc:date>2024-11-14T18:55:14.051042</dc:date>
    <dc:format>image/svg+xml</dc:format>
    <dc:creator>
     <cc:Agent>
      <dc:title>Matplotlib v3.8.2, https://matplotlib.org/</dc:title>
     </cc:Agent>
    </dc:creator>
   </cc:Work>
  </rdf:RDF>
 </metadata>
 <defs>
  <style type="text/css">*{stroke-linejoin: round; stroke-linecap: butt}</style>
 </defs>
 <g id="figure_1">
  <g id="patch_1">
   <path d="M 0 345.6 
L 460.8 345.6 
L 460.8 0 
L 0 0 
z
" style="fill: #ffffff"/>
  </g>
  <g id="axes_1">
   <g id="patch_2">
    <path d="M 57.6 307.584 
L 414.72 307.584 
L 414.72 41.472 
L 57.6 41.472 
z
" style="fill: #ffffff"/>
   </g>
   <g id="PolyCollection_1">
    <defs>
     <path id="m4c270d86e9" d="M 73.832727 -138.383084 
L 73.832727 -104.156939 
L 74.918528 -104.202151 
L 76.00433 -103.812923 
L 77.090131 -103.999187 
L 78.175932 -104.339223 
L 79.261733 -104.791158 
L 80.347534 -104.839376 
L 81.433335 -105.306182 
L 82.519137 -105.949211 
L 83.604938 -106.494157 
L 84.690739 -107.284963 
L 85.77654 -107.35612 
L 86.862341 -107.647845 
L 87.948142 -108.072355 
L 89.033943 -108.16116 
L 90.119745 -109.08019 
L 91.205546 -109.296855 
L 92.291347 -109.870526 
L 93.377148 -110.363914 
L 94.462949 -110.428465 
L 95.54875 -111.007206 
L 96.634552 -111.06737 
L 97.720353 -110.983679 
L 98.806154 -111.579722 
L 99.891955 -113.058401 
L 100.977756 -113.578228 
L 102.063557 -114.820262 
L 103.149358 -115.373715 
L 104.23516 -116.273306 
L 105.320961 -118.015437 
L 106.406762 -119.138384 
L 107.492563 -120.188886 
L 108.578364 -121.199056 
L 109.664165 -122.847137 
L 110.749967 -123.938643 
L 111.835768 -124.815953 
L 112.921569 -126.469506 
L 114.00737 -127.270692 
L 115.093171 -128.165734 
L 116.178972 -129.150135 
L 117.264773 -129.814246 
L 118.350575 -130.654484 
L 119.436376 -131.023915 
L 120.522177 -130.971196 
L 121.607978 -130.964242 
L 122.693779 -130.330846 
L 123.77958 -130.797037 
L 124.865382 -130.597825 
L 125.951183 -130.567619 
L 127.036984 -130.940399 
L 128.122785 -130.631057 
L 129.208586 -130.441577 
L 130.294387 -130.202033 
L 131.380189 -130.178772 
L 132.46599 -129.984967 
L 133.551791 -130.163201 
L 134.637592 -129.141139 
L 135.723393 -129.648956 
L 136.809194 -129.506706 
L 137.894995 -129.524388 
L 138.980797 -129.305694 
L 140.066598 -129.681274 
L 141.152399 -129.566772 
L 142.2382 -129.633447 
L 143.324001 -129.930177 
L 144.409802 -130.03845 
L 145.495604 -129.801411 
L 146.581405 -130.165466 
L 147.667206 -130.789557 
L 148.753007 -130.064652 
L 149.838808 -130.551253 
L 150.924609 -131.093478 
L 152.01041 -130.96187 
L 153.096212 -131.913764 
L 154.182013 -131.687146 
L 155.267814 -132.208228 
L 156.353615 -133.549664 
L 157.439416 -134.286018 
L 158.525217 -135.105281 
L 159.611019 -135.727175 
L 160.69682 -136.424344 
L 161.782621 -136.937607 
L 162.868422 -137.235164 
L 163.954223 -136.743663 
L 165.040024 -137.42213 
L 166.125825 -137.381094 
L 167.211627 -137.746302 
L 168.297428 -137.825761 
L 169.383229 -137.749461 
L 170.46903 -137.280267 
L 171.554831 -137.448709 
L 172.640632 -137.827391 
L 173.726434 -137.600449 
L 174.812235 -137.936391 
L 175.898036 -138.736511 
L 176.983837 -138.882602 
L 178.069638 -139.686679 
L 179.155439 -140.096969 
L 180.24124 -140.216252 
L 181.327042 -141.195452 
L 182.412843 -143.478699 
L 183.498644 -144.995489 
L 184.584445 -146.035324 
L 185.670246 -147.220723 
L 186.756047 -148.569208 
L 187.841849 -149.653054 
L 188.92765 -150.403527 
L 190.013451 -151.269365 
L 191.099252 -152.125187 
L 192.185053 -153.762131 
L 193.270854 -155.458579 
L 194.356656 -157.007845 
L 195.442457 -159.024436 
L 196.528258 -160.95467 
L 197.614059 -163.518709 
L 198.69986 -165.632602 
L 199.785661 -166.795017 
L 200.871462 -168.381086 
L 201.957264 -170.162358 
L 203.043065 -171.684223 
L 204.128866 -173.248523 
L 205.214667 -174.961125 
L 206.300468 -176.110227 
L 207.386269 -177.205839 
L 208.472071 -178.668504 
L 209.557872 -179.294561 
L 210.643673 -179.895294 
L 211.729474 -180.711216 
L 212.815275 -181.242393 
L 213.901076 -181.309764 
L 214.986877 -181.850138 
L 216.072679 -182.27945 
L 217.15848 -182.595762 
L 218.244281 -182.704712 
L 219.330082 -182.361321 
L 220.415883 -181.643796 
L 221.501684 -181.589278 
L 222.587486 -181.383075 
L 223.673287 -181.545436 
L 224.759088 -182.065907 
L 225.844889 -182.070577 
L 226.93069 -182.255004 
L 228.016491 -181.979838 
L 229.102292 -182.312113 
L 230.188094 -182.447528 
L 231.273895 -182.48037 
L 232.359696 -182.536576 
L 233.445497 -182.891788 
L 234.531298 -183.478835 
L 235.617099 -183.336452 
L 236.702901 -182.88862 
L 237.788702 -182.283146 
L 238.874503 -181.704713 
L 239.960304 -181.156559 
L 241.046105 -180.252819 
L 242.131906 -179.761557 
L 243.217708 -179.532543 
L 244.303509 -178.579416 
L 245.38931 -177.566841 
L 246.475111 -176.586515 
L 247.560912 -175.561385 
L 248.646713 -174.922837 
L 249.732514 -173.969061 
L 250.818316 -172.046033 
L 251.904117 -171.040873 
L 252.989918 -170.566668 
L 254.075719 -169.377364 
L 255.16152 -167.898677 
L 256.247321 -166.220418 
L 257.333123 -164.765568 
L 258.418924 -163.10928 
L 259.504725 -160.597506 
L 260.590526 -157.600559 
L 261.676327 -154.458227 
L 262.762128 -151.408302 
L 263.847929 -148.603134 
L 264.933731 -146.003493 
L 266.019532 -142.915902 
L 267.105333 -140.522319 
L 268.191134 -137.897061 
L 269.276935 -134.807241 
L 270.362736 -132.180131 
L 271.448538 -129.523726 
L 272.534339 -126.771672 
L 273.62014 -124.483841 
L 274.705941 -121.779636 
L 275.791742 -119.601284 
L 276.877543 -117.690623 
L 277.963344 -115.922572 
L 279.049146 -113.784076 
L 280.134947 -111.313321 
L 281.220748 -109.715689 
L 282.306549 -107.593976 
L 283.39235 -105.509491 
L 284.478151 -104.193787 
L 285.563953 -102.417868 
L 286.649754 -100.803556 
L 287.735555 -99.189312 
L 288.821356 -97.362309 
L 289.907157 -95.829661 
L 290.992958 -93.435293 
L 292.07876 -91.810082 
L 293.164561 -89.734337 
L 294.250362 -87.310323 
L 295.336163 -85.349446 
L 296.421964 -82.941977 
L 297.507765 -81.676432 
L 298.593566 -79.54149 
L 299.679368 -77.88575 
L 300.765169 -76.145547 
L 301.85097 -75.09946 
L 302.936771 -74.17032 
L 304.022572 -72.658642 
L 305.108373 -71.492682 
L 306.194175 -69.91171 
L 307.279976 -68.464542 
L 308.365777 -67.598424 
L 309.451578 -66.400817 
L 310.537379 -65.552538 
L 311.62318 -64.613116 
L 312.708981 -63.571111 
L 313.794783 -62.834571 
L 314.880584 -62.369852 
L 315.966385 -61.027524 
L 317.052186 -60.087476 
L 318.137987 -59.951041 
L 319.223788 -59.683273 
L 320.30959 -58.706156 
L 321.395391 -57.669854 
L 322.481192 -56.471756 
L 323.566993 -55.904311 
L 324.652794 -55.588045 
L 325.738595 -55.241001 
L 326.824396 -54.56215 
L 327.910198 -54.139809 
L 328.995999 -53.175992 
L 330.0818 -52.457858 
L 331.167601 -52.100064 
L 332.253402 -50.993383 
L 333.339203 -50.621192 
L 334.425005 -50.365323 
L 335.510806 -50.623592 
L 336.596607 -50.355006 
L 337.682408 -50.112 
L 338.768209 -50.388437 
L 339.85401 -50.323202 
L 340.939811 -50.132589 
L 342.025613 -50.152774 
L 343.111414 -50.412485 
L 344.197215 -50.669828 
L 345.283016 -50.440046 
L 346.368817 -51.03299 
L 347.454618 -51.790623 
L 348.54042 -52.18782 
L 349.626221 -52.725963 
L 350.712022 -53.072246 
L 351.797823 -53.234208 
L 352.883624 -53.697605 
L 353.969425 -53.690904 
L 355.055227 -54.603471 
L 356.141028 -54.082652 
L 357.226829 -54.535342 
L 358.31263 -54.673412 
L 359.398431 -54.892125 
L 360.484232 -55.102549 
L 361.570033 -54.407547 
L 362.655835 -53.85491 
L 363.741636 -54.301754 
L 364.827437 -54.478815 
L 365.913238 -54.096486 
L 366.999039 -54.632556 
L 368.08484 -54.914928 
L 369.170642 -55.196532 
L 370.256443 -55.738786 
L 371.342244 -55.899221 
L 372.428045 -56.756781 
L 373.513846 -57.933627 
L 374.599647 -58.835349 
L 375.685448 -59.933629 
L 376.77125 -61.331611 
L 377.857051 -62.044207 
L 378.942852 -63.099126 
L 380.028653 -64.505431 
L 381.114454 -64.828762 
L 382.200255 -65.560594 
L 383.286057 -66.828762 
L 384.371858 -68.359288 
L 385.457659 -69.215335 
L 386.54346 -70.54521 
L 387.629261 -71.440454 
L 388.715062 -72.962607 
L 389.800863 -73.466375 
L 390.886665 -73.733375 
L 391.972466 -74.617492 
L 393.058267 -74.766808 
L 394.144068 -75.392221 
L 395.229869 -75.83627 
L 396.31567 -77.482292 
L 397.401472 -78.115378 
L 398.487273 -78.616808 
L 398.487273 -168.467001 
L 398.487273 -168.467001 
L 397.401472 -165.876167 
L 396.31567 -163.588352 
L 395.229869 -160.172578 
L 394.144068 -157.866278 
L 393.058267 -155.133513 
L 391.972466 -153.561924 
L 390.886665 -151.10596 
L 389.800863 -149.335525 
L 388.715062 -146.930892 
L 387.629261 -144.20885 
L 386.54346 -141.617371 
L 385.457659 -138.31499 
L 384.371858 -136.107435 
L 383.286057 -132.998952 
L 382.200255 -130.478388 
L 381.114454 -127.948262 
L 380.028653 -126.156066 
L 378.942852 -123.810099 
L 377.857051 -121.870397 
L 376.77125 -120.112388 
L 375.685448 -118.29114 
L 374.599647 -116.253092 
L 373.513846 -114.216474 
L 372.428045 -111.951193 
L 371.342244 -110.332328 
L 370.256443 -108.825881 
L 369.170642 -107.172009 
L 368.08484 -105.686316 
L 366.999039 -104.298414 
L 365.913238 -103.630405 
L 364.827437 -103.04287 
L 363.741636 -102.082728 
L 362.655835 -101.541017 
L 361.570033 -101.10053 
L 360.484232 -101.064921 
L 359.398431 -100.744305 
L 358.31263 -100.222433 
L 357.226829 -99.548199 
L 356.141028 -99.03165 
L 355.055227 -99.316214 
L 353.969425 -98.878171 
L 352.883624 -98.46713 
L 351.797823 -98.120454 
L 350.712022 -98.196595 
L 349.626221 -97.992151 
L 348.54042 -97.907684 
L 347.454618 -97.93671 
L 346.368817 -97.996279 
L 345.283016 -98.119061 
L 344.197215 -99.032164 
L 343.111414 -99.15152 
L 342.025613 -99.452257 
L 340.939811 -99.90892 
L 339.85401 -100.471757 
L 338.768209 -101.236676 
L 337.682408 -101.819192 
L 336.596607 -102.829121 
L 335.510806 -103.674248 
L 334.425005 -104.025746 
L 333.339203 -104.880366 
L 332.253402 -105.755509 
L 331.167601 -107.757757 
L 330.0818 -109.289732 
L 328.995999 -111.328925 
L 327.910198 -113.176442 
L 326.824396 -114.503483 
L 325.738595 -116.393188 
L 324.652794 -118.16637 
L 323.566993 -119.837643 
L 322.481192 -121.546849 
L 321.395391 -124.34113 
L 320.30959 -126.506784 
L 319.223788 -128.483013 
L 318.137987 -130.019534 
L 317.052186 -131.110827 
L 315.966385 -133.098032 
L 314.880584 -134.957307 
L 313.794783 -135.554631 
L 312.708981 -136.74908 
L 311.62318 -138.341726 
L 310.537379 -139.619947 
L 309.451578 -140.51584 
L 308.365777 -142.389423 
L 307.279976 -144.05122 
L 306.194175 -146.418932 
L 305.108373 -148.533784 
L 304.022572 -150.696102 
L 302.936771 -152.703599 
L 301.85097 -154.316579 
L 300.765169 -155.483305 
L 299.679368 -157.519403 
L 298.593566 -159.299841 
L 297.507765 -162.15787 
L 296.421964 -163.354342 
L 295.336163 -166.225392 
L 294.250362 -168.65475 
L 293.164561 -171.148083 
L 292.07876 -172.962082 
L 290.992958 -174.741373 
L 289.907157 -177.370917 
L 288.821356 -178.52437 
L 287.735555 -180.207121 
L 286.649754 -181.917477 
L 285.563953 -183.49265 
L 284.478151 -185.514867 
L 283.39235 -186.953355 
L 282.306549 -189.221782 
L 281.220748 -191.661471 
L 280.134947 -193.070041 
L 279.049146 -195.481743 
L 277.963344 -196.68158 
L 276.877543 -198.050773 
L 275.791742 -199.472148 
L 274.705941 -201.324512 
L 273.62014 -203.646904 
L 272.534339 -205.576864 
L 271.448538 -208.096299 
L 270.362736 -210.479735 
L 269.276935 -213.40714 
L 268.191134 -216.601035 
L 267.105333 -219.483247 
L 266.019532 -221.825963 
L 264.933731 -225.355996 
L 263.847929 -228.423085 
L 262.762128 -232.206378 
L 261.676327 -236.181682 
L 260.590526 -240.74738 
L 259.504725 -245.423578 
L 258.418924 -249.05602 
L 257.333123 -252.361398 
L 256.247321 -254.843259 
L 255.16152 -258.005033 
L 254.075719 -260.076334 
L 252.989918 -262.745066 
L 251.904117 -263.853271 
L 250.818316 -265.830724 
L 249.732514 -269.726815 
L 248.646713 -271.730235 
L 247.560912 -273.73746 
L 246.475111 -275.90706 
L 245.38931 -277.632235 
L 244.303509 -279.968653 
L 243.217708 -281.932128 
L 242.131906 -282.977802 
L 241.046105 -283.854661 
L 239.960304 -285.729525 
L 238.874503 -287.019987 
L 237.788702 -288.485593 
L 236.702901 -290.074821 
L 235.617099 -291.125363 
L 234.531298 -292.011798 
L 233.445497 -291.873247 
L 232.359696 -292.032 
L 231.273895 -291.830207 
L 230.188094 -291.708922 
L 229.102292 -291.109865 
L 228.016491 -290.293957 
L 226.93069 -290.239246 
L 225.844889 -288.661441 
L 224.759088 -288.48381 
L 223.673287 -287.323762 
L 222.587486 -286.279319 
L 221.501684 -285.501597 
L 220.415883 -284.753944 
L 219.330082 -284.464093 
L 218.244281 -283.799756 
L 217.15848 -282.284266 
L 216.072679 -280.677726 
L 214.986877 -279.400862 
L 213.901076 -277.56913 
L 212.815275 -276.172673 
L 211.729474 -274.947874 
L 210.643673 -272.998614 
L 209.557872 -271.105075 
L 208.472071 -269.199274 
L 207.386269 -266.285412 
L 206.300468 -263.951345 
L 205.214667 -261.459219 
L 204.128866 -257.598426 
L 203.043065 -253.369341 
L 201.957264 -249.73849 
L 200.871462 -244.87829 
L 199.785661 -240.596816 
L 198.69986 -236.100338 
L 197.614059 -230.457945 
L 196.528258 -224.158401 
L 195.442457 -218.707227 
L 194.356656 -213.276789 
L 193.270854 -208.446439 
L 192.185053 -203.58086 
L 191.099252 -199.63572 
L 190.013451 -196.964941 
L 188.92765 -194.510039 
L 187.841849 -192.449527 
L 186.756047 -189.898601 
L 185.670246 -186.687073 
L 184.584445 -183.510195 
L 183.498644 -180.787445 
L 182.412843 -178.005268 
L 181.327042 -173.012418 
L 180.24124 -170.712768 
L 179.155439 -169.140059 
L 178.069638 -167.771653 
L 176.983837 -165.813333 
L 175.898036 -164.813255 
L 174.812235 -163.100383 
L 173.726434 -162.134179 
L 172.640632 -161.649567 
L 171.554831 -160.530236 
L 170.46903 -159.938162 
L 169.383229 -159.986018 
L 168.297428 -159.901334 
L 167.211627 -159.285892 
L 166.125825 -158.577969 
L 165.040024 -158.348713 
L 163.954223 -157.401778 
L 162.868422 -157.851814 
L 161.782621 -157.4736 
L 160.69682 -156.873672 
L 159.611019 -155.967094 
L 158.525217 -155.17529 
L 157.439416 -154.256635 
L 156.353615 -153.549513 
L 155.267814 -152.284759 
L 154.182013 -151.837578 
L 153.096212 -151.795628 
L 152.01041 -150.965088 
L 150.924609 -150.860851 
L 149.838808 -150.221114 
L 148.753007 -149.467256 
L 147.667206 -149.373882 
L 146.581405 -148.273809 
L 145.495604 -147.508676 
L 144.409802 -147.150822 
L 143.324001 -146.688365 
L 142.2382 -146.043508 
L 141.152399 -145.517129 
L 140.066598 -144.847485 
L 138.980797 -144.284614 
L 137.894995 -143.965181 
L 136.809194 -143.550407 
L 135.723393 -143.402173 
L 134.637592 -142.895826 
L 133.551791 -143.536318 
L 132.46599 -143.232692 
L 131.380189 -143.302038 
L 130.294387 -143.397143 
L 129.208586 -143.722249 
L 128.122785 -143.876241 
L 127.036984 -144.216834 
L 125.951183 -144.000674 
L 124.865382 -144.10607 
L 123.77958 -144.258408 
L 122.693779 -143.957455 
L 121.607978 -144.669917 
L 120.522177 -144.707506 
L 119.436376 -144.86287 
L 118.350575 -144.655117 
L 117.264773 -143.735051 
L 116.178972 -143.104918 
L 115.093171 -142.015213 
L 114.00737 -141.101306 
L 112.921569 -140.187488 
L 111.835768 -138.247119 
L 110.749967 -137.255603 
L 109.664165 -136.212286 
L 108.578364 -134.548389 
L 107.492563 -133.913478 
L 106.406762 -133.054844 
L 105.320961 -132.285505 
L 104.23516 -131.044401 
L 103.149358 -130.312869 
L 102.063557 -130.321876 
L 100.977756 -129.608344 
L 99.891955 -129.742586 
L 98.806154 -128.885716 
L 97.720353 -129.085394 
L 96.634552 -130.050217 
L 95.54875 -130.742609 
L 94.462949 -130.51179 
L 93.377148 -131.052655 
L 92.291347 -131.126939 
L 91.205546 -131.075384 
L 90.119745 -131.578856 
L 89.033943 -131.426703 
L 87.948142 -132.344995 
L 86.862341 -132.823007 
L 85.77654 -133.171486 
L 84.690739 -133.755182 
L 83.604938 -133.608355 
L 82.519137 -133.710414 
L 81.433335 -133.626592 
L 80.347534 -133.846057 
L 79.261733 -134.605027 
L 78.175932 -135.188268 
L 77.090131 -135.436378 
L 76.00433 -136.302922 
L 74.918528 -137.659935 
L 73.832727 -138.383084 
z
" style="stroke: #ff00ff; stroke-opacity: 0.1"/>
    </defs>
    <g clip-path="url(#pd8cf33066c)">
     <use xlink:href="#m4c270d86e9" x="0" y="345.6" style="fill: #ff00ff; fill-opacity: 0.1; stroke: #ff00ff; stroke-opacity: 0.1"/>
    </g>
   </g>
   <g id="matplotlib.axis_1">
    <g id="xtick_1">
     <g id="line2d_1">
      <defs>
       <path id="md9a7697d2b" d="M 0 0 
L 0 3.5 
" style="stroke: #000000; stroke-width: 0.8"/>
      </defs>
      <g>
       <use xlink:href="#md9a7697d2b" x="73.832727" y="307.584" style="stroke: #000000; stroke-width: 0.8"/>
      </g>
     </g>
     <g id="text_1">
      <!-- −5 -->
      <g transform="translate(66.461634 322.182437) scale(0.1 -0.1)">
       <defs>
        <path id="DejaVuSans-2212" d="M 678 2272 
L 4684 2272 
L 4684 1741 
L 678 1741 
L 678 2272 
z
" transform="scale(0.015625)"/>
        <path id="DejaVuSans-35" d="M 691 4666 
L 3169 4666 
L 3169 4134 
L 1269 4134 
L 1269 2991 
Q 1406 3038 1543 3061 
Q 1681 3084 1819 3084 
Q 2600 3084 3056 2656 
Q 3513 2228 3513 1497 
Q 3513 744 3044 326 
Q 2575 -91 1722 -91 
Q 1428 -91 1123 -41 
Q 819 9 494 109 
L 494 744 
Q 775 591 1075 516 
Q 1375 441 1709 441 
Q 2250 441 2565 725 
Q 2881 1009 2881 1497 
Q 2881 1984 2565 2268 
Q 2250 2553 1709 2553 
Q 1456 2553 1204 2497 
Q 953 2441 691 2322 
L 691 4666 
z
" transform="scale(0.015625)"/>
       </defs>
       <use xlink:href="#DejaVuSans-2212"/>
       <use xlink:href="#DejaVuSans-35" x="83.789062"/>
      </g>
     </g>
    </g>
    <g id="xtick_2">
     <g id="line2d_2">
      <g>
       <use xlink:href="#md9a7697d2b" x="95.54875" y="307.584" style="stroke: #000000; stroke-width: 0.8"/>
      </g>
     </g>
     <g id="text_2">
      <!-- −4 -->
      <g transform="translate(88.177657 322.182437) scale(0.1 -0.1)">
       <defs>
        <path id="DejaVuSans-34" d="M 2419 4116 
L 825 1625 
L 2419 1625 
L 2419 4116 
z
M 2253 4666 
L 3047 4666 
L 3047 1625 
L 3713 1625 
L 3713 1100 
L 3047 1100 
L 3047 0 
L 2419 0 
L 2419 1100 
L 313 1100 
L 313 1709 
L 2253 4666 
z
" transform="scale(0.015625)"/>
       </defs>
       <use xlink:href="#DejaVuSans-2212"/>
       <use xlink:href="#DejaVuSans-34" x="83.789062"/>
      </g>
     </g>
    </g>
    <g id="xtick_3">
     <g id="line2d_3">
      <g>
       <use xlink:href="#md9a7697d2b" x="117.264773" y="307.584" style="stroke: #000000; stroke-width: 0.8"/>
      </g>
     </g>
     <g id="text_3">
      <!-- −3 -->
      <g transform="translate(109.89368 322.182437) scale(0.1 -0.1)">
       <defs>
        <path id="DejaVuSans-33" d="M 2597 2516 
Q 3050 2419 3304 2112 
Q 3559 1806 3559 1356 
Q 3559 666 3084 287 
Q 2609 -91 1734 -91 
Q 1441 -91 1130 -33 
Q 819 25 488 141 
L 488 750 
Q 750 597 1062 519 
Q 1375 441 1716 441 
Q 2309 441 2620 675 
Q 2931 909 2931 1356 
Q 2931 1769 2642 2001 
Q 2353 2234 1838 2234 
L 1294 2234 
L 1294 2753 
L 1863 2753 
Q 2328 2753 2575 2939 
Q 2822 3125 2822 3475 
Q 2822 3834 2567 4026 
Q 2313 4219 1838 4219 
Q 1578 4219 1281 4162 
Q 984 4106 628 3988 
L 628 4550 
Q 988 4650 1302 4700 
Q 1616 4750 1894 4750 
Q 2613 4750 3031 4423 
Q 3450 4097 3450 3541 
Q 3450 3153 3228 2886 
Q 3006 2619 2597 2516 
z
" transform="scale(0.015625)"/>
       </defs>
       <use xlink:href="#DejaVuSans-2212"/>
       <use xlink:href="#DejaVuSans-33" x="83.789062"/>
      </g>
     </g>
    </g>
    <g id="xtick_4">
     <g id="line2d_4">
      <g>
       <use xlink:href="#md9a7697d2b" x="138.980797" y="307.584" style="stroke: #000000; stroke-width: 0.8"/>
      </g>
     </g>
     <g id="text_4">
      <!-- −2 -->
      <g transform="translate(131.609703 322.182437) scale(0.1 -0.1)">
       <defs>
        <path id="DejaVuSans-32" d="M 1228 531 
L 3431 531 
L 3431 0 
L 469 0 
L 469 531 
Q 828 903 1448 1529 
Q 2069 2156 2228 2338 
Q 2531 2678 2651 2914 
Q 2772 3150 2772 3378 
Q 2772 3750 2511 3984 
Q 2250 4219 1831 4219 
Q 1534 4219 1204 4116 
Q 875 4013 500 3803 
L 500 4441 
Q 881 4594 1212 4672 
Q 1544 4750 1819 4750 
Q 2544 4750 2975 4387 
Q 3406 4025 3406 3419 
Q 3406 3131 3298 2873 
Q 3191 2616 2906 2266 
Q 2828 2175 2409 1742 
Q 1991 1309 1228 531 
z
" transform="scale(0.015625)"/>
       </defs>
       <use xlink:href="#DejaVuSans-2212"/>
       <use xlink:href="#DejaVuSans-32" x="83.789062"/>
      </g>
     </g>
    </g>
    <g id="xtick_5">
     <g id="line2d_5">
      <g>
       <use xlink:href="#md9a7697d2b" x="160.69682" y="307.584" style="stroke: #000000; stroke-width: 0.8"/>
      </g>
     </g>
     <g id="text_5">
      <!-- −1 -->
      <g transform="translate(153.325726 322.182437) scale(0.1 -0.1)">
       <defs>
        <path id="DejaVuSans-31" d="M 794 531 
L 1825 531 
L 1825 4091 
L 703 3866 
L 703 4441 
L 1819 4666 
L 2450 4666 
L 2450 531 
L 3481 531 
L 3481 0 
L 794 0 
L 794 531 
z
" transform="scale(0.015625)"/>
       </defs>
       <use xlink:href="#DejaVuSans-2212"/>
       <use xlink:href="#DejaVuSans-31" x="83.789062"/>
      </g>
     </g>
    </g>
    <g id="xtick_6">
     <g id="line2d_6">
      <g>
       <use xlink:href="#md9a7697d2b" x="182.412843" y="307.584" style="stroke: #000000; stroke-width: 0.8"/>
      </g>
     </g>
     <g id="text_6">
      <!-- 0 -->
      <g transform="translate(179.231593 322.182437) scale(0.1 -0.1)">
       <defs>
        <path id="DejaVuSans-30" d="M 2034 4250 
Q 1547 4250 1301 3770 
Q 1056 3291 1056 2328 
Q 1056 1369 1301 889 
Q 1547 409 2034 409 
Q 2525 409 2770 889 
Q 3016 1369 3016 2328 
Q 3016 3291 2770 3770 
Q 2525 4250 2034 4250 
z
M 2034 4750 
Q 2819 4750 3233 4129 
Q 3647 3509 3647 2328 
Q 3647 1150 3233 529 
Q 2819 -91 2034 -91 
Q 1250 -91 836 529 
Q 422 1150 422 2328 
Q 422 3509 836 4129 
Q 1250 4750 2034 4750 
z
" transform="scale(0.015625)"/>
       </defs>
       <use xlink:href="#DejaVuSans-30"/>
      </g>
     </g>
    </g>
    <g id="xtick_7">
     <g id="line2d_7">
      <g>
       <use xlink:href="#md9a7697d2b" x="204.128866" y="307.584" style="stroke: #000000; stroke-width: 0.8"/>
      </g>
     </g>
     <g id="text_7">
      <!-- 1 -->
      <g transform="translate(200.947616 322.182437) scale(0.1 -0.1)">
       <use xlink:href="#DejaVuSans-31"/>
      </g>
     </g>
    </g>
    <g id="xtick_8">
     <g id="line2d_8">
      <g>
       <use xlink:href="#md9a7697d2b" x="225.844889" y="307.584" style="stroke: #000000; stroke-width: 0.8"/>
      </g>
     </g>
     <g id="text_8">
      <!-- 2 -->
      <g transform="translate(222.663639 322.182437) scale(0.1 -0.1)">
       <use xlink:href="#DejaVuSans-32"/>
      </g>
     </g>
    </g>
    <g id="xtick_9">
     <g id="line2d_9">
      <g>
       <use xlink:href="#md9a7697d2b" x="247.560912" y="307.584" style="stroke: #000000; stroke-width: 0.8"/>
      </g>
     </g>
     <g id="text_9">
      <!-- 3 -->
      <g transform="translate(244.379662 322.182437) scale(0.1 -0.1)">
       <use xlink:href="#DejaVuSans-33"/>
      </g>
     </g>
    </g>
    <g id="xtick_10">
     <g id="line2d_10">
      <g>
       <use xlink:href="#md9a7697d2b" x="269.276935" y="307.584" style="stroke: #000000; stroke-width: 0.8"/>
      </g>
     </g>
     <g id="text_10">
      <!-- 4 -->
      <g transform="translate(266.095685 322.182437) scale(0.1 -0.1)">
       <use xlink:href="#DejaVuSans-34"/>
      </g>
     </g>
    </g>
    <g id="xtick_11">
     <g id="line2d_11">
      <g>
       <use xlink:href="#md9a7697d2b" x="290.992958" y="307.584" style="stroke: #000000; stroke-width: 0.8"/>
      </g>
     </g>
     <g id="text_11">
      <!-- 5 -->
      <g transform="translate(287.811708 322.182437) scale(0.1 -0.1)">
       <use xlink:href="#DejaVuSans-35"/>
      </g>
     </g>
    </g>
    <g id="xtick_12">
     <g id="line2d_12">
      <g>
       <use xlink:href="#md9a7697d2b" x="312.708981" y="307.584" style="stroke: #000000; stroke-width: 0.8"/>
      </g>
     </g>
     <g id="text_12">
      <!-- 6 -->
      <g transform="translate(309.527731 322.182437) scale(0.1 -0.1)">
       <defs>
        <path id="DejaVuSans-36" d="M 2113 2584 
Q 1688 2584 1439 2293 
Q 1191 2003 1191 1497 
Q 1191 994 1439 701 
Q 1688 409 2113 409 
Q 2538 409 2786 701 
Q 3034 994 3034 1497 
Q 3034 2003 2786 2293 
Q 2538 2584 2113 2584 
z
M 3366 4563 
L 3366 3988 
Q 3128 4100 2886 4159 
Q 2644 4219 2406 4219 
Q 1781 4219 1451 3797 
Q 1122 3375 1075 2522 
Q 1259 2794 1537 2939 
Q 1816 3084 2150 3084 
Q 2853 3084 3261 2657 
Q 3669 2231 3669 1497 
Q 3669 778 3244 343 
Q 2819 -91 2113 -91 
Q 1303 -91 875 529 
Q 447 1150 447 2328 
Q 447 3434 972 4092 
Q 1497 4750 2381 4750 
Q 2619 4750 2861 4703 
Q 3103 4656 3366 4563 
z
" transform="scale(0.015625)"/>
       </defs>
       <use xlink:href="#DejaVuSans-36"/>
      </g>
     </g>
    </g>
    <g id="xtick_13">
     <g id="line2d_13">
      <g>
       <use xlink:href="#md9a7697d2b" x="334.425005" y="307.584" style="stroke: #000000; stroke-width: 0.8"/>
      </g>
     </g>
     <g id="text_13">
      <!-- 7 -->
      <g transform="translate(331.243755 322.182437) scale(0.1 -0.1)">
       <defs>
        <path id="DejaVuSans-37" d="M 525 4666 
L 3525 4666 
L 3525 4397 
L 1831 0 
L 1172 0 
L 2766 4134 
L 525 4134 
L 525 4666 
z
" transform="scale(0.015625)"/>
       </defs>
       <use xlink:href="#DejaVuSans-37"/>
      </g>
     </g>
    </g>
    <g id="xtick_14">
     <g id="line2d_14">
      <g>
       <use xlink:href="#md9a7697d2b" x="356.141028" y="307.584" style="stroke: #000000; stroke-width: 0.8"/>
      </g>
     </g>
     <g id="text_14">
      <!-- 8 -->
      <g transform="translate(352.959778 322.182437) scale(0.1 -0.1)">
       <defs>
        <path id="DejaVuSans-38" d="M 2034 2216 
Q 1584 2216 1326 1975 
Q 1069 1734 1069 1313 
Q 1069 891 1326 650 
Q 1584 409 2034 409 
Q 2484 409 2743 651 
Q 3003 894 3003 1313 
Q 3003 1734 2745 1975 
Q 2488 2216 2034 2216 
z
M 1403 2484 
Q 997 2584 770 2862 
Q 544 3141 544 3541 
Q 544 4100 942 4425 
Q 1341 4750 2034 4750 
Q 2731 4750 3128 4425 
Q 3525 4100 3525 3541 
Q 3525 3141 3298 2862 
Q 3072 2584 2669 2484 
Q 3125 2378 3379 2068 
Q 3634 1759 3634 1313 
Q 3634 634 3220 271 
Q 2806 -91 2034 -91 
Q 1263 -91 848 271 
Q 434 634 434 1313 
Q 434 1759 690 2068 
Q 947 2378 1403 2484 
z
M 1172 3481 
Q 1172 3119 1398 2916 
Q 1625 2713 2034 2713 
Q 2441 2713 2670 2916 
Q 2900 3119 2900 3481 
Q 2900 3844 2670 4047 
Q 2441 4250 2034 4250 
Q 1625 4250 1398 4047 
Q 1172 3844 1172 3481 
z
" transform="scale(0.015625)"/>
       </defs>
       <use xlink:href="#DejaVuSans-38"/>
      </g>
     </g>
    </g>
    <g id="xtick_15">
     <g id="line2d_15">
      <g>
       <use xlink:href="#md9a7697d2b" x="377.857051" y="307.584" style="stroke: #000000; stroke-width: 0.8"/>
      </g>
     </g>
     <g id="text_15">
      <!-- 9 -->
      <g transform="translate(374.675801 322.182437) scale(0.1 -0.1)">
       <defs>
        <path id="DejaVuSans-39" d="M 703 97 
L 703 672 
Q 941 559 1184 500 
Q 1428 441 1663 441 
Q 2288 441 2617 861 
Q 2947 1281 2994 2138 
Q 2813 1869 2534 1725 
Q 2256 1581 1919 1581 
Q 1219 1581 811 2004 
Q 403 2428 403 3163 
Q 403 3881 828 4315 
Q 1253 4750 1959 4750 
Q 2769 4750 3195 4129 
Q 3622 3509 3622 2328 
Q 3622 1225 3098 567 
Q 2575 -91 1691 -91 
Q 1453 -91 1209 -44 
Q 966 3 703 97 
z
M 1959 2075 
Q 2384 2075 2632 2365 
Q 2881 2656 2881 3163 
Q 2881 3666 2632 3958 
Q 2384 4250 1959 4250 
Q 1534 4250 1286 3958 
Q 1038 3666 1038 3163 
Q 1038 2656 1286 2365 
Q 1534 2075 1959 2075 
z
" transform="scale(0.015625)"/>
       </defs>
       <use xlink:href="#DejaVuSans-39"/>
      </g>
     </g>
    </g>
    <g id="xtick_16">
     <g id="line2d_16">
      <g>
       <use xlink:href="#md9a7697d2b" x="399.573074" y="307.584" style="stroke: #000000; stroke-width: 0.8"/>
      </g>
     </g>
     <g id="text_16">
      <!-- 10 -->
      <g transform="translate(393.210574 322.182437) scale(0.1 -0.1)">
       <use xlink:href="#DejaVuSans-31"/>
       <use xlink:href="#DejaVuSans-30" x="63.623047"/>
      </g>
     </g>
    </g>
    <g id="text_17">
     <!-- Time (s) -->
     <g transform="translate(215.831094 335.860562) scale(0.1 -0.1)">
      <defs>
       <path id="DejaVuSans-54" d="M -19 4666 
L 3928 4666 
L 3928 4134 
L 2272 4134 
L 2272 0 
L 1638 0 
L 1638 4134 
L -19 4134 
L -19 4666 
z
" transform="scale(0.015625)"/>
       <path id="DejaVuSans-69" d="M 603 3500 
L 1178 3500 
L 1178 0 
L 603 0 
L 603 3500 
z
M 603 4863 
L 1178 4863 
L 1178 4134 
L 603 4134 
L 603 4863 
z
" transform="scale(0.015625)"/>
       <path id="DejaVuSans-6d" d="M 3328 2828 
Q 3544 3216 3844 3400 
Q 4144 3584 4550 3584 
Q 5097 3584 5394 3201 
Q 5691 2819 5691 2113 
L 5691 0 
L 5113 0 
L 5113 2094 
Q 5113 2597 4934 2840 
Q 4756 3084 4391 3084 
Q 3944 3084 3684 2787 
Q 3425 2491 3425 1978 
L 3425 0 
L 2847 0 
L 2847 2094 
Q 2847 2600 2669 2842 
Q 2491 3084 2119 3084 
Q 1678 3084 1418 2786 
Q 1159 2488 1159 1978 
L 1159 0 
L 581 0 
L 581 3500 
L 1159 3500 
L 1159 2956 
Q 1356 3278 1631 3431 
Q 1906 3584 2284 3584 
Q 2666 3584 2933 3390 
Q 3200 3197 3328 2828 
z
" transform="scale(0.015625)"/>
       <path id="DejaVuSans-65" d="M 3597 1894 
L 3597 1613 
L 953 1613 
Q 991 1019 1311 708 
Q 1631 397 2203 397 
Q 2534 397 2845 478 
Q 3156 559 3463 722 
L 3463 178 
Q 3153 47 2828 -22 
Q 2503 -91 2169 -91 
Q 1331 -91 842 396 
Q 353 884 353 1716 
Q 353 2575 817 3079 
Q 1281 3584 2069 3584 
Q 2775 3584 3186 3129 
Q 3597 2675 3597 1894 
z
M 3022 2063 
Q 3016 2534 2758 2815 
Q 2500 3097 2075 3097 
Q 1594 3097 1305 2825 
Q 1016 2553 972 2059 
L 3022 2063 
z
" transform="scale(0.015625)"/>
       <path id="DejaVuSans-20" transform="scale(0.015625)"/>
       <path id="DejaVuSans-28" d="M 1984 4856 
Q 1566 4138 1362 3434 
Q 1159 2731 1159 2009 
Q 1159 1288 1364 580 
Q 1569 -128 1984 -844 
L 1484 -844 
Q 1016 -109 783 600 
Q 550 1309 550 2009 
Q 550 2706 781 3412 
Q 1013 4119 1484 4856 
L 1984 4856 
z
" transform="scale(0.015625)"/>
       <path id="DejaVuSans-73" d="M 2834 3397 
L 2834 2853 
Q 2591 2978 2328 3040 
Q 2066 3103 1784 3103 
Q 1356 3103 1142 2972 
Q 928 2841 928 2578 
Q 928 2378 1081 2264 
Q 1234 2150 1697 2047 
L 1894 2003 
Q 2506 1872 2764 1633 
Q 3022 1394 3022 966 
Q 3022 478 2636 193 
Q 2250 -91 1575 -91 
Q 1294 -91 989 -36 
Q 684 19 347 128 
L 347 722 
Q 666 556 975 473 
Q 1284 391 1588 391 
Q 1994 391 2212 530 
Q 2431 669 2431 922 
Q 2431 1156 2273 1281 
Q 2116 1406 1581 1522 
L 1381 1569 
Q 847 1681 609 1914 
Q 372 2147 372 2553 
Q 372 3047 722 3315 
Q 1072 3584 1716 3584 
Q 2034 3584 2315 3537 
Q 2597 3491 2834 3397 
z
" transform="scale(0.015625)"/>
       <path id="DejaVuSans-29" d="M 513 4856 
L 1013 4856 
Q 1481 4119 1714 3412 
Q 1947 2706 1947 2009 
Q 1947 1309 1714 600 
Q 1481 -109 1013 -844 
L 513 -844 
Q 928 -128 1133 580 
Q 1338 1288 1338 2009 
Q 1338 2731 1133 3434 
Q 928 4138 513 4856 
z
" transform="scale(0.015625)"/>
      </defs>
      <use xlink:href="#DejaVuSans-54"/>
      <use xlink:href="#DejaVuSans-69" x="57.958984"/>
      <use xlink:href="#DejaVuSans-6d" x="85.742188"/>
      <use xlink:href="#DejaVuSans-65" x="183.154297"/>
      <use xlink:href="#DejaVuSans-20" x="244.677734"/>
      <use xlink:href="#DejaVuSans-28" x="276.464844"/>
      <use xlink:href="#DejaVuSans-73" x="315.478516"/>
      <use xlink:href="#DejaVuSans-29" x="367.578125"/>
     </g>
    </g>
   </g>
   <g id="matplotlib.axis_2">
    <g id="ytick_1">
     <g id="line2d_17">
      <defs>
       <path id="m4251e15e98" d="M 0 0 
L -3.5 0 
" style="stroke: #000000; stroke-width: 0.8"/>
      </defs>
      <g>
       <use xlink:href="#m4251e15e98" x="57.6" y="302.519259" style="stroke: #000000; stroke-width: 0.8"/>
      </g>
     </g>
     <g id="text_18">
      <!-- −2 -->
      <g transform="translate(35.857813 306.318478) scale(0.1 -0.1)">
       <use xlink:href="#DejaVuSans-2212"/>
       <use xlink:href="#DejaVuSans-32" x="83.789062"/>
      </g>
     </g>
    </g>
    <g id="ytick_2">
     <g id="line2d_18">
      <g>
       <use xlink:href="#m4251e15e98" x="57.6" y="256.608871" style="stroke: #000000; stroke-width: 0.8"/>
      </g>
     </g>
     <g id="text_19">
      <!-- −1 -->
      <g transform="translate(35.857813 260.40809) scale(0.1 -0.1)">
       <use xlink:href="#DejaVuSans-2212"/>
       <use xlink:href="#DejaVuSans-31" x="83.789062"/>
      </g>
     </g>
    </g>
    <g id="ytick_3">
     <g id="line2d_19">
      <g>
       <use xlink:href="#m4251e15e98" x="57.6" y="210.698484" style="stroke: #000000; stroke-width: 0.8"/>
      </g>
     </g>
     <g id="text_20">
      <!-- 0 -->
      <g transform="translate(44.2375 214.497703) scale(0.1 -0.1)">
       <use xlink:href="#DejaVuSans-30"/>
      </g>
     </g>
    </g>
    <g id="ytick_4">
     <g id="line2d_20">
      <g>
       <use xlink:href="#m4251e15e98" x="57.6" y="164.788097" style="stroke: #000000; stroke-width: 0.8"/>
      </g>
     </g>
     <g id="text_21">
      <!-- 1 -->
      <g transform="translate(44.2375 168.587315) scale(0.1 -0.1)">
       <use xlink:href="#DejaVuSans-31"/>
      </g>
     </g>
    </g>
    <g id="ytick_5">
     <g id="line2d_21">
      <g>
       <use xlink:href="#m4251e15e98" x="57.6" y="118.877709" style="stroke: #000000; stroke-width: 0.8"/>
      </g>
     </g>
     <g id="text_22">
      <!-- 2 -->
      <g transform="translate(44.2375 122.676928) scale(0.1 -0.1)">
       <use xlink:href="#DejaVuSans-32"/>
      </g>
     </g>
    </g>
    <g id="ytick_6">
     <g id="line2d_22">
      <g>
       <use xlink:href="#m4251e15e98" x="57.6" y="72.967322" style="stroke: #000000; stroke-width: 0.8"/>
      </g>
     </g>
     <g id="text_23">
      <!-- 3 -->
      <g transform="translate(44.2375 76.766541) scale(0.1 -0.1)">
       <use xlink:href="#DejaVuSans-33"/>
      </g>
     </g>
    </g>
    <g id="text_24">
     <!-- Z-Score -->
     <g transform="translate(29.778125 193.67175) rotate(-90) scale(0.1 -0.1)">
      <defs>
       <path id="DejaVuSans-5a" d="M 359 4666 
L 4025 4666 
L 4025 4184 
L 1075 531 
L 4097 531 
L 4097 0 
L 288 0 
L 288 481 
L 3238 4134 
L 359 4134 
L 359 4666 
z
" transform="scale(0.015625)"/>
       <path id="DejaVuSans-2d" d="M 313 2009 
L 1997 2009 
L 1997 1497 
L 313 1497 
L 313 2009 
z
" transform="scale(0.015625)"/>
       <path id="DejaVuSans-53" d="M 3425 4513 
L 3425 3897 
Q 3066 4069 2747 4153 
Q 2428 4238 2131 4238 
Q 1616 4238 1336 4038 
Q 1056 3838 1056 3469 
Q 1056 3159 1242 3001 
Q 1428 2844 1947 2747 
L 2328 2669 
Q 3034 2534 3370 2195 
Q 3706 1856 3706 1288 
Q 3706 609 3251 259 
Q 2797 -91 1919 -91 
Q 1588 -91 1214 -16 
Q 841 59 441 206 
L 441 856 
Q 825 641 1194 531 
Q 1563 422 1919 422 
Q 2459 422 2753 634 
Q 3047 847 3047 1241 
Q 3047 1584 2836 1778 
Q 2625 1972 2144 2069 
L 1759 2144 
Q 1053 2284 737 2584 
Q 422 2884 422 3419 
Q 422 4038 858 4394 
Q 1294 4750 2059 4750 
Q 2388 4750 2728 4690 
Q 3069 4631 3425 4513 
z
" transform="scale(0.015625)"/>
       <path id="DejaVuSans-63" d="M 3122 3366 
L 3122 2828 
Q 2878 2963 2633 3030 
Q 2388 3097 2138 3097 
Q 1578 3097 1268 2742 
Q 959 2388 959 1747 
Q 959 1106 1268 751 
Q 1578 397 2138 397 
Q 2388 397 2633 464 
Q 2878 531 3122 666 
L 3122 134 
Q 2881 22 2623 -34 
Q 2366 -91 2075 -91 
Q 1284 -91 818 406 
Q 353 903 353 1747 
Q 353 2603 823 3093 
Q 1294 3584 2113 3584 
Q 2378 3584 2631 3529 
Q 2884 3475 3122 3366 
z
" transform="scale(0.015625)"/>
       <path id="DejaVuSans-6f" d="M 1959 3097 
Q 1497 3097 1228 2736 
Q 959 2375 959 1747 
Q 959 1119 1226 758 
Q 1494 397 1959 397 
Q 2419 397 2687 759 
Q 2956 1122 2956 1747 
Q 2956 2369 2687 2733 
Q 2419 3097 1959 3097 
z
M 1959 3584 
Q 2709 3584 3137 3096 
Q 3566 2609 3566 1747 
Q 3566 888 3137 398 
Q 2709 -91 1959 -91 
Q 1206 -91 779 398 
Q 353 888 353 1747 
Q 353 2609 779 3096 
Q 1206 3584 1959 3584 
z
" transform="scale(0.015625)"/>
       <path id="DejaVuSans-72" d="M 2631 2963 
Q 2534 3019 2420 3045 
Q 2306 3072 2169 3072 
Q 1681 3072 1420 2755 
Q 1159 2438 1159 1844 
L 1159 0 
L 581 0 
L 581 3500 
L 1159 3500 
L 1159 2956 
Q 1341 3275 1631 3429 
Q 1922 3584 2338 3584 
Q 2397 3584 2469 3576 
Q 2541 3569 2628 3553 
L 2631 2963 
z
" transform="scale(0.015625)"/>
      </defs>
      <use xlink:href="#DejaVuSans-5a"/>
      <use xlink:href="#DejaVuSans-2d" x="66.755859"/>
      <use xlink:href="#DejaVuSans-53" x="102.839844"/>
      <use xlink:href="#DejaVuSans-63" x="166.316406"/>
      <use xlink:href="#DejaVuSans-6f" x="221.296875"/>
      <use xlink:href="#DejaVuSans-72" x="282.478516"/>
      <use xlink:href="#DejaVuSans-65" x="321.341797"/>
     </g>
    </g>
   </g>
   <g id="line2d_23">
    <path d="M 73.832727 224.329989 
L 74.918528 224.668957 
L 76.00433 225.542078 
L 77.090131 225.882218 
L 78.175932 225.836254 
L 79.261733 225.901908 
L 80.347534 226.257284 
L 81.433335 226.133613 
L 82.519137 225.770188 
L 83.604938 225.548744 
L 84.690739 225.079928 
L 85.77654 225.336197 
L 87.948142 225.391325 
L 89.033943 225.806069 
L 90.119745 225.270477 
L 91.205546 225.41388 
L 93.377148 224.891715 
L 94.462949 225.129873 
L 95.54875 224.725092 
L 96.634552 225.041207 
L 97.720353 225.565463 
L 98.806154 225.367281 
L 99.891955 224.199506 
L 100.977756 224.006714 
L 102.063557 223.028931 
L 103.149358 222.756708 
L 104.23516 221.941147 
L 105.320961 220.449529 
L 108.578364 217.726278 
L 109.664165 216.070288 
L 111.835768 214.068464 
L 112.921569 212.271503 
L 115.093171 210.509526 
L 116.178972 209.472474 
L 117.264773 208.825352 
L 118.350575 207.945199 
L 119.436376 207.656607 
L 121.607978 207.782921 
L 122.693779 208.45585 
L 123.77958 208.072278 
L 125.951183 208.315854 
L 127.036984 208.021384 
L 128.122785 208.346351 
L 132.46599 208.99117 
L 133.551791 208.75024 
L 134.637592 209.581517 
L 135.723393 209.074436 
L 136.809194 209.071444 
L 137.894995 208.855215 
L 138.980797 208.804846 
L 140.066598 208.33562 
L 142.2382 207.761523 
L 143.324001 207.290729 
L 144.409802 207.005364 
L 145.495604 206.944957 
L 146.581405 206.380362 
L 147.667206 205.51828 
L 148.753007 205.834046 
L 150.924609 204.622836 
L 152.01041 204.636521 
L 153.096212 203.745304 
L 154.182013 203.837638 
L 155.267814 203.353507 
L 156.353615 202.050412 
L 157.439416 201.328673 
L 158.525217 200.459714 
L 161.782621 198.394397 
L 162.868422 198.056511 
L 163.954223 198.527279 
L 165.040024 197.714579 
L 166.125825 197.620469 
L 167.211627 197.083903 
L 168.297428 196.736453 
L 169.383229 196.732261 
L 170.46903 196.990785 
L 171.554831 196.610528 
L 172.640632 195.861521 
L 173.726434 195.732686 
L 174.812235 195.081613 
L 175.898036 193.825117 
L 176.983837 193.252033 
L 178.069638 191.870834 
L 180.24124 190.13549 
L 181.327042 188.496065 
L 182.412843 184.858016 
L 183.498644 182.708533 
L 184.584445 180.827241 
L 186.756047 176.366095 
L 187.841849 174.54871 
L 188.92765 173.143217 
L 191.099252 169.719546 
L 192.185053 166.928505 
L 195.442457 156.734168 
L 196.528258 153.043464 
L 197.614059 148.611673 
L 198.69986 144.73353 
L 200.871462 138.970312 
L 201.957264 135.649576 
L 203.043065 133.073218 
L 205.214667 127.389828 
L 207.386269 123.854375 
L 208.472071 121.666111 
L 211.729474 117.770455 
L 212.815275 116.892467 
L 213.901076 116.160553 
L 214.986877 114.9745 
L 218.244281 112.347766 
L 219.330082 112.187293 
L 220.415883 112.40113 
L 222.587486 111.768803 
L 223.673287 111.165401 
L 224.759088 110.325142 
L 225.844889 110.233991 
L 226.93069 109.352875 
L 228.016491 109.463102 
L 229.102292 108.889011 
L 230.188094 108.521775 
L 233.445497 108.217483 
L 234.531298 107.854683 
L 235.617099 108.369092 
L 236.702901 109.11828 
L 238.874503 111.23765 
L 239.960304 112.156958 
L 241.046105 113.54626 
L 243.217708 114.867664 
L 244.303509 116.325966 
L 245.38931 118.000462 
L 246.475111 119.353213 
L 247.560912 120.950578 
L 249.732514 123.752062 
L 250.818316 126.661622 
L 251.904117 128.152928 
L 252.989918 128.944133 
L 255.16152 132.648145 
L 256.247321 135.068161 
L 257.333123 137.036517 
L 258.418924 139.51735 
L 259.504725 142.589458 
L 262.762128 153.79266 
L 263.847929 157.086891 
L 264.933731 159.920255 
L 266.019532 163.229067 
L 267.105333 165.597217 
L 268.191134 168.350952 
L 269.276935 171.492809 
L 271.448538 176.789988 
L 272.534339 179.425732 
L 273.62014 181.534627 
L 274.705941 184.047926 
L 275.791742 186.063284 
L 279.049146 190.96709 
L 280.134947 193.408319 
L 281.220748 194.91142 
L 283.39235 199.368577 
L 284.478151 200.745673 
L 285.563953 202.644741 
L 287.735555 205.901784 
L 288.821356 207.656661 
L 289.907157 208.999711 
L 290.992958 211.511667 
L 292.07876 213.213918 
L 293.164561 215.15879 
L 296.421964 222.451841 
L 297.507765 223.682849 
L 298.593566 226.179335 
L 300.765169 229.785574 
L 301.85097 230.89198 
L 302.936771 232.163041 
L 307.279976 239.342119 
L 308.365777 240.606076 
L 309.451578 242.141672 
L 310.537379 243.013757 
L 311.62318 244.122579 
L 312.708981 245.439904 
L 313.794783 246.405399 
L 314.880584 246.93642 
L 317.052186 250.000849 
L 318.137987 250.614712 
L 319.223788 251.516857 
L 321.395391 254.594508 
L 322.481192 256.590698 
L 324.652794 258.722792 
L 325.738595 259.782905 
L 326.824396 261.067183 
L 327.910198 261.941875 
L 330.0818 264.726205 
L 331.167601 265.67109 
L 332.253402 267.225554 
L 334.425005 268.404466 
L 335.510806 268.45108 
L 337.682408 269.634404 
L 338.768209 269.787444 
L 340.939811 270.579246 
L 342.025613 270.797484 
L 344.197215 270.749004 
L 345.283016 271.320447 
L 346.368817 271.085366 
L 347.454618 270.736333 
L 348.54042 270.552248 
L 350.712022 269.965579 
L 351.797823 269.922669 
L 352.883624 269.517633 
L 353.969425 269.315463 
L 355.055227 268.640157 
L 356.141028 269.042849 
L 358.31263 268.152078 
L 360.484232 267.516265 
L 361.570033 267.845962 
L 362.655835 267.902036 
L 364.827437 266.839157 
L 365.913238 266.736554 
L 366.999039 266.134515 
L 369.170642 264.41573 
L 370.256443 263.317666 
L 371.342244 262.484225 
L 372.428045 261.246013 
L 373.513846 259.52495 
L 375.685448 256.487616 
L 376.77125 254.878 
L 377.857051 253.642698 
L 378.942852 252.145387 
L 380.028653 250.269251 
L 381.114454 249.211488 
L 382.200255 247.580509 
L 383.286057 245.686143 
L 384.371858 243.366638 
L 385.457659 241.834837 
L 386.54346 239.518709 
L 387.629261 237.775348 
L 388.715062 235.65325 
L 389.800863 234.19905 
L 390.886665 233.180332 
L 391.972466 231.510292 
L 393.058267 230.649839 
L 394.144068 228.97075 
L 395.229869 227.595576 
L 396.31567 225.064678 
L 398.487273 222.058095 
L 398.487273 222.058095 
" clip-path="url(#pd8cf33066c)" style="fill: none; stroke: #ff00ff; stroke-width: 1.5; stroke-linecap: square"/>
   </g>
   <g id="line2d_24">
    <path d="M 182.412843 307.584 
L 182.412843 41.472 
" clip-path="url(#pd8cf33066c)" style="fill: none; stroke: #000000; stroke-width: 1.5; stroke-linecap: square"/>
   </g>
   <g id="patch_3">
    <path d="M 57.6 307.584 
L 57.6 41.472 
" style="fill: none; stroke: #000000; stroke-width: 0.8; stroke-linejoin: miter; stroke-linecap: square"/>
   </g>
   <g id="patch_4">
    <path d="M 414.72 307.584 
L 414.72 41.472 
" style="fill: none; stroke: #000000; stroke-width: 0.8; stroke-linejoin: miter; stroke-linecap: square"/>
   </g>
   <g id="patch_5">
    <path d="M 57.6 307.584 
L 414.72 307.584 
" style="fill: none; stroke: #000000; stroke-width: 0.8; stroke-linejoin: miter; stroke-linecap: square"/>
   </g>
   <g id="patch_6">
    <path d="M 57.6 41.472 
L 414.72 41.472 
" style="fill: none; stroke: #000000; stroke-width: 0.8; stroke-linejoin: miter; stroke-linecap: square"/>
   </g>
   <g id="text_25">
    <!-- Event 15_p=0.664 -->
    <g transform="translate(180.415312 35.472) scale(0.12 -0.12)">
     <defs>
      <path id="DejaVuSans-45" d="M 628 4666 
L 3578 4666 
L 3578 4134 
L 1259 4134 
L 1259 2753 
L 3481 2753 
L 3481 2222 
L 1259 2222 
L 1259 531 
L 3634 531 
L 3634 0 
L 628 0 
L 628 4666 
z
" transform="scale(0.015625)"/>
      <path id="DejaVuSans-76" d="M 191 3500 
L 800 3500 
L 1894 563 
L 2988 3500 
L 3597 3500 
L 2284 0 
L 1503 0 
L 191 3500 
z
" transform="scale(0.015625)"/>
      <path id="DejaVuSans-6e" d="M 3513 2113 
L 3513 0 
L 2938 0 
L 2938 2094 
Q 2938 2591 2744 2837 
Q 2550 3084 2163 3084 
Q 1697 3084 1428 2787 
Q 1159 2491 1159 1978 
L 1159 0 
L 581 0 
L 581 3500 
L 1159 3500 
L 1159 2956 
Q 1366 3272 1645 3428 
Q 1925 3584 2291 3584 
Q 2894 3584 3203 3211 
Q 3513 2838 3513 2113 
z
" transform="scale(0.015625)"/>
      <path id="DejaVuSans-74" d="M 1172 4494 
L 1172 3500 
L 2356 3500 
L 2356 3053 
L 1172 3053 
L 1172 1153 
Q 1172 725 1289 603 
Q 1406 481 1766 481 
L 2356 481 
L 2356 0 
L 1766 0 
Q 1100 0 847 248 
Q 594 497 594 1153 
L 594 3053 
L 172 3053 
L 172 3500 
L 594 3500 
L 594 4494 
L 1172 4494 
z
" transform="scale(0.015625)"/>
      <path id="DejaVuSans-5f" d="M 3263 -1063 
L 3263 -1509 
L -63 -1509 
L -63 -1063 
L 3263 -1063 
z
" transform="scale(0.015625)"/>
      <path id="DejaVuSans-70" d="M 1159 525 
L 1159 -1331 
L 581 -1331 
L 581 3500 
L 1159 3500 
L 1159 2969 
Q 1341 3281 1617 3432 
Q 1894 3584 2278 3584 
Q 2916 3584 3314 3078 
Q 3713 2572 3713 1747 
Q 3713 922 3314 415 
Q 2916 -91 2278 -91 
Q 1894 -91 1617 61 
Q 1341 213 1159 525 
z
M 3116 1747 
Q 3116 2381 2855 2742 
Q 2594 3103 2138 3103 
Q 1681 3103 1420 2742 
Q 1159 2381 1159 1747 
Q 1159 1113 1420 752 
Q 1681 391 2138 391 
Q 2594 391 2855 752 
Q 3116 1113 3116 1747 
z
" transform="scale(0.015625)"/>
      <path id="DejaVuSans-3d" d="M 678 2906 
L 4684 2906 
L 4684 2381 
L 678 2381 
L 678 2906 
z
M 678 1631 
L 4684 1631 
L 4684 1100 
L 678 1100 
L 678 1631 
z
" transform="scale(0.015625)"/>
      <path id="DejaVuSans-2e" d="M 684 794 
L 1344 794 
L 1344 0 
L 684 0 
L 684 794 
z
" transform="scale(0.015625)"/>
     </defs>
     <use xlink:href="#DejaVuSans-45"/>
     <use xlink:href="#DejaVuSans-76" x="63.183594"/>
     <use xlink:href="#DejaVuSans-65" x="122.363281"/>
     <use xlink:href="#DejaVuSans-6e" x="183.886719"/>
     <use xlink:href="#DejaVuSans-74" x="247.265625"/>
     <use xlink:href="#DejaVuSans-20" x="286.474609"/>
     <use xlink:href="#DejaVuSans-31" x="318.261719"/>
     <use xlink:href="#DejaVuSans-35" x="381.884766"/>
     <use xlink:href="#DejaVuSans-5f" x="445.507812"/>
     <use xlink:href="#DejaVuSans-70" x="495.507812"/>
     <use xlink:href="#DejaVuSans-3d" x="558.984375"/>
     <use xlink:href="#DejaVuSans-30" x="642.773438"/>
     <use xlink:href="#DejaVuSans-2e" x="706.396484"/>
     <use xlink:href="#DejaVuSans-36" x="738.183594"/>
     <use xlink:href="#DejaVuSans-36" x="801.806641"/>
     <use xlink:href="#DejaVuSans-34" x="865.429688"/>
    </g>
   </g>
  </g>
 </g>
 <defs>
  <clipPath id="pd8cf33066c">
   <rect x="57.6" y="41.472" width="357.12" height="266.112"/>
  </clipPath>
 </defs>
</svg>
