<?xml version="1.0" encoding="utf-8" standalone="no"?>
<!DOCTYPE svg PUBLIC "-//W3C//DTD SVG 1.1//EN"
  "http://www.w3.org/Graphics/SVG/1.1/DTD/svg11.dtd">
<svg xmlns:xlink="http://www.w3.org/1999/xlink" width="460.8pt" height="345.6pt" viewBox="0 0 460.8 345.6" xmlns="http://www.w3.org/2000/svg" version="1.1">
 <metadata>
  <rdf:RDF xmlns:dc="http://purl.org/dc/elements/1.1/" xmlns:cc="http://creativecommons.org/ns#" xmlns:rdf="http://www.w3.org/1999/02/22-rdf-syntax-ns#">
   <cc:Work>
    <dc:type rdf:resource="http://purl.org/dc/dcmitype/StillImage"/>
    <dc:date>2024-11-12T22:27:50.736080</dc:date>
    <dc:format>image/svg+xml</dc:format>
    <dc:creator>
     <cc:Agent>
      <dc:title>Matplotlib v3.8.2, https://matplotlib.org/</dc:title>
     </cc:Agent>
    </dc:creator>
   </cc:Work>
  </rdf:RDF>
 </metadata>
 <defs>
  <style type="text/css">*{stroke-linejoin: round; stroke-linecap: butt}</style>
 </defs>
 <g id="figure_1">
  <g id="patch_1">
   <path d="M 0 345.6 
L 460.8 345.6 
L 460.8 0 
L 0 0 
z
" style="fill: #ffffff"/>
  </g>
  <g id="axes_1">
   <g id="patch_2">
    <path d="M 57.6 307.584 
L 414.72 307.584 
L 414.72 41.472 
L 57.6 41.472 
z
" style="fill: #ffffff"/>
   </g>
   <g id="PolyCollection_1">
    <defs>
     <path id="meafab8681f" d="M 73.832727 -75.988315 
L 73.832727 -72.935997 
L 74.918528 -72.742228 
L 76.00433 -72.524529 
L 77.090131 -72.467756 
L 78.175932 -72.207948 
L 79.261733 -72.207952 
L 80.347534 -72.133336 
L 81.433335 -71.922323 
L 82.519137 -71.729616 
L 83.604938 -71.430402 
L 84.690739 -71.311658 
L 85.77654 -71.072435 
L 86.862341 -70.910391 
L 87.948142 -70.789689 
L 89.033943 -70.630999 
L 90.119745 -70.522886 
L 91.205546 -70.448578 
L 92.291347 -70.374837 
L 93.377148 -70.31341 
L 94.462949 -70.147113 
L 95.54875 -69.973304 
L 96.634552 -69.832185 
L 97.720353 -69.7926 
L 98.806154 -69.521379 
L 99.891955 -69.289404 
L 100.977756 -69.464872 
L 102.063557 -69.657922 
L 103.149358 -69.842627 
L 104.23516 -69.975124 
L 105.320961 -70.052154 
L 106.406762 -70.045695 
L 107.492563 -69.708256 
L 108.578364 -69.547656 
L 109.664165 -69.443091 
L 110.749967 -69.51205 
L 111.835768 -69.472168 
L 112.921569 -69.361815 
L 114.00737 -69.467962 
L 115.093171 -69.53269 
L 116.178972 -69.559708 
L 117.264773 -69.468656 
L 118.350575 -69.432917 
L 119.436376 -69.233679 
L 120.522177 -69.057435 
L 121.607978 -68.745052 
L 122.693779 -68.511018 
L 123.77958 -68.19731 
L 124.865382 -67.914155 
L 125.951183 -67.661482 
L 127.036984 -67.366889 
L 128.122785 -67.023934 
L 129.208586 -66.753306 
L 130.294387 -66.529246 
L 131.380189 -66.309956 
L 132.46599 -66.274003 
L 133.551791 -66.110634 
L 134.637592 -66.054201 
L 135.723393 -65.875618 
L 136.809194 -65.845098 
L 137.894995 -65.567401 
L 138.980797 -65.508003 
L 140.066598 -65.369517 
L 141.152399 -65.320784 
L 142.2382 -65.2205 
L 143.324001 -65.144708 
L 144.409802 -65.113819 
L 145.495604 -65.160212 
L 146.581405 -65.087121 
L 147.667206 -65.103303 
L 148.753007 -65.157641 
L 149.838808 -65.122854 
L 150.924609 -65.021405 
L 152.01041 -65.146063 
L 153.096212 -65.18505 
L 154.182013 -65.246393 
L 155.267814 -65.282538 
L 156.353615 -65.277583 
L 157.439416 -65.342859 
L 158.525217 -65.336519 
L 159.611019 -65.312892 
L 160.69682 -65.524236 
L 161.782621 -65.639095 
L 162.868422 -65.663692 
L 163.954223 -65.733379 
L 165.040024 -65.010959 
L 166.125825 -64.442183 
L 167.211627 -64.002768 
L 168.297428 -63.656804 
L 169.383229 -63.219143 
L 170.46903 -62.569801 
L 171.554831 -62.212346 
L 172.640632 -61.972356 
L 173.726434 -61.649109 
L 174.812235 -61.437798 
L 175.898036 -61.040533 
L 176.983837 -60.69591 
L 178.069638 -59.954448 
L 179.155439 -59.455345 
L 180.24124 -58.988644 
L 181.327042 -58.636935 
L 182.412843 -57.718495 
L 183.498644 -57.421082 
L 184.584445 -57.389484 
L 185.670246 -57.323684 
L 186.756047 -57.392537 
L 187.841849 -57.12594 
L 188.92765 -56.646611 
L 190.013451 -56.654399 
L 191.099252 -56.619899 
L 192.185053 -56.544047 
L 193.270854 -56.300399 
L 194.356656 -55.822639 
L 195.442457 -55.552878 
L 196.528258 -55.112128 
L 197.614059 -54.776872 
L 198.69986 -54.468353 
L 199.785661 -54.097454 
L 200.871462 -54.145521 
L 201.957264 -53.826149 
L 203.043065 -53.802794 
L 204.128866 -53.21654 
L 205.214667 -53.029837 
L 206.300468 -52.784313 
L 207.386269 -52.483487 
L 208.472071 -52.208948 
L 209.557872 -52.119172 
L 210.643673 -51.803347 
L 211.729474 -51.253539 
L 212.815275 -50.864684 
L 213.901076 -50.587027 
L 214.986877 -50.285117 
L 216.072679 -50.281506 
L 217.15848 -50.45898 
L 218.244281 -50.112 
L 219.330082 -50.367193 
L 220.415883 -50.202578 
L 221.501684 -50.181551 
L 222.587486 -50.357324 
L 223.673287 -50.588986 
L 224.759088 -50.671613 
L 225.844889 -50.547483 
L 226.93069 -50.783778 
L 228.016491 -51.083124 
L 229.102292 -51.253033 
L 230.188094 -51.180081 
L 231.273895 -51.115619 
L 232.359696 -51.345226 
L 233.445497 -51.464277 
L 234.531298 -51.426089 
L 235.617099 -51.352327 
L 236.702901 -51.46358 
L 237.788702 -51.215588 
L 238.874503 -51.290761 
L 239.960304 -51.218158 
L 241.046105 -51.256985 
L 242.131906 -51.437553 
L 243.217708 -51.374059 
L 244.303509 -51.358871 
L 245.38931 -51.536768 
L 246.475111 -51.928646 
L 247.560912 -51.87143 
L 248.646713 -51.863053 
L 249.732514 -51.985542 
L 250.818316 -52.118941 
L 251.904117 -52.07753 
L 252.989918 -51.824972 
L 254.075719 -51.936128 
L 255.16152 -52.165206 
L 256.247321 -52.535267 
L 257.333123 -52.973684 
L 258.418924 -53.978952 
L 259.504725 -55.062278 
L 260.590526 -56.409338 
L 261.676327 -57.788418 
L 262.762128 -59.719408 
L 263.847929 -60.70695 
L 264.933731 -60.68497 
L 266.019532 -60.64921 
L 267.105333 -60.580318 
L 268.191134 -60.568272 
L 269.276935 -60.559959 
L 270.362736 -60.428183 
L 271.448538 -60.332493 
L 272.534339 -60.211703 
L 273.62014 -60.223082 
L 274.705941 -60.198896 
L 275.791742 -60.213425 
L 276.877543 -60.113091 
L 277.963344 -59.907259 
L 279.049146 -59.623008 
L 280.134947 -59.484647 
L 281.220748 -59.409297 
L 282.306549 -59.290658 
L 283.39235 -59.056113 
L 284.478151 -58.949242 
L 285.563953 -58.891739 
L 286.649754 -58.896495 
L 287.735555 -58.846046 
L 288.821356 -58.959731 
L 289.907157 -59.002237 
L 290.992958 -59.077417 
L 292.07876 -59.185383 
L 293.164561 -59.136907 
L 294.250362 -59.158604 
L 295.336163 -59.267067 
L 296.421964 -59.297581 
L 297.507765 -59.264353 
L 298.593566 -59.222322 
L 299.679368 -59.251833 
L 300.765169 -59.198249 
L 301.85097 -59.290157 
L 302.936771 -59.441836 
L 304.022572 -59.499647 
L 305.108373 -59.568874 
L 306.194175 -59.604226 
L 307.279976 -59.653708 
L 308.365777 -59.731808 
L 309.451578 -59.842938 
L 310.537379 -59.903784 
L 311.62318 -60.049491 
L 312.708981 -60.074391 
L 313.794783 -60.234865 
L 314.880584 -60.324249 
L 315.966385 -60.204974 
L 317.052186 -60.376441 
L 318.137987 -60.527735 
L 319.223788 -60.781647 
L 320.30959 -61.0577 
L 321.395391 -61.248118 
L 322.481192 -61.365826 
L 323.566993 -61.585426 
L 324.652794 -61.711275 
L 325.738595 -61.833041 
L 326.824396 -62.099869 
L 327.910198 -62.292924 
L 328.995999 -62.444508 
L 330.0818 -62.493428 
L 331.167601 -62.626899 
L 332.253402 -62.690205 
L 333.339203 -62.697812 
L 334.425005 -62.838653 
L 335.510806 -62.983294 
L 336.596607 -63.090629 
L 337.682408 -63.162537 
L 338.768209 -63.15555 
L 339.85401 -63.213378 
L 340.939811 -63.21441 
L 342.025613 -63.247779 
L 343.111414 -63.317055 
L 344.197215 -63.307592 
L 345.283016 -63.417465 
L 346.368817 -63.338971 
L 347.454618 -63.387969 
L 348.54042 -63.54686 
L 349.626221 -63.479798 
L 350.712022 -63.498902 
L 351.797823 -63.550163 
L 352.883624 -63.429208 
L 353.969425 -63.322396 
L 355.055227 -63.128722 
L 356.141028 -63.153763 
L 357.226829 -63.128249 
L 358.31263 -63.075574 
L 359.398431 -62.961806 
L 360.484232 -62.931743 
L 361.570033 -63.032417 
L 362.655835 -63.093019 
L 363.741636 -63.060847 
L 364.827437 -63.10538 
L 365.913238 -63.03087 
L 366.999039 -62.921759 
L 368.08484 -62.887469 
L 369.170642 -62.875307 
L 370.256443 -62.85014 
L 371.342244 -62.733174 
L 372.428045 -62.522706 
L 373.513846 -62.418151 
L 374.599647 -62.398899 
L 375.685448 -62.351354 
L 376.77125 -62.413177 
L 377.857051 -62.362588 
L 378.942852 -62.41461 
L 380.028653 -62.651493 
L 381.114454 -62.723627 
L 382.200255 -62.785505 
L 383.286057 -62.747175 
L 384.371858 -62.690429 
L 385.457659 -62.712571 
L 386.54346 -62.865477 
L 387.629261 -62.864102 
L 388.715062 -62.885325 
L 389.800863 -63.036224 
L 390.886665 -63.026371 
L 391.972466 -63.140594 
L 393.058267 -63.190398 
L 394.144068 -63.480986 
L 395.229869 -63.603553 
L 396.31567 -63.771046 
L 397.401472 -64.020416 
L 398.487273 -64.192914 
L 398.487273 -292.032 
L 398.487273 -292.032 
L 397.401472 -291.701664 
L 396.31567 -291.132602 
L 395.229869 -290.509931 
L 394.144068 -290.034372 
L 393.058267 -289.42144 
L 391.972466 -288.591009 
L 390.886665 -287.336889 
L 389.800863 -286.172602 
L 388.715062 -285.161837 
L 387.629261 -284.48163 
L 386.54346 -283.24881 
L 385.457659 -282.173458 
L 384.371858 -280.74458 
L 383.286057 -279.437536 
L 382.200255 -277.910465 
L 381.114454 -276.611841 
L 380.028653 -275.38842 
L 378.942852 -274.045761 
L 377.857051 -272.714946 
L 376.77125 -271.317566 
L 375.685448 -269.763599 
L 374.599647 -268.644277 
L 373.513846 -267.493289 
L 372.428045 -266.107009 
L 371.342244 -264.634767 
L 370.256443 -263.574664 
L 369.170642 -262.417516 
L 368.08484 -261.087621 
L 366.999039 -260.09093 
L 365.913238 -258.852239 
L 364.827437 -257.504776 
L 363.741636 -256.143219 
L 362.655835 -254.806957 
L 361.570033 -253.732317 
L 360.484232 -253.014616 
L 359.398431 -252.294757 
L 358.31263 -251.474709 
L 357.226829 -251.118894 
L 356.141028 -250.839663 
L 355.055227 -250.533281 
L 353.969425 -250.321406 
L 352.883624 -250.106266 
L 351.797823 -250.393318 
L 350.712022 -250.371073 
L 349.626221 -250.228988 
L 348.54042 -250.22459 
L 347.454618 -249.899392 
L 346.368817 -249.15521 
L 345.283016 -248.649553 
L 344.197215 -248.455111 
L 343.111414 -248.594994 
L 342.025613 -248.16858 
L 340.939811 -248.051688 
L 339.85401 -248.197385 
L 338.768209 -247.907268 
L 337.682408 -247.74549 
L 336.596607 -247.543176 
L 335.510806 -247.500285 
L 334.425005 -246.45146 
L 333.339203 -245.660908 
L 332.253402 -244.985264 
L 331.167601 -243.944016 
L 330.0818 -243.14391 
L 328.995999 -242.054307 
L 327.910198 -240.862032 
L 326.824396 -239.745437 
L 325.738595 -238.068833 
L 324.652794 -235.853481 
L 323.566993 -233.199739 
L 322.481192 -230.738043 
L 321.395391 -227.973378 
L 320.30959 -224.682926 
L 319.223788 -221.193803 
L 318.137987 -218.05499 
L 317.052186 -214.432232 
L 315.966385 -210.650441 
L 314.880584 -207.257205 
L 313.794783 -204.047116 
L 312.708981 -200.889293 
L 311.62318 -197.447678 
L 310.537379 -193.813105 
L 309.451578 -190.212211 
L 308.365777 -186.804255 
L 307.279976 -183.336833 
L 306.194175 -179.642819 
L 305.108373 -176.006531 
L 304.022572 -172.434645 
L 302.936771 -168.869778 
L 301.85097 -165.867871 
L 300.765169 -162.910377 
L 299.679368 -160.15933 
L 298.593566 -157.386454 
L 297.507765 -154.754534 
L 296.421964 -151.9666 
L 295.336163 -149.257551 
L 294.250362 -146.205712 
L 293.164561 -142.799711 
L 292.07876 -139.619137 
L 290.992958 -136.469921 
L 289.907157 -133.462902 
L 288.821356 -130.196323 
L 287.735555 -127.014958 
L 286.649754 -123.827338 
L 285.563953 -120.99305 
L 284.478151 -117.728246 
L 283.39235 -114.601018 
L 282.306549 -111.768803 
L 281.220748 -108.516593 
L 280.134947 -105.296022 
L 279.049146 -102.04218 
L 277.963344 -99.222224 
L 276.877543 -96.134147 
L 275.791742 -92.653785 
L 274.705941 -89.576123 
L 273.62014 -86.450547 
L 272.534339 -83.440599 
L 271.448538 -80.268779 
L 270.362736 -77.61873 
L 269.276935 -74.86007 
L 268.191134 -72.126695 
L 267.105333 -69.365565 
L 266.019532 -66.782839 
L 264.933731 -64.197371 
L 263.847929 -61.988297 
L 262.762128 -60.807328 
L 261.676327 -60.867545 
L 260.590526 -60.908561 
L 259.504725 -60.839742 
L 258.418924 -60.827972 
L 257.333123 -60.733441 
L 256.247321 -60.764288 
L 255.16152 -60.846229 
L 254.075719 -60.926594 
L 252.989918 -60.873231 
L 251.904117 -60.87067 
L 250.818316 -60.744657 
L 249.732514 -60.795157 
L 248.646713 -60.925597 
L 247.560912 -60.887448 
L 246.475111 -60.897517 
L 245.38931 -60.877936 
L 244.303509 -60.881737 
L 243.217708 -60.840052 
L 242.131906 -60.782433 
L 241.046105 -60.836927 
L 239.960304 -60.791929 
L 238.874503 -60.847101 
L 237.788702 -60.916477 
L 236.702901 -61.05112 
L 235.617099 -61.101048 
L 234.531298 -61.205618 
L 233.445497 -61.148435 
L 232.359696 -61.170298 
L 231.273895 -61.271219 
L 230.188094 -61.413312 
L 229.102292 -61.496563 
L 228.016491 -61.53818 
L 226.93069 -61.778739 
L 225.844889 -61.779211 
L 224.759088 -61.674463 
L 223.673287 -61.865709 
L 222.587486 -62.013915 
L 221.501684 -62.090551 
L 220.415883 -62.092746 
L 219.330082 -62.106622 
L 218.244281 -61.945911 
L 217.15848 -61.901261 
L 216.072679 -61.910213 
L 214.986877 -61.878298 
L 213.901076 -61.773907 
L 212.815275 -61.707796 
L 211.729474 -61.727193 
L 210.643673 -61.818686 
L 209.557872 -61.978253 
L 208.472071 -62.054092 
L 207.386269 -62.21507 
L 206.300468 -62.284894 
L 205.214667 -62.349935 
L 204.128866 -62.475226 
L 203.043065 -62.676443 
L 201.957264 -62.666637 
L 200.871462 -62.781544 
L 199.785661 -62.75209 
L 198.69986 -62.79189 
L 197.614059 -62.956143 
L 196.528258 -63.2051 
L 195.442457 -63.332343 
L 194.356656 -63.545538 
L 193.270854 -63.745504 
L 192.185053 -63.969816 
L 191.099252 -64.071033 
L 190.013451 -64.277136 
L 188.92765 -64.446065 
L 187.841849 -64.663218 
L 186.756047 -64.811098 
L 185.670246 -64.940986 
L 184.584445 -65.111356 
L 183.498644 -65.176681 
L 182.412843 -65.387217 
L 181.327042 -65.876904 
L 180.24124 -66.016084 
L 179.155439 -66.172963 
L 178.069638 -66.313777 
L 176.983837 -66.534829 
L 175.898036 -66.639755 
L 174.812235 -66.693898 
L 173.726434 -66.75117 
L 172.640632 -66.713798 
L 171.554831 -66.575405 
L 170.46903 -66.443702 
L 169.383229 -66.431554 
L 168.297428 -66.289985 
L 167.211627 -66.113657 
L 166.125825 -66.040807 
L 165.040024 -65.843773 
L 163.954223 -65.750511 
L 162.868422 -66.078022 
L 161.782621 -66.29886 
L 160.69682 -66.554179 
L 159.611019 -66.962425 
L 158.525217 -67.150533 
L 157.439416 -67.521578 
L 156.353615 -67.685885 
L 155.267814 -68.117769 
L 154.182013 -68.104621 
L 153.096212 -68.504481 
L 152.01041 -68.760792 
L 150.924609 -68.72867 
L 149.838808 -68.813223 
L 148.753007 -68.937614 
L 147.667206 -68.971438 
L 146.581405 -68.886604 
L 145.495604 -69.038523 
L 144.409802 -68.940458 
L 143.324001 -69.235239 
L 142.2382 -69.45784 
L 141.152399 -69.664347 
L 140.066598 -69.877626 
L 138.980797 -69.916159 
L 137.894995 -70.100325 
L 136.809194 -70.495252 
L 135.723393 -70.5282 
L 134.637592 -70.558843 
L 133.551791 -70.39085 
L 132.46599 -70.425403 
L 131.380189 -70.352457 
L 130.294387 -70.215659 
L 129.208586 -70.149072 
L 128.122785 -70.57264 
L 127.036984 -70.620878 
L 125.951183 -70.689838 
L 124.865382 -70.313985 
L 123.77958 -70.230683 
L 122.693779 -70.438674 
L 121.607978 -70.564218 
L 120.522177 -70.796803 
L 119.436376 -70.801103 
L 118.350575 -71.040325 
L 117.264773 -71.007731 
L 116.178972 -70.966128 
L 115.093171 -70.763181 
L 114.00737 -70.648753 
L 112.921569 -70.394206 
L 111.835768 -70.432831 
L 110.749967 -70.263583 
L 109.664165 -70.215224 
L 108.578364 -70.348025 
L 107.492563 -70.345716 
L 106.406762 -70.291241 
L 105.320961 -70.220437 
L 104.23516 -70.464332 
L 103.149358 -70.717395 
L 102.063557 -70.951053 
L 100.977756 -71.366716 
L 99.891955 -71.507375 
L 98.806154 -71.793177 
L 97.720353 -72.071604 
L 96.634552 -72.212469 
L 95.54875 -72.458807 
L 94.462949 -72.472516 
L 93.377148 -72.540992 
L 92.291347 -72.727034 
L 91.205546 -72.867465 
L 90.119745 -73.049267 
L 89.033943 -73.231107 
L 87.948142 -73.416359 
L 86.862341 -73.638668 
L 85.77654 -73.789731 
L 84.690739 -73.950798 
L 83.604938 -74.115593 
L 82.519137 -74.331403 
L 81.433335 -74.567384 
L 80.347534 -74.687104 
L 79.261733 -75.017656 
L 78.175932 -75.227904 
L 77.090131 -75.351463 
L 76.00433 -75.506188 
L 74.918528 -75.79434 
L 73.832727 -75.988315 
z
" style="stroke: #ff00ff; stroke-opacity: 0.1"/>
    </defs>
    <g clip-path="url(#paec74e2c56)">
     <use xlink:href="#meafab8681f" x="0" y="345.6" style="fill: #ff00ff; fill-opacity: 0.1; stroke: #ff00ff; stroke-opacity: 0.1"/>
    </g>
   </g>
   <g id="matplotlib.axis_1">
    <g id="xtick_1">
     <g id="line2d_1">
      <defs>
       <path id="m5ae6e99d55" d="M 0 0 
L 0 3.5 
" style="stroke: #000000; stroke-width: 0.8"/>
      </defs>
      <g>
       <use xlink:href="#m5ae6e99d55" x="73.832727" y="307.584" style="stroke: #000000; stroke-width: 0.8"/>
      </g>
     </g>
     <g id="text_1">
      <!-- −5 -->
      <g transform="translate(66.461634 322.182437) scale(0.1 -0.1)">
       <defs>
        <path id="DejaVuSans-2212" d="M 678 2272 
L 4684 2272 
L 4684 1741 
L 678 1741 
L 678 2272 
z
" transform="scale(0.015625)"/>
        <path id="DejaVuSans-35" d="M 691 4666 
L 3169 4666 
L 3169 4134 
L 1269 4134 
L 1269 2991 
Q 1406 3038 1543 3061 
Q 1681 3084 1819 3084 
Q 2600 3084 3056 2656 
Q 3513 2228 3513 1497 
Q 3513 744 3044 326 
Q 2575 -91 1722 -91 
Q 1428 -91 1123 -41 
Q 819 9 494 109 
L 494 744 
Q 775 591 1075 516 
Q 1375 441 1709 441 
Q 2250 441 2565 725 
Q 2881 1009 2881 1497 
Q 2881 1984 2565 2268 
Q 2250 2553 1709 2553 
Q 1456 2553 1204 2497 
Q 953 2441 691 2322 
L 691 4666 
z
" transform="scale(0.015625)"/>
       </defs>
       <use xlink:href="#DejaVuSans-2212"/>
       <use xlink:href="#DejaVuSans-35" x="83.789062"/>
      </g>
     </g>
    </g>
    <g id="xtick_2">
     <g id="line2d_2">
      <g>
       <use xlink:href="#m5ae6e99d55" x="95.54875" y="307.584" style="stroke: #000000; stroke-width: 0.8"/>
      </g>
     </g>
     <g id="text_2">
      <!-- −4 -->
      <g transform="translate(88.177657 322.182437) scale(0.1 -0.1)">
       <defs>
        <path id="DejaVuSans-34" d="M 2419 4116 
L 825 1625 
L 2419 1625 
L 2419 4116 
z
M 2253 4666 
L 3047 4666 
L 3047 1625 
L 3713 1625 
L 3713 1100 
L 3047 1100 
L 3047 0 
L 2419 0 
L 2419 1100 
L 313 1100 
L 313 1709 
L 2253 4666 
z
" transform="scale(0.015625)"/>
       </defs>
       <use xlink:href="#DejaVuSans-2212"/>
       <use xlink:href="#DejaVuSans-34" x="83.789062"/>
      </g>
     </g>
    </g>
    <g id="xtick_3">
     <g id="line2d_3">
      <g>
       <use xlink:href="#m5ae6e99d55" x="117.264773" y="307.584" style="stroke: #000000; stroke-width: 0.8"/>
      </g>
     </g>
     <g id="text_3">
      <!-- −3 -->
      <g transform="translate(109.89368 322.182437) scale(0.1 -0.1)">
       <defs>
        <path id="DejaVuSans-33" d="M 2597 2516 
Q 3050 2419 3304 2112 
Q 3559 1806 3559 1356 
Q 3559 666 3084 287 
Q 2609 -91 1734 -91 
Q 1441 -91 1130 -33 
Q 819 25 488 141 
L 488 750 
Q 750 597 1062 519 
Q 1375 441 1716 441 
Q 2309 441 2620 675 
Q 2931 909 2931 1356 
Q 2931 1769 2642 2001 
Q 2353 2234 1838 2234 
L 1294 2234 
L 1294 2753 
L 1863 2753 
Q 2328 2753 2575 2939 
Q 2822 3125 2822 3475 
Q 2822 3834 2567 4026 
Q 2313 4219 1838 4219 
Q 1578 4219 1281 4162 
Q 984 4106 628 3988 
L 628 4550 
Q 988 4650 1302 4700 
Q 1616 4750 1894 4750 
Q 2613 4750 3031 4423 
Q 3450 4097 3450 3541 
Q 3450 3153 3228 2886 
Q 3006 2619 2597 2516 
z
" transform="scale(0.015625)"/>
       </defs>
       <use xlink:href="#DejaVuSans-2212"/>
       <use xlink:href="#DejaVuSans-33" x="83.789062"/>
      </g>
     </g>
    </g>
    <g id="xtick_4">
     <g id="line2d_4">
      <g>
       <use xlink:href="#m5ae6e99d55" x="138.980797" y="307.584" style="stroke: #000000; stroke-width: 0.8"/>
      </g>
     </g>
     <g id="text_4">
      <!-- −2 -->
      <g transform="translate(131.609703 322.182437) scale(0.1 -0.1)">
       <defs>
        <path id="DejaVuSans-32" d="M 1228 531 
L 3431 531 
L 3431 0 
L 469 0 
L 469 531 
Q 828 903 1448 1529 
Q 2069 2156 2228 2338 
Q 2531 2678 2651 2914 
Q 2772 3150 2772 3378 
Q 2772 3750 2511 3984 
Q 2250 4219 1831 4219 
Q 1534 4219 1204 4116 
Q 875 4013 500 3803 
L 500 4441 
Q 881 4594 1212 4672 
Q 1544 4750 1819 4750 
Q 2544 4750 2975 4387 
Q 3406 4025 3406 3419 
Q 3406 3131 3298 2873 
Q 3191 2616 2906 2266 
Q 2828 2175 2409 1742 
Q 1991 1309 1228 531 
z
" transform="scale(0.015625)"/>
       </defs>
       <use xlink:href="#DejaVuSans-2212"/>
       <use xlink:href="#DejaVuSans-32" x="83.789062"/>
      </g>
     </g>
    </g>
    <g id="xtick_5">
     <g id="line2d_5">
      <g>
       <use xlink:href="#m5ae6e99d55" x="160.69682" y="307.584" style="stroke: #000000; stroke-width: 0.8"/>
      </g>
     </g>
     <g id="text_5">
      <!-- −1 -->
      <g transform="translate(153.325726 322.182437) scale(0.1 -0.1)">
       <defs>
        <path id="DejaVuSans-31" d="M 794 531 
L 1825 531 
L 1825 4091 
L 703 3866 
L 703 4441 
L 1819 4666 
L 2450 4666 
L 2450 531 
L 3481 531 
L 3481 0 
L 794 0 
L 794 531 
z
" transform="scale(0.015625)"/>
       </defs>
       <use xlink:href="#DejaVuSans-2212"/>
       <use xlink:href="#DejaVuSans-31" x="83.789062"/>
      </g>
     </g>
    </g>
    <g id="xtick_6">
     <g id="line2d_6">
      <g>
       <use xlink:href="#m5ae6e99d55" x="182.412843" y="307.584" style="stroke: #000000; stroke-width: 0.8"/>
      </g>
     </g>
     <g id="text_6">
      <!-- 0 -->
      <g transform="translate(179.231593 322.182437) scale(0.1 -0.1)">
       <defs>
        <path id="DejaVuSans-30" d="M 2034 4250 
Q 1547 4250 1301 3770 
Q 1056 3291 1056 2328 
Q 1056 1369 1301 889 
Q 1547 409 2034 409 
Q 2525 409 2770 889 
Q 3016 1369 3016 2328 
Q 3016 3291 2770 3770 
Q 2525 4250 2034 4250 
z
M 2034 4750 
Q 2819 4750 3233 4129 
Q 3647 3509 3647 2328 
Q 3647 1150 3233 529 
Q 2819 -91 2034 -91 
Q 1250 -91 836 529 
Q 422 1150 422 2328 
Q 422 3509 836 4129 
Q 1250 4750 2034 4750 
z
" transform="scale(0.015625)"/>
       </defs>
       <use xlink:href="#DejaVuSans-30"/>
      </g>
     </g>
    </g>
    <g id="xtick_7">
     <g id="line2d_7">
      <g>
       <use xlink:href="#m5ae6e99d55" x="204.128866" y="307.584" style="stroke: #000000; stroke-width: 0.8"/>
      </g>
     </g>
     <g id="text_7">
      <!-- 1 -->
      <g transform="translate(200.947616 322.182437) scale(0.1 -0.1)">
       <use xlink:href="#DejaVuSans-31"/>
      </g>
     </g>
    </g>
    <g id="xtick_8">
     <g id="line2d_8">
      <g>
       <use xlink:href="#m5ae6e99d55" x="225.844889" y="307.584" style="stroke: #000000; stroke-width: 0.8"/>
      </g>
     </g>
     <g id="text_8">
      <!-- 2 -->
      <g transform="translate(222.663639 322.182437) scale(0.1 -0.1)">
       <use xlink:href="#DejaVuSans-32"/>
      </g>
     </g>
    </g>
    <g id="xtick_9">
     <g id="line2d_9">
      <g>
       <use xlink:href="#m5ae6e99d55" x="247.560912" y="307.584" style="stroke: #000000; stroke-width: 0.8"/>
      </g>
     </g>
     <g id="text_9">
      <!-- 3 -->
      <g transform="translate(244.379662 322.182437) scale(0.1 -0.1)">
       <use xlink:href="#DejaVuSans-33"/>
      </g>
     </g>
    </g>
    <g id="xtick_10">
     <g id="line2d_10">
      <g>
       <use xlink:href="#m5ae6e99d55" x="269.276935" y="307.584" style="stroke: #000000; stroke-width: 0.8"/>
      </g>
     </g>
     <g id="text_10">
      <!-- 4 -->
      <g transform="translate(266.095685 322.182437) scale(0.1 -0.1)">
       <use xlink:href="#DejaVuSans-34"/>
      </g>
     </g>
    </g>
    <g id="xtick_11">
     <g id="line2d_11">
      <g>
       <use xlink:href="#m5ae6e99d55" x="290.992958" y="307.584" style="stroke: #000000; stroke-width: 0.8"/>
      </g>
     </g>
     <g id="text_11">
      <!-- 5 -->
      <g transform="translate(287.811708 322.182437) scale(0.1 -0.1)">
       <use xlink:href="#DejaVuSans-35"/>
      </g>
     </g>
    </g>
    <g id="xtick_12">
     <g id="line2d_12">
      <g>
       <use xlink:href="#m5ae6e99d55" x="312.708981" y="307.584" style="stroke: #000000; stroke-width: 0.8"/>
      </g>
     </g>
     <g id="text_12">
      <!-- 6 -->
      <g transform="translate(309.527731 322.182437) scale(0.1 -0.1)">
       <defs>
        <path id="DejaVuSans-36" d="M 2113 2584 
Q 1688 2584 1439 2293 
Q 1191 2003 1191 1497 
Q 1191 994 1439 701 
Q 1688 409 2113 409 
Q 2538 409 2786 701 
Q 3034 994 3034 1497 
Q 3034 2003 2786 2293 
Q 2538 2584 2113 2584 
z
M 3366 4563 
L 3366 3988 
Q 3128 4100 2886 4159 
Q 2644 4219 2406 4219 
Q 1781 4219 1451 3797 
Q 1122 3375 1075 2522 
Q 1259 2794 1537 2939 
Q 1816 3084 2150 3084 
Q 2853 3084 3261 2657 
Q 3669 2231 3669 1497 
Q 3669 778 3244 343 
Q 2819 -91 2113 -91 
Q 1303 -91 875 529 
Q 447 1150 447 2328 
Q 447 3434 972 4092 
Q 1497 4750 2381 4750 
Q 2619 4750 2861 4703 
Q 3103 4656 3366 4563 
z
" transform="scale(0.015625)"/>
       </defs>
       <use xlink:href="#DejaVuSans-36"/>
      </g>
     </g>
    </g>
    <g id="xtick_13">
     <g id="line2d_13">
      <g>
       <use xlink:href="#m5ae6e99d55" x="334.425005" y="307.584" style="stroke: #000000; stroke-width: 0.8"/>
      </g>
     </g>
     <g id="text_13">
      <!-- 7 -->
      <g transform="translate(331.243755 322.182437) scale(0.1 -0.1)">
       <defs>
        <path id="DejaVuSans-37" d="M 525 4666 
L 3525 4666 
L 3525 4397 
L 1831 0 
L 1172 0 
L 2766 4134 
L 525 4134 
L 525 4666 
z
" transform="scale(0.015625)"/>
       </defs>
       <use xlink:href="#DejaVuSans-37"/>
      </g>
     </g>
    </g>
    <g id="xtick_14">
     <g id="line2d_14">
      <g>
       <use xlink:href="#m5ae6e99d55" x="356.141028" y="307.584" style="stroke: #000000; stroke-width: 0.8"/>
      </g>
     </g>
     <g id="text_14">
      <!-- 8 -->
      <g transform="translate(352.959778 322.182437) scale(0.1 -0.1)">
       <defs>
        <path id="DejaVuSans-38" d="M 2034 2216 
Q 1584 2216 1326 1975 
Q 1069 1734 1069 1313 
Q 1069 891 1326 650 
Q 1584 409 2034 409 
Q 2484 409 2743 651 
Q 3003 894 3003 1313 
Q 3003 1734 2745 1975 
Q 2488 2216 2034 2216 
z
M 1403 2484 
Q 997 2584 770 2862 
Q 544 3141 544 3541 
Q 544 4100 942 4425 
Q 1341 4750 2034 4750 
Q 2731 4750 3128 4425 
Q 3525 4100 3525 3541 
Q 3525 3141 3298 2862 
Q 3072 2584 2669 2484 
Q 3125 2378 3379 2068 
Q 3634 1759 3634 1313 
Q 3634 634 3220 271 
Q 2806 -91 2034 -91 
Q 1263 -91 848 271 
Q 434 634 434 1313 
Q 434 1759 690 2068 
Q 947 2378 1403 2484 
z
M 1172 3481 
Q 1172 3119 1398 2916 
Q 1625 2713 2034 2713 
Q 2441 2713 2670 2916 
Q 2900 3119 2900 3481 
Q 2900 3844 2670 4047 
Q 2441 4250 2034 4250 
Q 1625 4250 1398 4047 
Q 1172 3844 1172 3481 
z
" transform="scale(0.015625)"/>
       </defs>
       <use xlink:href="#DejaVuSans-38"/>
      </g>
     </g>
    </g>
    <g id="xtick_15">
     <g id="line2d_15">
      <g>
       <use xlink:href="#m5ae6e99d55" x="377.857051" y="307.584" style="stroke: #000000; stroke-width: 0.8"/>
      </g>
     </g>
     <g id="text_15">
      <!-- 9 -->
      <g transform="translate(374.675801 322.182437) scale(0.1 -0.1)">
       <defs>
        <path id="DejaVuSans-39" d="M 703 97 
L 703 672 
Q 941 559 1184 500 
Q 1428 441 1663 441 
Q 2288 441 2617 861 
Q 2947 1281 2994 2138 
Q 2813 1869 2534 1725 
Q 2256 1581 1919 1581 
Q 1219 1581 811 2004 
Q 403 2428 403 3163 
Q 403 3881 828 4315 
Q 1253 4750 1959 4750 
Q 2769 4750 3195 4129 
Q 3622 3509 3622 2328 
Q 3622 1225 3098 567 
Q 2575 -91 1691 -91 
Q 1453 -91 1209 -44 
Q 966 3 703 97 
z
M 1959 2075 
Q 2384 2075 2632 2365 
Q 2881 2656 2881 3163 
Q 2881 3666 2632 3958 
Q 2384 4250 1959 4250 
Q 1534 4250 1286 3958 
Q 1038 3666 1038 3163 
Q 1038 2656 1286 2365 
Q 1534 2075 1959 2075 
z
" transform="scale(0.015625)"/>
       </defs>
       <use xlink:href="#DejaVuSans-39"/>
      </g>
     </g>
    </g>
    <g id="xtick_16">
     <g id="line2d_16">
      <g>
       <use xlink:href="#m5ae6e99d55" x="399.573074" y="307.584" style="stroke: #000000; stroke-width: 0.8"/>
      </g>
     </g>
     <g id="text_16">
      <!-- 10 -->
      <g transform="translate(393.210574 322.182437) scale(0.1 -0.1)">
       <use xlink:href="#DejaVuSans-31"/>
       <use xlink:href="#DejaVuSans-30" x="63.623047"/>
      </g>
     </g>
    </g>
    <g id="text_17">
     <!-- Time (s) -->
     <g transform="translate(215.831094 335.860562) scale(0.1 -0.1)">
      <defs>
       <path id="DejaVuSans-54" d="M -19 4666 
L 3928 4666 
L 3928 4134 
L 2272 4134 
L 2272 0 
L 1638 0 
L 1638 4134 
L -19 4134 
L -19 4666 
z
" transform="scale(0.015625)"/>
       <path id="DejaVuSans-69" d="M 603 3500 
L 1178 3500 
L 1178 0 
L 603 0 
L 603 3500 
z
M 603 4863 
L 1178 4863 
L 1178 4134 
L 603 4134 
L 603 4863 
z
" transform="scale(0.015625)"/>
       <path id="DejaVuSans-6d" d="M 3328 2828 
Q 3544 3216 3844 3400 
Q 4144 3584 4550 3584 
Q 5097 3584 5394 3201 
Q 5691 2819 5691 2113 
L 5691 0 
L 5113 0 
L 5113 2094 
Q 5113 2597 4934 2840 
Q 4756 3084 4391 3084 
Q 3944 3084 3684 2787 
Q 3425 2491 3425 1978 
L 3425 0 
L 2847 0 
L 2847 2094 
Q 2847 2600 2669 2842 
Q 2491 3084 2119 3084 
Q 1678 3084 1418 2786 
Q 1159 2488 1159 1978 
L 1159 0 
L 581 0 
L 581 3500 
L 1159 3500 
L 1159 2956 
Q 1356 3278 1631 3431 
Q 1906 3584 2284 3584 
Q 2666 3584 2933 3390 
Q 3200 3197 3328 2828 
z
" transform="scale(0.015625)"/>
       <path id="DejaVuSans-65" d="M 3597 1894 
L 3597 1613 
L 953 1613 
Q 991 1019 1311 708 
Q 1631 397 2203 397 
Q 2534 397 2845 478 
Q 3156 559 3463 722 
L 3463 178 
Q 3153 47 2828 -22 
Q 2503 -91 2169 -91 
Q 1331 -91 842 396 
Q 353 884 353 1716 
Q 353 2575 817 3079 
Q 1281 3584 2069 3584 
Q 2775 3584 3186 3129 
Q 3597 2675 3597 1894 
z
M 3022 2063 
Q 3016 2534 2758 2815 
Q 2500 3097 2075 3097 
Q 1594 3097 1305 2825 
Q 1016 2553 972 2059 
L 3022 2063 
z
" transform="scale(0.015625)"/>
       <path id="DejaVuSans-20" transform="scale(0.015625)"/>
       <path id="DejaVuSans-28" d="M 1984 4856 
Q 1566 4138 1362 3434 
Q 1159 2731 1159 2009 
Q 1159 1288 1364 580 
Q 1569 -128 1984 -844 
L 1484 -844 
Q 1016 -109 783 600 
Q 550 1309 550 2009 
Q 550 2706 781 3412 
Q 1013 4119 1484 4856 
L 1984 4856 
z
" transform="scale(0.015625)"/>
       <path id="DejaVuSans-73" d="M 2834 3397 
L 2834 2853 
Q 2591 2978 2328 3040 
Q 2066 3103 1784 3103 
Q 1356 3103 1142 2972 
Q 928 2841 928 2578 
Q 928 2378 1081 2264 
Q 1234 2150 1697 2047 
L 1894 2003 
Q 2506 1872 2764 1633 
Q 3022 1394 3022 966 
Q 3022 478 2636 193 
Q 2250 -91 1575 -91 
Q 1294 -91 989 -36 
Q 684 19 347 128 
L 347 722 
Q 666 556 975 473 
Q 1284 391 1588 391 
Q 1994 391 2212 530 
Q 2431 669 2431 922 
Q 2431 1156 2273 1281 
Q 2116 1406 1581 1522 
L 1381 1569 
Q 847 1681 609 1914 
Q 372 2147 372 2553 
Q 372 3047 722 3315 
Q 1072 3584 1716 3584 
Q 2034 3584 2315 3537 
Q 2597 3491 2834 3397 
z
" transform="scale(0.015625)"/>
       <path id="DejaVuSans-29" d="M 513 4856 
L 1013 4856 
Q 1481 4119 1714 3412 
Q 1947 2706 1947 2009 
Q 1947 1309 1714 600 
Q 1481 -109 1013 -844 
L 513 -844 
Q 928 -128 1133 580 
Q 1338 1288 1338 2009 
Q 1338 2731 1133 3434 
Q 928 4138 513 4856 
z
" transform="scale(0.015625)"/>
      </defs>
      <use xlink:href="#DejaVuSans-54"/>
      <use xlink:href="#DejaVuSans-69" x="57.958984"/>
      <use xlink:href="#DejaVuSans-6d" x="85.742188"/>
      <use xlink:href="#DejaVuSans-65" x="183.154297"/>
      <use xlink:href="#DejaVuSans-20" x="244.677734"/>
      <use xlink:href="#DejaVuSans-28" x="276.464844"/>
      <use xlink:href="#DejaVuSans-73" x="315.478516"/>
      <use xlink:href="#DejaVuSans-29" x="367.578125"/>
     </g>
    </g>
   </g>
   <g id="matplotlib.axis_2">
    <g id="ytick_1">
     <g id="line2d_17">
      <defs>
       <path id="md5f8ee02ce" d="M 0 0 
L -3.5 0 
" style="stroke: #000000; stroke-width: 0.8"/>
      </defs>
      <g>
       <use xlink:href="#md5f8ee02ce" x="57.6" y="276.9191" style="stroke: #000000; stroke-width: 0.8"/>
      </g>
     </g>
     <g id="text_18">
      <!-- 0 -->
      <g transform="translate(44.2375 280.718319) scale(0.1 -0.1)">
       <use xlink:href="#DejaVuSans-30"/>
      </g>
     </g>
    </g>
    <g id="ytick_2">
     <g id="line2d_18">
      <g>
       <use xlink:href="#md5f8ee02ce" x="57.6" y="243.265812" style="stroke: #000000; stroke-width: 0.8"/>
      </g>
     </g>
     <g id="text_19">
      <!-- 10 -->
      <g transform="translate(37.875 247.065031) scale(0.1 -0.1)">
       <use xlink:href="#DejaVuSans-31"/>
       <use xlink:href="#DejaVuSans-30" x="63.623047"/>
      </g>
     </g>
    </g>
    <g id="ytick_3">
     <g id="line2d_19">
      <g>
       <use xlink:href="#md5f8ee02ce" x="57.6" y="209.612523" style="stroke: #000000; stroke-width: 0.8"/>
      </g>
     </g>
     <g id="text_20">
      <!-- 20 -->
      <g transform="translate(37.875 213.411742) scale(0.1 -0.1)">
       <use xlink:href="#DejaVuSans-32"/>
       <use xlink:href="#DejaVuSans-30" x="63.623047"/>
      </g>
     </g>
    </g>
    <g id="ytick_4">
     <g id="line2d_20">
      <g>
       <use xlink:href="#md5f8ee02ce" x="57.6" y="175.959235" style="stroke: #000000; stroke-width: 0.8"/>
      </g>
     </g>
     <g id="text_21">
      <!-- 30 -->
      <g transform="translate(37.875 179.758454) scale(0.1 -0.1)">
       <use xlink:href="#DejaVuSans-33"/>
       <use xlink:href="#DejaVuSans-30" x="63.623047"/>
      </g>
     </g>
    </g>
    <g id="ytick_5">
     <g id="line2d_21">
      <g>
       <use xlink:href="#md5f8ee02ce" x="57.6" y="142.305946" style="stroke: #000000; stroke-width: 0.8"/>
      </g>
     </g>
     <g id="text_22">
      <!-- 40 -->
      <g transform="translate(37.875 146.105165) scale(0.1 -0.1)">
       <use xlink:href="#DejaVuSans-34"/>
       <use xlink:href="#DejaVuSans-30" x="63.623047"/>
      </g>
     </g>
    </g>
    <g id="ytick_6">
     <g id="line2d_22">
      <g>
       <use xlink:href="#md5f8ee02ce" x="57.6" y="108.652658" style="stroke: #000000; stroke-width: 0.8"/>
      </g>
     </g>
     <g id="text_23">
      <!-- 50 -->
      <g transform="translate(37.875 112.451877) scale(0.1 -0.1)">
       <use xlink:href="#DejaVuSans-35"/>
       <use xlink:href="#DejaVuSans-30" x="63.623047"/>
      </g>
     </g>
    </g>
    <g id="ytick_7">
     <g id="line2d_23">
      <g>
       <use xlink:href="#md5f8ee02ce" x="57.6" y="74.999369" style="stroke: #000000; stroke-width: 0.8"/>
      </g>
     </g>
     <g id="text_24">
      <!-- 60 -->
      <g transform="translate(37.875 78.798588) scale(0.1 -0.1)">
       <use xlink:href="#DejaVuSans-36"/>
       <use xlink:href="#DejaVuSans-30" x="63.623047"/>
      </g>
     </g>
    </g>
    <g id="text_25">
     <!-- Z-Score -->
     <g transform="translate(31.795312 193.67175) rotate(-90) scale(0.1 -0.1)">
      <defs>
       <path id="DejaVuSans-5a" d="M 359 4666 
L 4025 4666 
L 4025 4184 
L 1075 531 
L 4097 531 
L 4097 0 
L 288 0 
L 288 481 
L 3238 4134 
L 359 4134 
L 359 4666 
z
" transform="scale(0.015625)"/>
       <path id="DejaVuSans-2d" d="M 313 2009 
L 1997 2009 
L 1997 1497 
L 313 1497 
L 313 2009 
z
" transform="scale(0.015625)"/>
       <path id="DejaVuSans-53" d="M 3425 4513 
L 3425 3897 
Q 3066 4069 2747 4153 
Q 2428 4238 2131 4238 
Q 1616 4238 1336 4038 
Q 1056 3838 1056 3469 
Q 1056 3159 1242 3001 
Q 1428 2844 1947 2747 
L 2328 2669 
Q 3034 2534 3370 2195 
Q 3706 1856 3706 1288 
Q 3706 609 3251 259 
Q 2797 -91 1919 -91 
Q 1588 -91 1214 -16 
Q 841 59 441 206 
L 441 856 
Q 825 641 1194 531 
Q 1563 422 1919 422 
Q 2459 422 2753 634 
Q 3047 847 3047 1241 
Q 3047 1584 2836 1778 
Q 2625 1972 2144 2069 
L 1759 2144 
Q 1053 2284 737 2584 
Q 422 2884 422 3419 
Q 422 4038 858 4394 
Q 1294 4750 2059 4750 
Q 2388 4750 2728 4690 
Q 3069 4631 3425 4513 
z
" transform="scale(0.015625)"/>
       <path id="DejaVuSans-63" d="M 3122 3366 
L 3122 2828 
Q 2878 2963 2633 3030 
Q 2388 3097 2138 3097 
Q 1578 3097 1268 2742 
Q 959 2388 959 1747 
Q 959 1106 1268 751 
Q 1578 397 2138 397 
Q 2388 397 2633 464 
Q 2878 531 3122 666 
L 3122 134 
Q 2881 22 2623 -34 
Q 2366 -91 2075 -91 
Q 1284 -91 818 406 
Q 353 903 353 1747 
Q 353 2603 823 3093 
Q 1294 3584 2113 3584 
Q 2378 3584 2631 3529 
Q 2884 3475 3122 3366 
z
" transform="scale(0.015625)"/>
       <path id="DejaVuSans-6f" d="M 1959 3097 
Q 1497 3097 1228 2736 
Q 959 2375 959 1747 
Q 959 1119 1226 758 
Q 1494 397 1959 397 
Q 2419 397 2687 759 
Q 2956 1122 2956 1747 
Q 2956 2369 2687 2733 
Q 2419 3097 1959 3097 
z
M 1959 3584 
Q 2709 3584 3137 3096 
Q 3566 2609 3566 1747 
Q 3566 888 3137 398 
Q 2709 -91 1959 -91 
Q 1206 -91 779 398 
Q 353 888 353 1747 
Q 353 2609 779 3096 
Q 1206 3584 1959 3584 
z
" transform="scale(0.015625)"/>
       <path id="DejaVuSans-72" d="M 2631 2963 
Q 2534 3019 2420 3045 
Q 2306 3072 2169 3072 
Q 1681 3072 1420 2755 
Q 1159 2438 1159 1844 
L 1159 0 
L 581 0 
L 581 3500 
L 1159 3500 
L 1159 2956 
Q 1341 3275 1631 3429 
Q 1922 3584 2338 3584 
Q 2397 3584 2469 3576 
Q 2541 3569 2628 3553 
L 2631 2963 
z
" transform="scale(0.015625)"/>
      </defs>
      <use xlink:href="#DejaVuSans-5a"/>
      <use xlink:href="#DejaVuSans-2d" x="66.755859"/>
      <use xlink:href="#DejaVuSans-53" x="102.839844"/>
      <use xlink:href="#DejaVuSans-63" x="166.316406"/>
      <use xlink:href="#DejaVuSans-6f" x="221.296875"/>
      <use xlink:href="#DejaVuSans-72" x="282.478516"/>
      <use xlink:href="#DejaVuSans-65" x="321.341797"/>
     </g>
    </g>
   </g>
   <g id="line2d_24">
    <path d="M 73.832727 271.137844 
L 78.175932 271.882074 
L 80.347534 272.18978 
L 82.519137 272.569491 
L 83.604938 272.827003 
L 87.948142 273.496976 
L 91.205546 273.941978 
L 97.720353 274.667898 
L 99.891955 275.20161 
L 100.977756 275.184206 
L 103.149358 275.319989 
L 110.749967 275.712184 
L 111.835768 275.6475 
L 112.921569 275.72199 
L 115.093171 275.452064 
L 116.178972 275.337082 
L 118.350575 275.363379 
L 119.436376 275.582609 
L 120.522177 275.672881 
L 123.77958 276.386004 
L 124.865382 276.48593 
L 125.951183 276.42434 
L 128.122785 276.801713 
L 129.208586 277.148811 
L 131.380189 277.268794 
L 132.46599 277.250297 
L 133.551791 277.349258 
L 134.637592 277.293478 
L 136.809194 277.429825 
L 137.894995 277.766137 
L 144.409802 278.572862 
L 145.495604 278.500633 
L 146.581405 278.613137 
L 148.753007 278.552373 
L 150.924609 278.724963 
L 152.01041 278.646572 
L 163.954223 279.858055 
L 165.040024 280.172634 
L 168.297428 280.626606 
L 169.383229 280.774652 
L 170.46903 281.093249 
L 175.898036 281.759856 
L 176.983837 281.98463 
L 178.069638 282.465888 
L 181.327042 283.34308 
L 182.412843 284.047144 
L 183.498644 284.301119 
L 186.756047 284.498183 
L 187.841849 284.705421 
L 188.92765 285.053662 
L 192.185053 285.343069 
L 195.442457 286.15739 
L 198.69986 286.969878 
L 199.785661 287.175228 
L 200.871462 287.136468 
L 201.957264 287.353607 
L 203.043065 287.360382 
L 204.128866 287.754117 
L 210.643673 288.788984 
L 211.729474 289.109634 
L 213.901076 289.419533 
L 214.986877 289.518293 
L 234.531298 289.284146 
L 235.617099 289.373313 
L 236.702901 289.34265 
L 237.788702 289.533968 
L 244.303509 289.479696 
L 245.38931 289.392648 
L 246.475111 289.186919 
L 249.732514 289.209651 
L 251.904117 289.1259 
L 252.989918 289.250898 
L 256.247321 288.950223 
L 257.333123 288.746438 
L 259.504725 287.64899 
L 261.676327 286.272019 
L 262.762128 285.336632 
L 264.933731 283.158829 
L 269.276935 277.889986 
L 271.448538 275.299364 
L 275.791742 269.166395 
L 276.877543 267.476381 
L 281.220748 261.637055 
L 282.306549 260.070269 
L 283.39235 258.771435 
L 287.735555 252.669498 
L 295.336163 241.337691 
L 301.85097 233.020986 
L 302.936771 231.444193 
L 313.794783 213.459009 
L 315.966385 210.172293 
L 318.137987 206.308638 
L 320.30959 202.729687 
L 321.395391 200.989252 
L 324.652794 196.817622 
L 325.738595 195.649063 
L 326.824396 194.677347 
L 330.0818 192.781331 
L 335.510806 190.35821 
L 338.768209 190.068591 
L 339.85401 189.894619 
L 340.939811 189.966951 
L 342.025613 189.89182 
L 343.111414 189.643975 
L 344.197215 189.718648 
L 346.368817 189.352909 
L 347.454618 188.956319 
L 348.54042 188.714275 
L 349.626221 188.745607 
L 351.797823 188.628259 
L 352.883624 188.832263 
L 356.141028 188.603287 
L 358.31263 188.324858 
L 361.570033 187.217633 
L 363.741636 185.997967 
L 365.913238 184.658445 
L 375.685448 179.542524 
L 377.857051 178.061233 
L 387.629261 171.927134 
L 388.715062 171.576419 
L 393.058267 169.294081 
L 394.144068 168.842321 
L 396.31567 168.148176 
L 397.401472 167.73896 
L 398.487273 167.487543 
L 398.487273 167.487543 
" clip-path="url(#paec74e2c56)" style="fill: none; stroke: #ff00ff; stroke-width: 1.5; stroke-linecap: square"/>
   </g>
   <g id="line2d_25">
    <path d="M 182.412843 307.584 
L 182.412843 41.472 
" clip-path="url(#paec74e2c56)" style="fill: none; stroke: #000000; stroke-width: 1.5; stroke-linecap: square"/>
   </g>
   <g id="patch_3">
    <path d="M 57.6 307.584 
L 57.6 41.472 
" style="fill: none; stroke: #000000; stroke-width: 0.8; stroke-linejoin: miter; stroke-linecap: square"/>
   </g>
   <g id="patch_4">
    <path d="M 414.72 307.584 
L 414.72 41.472 
" style="fill: none; stroke: #000000; stroke-width: 0.8; stroke-linejoin: miter; stroke-linecap: square"/>
   </g>
   <g id="patch_5">
    <path d="M 57.6 307.584 
L 414.72 307.584 
" style="fill: none; stroke: #000000; stroke-width: 0.8; stroke-linejoin: miter; stroke-linecap: square"/>
   </g>
   <g id="patch_6">
    <path d="M 57.6 41.472 
L 414.72 41.472 
" style="fill: none; stroke: #000000; stroke-width: 0.8; stroke-linejoin: miter; stroke-linecap: square"/>
   </g>
   <g id="text_26">
    <!-- Event 18_p=0.554 -->
    <g transform="translate(180.415312 35.472) scale(0.12 -0.12)">
     <defs>
      <path id="DejaVuSans-45" d="M 628 4666 
L 3578 4666 
L 3578 4134 
L 1259 4134 
L 1259 2753 
L 3481 2753 
L 3481 2222 
L 1259 2222 
L 1259 531 
L 3634 531 
L 3634 0 
L 628 0 
L 628 4666 
z
" transform="scale(0.015625)"/>
      <path id="DejaVuSans-76" d="M 191 3500 
L 800 3500 
L 1894 563 
L 2988 3500 
L 3597 3500 
L 2284 0 
L 1503 0 
L 191 3500 
z
" transform="scale(0.015625)"/>
      <path id="DejaVuSans-6e" d="M 3513 2113 
L 3513 0 
L 2938 0 
L 2938 2094 
Q 2938 2591 2744 2837 
Q 2550 3084 2163 3084 
Q 1697 3084 1428 2787 
Q 1159 2491 1159 1978 
L 1159 0 
L 581 0 
L 581 3500 
L 1159 3500 
L 1159 2956 
Q 1366 3272 1645 3428 
Q 1925 3584 2291 3584 
Q 2894 3584 3203 3211 
Q 3513 2838 3513 2113 
z
" transform="scale(0.015625)"/>
      <path id="DejaVuSans-74" d="M 1172 4494 
L 1172 3500 
L 2356 3500 
L 2356 3053 
L 1172 3053 
L 1172 1153 
Q 1172 725 1289 603 
Q 1406 481 1766 481 
L 2356 481 
L 2356 0 
L 1766 0 
Q 1100 0 847 248 
Q 594 497 594 1153 
L 594 3053 
L 172 3053 
L 172 3500 
L 594 3500 
L 594 4494 
L 1172 4494 
z
" transform="scale(0.015625)"/>
      <path id="DejaVuSans-5f" d="M 3263 -1063 
L 3263 -1509 
L -63 -1509 
L -63 -1063 
L 3263 -1063 
z
" transform="scale(0.015625)"/>
      <path id="DejaVuSans-70" d="M 1159 525 
L 1159 -1331 
L 581 -1331 
L 581 3500 
L 1159 3500 
L 1159 2969 
Q 1341 3281 1617 3432 
Q 1894 3584 2278 3584 
Q 2916 3584 3314 3078 
Q 3713 2572 3713 1747 
Q 3713 922 3314 415 
Q 2916 -91 2278 -91 
Q 1894 -91 1617 61 
Q 1341 213 1159 525 
z
M 3116 1747 
Q 3116 2381 2855 2742 
Q 2594 3103 2138 3103 
Q 1681 3103 1420 2742 
Q 1159 2381 1159 1747 
Q 1159 1113 1420 752 
Q 1681 391 2138 391 
Q 2594 391 2855 752 
Q 3116 1113 3116 1747 
z
" transform="scale(0.015625)"/>
      <path id="DejaVuSans-3d" d="M 678 2906 
L 4684 2906 
L 4684 2381 
L 678 2381 
L 678 2906 
z
M 678 1631 
L 4684 1631 
L 4684 1100 
L 678 1100 
L 678 1631 
z
" transform="scale(0.015625)"/>
      <path id="DejaVuSans-2e" d="M 684 794 
L 1344 794 
L 1344 0 
L 684 0 
L 684 794 
z
" transform="scale(0.015625)"/>
     </defs>
     <use xlink:href="#DejaVuSans-45"/>
     <use xlink:href="#DejaVuSans-76" x="63.183594"/>
     <use xlink:href="#DejaVuSans-65" x="122.363281"/>
     <use xlink:href="#DejaVuSans-6e" x="183.886719"/>
     <use xlink:href="#DejaVuSans-74" x="247.265625"/>
     <use xlink:href="#DejaVuSans-20" x="286.474609"/>
     <use xlink:href="#DejaVuSans-31" x="318.261719"/>
     <use xlink:href="#DejaVuSans-38" x="381.884766"/>
     <use xlink:href="#DejaVuSans-5f" x="445.507812"/>
     <use xlink:href="#DejaVuSans-70" x="495.507812"/>
     <use xlink:href="#DejaVuSans-3d" x="558.984375"/>
     <use xlink:href="#DejaVuSans-30" x="642.773438"/>
     <use xlink:href="#DejaVuSans-2e" x="706.396484"/>
     <use xlink:href="#DejaVuSans-35" x="738.183594"/>
     <use xlink:href="#DejaVuSans-35" x="801.806641"/>
     <use xlink:href="#DejaVuSans-34" x="865.429688"/>
    </g>
   </g>
  </g>
 </g>
 <defs>
  <clipPath id="paec74e2c56">
   <rect x="57.6" y="41.472" width="357.12" height="266.112"/>
  </clipPath>
 </defs>
</svg>
