<?xml version="1.0" encoding="utf-8" standalone="no"?>
<!DOCTYPE svg PUBLIC "-//W3C//DTD SVG 1.1//EN"
  "http://www.w3.org/Graphics/SVG/1.1/DTD/svg11.dtd">
<svg xmlns:xlink="http://www.w3.org/1999/xlink" width="460.8pt" height="345.6pt" viewBox="0 0 460.8 345.6" xmlns="http://www.w3.org/2000/svg" version="1.1">
 <metadata>
  <rdf:RDF xmlns:dc="http://purl.org/dc/elements/1.1/" xmlns:cc="http://creativecommons.org/ns#" xmlns:rdf="http://www.w3.org/1999/02/22-rdf-syntax-ns#">
   <cc:Work>
    <dc:type rdf:resource="http://purl.org/dc/dcmitype/StillImage"/>
    <dc:date>2024-11-14T18:55:15.026197</dc:date>
    <dc:format>image/svg+xml</dc:format>
    <dc:creator>
     <cc:Agent>
      <dc:title>Matplotlib v3.8.2, https://matplotlib.org/</dc:title>
     </cc:Agent>
    </dc:creator>
   </cc:Work>
  </rdf:RDF>
 </metadata>
 <defs>
  <style type="text/css">*{stroke-linejoin: round; stroke-linecap: butt}</style>
 </defs>
 <g id="figure_1">
  <g id="patch_1">
   <path d="M 0 345.6 
L 460.8 345.6 
L 460.8 0 
L 0 0 
z
" style="fill: #ffffff"/>
  </g>
  <g id="axes_1">
   <g id="patch_2">
    <path d="M 57.6 307.584 
L 414.72 307.584 
L 414.72 41.472 
L 57.6 41.472 
z
" style="fill: #ffffff"/>
   </g>
   <g id="PolyCollection_1">
    <defs>
     <path id="mf148c7e707" d="M 73.832727 -75.204682 
L 73.832727 -50.112 
L 74.918528 -51.555685 
L 76.00433 -52.385331 
L 77.090131 -53.563852 
L 78.175932 -54.452968 
L 79.261733 -55.180289 
L 80.347534 -56.208482 
L 81.433335 -57.122808 
L 82.519137 -57.952902 
L 83.604938 -58.380429 
L 84.690739 -58.875721 
L 85.77654 -59.213435 
L 86.862341 -59.828027 
L 87.948142 -60.424116 
L 89.033943 -61.437352 
L 90.119745 -62.458732 
L 91.205546 -62.540374 
L 92.291347 -62.539805 
L 93.377148 -62.267223 
L 94.462949 -62.911216 
L 95.54875 -63.068117 
L 96.634552 -62.118841 
L 97.720353 -61.62191 
L 98.806154 -61.295246 
L 99.891955 -61.631481 
L 100.977756 -61.81686 
L 102.063557 -61.953228 
L 103.149358 -61.605081 
L 104.23516 -61.632244 
L 105.320961 -61.84651 
L 106.406762 -62.193611 
L 107.492563 -62.825972 
L 108.578364 -62.727977 
L 109.664165 -63.174364 
L 110.749967 -63.710859 
L 111.835768 -64.136682 
L 112.921569 -64.461902 
L 114.00737 -64.963036 
L 115.093171 -65.512009 
L 116.178972 -65.651129 
L 117.264773 -66.051848 
L 118.350575 -66.185347 
L 119.436376 -66.668961 
L 120.522177 -66.697335 
L 121.607978 -66.898769 
L 122.693779 -67.535354 
L 123.77958 -67.075402 
L 124.865382 -67.736975 
L 125.951183 -68.36965 
L 127.036984 -68.598612 
L 128.122785 -68.7081 
L 129.208586 -68.492257 
L 130.294387 -68.186117 
L 131.380189 -67.705525 
L 132.46599 -67.048059 
L 133.551791 -66.642507 
L 134.637592 -66.506518 
L 135.723393 -66.602754 
L 136.809194 -66.825106 
L 137.894995 -66.582015 
L 138.980797 -66.401156 
L 140.066598 -66.191969 
L 141.152399 -66.292463 
L 142.2382 -66.81715 
L 143.324001 -66.780244 
L 144.409802 -67.015643 
L 145.495604 -66.866797 
L 146.581405 -66.772233 
L 147.667206 -67.326266 
L 148.753007 -67.439717 
L 149.838808 -67.893335 
L 150.924609 -68.311448 
L 152.01041 -69.010347 
L 153.096212 -70.097959 
L 154.182013 -70.544909 
L 155.267814 -71.497277 
L 156.353615 -72.480031 
L 157.439416 -73.200203 
L 158.525217 -73.855286 
L 159.611019 -74.405889 
L 160.69682 -75.411801 
L 161.782621 -75.878183 
L 162.868422 -76.34713 
L 163.954223 -76.34959 
L 165.040024 -76.724779 
L 166.125825 -76.562564 
L 167.211627 -76.533296 
L 168.297428 -77.064943 
L 169.383229 -76.936903 
L 170.46903 -77.193603 
L 171.554831 -77.413534 
L 172.640632 -77.794942 
L 173.726434 -77.643256 
L 174.812235 -78.018625 
L 175.898036 -77.661903 
L 176.983837 -78.029159 
L 178.069638 -78.81194 
L 179.155439 -79.329661 
L 180.24124 -79.79013 
L 181.327042 -80.559469 
L 182.412843 -82.018483 
L 183.498644 -82.849755 
L 184.584445 -84.107384 
L 185.670246 -85.515221 
L 186.756047 -87.27974 
L 187.841849 -88.412351 
L 188.92765 -89.619592 
L 190.013451 -90.745482 
L 191.099252 -91.918446 
L 192.185053 -93.976453 
L 193.270854 -95.721417 
L 194.356656 -97.169727 
L 195.442457 -98.791105 
L 196.528258 -100.387762 
L 197.614059 -102.322445 
L 198.69986 -104.309884 
L 199.785661 -106.376746 
L 200.871462 -108.314615 
L 201.957264 -109.874776 
L 203.043065 -112.14555 
L 204.128866 -113.472952 
L 205.214667 -115.254926 
L 206.300468 -117.608508 
L 207.386269 -119.979254 
L 208.472071 -122.462924 
L 209.557872 -124.203345 
L 210.643673 -125.881845 
L 211.729474 -128.558664 
L 212.815275 -130.932451 
L 213.901076 -133.396236 
L 214.986877 -135.213377 
L 216.072679 -136.855781 
L 217.15848 -139.355519 
L 218.244281 -141.849103 
L 219.330082 -144.261768 
L 220.415883 -146.724477 
L 221.501684 -148.63302 
L 222.587486 -150.653042 
L 223.673287 -153.001685 
L 224.759088 -155.299782 
L 225.844889 -157.475894 
L 226.93069 -159.691155 
L 228.016491 -162.270366 
L 229.102292 -164.557115 
L 230.188094 -166.765515 
L 231.273895 -168.134761 
L 232.359696 -169.902306 
L 233.445497 -171.369484 
L 234.531298 -172.445607 
L 235.617099 -174.46737 
L 236.702901 -176.218161 
L 237.788702 -177.96609 
L 238.874503 -179.205503 
L 239.960304 -180.23029 
L 241.046105 -181.266604 
L 242.131906 -182.395571 
L 243.217708 -183.614542 
L 244.303509 -184.603826 
L 245.38931 -185.75524 
L 246.475111 -186.869013 
L 247.560912 -188.051749 
L 248.646713 -189.184749 
L 249.732514 -190.075393 
L 250.818316 -191.133234 
L 251.904117 -192.191706 
L 252.989918 -193.501678 
L 254.075719 -194.853703 
L 255.16152 -195.459463 
L 256.247321 -196.073708 
L 257.333123 -196.806765 
L 258.418924 -196.810167 
L 259.504725 -197.602596 
L 260.590526 -198.04885 
L 261.676327 -197.635728 
L 262.762128 -197.237511 
L 263.847929 -196.631853 
L 264.933731 -196.209384 
L 266.019532 -196.60049 
L 267.105333 -195.529464 
L 268.191134 -195.298735 
L 269.276935 -195.037824 
L 270.362736 -195.010756 
L 271.448538 -194.027051 
L 272.534339 -193.907639 
L 273.62014 -194.096898 
L 274.705941 -193.966814 
L 275.791742 -193.090428 
L 276.877543 -192.237752 
L 277.963344 -191.185871 
L 279.049146 -190.586964 
L 280.134947 -189.951907 
L 281.220748 -189.117005 
L 282.306549 -187.915381 
L 283.39235 -187.110326 
L 284.478151 -186.160879 
L 285.563953 -186.186423 
L 286.649754 -185.192517 
L 287.735555 -185.007633 
L 288.821356 -184.826714 
L 289.907157 -184.972725 
L 290.992958 -185.4565 
L 292.07876 -184.767089 
L 293.164561 -184.556293 
L 294.250362 -184.374105 
L 295.336163 -184.512465 
L 296.421964 -184.662594 
L 297.507765 -184.899233 
L 298.593566 -185.995673 
L 299.679368 -186.036773 
L 300.765169 -186.611467 
L 301.85097 -186.488291 
L 302.936771 -186.89034 
L 304.022572 -186.982984 
L 305.108373 -186.437168 
L 306.194175 -186.262279 
L 307.279976 -185.825991 
L 308.365777 -185.943813 
L 309.451578 -186.126434 
L 310.537379 -185.899503 
L 311.62318 -185.678995 
L 312.708981 -185.506608 
L 313.794783 -184.990605 
L 314.880584 -184.263739 
L 315.966385 -183.522388 
L 317.052186 -182.570036 
L 318.137987 -182.393077 
L 319.223788 -182.429625 
L 320.30959 -181.980142 
L 321.395391 -181.493331 
L 322.481192 -181.860188 
L 323.566993 -181.741281 
L 324.652794 -181.10712 
L 325.738595 -181.353704 
L 326.824396 -181.082947 
L 327.910198 -181.163221 
L 328.995999 -180.877607 
L 330.0818 -179.704166 
L 331.167601 -179.65519 
L 332.253402 -179.48755 
L 333.339203 -178.913729 
L 334.425005 -178.294847 
L 335.510806 -177.432242 
L 336.596607 -176.454051 
L 337.682408 -175.106675 
L 338.768209 -174.47422 
L 339.85401 -173.507873 
L 340.939811 -172.884811 
L 342.025613 -172.828509 
L 343.111414 -172.529371 
L 344.197215 -172.65384 
L 345.283016 -172.401441 
L 346.368817 -172.277593 
L 347.454618 -171.93277 
L 348.54042 -171.740522 
L 349.626221 -170.929814 
L 350.712022 -171.127059 
L 351.797823 -170.500574 
L 352.883624 -169.426091 
L 353.969425 -168.318832 
L 355.055227 -166.694667 
L 356.141028 -166.076834 
L 357.226829 -164.887545 
L 358.31263 -164.418161 
L 359.398431 -163.316476 
L 360.484232 -162.375584 
L 361.570033 -161.21932 
L 362.655835 -159.635959 
L 363.741636 -158.468369 
L 364.827437 -156.658496 
L 365.913238 -155.252411 
L 366.999039 -154.142998 
L 368.08484 -153.438385 
L 369.170642 -152.796264 
L 370.256443 -152.210126 
L 371.342244 -151.09908 
L 372.428045 -149.773393 
L 373.513846 -148.527717 
L 374.599647 -147.24671 
L 375.685448 -145.660632 
L 376.77125 -143.953096 
L 377.857051 -142.989998 
L 378.942852 -141.687969 
L 380.028653 -141.083469 
L 381.114454 -140.65379 
L 382.200255 -139.52404 
L 383.286057 -138.439901 
L 384.371858 -137.810331 
L 385.457659 -136.27602 
L 386.54346 -134.707092 
L 387.629261 -133.355362 
L 388.715062 -132.677812 
L 389.800863 -130.703961 
L 390.886665 -129.813769 
L 391.972466 -128.683636 
L 393.058267 -127.216292 
L 394.144068 -125.947727 
L 395.229869 -124.767956 
L 396.31567 -122.988853 
L 397.401472 -121.611399 
L 398.487273 -120.163846 
L 398.487273 -235.125903 
L 398.487273 -235.125903 
L 397.401472 -236.67817 
L 396.31567 -238.333566 
L 395.229869 -240.475706 
L 394.144068 -241.761422 
L 393.058267 -243.142486 
L 391.972466 -244.650725 
L 390.886665 -245.877759 
L 389.800863 -246.791417 
L 388.715062 -248.917967 
L 387.629261 -249.578691 
L 386.54346 -250.945346 
L 385.457659 -252.657527 
L 384.371858 -254.182282 
L 383.286057 -254.668567 
L 382.200255 -255.746956 
L 381.114454 -256.837508 
L 380.028653 -257.043454 
L 378.942852 -257.423376 
L 377.857051 -258.653725 
L 376.77125 -259.366143 
L 375.685448 -260.790783 
L 374.599647 -262.264605 
L 373.513846 -263.302859 
L 372.428045 -264.330897 
L 371.342244 -265.46708 
L 370.256443 -266.289056 
L 369.170642 -266.726461 
L 368.08484 -266.923018 
L 366.999039 -267.217684 
L 365.913238 -268.310766 
L 364.827437 -269.499108 
L 363.741636 -271.356719 
L 362.655835 -272.462209 
L 361.570033 -273.954596 
L 360.484232 -274.93323 
L 359.398431 -275.8703 
L 358.31263 -276.868426 
L 357.226829 -277.080899 
L 356.141028 -278.140228 
L 355.055227 -278.578749 
L 353.969425 -279.996864 
L 352.883624 -280.902931 
L 351.797823 -281.669945 
L 350.712022 -282.047627 
L 349.626221 -281.450626 
L 348.54042 -281.865077 
L 347.454618 -281.7008 
L 346.368817 -281.902885 
L 345.283016 -281.818186 
L 344.197215 -281.688034 
L 343.111414 -281.186869 
L 342.025613 -281.045932 
L 340.939811 -280.734817 
L 339.85401 -281.095991 
L 338.768209 -281.674416 
L 337.682408 -281.880975 
L 336.596607 -282.865904 
L 335.510806 -283.608546 
L 334.425005 -284.267776 
L 333.339203 -284.641279 
L 332.253402 -284.79078 
L 331.167601 -284.562716 
L 330.0818 -284.134088 
L 328.995999 -284.978939 
L 327.910198 -284.929184 
L 326.824396 -284.538272 
L 325.738595 -284.402243 
L 324.652794 -283.723019 
L 323.566993 -284.064499 
L 322.481192 -283.828393 
L 321.395391 -282.926264 
L 320.30959 -283.056508 
L 319.223788 -283.234088 
L 318.137987 -282.891457 
L 317.052186 -282.828598 
L 315.966385 -283.69728 
L 314.880584 -284.302779 
L 313.794783 -284.951448 
L 312.708981 -285.485713 
L 311.62318 -285.720877 
L 310.537379 -285.865028 
L 309.451578 -286.217035 
L 308.365777 -286.117256 
L 307.279976 -285.836755 
L 306.194175 -286.366838 
L 305.108373 -286.57307 
L 304.022572 -287.101004 
L 302.936771 -286.909201 
L 301.85097 -286.478059 
L 300.765169 -286.531238 
L 299.679368 -285.960296 
L 298.593566 -285.830369 
L 297.507765 -284.599795 
L 296.421964 -284.468845 
L 295.336163 -284.313038 
L 294.250362 -284.061892 
L 293.164561 -284.158421 
L 292.07876 -284.188765 
L 290.992958 -284.745298 
L 289.907157 -284.041531 
L 288.821356 -283.759705 
L 287.735555 -283.7087 
L 286.649754 -283.892152 
L 285.563953 -284.835247 
L 284.478151 -284.886434 
L 283.39235 -285.801076 
L 282.306549 -286.587351 
L 281.220748 -287.641557 
L 280.134947 -288.512809 
L 279.049146 -289.076557 
L 277.963344 -289.532947 
L 276.877543 -290.503395 
L 275.791742 -291.146157 
L 274.705941 -292.032 
L 273.62014 -292.008259 
L 272.534339 -291.500833 
L 271.448538 -291.196722 
L 270.362736 -291.728971 
L 269.276935 -291.276886 
L 268.191134 -291.100642 
L 267.105333 -290.764937 
L 266.019532 -291.431857 
L 264.933731 -290.585687 
L 263.847929 -290.649176 
L 262.762128 -290.90263 
L 261.676327 -291.023756 
L 260.590526 -291.19803 
L 259.504725 -290.242005 
L 258.418924 -289.015178 
L 257.333123 -288.592424 
L 256.247321 -287.379914 
L 255.16152 -286.229673 
L 254.075719 -285.047406 
L 252.989918 -283.162326 
L 251.904117 -281.205618 
L 250.818316 -279.741737 
L 249.732514 -278.249901 
L 248.646713 -276.88897 
L 247.560912 -275.238231 
L 246.475111 -273.560804 
L 245.38931 -271.934331 
L 244.303509 -270.2949 
L 243.217708 -268.710203 
L 242.131906 -266.691474 
L 241.046105 -264.81093 
L 239.960304 -263.19694 
L 238.874503 -261.664939 
L 237.788702 -259.619074 
L 236.702901 -257.210892 
L 235.617099 -254.625115 
L 234.531298 -251.743361 
L 233.445497 -249.824706 
L 232.359696 -247.446872 
L 231.273895 -244.80534 
L 230.188094 -242.573516 
L 229.102292 -239.6377 
L 228.016491 -236.285174 
L 226.93069 -232.778326 
L 225.844889 -229.587985 
L 224.759088 -226.478283 
L 223.673287 -223.1233 
L 222.587486 -219.782976 
L 221.501684 -216.876827 
L 220.415883 -214.030276 
L 219.330082 -210.440801 
L 218.244281 -207.054905 
L 217.15848 -203.539325 
L 216.072679 -199.989919 
L 214.986877 -197.3099 
L 213.901076 -194.528539 
L 212.815275 -191.096976 
L 211.729474 -187.757845 
L 210.643673 -184.081414 
L 209.557872 -181.402399 
L 208.472071 -178.724811 
L 207.386269 -175.136612 
L 206.300468 -171.773041 
L 205.214667 -168.277917 
L 204.128866 -165.482279 
L 203.043065 -162.92955 
L 201.957264 -159.443228 
L 200.871462 -156.785775 
L 199.785661 -153.745924 
L 198.69986 -150.501509 
L 197.614059 -147.360086 
L 196.528258 -144.34665 
L 195.442457 -141.699702 
L 194.356656 -138.943904 
L 193.270854 -136.50562 
L 192.185053 -133.679571 
L 191.099252 -130.621784 
L 190.013451 -128.418613 
L 188.92765 -126.244624 
L 187.841849 -123.956883 
L 186.756047 -121.789501 
L 185.670246 -118.969391 
L 184.584445 -116.414703 
L 183.498644 -113.993415 
L 182.412843 -112.045465 
L 181.327042 -108.40336 
L 180.24124 -106.60377 
L 179.155439 -105.068172 
L 178.069638 -103.668241 
L 176.983837 -102.030913 
L 175.898036 -100.719673 
L 174.812235 -100.307295 
L 173.726434 -99.09285 
L 172.640632 -98.594597 
L 171.554831 -97.647793 
L 170.46903 -96.777989 
L 169.383229 -95.795108 
L 168.297428 -95.403084 
L 167.211627 -94.266487 
L 166.125825 -93.805041 
L 165.040024 -93.411869 
L 163.954223 -92.596554 
L 162.868422 -92.246068 
L 161.782621 -91.236582 
L 160.69682 -90.381249 
L 159.611019 -88.991539 
L 158.525217 -88.150819 
L 157.439416 -87.146258 
L 156.353615 -86.042704 
L 155.267814 -84.685741 
L 154.182013 -83.535532 
L 153.096212 -82.854803 
L 152.01041 -81.821309 
L 150.924609 -81.071737 
L 149.838808 -80.588965 
L 148.753007 -80.096885 
L 147.667206 -79.875245 
L 146.581405 -79.31663 
L 145.495604 -79.394966 
L 144.409802 -79.451961 
L 143.324001 -79.302608 
L 142.2382 -79.335409 
L 141.152399 -78.855205 
L 140.066598 -78.656947 
L 138.980797 -78.819564 
L 137.894995 -78.984762 
L 136.809194 -79.123811 
L 135.723393 -78.981958 
L 134.637592 -78.817444 
L 133.551791 -78.943999 
L 132.46599 -79.312402 
L 131.380189 -79.789067 
L 130.294387 -80.316962 
L 129.208586 -80.596615 
L 128.122785 -80.870207 
L 127.036984 -80.815123 
L 125.951183 -80.554596 
L 124.865382 -79.87397 
L 123.77958 -79.318673 
L 122.693779 -79.863046 
L 121.607978 -79.228356 
L 120.522177 -78.851385 
L 119.436376 -78.765876 
L 118.350575 -78.330882 
L 117.264773 -78.100367 
L 116.178972 -77.742703 
L 115.093171 -77.702663 
L 114.00737 -77.299738 
L 112.921569 -76.890481 
L 111.835768 -76.553848 
L 110.749967 -76.192066 
L 109.664165 -75.741753 
L 108.578364 -75.320802 
L 107.492563 -75.588981 
L 106.406762 -75.109764 
L 105.320961 -74.762568 
L 104.23516 -74.631567 
L 103.149358 -74.68075 
L 102.063557 -75.143644 
L 100.977756 -75.067236 
L 99.891955 -75.218909 
L 98.806154 -75.216951 
L 97.720353 -75.744455 
L 96.634552 -76.644512 
L 95.54875 -78.012578 
L 94.462949 -78.246003 
L 93.377148 -77.880365 
L 92.291347 -78.444896 
L 91.205546 -78.881193 
L 90.119745 -79.132204 
L 89.033943 -78.460762 
L 87.948142 -78.101219 
L 86.862341 -77.964752 
L 85.77654 -77.887595 
L 84.690739 -77.996475 
L 83.604938 -77.929246 
L 82.519137 -78.110296 
L 81.433335 -77.762162 
L 80.347534 -77.38494 
L 79.261733 -76.883909 
L 78.175932 -76.854226 
L 77.090131 -76.661329 
L 76.00433 -76.133716 
L 74.918528 -75.96624 
L 73.832727 -75.204682 
z
" style="stroke: #ff00ff; stroke-opacity: 0.1"/>
    </defs>
    <g clip-path="url(#p93f8f24f85)">
     <use xlink:href="#mf148c7e707" x="0" y="345.6" style="fill: #ff00ff; fill-opacity: 0.1; stroke: #ff00ff; stroke-opacity: 0.1"/>
    </g>
   </g>
   <g id="matplotlib.axis_1">
    <g id="xtick_1">
     <g id="line2d_1">
      <defs>
       <path id="m4ee435674d" d="M 0 0 
L 0 3.5 
" style="stroke: #000000; stroke-width: 0.8"/>
      </defs>
      <g>
       <use xlink:href="#m4ee435674d" x="73.832727" y="307.584" style="stroke: #000000; stroke-width: 0.8"/>
      </g>
     </g>
     <g id="text_1">
      <!-- −5 -->
      <g transform="translate(66.461634 322.182437) scale(0.1 -0.1)">
       <defs>
        <path id="DejaVuSans-2212" d="M 678 2272 
L 4684 2272 
L 4684 1741 
L 678 1741 
L 678 2272 
z
" transform="scale(0.015625)"/>
        <path id="DejaVuSans-35" d="M 691 4666 
L 3169 4666 
L 3169 4134 
L 1269 4134 
L 1269 2991 
Q 1406 3038 1543 3061 
Q 1681 3084 1819 3084 
Q 2600 3084 3056 2656 
Q 3513 2228 3513 1497 
Q 3513 744 3044 326 
Q 2575 -91 1722 -91 
Q 1428 -91 1123 -41 
Q 819 9 494 109 
L 494 744 
Q 775 591 1075 516 
Q 1375 441 1709 441 
Q 2250 441 2565 725 
Q 2881 1009 2881 1497 
Q 2881 1984 2565 2268 
Q 2250 2553 1709 2553 
Q 1456 2553 1204 2497 
Q 953 2441 691 2322 
L 691 4666 
z
" transform="scale(0.015625)"/>
       </defs>
       <use xlink:href="#DejaVuSans-2212"/>
       <use xlink:href="#DejaVuSans-35" x="83.789062"/>
      </g>
     </g>
    </g>
    <g id="xtick_2">
     <g id="line2d_2">
      <g>
       <use xlink:href="#m4ee435674d" x="95.54875" y="307.584" style="stroke: #000000; stroke-width: 0.8"/>
      </g>
     </g>
     <g id="text_2">
      <!-- −4 -->
      <g transform="translate(88.177657 322.182437) scale(0.1 -0.1)">
       <defs>
        <path id="DejaVuSans-34" d="M 2419 4116 
L 825 1625 
L 2419 1625 
L 2419 4116 
z
M 2253 4666 
L 3047 4666 
L 3047 1625 
L 3713 1625 
L 3713 1100 
L 3047 1100 
L 3047 0 
L 2419 0 
L 2419 1100 
L 313 1100 
L 313 1709 
L 2253 4666 
z
" transform="scale(0.015625)"/>
       </defs>
       <use xlink:href="#DejaVuSans-2212"/>
       <use xlink:href="#DejaVuSans-34" x="83.789062"/>
      </g>
     </g>
    </g>
    <g id="xtick_3">
     <g id="line2d_3">
      <g>
       <use xlink:href="#m4ee435674d" x="117.264773" y="307.584" style="stroke: #000000; stroke-width: 0.8"/>
      </g>
     </g>
     <g id="text_3">
      <!-- −3 -->
      <g transform="translate(109.89368 322.182437) scale(0.1 -0.1)">
       <defs>
        <path id="DejaVuSans-33" d="M 2597 2516 
Q 3050 2419 3304 2112 
Q 3559 1806 3559 1356 
Q 3559 666 3084 287 
Q 2609 -91 1734 -91 
Q 1441 -91 1130 -33 
Q 819 25 488 141 
L 488 750 
Q 750 597 1062 519 
Q 1375 441 1716 441 
Q 2309 441 2620 675 
Q 2931 909 2931 1356 
Q 2931 1769 2642 2001 
Q 2353 2234 1838 2234 
L 1294 2234 
L 1294 2753 
L 1863 2753 
Q 2328 2753 2575 2939 
Q 2822 3125 2822 3475 
Q 2822 3834 2567 4026 
Q 2313 4219 1838 4219 
Q 1578 4219 1281 4162 
Q 984 4106 628 3988 
L 628 4550 
Q 988 4650 1302 4700 
Q 1616 4750 1894 4750 
Q 2613 4750 3031 4423 
Q 3450 4097 3450 3541 
Q 3450 3153 3228 2886 
Q 3006 2619 2597 2516 
z
" transform="scale(0.015625)"/>
       </defs>
       <use xlink:href="#DejaVuSans-2212"/>
       <use xlink:href="#DejaVuSans-33" x="83.789062"/>
      </g>
     </g>
    </g>
    <g id="xtick_4">
     <g id="line2d_4">
      <g>
       <use xlink:href="#m4ee435674d" x="138.980797" y="307.584" style="stroke: #000000; stroke-width: 0.8"/>
      </g>
     </g>
     <g id="text_4">
      <!-- −2 -->
      <g transform="translate(131.609703 322.182437) scale(0.1 -0.1)">
       <defs>
        <path id="DejaVuSans-32" d="M 1228 531 
L 3431 531 
L 3431 0 
L 469 0 
L 469 531 
Q 828 903 1448 1529 
Q 2069 2156 2228 2338 
Q 2531 2678 2651 2914 
Q 2772 3150 2772 3378 
Q 2772 3750 2511 3984 
Q 2250 4219 1831 4219 
Q 1534 4219 1204 4116 
Q 875 4013 500 3803 
L 500 4441 
Q 881 4594 1212 4672 
Q 1544 4750 1819 4750 
Q 2544 4750 2975 4387 
Q 3406 4025 3406 3419 
Q 3406 3131 3298 2873 
Q 3191 2616 2906 2266 
Q 2828 2175 2409 1742 
Q 1991 1309 1228 531 
z
" transform="scale(0.015625)"/>
       </defs>
       <use xlink:href="#DejaVuSans-2212"/>
       <use xlink:href="#DejaVuSans-32" x="83.789062"/>
      </g>
     </g>
    </g>
    <g id="xtick_5">
     <g id="line2d_5">
      <g>
       <use xlink:href="#m4ee435674d" x="160.69682" y="307.584" style="stroke: #000000; stroke-width: 0.8"/>
      </g>
     </g>
     <g id="text_5">
      <!-- −1 -->
      <g transform="translate(153.325726 322.182437) scale(0.1 -0.1)">
       <defs>
        <path id="DejaVuSans-31" d="M 794 531 
L 1825 531 
L 1825 4091 
L 703 3866 
L 703 4441 
L 1819 4666 
L 2450 4666 
L 2450 531 
L 3481 531 
L 3481 0 
L 794 0 
L 794 531 
z
" transform="scale(0.015625)"/>
       </defs>
       <use xlink:href="#DejaVuSans-2212"/>
       <use xlink:href="#DejaVuSans-31" x="83.789062"/>
      </g>
     </g>
    </g>
    <g id="xtick_6">
     <g id="line2d_6">
      <g>
       <use xlink:href="#m4ee435674d" x="182.412843" y="307.584" style="stroke: #000000; stroke-width: 0.8"/>
      </g>
     </g>
     <g id="text_6">
      <!-- 0 -->
      <g transform="translate(179.231593 322.182437) scale(0.1 -0.1)">
       <defs>
        <path id="DejaVuSans-30" d="M 2034 4250 
Q 1547 4250 1301 3770 
Q 1056 3291 1056 2328 
Q 1056 1369 1301 889 
Q 1547 409 2034 409 
Q 2525 409 2770 889 
Q 3016 1369 3016 2328 
Q 3016 3291 2770 3770 
Q 2525 4250 2034 4250 
z
M 2034 4750 
Q 2819 4750 3233 4129 
Q 3647 3509 3647 2328 
Q 3647 1150 3233 529 
Q 2819 -91 2034 -91 
Q 1250 -91 836 529 
Q 422 1150 422 2328 
Q 422 3509 836 4129 
Q 1250 4750 2034 4750 
z
" transform="scale(0.015625)"/>
       </defs>
       <use xlink:href="#DejaVuSans-30"/>
      </g>
     </g>
    </g>
    <g id="xtick_7">
     <g id="line2d_7">
      <g>
       <use xlink:href="#m4ee435674d" x="204.128866" y="307.584" style="stroke: #000000; stroke-width: 0.8"/>
      </g>
     </g>
     <g id="text_7">
      <!-- 1 -->
      <g transform="translate(200.947616 322.182437) scale(0.1 -0.1)">
       <use xlink:href="#DejaVuSans-31"/>
      </g>
     </g>
    </g>
    <g id="xtick_8">
     <g id="line2d_8">
      <g>
       <use xlink:href="#m4ee435674d" x="225.844889" y="307.584" style="stroke: #000000; stroke-width: 0.8"/>
      </g>
     </g>
     <g id="text_8">
      <!-- 2 -->
      <g transform="translate(222.663639 322.182437) scale(0.1 -0.1)">
       <use xlink:href="#DejaVuSans-32"/>
      </g>
     </g>
    </g>
    <g id="xtick_9">
     <g id="line2d_9">
      <g>
       <use xlink:href="#m4ee435674d" x="247.560912" y="307.584" style="stroke: #000000; stroke-width: 0.8"/>
      </g>
     </g>
     <g id="text_9">
      <!-- 3 -->
      <g transform="translate(244.379662 322.182437) scale(0.1 -0.1)">
       <use xlink:href="#DejaVuSans-33"/>
      </g>
     </g>
    </g>
    <g id="xtick_10">
     <g id="line2d_10">
      <g>
       <use xlink:href="#m4ee435674d" x="269.276935" y="307.584" style="stroke: #000000; stroke-width: 0.8"/>
      </g>
     </g>
     <g id="text_10">
      <!-- 4 -->
      <g transform="translate(266.095685 322.182437) scale(0.1 -0.1)">
       <use xlink:href="#DejaVuSans-34"/>
      </g>
     </g>
    </g>
    <g id="xtick_11">
     <g id="line2d_11">
      <g>
       <use xlink:href="#m4ee435674d" x="290.992958" y="307.584" style="stroke: #000000; stroke-width: 0.8"/>
      </g>
     </g>
     <g id="text_11">
      <!-- 5 -->
      <g transform="translate(287.811708 322.182437) scale(0.1 -0.1)">
       <use xlink:href="#DejaVuSans-35"/>
      </g>
     </g>
    </g>
    <g id="xtick_12">
     <g id="line2d_12">
      <g>
       <use xlink:href="#m4ee435674d" x="312.708981" y="307.584" style="stroke: #000000; stroke-width: 0.8"/>
      </g>
     </g>
     <g id="text_12">
      <!-- 6 -->
      <g transform="translate(309.527731 322.182437) scale(0.1 -0.1)">
       <defs>
        <path id="DejaVuSans-36" d="M 2113 2584 
Q 1688 2584 1439 2293 
Q 1191 2003 1191 1497 
Q 1191 994 1439 701 
Q 1688 409 2113 409 
Q 2538 409 2786 701 
Q 3034 994 3034 1497 
Q 3034 2003 2786 2293 
Q 2538 2584 2113 2584 
z
M 3366 4563 
L 3366 3988 
Q 3128 4100 2886 4159 
Q 2644 4219 2406 4219 
Q 1781 4219 1451 3797 
Q 1122 3375 1075 2522 
Q 1259 2794 1537 2939 
Q 1816 3084 2150 3084 
Q 2853 3084 3261 2657 
Q 3669 2231 3669 1497 
Q 3669 778 3244 343 
Q 2819 -91 2113 -91 
Q 1303 -91 875 529 
Q 447 1150 447 2328 
Q 447 3434 972 4092 
Q 1497 4750 2381 4750 
Q 2619 4750 2861 4703 
Q 3103 4656 3366 4563 
z
" transform="scale(0.015625)"/>
       </defs>
       <use xlink:href="#DejaVuSans-36"/>
      </g>
     </g>
    </g>
    <g id="xtick_13">
     <g id="line2d_13">
      <g>
       <use xlink:href="#m4ee435674d" x="334.425005" y="307.584" style="stroke: #000000; stroke-width: 0.8"/>
      </g>
     </g>
     <g id="text_13">
      <!-- 7 -->
      <g transform="translate(331.243755 322.182437) scale(0.1 -0.1)">
       <defs>
        <path id="DejaVuSans-37" d="M 525 4666 
L 3525 4666 
L 3525 4397 
L 1831 0 
L 1172 0 
L 2766 4134 
L 525 4134 
L 525 4666 
z
" transform="scale(0.015625)"/>
       </defs>
       <use xlink:href="#DejaVuSans-37"/>
      </g>
     </g>
    </g>
    <g id="xtick_14">
     <g id="line2d_14">
      <g>
       <use xlink:href="#m4ee435674d" x="356.141028" y="307.584" style="stroke: #000000; stroke-width: 0.8"/>
      </g>
     </g>
     <g id="text_14">
      <!-- 8 -->
      <g transform="translate(352.959778 322.182437) scale(0.1 -0.1)">
       <defs>
        <path id="DejaVuSans-38" d="M 2034 2216 
Q 1584 2216 1326 1975 
Q 1069 1734 1069 1313 
Q 1069 891 1326 650 
Q 1584 409 2034 409 
Q 2484 409 2743 651 
Q 3003 894 3003 1313 
Q 3003 1734 2745 1975 
Q 2488 2216 2034 2216 
z
M 1403 2484 
Q 997 2584 770 2862 
Q 544 3141 544 3541 
Q 544 4100 942 4425 
Q 1341 4750 2034 4750 
Q 2731 4750 3128 4425 
Q 3525 4100 3525 3541 
Q 3525 3141 3298 2862 
Q 3072 2584 2669 2484 
Q 3125 2378 3379 2068 
Q 3634 1759 3634 1313 
Q 3634 634 3220 271 
Q 2806 -91 2034 -91 
Q 1263 -91 848 271 
Q 434 634 434 1313 
Q 434 1759 690 2068 
Q 947 2378 1403 2484 
z
M 1172 3481 
Q 1172 3119 1398 2916 
Q 1625 2713 2034 2713 
Q 2441 2713 2670 2916 
Q 2900 3119 2900 3481 
Q 2900 3844 2670 4047 
Q 2441 4250 2034 4250 
Q 1625 4250 1398 4047 
Q 1172 3844 1172 3481 
z
" transform="scale(0.015625)"/>
       </defs>
       <use xlink:href="#DejaVuSans-38"/>
      </g>
     </g>
    </g>
    <g id="xtick_15">
     <g id="line2d_15">
      <g>
       <use xlink:href="#m4ee435674d" x="377.857051" y="307.584" style="stroke: #000000; stroke-width: 0.8"/>
      </g>
     </g>
     <g id="text_15">
      <!-- 9 -->
      <g transform="translate(374.675801 322.182437) scale(0.1 -0.1)">
       <defs>
        <path id="DejaVuSans-39" d="M 703 97 
L 703 672 
Q 941 559 1184 500 
Q 1428 441 1663 441 
Q 2288 441 2617 861 
Q 2947 1281 2994 2138 
Q 2813 1869 2534 1725 
Q 2256 1581 1919 1581 
Q 1219 1581 811 2004 
Q 403 2428 403 3163 
Q 403 3881 828 4315 
Q 1253 4750 1959 4750 
Q 2769 4750 3195 4129 
Q 3622 3509 3622 2328 
Q 3622 1225 3098 567 
Q 2575 -91 1691 -91 
Q 1453 -91 1209 -44 
Q 966 3 703 97 
z
M 1959 2075 
Q 2384 2075 2632 2365 
Q 2881 2656 2881 3163 
Q 2881 3666 2632 3958 
Q 2384 4250 1959 4250 
Q 1534 4250 1286 3958 
Q 1038 3666 1038 3163 
Q 1038 2656 1286 2365 
Q 1534 2075 1959 2075 
z
" transform="scale(0.015625)"/>
       </defs>
       <use xlink:href="#DejaVuSans-39"/>
      </g>
     </g>
    </g>
    <g id="xtick_16">
     <g id="line2d_16">
      <g>
       <use xlink:href="#m4ee435674d" x="399.573074" y="307.584" style="stroke: #000000; stroke-width: 0.8"/>
      </g>
     </g>
     <g id="text_16">
      <!-- 10 -->
      <g transform="translate(393.210574 322.182437) scale(0.1 -0.1)">
       <use xlink:href="#DejaVuSans-31"/>
       <use xlink:href="#DejaVuSans-30" x="63.623047"/>
      </g>
     </g>
    </g>
    <g id="text_17">
     <!-- Time (s) -->
     <g transform="translate(215.831094 335.860562) scale(0.1 -0.1)">
      <defs>
       <path id="DejaVuSans-54" d="M -19 4666 
L 3928 4666 
L 3928 4134 
L 2272 4134 
L 2272 0 
L 1638 0 
L 1638 4134 
L -19 4134 
L -19 4666 
z
" transform="scale(0.015625)"/>
       <path id="DejaVuSans-69" d="M 603 3500 
L 1178 3500 
L 1178 0 
L 603 0 
L 603 3500 
z
M 603 4863 
L 1178 4863 
L 1178 4134 
L 603 4134 
L 603 4863 
z
" transform="scale(0.015625)"/>
       <path id="DejaVuSans-6d" d="M 3328 2828 
Q 3544 3216 3844 3400 
Q 4144 3584 4550 3584 
Q 5097 3584 5394 3201 
Q 5691 2819 5691 2113 
L 5691 0 
L 5113 0 
L 5113 2094 
Q 5113 2597 4934 2840 
Q 4756 3084 4391 3084 
Q 3944 3084 3684 2787 
Q 3425 2491 3425 1978 
L 3425 0 
L 2847 0 
L 2847 2094 
Q 2847 2600 2669 2842 
Q 2491 3084 2119 3084 
Q 1678 3084 1418 2786 
Q 1159 2488 1159 1978 
L 1159 0 
L 581 0 
L 581 3500 
L 1159 3500 
L 1159 2956 
Q 1356 3278 1631 3431 
Q 1906 3584 2284 3584 
Q 2666 3584 2933 3390 
Q 3200 3197 3328 2828 
z
" transform="scale(0.015625)"/>
       <path id="DejaVuSans-65" d="M 3597 1894 
L 3597 1613 
L 953 1613 
Q 991 1019 1311 708 
Q 1631 397 2203 397 
Q 2534 397 2845 478 
Q 3156 559 3463 722 
L 3463 178 
Q 3153 47 2828 -22 
Q 2503 -91 2169 -91 
Q 1331 -91 842 396 
Q 353 884 353 1716 
Q 353 2575 817 3079 
Q 1281 3584 2069 3584 
Q 2775 3584 3186 3129 
Q 3597 2675 3597 1894 
z
M 3022 2063 
Q 3016 2534 2758 2815 
Q 2500 3097 2075 3097 
Q 1594 3097 1305 2825 
Q 1016 2553 972 2059 
L 3022 2063 
z
" transform="scale(0.015625)"/>
       <path id="DejaVuSans-20" transform="scale(0.015625)"/>
       <path id="DejaVuSans-28" d="M 1984 4856 
Q 1566 4138 1362 3434 
Q 1159 2731 1159 2009 
Q 1159 1288 1364 580 
Q 1569 -128 1984 -844 
L 1484 -844 
Q 1016 -109 783 600 
Q 550 1309 550 2009 
Q 550 2706 781 3412 
Q 1013 4119 1484 4856 
L 1984 4856 
z
" transform="scale(0.015625)"/>
       <path id="DejaVuSans-73" d="M 2834 3397 
L 2834 2853 
Q 2591 2978 2328 3040 
Q 2066 3103 1784 3103 
Q 1356 3103 1142 2972 
Q 928 2841 928 2578 
Q 928 2378 1081 2264 
Q 1234 2150 1697 2047 
L 1894 2003 
Q 2506 1872 2764 1633 
Q 3022 1394 3022 966 
Q 3022 478 2636 193 
Q 2250 -91 1575 -91 
Q 1294 -91 989 -36 
Q 684 19 347 128 
L 347 722 
Q 666 556 975 473 
Q 1284 391 1588 391 
Q 1994 391 2212 530 
Q 2431 669 2431 922 
Q 2431 1156 2273 1281 
Q 2116 1406 1581 1522 
L 1381 1569 
Q 847 1681 609 1914 
Q 372 2147 372 2553 
Q 372 3047 722 3315 
Q 1072 3584 1716 3584 
Q 2034 3584 2315 3537 
Q 2597 3491 2834 3397 
z
" transform="scale(0.015625)"/>
       <path id="DejaVuSans-29" d="M 513 4856 
L 1013 4856 
Q 1481 4119 1714 3412 
Q 1947 2706 1947 2009 
Q 1947 1309 1714 600 
Q 1481 -109 1013 -844 
L 513 -844 
Q 928 -128 1133 580 
Q 1338 1288 1338 2009 
Q 1338 2731 1133 3434 
Q 928 4138 513 4856 
z
" transform="scale(0.015625)"/>
      </defs>
      <use xlink:href="#DejaVuSans-54"/>
      <use xlink:href="#DejaVuSans-69" x="57.958984"/>
      <use xlink:href="#DejaVuSans-6d" x="85.742188"/>
      <use xlink:href="#DejaVuSans-65" x="183.154297"/>
      <use xlink:href="#DejaVuSans-20" x="244.677734"/>
      <use xlink:href="#DejaVuSans-28" x="276.464844"/>
      <use xlink:href="#DejaVuSans-73" x="315.478516"/>
      <use xlink:href="#DejaVuSans-29" x="367.578125"/>
     </g>
    </g>
   </g>
   <g id="matplotlib.axis_2">
    <g id="ytick_1">
     <g id="line2d_17">
      <defs>
       <path id="mbbd025a098" d="M 0 0 
L -3.5 0 
" style="stroke: #000000; stroke-width: 0.8"/>
      </defs>
      <g>
       <use xlink:href="#mbbd025a098" x="57.6" y="270.85813" style="stroke: #000000; stroke-width: 0.8"/>
      </g>
     </g>
     <g id="text_18">
      <!-- 0.0 -->
      <g transform="translate(34.696875 274.657349) scale(0.1 -0.1)">
       <defs>
        <path id="DejaVuSans-2e" d="M 684 794 
L 1344 794 
L 1344 0 
L 684 0 
L 684 794 
z
" transform="scale(0.015625)"/>
       </defs>
       <use xlink:href="#DejaVuSans-30"/>
       <use xlink:href="#DejaVuSans-2e" x="63.623047"/>
       <use xlink:href="#DejaVuSans-30" x="95.410156"/>
      </g>
     </g>
    </g>
    <g id="ytick_2">
     <g id="line2d_18">
      <g>
       <use xlink:href="#mbbd025a098" x="57.6" y="231.814802" style="stroke: #000000; stroke-width: 0.8"/>
      </g>
     </g>
     <g id="text_19">
      <!-- 0.5 -->
      <g transform="translate(34.696875 235.614021) scale(0.1 -0.1)">
       <use xlink:href="#DejaVuSans-30"/>
       <use xlink:href="#DejaVuSans-2e" x="63.623047"/>
       <use xlink:href="#DejaVuSans-35" x="95.410156"/>
      </g>
     </g>
    </g>
    <g id="ytick_3">
     <g id="line2d_19">
      <g>
       <use xlink:href="#mbbd025a098" x="57.6" y="192.771473" style="stroke: #000000; stroke-width: 0.8"/>
      </g>
     </g>
     <g id="text_20">
      <!-- 1.0 -->
      <g transform="translate(34.696875 196.570692) scale(0.1 -0.1)">
       <use xlink:href="#DejaVuSans-31"/>
       <use xlink:href="#DejaVuSans-2e" x="63.623047"/>
       <use xlink:href="#DejaVuSans-30" x="95.410156"/>
      </g>
     </g>
    </g>
    <g id="ytick_4">
     <g id="line2d_20">
      <g>
       <use xlink:href="#mbbd025a098" x="57.6" y="153.728145" style="stroke: #000000; stroke-width: 0.8"/>
      </g>
     </g>
     <g id="text_21">
      <!-- 1.5 -->
      <g transform="translate(34.696875 157.527364) scale(0.1 -0.1)">
       <use xlink:href="#DejaVuSans-31"/>
       <use xlink:href="#DejaVuSans-2e" x="63.623047"/>
       <use xlink:href="#DejaVuSans-35" x="95.410156"/>
      </g>
     </g>
    </g>
    <g id="ytick_5">
     <g id="line2d_21">
      <g>
       <use xlink:href="#mbbd025a098" x="57.6" y="114.684817" style="stroke: #000000; stroke-width: 0.8"/>
      </g>
     </g>
     <g id="text_22">
      <!-- 2.0 -->
      <g transform="translate(34.696875 118.484035) scale(0.1 -0.1)">
       <use xlink:href="#DejaVuSans-32"/>
       <use xlink:href="#DejaVuSans-2e" x="63.623047"/>
       <use xlink:href="#DejaVuSans-30" x="95.410156"/>
      </g>
     </g>
    </g>
    <g id="ytick_6">
     <g id="line2d_22">
      <g>
       <use xlink:href="#mbbd025a098" x="57.6" y="75.641488" style="stroke: #000000; stroke-width: 0.8"/>
      </g>
     </g>
     <g id="text_23">
      <!-- 2.5 -->
      <g transform="translate(34.696875 79.440707) scale(0.1 -0.1)">
       <use xlink:href="#DejaVuSans-32"/>
       <use xlink:href="#DejaVuSans-2e" x="63.623047"/>
       <use xlink:href="#DejaVuSans-35" x="95.410156"/>
      </g>
     </g>
    </g>
    <g id="text_24">
     <!-- Z-Score -->
     <g transform="translate(28.617187 193.67175) rotate(-90) scale(0.1 -0.1)">
      <defs>
       <path id="DejaVuSans-5a" d="M 359 4666 
L 4025 4666 
L 4025 4184 
L 1075 531 
L 4097 531 
L 4097 0 
L 288 0 
L 288 481 
L 3238 4134 
L 359 4134 
L 359 4666 
z
" transform="scale(0.015625)"/>
       <path id="DejaVuSans-2d" d="M 313 2009 
L 1997 2009 
L 1997 1497 
L 313 1497 
L 313 2009 
z
" transform="scale(0.015625)"/>
       <path id="DejaVuSans-53" d="M 3425 4513 
L 3425 3897 
Q 3066 4069 2747 4153 
Q 2428 4238 2131 4238 
Q 1616 4238 1336 4038 
Q 1056 3838 1056 3469 
Q 1056 3159 1242 3001 
Q 1428 2844 1947 2747 
L 2328 2669 
Q 3034 2534 3370 2195 
Q 3706 1856 3706 1288 
Q 3706 609 3251 259 
Q 2797 -91 1919 -91 
Q 1588 -91 1214 -16 
Q 841 59 441 206 
L 441 856 
Q 825 641 1194 531 
Q 1563 422 1919 422 
Q 2459 422 2753 634 
Q 3047 847 3047 1241 
Q 3047 1584 2836 1778 
Q 2625 1972 2144 2069 
L 1759 2144 
Q 1053 2284 737 2584 
Q 422 2884 422 3419 
Q 422 4038 858 4394 
Q 1294 4750 2059 4750 
Q 2388 4750 2728 4690 
Q 3069 4631 3425 4513 
z
" transform="scale(0.015625)"/>
       <path id="DejaVuSans-63" d="M 3122 3366 
L 3122 2828 
Q 2878 2963 2633 3030 
Q 2388 3097 2138 3097 
Q 1578 3097 1268 2742 
Q 959 2388 959 1747 
Q 959 1106 1268 751 
Q 1578 397 2138 397 
Q 2388 397 2633 464 
Q 2878 531 3122 666 
L 3122 134 
Q 2881 22 2623 -34 
Q 2366 -91 2075 -91 
Q 1284 -91 818 406 
Q 353 903 353 1747 
Q 353 2603 823 3093 
Q 1294 3584 2113 3584 
Q 2378 3584 2631 3529 
Q 2884 3475 3122 3366 
z
" transform="scale(0.015625)"/>
       <path id="DejaVuSans-6f" d="M 1959 3097 
Q 1497 3097 1228 2736 
Q 959 2375 959 1747 
Q 959 1119 1226 758 
Q 1494 397 1959 397 
Q 2419 397 2687 759 
Q 2956 1122 2956 1747 
Q 2956 2369 2687 2733 
Q 2419 3097 1959 3097 
z
M 1959 3584 
Q 2709 3584 3137 3096 
Q 3566 2609 3566 1747 
Q 3566 888 3137 398 
Q 2709 -91 1959 -91 
Q 1206 -91 779 398 
Q 353 888 353 1747 
Q 353 2609 779 3096 
Q 1206 3584 1959 3584 
z
" transform="scale(0.015625)"/>
       <path id="DejaVuSans-72" d="M 2631 2963 
Q 2534 3019 2420 3045 
Q 2306 3072 2169 3072 
Q 1681 3072 1420 2755 
Q 1159 2438 1159 1844 
L 1159 0 
L 581 0 
L 581 3500 
L 1159 3500 
L 1159 2956 
Q 1341 3275 1631 3429 
Q 1922 3584 2338 3584 
Q 2397 3584 2469 3576 
Q 2541 3569 2628 3553 
L 2631 2963 
z
" transform="scale(0.015625)"/>
      </defs>
      <use xlink:href="#DejaVuSans-5a"/>
      <use xlink:href="#DejaVuSans-2d" x="66.755859"/>
      <use xlink:href="#DejaVuSans-53" x="102.839844"/>
      <use xlink:href="#DejaVuSans-63" x="166.316406"/>
      <use xlink:href="#DejaVuSans-6f" x="221.296875"/>
      <use xlink:href="#DejaVuSans-72" x="282.478516"/>
      <use xlink:href="#DejaVuSans-65" x="321.341797"/>
     </g>
    </g>
   </g>
   <g id="line2d_23">
    <path d="M 73.832727 282.941659 
L 74.918528 281.839038 
L 76.00433 281.340477 
L 77.090131 280.487409 
L 78.175932 279.946403 
L 79.261733 279.567901 
L 81.433335 278.157515 
L 82.519137 277.568401 
L 83.604938 277.445163 
L 84.690739 277.163902 
L 85.77654 277.049485 
L 87.948142 276.337332 
L 89.033943 275.650943 
L 90.119745 274.804532 
L 91.205546 274.889217 
L 92.291347 275.107649 
L 93.377148 275.526206 
L 94.462949 275.02139 
L 95.54875 275.059652 
L 96.634552 276.218323 
L 97.720353 276.916817 
L 98.806154 277.343902 
L 99.891955 277.174805 
L 102.063557 277.051564 
L 103.149358 277.457084 
L 104.23516 277.468095 
L 105.320961 277.295461 
L 106.406762 276.948312 
L 107.492563 276.392523 
L 108.578364 276.575611 
L 115.093171 273.992664 
L 116.178972 273.903084 
L 117.264773 273.523892 
L 118.350575 273.341885 
L 119.436376 272.882581 
L 120.522177 272.82564 
L 121.607978 272.536437 
L 122.693779 271.9008 
L 123.77958 272.402962 
L 125.951183 271.137877 
L 127.036984 270.893132 
L 128.122785 270.810847 
L 130.294387 271.34846 
L 133.551791 272.806747 
L 134.637592 272.938019 
L 136.809194 272.625542 
L 140.066598 273.175542 
L 141.152399 273.026166 
L 142.2382 272.52372 
L 143.324001 272.558574 
L 144.409802 272.366198 
L 146.581405 272.555568 
L 147.667206 271.999245 
L 148.753007 271.831699 
L 150.924609 270.908407 
L 152.01041 270.184172 
L 153.096212 269.123619 
L 154.182013 268.55978 
L 157.439416 265.42677 
L 159.611019 263.901286 
L 160.69682 262.703475 
L 162.868422 261.303401 
L 163.954223 261.126928 
L 165.040024 260.531676 
L 167.211627 260.200108 
L 168.297428 259.365986 
L 169.383229 259.233994 
L 172.640632 257.405231 
L 173.726434 257.231947 
L 174.812235 256.43704 
L 175.898036 256.409212 
L 176.983837 255.569964 
L 178.069638 254.35991 
L 180.24124 252.40305 
L 181.327042 251.118586 
L 182.412843 248.568026 
L 183.498644 247.178415 
L 185.670246 243.357694 
L 186.756047 241.06538 
L 191.099252 234.329885 
L 193.270854 229.486481 
L 194.356656 227.543185 
L 197.614059 220.758734 
L 200.871462 213.049805 
L 201.957264 210.940998 
L 203.043065 208.06245 
L 204.128866 206.122385 
L 205.214667 203.833578 
L 208.472071 195.006132 
L 210.643673 190.61837 
L 212.815275 184.585286 
L 213.901076 181.637612 
L 216.072679 177.17715 
L 220.415883 165.222623 
L 222.587486 160.381991 
L 225.844889 152.068061 
L 226.93069 149.36526 
L 229.102292 143.502593 
L 230.188094 140.930484 
L 231.273895 139.129949 
L 232.359696 136.925411 
L 233.445497 135.002905 
L 234.531298 133.505516 
L 235.617099 131.053758 
L 237.788702 126.807418 
L 238.874503 125.164779 
L 241.046105 122.561233 
L 244.303509 118.150637 
L 248.646713 112.56314 
L 250.818316 110.162515 
L 251.904117 108.901338 
L 254.075719 105.649446 
L 257.333123 102.900406 
L 258.418924 102.687328 
L 259.504725 101.677699 
L 260.590526 100.97656 
L 264.933731 102.202464 
L 266.019532 101.583826 
L 267.105333 102.4528 
L 270.362736 102.230137 
L 271.448538 102.988113 
L 272.534339 102.895764 
L 273.62014 102.547422 
L 274.705941 102.600593 
L 277.963344 105.240591 
L 280.134947 106.367642 
L 281.220748 107.220719 
L 282.306549 108.348634 
L 284.478151 110.076344 
L 285.563953 110.089165 
L 286.649754 111.057666 
L 287.735555 111.241833 
L 288.821356 111.306791 
L 289.907157 111.092872 
L 290.992958 110.499101 
L 292.07876 111.122073 
L 294.250362 111.382001 
L 297.507765 110.850486 
L 298.593566 109.686979 
L 299.679368 109.601465 
L 300.765169 109.028648 
L 301.85097 109.116825 
L 302.936771 108.700229 
L 304.022572 108.558006 
L 305.108373 109.094881 
L 306.194175 109.285442 
L 307.279976 109.768627 
L 309.451578 109.428265 
L 311.62318 109.900064 
L 312.708981 110.10384 
L 313.794783 110.628973 
L 315.966385 111.990166 
L 317.052186 112.900683 
L 318.137987 112.957733 
L 319.223788 112.768143 
L 321.395391 113.390203 
L 322.481192 112.755709 
L 323.566993 112.69711 
L 324.652794 113.184931 
L 325.738595 112.722027 
L 326.824396 112.789391 
L 327.910198 112.553797 
L 328.995999 112.671727 
L 330.0818 113.680873 
L 331.167601 113.491047 
L 332.253402 113.460835 
L 333.339203 113.822496 
L 334.425005 114.318689 
L 336.596607 115.940023 
L 337.682408 117.106175 
L 338.768209 117.525682 
L 339.85401 118.298068 
L 340.939811 118.790186 
L 342.025613 118.662779 
L 343.111414 118.74188 
L 344.197215 118.429063 
L 346.368817 118.509761 
L 347.454618 118.783215 
L 348.54042 118.797201 
L 349.626221 119.40978 
L 350.712022 119.012657 
L 351.797823 119.514741 
L 353.969425 121.442152 
L 355.055227 122.963292 
L 356.141028 123.491469 
L 357.226829 124.615778 
L 358.31263 124.956706 
L 361.570033 128.013042 
L 362.655835 129.550916 
L 363.741636 130.687456 
L 364.827437 132.521198 
L 365.913238 133.818411 
L 366.999039 134.919659 
L 370.256443 136.350409 
L 371.342244 137.31692 
L 375.685448 142.374293 
L 376.77125 143.94038 
L 377.857051 144.778139 
L 378.942852 146.044327 
L 380.028653 146.536539 
L 381.114454 146.854351 
L 383.286057 149.045766 
L 384.371858 149.603693 
L 387.629261 154.132973 
L 388.715062 154.802111 
L 389.800863 156.852311 
L 390.886665 157.754236 
L 391.972466 158.932819 
L 394.144068 161.745425 
L 395.229869 162.978169 
L 396.31567 164.938791 
L 398.487273 167.955126 
L 398.487273 167.955126 
" clip-path="url(#p93f8f24f85)" style="fill: none; stroke: #ff00ff; stroke-width: 1.5; stroke-linecap: square"/>
   </g>
   <g id="line2d_24">
    <path d="M 182.412843 307.584 
L 182.412843 41.472 
" clip-path="url(#p93f8f24f85)" style="fill: none; stroke: #000000; stroke-width: 1.5; stroke-linecap: square"/>
   </g>
   <g id="patch_3">
    <path d="M 57.6 307.584 
L 57.6 41.472 
" style="fill: none; stroke: #000000; stroke-width: 0.8; stroke-linejoin: miter; stroke-linecap: square"/>
   </g>
   <g id="patch_4">
    <path d="M 414.72 307.584 
L 414.72 41.472 
" style="fill: none; stroke: #000000; stroke-width: 0.8; stroke-linejoin: miter; stroke-linecap: square"/>
   </g>
   <g id="patch_5">
    <path d="M 57.6 307.584 
L 414.72 307.584 
" style="fill: none; stroke: #000000; stroke-width: 0.8; stroke-linejoin: miter; stroke-linecap: square"/>
   </g>
   <g id="patch_6">
    <path d="M 57.6 41.472 
L 414.72 41.472 
" style="fill: none; stroke: #000000; stroke-width: 0.8; stroke-linejoin: miter; stroke-linecap: square"/>
   </g>
   <g id="text_25">
    <!-- Event 17_p=0.001 -->
    <g transform="translate(180.415312 35.472) scale(0.12 -0.12)">
     <defs>
      <path id="DejaVuSans-45" d="M 628 4666 
L 3578 4666 
L 3578 4134 
L 1259 4134 
L 1259 2753 
L 3481 2753 
L 3481 2222 
L 1259 2222 
L 1259 531 
L 3634 531 
L 3634 0 
L 628 0 
L 628 4666 
z
" transform="scale(0.015625)"/>
      <path id="DejaVuSans-76" d="M 191 3500 
L 800 3500 
L 1894 563 
L 2988 3500 
L 3597 3500 
L 2284 0 
L 1503 0 
L 191 3500 
z
" transform="scale(0.015625)"/>
      <path id="DejaVuSans-6e" d="M 3513 2113 
L 3513 0 
L 2938 0 
L 2938 2094 
Q 2938 2591 2744 2837 
Q 2550 3084 2163 3084 
Q 1697 3084 1428 2787 
Q 1159 2491 1159 1978 
L 1159 0 
L 581 0 
L 581 3500 
L 1159 3500 
L 1159 2956 
Q 1366 3272 1645 3428 
Q 1925 3584 2291 3584 
Q 2894 3584 3203 3211 
Q 3513 2838 3513 2113 
z
" transform="scale(0.015625)"/>
      <path id="DejaVuSans-74" d="M 1172 4494 
L 1172 3500 
L 2356 3500 
L 2356 3053 
L 1172 3053 
L 1172 1153 
Q 1172 725 1289 603 
Q 1406 481 1766 481 
L 2356 481 
L 2356 0 
L 1766 0 
Q 1100 0 847 248 
Q 594 497 594 1153 
L 594 3053 
L 172 3053 
L 172 3500 
L 594 3500 
L 594 4494 
L 1172 4494 
z
" transform="scale(0.015625)"/>
      <path id="DejaVuSans-5f" d="M 3263 -1063 
L 3263 -1509 
L -63 -1509 
L -63 -1063 
L 3263 -1063 
z
" transform="scale(0.015625)"/>
      <path id="DejaVuSans-70" d="M 1159 525 
L 1159 -1331 
L 581 -1331 
L 581 3500 
L 1159 3500 
L 1159 2969 
Q 1341 3281 1617 3432 
Q 1894 3584 2278 3584 
Q 2916 3584 3314 3078 
Q 3713 2572 3713 1747 
Q 3713 922 3314 415 
Q 2916 -91 2278 -91 
Q 1894 -91 1617 61 
Q 1341 213 1159 525 
z
M 3116 1747 
Q 3116 2381 2855 2742 
Q 2594 3103 2138 3103 
Q 1681 3103 1420 2742 
Q 1159 2381 1159 1747 
Q 1159 1113 1420 752 
Q 1681 391 2138 391 
Q 2594 391 2855 752 
Q 3116 1113 3116 1747 
z
" transform="scale(0.015625)"/>
      <path id="DejaVuSans-3d" d="M 678 2906 
L 4684 2906 
L 4684 2381 
L 678 2381 
L 678 2906 
z
M 678 1631 
L 4684 1631 
L 4684 1100 
L 678 1100 
L 678 1631 
z
" transform="scale(0.015625)"/>
     </defs>
     <use xlink:href="#DejaVuSans-45"/>
     <use xlink:href="#DejaVuSans-76" x="63.183594"/>
     <use xlink:href="#DejaVuSans-65" x="122.363281"/>
     <use xlink:href="#DejaVuSans-6e" x="183.886719"/>
     <use xlink:href="#DejaVuSans-74" x="247.265625"/>
     <use xlink:href="#DejaVuSans-20" x="286.474609"/>
     <use xlink:href="#DejaVuSans-31" x="318.261719"/>
     <use xlink:href="#DejaVuSans-37" x="381.884766"/>
     <use xlink:href="#DejaVuSans-5f" x="445.507812"/>
     <use xlink:href="#DejaVuSans-70" x="495.507812"/>
     <use xlink:href="#DejaVuSans-3d" x="558.984375"/>
     <use xlink:href="#DejaVuSans-30" x="642.773438"/>
     <use xlink:href="#DejaVuSans-2e" x="706.396484"/>
     <use xlink:href="#DejaVuSans-30" x="738.183594"/>
     <use xlink:href="#DejaVuSans-30" x="801.806641"/>
     <use xlink:href="#DejaVuSans-31" x="865.429688"/>
    </g>
   </g>
  </g>
 </g>
 <defs>
  <clipPath id="p93f8f24f85">
   <rect x="57.6" y="41.472" width="357.12" height="266.112"/>
  </clipPath>
 </defs>
</svg>
