<?xml version="1.0" encoding="utf-8" standalone="no"?>
<!DOCTYPE svg PUBLIC "-//W3C//DTD SVG 1.1//EN"
  "http://www.w3.org/Graphics/SVG/1.1/DTD/svg11.dtd">
<svg xmlns:xlink="http://www.w3.org/1999/xlink" width="460.8pt" height="345.6pt" viewBox="0 0 460.8 345.6" xmlns="http://www.w3.org/2000/svg" version="1.1">
 <metadata>
  <rdf:RDF xmlns:dc="http://purl.org/dc/elements/1.1/" xmlns:cc="http://creativecommons.org/ns#" xmlns:rdf="http://www.w3.org/1999/02/22-rdf-syntax-ns#">
   <cc:Work>
    <dc:type rdf:resource="http://purl.org/dc/dcmitype/StillImage"/>
    <dc:date>2024-11-14T18:55:15.791569</dc:date>
    <dc:format>image/svg+xml</dc:format>
    <dc:creator>
     <cc:Agent>
      <dc:title>Matplotlib v3.8.2, https://matplotlib.org/</dc:title>
     </cc:Agent>
    </dc:creator>
   </cc:Work>
  </rdf:RDF>
 </metadata>
 <defs>
  <style type="text/css">*{stroke-linejoin: round; stroke-linecap: butt}</style>
 </defs>
 <g id="figure_1">
  <g id="patch_1">
   <path d="M 0 345.6 
L 460.8 345.6 
L 460.8 0 
L 0 0 
z
" style="fill: #ffffff"/>
  </g>
  <g id="axes_1">
   <g id="patch_2">
    <path d="M 57.6 307.584 
L 414.72 307.584 
L 414.72 41.472 
L 57.6 41.472 
z
" style="fill: #ffffff"/>
   </g>
   <g id="PolyCollection_1">
    <defs>
     <path id="m10fbd93a5f" d="M 73.832727 -77.408228 
L 73.832727 -60.078452 
L 74.918528 -59.527222 
L 76.00433 -59.193464 
L 77.090131 -58.857258 
L 78.175932 -58.401595 
L 79.261733 -57.819213 
L 80.347534 -57.152497 
L 81.433335 -56.384419 
L 82.519137 -55.950172 
L 83.604938 -55.813328 
L 84.690739 -55.220209 
L 85.77654 -55.02089 
L 86.862341 -54.766052 
L 87.948142 -54.653351 
L 89.033943 -53.948503 
L 90.119745 -53.327402 
L 91.205546 -53.327381 
L 92.291347 -52.861705 
L 93.377148 -52.583476 
L 94.462949 -52.084166 
L 95.54875 -51.619533 
L 96.634552 -51.483797 
L 97.720353 -51.135981 
L 98.806154 -50.587076 
L 99.891955 -50.346542 
L 100.977756 -50.112 
L 102.063557 -50.376082 
L 103.149358 -50.638599 
L 104.23516 -50.652135 
L 105.320961 -51.010986 
L 106.406762 -51.362631 
L 107.492563 -51.699167 
L 108.578364 -52.242801 
L 109.664165 -52.554952 
L 110.749967 -53.323285 
L 111.835768 -53.962403 
L 112.921569 -54.289238 
L 114.00737 -54.81655 
L 115.093171 -55.917745 
L 116.178972 -56.818741 
L 117.264773 -57.809951 
L 118.350575 -58.795295 
L 119.436376 -59.520632 
L 120.522177 -60.340664 
L 121.607978 -60.707765 
L 122.693779 -61.577243 
L 123.77958 -62.246208 
L 124.865382 -63.170896 
L 125.951183 -63.649062 
L 127.036984 -64.226647 
L 128.122785 -64.702294 
L 129.208586 -65.134566 
L 130.294387 -64.937938 
L 131.380189 -64.595123 
L 132.46599 -64.998524 
L 133.551791 -64.288741 
L 134.637592 -62.993687 
L 135.723393 -63.348578 
L 136.809194 -63.444349 
L 137.894995 -63.267986 
L 138.980797 -63.348147 
L 140.066598 -65.822489 
L 141.152399 -65.990205 
L 142.2382 -66.109699 
L 143.324001 -66.933049 
L 144.409802 -66.131414 
L 145.495604 -66.897521 
L 146.581405 -66.324671 
L 147.667206 -65.491847 
L 148.753007 -65.310173 
L 149.838808 -65.899923 
L 150.924609 -65.29255 
L 152.01041 -65.232225 
L 153.096212 -67.311489 
L 154.182013 -68.573411 
L 155.267814 -69.421311 
L 156.353615 -70.266378 
L 157.439416 -67.471359 
L 158.525217 -68.199977 
L 159.611019 -70.113571 
L 160.69682 -68.242914 
L 161.782621 -70.147063 
L 162.868422 -71.193319 
L 163.954223 -69.768459 
L 165.040024 -70.167035 
L 166.125825 -73.963942 
L 167.211627 -73.74749 
L 168.297428 -74.641041 
L 169.383229 -76.267397 
L 170.46903 -79.086488 
L 171.554831 -82.729488 
L 172.640632 -86.990902 
L 173.726434 -88.008649 
L 174.812235 -90.690087 
L 175.898036 -93.005646 
L 176.983837 -93.015634 
L 178.069638 -95.347585 
L 179.155439 -96.795497 
L 180.24124 -98.362281 
L 181.327042 -98.765595 
L 182.412843 -102.923554 
L 183.498644 -104.874087 
L 184.584445 -106.368941 
L 185.670246 -105.46438 
L 186.756047 -104.580358 
L 187.841849 -103.620631 
L 188.92765 -103.884859 
L 190.013451 -103.869867 
L 191.099252 -102.266126 
L 192.185053 -102.89767 
L 193.270854 -102.710721 
L 194.356656 -101.954136 
L 195.442457 -101.144605 
L 196.528258 -102.628691 
L 197.614059 -101.912951 
L 198.69986 -100.086363 
L 199.785661 -98.489023 
L 200.871462 -97.885458 
L 201.957264 -96.459475 
L 203.043065 -93.110304 
L 204.128866 -91.672041 
L 205.214667 -91.340388 
L 206.300468 -91.362151 
L 207.386269 -91.766488 
L 208.472071 -92.252707 
L 209.557872 -93.543105 
L 210.643673 -92.850441 
L 211.729474 -92.507143 
L 212.815275 -91.606483 
L 213.901076 -91.513086 
L 214.986877 -91.608429 
L 216.072679 -91.366747 
L 217.15848 -92.304131 
L 218.244281 -91.361474 
L 219.330082 -90.026354 
L 220.415883 -91.080854 
L 221.501684 -90.637271 
L 222.587486 -89.764603 
L 223.673287 -89.792416 
L 224.759088 -89.369222 
L 225.844889 -88.81821 
L 226.93069 -88.106045 
L 228.016491 -87.362261 
L 229.102292 -86.378511 
L 230.188094 -85.975019 
L 231.273895 -85.358587 
L 232.359696 -84.615735 
L 233.445497 -83.699386 
L 234.531298 -83.518526 
L 235.617099 -83.122958 
L 236.702901 -83.246215 
L 237.788702 -83.014292 
L 238.874503 -82.835511 
L 239.960304 -82.402945 
L 241.046105 -81.004752 
L 242.131906 -79.018677 
L 243.217708 -78.845155 
L 244.303509 -78.411148 
L 245.38931 -77.551201 
L 246.475111 -76.516618 
L 247.560912 -75.251967 
L 248.646713 -72.229939 
L 249.732514 -73.204402 
L 250.818316 -74.448757 
L 251.904117 -74.838131 
L 252.989918 -74.87836 
L 254.075719 -74.54741 
L 255.16152 -76.20013 
L 256.247321 -75.863647 
L 257.333123 -75.728708 
L 258.418924 -76.90185 
L 259.504725 -76.449011 
L 260.590526 -75.748132 
L 261.676327 -77.033856 
L 262.762128 -77.532984 
L 263.847929 -78.743091 
L 264.933731 -79.72036 
L 266.019532 -80.744602 
L 267.105333 -83.167047 
L 268.191134 -84.439536 
L 269.276935 -84.803072 
L 270.362736 -84.393532 
L 271.448538 -84.689151 
L 272.534339 -84.367871 
L 273.62014 -84.748187 
L 274.705941 -85.109869 
L 275.791742 -84.974797 
L 276.877543 -86.347651 
L 277.963344 -86.71784 
L 279.049146 -86.086535 
L 280.134947 -85.752653 
L 281.220748 -83.76407 
L 282.306549 -83.50889 
L 283.39235 -84.556917 
L 284.478151 -83.162681 
L 285.563953 -82.978255 
L 286.649754 -82.855028 
L 287.735555 -81.974249 
L 288.821356 -81.779561 
L 289.907157 -80.769279 
L 290.992958 -80.685402 
L 292.07876 -79.841181 
L 293.164561 -79.100848 
L 294.250362 -77.396687 
L 295.336163 -77.214479 
L 296.421964 -76.954814 
L 297.507765 -76.577723 
L 298.593566 -76.021481 
L 299.679368 -76.893665 
L 300.765169 -75.849994 
L 301.85097 -74.146213 
L 302.936771 -74.104747 
L 304.022572 -74.638892 
L 305.108373 -74.863941 
L 306.194175 -75.277302 
L 307.279976 -74.756976 
L 308.365777 -74.353373 
L 309.451578 -74.108888 
L 310.537379 -74.267775 
L 311.62318 -73.844017 
L 312.708981 -74.82735 
L 313.794783 -75.021603 
L 314.880584 -73.764069 
L 315.966385 -73.46899 
L 317.052186 -72.983415 
L 318.137987 -72.495702 
L 319.223788 -71.563331 
L 320.30959 -70.932652 
L 321.395391 -70.787393 
L 322.481192 -69.313285 
L 323.566993 -68.997981 
L 324.652794 -67.972289 
L 325.738595 -67.230689 
L 326.824396 -66.598287 
L 327.910198 -65.324145 
L 328.995999 -65.134696 
L 330.0818 -64.895792 
L 331.167601 -63.672844 
L 332.253402 -62.810544 
L 333.339203 -63.136841 
L 334.425005 -63.8908 
L 335.510806 -63.110506 
L 336.596607 -63.585719 
L 337.682408 -63.194723 
L 338.768209 -63.26769 
L 339.85401 -63.600773 
L 340.939811 -62.908392 
L 342.025613 -62.85801 
L 343.111414 -64.008428 
L 344.197215 -64.616615 
L 345.283016 -66.025409 
L 346.368817 -66.874736 
L 347.454618 -67.017563 
L 348.54042 -68.769186 
L 349.626221 -70.402944 
L 350.712022 -72.02728 
L 351.797823 -73.118576 
L 352.883624 -74.089342 
L 353.969425 -74.837165 
L 355.055227 -75.664061 
L 356.141028 -76.217974 
L 357.226829 -76.428581 
L 358.31263 -76.844184 
L 359.398431 -77.136359 
L 360.484232 -77.644884 
L 361.570033 -78.123245 
L 362.655835 -78.582242 
L 363.741636 -79.536379 
L 364.827437 -80.173494 
L 365.913238 -81.528656 
L 366.999039 -82.546638 
L 368.08484 -84.026446 
L 369.170642 -85.309778 
L 370.256443 -86.847944 
L 371.342244 -87.999285 
L 372.428045 -89.102372 
L 373.513846 -90.320973 
L 374.599647 -91.204417 
L 375.685448 -92.335586 
L 376.77125 -93.292101 
L 377.857051 -93.712937 
L 378.942852 -94.143726 
L 380.028653 -94.434306 
L 381.114454 -94.803785 
L 382.200255 -94.927786 
L 383.286057 -95.32704 
L 384.371858 -95.648956 
L 385.457659 -96.075831 
L 386.54346 -96.546114 
L 387.629261 -97.057456 
L 388.715062 -97.524428 
L 389.800863 -97.7475 
L 390.886665 -98.269702 
L 391.972466 -98.740972 
L 393.058267 -98.988762 
L 394.144068 -99.351877 
L 395.229869 -99.594164 
L 396.31567 -99.996978 
L 397.401472 -100.044073 
L 398.487273 -100.302358 
L 398.487273 -292.032 
L 398.487273 -292.032 
L 397.401472 -289.654535 
L 396.31567 -286.903512 
L 395.229869 -281.891923 
L 394.144068 -279.101074 
L 393.058267 -274.371102 
L 391.972466 -271.877628 
L 390.886665 -266.102448 
L 389.800863 -261.26871 
L 388.715062 -256.23306 
L 387.629261 -250.712365 
L 386.54346 -245.624814 
L 385.457659 -239.073925 
L 384.371858 -232.673496 
L 383.286057 -227.997714 
L 382.200255 -223.3543 
L 381.114454 -219.754141 
L 380.028653 -214.599901 
L 378.942852 -208.808243 
L 377.857051 -202.915332 
L 376.77125 -200.12083 
L 375.685448 -194.48675 
L 374.599647 -191.258364 
L 373.513846 -189.127985 
L 372.428045 -186.61817 
L 371.342244 -182.676045 
L 370.256443 -179.985857 
L 369.170642 -176.595649 
L 368.08484 -173.871628 
L 366.999039 -170.925888 
L 365.913238 -169.451448 
L 364.827437 -166.337667 
L 363.741636 -166.553003 
L 362.655835 -167.379505 
L 361.570033 -165.682534 
L 360.484232 -163.733254 
L 359.398431 -159.821223 
L 358.31263 -157.550684 
L 357.226829 -154.38766 
L 356.141028 -150.427606 
L 355.055227 -148.496562 
L 353.969425 -144.541459 
L 352.883624 -140.797718 
L 351.797823 -138.258931 
L 350.712022 -134.678367 
L 349.626221 -131.99666 
L 348.54042 -129.181161 
L 347.454618 -126.39124 
L 346.368817 -127.85375 
L 345.283016 -127.424859 
L 344.197215 -126.448187 
L 343.111414 -126.953423 
L 342.025613 -126.839188 
L 340.939811 -128.582526 
L 339.85401 -130.825458 
L 338.768209 -131.914464 
L 337.682408 -133.466621 
L 336.596607 -134.93241 
L 335.510806 -135.869605 
L 334.425005 -137.810243 
L 333.339203 -137.983852 
L 332.253402 -138.675956 
L 331.167601 -140.257262 
L 330.0818 -142.676152 
L 328.995999 -143.736771 
L 327.910198 -145.138488 
L 326.824396 -147.651492 
L 325.738595 -148.915778 
L 324.652794 -150.134565 
L 323.566993 -151.693642 
L 322.481192 -152.661509 
L 321.395391 -154.531672 
L 320.30959 -155.228366 
L 319.223788 -156.28477 
L 318.137987 -157.759511 
L 317.052186 -158.851482 
L 315.966385 -159.1131 
L 314.880584 -159.182886 
L 313.794783 -159.991673 
L 312.708981 -159.578367 
L 311.62318 -158.307422 
L 310.537379 -158.702951 
L 309.451578 -158.644482 
L 308.365777 -158.614517 
L 307.279976 -158.932839 
L 306.194175 -158.754585 
L 305.108373 -158.41676 
L 304.022572 -158.170832 
L 302.936771 -157.830642 
L 301.85097 -157.325464 
L 300.765169 -157.445272 
L 299.679368 -157.005447 
L 298.593566 -155.542699 
L 297.507765 -154.628473 
L 296.421964 -153.691544 
L 295.336163 -153.157946 
L 294.250362 -152.099505 
L 293.164561 -152.030322 
L 292.07876 -151.462039 
L 290.992958 -150.977545 
L 289.907157 -150.129162 
L 288.821356 -149.548141 
L 287.735555 -148.200702 
L 286.649754 -147.187199 
L 285.563953 -145.682963 
L 284.478151 -144.132739 
L 283.39235 -143.092595 
L 282.306549 -140.371178 
L 281.220748 -138.543698 
L 280.134947 -138.063528 
L 279.049146 -136.359307 
L 277.963344 -134.676468 
L 276.877543 -132.289379 
L 275.791742 -129.623432 
L 274.705941 -128.15047 
L 273.62014 -125.779013 
L 272.534339 -123.925271 
L 271.448538 -122.454935 
L 270.362736 -120.905005 
L 269.276935 -119.832264 
L 268.191134 -118.013384 
L 267.105333 -115.502083 
L 266.019532 -112.589471 
L 264.933731 -110.575066 
L 263.847929 -108.325362 
L 262.762128 -106.008383 
L 261.676327 -103.905116 
L 260.590526 -101.720386 
L 259.504725 -100.300491 
L 258.418924 -98.511409 
L 257.333123 -96.154711 
L 256.247321 -94.241062 
L 255.16152 -92.717989 
L 254.075719 -90.397426 
L 252.989918 -89.180077 
L 251.904117 -88.516525 
L 250.818316 -87.892189 
L 249.732514 -87.021108 
L 248.646713 -86.427741 
L 247.560912 -86.792747 
L 246.475111 -86.414625 
L 245.38931 -86.194753 
L 244.303509 -86.25244 
L 243.217708 -85.816174 
L 242.131906 -85.724253 
L 241.046105 -86.263364 
L 239.960304 -87.29154 
L 238.874503 -88.137484 
L 237.788702 -89.049997 
L 236.702901 -90.753144 
L 235.617099 -91.430366 
L 234.531298 -93.659166 
L 233.445497 -93.960267 
L 232.359696 -96.79382 
L 231.273895 -99.433696 
L 230.188094 -99.630285 
L 229.102292 -97.808524 
L 228.016491 -99.703117 
L 226.93069 -100.232271 
L 225.844889 -100.870904 
L 224.759088 -100.563824 
L 223.673287 -101.133457 
L 222.587486 -99.949003 
L 221.501684 -101.011063 
L 220.415883 -101.526699 
L 219.330082 -100.681391 
L 218.244281 -102.331719 
L 217.15848 -103.770852 
L 216.072679 -103.352156 
L 214.986877 -104.242445 
L 213.901076 -104.705684 
L 212.815275 -105.432524 
L 211.729474 -106.264637 
L 210.643673 -106.78104 
L 209.557872 -107.585257 
L 208.472071 -107.868156 
L 207.386269 -108.633519 
L 206.300468 -109.166666 
L 205.214667 -109.975902 
L 204.128866 -111.036853 
L 203.043065 -112.485108 
L 201.957264 -114.360979 
L 200.871462 -115.499802 
L 199.785661 -116.385528 
L 198.69986 -117.511995 
L 197.614059 -118.690842 
L 196.528258 -119.551482 
L 195.442457 -119.947676 
L 194.356656 -120.838372 
L 193.270854 -121.531566 
L 192.185053 -122.255546 
L 191.099252 -122.492809 
L 190.013451 -123.104837 
L 188.92765 -123.503055 
L 187.841849 -123.98101 
L 186.756047 -124.14351 
L 185.670246 -124.223704 
L 184.584445 -124.119731 
L 183.498644 -123.419116 
L 182.412843 -122.838813 
L 181.327042 -121.288054 
L 180.24124 -121.150411 
L 179.155439 -120.547862 
L 178.069638 -120.136295 
L 176.983837 -119.052107 
L 175.898036 -117.959582 
L 174.812235 -117.078494 
L 173.726434 -116.182354 
L 172.640632 -115.220134 
L 171.554831 -114.229688 
L 170.46903 -113.176552 
L 169.383229 -111.922749 
L 168.297428 -110.646541 
L 167.211627 -109.2987 
L 166.125825 -108.099942 
L 165.040024 -107.22789 
L 163.954223 -105.954087 
L 162.868422 -104.49055 
L 161.782621 -102.940272 
L 160.69682 -101.81325 
L 159.611019 -100.699181 
L 158.525217 -99.294251 
L 157.439416 -97.82088 
L 156.353615 -96.986654 
L 155.267814 -95.641756 
L 154.182013 -94.564914 
L 153.096212 -93.617857 
L 152.01041 -92.32404 
L 150.924609 -91.583287 
L 149.838808 -90.709668 
L 148.753007 -89.874689 
L 147.667206 -88.921446 
L 146.581405 -88.323797 
L 145.495604 -87.454564 
L 144.409802 -86.310062 
L 143.324001 -85.553724 
L 142.2382 -84.410392 
L 141.152399 -83.431049 
L 140.066598 -82.50483 
L 138.980797 -80.568082 
L 137.894995 -79.736255 
L 136.809194 -78.972691 
L 135.723393 -78.131269 
L 134.637592 -77.221009 
L 133.551791 -77.305903 
L 132.46599 -76.910618 
L 131.380189 -75.798323 
L 130.294387 -75.066958 
L 129.208586 -75.365855 
L 128.122785 -74.19765 
L 127.036984 -73.404115 
L 125.951183 -72.463336 
L 124.865382 -73.363603 
L 123.77958 -72.755024 
L 122.693779 -71.952591 
L 121.607978 -74.085489 
L 120.522177 -74.763872 
L 119.436376 -74.819933 
L 118.350575 -76.869402 
L 117.264773 -77.533303 
L 116.178972 -78.155831 
L 115.093171 -78.293239 
L 114.00737 -78.417734 
L 112.921569 -79.328556 
L 111.835768 -79.487951 
L 110.749967 -79.932046 
L 109.664165 -78.795861 
L 108.578364 -78.576041 
L 107.492563 -78.524853 
L 106.406762 -79.462179 
L 105.320961 -77.886877 
L 104.23516 -76.699745 
L 103.149358 -76.640024 
L 102.063557 -76.990727 
L 100.977756 -78.317994 
L 99.891955 -77.661127 
L 98.806154 -76.065589 
L 97.720353 -76.33849 
L 96.634552 -77.728976 
L 95.54875 -76.763429 
L 94.462949 -77.632303 
L 93.377148 -78.304553 
L 92.291347 -78.187853 
L 91.205546 -78.496971 
L 90.119745 -79.152804 
L 89.033943 -79.82553 
L 87.948142 -82.845457 
L 86.862341 -82.29666 
L 85.77654 -82.386682 
L 84.690739 -82.153079 
L 83.604938 -81.444313 
L 82.519137 -78.136609 
L 81.433335 -78.600693 
L 80.347534 -78.724296 
L 79.261733 -78.375724 
L 78.175932 -77.689313 
L 77.090131 -77.646144 
L 76.00433 -77.798552 
L 74.918528 -77.027665 
L 73.832727 -77.408228 
z
" style="stroke: #ff00ff; stroke-opacity: 0.1"/>
    </defs>
    <g clip-path="url(#p8d7833131f)">
     <use xlink:href="#m10fbd93a5f" x="0" y="345.6" style="fill: #ff00ff; fill-opacity: 0.1; stroke: #ff00ff; stroke-opacity: 0.1"/>
    </g>
   </g>
   <g id="matplotlib.axis_1">
    <g id="xtick_1">
     <g id="line2d_1">
      <defs>
       <path id="m6773e73e60" d="M 0 0 
L 0 3.5 
" style="stroke: #000000; stroke-width: 0.8"/>
      </defs>
      <g>
       <use xlink:href="#m6773e73e60" x="73.832727" y="307.584" style="stroke: #000000; stroke-width: 0.8"/>
      </g>
     </g>
     <g id="text_1">
      <!-- −5 -->
      <g transform="translate(66.461634 322.182437) scale(0.1 -0.1)">
       <defs>
        <path id="DejaVuSans-2212" d="M 678 2272 
L 4684 2272 
L 4684 1741 
L 678 1741 
L 678 2272 
z
" transform="scale(0.015625)"/>
        <path id="DejaVuSans-35" d="M 691 4666 
L 3169 4666 
L 3169 4134 
L 1269 4134 
L 1269 2991 
Q 1406 3038 1543 3061 
Q 1681 3084 1819 3084 
Q 2600 3084 3056 2656 
Q 3513 2228 3513 1497 
Q 3513 744 3044 326 
Q 2575 -91 1722 -91 
Q 1428 -91 1123 -41 
Q 819 9 494 109 
L 494 744 
Q 775 591 1075 516 
Q 1375 441 1709 441 
Q 2250 441 2565 725 
Q 2881 1009 2881 1497 
Q 2881 1984 2565 2268 
Q 2250 2553 1709 2553 
Q 1456 2553 1204 2497 
Q 953 2441 691 2322 
L 691 4666 
z
" transform="scale(0.015625)"/>
       </defs>
       <use xlink:href="#DejaVuSans-2212"/>
       <use xlink:href="#DejaVuSans-35" x="83.789062"/>
      </g>
     </g>
    </g>
    <g id="xtick_2">
     <g id="line2d_2">
      <g>
       <use xlink:href="#m6773e73e60" x="95.54875" y="307.584" style="stroke: #000000; stroke-width: 0.8"/>
      </g>
     </g>
     <g id="text_2">
      <!-- −4 -->
      <g transform="translate(88.177657 322.182437) scale(0.1 -0.1)">
       <defs>
        <path id="DejaVuSans-34" d="M 2419 4116 
L 825 1625 
L 2419 1625 
L 2419 4116 
z
M 2253 4666 
L 3047 4666 
L 3047 1625 
L 3713 1625 
L 3713 1100 
L 3047 1100 
L 3047 0 
L 2419 0 
L 2419 1100 
L 313 1100 
L 313 1709 
L 2253 4666 
z
" transform="scale(0.015625)"/>
       </defs>
       <use xlink:href="#DejaVuSans-2212"/>
       <use xlink:href="#DejaVuSans-34" x="83.789062"/>
      </g>
     </g>
    </g>
    <g id="xtick_3">
     <g id="line2d_3">
      <g>
       <use xlink:href="#m6773e73e60" x="117.264773" y="307.584" style="stroke: #000000; stroke-width: 0.8"/>
      </g>
     </g>
     <g id="text_3">
      <!-- −3 -->
      <g transform="translate(109.89368 322.182437) scale(0.1 -0.1)">
       <defs>
        <path id="DejaVuSans-33" d="M 2597 2516 
Q 3050 2419 3304 2112 
Q 3559 1806 3559 1356 
Q 3559 666 3084 287 
Q 2609 -91 1734 -91 
Q 1441 -91 1130 -33 
Q 819 25 488 141 
L 488 750 
Q 750 597 1062 519 
Q 1375 441 1716 441 
Q 2309 441 2620 675 
Q 2931 909 2931 1356 
Q 2931 1769 2642 2001 
Q 2353 2234 1838 2234 
L 1294 2234 
L 1294 2753 
L 1863 2753 
Q 2328 2753 2575 2939 
Q 2822 3125 2822 3475 
Q 2822 3834 2567 4026 
Q 2313 4219 1838 4219 
Q 1578 4219 1281 4162 
Q 984 4106 628 3988 
L 628 4550 
Q 988 4650 1302 4700 
Q 1616 4750 1894 4750 
Q 2613 4750 3031 4423 
Q 3450 4097 3450 3541 
Q 3450 3153 3228 2886 
Q 3006 2619 2597 2516 
z
" transform="scale(0.015625)"/>
       </defs>
       <use xlink:href="#DejaVuSans-2212"/>
       <use xlink:href="#DejaVuSans-33" x="83.789062"/>
      </g>
     </g>
    </g>
    <g id="xtick_4">
     <g id="line2d_4">
      <g>
       <use xlink:href="#m6773e73e60" x="138.980797" y="307.584" style="stroke: #000000; stroke-width: 0.8"/>
      </g>
     </g>
     <g id="text_4">
      <!-- −2 -->
      <g transform="translate(131.609703 322.182437) scale(0.1 -0.1)">
       <defs>
        <path id="DejaVuSans-32" d="M 1228 531 
L 3431 531 
L 3431 0 
L 469 0 
L 469 531 
Q 828 903 1448 1529 
Q 2069 2156 2228 2338 
Q 2531 2678 2651 2914 
Q 2772 3150 2772 3378 
Q 2772 3750 2511 3984 
Q 2250 4219 1831 4219 
Q 1534 4219 1204 4116 
Q 875 4013 500 3803 
L 500 4441 
Q 881 4594 1212 4672 
Q 1544 4750 1819 4750 
Q 2544 4750 2975 4387 
Q 3406 4025 3406 3419 
Q 3406 3131 3298 2873 
Q 3191 2616 2906 2266 
Q 2828 2175 2409 1742 
Q 1991 1309 1228 531 
z
" transform="scale(0.015625)"/>
       </defs>
       <use xlink:href="#DejaVuSans-2212"/>
       <use xlink:href="#DejaVuSans-32" x="83.789062"/>
      </g>
     </g>
    </g>
    <g id="xtick_5">
     <g id="line2d_5">
      <g>
       <use xlink:href="#m6773e73e60" x="160.69682" y="307.584" style="stroke: #000000; stroke-width: 0.8"/>
      </g>
     </g>
     <g id="text_5">
      <!-- −1 -->
      <g transform="translate(153.325726 322.182437) scale(0.1 -0.1)">
       <defs>
        <path id="DejaVuSans-31" d="M 794 531 
L 1825 531 
L 1825 4091 
L 703 3866 
L 703 4441 
L 1819 4666 
L 2450 4666 
L 2450 531 
L 3481 531 
L 3481 0 
L 794 0 
L 794 531 
z
" transform="scale(0.015625)"/>
       </defs>
       <use xlink:href="#DejaVuSans-2212"/>
       <use xlink:href="#DejaVuSans-31" x="83.789062"/>
      </g>
     </g>
    </g>
    <g id="xtick_6">
     <g id="line2d_6">
      <g>
       <use xlink:href="#m6773e73e60" x="182.412843" y="307.584" style="stroke: #000000; stroke-width: 0.8"/>
      </g>
     </g>
     <g id="text_6">
      <!-- 0 -->
      <g transform="translate(179.231593 322.182437) scale(0.1 -0.1)">
       <defs>
        <path id="DejaVuSans-30" d="M 2034 4250 
Q 1547 4250 1301 3770 
Q 1056 3291 1056 2328 
Q 1056 1369 1301 889 
Q 1547 409 2034 409 
Q 2525 409 2770 889 
Q 3016 1369 3016 2328 
Q 3016 3291 2770 3770 
Q 2525 4250 2034 4250 
z
M 2034 4750 
Q 2819 4750 3233 4129 
Q 3647 3509 3647 2328 
Q 3647 1150 3233 529 
Q 2819 -91 2034 -91 
Q 1250 -91 836 529 
Q 422 1150 422 2328 
Q 422 3509 836 4129 
Q 1250 4750 2034 4750 
z
" transform="scale(0.015625)"/>
       </defs>
       <use xlink:href="#DejaVuSans-30"/>
      </g>
     </g>
    </g>
    <g id="xtick_7">
     <g id="line2d_7">
      <g>
       <use xlink:href="#m6773e73e60" x="204.128866" y="307.584" style="stroke: #000000; stroke-width: 0.8"/>
      </g>
     </g>
     <g id="text_7">
      <!-- 1 -->
      <g transform="translate(200.947616 322.182437) scale(0.1 -0.1)">
       <use xlink:href="#DejaVuSans-31"/>
      </g>
     </g>
    </g>
    <g id="xtick_8">
     <g id="line2d_8">
      <g>
       <use xlink:href="#m6773e73e60" x="225.844889" y="307.584" style="stroke: #000000; stroke-width: 0.8"/>
      </g>
     </g>
     <g id="text_8">
      <!-- 2 -->
      <g transform="translate(222.663639 322.182437) scale(0.1 -0.1)">
       <use xlink:href="#DejaVuSans-32"/>
      </g>
     </g>
    </g>
    <g id="xtick_9">
     <g id="line2d_9">
      <g>
       <use xlink:href="#m6773e73e60" x="247.560912" y="307.584" style="stroke: #000000; stroke-width: 0.8"/>
      </g>
     </g>
     <g id="text_9">
      <!-- 3 -->
      <g transform="translate(244.379662 322.182437) scale(0.1 -0.1)">
       <use xlink:href="#DejaVuSans-33"/>
      </g>
     </g>
    </g>
    <g id="xtick_10">
     <g id="line2d_10">
      <g>
       <use xlink:href="#m6773e73e60" x="269.276935" y="307.584" style="stroke: #000000; stroke-width: 0.8"/>
      </g>
     </g>
     <g id="text_10">
      <!-- 4 -->
      <g transform="translate(266.095685 322.182437) scale(0.1 -0.1)">
       <use xlink:href="#DejaVuSans-34"/>
      </g>
     </g>
    </g>
    <g id="xtick_11">
     <g id="line2d_11">
      <g>
       <use xlink:href="#m6773e73e60" x="290.992958" y="307.584" style="stroke: #000000; stroke-width: 0.8"/>
      </g>
     </g>
     <g id="text_11">
      <!-- 5 -->
      <g transform="translate(287.811708 322.182437) scale(0.1 -0.1)">
       <use xlink:href="#DejaVuSans-35"/>
      </g>
     </g>
    </g>
    <g id="xtick_12">
     <g id="line2d_12">
      <g>
       <use xlink:href="#m6773e73e60" x="312.708981" y="307.584" style="stroke: #000000; stroke-width: 0.8"/>
      </g>
     </g>
     <g id="text_12">
      <!-- 6 -->
      <g transform="translate(309.527731 322.182437) scale(0.1 -0.1)">
       <defs>
        <path id="DejaVuSans-36" d="M 2113 2584 
Q 1688 2584 1439 2293 
Q 1191 2003 1191 1497 
Q 1191 994 1439 701 
Q 1688 409 2113 409 
Q 2538 409 2786 701 
Q 3034 994 3034 1497 
Q 3034 2003 2786 2293 
Q 2538 2584 2113 2584 
z
M 3366 4563 
L 3366 3988 
Q 3128 4100 2886 4159 
Q 2644 4219 2406 4219 
Q 1781 4219 1451 3797 
Q 1122 3375 1075 2522 
Q 1259 2794 1537 2939 
Q 1816 3084 2150 3084 
Q 2853 3084 3261 2657 
Q 3669 2231 3669 1497 
Q 3669 778 3244 343 
Q 2819 -91 2113 -91 
Q 1303 -91 875 529 
Q 447 1150 447 2328 
Q 447 3434 972 4092 
Q 1497 4750 2381 4750 
Q 2619 4750 2861 4703 
Q 3103 4656 3366 4563 
z
" transform="scale(0.015625)"/>
       </defs>
       <use xlink:href="#DejaVuSans-36"/>
      </g>
     </g>
    </g>
    <g id="xtick_13">
     <g id="line2d_13">
      <g>
       <use xlink:href="#m6773e73e60" x="334.425005" y="307.584" style="stroke: #000000; stroke-width: 0.8"/>
      </g>
     </g>
     <g id="text_13">
      <!-- 7 -->
      <g transform="translate(331.243755 322.182437) scale(0.1 -0.1)">
       <defs>
        <path id="DejaVuSans-37" d="M 525 4666 
L 3525 4666 
L 3525 4397 
L 1831 0 
L 1172 0 
L 2766 4134 
L 525 4134 
L 525 4666 
z
" transform="scale(0.015625)"/>
       </defs>
       <use xlink:href="#DejaVuSans-37"/>
      </g>
     </g>
    </g>
    <g id="xtick_14">
     <g id="line2d_14">
      <g>
       <use xlink:href="#m6773e73e60" x="356.141028" y="307.584" style="stroke: #000000; stroke-width: 0.8"/>
      </g>
     </g>
     <g id="text_14">
      <!-- 8 -->
      <g transform="translate(352.959778 322.182437) scale(0.1 -0.1)">
       <defs>
        <path id="DejaVuSans-38" d="M 2034 2216 
Q 1584 2216 1326 1975 
Q 1069 1734 1069 1313 
Q 1069 891 1326 650 
Q 1584 409 2034 409 
Q 2484 409 2743 651 
Q 3003 894 3003 1313 
Q 3003 1734 2745 1975 
Q 2488 2216 2034 2216 
z
M 1403 2484 
Q 997 2584 770 2862 
Q 544 3141 544 3541 
Q 544 4100 942 4425 
Q 1341 4750 2034 4750 
Q 2731 4750 3128 4425 
Q 3525 4100 3525 3541 
Q 3525 3141 3298 2862 
Q 3072 2584 2669 2484 
Q 3125 2378 3379 2068 
Q 3634 1759 3634 1313 
Q 3634 634 3220 271 
Q 2806 -91 2034 -91 
Q 1263 -91 848 271 
Q 434 634 434 1313 
Q 434 1759 690 2068 
Q 947 2378 1403 2484 
z
M 1172 3481 
Q 1172 3119 1398 2916 
Q 1625 2713 2034 2713 
Q 2441 2713 2670 2916 
Q 2900 3119 2900 3481 
Q 2900 3844 2670 4047 
Q 2441 4250 2034 4250 
Q 1625 4250 1398 4047 
Q 1172 3844 1172 3481 
z
" transform="scale(0.015625)"/>
       </defs>
       <use xlink:href="#DejaVuSans-38"/>
      </g>
     </g>
    </g>
    <g id="xtick_15">
     <g id="line2d_15">
      <g>
       <use xlink:href="#m6773e73e60" x="377.857051" y="307.584" style="stroke: #000000; stroke-width: 0.8"/>
      </g>
     </g>
     <g id="text_15">
      <!-- 9 -->
      <g transform="translate(374.675801 322.182437) scale(0.1 -0.1)">
       <defs>
        <path id="DejaVuSans-39" d="M 703 97 
L 703 672 
Q 941 559 1184 500 
Q 1428 441 1663 441 
Q 2288 441 2617 861 
Q 2947 1281 2994 2138 
Q 2813 1869 2534 1725 
Q 2256 1581 1919 1581 
Q 1219 1581 811 2004 
Q 403 2428 403 3163 
Q 403 3881 828 4315 
Q 1253 4750 1959 4750 
Q 2769 4750 3195 4129 
Q 3622 3509 3622 2328 
Q 3622 1225 3098 567 
Q 2575 -91 1691 -91 
Q 1453 -91 1209 -44 
Q 966 3 703 97 
z
M 1959 2075 
Q 2384 2075 2632 2365 
Q 2881 2656 2881 3163 
Q 2881 3666 2632 3958 
Q 2384 4250 1959 4250 
Q 1534 4250 1286 3958 
Q 1038 3666 1038 3163 
Q 1038 2656 1286 2365 
Q 1534 2075 1959 2075 
z
" transform="scale(0.015625)"/>
       </defs>
       <use xlink:href="#DejaVuSans-39"/>
      </g>
     </g>
    </g>
    <g id="xtick_16">
     <g id="line2d_16">
      <g>
       <use xlink:href="#m6773e73e60" x="399.573074" y="307.584" style="stroke: #000000; stroke-width: 0.8"/>
      </g>
     </g>
     <g id="text_16">
      <!-- 10 -->
      <g transform="translate(393.210574 322.182437) scale(0.1 -0.1)">
       <use xlink:href="#DejaVuSans-31"/>
       <use xlink:href="#DejaVuSans-30" x="63.623047"/>
      </g>
     </g>
    </g>
    <g id="text_17">
     <!-- Time (s) -->
     <g transform="translate(215.831094 335.860562) scale(0.1 -0.1)">
      <defs>
       <path id="DejaVuSans-54" d="M -19 4666 
L 3928 4666 
L 3928 4134 
L 2272 4134 
L 2272 0 
L 1638 0 
L 1638 4134 
L -19 4134 
L -19 4666 
z
" transform="scale(0.015625)"/>
       <path id="DejaVuSans-69" d="M 603 3500 
L 1178 3500 
L 1178 0 
L 603 0 
L 603 3500 
z
M 603 4863 
L 1178 4863 
L 1178 4134 
L 603 4134 
L 603 4863 
z
" transform="scale(0.015625)"/>
       <path id="DejaVuSans-6d" d="M 3328 2828 
Q 3544 3216 3844 3400 
Q 4144 3584 4550 3584 
Q 5097 3584 5394 3201 
Q 5691 2819 5691 2113 
L 5691 0 
L 5113 0 
L 5113 2094 
Q 5113 2597 4934 2840 
Q 4756 3084 4391 3084 
Q 3944 3084 3684 2787 
Q 3425 2491 3425 1978 
L 3425 0 
L 2847 0 
L 2847 2094 
Q 2847 2600 2669 2842 
Q 2491 3084 2119 3084 
Q 1678 3084 1418 2786 
Q 1159 2488 1159 1978 
L 1159 0 
L 581 0 
L 581 3500 
L 1159 3500 
L 1159 2956 
Q 1356 3278 1631 3431 
Q 1906 3584 2284 3584 
Q 2666 3584 2933 3390 
Q 3200 3197 3328 2828 
z
" transform="scale(0.015625)"/>
       <path id="DejaVuSans-65" d="M 3597 1894 
L 3597 1613 
L 953 1613 
Q 991 1019 1311 708 
Q 1631 397 2203 397 
Q 2534 397 2845 478 
Q 3156 559 3463 722 
L 3463 178 
Q 3153 47 2828 -22 
Q 2503 -91 2169 -91 
Q 1331 -91 842 396 
Q 353 884 353 1716 
Q 353 2575 817 3079 
Q 1281 3584 2069 3584 
Q 2775 3584 3186 3129 
Q 3597 2675 3597 1894 
z
M 3022 2063 
Q 3016 2534 2758 2815 
Q 2500 3097 2075 3097 
Q 1594 3097 1305 2825 
Q 1016 2553 972 2059 
L 3022 2063 
z
" transform="scale(0.015625)"/>
       <path id="DejaVuSans-20" transform="scale(0.015625)"/>
       <path id="DejaVuSans-28" d="M 1984 4856 
Q 1566 4138 1362 3434 
Q 1159 2731 1159 2009 
Q 1159 1288 1364 580 
Q 1569 -128 1984 -844 
L 1484 -844 
Q 1016 -109 783 600 
Q 550 1309 550 2009 
Q 550 2706 781 3412 
Q 1013 4119 1484 4856 
L 1984 4856 
z
" transform="scale(0.015625)"/>
       <path id="DejaVuSans-73" d="M 2834 3397 
L 2834 2853 
Q 2591 2978 2328 3040 
Q 2066 3103 1784 3103 
Q 1356 3103 1142 2972 
Q 928 2841 928 2578 
Q 928 2378 1081 2264 
Q 1234 2150 1697 2047 
L 1894 2003 
Q 2506 1872 2764 1633 
Q 3022 1394 3022 966 
Q 3022 478 2636 193 
Q 2250 -91 1575 -91 
Q 1294 -91 989 -36 
Q 684 19 347 128 
L 347 722 
Q 666 556 975 473 
Q 1284 391 1588 391 
Q 1994 391 2212 530 
Q 2431 669 2431 922 
Q 2431 1156 2273 1281 
Q 2116 1406 1581 1522 
L 1381 1569 
Q 847 1681 609 1914 
Q 372 2147 372 2553 
Q 372 3047 722 3315 
Q 1072 3584 1716 3584 
Q 2034 3584 2315 3537 
Q 2597 3491 2834 3397 
z
" transform="scale(0.015625)"/>
       <path id="DejaVuSans-29" d="M 513 4856 
L 1013 4856 
Q 1481 4119 1714 3412 
Q 1947 2706 1947 2009 
Q 1947 1309 1714 600 
Q 1481 -109 1013 -844 
L 513 -844 
Q 928 -128 1133 580 
Q 1338 1288 1338 2009 
Q 1338 2731 1133 3434 
Q 928 4138 513 4856 
z
" transform="scale(0.015625)"/>
      </defs>
      <use xlink:href="#DejaVuSans-54"/>
      <use xlink:href="#DejaVuSans-69" x="57.958984"/>
      <use xlink:href="#DejaVuSans-6d" x="85.742188"/>
      <use xlink:href="#DejaVuSans-65" x="183.154297"/>
      <use xlink:href="#DejaVuSans-20" x="244.677734"/>
      <use xlink:href="#DejaVuSans-28" x="276.464844"/>
      <use xlink:href="#DejaVuSans-73" x="315.478516"/>
      <use xlink:href="#DejaVuSans-29" x="367.578125"/>
     </g>
    </g>
   </g>
   <g id="matplotlib.axis_2">
    <g id="ytick_1">
     <g id="line2d_17">
      <defs>
       <path id="mcf55a2a74c" d="M 0 0 
L -3.5 0 
" style="stroke: #000000; stroke-width: 0.8"/>
      </defs>
      <g>
       <use xlink:href="#mcf55a2a74c" x="57.6" y="269.966582" style="stroke: #000000; stroke-width: 0.8"/>
      </g>
     </g>
     <g id="text_18">
      <!-- 0 -->
      <g transform="translate(44.2375 273.765801) scale(0.1 -0.1)">
       <use xlink:href="#DejaVuSans-30"/>
      </g>
     </g>
    </g>
    <g id="ytick_2">
     <g id="line2d_18">
      <g>
       <use xlink:href="#mcf55a2a74c" x="57.6" y="220.969381" style="stroke: #000000; stroke-width: 0.8"/>
      </g>
     </g>
     <g id="text_19">
      <!-- 2 -->
      <g transform="translate(44.2375 224.768599) scale(0.1 -0.1)">
       <use xlink:href="#DejaVuSans-32"/>
      </g>
     </g>
    </g>
    <g id="ytick_3">
     <g id="line2d_19">
      <g>
       <use xlink:href="#mcf55a2a74c" x="57.6" y="171.97218" style="stroke: #000000; stroke-width: 0.8"/>
      </g>
     </g>
     <g id="text_20">
      <!-- 4 -->
      <g transform="translate(44.2375 175.771398) scale(0.1 -0.1)">
       <use xlink:href="#DejaVuSans-34"/>
      </g>
     </g>
    </g>
    <g id="ytick_4">
     <g id="line2d_20">
      <g>
       <use xlink:href="#mcf55a2a74c" x="57.6" y="122.974978" style="stroke: #000000; stroke-width: 0.8"/>
      </g>
     </g>
     <g id="text_21">
      <!-- 6 -->
      <g transform="translate(44.2375 126.774197) scale(0.1 -0.1)">
       <use xlink:href="#DejaVuSans-36"/>
      </g>
     </g>
    </g>
    <g id="ytick_5">
     <g id="line2d_21">
      <g>
       <use xlink:href="#mcf55a2a74c" x="57.6" y="73.977777" style="stroke: #000000; stroke-width: 0.8"/>
      </g>
     </g>
     <g id="text_22">
      <!-- 8 -->
      <g transform="translate(44.2375 77.776996) scale(0.1 -0.1)">
       <use xlink:href="#DejaVuSans-38"/>
      </g>
     </g>
    </g>
    <g id="text_23">
     <!-- Z-Score -->
     <g transform="translate(38.157812 193.67175) rotate(-90) scale(0.1 -0.1)">
      <defs>
       <path id="DejaVuSans-5a" d="M 359 4666 
L 4025 4666 
L 4025 4184 
L 1075 531 
L 4097 531 
L 4097 0 
L 288 0 
L 288 481 
L 3238 4134 
L 359 4134 
L 359 4666 
z
" transform="scale(0.015625)"/>
       <path id="DejaVuSans-2d" d="M 313 2009 
L 1997 2009 
L 1997 1497 
L 313 1497 
L 313 2009 
z
" transform="scale(0.015625)"/>
       <path id="DejaVuSans-53" d="M 3425 4513 
L 3425 3897 
Q 3066 4069 2747 4153 
Q 2428 4238 2131 4238 
Q 1616 4238 1336 4038 
Q 1056 3838 1056 3469 
Q 1056 3159 1242 3001 
Q 1428 2844 1947 2747 
L 2328 2669 
Q 3034 2534 3370 2195 
Q 3706 1856 3706 1288 
Q 3706 609 3251 259 
Q 2797 -91 1919 -91 
Q 1588 -91 1214 -16 
Q 841 59 441 206 
L 441 856 
Q 825 641 1194 531 
Q 1563 422 1919 422 
Q 2459 422 2753 634 
Q 3047 847 3047 1241 
Q 3047 1584 2836 1778 
Q 2625 1972 2144 2069 
L 1759 2144 
Q 1053 2284 737 2584 
Q 422 2884 422 3419 
Q 422 4038 858 4394 
Q 1294 4750 2059 4750 
Q 2388 4750 2728 4690 
Q 3069 4631 3425 4513 
z
" transform="scale(0.015625)"/>
       <path id="DejaVuSans-63" d="M 3122 3366 
L 3122 2828 
Q 2878 2963 2633 3030 
Q 2388 3097 2138 3097 
Q 1578 3097 1268 2742 
Q 959 2388 959 1747 
Q 959 1106 1268 751 
Q 1578 397 2138 397 
Q 2388 397 2633 464 
Q 2878 531 3122 666 
L 3122 134 
Q 2881 22 2623 -34 
Q 2366 -91 2075 -91 
Q 1284 -91 818 406 
Q 353 903 353 1747 
Q 353 2603 823 3093 
Q 1294 3584 2113 3584 
Q 2378 3584 2631 3529 
Q 2884 3475 3122 3366 
z
" transform="scale(0.015625)"/>
       <path id="DejaVuSans-6f" d="M 1959 3097 
Q 1497 3097 1228 2736 
Q 959 2375 959 1747 
Q 959 1119 1226 758 
Q 1494 397 1959 397 
Q 2419 397 2687 759 
Q 2956 1122 2956 1747 
Q 2956 2369 2687 2733 
Q 2419 3097 1959 3097 
z
M 1959 3584 
Q 2709 3584 3137 3096 
Q 3566 2609 3566 1747 
Q 3566 888 3137 398 
Q 2709 -91 1959 -91 
Q 1206 -91 779 398 
Q 353 888 353 1747 
Q 353 2609 779 3096 
Q 1206 3584 1959 3584 
z
" transform="scale(0.015625)"/>
       <path id="DejaVuSans-72" d="M 2631 2963 
Q 2534 3019 2420 3045 
Q 2306 3072 2169 3072 
Q 1681 3072 1420 2755 
Q 1159 2438 1159 1844 
L 1159 0 
L 581 0 
L 581 3500 
L 1159 3500 
L 1159 2956 
Q 1341 3275 1631 3429 
Q 1922 3584 2338 3584 
Q 2397 3584 2469 3576 
Q 2541 3569 2628 3553 
L 2631 2963 
z
" transform="scale(0.015625)"/>
      </defs>
      <use xlink:href="#DejaVuSans-5a"/>
      <use xlink:href="#DejaVuSans-2d" x="66.755859"/>
      <use xlink:href="#DejaVuSans-53" x="102.839844"/>
      <use xlink:href="#DejaVuSans-63" x="166.316406"/>
      <use xlink:href="#DejaVuSans-6f" x="221.296875"/>
      <use xlink:href="#DejaVuSans-72" x="282.478516"/>
      <use xlink:href="#DejaVuSans-65" x="321.341797"/>
     </g>
    </g>
   </g>
   <g id="line2d_22">
    <path d="M 73.832727 276.85666 
L 74.918528 277.322556 
L 76.00433 277.103992 
L 78.175932 277.554546 
L 79.261733 277.502532 
L 80.347534 277.661604 
L 82.519137 278.556609 
L 83.604938 276.971179 
L 85.77654 276.896214 
L 86.862341 277.068644 
L 87.948142 276.850596 
L 89.033943 278.712983 
L 90.119745 279.359897 
L 92.291347 280.075221 
L 93.377148 280.155985 
L 95.54875 281.408519 
L 96.634552 280.993613 
L 97.720353 281.862764 
L 98.806154 282.273668 
L 99.891955 281.596166 
L 100.977756 281.385003 
L 102.063557 281.916595 
L 104.23516 281.92406 
L 105.320961 281.151068 
L 106.406762 280.187595 
L 107.492563 280.48799 
L 109.664165 279.924594 
L 110.749967 278.972334 
L 112.921569 278.791103 
L 114.00737 278.982858 
L 116.178972 278.112714 
L 118.350575 277.767652 
L 119.436376 278.429718 
L 120.522177 278.047732 
L 121.607978 278.203373 
L 122.693779 278.835083 
L 124.865382 277.332751 
L 125.951183 277.543801 
L 129.208586 275.34979 
L 130.294387 275.597552 
L 131.380189 275.403277 
L 132.46599 274.645429 
L 133.551791 274.802678 
L 134.637592 275.492652 
L 135.723393 274.860076 
L 136.809194 274.39148 
L 137.894995 274.09788 
L 138.980797 273.641885 
L 140.066598 271.43634 
L 142.2382 270.339955 
L 143.324001 269.356614 
L 144.409802 269.379262 
L 145.495604 268.423958 
L 146.581405 268.275766 
L 147.667206 268.393353 
L 148.753007 268.007569 
L 149.838808 267.295205 
L 150.924609 267.162081 
L 152.01041 266.821867 
L 153.096212 265.135327 
L 156.353615 261.973484 
L 157.439416 262.95388 
L 158.525217 261.852886 
L 159.611019 260.193624 
L 160.69682 260.571918 
L 161.782621 259.056332 
L 162.868422 257.758066 
L 163.954223 257.738727 
L 165.040024 256.902537 
L 166.125825 254.568058 
L 167.211627 254.076905 
L 168.297428 252.956209 
L 169.383229 251.504927 
L 170.46903 249.46848 
L 171.554831 247.120412 
L 172.640632 244.494482 
L 173.726434 243.504498 
L 175.898036 240.117386 
L 176.983837 239.56613 
L 178.069638 237.85806 
L 179.155439 236.92832 
L 180.24124 235.843654 
L 181.327042 235.573176 
L 182.412843 232.718816 
L 184.584445 230.355664 
L 186.756047 231.238066 
L 187.841849 231.79918 
L 190.013451 232.112648 
L 191.099252 233.220532 
L 192.185053 233.023392 
L 193.270854 233.478857 
L 195.442457 235.05386 
L 196.528258 234.509913 
L 197.614059 235.298103 
L 199.785661 238.162724 
L 200.871462 238.90737 
L 201.957264 240.189773 
L 203.043065 242.802294 
L 204.128866 244.245553 
L 205.214667 244.941855 
L 206.300468 245.335592 
L 208.472071 245.539568 
L 209.557872 245.035819 
L 210.643673 245.78426 
L 211.729474 246.21411 
L 212.815275 247.080497 
L 213.901076 247.490615 
L 214.986877 247.674563 
L 216.072679 248.240548 
L 217.15848 247.562509 
L 218.244281 248.753403 
L 219.330082 250.246127 
L 220.415883 249.296224 
L 221.501684 249.775833 
L 222.587486 250.743197 
L 223.673287 250.137064 
L 224.759088 250.633477 
L 225.844889 250.755443 
L 228.016491 252.067311 
L 229.102292 253.506482 
L 230.188094 252.797348 
L 231.273895 253.203859 
L 233.445497 256.770174 
L 234.531298 257.011154 
L 235.617099 258.323338 
L 236.702901 258.600321 
L 237.788702 259.567856 
L 239.960304 260.752757 
L 242.131906 263.228535 
L 244.303509 263.268206 
L 247.560912 264.577643 
L 248.646713 266.27116 
L 249.732514 265.487245 
L 250.818316 264.429527 
L 251.904117 263.922672 
L 254.075719 263.127582 
L 255.16152 261.14094 
L 256.247321 260.547646 
L 257.333123 259.65829 
L 258.418924 257.893371 
L 259.504725 257.225249 
L 260.590526 256.865741 
L 261.676327 255.130514 
L 262.762128 253.829316 
L 264.933731 250.452287 
L 266.019532 248.932963 
L 267.105333 246.265435 
L 268.191134 244.37354 
L 269.276935 243.282332 
L 270.362736 242.950732 
L 271.448538 242.027957 
L 272.534339 241.453429 
L 273.62014 240.3364 
L 274.705941 238.96983 
L 275.791742 238.300886 
L 276.877543 236.281485 
L 277.963344 234.902846 
L 279.049146 234.377079 
L 280.134947 233.691909 
L 281.220748 234.446116 
L 282.306549 233.659966 
L 283.39235 231.775244 
L 284.478151 231.95229 
L 286.649754 230.578887 
L 287.735555 230.512524 
L 288.821356 229.936149 
L 289.907157 230.15078 
L 290.992958 229.768526 
L 293.164561 230.034415 
L 294.250362 230.851904 
L 295.336163 230.413788 
L 296.421964 230.276821 
L 298.593566 229.81791 
L 299.679368 228.650444 
L 300.765169 228.952367 
L 301.85097 229.864162 
L 302.936771 229.632305 
L 304.022572 229.195138 
L 305.108373 228.95965 
L 306.194175 228.584056 
L 307.279976 228.755093 
L 308.365777 229.116055 
L 309.451578 229.223315 
L 310.537379 229.114637 
L 311.62318 229.52428 
L 312.708981 228.397141 
L 313.794783 228.093362 
L 314.880584 229.126523 
L 315.966385 229.308955 
L 317.052186 229.682552 
L 318.137987 230.472394 
L 319.223788 231.67595 
L 320.30959 232.519491 
L 321.395391 232.940468 
L 322.481192 234.612603 
L 323.566993 235.254189 
L 324.652794 236.546573 
L 326.824396 238.47511 
L 327.910198 240.368684 
L 328.995999 241.164266 
L 330.0818 241.814028 
L 331.167601 243.634947 
L 332.253402 244.85675 
L 333.339203 245.039654 
L 334.425005 244.749479 
L 335.510806 246.109945 
L 336.596607 246.340935 
L 337.682408 247.269328 
L 338.768209 248.008923 
L 339.85401 248.386885 
L 340.939811 249.854541 
L 342.025613 250.751401 
L 343.111414 250.119075 
L 344.197215 250.067599 
L 345.283016 248.874866 
L 346.368817 248.235757 
L 347.454618 248.895598 
L 351.797823 239.911246 
L 352.883624 238.15647 
L 355.055227 233.519688 
L 356.141028 232.27721 
L 357.226829 230.191879 
L 358.31263 228.402566 
L 359.398431 227.121209 
L 360.484232 224.910931 
L 362.655835 222.619127 
L 363.741636 222.555309 
L 364.827437 222.344419 
L 365.913238 220.109948 
L 366.999039 218.863737 
L 372.428045 207.739729 
L 373.513846 205.875521 
L 374.599647 204.36861 
L 375.685448 202.188832 
L 376.77125 198.893535 
L 377.857051 197.285866 
L 380.028653 191.082896 
L 381.114454 188.321037 
L 382.200255 186.458957 
L 384.371858 181.438774 
L 386.54346 174.514536 
L 391.972466 160.2907 
L 393.058267 158.920068 
L 394.144068 156.373524 
L 395.229869 154.856957 
L 396.31567 152.149755 
L 398.487273 149.432821 
L 398.487273 149.432821 
" clip-path="url(#p8d7833131f)" style="fill: none; stroke: #ff00ff; stroke-width: 1.5; stroke-linecap: square"/>
   </g>
   <g id="line2d_23">
    <path d="M 182.412843 307.584 
L 182.412843 41.472 
" clip-path="url(#p8d7833131f)" style="fill: none; stroke: #000000; stroke-width: 1.5; stroke-linecap: square"/>
   </g>
   <g id="patch_3">
    <path d="M 57.6 307.584 
L 57.6 41.472 
" style="fill: none; stroke: #000000; stroke-width: 0.8; stroke-linejoin: miter; stroke-linecap: square"/>
   </g>
   <g id="patch_4">
    <path d="M 414.72 307.584 
L 414.72 41.472 
" style="fill: none; stroke: #000000; stroke-width: 0.8; stroke-linejoin: miter; stroke-linecap: square"/>
   </g>
   <g id="patch_5">
    <path d="M 57.6 307.584 
L 414.72 307.584 
" style="fill: none; stroke: #000000; stroke-width: 0.8; stroke-linejoin: miter; stroke-linecap: square"/>
   </g>
   <g id="patch_6">
    <path d="M 57.6 41.472 
L 414.72 41.472 
" style="fill: none; stroke: #000000; stroke-width: 0.8; stroke-linejoin: miter; stroke-linecap: square"/>
   </g>
   <g id="text_24">
    <!-- Event 6_p=0.181 -->
    <g transform="translate(184.232812 35.472) scale(0.12 -0.12)">
     <defs>
      <path id="DejaVuSans-45" d="M 628 4666 
L 3578 4666 
L 3578 4134 
L 1259 4134 
L 1259 2753 
L 3481 2753 
L 3481 2222 
L 1259 2222 
L 1259 531 
L 3634 531 
L 3634 0 
L 628 0 
L 628 4666 
z
" transform="scale(0.015625)"/>
      <path id="DejaVuSans-76" d="M 191 3500 
L 800 3500 
L 1894 563 
L 2988 3500 
L 3597 3500 
L 2284 0 
L 1503 0 
L 191 3500 
z
" transform="scale(0.015625)"/>
      <path id="DejaVuSans-6e" d="M 3513 2113 
L 3513 0 
L 2938 0 
L 2938 2094 
Q 2938 2591 2744 2837 
Q 2550 3084 2163 3084 
Q 1697 3084 1428 2787 
Q 1159 2491 1159 1978 
L 1159 0 
L 581 0 
L 581 3500 
L 1159 3500 
L 1159 2956 
Q 1366 3272 1645 3428 
Q 1925 3584 2291 3584 
Q 2894 3584 3203 3211 
Q 3513 2838 3513 2113 
z
" transform="scale(0.015625)"/>
      <path id="DejaVuSans-74" d="M 1172 4494 
L 1172 3500 
L 2356 3500 
L 2356 3053 
L 1172 3053 
L 1172 1153 
Q 1172 725 1289 603 
Q 1406 481 1766 481 
L 2356 481 
L 2356 0 
L 1766 0 
Q 1100 0 847 248 
Q 594 497 594 1153 
L 594 3053 
L 172 3053 
L 172 3500 
L 594 3500 
L 594 4494 
L 1172 4494 
z
" transform="scale(0.015625)"/>
      <path id="DejaVuSans-5f" d="M 3263 -1063 
L 3263 -1509 
L -63 -1509 
L -63 -1063 
L 3263 -1063 
z
" transform="scale(0.015625)"/>
      <path id="DejaVuSans-70" d="M 1159 525 
L 1159 -1331 
L 581 -1331 
L 581 3500 
L 1159 3500 
L 1159 2969 
Q 1341 3281 1617 3432 
Q 1894 3584 2278 3584 
Q 2916 3584 3314 3078 
Q 3713 2572 3713 1747 
Q 3713 922 3314 415 
Q 2916 -91 2278 -91 
Q 1894 -91 1617 61 
Q 1341 213 1159 525 
z
M 3116 1747 
Q 3116 2381 2855 2742 
Q 2594 3103 2138 3103 
Q 1681 3103 1420 2742 
Q 1159 2381 1159 1747 
Q 1159 1113 1420 752 
Q 1681 391 2138 391 
Q 2594 391 2855 752 
Q 3116 1113 3116 1747 
z
" transform="scale(0.015625)"/>
      <path id="DejaVuSans-3d" d="M 678 2906 
L 4684 2906 
L 4684 2381 
L 678 2381 
L 678 2906 
z
M 678 1631 
L 4684 1631 
L 4684 1100 
L 678 1100 
L 678 1631 
z
" transform="scale(0.015625)"/>
      <path id="DejaVuSans-2e" d="M 684 794 
L 1344 794 
L 1344 0 
L 684 0 
L 684 794 
z
" transform="scale(0.015625)"/>
     </defs>
     <use xlink:href="#DejaVuSans-45"/>
     <use xlink:href="#DejaVuSans-76" x="63.183594"/>
     <use xlink:href="#DejaVuSans-65" x="122.363281"/>
     <use xlink:href="#DejaVuSans-6e" x="183.886719"/>
     <use xlink:href="#DejaVuSans-74" x="247.265625"/>
     <use xlink:href="#DejaVuSans-20" x="286.474609"/>
     <use xlink:href="#DejaVuSans-36" x="318.261719"/>
     <use xlink:href="#DejaVuSans-5f" x="381.884766"/>
     <use xlink:href="#DejaVuSans-70" x="431.884766"/>
     <use xlink:href="#DejaVuSans-3d" x="495.361328"/>
     <use xlink:href="#DejaVuSans-30" x="579.150391"/>
     <use xlink:href="#DejaVuSans-2e" x="642.773438"/>
     <use xlink:href="#DejaVuSans-31" x="674.560547"/>
     <use xlink:href="#DejaVuSans-38" x="738.183594"/>
     <use xlink:href="#DejaVuSans-31" x="801.806641"/>
    </g>
   </g>
  </g>
 </g>
 <defs>
  <clipPath id="p8d7833131f">
   <rect x="57.6" y="41.472" width="357.12" height="266.112"/>
  </clipPath>
 </defs>
</svg>
