<?xml version="1.0" encoding="utf-8" standalone="no"?>
<!DOCTYPE svg PUBLIC "-//W3C//DTD SVG 1.1//EN"
  "http://www.w3.org/Graphics/SVG/1.1/DTD/svg11.dtd">
<svg xmlns:xlink="http://www.w3.org/1999/xlink" width="460.8pt" height="345.6pt" viewBox="0 0 460.8 345.6" xmlns="http://www.w3.org/2000/svg" version="1.1">
 <metadata>
  <rdf:RDF xmlns:dc="http://purl.org/dc/elements/1.1/" xmlns:cc="http://creativecommons.org/ns#" xmlns:rdf="http://www.w3.org/1999/02/22-rdf-syntax-ns#">
   <cc:Work>
    <dc:type rdf:resource="http://purl.org/dc/dcmitype/StillImage"/>
    <dc:date>2024-11-14T18:55:13.683763</dc:date>
    <dc:format>image/svg+xml</dc:format>
    <dc:creator>
     <cc:Agent>
      <dc:title>Matplotlib v3.8.2, https://matplotlib.org/</dc:title>
     </cc:Agent>
    </dc:creator>
   </cc:Work>
  </rdf:RDF>
 </metadata>
 <defs>
  <style type="text/css">*{stroke-linejoin: round; stroke-linecap: butt}</style>
 </defs>
 <g id="figure_1">
  <g id="patch_1">
   <path d="M 0 345.6 
L 460.8 345.6 
L 460.8 0 
L 0 0 
z
" style="fill: #ffffff"/>
  </g>
  <g id="axes_1">
   <g id="patch_2">
    <path d="M 57.6 307.584 
L 414.72 307.584 
L 414.72 41.472 
L 57.6 41.472 
z
" style="fill: #ffffff"/>
   </g>
   <g id="PolyCollection_1">
    <defs>
     <path id="m3820515139" d="M 73.832727 -145.808986 
L 73.832727 -110.37709 
L 74.918528 -110.938039 
L 76.00433 -110.850525 
L 77.090131 -111.473471 
L 78.175932 -110.911661 
L 79.261733 -111.236968 
L 80.347534 -111.834053 
L 81.433335 -112.201011 
L 82.519137 -111.371382 
L 83.604938 -112.221244 
L 84.690739 -112.598122 
L 85.77654 -113.458069 
L 86.862341 -113.303942 
L 87.948142 -113.603571 
L 89.033943 -114.307469 
L 90.119745 -116.625452 
L 91.205546 -118.312399 
L 92.291347 -120.316518 
L 93.377148 -122.297463 
L 94.462949 -124.168658 
L 95.54875 -126.467248 
L 96.634552 -127.38913 
L 97.720353 -128.242482 
L 98.806154 -128.727169 
L 99.891955 -129.789661 
L 100.977756 -130.469926 
L 102.063557 -131.139765 
L 103.149358 -131.798133 
L 104.23516 -132.247393 
L 105.320961 -132.374385 
L 106.406762 -133.655561 
L 107.492563 -133.553673 
L 108.578364 -133.71783 
L 109.664165 -134.010401 
L 110.749967 -133.720858 
L 111.835768 -134.294288 
L 112.921569 -134.370532 
L 114.00737 -134.450526 
L 115.093171 -133.963857 
L 116.178972 -133.917143 
L 117.264773 -132.643198 
L 118.350575 -131.807068 
L 119.436376 -131.586194 
L 120.522177 -131.101742 
L 121.607978 -131.082398 
L 122.693779 -129.896098 
L 123.77958 -129.582046 
L 124.865382 -128.242341 
L 125.951183 -127.283747 
L 127.036984 -126.600383 
L 128.122785 -124.913769 
L 129.208586 -122.692369 
L 130.294387 -121.294564 
L 131.380189 -120.613581 
L 132.46599 -120.978162 
L 133.551791 -120.554704 
L 134.637592 -119.50035 
L 135.723393 -118.229589 
L 136.809194 -117.393632 
L 137.894995 -116.777964 
L 138.980797 -117.183936 
L 140.066598 -117.443793 
L 141.152399 -117.477019 
L 142.2382 -118.134659 
L 143.324001 -117.254569 
L 144.409802 -117.202802 
L 145.495604 -118.289368 
L 146.581405 -119.567213 
L 147.667206 -119.086656 
L 148.753007 -118.681067 
L 149.838808 -118.73842 
L 150.924609 -118.999582 
L 152.01041 -119.187588 
L 153.096212 -119.569876 
L 154.182013 -118.982422 
L 155.267814 -119.864658 
L 156.353615 -118.804317 
L 157.439416 -118.486781 
L 158.525217 -118.480775 
L 159.611019 -117.316618 
L 160.69682 -118.516466 
L 161.782621 -118.423558 
L 162.868422 -119.784404 
L 163.954223 -120.359612 
L 165.040024 -121.549854 
L 166.125825 -122.238948 
L 167.211627 -122.688021 
L 168.297428 -123.582141 
L 169.383229 -124.787095 
L 170.46903 -125.386492 
L 171.554831 -127.081403 
L 172.640632 -128.431419 
L 173.726434 -129.814863 
L 174.812235 -132.671467 
L 175.898036 -134.90101 
L 176.983837 -136.935589 
L 178.069638 -139.185687 
L 179.155439 -141.750274 
L 180.24124 -144.406352 
L 181.327042 -147.927886 
L 182.412843 -153.7684 
L 183.498644 -156.64861 
L 184.584445 -160.517287 
L 185.670246 -164.29484 
L 186.756047 -166.629336 
L 187.841849 -169.752464 
L 188.92765 -172.865456 
L 190.013451 -176.119852 
L 191.099252 -180.297656 
L 192.185053 -183.612352 
L 193.270854 -187.465272 
L 194.356656 -190.388511 
L 195.442457 -192.440009 
L 196.528258 -194.714374 
L 197.614059 -197.516712 
L 198.69986 -199.960133 
L 199.785661 -202.70662 
L 200.871462 -204.704627 
L 201.957264 -205.515338 
L 203.043065 -206.965769 
L 204.128866 -207.657549 
L 205.214667 -208.647971 
L 206.300468 -209.620876 
L 207.386269 -210.498894 
L 208.472071 -209.72785 
L 209.557872 -209.944657 
L 210.643673 -210.074234 
L 211.729474 -209.887473 
L 212.815275 -209.431848 
L 213.901076 -208.892597 
L 214.986877 -208.511021 
L 216.072679 -207.749195 
L 217.15848 -207.652684 
L 218.244281 -206.00011 
L 219.330082 -205.647262 
L 220.415883 -205.561668 
L 221.501684 -204.508372 
L 222.587486 -203.272088 
L 223.673287 -200.796507 
L 224.759088 -199.601007 
L 225.844889 -197.199602 
L 226.93069 -195.085028 
L 228.016491 -192.25595 
L 229.102292 -190.812713 
L 230.188094 -188.504966 
L 231.273895 -186.454728 
L 232.359696 -184.013923 
L 233.445497 -181.870589 
L 234.531298 -179.159471 
L 235.617099 -175.211443 
L 236.702901 -172.778755 
L 237.788702 -167.752199 
L 238.874503 -163.770383 
L 239.960304 -160.28147 
L 241.046105 -156.676106 
L 242.131906 -153.48911 
L 243.217708 -149.219848 
L 244.303509 -144.965536 
L 245.38931 -140.328206 
L 246.475111 -135.812054 
L 247.560912 -131.39903 
L 248.646713 -126.114678 
L 249.732514 -121.424262 
L 250.818316 -117.950404 
L 251.904117 -113.925636 
L 252.989918 -110.02297 
L 254.075719 -107.1104 
L 255.16152 -103.042036 
L 256.247321 -99.252739 
L 257.333123 -95.589964 
L 258.418924 -91.26958 
L 259.504725 -88.419319 
L 260.590526 -84.760716 
L 261.676327 -82.097873 
L 262.762128 -78.580642 
L 263.847929 -75.016015 
L 264.933731 -71.91302 
L 266.019532 -69.252498 
L 267.105333 -65.719047 
L 268.191134 -63.307152 
L 269.276935 -60.814952 
L 270.362736 -59.11102 
L 271.448538 -57.682359 
L 272.534339 -57.404672 
L 273.62014 -55.771139 
L 274.705941 -55.344751 
L 275.791742 -55.437649 
L 276.877543 -55.701025 
L 277.963344 -55.584043 
L 279.049146 -54.719812 
L 280.134947 -54.244004 
L 281.220748 -53.722842 
L 282.306549 -54.025816 
L 283.39235 -53.766125 
L 284.478151 -52.735123 
L 285.563953 -52.029043 
L 286.649754 -51.684943 
L 287.735555 -51.690695 
L 288.821356 -51.312208 
L 289.907157 -50.580127 
L 290.992958 -50.112 
L 292.07876 -50.559838 
L 293.164561 -50.193619 
L 294.250362 -50.633687 
L 295.336163 -50.418648 
L 296.421964 -51.074509 
L 297.507765 -51.74774 
L 298.593566 -53.101943 
L 299.679368 -55.366745 
L 300.765169 -55.564591 
L 301.85097 -58.046092 
L 302.936771 -59.729887 
L 304.022572 -61.410937 
L 305.108373 -63.56868 
L 306.194175 -65.40829 
L 307.279976 -67.121481 
L 308.365777 -68.981272 
L 309.451578 -71.39617 
L 310.537379 -72.817957 
L 311.62318 -73.956367 
L 312.708981 -75.169981 
L 313.794783 -76.149329 
L 314.880584 -76.298458 
L 315.966385 -77.449344 
L 317.052186 -78.795944 
L 318.137987 -79.032043 
L 319.223788 -79.812013 
L 320.30959 -80.943559 
L 321.395391 -81.756345 
L 322.481192 -84.027993 
L 323.566993 -84.838603 
L 324.652794 -86.037301 
L 325.738595 -86.136886 
L 326.824396 -86.929841 
L 327.910198 -87.5004 
L 328.995999 -89.157355 
L 330.0818 -89.891642 
L 331.167601 -91.255024 
L 332.253402 -92.10627 
L 333.339203 -92.854854 
L 334.425005 -93.257276 
L 335.510806 -93.932562 
L 336.596607 -93.737013 
L 337.682408 -95.36774 
L 338.768209 -96.450258 
L 339.85401 -97.740868 
L 340.939811 -98.23628 
L 342.025613 -99.606282 
L 343.111414 -101.947458 
L 344.197215 -103.711877 
L 345.283016 -105.569302 
L 346.368817 -106.825028 
L 347.454618 -108.935391 
L 348.54042 -110.222933 
L 349.626221 -111.166871 
L 350.712022 -113.16631 
L 351.797823 -114.560774 
L 352.883624 -115.173659 
L 353.969425 -117.00039 
L 355.055227 -118.350121 
L 356.141028 -120.114642 
L 357.226829 -121.33761 
L 358.31263 -122.741085 
L 359.398431 -124.233016 
L 360.484232 -125.457475 
L 361.570033 -126.638257 
L 362.655835 -127.096833 
L 363.741636 -127.219334 
L 364.827437 -127.533636 
L 365.913238 -127.703903 
L 366.999039 -128.258609 
L 368.08484 -129.162017 
L 369.170642 -129.078153 
L 370.256443 -129.413482 
L 371.342244 -130.357963 
L 372.428045 -131.189021 
L 373.513846 -131.919325 
L 374.599647 -133.428493 
L 375.685448 -135.346382 
L 376.77125 -137.114296 
L 377.857051 -138.792631 
L 378.942852 -140.891967 
L 380.028653 -141.605915 
L 381.114454 -142.552406 
L 382.200255 -143.157445 
L 383.286057 -144.650163 
L 384.371858 -145.269278 
L 385.457659 -145.232105 
L 386.54346 -145.209383 
L 387.629261 -145.588141 
L 388.715062 -146.439882 
L 389.800863 -146.471542 
L 390.886665 -147.316522 
L 391.972466 -147.94664 
L 393.058267 -148.663935 
L 394.144068 -149.572629 
L 395.229869 -150.177283 
L 396.31567 -151.166216 
L 397.401472 -151.459477 
L 398.487273 -152.406956 
L 398.487273 -235.747479 
L 398.487273 -235.747479 
L 397.401472 -233.921967 
L 396.31567 -232.985245 
L 395.229869 -231.451005 
L 394.144068 -229.913905 
L 393.058267 -228.363905 
L 391.972466 -227.052182 
L 390.886665 -225.655757 
L 389.800863 -223.965801 
L 388.715062 -223.74925 
L 387.629261 -221.857991 
L 386.54346 -220.938052 
L 385.457659 -220.60135 
L 384.371858 -220.442195 
L 383.286057 -219.512758 
L 382.200255 -217.844226 
L 381.114454 -217.415253 
L 380.028653 -216.762067 
L 378.942852 -216.239653 
L 377.857051 -213.857706 
L 376.77125 -211.909632 
L 375.685448 -210.242924 
L 374.599647 -208.059663 
L 373.513846 -206.545055 
L 372.428045 -206.347434 
L 371.342244 -205.749666 
L 370.256443 -204.321161 
L 369.170642 -204.23114 
L 368.08484 -204.893373 
L 366.999039 -204.236625 
L 365.913238 -203.686733 
L 364.827437 -203.595734 
L 363.741636 -203.186479 
L 362.655835 -203.253706 
L 361.570033 -203.116789 
L 360.484232 -201.976351 
L 359.398431 -200.71475 
L 358.31263 -199.360283 
L 357.226829 -198.159737 
L 356.141028 -196.842762 
L 355.055227 -194.889072 
L 353.969425 -193.681248 
L 352.883624 -191.703222 
L 351.797823 -191.141794 
L 350.712022 -189.702532 
L 349.626221 -187.586336 
L 348.54042 -186.820284 
L 347.454618 -185.495138 
L 346.368817 -183.280623 
L 345.283016 -182.254966 
L 344.197215 -180.533851 
L 343.111414 -179.202667 
L 342.025613 -177.143607 
L 340.939811 -175.979346 
L 339.85401 -175.646255 
L 338.768209 -174.531243 
L 337.682408 -173.402014 
L 336.596607 -171.763476 
L 335.510806 -172.17719 
L 334.425005 -171.677769 
L 333.339203 -171.611847 
L 332.253402 -170.950356 
L 331.167601 -170.282977 
L 330.0818 -169.125138 
L 328.995999 -168.50079 
L 327.910198 -166.986238 
L 326.824396 -166.600356 
L 325.738595 -165.618785 
L 324.652794 -165.489107 
L 323.566993 -164.219213 
L 322.481192 -163.445967 
L 321.395391 -160.920757 
L 320.30959 -159.588865 
L 319.223788 -158.265552 
L 318.137987 -157.5695 
L 317.052186 -157.075815 
L 315.966385 -155.540583 
L 314.880584 -154.367358 
L 313.794783 -154.197371 
L 312.708981 -153.184066 
L 311.62318 -152.019988 
L 310.537379 -150.87756 
L 309.451578 -149.206388 
L 308.365777 -146.895712 
L 307.279976 -144.78805 
L 306.194175 -143.147931 
L 305.108373 -141.329103 
L 304.022572 -138.958046 
L 302.936771 -137.298773 
L 301.85097 -135.777223 
L 300.765169 -133.247723 
L 299.679368 -133.153234 
L 298.593566 -130.923971 
L 297.507765 -129.360855 
L 296.421964 -128.660719 
L 295.336163 -127.820158 
L 294.250362 -128.20921 
L 293.164561 -127.798259 
L 292.07876 -128.084749 
L 290.992958 -127.572937 
L 289.907157 -128.050963 
L 288.821356 -128.926432 
L 287.735555 -129.551488 
L 286.649754 -129.391334 
L 285.563953 -129.699545 
L 284.478151 -130.374919 
L 283.39235 -131.602407 
L 282.306549 -131.702376 
L 281.220748 -131.226747 
L 280.134947 -131.6827 
L 279.049146 -132.185838 
L 277.963344 -133.013051 
L 276.877543 -133.132988 
L 275.791742 -132.851599 
L 274.705941 -132.728652 
L 273.62014 -133.008308 
L 272.534339 -134.71448 
L 271.448538 -135.096954 
L 270.362736 -136.620447 
L 269.276935 -138.469977 
L 268.191134 -141.334208 
L 267.105333 -144.206877 
L 266.019532 -148.295626 
L 264.933731 -151.664439 
L 263.847929 -155.491453 
L 262.762128 -159.850692 
L 261.676327 -164.201174 
L 260.590526 -167.915994 
L 259.504725 -172.536629 
L 258.418924 -176.34494 
L 257.333123 -181.306679 
L 256.247321 -185.484638 
L 255.16152 -189.718654 
L 254.075719 -194.322859 
L 252.989918 -197.61866 
L 251.904117 -202.132011 
L 250.818316 -206.549601 
L 249.732514 -210.351458 
L 248.646713 -215.514775 
L 247.560912 -221.300269 
L 246.475111 -226.403059 
L 245.38931 -231.356265 
L 244.303509 -236.697032 
L 243.217708 -241.646151 
L 242.131906 -246.576774 
L 241.046105 -250.608284 
L 239.960304 -254.687134 
L 238.874503 -258.608747 
L 237.788702 -262.865843 
L 236.702901 -267.805457 
L 235.617099 -270.268329 
L 234.531298 -274.084283 
L 233.445497 -276.640731 
L 232.359696 -278.656712 
L 231.273895 -280.885944 
L 230.188094 -282.233989 
L 229.102292 -283.900627 
L 228.016491 -285.079471 
L 226.93069 -286.94257 
L 225.844889 -288.218247 
L 224.759088 -289.725542 
L 223.673287 -290.18603 
L 222.587486 -291.60859 
L 221.501684 -292.032 
L 220.415883 -291.939371 
L 219.330082 -291.382797 
L 218.244281 -290.453576 
L 217.15848 -291.009206 
L 216.072679 -290.247497 
L 214.986877 -289.969712 
L 213.901076 -289.20989 
L 212.815275 -288.611194 
L 211.729474 -287.714872 
L 210.643673 -286.894664 
L 209.557872 -285.787004 
L 208.472071 -284.302069 
L 207.386269 -283.587721 
L 206.300468 -281.426814 
L 205.214667 -278.649639 
L 204.128866 -275.997808 
L 203.043065 -273.806012 
L 201.957264 -270.455582 
L 200.871462 -267.818541 
L 199.785661 -264.014165 
L 198.69986 -259.406194 
L 197.614059 -254.971805 
L 196.528258 -250.397589 
L 195.442457 -246.27293 
L 194.356656 -242.709192 
L 193.270854 -238.455163 
L 192.185053 -233.306756 
L 191.099252 -228.457294 
L 190.013451 -222.913748 
L 188.92765 -218.166829 
L 187.841849 -213.606056 
L 186.756047 -209.103358 
L 185.670246 -205.220041 
L 184.584445 -200.248437 
L 183.498644 -195.249667 
L 182.412843 -191.286814 
L 181.327042 -182.991352 
L 180.24124 -178.479187 
L 179.155439 -174.704943 
L 178.069638 -171.294155 
L 176.983837 -168.19056 
L 175.898036 -165.429568 
L 174.812235 -162.577217 
L 173.726434 -159.084701 
L 172.640632 -157.094052 
L 171.554831 -155.206559 
L 170.46903 -153.163098 
L 169.383229 -152.232732 
L 168.297428 -150.576911 
L 167.211627 -149.099137 
L 166.125825 -148.10912 
L 165.040024 -146.834842 
L 163.954223 -145.204907 
L 162.868422 -143.872149 
L 161.782621 -141.86568 
L 160.69682 -141.197565 
L 159.611019 -139.379822 
L 158.525217 -139.975079 
L 157.439416 -139.506215 
L 156.353615 -139.381399 
L 155.267814 -140.221961 
L 154.182013 -138.895097 
L 153.096212 -139.241774 
L 152.01041 -138.540546 
L 150.924609 -138.196559 
L 149.838808 -137.632696 
L 148.753007 -137.263217 
L 147.667206 -137.42703 
L 146.581405 -137.803599 
L 145.495604 -136.154379 
L 144.409802 -134.802751 
L 143.324001 -134.407627 
L 142.2382 -134.958859 
L 141.152399 -133.936281 
L 140.066598 -133.58079 
L 138.980797 -133.15963 
L 137.894995 -132.703593 
L 136.809194 -133.197844 
L 135.723393 -133.871898 
L 134.637592 -134.848793 
L 133.551791 -135.742926 
L 132.46599 -136.295651 
L 131.380189 -136.102462 
L 130.294387 -136.786862 
L 129.208586 -137.954162 
L 128.122785 -140.291566 
L 127.036984 -141.62185 
L 125.951183 -142.38085 
L 124.865382 -143.467136 
L 123.77958 -144.80098 
L 122.693779 -145.206278 
L 121.607978 -146.396526 
L 120.522177 -146.334708 
L 119.436376 -146.887356 
L 118.350575 -147.325095 
L 117.264773 -148.223034 
L 116.178972 -149.66518 
L 115.093171 -149.796891 
L 114.00737 -150.560143 
L 112.921569 -150.56829 
L 111.835768 -150.617471 
L 110.749967 -150.389791 
L 109.664165 -151.068374 
L 108.578364 -151.322358 
L 107.492563 -151.417738 
L 106.406762 -151.717652 
L 105.320961 -150.821793 
L 104.23516 -151.042111 
L 103.149358 -151.115612 
L 102.063557 -151.082121 
L 100.977756 -150.718193 
L 99.891955 -150.665788 
L 98.806154 -150.006499 
L 97.720353 -150.15939 
L 96.634552 -149.726181 
L 95.54875 -149.403269 
L 94.462949 -147.546952 
L 93.377148 -146.398307 
L 92.291347 -144.954447 
L 91.205546 -143.615315 
L 90.119745 -142.450937 
L 89.033943 -140.92026 
L 87.948142 -140.954064 
L 86.862341 -141.400364 
L 85.77654 -142.233193 
L 84.690739 -142.050347 
L 83.604938 -142.321055 
L 82.519137 -142.19371 
L 81.433335 -143.403108 
L 80.347534 -143.696016 
L 79.261733 -143.598856 
L 78.175932 -143.880699 
L 77.090131 -144.946309 
L 76.00433 -144.912247 
L 74.918528 -145.65349 
L 73.832727 -145.808986 
z
" style="stroke: #ff00ff; stroke-opacity: 0.1"/>
    </defs>
    <g clip-path="url(#p15d1b77caf)">
     <use xlink:href="#m3820515139" x="0" y="345.6" style="fill: #ff00ff; fill-opacity: 0.1; stroke: #ff00ff; stroke-opacity: 0.1"/>
    </g>
   </g>
   <g id="matplotlib.axis_1">
    <g id="xtick_1">
     <g id="line2d_1">
      <defs>
       <path id="m626acbac1d" d="M 0 0 
L 0 3.5 
" style="stroke: #000000; stroke-width: 0.8"/>
      </defs>
      <g>
       <use xlink:href="#m626acbac1d" x="73.832727" y="307.584" style="stroke: #000000; stroke-width: 0.8"/>
      </g>
     </g>
     <g id="text_1">
      <!-- −5 -->
      <g transform="translate(66.461634 322.182437) scale(0.1 -0.1)">
       <defs>
        <path id="DejaVuSans-2212" d="M 678 2272 
L 4684 2272 
L 4684 1741 
L 678 1741 
L 678 2272 
z
" transform="scale(0.015625)"/>
        <path id="DejaVuSans-35" d="M 691 4666 
L 3169 4666 
L 3169 4134 
L 1269 4134 
L 1269 2991 
Q 1406 3038 1543 3061 
Q 1681 3084 1819 3084 
Q 2600 3084 3056 2656 
Q 3513 2228 3513 1497 
Q 3513 744 3044 326 
Q 2575 -91 1722 -91 
Q 1428 -91 1123 -41 
Q 819 9 494 109 
L 494 744 
Q 775 591 1075 516 
Q 1375 441 1709 441 
Q 2250 441 2565 725 
Q 2881 1009 2881 1497 
Q 2881 1984 2565 2268 
Q 2250 2553 1709 2553 
Q 1456 2553 1204 2497 
Q 953 2441 691 2322 
L 691 4666 
z
" transform="scale(0.015625)"/>
       </defs>
       <use xlink:href="#DejaVuSans-2212"/>
       <use xlink:href="#DejaVuSans-35" x="83.789062"/>
      </g>
     </g>
    </g>
    <g id="xtick_2">
     <g id="line2d_2">
      <g>
       <use xlink:href="#m626acbac1d" x="95.54875" y="307.584" style="stroke: #000000; stroke-width: 0.8"/>
      </g>
     </g>
     <g id="text_2">
      <!-- −4 -->
      <g transform="translate(88.177657 322.182437) scale(0.1 -0.1)">
       <defs>
        <path id="DejaVuSans-34" d="M 2419 4116 
L 825 1625 
L 2419 1625 
L 2419 4116 
z
M 2253 4666 
L 3047 4666 
L 3047 1625 
L 3713 1625 
L 3713 1100 
L 3047 1100 
L 3047 0 
L 2419 0 
L 2419 1100 
L 313 1100 
L 313 1709 
L 2253 4666 
z
" transform="scale(0.015625)"/>
       </defs>
       <use xlink:href="#DejaVuSans-2212"/>
       <use xlink:href="#DejaVuSans-34" x="83.789062"/>
      </g>
     </g>
    </g>
    <g id="xtick_3">
     <g id="line2d_3">
      <g>
       <use xlink:href="#m626acbac1d" x="117.264773" y="307.584" style="stroke: #000000; stroke-width: 0.8"/>
      </g>
     </g>
     <g id="text_3">
      <!-- −3 -->
      <g transform="translate(109.89368 322.182437) scale(0.1 -0.1)">
       <defs>
        <path id="DejaVuSans-33" d="M 2597 2516 
Q 3050 2419 3304 2112 
Q 3559 1806 3559 1356 
Q 3559 666 3084 287 
Q 2609 -91 1734 -91 
Q 1441 -91 1130 -33 
Q 819 25 488 141 
L 488 750 
Q 750 597 1062 519 
Q 1375 441 1716 441 
Q 2309 441 2620 675 
Q 2931 909 2931 1356 
Q 2931 1769 2642 2001 
Q 2353 2234 1838 2234 
L 1294 2234 
L 1294 2753 
L 1863 2753 
Q 2328 2753 2575 2939 
Q 2822 3125 2822 3475 
Q 2822 3834 2567 4026 
Q 2313 4219 1838 4219 
Q 1578 4219 1281 4162 
Q 984 4106 628 3988 
L 628 4550 
Q 988 4650 1302 4700 
Q 1616 4750 1894 4750 
Q 2613 4750 3031 4423 
Q 3450 4097 3450 3541 
Q 3450 3153 3228 2886 
Q 3006 2619 2597 2516 
z
" transform="scale(0.015625)"/>
       </defs>
       <use xlink:href="#DejaVuSans-2212"/>
       <use xlink:href="#DejaVuSans-33" x="83.789062"/>
      </g>
     </g>
    </g>
    <g id="xtick_4">
     <g id="line2d_4">
      <g>
       <use xlink:href="#m626acbac1d" x="138.980797" y="307.584" style="stroke: #000000; stroke-width: 0.8"/>
      </g>
     </g>
     <g id="text_4">
      <!-- −2 -->
      <g transform="translate(131.609703 322.182437) scale(0.1 -0.1)">
       <defs>
        <path id="DejaVuSans-32" d="M 1228 531 
L 3431 531 
L 3431 0 
L 469 0 
L 469 531 
Q 828 903 1448 1529 
Q 2069 2156 2228 2338 
Q 2531 2678 2651 2914 
Q 2772 3150 2772 3378 
Q 2772 3750 2511 3984 
Q 2250 4219 1831 4219 
Q 1534 4219 1204 4116 
Q 875 4013 500 3803 
L 500 4441 
Q 881 4594 1212 4672 
Q 1544 4750 1819 4750 
Q 2544 4750 2975 4387 
Q 3406 4025 3406 3419 
Q 3406 3131 3298 2873 
Q 3191 2616 2906 2266 
Q 2828 2175 2409 1742 
Q 1991 1309 1228 531 
z
" transform="scale(0.015625)"/>
       </defs>
       <use xlink:href="#DejaVuSans-2212"/>
       <use xlink:href="#DejaVuSans-32" x="83.789062"/>
      </g>
     </g>
    </g>
    <g id="xtick_5">
     <g id="line2d_5">
      <g>
       <use xlink:href="#m626acbac1d" x="160.69682" y="307.584" style="stroke: #000000; stroke-width: 0.8"/>
      </g>
     </g>
     <g id="text_5">
      <!-- −1 -->
      <g transform="translate(153.325726 322.182437) scale(0.1 -0.1)">
       <defs>
        <path id="DejaVuSans-31" d="M 794 531 
L 1825 531 
L 1825 4091 
L 703 3866 
L 703 4441 
L 1819 4666 
L 2450 4666 
L 2450 531 
L 3481 531 
L 3481 0 
L 794 0 
L 794 531 
z
" transform="scale(0.015625)"/>
       </defs>
       <use xlink:href="#DejaVuSans-2212"/>
       <use xlink:href="#DejaVuSans-31" x="83.789062"/>
      </g>
     </g>
    </g>
    <g id="xtick_6">
     <g id="line2d_6">
      <g>
       <use xlink:href="#m626acbac1d" x="182.412843" y="307.584" style="stroke: #000000; stroke-width: 0.8"/>
      </g>
     </g>
     <g id="text_6">
      <!-- 0 -->
      <g transform="translate(179.231593 322.182437) scale(0.1 -0.1)">
       <defs>
        <path id="DejaVuSans-30" d="M 2034 4250 
Q 1547 4250 1301 3770 
Q 1056 3291 1056 2328 
Q 1056 1369 1301 889 
Q 1547 409 2034 409 
Q 2525 409 2770 889 
Q 3016 1369 3016 2328 
Q 3016 3291 2770 3770 
Q 2525 4250 2034 4250 
z
M 2034 4750 
Q 2819 4750 3233 4129 
Q 3647 3509 3647 2328 
Q 3647 1150 3233 529 
Q 2819 -91 2034 -91 
Q 1250 -91 836 529 
Q 422 1150 422 2328 
Q 422 3509 836 4129 
Q 1250 4750 2034 4750 
z
" transform="scale(0.015625)"/>
       </defs>
       <use xlink:href="#DejaVuSans-30"/>
      </g>
     </g>
    </g>
    <g id="xtick_7">
     <g id="line2d_7">
      <g>
       <use xlink:href="#m626acbac1d" x="204.128866" y="307.584" style="stroke: #000000; stroke-width: 0.8"/>
      </g>
     </g>
     <g id="text_7">
      <!-- 1 -->
      <g transform="translate(200.947616 322.182437) scale(0.1 -0.1)">
       <use xlink:href="#DejaVuSans-31"/>
      </g>
     </g>
    </g>
    <g id="xtick_8">
     <g id="line2d_8">
      <g>
       <use xlink:href="#m626acbac1d" x="225.844889" y="307.584" style="stroke: #000000; stroke-width: 0.8"/>
      </g>
     </g>
     <g id="text_8">
      <!-- 2 -->
      <g transform="translate(222.663639 322.182437) scale(0.1 -0.1)">
       <use xlink:href="#DejaVuSans-32"/>
      </g>
     </g>
    </g>
    <g id="xtick_9">
     <g id="line2d_9">
      <g>
       <use xlink:href="#m626acbac1d" x="247.560912" y="307.584" style="stroke: #000000; stroke-width: 0.8"/>
      </g>
     </g>
     <g id="text_9">
      <!-- 3 -->
      <g transform="translate(244.379662 322.182437) scale(0.1 -0.1)">
       <use xlink:href="#DejaVuSans-33"/>
      </g>
     </g>
    </g>
    <g id="xtick_10">
     <g id="line2d_10">
      <g>
       <use xlink:href="#m626acbac1d" x="269.276935" y="307.584" style="stroke: #000000; stroke-width: 0.8"/>
      </g>
     </g>
     <g id="text_10">
      <!-- 4 -->
      <g transform="translate(266.095685 322.182437) scale(0.1 -0.1)">
       <use xlink:href="#DejaVuSans-34"/>
      </g>
     </g>
    </g>
    <g id="xtick_11">
     <g id="line2d_11">
      <g>
       <use xlink:href="#m626acbac1d" x="290.992958" y="307.584" style="stroke: #000000; stroke-width: 0.8"/>
      </g>
     </g>
     <g id="text_11">
      <!-- 5 -->
      <g transform="translate(287.811708 322.182437) scale(0.1 -0.1)">
       <use xlink:href="#DejaVuSans-35"/>
      </g>
     </g>
    </g>
    <g id="xtick_12">
     <g id="line2d_12">
      <g>
       <use xlink:href="#m626acbac1d" x="312.708981" y="307.584" style="stroke: #000000; stroke-width: 0.8"/>
      </g>
     </g>
     <g id="text_12">
      <!-- 6 -->
      <g transform="translate(309.527731 322.182437) scale(0.1 -0.1)">
       <defs>
        <path id="DejaVuSans-36" d="M 2113 2584 
Q 1688 2584 1439 2293 
Q 1191 2003 1191 1497 
Q 1191 994 1439 701 
Q 1688 409 2113 409 
Q 2538 409 2786 701 
Q 3034 994 3034 1497 
Q 3034 2003 2786 2293 
Q 2538 2584 2113 2584 
z
M 3366 4563 
L 3366 3988 
Q 3128 4100 2886 4159 
Q 2644 4219 2406 4219 
Q 1781 4219 1451 3797 
Q 1122 3375 1075 2522 
Q 1259 2794 1537 2939 
Q 1816 3084 2150 3084 
Q 2853 3084 3261 2657 
Q 3669 2231 3669 1497 
Q 3669 778 3244 343 
Q 2819 -91 2113 -91 
Q 1303 -91 875 529 
Q 447 1150 447 2328 
Q 447 3434 972 4092 
Q 1497 4750 2381 4750 
Q 2619 4750 2861 4703 
Q 3103 4656 3366 4563 
z
" transform="scale(0.015625)"/>
       </defs>
       <use xlink:href="#DejaVuSans-36"/>
      </g>
     </g>
    </g>
    <g id="xtick_13">
     <g id="line2d_13">
      <g>
       <use xlink:href="#m626acbac1d" x="334.425005" y="307.584" style="stroke: #000000; stroke-width: 0.8"/>
      </g>
     </g>
     <g id="text_13">
      <!-- 7 -->
      <g transform="translate(331.243755 322.182437) scale(0.1 -0.1)">
       <defs>
        <path id="DejaVuSans-37" d="M 525 4666 
L 3525 4666 
L 3525 4397 
L 1831 0 
L 1172 0 
L 2766 4134 
L 525 4134 
L 525 4666 
z
" transform="scale(0.015625)"/>
       </defs>
       <use xlink:href="#DejaVuSans-37"/>
      </g>
     </g>
    </g>
    <g id="xtick_14">
     <g id="line2d_14">
      <g>
       <use xlink:href="#m626acbac1d" x="356.141028" y="307.584" style="stroke: #000000; stroke-width: 0.8"/>
      </g>
     </g>
     <g id="text_14">
      <!-- 8 -->
      <g transform="translate(352.959778 322.182437) scale(0.1 -0.1)">
       <defs>
        <path id="DejaVuSans-38" d="M 2034 2216 
Q 1584 2216 1326 1975 
Q 1069 1734 1069 1313 
Q 1069 891 1326 650 
Q 1584 409 2034 409 
Q 2484 409 2743 651 
Q 3003 894 3003 1313 
Q 3003 1734 2745 1975 
Q 2488 2216 2034 2216 
z
M 1403 2484 
Q 997 2584 770 2862 
Q 544 3141 544 3541 
Q 544 4100 942 4425 
Q 1341 4750 2034 4750 
Q 2731 4750 3128 4425 
Q 3525 4100 3525 3541 
Q 3525 3141 3298 2862 
Q 3072 2584 2669 2484 
Q 3125 2378 3379 2068 
Q 3634 1759 3634 1313 
Q 3634 634 3220 271 
Q 2806 -91 2034 -91 
Q 1263 -91 848 271 
Q 434 634 434 1313 
Q 434 1759 690 2068 
Q 947 2378 1403 2484 
z
M 1172 3481 
Q 1172 3119 1398 2916 
Q 1625 2713 2034 2713 
Q 2441 2713 2670 2916 
Q 2900 3119 2900 3481 
Q 2900 3844 2670 4047 
Q 2441 4250 2034 4250 
Q 1625 4250 1398 4047 
Q 1172 3844 1172 3481 
z
" transform="scale(0.015625)"/>
       </defs>
       <use xlink:href="#DejaVuSans-38"/>
      </g>
     </g>
    </g>
    <g id="xtick_15">
     <g id="line2d_15">
      <g>
       <use xlink:href="#m626acbac1d" x="377.857051" y="307.584" style="stroke: #000000; stroke-width: 0.8"/>
      </g>
     </g>
     <g id="text_15">
      <!-- 9 -->
      <g transform="translate(374.675801 322.182437) scale(0.1 -0.1)">
       <defs>
        <path id="DejaVuSans-39" d="M 703 97 
L 703 672 
Q 941 559 1184 500 
Q 1428 441 1663 441 
Q 2288 441 2617 861 
Q 2947 1281 2994 2138 
Q 2813 1869 2534 1725 
Q 2256 1581 1919 1581 
Q 1219 1581 811 2004 
Q 403 2428 403 3163 
Q 403 3881 828 4315 
Q 1253 4750 1959 4750 
Q 2769 4750 3195 4129 
Q 3622 3509 3622 2328 
Q 3622 1225 3098 567 
Q 2575 -91 1691 -91 
Q 1453 -91 1209 -44 
Q 966 3 703 97 
z
M 1959 2075 
Q 2384 2075 2632 2365 
Q 2881 2656 2881 3163 
Q 2881 3666 2632 3958 
Q 2384 4250 1959 4250 
Q 1534 4250 1286 3958 
Q 1038 3666 1038 3163 
Q 1038 2656 1286 2365 
Q 1534 2075 1959 2075 
z
" transform="scale(0.015625)"/>
       </defs>
       <use xlink:href="#DejaVuSans-39"/>
      </g>
     </g>
    </g>
    <g id="xtick_16">
     <g id="line2d_16">
      <g>
       <use xlink:href="#m626acbac1d" x="399.573074" y="307.584" style="stroke: #000000; stroke-width: 0.8"/>
      </g>
     </g>
     <g id="text_16">
      <!-- 10 -->
      <g transform="translate(393.210574 322.182437) scale(0.1 -0.1)">
       <use xlink:href="#DejaVuSans-31"/>
       <use xlink:href="#DejaVuSans-30" x="63.623047"/>
      </g>
     </g>
    </g>
    <g id="text_17">
     <!-- Time (s) -->
     <g transform="translate(215.831094 335.860562) scale(0.1 -0.1)">
      <defs>
       <path id="DejaVuSans-54" d="M -19 4666 
L 3928 4666 
L 3928 4134 
L 2272 4134 
L 2272 0 
L 1638 0 
L 1638 4134 
L -19 4134 
L -19 4666 
z
" transform="scale(0.015625)"/>
       <path id="DejaVuSans-69" d="M 603 3500 
L 1178 3500 
L 1178 0 
L 603 0 
L 603 3500 
z
M 603 4863 
L 1178 4863 
L 1178 4134 
L 603 4134 
L 603 4863 
z
" transform="scale(0.015625)"/>
       <path id="DejaVuSans-6d" d="M 3328 2828 
Q 3544 3216 3844 3400 
Q 4144 3584 4550 3584 
Q 5097 3584 5394 3201 
Q 5691 2819 5691 2113 
L 5691 0 
L 5113 0 
L 5113 2094 
Q 5113 2597 4934 2840 
Q 4756 3084 4391 3084 
Q 3944 3084 3684 2787 
Q 3425 2491 3425 1978 
L 3425 0 
L 2847 0 
L 2847 2094 
Q 2847 2600 2669 2842 
Q 2491 3084 2119 3084 
Q 1678 3084 1418 2786 
Q 1159 2488 1159 1978 
L 1159 0 
L 581 0 
L 581 3500 
L 1159 3500 
L 1159 2956 
Q 1356 3278 1631 3431 
Q 1906 3584 2284 3584 
Q 2666 3584 2933 3390 
Q 3200 3197 3328 2828 
z
" transform="scale(0.015625)"/>
       <path id="DejaVuSans-65" d="M 3597 1894 
L 3597 1613 
L 953 1613 
Q 991 1019 1311 708 
Q 1631 397 2203 397 
Q 2534 397 2845 478 
Q 3156 559 3463 722 
L 3463 178 
Q 3153 47 2828 -22 
Q 2503 -91 2169 -91 
Q 1331 -91 842 396 
Q 353 884 353 1716 
Q 353 2575 817 3079 
Q 1281 3584 2069 3584 
Q 2775 3584 3186 3129 
Q 3597 2675 3597 1894 
z
M 3022 2063 
Q 3016 2534 2758 2815 
Q 2500 3097 2075 3097 
Q 1594 3097 1305 2825 
Q 1016 2553 972 2059 
L 3022 2063 
z
" transform="scale(0.015625)"/>
       <path id="DejaVuSans-20" transform="scale(0.015625)"/>
       <path id="DejaVuSans-28" d="M 1984 4856 
Q 1566 4138 1362 3434 
Q 1159 2731 1159 2009 
Q 1159 1288 1364 580 
Q 1569 -128 1984 -844 
L 1484 -844 
Q 1016 -109 783 600 
Q 550 1309 550 2009 
Q 550 2706 781 3412 
Q 1013 4119 1484 4856 
L 1984 4856 
z
" transform="scale(0.015625)"/>
       <path id="DejaVuSans-73" d="M 2834 3397 
L 2834 2853 
Q 2591 2978 2328 3040 
Q 2066 3103 1784 3103 
Q 1356 3103 1142 2972 
Q 928 2841 928 2578 
Q 928 2378 1081 2264 
Q 1234 2150 1697 2047 
L 1894 2003 
Q 2506 1872 2764 1633 
Q 3022 1394 3022 966 
Q 3022 478 2636 193 
Q 2250 -91 1575 -91 
Q 1294 -91 989 -36 
Q 684 19 347 128 
L 347 722 
Q 666 556 975 473 
Q 1284 391 1588 391 
Q 1994 391 2212 530 
Q 2431 669 2431 922 
Q 2431 1156 2273 1281 
Q 2116 1406 1581 1522 
L 1381 1569 
Q 847 1681 609 1914 
Q 372 2147 372 2553 
Q 372 3047 722 3315 
Q 1072 3584 1716 3584 
Q 2034 3584 2315 3537 
Q 2597 3491 2834 3397 
z
" transform="scale(0.015625)"/>
       <path id="DejaVuSans-29" d="M 513 4856 
L 1013 4856 
Q 1481 4119 1714 3412 
Q 1947 2706 1947 2009 
Q 1947 1309 1714 600 
Q 1481 -109 1013 -844 
L 513 -844 
Q 928 -128 1133 580 
Q 1338 1288 1338 2009 
Q 1338 2731 1133 3434 
Q 928 4138 513 4856 
z
" transform="scale(0.015625)"/>
      </defs>
      <use xlink:href="#DejaVuSans-54"/>
      <use xlink:href="#DejaVuSans-69" x="57.958984"/>
      <use xlink:href="#DejaVuSans-6d" x="85.742188"/>
      <use xlink:href="#DejaVuSans-65" x="183.154297"/>
      <use xlink:href="#DejaVuSans-20" x="244.677734"/>
      <use xlink:href="#DejaVuSans-28" x="276.464844"/>
      <use xlink:href="#DejaVuSans-73" x="315.478516"/>
      <use xlink:href="#DejaVuSans-29" x="367.578125"/>
     </g>
    </g>
   </g>
   <g id="matplotlib.axis_2">
    <g id="ytick_1">
     <g id="line2d_17">
      <defs>
       <path id="m9939bb7920" d="M 0 0 
L -3.5 0 
" style="stroke: #000000; stroke-width: 0.8"/>
      </defs>
      <g>
       <use xlink:href="#m9939bb7920" x="57.6" y="264.615113" style="stroke: #000000; stroke-width: 0.8"/>
      </g>
     </g>
     <g id="text_18">
      <!-- −0.5 -->
      <g transform="translate(26.317187 268.414331) scale(0.1 -0.1)">
       <defs>
        <path id="DejaVuSans-2e" d="M 684 794 
L 1344 794 
L 1344 0 
L 684 0 
L 684 794 
z
" transform="scale(0.015625)"/>
       </defs>
       <use xlink:href="#DejaVuSans-2212"/>
       <use xlink:href="#DejaVuSans-30" x="83.789062"/>
       <use xlink:href="#DejaVuSans-2e" x="147.412109"/>
       <use xlink:href="#DejaVuSans-35" x="179.199219"/>
      </g>
     </g>
    </g>
    <g id="ytick_2">
     <g id="line2d_18">
      <g>
       <use xlink:href="#m9939bb7920" x="57.6" y="210.802138" style="stroke: #000000; stroke-width: 0.8"/>
      </g>
     </g>
     <g id="text_19">
      <!-- 0.0 -->
      <g transform="translate(34.696875 214.601356) scale(0.1 -0.1)">
       <use xlink:href="#DejaVuSans-30"/>
       <use xlink:href="#DejaVuSans-2e" x="63.623047"/>
       <use xlink:href="#DejaVuSans-30" x="95.410156"/>
      </g>
     </g>
    </g>
    <g id="ytick_3">
     <g id="line2d_19">
      <g>
       <use xlink:href="#m9939bb7920" x="57.6" y="156.989163" style="stroke: #000000; stroke-width: 0.8"/>
      </g>
     </g>
     <g id="text_20">
      <!-- 0.5 -->
      <g transform="translate(34.696875 160.788382) scale(0.1 -0.1)">
       <use xlink:href="#DejaVuSans-30"/>
       <use xlink:href="#DejaVuSans-2e" x="63.623047"/>
       <use xlink:href="#DejaVuSans-35" x="95.410156"/>
      </g>
     </g>
    </g>
    <g id="ytick_4">
     <g id="line2d_20">
      <g>
       <use xlink:href="#m9939bb7920" x="57.6" y="103.176188" style="stroke: #000000; stroke-width: 0.8"/>
      </g>
     </g>
     <g id="text_21">
      <!-- 1.0 -->
      <g transform="translate(34.696875 106.975407) scale(0.1 -0.1)">
       <use xlink:href="#DejaVuSans-31"/>
       <use xlink:href="#DejaVuSans-2e" x="63.623047"/>
       <use xlink:href="#DejaVuSans-30" x="95.410156"/>
      </g>
     </g>
    </g>
    <g id="ytick_5">
     <g id="line2d_21">
      <g>
       <use xlink:href="#m9939bb7920" x="57.6" y="49.363213" style="stroke: #000000; stroke-width: 0.8"/>
      </g>
     </g>
     <g id="text_22">
      <!-- 1.5 -->
      <g transform="translate(34.696875 53.162432) scale(0.1 -0.1)">
       <use xlink:href="#DejaVuSans-31"/>
       <use xlink:href="#DejaVuSans-2e" x="63.623047"/>
       <use xlink:href="#DejaVuSans-35" x="95.410156"/>
      </g>
     </g>
    </g>
    <g id="text_23">
     <!-- Z-Score -->
     <g transform="translate(20.2375 193.67175) rotate(-90) scale(0.1 -0.1)">
      <defs>
       <path id="DejaVuSans-5a" d="M 359 4666 
L 4025 4666 
L 4025 4184 
L 1075 531 
L 4097 531 
L 4097 0 
L 288 0 
L 288 481 
L 3238 4134 
L 359 4134 
L 359 4666 
z
" transform="scale(0.015625)"/>
       <path id="DejaVuSans-2d" d="M 313 2009 
L 1997 2009 
L 1997 1497 
L 313 1497 
L 313 2009 
z
" transform="scale(0.015625)"/>
       <path id="DejaVuSans-53" d="M 3425 4513 
L 3425 3897 
Q 3066 4069 2747 4153 
Q 2428 4238 2131 4238 
Q 1616 4238 1336 4038 
Q 1056 3838 1056 3469 
Q 1056 3159 1242 3001 
Q 1428 2844 1947 2747 
L 2328 2669 
Q 3034 2534 3370 2195 
Q 3706 1856 3706 1288 
Q 3706 609 3251 259 
Q 2797 -91 1919 -91 
Q 1588 -91 1214 -16 
Q 841 59 441 206 
L 441 856 
Q 825 641 1194 531 
Q 1563 422 1919 422 
Q 2459 422 2753 634 
Q 3047 847 3047 1241 
Q 3047 1584 2836 1778 
Q 2625 1972 2144 2069 
L 1759 2144 
Q 1053 2284 737 2584 
Q 422 2884 422 3419 
Q 422 4038 858 4394 
Q 1294 4750 2059 4750 
Q 2388 4750 2728 4690 
Q 3069 4631 3425 4513 
z
" transform="scale(0.015625)"/>
       <path id="DejaVuSans-63" d="M 3122 3366 
L 3122 2828 
Q 2878 2963 2633 3030 
Q 2388 3097 2138 3097 
Q 1578 3097 1268 2742 
Q 959 2388 959 1747 
Q 959 1106 1268 751 
Q 1578 397 2138 397 
Q 2388 397 2633 464 
Q 2878 531 3122 666 
L 3122 134 
Q 2881 22 2623 -34 
Q 2366 -91 2075 -91 
Q 1284 -91 818 406 
Q 353 903 353 1747 
Q 353 2603 823 3093 
Q 1294 3584 2113 3584 
Q 2378 3584 2631 3529 
Q 2884 3475 3122 3366 
z
" transform="scale(0.015625)"/>
       <path id="DejaVuSans-6f" d="M 1959 3097 
Q 1497 3097 1228 2736 
Q 959 2375 959 1747 
Q 959 1119 1226 758 
Q 1494 397 1959 397 
Q 2419 397 2687 759 
Q 2956 1122 2956 1747 
Q 2956 2369 2687 2733 
Q 2419 3097 1959 3097 
z
M 1959 3584 
Q 2709 3584 3137 3096 
Q 3566 2609 3566 1747 
Q 3566 888 3137 398 
Q 2709 -91 1959 -91 
Q 1206 -91 779 398 
Q 353 888 353 1747 
Q 353 2609 779 3096 
Q 1206 3584 1959 3584 
z
" transform="scale(0.015625)"/>
       <path id="DejaVuSans-72" d="M 2631 2963 
Q 2534 3019 2420 3045 
Q 2306 3072 2169 3072 
Q 1681 3072 1420 2755 
Q 1159 2438 1159 1844 
L 1159 0 
L 581 0 
L 581 3500 
L 1159 3500 
L 1159 2956 
Q 1341 3275 1631 3429 
Q 1922 3584 2338 3584 
Q 2397 3584 2469 3576 
Q 2541 3569 2628 3553 
L 2631 2963 
z
" transform="scale(0.015625)"/>
      </defs>
      <use xlink:href="#DejaVuSans-5a"/>
      <use xlink:href="#DejaVuSans-2d" x="66.755859"/>
      <use xlink:href="#DejaVuSans-53" x="102.839844"/>
      <use xlink:href="#DejaVuSans-63" x="166.316406"/>
      <use xlink:href="#DejaVuSans-6f" x="221.296875"/>
      <use xlink:href="#DejaVuSans-72" x="282.478516"/>
      <use xlink:href="#DejaVuSans-65" x="321.341797"/>
     </g>
    </g>
   </g>
   <g id="line2d_22">
    <path d="M 73.832727 217.506962 
L 74.918528 217.304236 
L 76.00433 217.718614 
L 77.090131 217.39011 
L 78.175932 218.20382 
L 79.261733 218.182088 
L 80.347534 217.834965 
L 81.433335 217.79794 
L 82.519137 218.817454 
L 83.604938 218.328851 
L 84.690739 218.275765 
L 85.77654 217.754369 
L 86.862341 218.247847 
L 87.948142 218.321183 
L 89.033943 217.986136 
L 90.119745 216.061805 
L 91.205546 214.636143 
L 94.462949 209.742195 
L 95.54875 207.664742 
L 97.720353 206.399064 
L 98.806154 206.233166 
L 99.891955 205.372275 
L 100.977756 205.005941 
L 102.063557 204.489057 
L 103.149358 204.143127 
L 104.23516 203.955248 
L 105.320961 204.001911 
L 106.406762 202.913393 
L 107.492563 203.114295 
L 109.664165 203.060612 
L 110.749967 203.544676 
L 111.835768 203.14412 
L 114.00737 203.094665 
L 115.093171 203.719626 
L 116.178972 203.808838 
L 117.264773 205.166884 
L 118.350575 206.033918 
L 119.436376 206.363225 
L 120.522177 206.881775 
L 121.607978 206.860538 
L 122.693779 208.048812 
L 123.77958 208.408487 
L 124.865382 209.745262 
L 125.951183 210.767702 
L 127.036984 211.488884 
L 128.122785 212.997332 
L 129.208586 215.276734 
L 130.294387 216.559287 
L 131.380189 217.241978 
L 132.46599 216.963093 
L 133.551791 217.451185 
L 134.637592 218.425429 
L 135.723393 219.549257 
L 136.809194 220.304262 
L 137.894995 220.859221 
L 140.066598 220.087708 
L 141.152399 219.89335 
L 142.2382 219.053241 
L 143.324001 219.768902 
L 144.409802 219.597223 
L 145.495604 218.378126 
L 146.581405 216.914594 
L 147.667206 217.343157 
L 148.753007 217.627858 
L 149.838808 217.414442 
L 150.924609 217.001929 
L 152.01041 216.735933 
L 153.096212 216.194175 
L 154.182013 216.66124 
L 155.267814 215.556691 
L 156.353615 216.507142 
L 157.439416 216.603502 
L 158.525217 216.372073 
L 159.611019 217.25178 
L 160.69682 215.742984 
L 161.782621 215.455381 
L 162.868422 213.771724 
L 163.954223 212.81774 
L 165.040024 211.407652 
L 166.125825 210.425966 
L 167.211627 209.706421 
L 168.297428 208.520474 
L 169.383229 207.090087 
L 170.46903 206.325205 
L 171.554831 204.456019 
L 173.726434 201.150218 
L 174.812235 197.975658 
L 178.069638 190.360079 
L 180.24124 184.15723 
L 181.327042 180.140381 
L 182.412843 173.072393 
L 183.498644 169.650862 
L 185.670246 160.842559 
L 186.756047 157.733653 
L 190.013451 146.0832 
L 191.099252 141.222525 
L 194.356656 129.051149 
L 195.442457 126.24353 
L 196.528258 123.044019 
L 199.785661 112.239607 
L 200.871462 109.338416 
L 201.957264 107.61454 
L 203.043065 105.214109 
L 204.128866 103.772322 
L 206.300468 100.076155 
L 207.386269 98.556693 
L 208.472071 98.58504 
L 209.557872 97.73417 
L 210.643673 97.115551 
L 212.815275 96.578479 
L 213.901076 96.548757 
L 214.986877 96.359634 
L 216.072679 96.601654 
L 217.15848 96.269055 
L 218.244281 97.373157 
L 220.415883 96.84948 
L 221.501684 97.329814 
L 222.587486 98.159661 
L 223.673287 100.108731 
L 224.759088 100.936725 
L 225.844889 102.891076 
L 226.93069 104.586201 
L 228.016491 106.93229 
L 229.102292 108.24333 
L 230.188094 110.230522 
L 231.273895 111.929664 
L 234.531298 118.978123 
L 235.617099 122.860114 
L 236.702901 125.307894 
L 237.788702 130.290979 
L 239.960304 138.115698 
L 242.131906 145.567058 
L 245.38931 159.757765 
L 247.560912 169.25035 
L 248.646713 174.785274 
L 249.732514 179.71214 
L 250.818316 183.349997 
L 252.989918 191.779185 
L 254.075719 194.88337 
L 256.247321 203.231312 
L 257.333123 207.151679 
L 258.418924 211.79274 
L 259.504725 215.122026 
L 260.590526 219.261645 
L 261.676327 222.450476 
L 263.847929 230.346266 
L 264.933731 233.81127 
L 266.019532 236.825938 
L 267.105333 240.637038 
L 269.276935 245.957536 
L 270.362736 247.734267 
L 271.448538 249.210343 
L 272.534339 249.540424 
L 273.62014 251.210277 
L 274.705941 251.563299 
L 275.791742 251.455376 
L 276.877543 251.182994 
L 277.963344 251.301453 
L 279.049146 252.147175 
L 281.220748 253.125206 
L 282.306549 252.735904 
L 283.39235 252.915734 
L 284.478151 254.044979 
L 285.563953 254.735706 
L 286.649754 255.061861 
L 287.735555 254.978909 
L 288.821356 255.48068 
L 289.907157 256.284455 
L 290.992958 256.757532 
L 292.07876 256.277707 
L 293.164561 256.604061 
L 294.250362 256.178552 
L 295.336163 256.480597 
L 297.507765 255.045702 
L 298.593566 253.587043 
L 299.679368 251.340011 
L 300.765169 251.193843 
L 301.85097 248.688342 
L 304.022572 245.415509 
L 305.108373 243.151108 
L 308.365777 237.661508 
L 309.451578 235.298721 
L 310.537379 233.752242 
L 313.794783 230.42665 
L 314.880584 230.267092 
L 315.966385 229.105037 
L 317.052186 227.664121 
L 318.137987 227.299229 
L 319.223788 226.561218 
L 321.395391 224.261449 
L 322.481192 221.86302 
L 323.566993 221.071092 
L 324.652794 219.836796 
L 325.738595 219.722165 
L 326.824396 218.834902 
L 327.910198 218.356681 
L 328.995999 216.770928 
L 330.0818 216.09161 
L 331.167601 214.831 
L 333.339203 213.366649 
L 334.425005 213.132478 
L 335.510806 212.545124 
L 336.596607 212.849755 
L 337.682408 211.215123 
L 339.85401 208.906438 
L 340.939811 208.492187 
L 342.025613 207.225056 
L 343.111414 205.024938 
L 344.197215 203.477136 
L 345.283016 201.687866 
L 346.368817 200.547174 
L 347.454618 198.384736 
L 348.54042 197.078392 
L 349.626221 196.223396 
L 350.712022 194.165579 
L 351.797823 192.748716 
L 352.883624 192.161559 
L 353.969425 190.259181 
L 355.055227 188.980403 
L 356.141028 187.121298 
L 358.31263 184.549316 
L 360.484232 181.883087 
L 361.570033 180.722477 
L 362.655835 180.424731 
L 363.741636 180.397093 
L 364.827437 180.035315 
L 365.913238 179.904682 
L 366.999039 179.352383 
L 368.08484 178.572305 
L 369.170642 178.945354 
L 370.256443 178.732678 
L 371.342244 177.546185 
L 372.428045 176.831773 
L 373.513846 176.36781 
L 374.599647 174.855922 
L 375.685448 172.805347 
L 377.857051 169.274832 
L 378.942852 167.03419 
L 380.028653 166.416009 
L 381.114454 165.61617 
L 382.200255 165.099165 
L 383.286057 163.51854 
L 384.371858 162.744263 
L 386.54346 162.526283 
L 387.629261 161.876934 
L 388.715062 160.505434 
L 389.800863 160.381328 
L 390.886665 159.113861 
L 393.058267 157.08608 
L 396.31567 153.524269 
L 397.401472 152.909278 
L 398.487273 151.522782 
L 398.487273 151.522782 
" clip-path="url(#p15d1b77caf)" style="fill: none; stroke: #ff00ff; stroke-width: 1.5; stroke-linecap: square"/>
   </g>
   <g id="line2d_23">
    <path d="M 182.412843 307.584 
L 182.412843 41.472 
" clip-path="url(#p15d1b77caf)" style="fill: none; stroke: #000000; stroke-width: 1.5; stroke-linecap: square"/>
   </g>
   <g id="patch_3">
    <path d="M 57.6 307.584 
L 57.6 41.472 
" style="fill: none; stroke: #000000; stroke-width: 0.8; stroke-linejoin: miter; stroke-linecap: square"/>
   </g>
   <g id="patch_4">
    <path d="M 414.72 307.584 
L 414.72 41.472 
" style="fill: none; stroke: #000000; stroke-width: 0.8; stroke-linejoin: miter; stroke-linecap: square"/>
   </g>
   <g id="patch_5">
    <path d="M 57.6 307.584 
L 414.72 307.584 
" style="fill: none; stroke: #000000; stroke-width: 0.8; stroke-linejoin: miter; stroke-linecap: square"/>
   </g>
   <g id="patch_6">
    <path d="M 57.6 41.472 
L 414.72 41.472 
" style="fill: none; stroke: #000000; stroke-width: 0.8; stroke-linejoin: miter; stroke-linecap: square"/>
   </g>
   <g id="text_24">
    <!-- Event 10_p=0.344 -->
    <g transform="translate(180.415312 35.472) scale(0.12 -0.12)">
     <defs>
      <path id="DejaVuSans-45" d="M 628 4666 
L 3578 4666 
L 3578 4134 
L 1259 4134 
L 1259 2753 
L 3481 2753 
L 3481 2222 
L 1259 2222 
L 1259 531 
L 3634 531 
L 3634 0 
L 628 0 
L 628 4666 
z
" transform="scale(0.015625)"/>
      <path id="DejaVuSans-76" d="M 191 3500 
L 800 3500 
L 1894 563 
L 2988 3500 
L 3597 3500 
L 2284 0 
L 1503 0 
L 191 3500 
z
" transform="scale(0.015625)"/>
      <path id="DejaVuSans-6e" d="M 3513 2113 
L 3513 0 
L 2938 0 
L 2938 2094 
Q 2938 2591 2744 2837 
Q 2550 3084 2163 3084 
Q 1697 3084 1428 2787 
Q 1159 2491 1159 1978 
L 1159 0 
L 581 0 
L 581 3500 
L 1159 3500 
L 1159 2956 
Q 1366 3272 1645 3428 
Q 1925 3584 2291 3584 
Q 2894 3584 3203 3211 
Q 3513 2838 3513 2113 
z
" transform="scale(0.015625)"/>
      <path id="DejaVuSans-74" d="M 1172 4494 
L 1172 3500 
L 2356 3500 
L 2356 3053 
L 1172 3053 
L 1172 1153 
Q 1172 725 1289 603 
Q 1406 481 1766 481 
L 2356 481 
L 2356 0 
L 1766 0 
Q 1100 0 847 248 
Q 594 497 594 1153 
L 594 3053 
L 172 3053 
L 172 3500 
L 594 3500 
L 594 4494 
L 1172 4494 
z
" transform="scale(0.015625)"/>
      <path id="DejaVuSans-5f" d="M 3263 -1063 
L 3263 -1509 
L -63 -1509 
L -63 -1063 
L 3263 -1063 
z
" transform="scale(0.015625)"/>
      <path id="DejaVuSans-70" d="M 1159 525 
L 1159 -1331 
L 581 -1331 
L 581 3500 
L 1159 3500 
L 1159 2969 
Q 1341 3281 1617 3432 
Q 1894 3584 2278 3584 
Q 2916 3584 3314 3078 
Q 3713 2572 3713 1747 
Q 3713 922 3314 415 
Q 2916 -91 2278 -91 
Q 1894 -91 1617 61 
Q 1341 213 1159 525 
z
M 3116 1747 
Q 3116 2381 2855 2742 
Q 2594 3103 2138 3103 
Q 1681 3103 1420 2742 
Q 1159 2381 1159 1747 
Q 1159 1113 1420 752 
Q 1681 391 2138 391 
Q 2594 391 2855 752 
Q 3116 1113 3116 1747 
z
" transform="scale(0.015625)"/>
      <path id="DejaVuSans-3d" d="M 678 2906 
L 4684 2906 
L 4684 2381 
L 678 2381 
L 678 2906 
z
M 678 1631 
L 4684 1631 
L 4684 1100 
L 678 1100 
L 678 1631 
z
" transform="scale(0.015625)"/>
     </defs>
     <use xlink:href="#DejaVuSans-45"/>
     <use xlink:href="#DejaVuSans-76" x="63.183594"/>
     <use xlink:href="#DejaVuSans-65" x="122.363281"/>
     <use xlink:href="#DejaVuSans-6e" x="183.886719"/>
     <use xlink:href="#DejaVuSans-74" x="247.265625"/>
     <use xlink:href="#DejaVuSans-20" x="286.474609"/>
     <use xlink:href="#DejaVuSans-31" x="318.261719"/>
     <use xlink:href="#DejaVuSans-30" x="381.884766"/>
     <use xlink:href="#DejaVuSans-5f" x="445.507812"/>
     <use xlink:href="#DejaVuSans-70" x="495.507812"/>
     <use xlink:href="#DejaVuSans-3d" x="558.984375"/>
     <use xlink:href="#DejaVuSans-30" x="642.773438"/>
     <use xlink:href="#DejaVuSans-2e" x="706.396484"/>
     <use xlink:href="#DejaVuSans-33" x="738.183594"/>
     <use xlink:href="#DejaVuSans-34" x="801.806641"/>
     <use xlink:href="#DejaVuSans-34" x="865.429688"/>
    </g>
   </g>
  </g>
 </g>
 <defs>
  <clipPath id="p15d1b77caf">
   <rect x="57.6" y="41.472" width="357.12" height="266.112"/>
  </clipPath>
 </defs>
</svg>
