<?xml version="1.0" encoding="utf-8" standalone="no"?>
<!DOCTYPE svg PUBLIC "-//W3C//DTD SVG 1.1//EN"
  "http://www.w3.org/Graphics/SVG/1.1/DTD/svg11.dtd">
<svg xmlns:xlink="http://www.w3.org/1999/xlink" width="460.8pt" height="345.6pt" viewBox="0 0 460.8 345.6" xmlns="http://www.w3.org/2000/svg" version="1.1">
 <metadata>
  <rdf:RDF xmlns:dc="http://purl.org/dc/elements/1.1/" xmlns:cc="http://creativecommons.org/ns#" xmlns:rdf="http://www.w3.org/1999/02/22-rdf-syntax-ns#">
   <cc:Work>
    <dc:type rdf:resource="http://purl.org/dc/dcmitype/StillImage"/>
    <dc:date>2024-11-14T18:55:16.451382</dc:date>
    <dc:format>image/svg+xml</dc:format>
    <dc:creator>
     <cc:Agent>
      <dc:title>Matplotlib v3.8.2, https://matplotlib.org/</dc:title>
     </cc:Agent>
    </dc:creator>
   </cc:Work>
  </rdf:RDF>
 </metadata>
 <defs>
  <style type="text/css">*{stroke-linejoin: round; stroke-linecap: butt}</style>
 </defs>
 <g id="figure_1">
  <g id="patch_1">
   <path d="M 0 345.6 
L 460.8 345.6 
L 460.8 0 
L 0 0 
z
" style="fill: #ffffff"/>
  </g>
  <g id="axes_1">
   <g id="patch_2">
    <path d="M 57.6 307.584 
L 414.72 307.584 
L 414.72 41.472 
L 57.6 41.472 
z
" style="fill: #ffffff"/>
   </g>
   <g id="PolyCollection_1">
    <defs>
     <path id="m96b2e72ce4" d="M 73.832727 -154.310367 
L 73.832727 -108.971929 
L 74.918528 -111.496036 
L 76.00433 -113.140783 
L 77.090131 -114.512633 
L 78.175932 -115.62848 
L 79.261733 -117.889009 
L 80.347534 -119.512928 
L 81.433335 -120.709745 
L 82.519137 -122.229194 
L 83.604938 -124.208932 
L 84.690739 -125.120568 
L 85.77654 -126.638622 
L 86.862341 -127.298571 
L 87.948142 -128.02643 
L 89.033943 -128.966569 
L 90.119745 -130.115567 
L 91.205546 -131.425175 
L 92.291347 -132.289201 
L 93.377148 -132.536009 
L 94.462949 -132.78932 
L 95.54875 -133.748437 
L 96.634552 -133.632212 
L 97.720353 -133.709388 
L 98.806154 -134.335742 
L 99.891955 -134.954274 
L 100.977756 -135.184011 
L 102.063557 -135.017532 
L 103.149358 -135.446908 
L 104.23516 -135.766426 
L 105.320961 -135.873974 
L 106.406762 -135.551658 
L 107.492563 -135.230756 
L 108.578364 -134.943218 
L 109.664165 -134.093988 
L 110.749967 -133.2537 
L 111.835768 -133.091726 
L 112.921569 -131.494547 
L 114.00737 -130.965833 
L 115.093171 -130.064425 
L 116.178972 -129.28798 
L 117.264773 -128.674717 
L 118.350575 -128.03974 
L 119.436376 -127.15579 
L 120.522177 -126.733416 
L 121.607978 -125.608314 
L 122.693779 -124.864672 
L 123.77958 -124.303555 
L 124.865382 -123.407182 
L 125.951183 -122.008601 
L 127.036984 -120.891952 
L 128.122785 -119.557406 
L 129.208586 -117.872477 
L 130.294387 -116.499897 
L 131.380189 -115.132506 
L 132.46599 -114.89398 
L 133.551791 -114.490841 
L 134.637592 -113.697888 
L 135.723393 -113.393055 
L 136.809194 -113.248248 
L 137.894995 -112.847403 
L 138.980797 -112.032379 
L 140.066598 -111.099373 
L 141.152399 -110.909751 
L 142.2382 -110.528531 
L 143.324001 -109.805004 
L 144.409802 -109.56884 
L 145.495604 -109.986141 
L 146.581405 -110.481043 
L 147.667206 -110.760529 
L 148.753007 -111.565965 
L 149.838808 -112.884801 
L 150.924609 -113.987974 
L 152.01041 -115.086732 
L 153.096212 -116.380534 
L 154.182013 -117.187908 
L 155.267814 -117.430299 
L 156.353615 -117.575375 
L 157.439416 -118.027919 
L 158.525217 -118.449511 
L 159.611019 -118.978364 
L 160.69682 -120.47088 
L 161.782621 -120.939069 
L 162.868422 -121.536311 
L 163.954223 -122.557786 
L 165.040024 -123.340261 
L 166.125825 -123.969531 
L 167.211627 -125.200524 
L 168.297428 -126.71422 
L 169.383229 -127.928875 
L 170.46903 -129.294926 
L 171.554831 -131.264469 
L 172.640632 -134.0717 
L 173.726434 -136.616626 
L 174.812235 -138.575097 
L 175.898036 -140.164983 
L 176.983837 -142.367884 
L 178.069638 -144.425332 
L 179.155439 -146.489276 
L 180.24124 -148.199324 
L 181.327042 -149.529103 
L 182.412843 -153.306264 
L 183.498644 -155.45049 
L 184.584445 -157.3324 
L 185.670246 -158.578577 
L 186.756047 -160.406634 
L 187.841849 -162.237767 
L 188.92765 -164.07144 
L 190.013451 -165.597375 
L 191.099252 -167.35036 
L 192.185053 -169.56829 
L 193.270854 -171.872273 
L 194.356656 -173.666013 
L 195.442457 -174.941555 
L 196.528258 -176.922785 
L 197.614059 -178.72392 
L 198.69986 -180.468811 
L 199.785661 -181.37522 
L 200.871462 -182.573664 
L 201.957264 -183.492407 
L 203.043065 -184.561707 
L 204.128866 -184.948659 
L 205.214667 -185.547189 
L 206.300468 -186.28785 
L 207.386269 -186.843827 
L 208.472071 -186.96759 
L 209.557872 -187.537719 
L 210.643673 -187.569894 
L 211.729474 -188.037536 
L 212.815275 -188.660196 
L 213.901076 -189.561102 
L 214.986877 -189.723625 
L 216.072679 -189.234955 
L 217.15848 -189.038387 
L 218.244281 -188.615484 
L 219.330082 -188.534986 
L 220.415883 -188.256766 
L 221.501684 -188.524868 
L 222.587486 -187.946264 
L 223.673287 -186.756833 
L 224.759088 -186.354424 
L 225.844889 -185.110372 
L 226.93069 -184.71166 
L 228.016491 -183.664848 
L 229.102292 -183.210968 
L 230.188094 -181.497051 
L 231.273895 -179.761968 
L 232.359696 -178.494688 
L 233.445497 -177.259119 
L 234.531298 -175.428851 
L 235.617099 -172.230631 
L 236.702901 -169.588165 
L 237.788702 -167.258859 
L 238.874503 -164.888034 
L 239.960304 -162.387434 
L 241.046105 -159.890342 
L 242.131906 -156.86197 
L 243.217708 -154.212504 
L 244.303509 -151.810271 
L 245.38931 -149.146515 
L 246.475111 -146.323288 
L 247.560912 -143.013406 
L 248.646713 -140.407685 
L 249.732514 -137.908432 
L 250.818316 -135.510267 
L 251.904117 -132.429054 
L 252.989918 -129.363715 
L 254.075719 -127.214088 
L 255.16152 -124.843825 
L 256.247321 -122.036012 
L 257.333123 -119.64057 
L 258.418924 -117.186126 
L 259.504725 -114.152263 
L 260.590526 -110.628157 
L 261.676327 -107.206297 
L 262.762128 -103.819741 
L 263.847929 -100.603171 
L 264.933731 -98.461845 
L 266.019532 -95.516678 
L 267.105333 -93.473979 
L 268.191134 -90.986328 
L 269.276935 -88.99187 
L 270.362736 -87.381682 
L 271.448538 -85.419597 
L 272.534339 -83.208263 
L 273.62014 -81.106055 
L 274.705941 -79.73133 
L 275.791742 -77.628912 
L 276.877543 -74.976579 
L 277.963344 -72.873193 
L 279.049146 -70.918015 
L 280.134947 -69.3798 
L 281.220748 -67.694156 
L 282.306549 -66.488624 
L 283.39235 -64.686859 
L 284.478151 -63.655203 
L 285.563953 -62.282059 
L 286.649754 -61.386976 
L 287.735555 -60.459727 
L 288.821356 -59.507854 
L 289.907157 -58.96885 
L 290.992958 -57.879932 
L 292.07876 -57.790723 
L 293.164561 -57.447983 
L 294.250362 -57.674795 
L 295.336163 -57.227917 
L 296.421964 -56.698762 
L 297.507765 -56.391187 
L 298.593566 -56.584297 
L 299.679368 -56.989503 
L 300.765169 -57.399198 
L 301.85097 -57.387204 
L 302.936771 -57.775934 
L 304.022572 -58.108301 
L 305.108373 -58.357144 
L 306.194175 -59.028273 
L 307.279976 -59.919201 
L 308.365777 -60.179044 
L 309.451578 -60.5651 
L 310.537379 -61.693907 
L 311.62318 -62.760031 
L 312.708981 -63.699821 
L 313.794783 -64.883742 
L 314.880584 -65.530485 
L 315.966385 -66.594807 
L 317.052186 -67.573396 
L 318.137987 -68.117205 
L 319.223788 -69.442716 
L 320.30959 -70.610662 
L 321.395391 -71.882888 
L 322.481192 -72.108474 
L 323.566993 -73.128679 
L 324.652794 -74.524097 
L 325.738595 -75.354105 
L 326.824396 -76.027558 
L 327.910198 -77.040092 
L 328.995999 -76.971216 
L 330.0818 -77.534489 
L 331.167601 -78.17362 
L 332.253402 -79.064643 
L 333.339203 -79.715999 
L 334.425005 -79.93022 
L 335.510806 -80.023236 
L 336.596607 -80.383697 
L 337.682408 -79.897281 
L 338.768209 -79.644982 
L 339.85401 -79.593188 
L 340.939811 -79.25944 
L 342.025613 -79.073239 
L 343.111414 -78.833927 
L 344.197215 -78.153062 
L 345.283016 -78.044832 
L 346.368817 -77.704342 
L 347.454618 -77.757764 
L 348.54042 -77.509648 
L 349.626221 -77.73253 
L 350.712022 -78.102546 
L 351.797823 -78.535536 
L 352.883624 -78.911838 
L 353.969425 -79.055652 
L 355.055227 -78.951694 
L 356.141028 -78.346454 
L 357.226829 -77.801873 
L 358.31263 -76.55083 
L 359.398431 -77.152349 
L 360.484232 -76.882925 
L 361.570033 -76.127734 
L 362.655835 -75.741207 
L 363.741636 -75.84746 
L 364.827437 -75.643434 
L 365.913238 -75.308823 
L 366.999039 -74.640983 
L 368.08484 -74.479542 
L 369.170642 -74.379681 
L 370.256443 -73.994822 
L 371.342244 -73.796896 
L 372.428045 -73.932603 
L 373.513846 -73.353175 
L 374.599647 -73.029123 
L 375.685448 -72.026622 
L 376.77125 -71.399805 
L 377.857051 -70.698415 
L 378.942852 -69.855713 
L 380.028653 -68.829016 
L 381.114454 -67.667225 
L 382.200255 -66.682125 
L 383.286057 -65.038521 
L 384.371858 -63.55315 
L 385.457659 -62.105702 
L 386.54346 -60.989391 
L 387.629261 -59.685252 
L 388.715062 -58.117629 
L 389.800863 -57.263998 
L 390.886665 -56.5309 
L 391.972466 -55.491945 
L 393.058267 -54.471465 
L 394.144068 -53.559526 
L 395.229869 -52.609291 
L 396.31567 -51.633037 
L 397.401472 -51.248559 
L 398.487273 -50.112 
L 398.487273 -229.33657 
L 398.487273 -229.33657 
L 397.401472 -229.414414 
L 396.31567 -228.682125 
L 395.229869 -228.695887 
L 394.144068 -228.852537 
L 393.058267 -229.43066 
L 391.972466 -229.799192 
L 390.886665 -230.22553 
L 389.800863 -230.917129 
L 388.715062 -231.644213 
L 387.629261 -233.40879 
L 386.54346 -235.033649 
L 385.457659 -236.208892 
L 384.371858 -237.686725 
L 383.286057 -238.816688 
L 382.200255 -240.181854 
L 381.114454 -240.832799 
L 380.028653 -241.521478 
L 378.942852 -241.680064 
L 377.857051 -241.814785 
L 376.77125 -241.969364 
L 375.685448 -241.848564 
L 374.599647 -241.986738 
L 373.513846 -241.183692 
L 372.428045 -240.993993 
L 371.342244 -240.073786 
L 370.256443 -239.55583 
L 369.170642 -239.172265 
L 368.08484 -238.442316 
L 366.999039 -237.682908 
L 365.913238 -237.320527 
L 364.827437 -236.761984 
L 363.741636 -235.763001 
L 362.655835 -234.552069 
L 361.570033 -233.32756 
L 360.484232 -232.705097 
L 359.398431 -231.748473 
L 358.31263 -229.743886 
L 357.226829 -229.635939 
L 356.141028 -228.611398 
L 355.055227 -227.785998 
L 353.969425 -226.659542 
L 352.883624 -225.27322 
L 351.797823 -223.70231 
L 350.712022 -222.246727 
L 349.626221 -220.911394 
L 348.54042 -219.934354 
L 347.454618 -219.428285 
L 346.368817 -218.688245 
L 345.283016 -218.268174 
L 344.197215 -217.625708 
L 343.111414 -217.603982 
L 342.025613 -217.179722 
L 340.939811 -216.869669 
L 339.85401 -216.393591 
L 338.768209 -215.491824 
L 337.682408 -214.663556 
L 336.596607 -214.085258 
L 335.510806 -212.688241 
L 334.425005 -211.405239 
L 333.339203 -209.964703 
L 332.253402 -208.069093 
L 331.167601 -205.877578 
L 330.0818 -203.972061 
L 328.995999 -202.032959 
L 327.910198 -200.997082 
L 326.824396 -198.837116 
L 325.738595 -197.004114 
L 324.652794 -195.014975 
L 323.566993 -192.39031 
L 322.481192 -190.171897 
L 321.395391 -188.859072 
L 320.30959 -186.810012 
L 319.223788 -184.855212 
L 318.137987 -182.674035 
L 317.052186 -181.246829 
L 315.966385 -179.447561 
L 314.880584 -177.925489 
L 313.794783 -176.75127 
L 312.708981 -175.012162 
L 311.62318 -173.593946 
L 310.537379 -172.107223 
L 309.451578 -170.668509 
L 308.365777 -169.781087 
L 307.279976 -169.25779 
L 306.194175 -168.129642 
L 305.108373 -167.084521 
L 304.022572 -166.572019 
L 302.936771 -165.682965 
L 301.85097 -165.011584 
L 300.765169 -164.616982 
L 299.679368 -163.951794 
L 298.593566 -163.211137 
L 297.507765 -162.963095 
L 296.421964 -163.078676 
L 295.336163 -163.417395 
L 294.250362 -163.54714 
L 293.164561 -163.072575 
L 292.07876 -163.379022 
L 290.992958 -163.256861 
L 289.907157 -164.125433 
L 288.821356 -164.685333 
L 287.735555 -165.506487 
L 286.649754 -166.321108 
L 285.563953 -167.055757 
L 284.478151 -168.337919 
L 283.39235 -169.421531 
L 282.306549 -171.283141 
L 281.220748 -172.298601 
L 280.134947 -174.171208 
L 279.049146 -175.89859 
L 277.963344 -177.886042 
L 276.877543 -179.993881 
L 275.791742 -182.919743 
L 274.705941 -185.0724 
L 273.62014 -186.545702 
L 272.534339 -188.778429 
L 271.448538 -191.313324 
L 270.362736 -193.310055 
L 269.276935 -195.324709 
L 268.191134 -197.343504 
L 267.105333 -199.950903 
L 266.019532 -202.356981 
L 264.933731 -205.528535 
L 263.847929 -207.81689 
L 262.762128 -211.024933 
L 261.676327 -214.363066 
L 260.590526 -217.887723 
L 259.504725 -221.459112 
L 258.418924 -224.344887 
L 257.333123 -227.056427 
L 256.247321 -229.252737 
L 255.16152 -232.253709 
L 254.075719 -234.775843 
L 252.989918 -237.018211 
L 251.904117 -240.022259 
L 250.818316 -243.453832 
L 249.732514 -245.81993 
L 248.646713 -248.41049 
L 247.560912 -251.184101 
L 246.475111 -254.604286 
L 245.38931 -257.697556 
L 244.303509 -260.545253 
L 243.217708 -263.191525 
L 242.131906 -266.051635 
L 241.046105 -269.010852 
L 239.960304 -271.534228 
L 238.874503 -274.124316 
L 237.788702 -276.332689 
L 236.702901 -278.494301 
L 235.617099 -281.075621 
L 234.531298 -284.196813 
L 233.445497 -285.988588 
L 232.359696 -287.226942 
L 231.273895 -288.037122 
L 230.188094 -289.520226 
L 229.102292 -290.754061 
L 228.016491 -290.848951 
L 226.93069 -291.361409 
L 225.844889 -291.298737 
L 224.759088 -292.001049 
L 223.673287 -291.837809 
L 222.587486 -292.032 
L 221.501684 -291.780661 
L 220.415883 -290.680322 
L 219.330082 -289.888435 
L 218.244281 -288.986732 
L 217.15848 -288.341223 
L 216.072679 -287.113017 
L 214.986877 -286.220302 
L 213.901076 -284.796461 
L 212.815275 -282.578418 
L 211.729474 -280.641535 
L 210.643673 -278.879345 
L 209.557872 -277.255259 
L 208.472071 -275.218063 
L 207.386269 -273.484349 
L 206.300468 -271.785459 
L 205.214667 -269.652078 
L 204.128866 -267.604368 
L 203.043065 -265.512385 
L 201.957264 -262.724211 
L 200.871462 -260.12888 
L 199.785661 -257.33628 
L 198.69986 -254.833393 
L 197.614059 -251.616366 
L 196.528258 -248.273718 
L 195.442457 -244.678414 
L 194.356656 -241.641937 
L 193.270854 -238.12251 
L 192.185053 -234.636275 
L 191.099252 -230.65833 
L 190.013451 -227.503639 
L 188.92765 -224.335861 
L 187.841849 -221.148794 
L 186.756047 -217.818065 
L 185.670246 -214.692044 
L 184.584445 -211.931398 
L 183.498644 -208.422773 
L 182.412843 -204.866478 
L 181.327042 -197.825338 
L 180.24124 -194.989509 
L 179.155439 -191.768536 
L 178.069638 -188.329531 
L 176.983837 -184.948542 
L 175.898036 -181.373482 
L 174.812235 -178.485731 
L 173.726434 -175.290131 
L 172.640632 -171.849649 
L 171.554831 -168.208658 
L 170.46903 -165.521069 
L 169.383229 -163.179177 
L 168.297428 -161.204256 
L 167.211627 -159.035409 
L 166.125825 -157.174812 
L 165.040024 -155.727403 
L 163.954223 -154.286279 
L 162.868422 -152.397713 
L 161.782621 -150.891524 
L 160.69682 -149.618465 
L 159.611019 -147.337204 
L 158.525217 -145.735272 
L 157.439416 -144.382744 
L 156.353615 -142.939322 
L 155.267814 -141.79187 
L 154.182013 -140.582477 
L 153.096212 -138.937195 
L 152.01041 -136.803726 
L 150.924609 -135.029096 
L 149.838808 -133.562156 
L 148.753007 -132.059305 
L 147.667206 -131.091411 
L 146.581405 -130.869866 
L 145.495604 -130.40172 
L 144.409802 -129.790741 
L 143.324001 -129.605087 
L 142.2382 -130.360597 
L 141.152399 -130.594359 
L 140.066598 -130.604823 
L 138.980797 -131.409953 
L 137.894995 -132.10631 
L 136.809194 -132.39122 
L 135.723393 -132.328412 
L 134.637592 -132.658467 
L 133.551791 -133.376149 
L 132.46599 -133.794725 
L 131.380189 -134.085908 
L 130.294387 -135.479524 
L 129.208586 -136.745722 
L 128.122785 -138.279527 
L 127.036984 -139.698461 
L 125.951183 -140.842019 
L 124.865382 -142.268444 
L 123.77958 -143.077484 
L 122.693779 -143.858235 
L 121.607978 -144.483492 
L 120.522177 -145.657537 
L 119.436376 -146.245183 
L 118.350575 -147.289595 
L 117.264773 -148.151773 
L 116.178972 -148.998922 
L 115.093171 -149.958697 
L 114.00737 -150.993976 
L 112.921569 -151.769715 
L 111.835768 -153.64473 
L 110.749967 -154.061512 
L 109.664165 -155.380453 
L 108.578364 -156.981064 
L 107.492563 -157.852449 
L 106.406762 -158.823536 
L 105.320961 -159.801022 
L 104.23516 -160.289537 
L 103.149358 -160.758771 
L 102.063557 -161.151442 
L 100.977756 -161.90897 
L 99.891955 -162.337307 
L 98.806154 -162.524902 
L 97.720353 -162.566037 
L 96.634552 -163.165426 
L 95.54875 -163.864984 
L 94.462949 -163.754441 
L 93.377148 -163.958113 
L 92.291347 -163.924822 
L 91.205546 -163.511872 
L 90.119745 -162.498643 
L 89.033943 -161.608274 
L 87.948142 -160.992508 
L 86.862341 -160.82185 
L 85.77654 -160.621065 
L 84.690739 -159.674982 
L 83.604938 -159.576719 
L 82.519137 -158.602746 
L 81.433335 -158.097661 
L 80.347534 -157.839272 
L 79.261733 -157.172688 
L 78.175932 -156.194939 
L 77.090131 -156.040839 
L 76.00433 -155.900995 
L 74.918528 -155.32949 
L 73.832727 -154.310367 
z
" style="stroke: #ff00ff; stroke-opacity: 0.1"/>
    </defs>
    <g clip-path="url(#p53e827d33f)">
     <use xlink:href="#m96b2e72ce4" x="0" y="345.6" style="fill: #ff00ff; fill-opacity: 0.1; stroke: #ff00ff; stroke-opacity: 0.1"/>
    </g>
   </g>
   <g id="matplotlib.axis_1">
    <g id="xtick_1">
     <g id="line2d_1">
      <defs>
       <path id="m083bfa5c34" d="M 0 0 
L 0 3.5 
" style="stroke: #000000; stroke-width: 0.8"/>
      </defs>
      <g>
       <use xlink:href="#m083bfa5c34" x="73.832727" y="307.584" style="stroke: #000000; stroke-width: 0.8"/>
      </g>
     </g>
     <g id="text_1">
      <!-- −5 -->
      <g transform="translate(66.461634 322.182437) scale(0.1 -0.1)">
       <defs>
        <path id="DejaVuSans-2212" d="M 678 2272 
L 4684 2272 
L 4684 1741 
L 678 1741 
L 678 2272 
z
" transform="scale(0.015625)"/>
        <path id="DejaVuSans-35" d="M 691 4666 
L 3169 4666 
L 3169 4134 
L 1269 4134 
L 1269 2991 
Q 1406 3038 1543 3061 
Q 1681 3084 1819 3084 
Q 2600 3084 3056 2656 
Q 3513 2228 3513 1497 
Q 3513 744 3044 326 
Q 2575 -91 1722 -91 
Q 1428 -91 1123 -41 
Q 819 9 494 109 
L 494 744 
Q 775 591 1075 516 
Q 1375 441 1709 441 
Q 2250 441 2565 725 
Q 2881 1009 2881 1497 
Q 2881 1984 2565 2268 
Q 2250 2553 1709 2553 
Q 1456 2553 1204 2497 
Q 953 2441 691 2322 
L 691 4666 
z
" transform="scale(0.015625)"/>
       </defs>
       <use xlink:href="#DejaVuSans-2212"/>
       <use xlink:href="#DejaVuSans-35" x="83.789062"/>
      </g>
     </g>
    </g>
    <g id="xtick_2">
     <g id="line2d_2">
      <g>
       <use xlink:href="#m083bfa5c34" x="95.54875" y="307.584" style="stroke: #000000; stroke-width: 0.8"/>
      </g>
     </g>
     <g id="text_2">
      <!-- −4 -->
      <g transform="translate(88.177657 322.182437) scale(0.1 -0.1)">
       <defs>
        <path id="DejaVuSans-34" d="M 2419 4116 
L 825 1625 
L 2419 1625 
L 2419 4116 
z
M 2253 4666 
L 3047 4666 
L 3047 1625 
L 3713 1625 
L 3713 1100 
L 3047 1100 
L 3047 0 
L 2419 0 
L 2419 1100 
L 313 1100 
L 313 1709 
L 2253 4666 
z
" transform="scale(0.015625)"/>
       </defs>
       <use xlink:href="#DejaVuSans-2212"/>
       <use xlink:href="#DejaVuSans-34" x="83.789062"/>
      </g>
     </g>
    </g>
    <g id="xtick_3">
     <g id="line2d_3">
      <g>
       <use xlink:href="#m083bfa5c34" x="117.264773" y="307.584" style="stroke: #000000; stroke-width: 0.8"/>
      </g>
     </g>
     <g id="text_3">
      <!-- −3 -->
      <g transform="translate(109.89368 322.182437) scale(0.1 -0.1)">
       <defs>
        <path id="DejaVuSans-33" d="M 2597 2516 
Q 3050 2419 3304 2112 
Q 3559 1806 3559 1356 
Q 3559 666 3084 287 
Q 2609 -91 1734 -91 
Q 1441 -91 1130 -33 
Q 819 25 488 141 
L 488 750 
Q 750 597 1062 519 
Q 1375 441 1716 441 
Q 2309 441 2620 675 
Q 2931 909 2931 1356 
Q 2931 1769 2642 2001 
Q 2353 2234 1838 2234 
L 1294 2234 
L 1294 2753 
L 1863 2753 
Q 2328 2753 2575 2939 
Q 2822 3125 2822 3475 
Q 2822 3834 2567 4026 
Q 2313 4219 1838 4219 
Q 1578 4219 1281 4162 
Q 984 4106 628 3988 
L 628 4550 
Q 988 4650 1302 4700 
Q 1616 4750 1894 4750 
Q 2613 4750 3031 4423 
Q 3450 4097 3450 3541 
Q 3450 3153 3228 2886 
Q 3006 2619 2597 2516 
z
" transform="scale(0.015625)"/>
       </defs>
       <use xlink:href="#DejaVuSans-2212"/>
       <use xlink:href="#DejaVuSans-33" x="83.789062"/>
      </g>
     </g>
    </g>
    <g id="xtick_4">
     <g id="line2d_4">
      <g>
       <use xlink:href="#m083bfa5c34" x="138.980797" y="307.584" style="stroke: #000000; stroke-width: 0.8"/>
      </g>
     </g>
     <g id="text_4">
      <!-- −2 -->
      <g transform="translate(131.609703 322.182437) scale(0.1 -0.1)">
       <defs>
        <path id="DejaVuSans-32" d="M 1228 531 
L 3431 531 
L 3431 0 
L 469 0 
L 469 531 
Q 828 903 1448 1529 
Q 2069 2156 2228 2338 
Q 2531 2678 2651 2914 
Q 2772 3150 2772 3378 
Q 2772 3750 2511 3984 
Q 2250 4219 1831 4219 
Q 1534 4219 1204 4116 
Q 875 4013 500 3803 
L 500 4441 
Q 881 4594 1212 4672 
Q 1544 4750 1819 4750 
Q 2544 4750 2975 4387 
Q 3406 4025 3406 3419 
Q 3406 3131 3298 2873 
Q 3191 2616 2906 2266 
Q 2828 2175 2409 1742 
Q 1991 1309 1228 531 
z
" transform="scale(0.015625)"/>
       </defs>
       <use xlink:href="#DejaVuSans-2212"/>
       <use xlink:href="#DejaVuSans-32" x="83.789062"/>
      </g>
     </g>
    </g>
    <g id="xtick_5">
     <g id="line2d_5">
      <g>
       <use xlink:href="#m083bfa5c34" x="160.69682" y="307.584" style="stroke: #000000; stroke-width: 0.8"/>
      </g>
     </g>
     <g id="text_5">
      <!-- −1 -->
      <g transform="translate(153.325726 322.182437) scale(0.1 -0.1)">
       <defs>
        <path id="DejaVuSans-31" d="M 794 531 
L 1825 531 
L 1825 4091 
L 703 3866 
L 703 4441 
L 1819 4666 
L 2450 4666 
L 2450 531 
L 3481 531 
L 3481 0 
L 794 0 
L 794 531 
z
" transform="scale(0.015625)"/>
       </defs>
       <use xlink:href="#DejaVuSans-2212"/>
       <use xlink:href="#DejaVuSans-31" x="83.789062"/>
      </g>
     </g>
    </g>
    <g id="xtick_6">
     <g id="line2d_6">
      <g>
       <use xlink:href="#m083bfa5c34" x="182.412843" y="307.584" style="stroke: #000000; stroke-width: 0.8"/>
      </g>
     </g>
     <g id="text_6">
      <!-- 0 -->
      <g transform="translate(179.231593 322.182437) scale(0.1 -0.1)">
       <defs>
        <path id="DejaVuSans-30" d="M 2034 4250 
Q 1547 4250 1301 3770 
Q 1056 3291 1056 2328 
Q 1056 1369 1301 889 
Q 1547 409 2034 409 
Q 2525 409 2770 889 
Q 3016 1369 3016 2328 
Q 3016 3291 2770 3770 
Q 2525 4250 2034 4250 
z
M 2034 4750 
Q 2819 4750 3233 4129 
Q 3647 3509 3647 2328 
Q 3647 1150 3233 529 
Q 2819 -91 2034 -91 
Q 1250 -91 836 529 
Q 422 1150 422 2328 
Q 422 3509 836 4129 
Q 1250 4750 2034 4750 
z
" transform="scale(0.015625)"/>
       </defs>
       <use xlink:href="#DejaVuSans-30"/>
      </g>
     </g>
    </g>
    <g id="xtick_7">
     <g id="line2d_7">
      <g>
       <use xlink:href="#m083bfa5c34" x="204.128866" y="307.584" style="stroke: #000000; stroke-width: 0.8"/>
      </g>
     </g>
     <g id="text_7">
      <!-- 1 -->
      <g transform="translate(200.947616 322.182437) scale(0.1 -0.1)">
       <use xlink:href="#DejaVuSans-31"/>
      </g>
     </g>
    </g>
    <g id="xtick_8">
     <g id="line2d_8">
      <g>
       <use xlink:href="#m083bfa5c34" x="225.844889" y="307.584" style="stroke: #000000; stroke-width: 0.8"/>
      </g>
     </g>
     <g id="text_8">
      <!-- 2 -->
      <g transform="translate(222.663639 322.182437) scale(0.1 -0.1)">
       <use xlink:href="#DejaVuSans-32"/>
      </g>
     </g>
    </g>
    <g id="xtick_9">
     <g id="line2d_9">
      <g>
       <use xlink:href="#m083bfa5c34" x="247.560912" y="307.584" style="stroke: #000000; stroke-width: 0.8"/>
      </g>
     </g>
     <g id="text_9">
      <!-- 3 -->
      <g transform="translate(244.379662 322.182437) scale(0.1 -0.1)">
       <use xlink:href="#DejaVuSans-33"/>
      </g>
     </g>
    </g>
    <g id="xtick_10">
     <g id="line2d_10">
      <g>
       <use xlink:href="#m083bfa5c34" x="269.276935" y="307.584" style="stroke: #000000; stroke-width: 0.8"/>
      </g>
     </g>
     <g id="text_10">
      <!-- 4 -->
      <g transform="translate(266.095685 322.182437) scale(0.1 -0.1)">
       <use xlink:href="#DejaVuSans-34"/>
      </g>
     </g>
    </g>
    <g id="xtick_11">
     <g id="line2d_11">
      <g>
       <use xlink:href="#m083bfa5c34" x="290.992958" y="307.584" style="stroke: #000000; stroke-width: 0.8"/>
      </g>
     </g>
     <g id="text_11">
      <!-- 5 -->
      <g transform="translate(287.811708 322.182437) scale(0.1 -0.1)">
       <use xlink:href="#DejaVuSans-35"/>
      </g>
     </g>
    </g>
    <g id="xtick_12">
     <g id="line2d_12">
      <g>
       <use xlink:href="#m083bfa5c34" x="312.708981" y="307.584" style="stroke: #000000; stroke-width: 0.8"/>
      </g>
     </g>
     <g id="text_12">
      <!-- 6 -->
      <g transform="translate(309.527731 322.182437) scale(0.1 -0.1)">
       <defs>
        <path id="DejaVuSans-36" d="M 2113 2584 
Q 1688 2584 1439 2293 
Q 1191 2003 1191 1497 
Q 1191 994 1439 701 
Q 1688 409 2113 409 
Q 2538 409 2786 701 
Q 3034 994 3034 1497 
Q 3034 2003 2786 2293 
Q 2538 2584 2113 2584 
z
M 3366 4563 
L 3366 3988 
Q 3128 4100 2886 4159 
Q 2644 4219 2406 4219 
Q 1781 4219 1451 3797 
Q 1122 3375 1075 2522 
Q 1259 2794 1537 2939 
Q 1816 3084 2150 3084 
Q 2853 3084 3261 2657 
Q 3669 2231 3669 1497 
Q 3669 778 3244 343 
Q 2819 -91 2113 -91 
Q 1303 -91 875 529 
Q 447 1150 447 2328 
Q 447 3434 972 4092 
Q 1497 4750 2381 4750 
Q 2619 4750 2861 4703 
Q 3103 4656 3366 4563 
z
" transform="scale(0.015625)"/>
       </defs>
       <use xlink:href="#DejaVuSans-36"/>
      </g>
     </g>
    </g>
    <g id="xtick_13">
     <g id="line2d_13">
      <g>
       <use xlink:href="#m083bfa5c34" x="334.425005" y="307.584" style="stroke: #000000; stroke-width: 0.8"/>
      </g>
     </g>
     <g id="text_13">
      <!-- 7 -->
      <g transform="translate(331.243755 322.182437) scale(0.1 -0.1)">
       <defs>
        <path id="DejaVuSans-37" d="M 525 4666 
L 3525 4666 
L 3525 4397 
L 1831 0 
L 1172 0 
L 2766 4134 
L 525 4134 
L 525 4666 
z
" transform="scale(0.015625)"/>
       </defs>
       <use xlink:href="#DejaVuSans-37"/>
      </g>
     </g>
    </g>
    <g id="xtick_14">
     <g id="line2d_14">
      <g>
       <use xlink:href="#m083bfa5c34" x="356.141028" y="307.584" style="stroke: #000000; stroke-width: 0.8"/>
      </g>
     </g>
     <g id="text_14">
      <!-- 8 -->
      <g transform="translate(352.959778 322.182437) scale(0.1 -0.1)">
       <defs>
        <path id="DejaVuSans-38" d="M 2034 2216 
Q 1584 2216 1326 1975 
Q 1069 1734 1069 1313 
Q 1069 891 1326 650 
Q 1584 409 2034 409 
Q 2484 409 2743 651 
Q 3003 894 3003 1313 
Q 3003 1734 2745 1975 
Q 2488 2216 2034 2216 
z
M 1403 2484 
Q 997 2584 770 2862 
Q 544 3141 544 3541 
Q 544 4100 942 4425 
Q 1341 4750 2034 4750 
Q 2731 4750 3128 4425 
Q 3525 4100 3525 3541 
Q 3525 3141 3298 2862 
Q 3072 2584 2669 2484 
Q 3125 2378 3379 2068 
Q 3634 1759 3634 1313 
Q 3634 634 3220 271 
Q 2806 -91 2034 -91 
Q 1263 -91 848 271 
Q 434 634 434 1313 
Q 434 1759 690 2068 
Q 947 2378 1403 2484 
z
M 1172 3481 
Q 1172 3119 1398 2916 
Q 1625 2713 2034 2713 
Q 2441 2713 2670 2916 
Q 2900 3119 2900 3481 
Q 2900 3844 2670 4047 
Q 2441 4250 2034 4250 
Q 1625 4250 1398 4047 
Q 1172 3844 1172 3481 
z
" transform="scale(0.015625)"/>
       </defs>
       <use xlink:href="#DejaVuSans-38"/>
      </g>
     </g>
    </g>
    <g id="xtick_15">
     <g id="line2d_15">
      <g>
       <use xlink:href="#m083bfa5c34" x="377.857051" y="307.584" style="stroke: #000000; stroke-width: 0.8"/>
      </g>
     </g>
     <g id="text_15">
      <!-- 9 -->
      <g transform="translate(374.675801 322.182437) scale(0.1 -0.1)">
       <defs>
        <path id="DejaVuSans-39" d="M 703 97 
L 703 672 
Q 941 559 1184 500 
Q 1428 441 1663 441 
Q 2288 441 2617 861 
Q 2947 1281 2994 2138 
Q 2813 1869 2534 1725 
Q 2256 1581 1919 1581 
Q 1219 1581 811 2004 
Q 403 2428 403 3163 
Q 403 3881 828 4315 
Q 1253 4750 1959 4750 
Q 2769 4750 3195 4129 
Q 3622 3509 3622 2328 
Q 3622 1225 3098 567 
Q 2575 -91 1691 -91 
Q 1453 -91 1209 -44 
Q 966 3 703 97 
z
M 1959 2075 
Q 2384 2075 2632 2365 
Q 2881 2656 2881 3163 
Q 2881 3666 2632 3958 
Q 2384 4250 1959 4250 
Q 1534 4250 1286 3958 
Q 1038 3666 1038 3163 
Q 1038 2656 1286 2365 
Q 1534 2075 1959 2075 
z
" transform="scale(0.015625)"/>
       </defs>
       <use xlink:href="#DejaVuSans-39"/>
      </g>
     </g>
    </g>
    <g id="xtick_16">
     <g id="line2d_16">
      <g>
       <use xlink:href="#m083bfa5c34" x="399.573074" y="307.584" style="stroke: #000000; stroke-width: 0.8"/>
      </g>
     </g>
     <g id="text_16">
      <!-- 10 -->
      <g transform="translate(393.210574 322.182437) scale(0.1 -0.1)">
       <use xlink:href="#DejaVuSans-31"/>
       <use xlink:href="#DejaVuSans-30" x="63.623047"/>
      </g>
     </g>
    </g>
    <g id="text_17">
     <!-- Time (s) -->
     <g transform="translate(215.831094 335.860562) scale(0.1 -0.1)">
      <defs>
       <path id="DejaVuSans-54" d="M -19 4666 
L 3928 4666 
L 3928 4134 
L 2272 4134 
L 2272 0 
L 1638 0 
L 1638 4134 
L -19 4134 
L -19 4666 
z
" transform="scale(0.015625)"/>
       <path id="DejaVuSans-69" d="M 603 3500 
L 1178 3500 
L 1178 0 
L 603 0 
L 603 3500 
z
M 603 4863 
L 1178 4863 
L 1178 4134 
L 603 4134 
L 603 4863 
z
" transform="scale(0.015625)"/>
       <path id="DejaVuSans-6d" d="M 3328 2828 
Q 3544 3216 3844 3400 
Q 4144 3584 4550 3584 
Q 5097 3584 5394 3201 
Q 5691 2819 5691 2113 
L 5691 0 
L 5113 0 
L 5113 2094 
Q 5113 2597 4934 2840 
Q 4756 3084 4391 3084 
Q 3944 3084 3684 2787 
Q 3425 2491 3425 1978 
L 3425 0 
L 2847 0 
L 2847 2094 
Q 2847 2600 2669 2842 
Q 2491 3084 2119 3084 
Q 1678 3084 1418 2786 
Q 1159 2488 1159 1978 
L 1159 0 
L 581 0 
L 581 3500 
L 1159 3500 
L 1159 2956 
Q 1356 3278 1631 3431 
Q 1906 3584 2284 3584 
Q 2666 3584 2933 3390 
Q 3200 3197 3328 2828 
z
" transform="scale(0.015625)"/>
       <path id="DejaVuSans-65" d="M 3597 1894 
L 3597 1613 
L 953 1613 
Q 991 1019 1311 708 
Q 1631 397 2203 397 
Q 2534 397 2845 478 
Q 3156 559 3463 722 
L 3463 178 
Q 3153 47 2828 -22 
Q 2503 -91 2169 -91 
Q 1331 -91 842 396 
Q 353 884 353 1716 
Q 353 2575 817 3079 
Q 1281 3584 2069 3584 
Q 2775 3584 3186 3129 
Q 3597 2675 3597 1894 
z
M 3022 2063 
Q 3016 2534 2758 2815 
Q 2500 3097 2075 3097 
Q 1594 3097 1305 2825 
Q 1016 2553 972 2059 
L 3022 2063 
z
" transform="scale(0.015625)"/>
       <path id="DejaVuSans-20" transform="scale(0.015625)"/>
       <path id="DejaVuSans-28" d="M 1984 4856 
Q 1566 4138 1362 3434 
Q 1159 2731 1159 2009 
Q 1159 1288 1364 580 
Q 1569 -128 1984 -844 
L 1484 -844 
Q 1016 -109 783 600 
Q 550 1309 550 2009 
Q 550 2706 781 3412 
Q 1013 4119 1484 4856 
L 1984 4856 
z
" transform="scale(0.015625)"/>
       <path id="DejaVuSans-73" d="M 2834 3397 
L 2834 2853 
Q 2591 2978 2328 3040 
Q 2066 3103 1784 3103 
Q 1356 3103 1142 2972 
Q 928 2841 928 2578 
Q 928 2378 1081 2264 
Q 1234 2150 1697 2047 
L 1894 2003 
Q 2506 1872 2764 1633 
Q 3022 1394 3022 966 
Q 3022 478 2636 193 
Q 2250 -91 1575 -91 
Q 1294 -91 989 -36 
Q 684 19 347 128 
L 347 722 
Q 666 556 975 473 
Q 1284 391 1588 391 
Q 1994 391 2212 530 
Q 2431 669 2431 922 
Q 2431 1156 2273 1281 
Q 2116 1406 1581 1522 
L 1381 1569 
Q 847 1681 609 1914 
Q 372 2147 372 2553 
Q 372 3047 722 3315 
Q 1072 3584 1716 3584 
Q 2034 3584 2315 3537 
Q 2597 3491 2834 3397 
z
" transform="scale(0.015625)"/>
       <path id="DejaVuSans-29" d="M 513 4856 
L 1013 4856 
Q 1481 4119 1714 3412 
Q 1947 2706 1947 2009 
Q 1947 1309 1714 600 
Q 1481 -109 1013 -844 
L 513 -844 
Q 928 -128 1133 580 
Q 1338 1288 1338 2009 
Q 1338 2731 1133 3434 
Q 928 4138 513 4856 
z
" transform="scale(0.015625)"/>
      </defs>
      <use xlink:href="#DejaVuSans-54"/>
      <use xlink:href="#DejaVuSans-69" x="57.958984"/>
      <use xlink:href="#DejaVuSans-6d" x="85.742188"/>
      <use xlink:href="#DejaVuSans-65" x="183.154297"/>
      <use xlink:href="#DejaVuSans-20" x="244.677734"/>
      <use xlink:href="#DejaVuSans-28" x="276.464844"/>
      <use xlink:href="#DejaVuSans-73" x="315.478516"/>
      <use xlink:href="#DejaVuSans-29" x="367.578125"/>
     </g>
    </g>
   </g>
   <g id="matplotlib.axis_2">
    <g id="ytick_1">
     <g id="line2d_17">
      <defs>
       <path id="m156987acea" d="M 0 0 
L -3.5 0 
" style="stroke: #000000; stroke-width: 0.8"/>
      </defs>
      <g>
       <use xlink:href="#m156987acea" x="57.6" y="288.784813" style="stroke: #000000; stroke-width: 0.8"/>
      </g>
     </g>
     <g id="text_18">
      <!-- −1.0 -->
      <g transform="translate(26.317187 292.584032) scale(0.1 -0.1)">
       <defs>
        <path id="DejaVuSans-2e" d="M 684 794 
L 1344 794 
L 1344 0 
L 684 0 
L 684 794 
z
" transform="scale(0.015625)"/>
       </defs>
       <use xlink:href="#DejaVuSans-2212"/>
       <use xlink:href="#DejaVuSans-31" x="83.789062"/>
       <use xlink:href="#DejaVuSans-2e" x="147.412109"/>
       <use xlink:href="#DejaVuSans-30" x="179.199219"/>
      </g>
     </g>
    </g>
    <g id="ytick_2">
     <g id="line2d_18">
      <g>
       <use xlink:href="#m156987acea" x="57.6" y="247.905068" style="stroke: #000000; stroke-width: 0.8"/>
      </g>
     </g>
     <g id="text_19">
      <!-- −0.5 -->
      <g transform="translate(26.317187 251.704287) scale(0.1 -0.1)">
       <use xlink:href="#DejaVuSans-2212"/>
       <use xlink:href="#DejaVuSans-30" x="83.789062"/>
       <use xlink:href="#DejaVuSans-2e" x="147.412109"/>
       <use xlink:href="#DejaVuSans-35" x="179.199219"/>
      </g>
     </g>
    </g>
    <g id="ytick_3">
     <g id="line2d_19">
      <g>
       <use xlink:href="#m156987acea" x="57.6" y="207.025324" style="stroke: #000000; stroke-width: 0.8"/>
      </g>
     </g>
     <g id="text_20">
      <!-- 0.0 -->
      <g transform="translate(34.696875 210.824542) scale(0.1 -0.1)">
       <use xlink:href="#DejaVuSans-30"/>
       <use xlink:href="#DejaVuSans-2e" x="63.623047"/>
       <use xlink:href="#DejaVuSans-30" x="95.410156"/>
      </g>
     </g>
    </g>
    <g id="ytick_4">
     <g id="line2d_20">
      <g>
       <use xlink:href="#m156987acea" x="57.6" y="166.145579" style="stroke: #000000; stroke-width: 0.8"/>
      </g>
     </g>
     <g id="text_21">
      <!-- 0.5 -->
      <g transform="translate(34.696875 169.944797) scale(0.1 -0.1)">
       <use xlink:href="#DejaVuSans-30"/>
       <use xlink:href="#DejaVuSans-2e" x="63.623047"/>
       <use xlink:href="#DejaVuSans-35" x="95.410156"/>
      </g>
     </g>
    </g>
    <g id="ytick_5">
     <g id="line2d_21">
      <g>
       <use xlink:href="#m156987acea" x="57.6" y="125.265834" style="stroke: #000000; stroke-width: 0.8"/>
      </g>
     </g>
     <g id="text_22">
      <!-- 1.0 -->
      <g transform="translate(34.696875 129.065053) scale(0.1 -0.1)">
       <use xlink:href="#DejaVuSans-31"/>
       <use xlink:href="#DejaVuSans-2e" x="63.623047"/>
       <use xlink:href="#DejaVuSans-30" x="95.410156"/>
      </g>
     </g>
    </g>
    <g id="ytick_6">
     <g id="line2d_22">
      <g>
       <use xlink:href="#m156987acea" x="57.6" y="84.386089" style="stroke: #000000; stroke-width: 0.8"/>
      </g>
     </g>
     <g id="text_23">
      <!-- 1.5 -->
      <g transform="translate(34.696875 88.185308) scale(0.1 -0.1)">
       <use xlink:href="#DejaVuSans-31"/>
       <use xlink:href="#DejaVuSans-2e" x="63.623047"/>
       <use xlink:href="#DejaVuSans-35" x="95.410156"/>
      </g>
     </g>
    </g>
    <g id="ytick_7">
     <g id="line2d_23">
      <g>
       <use xlink:href="#m156987acea" x="57.6" y="43.506344" style="stroke: #000000; stroke-width: 0.8"/>
      </g>
     </g>
     <g id="text_24">
      <!-- 2.0 -->
      <g transform="translate(34.696875 47.305563) scale(0.1 -0.1)">
       <use xlink:href="#DejaVuSans-32"/>
       <use xlink:href="#DejaVuSans-2e" x="63.623047"/>
       <use xlink:href="#DejaVuSans-30" x="95.410156"/>
      </g>
     </g>
    </g>
    <g id="text_25">
     <!-- Z-Score -->
     <g transform="translate(20.2375 193.67175) rotate(-90) scale(0.1 -0.1)">
      <defs>
       <path id="DejaVuSans-5a" d="M 359 4666 
L 4025 4666 
L 4025 4184 
L 1075 531 
L 4097 531 
L 4097 0 
L 288 0 
L 288 481 
L 3238 4134 
L 359 4134 
L 359 4666 
z
" transform="scale(0.015625)"/>
       <path id="DejaVuSans-2d" d="M 313 2009 
L 1997 2009 
L 1997 1497 
L 313 1497 
L 313 2009 
z
" transform="scale(0.015625)"/>
       <path id="DejaVuSans-53" d="M 3425 4513 
L 3425 3897 
Q 3066 4069 2747 4153 
Q 2428 4238 2131 4238 
Q 1616 4238 1336 4038 
Q 1056 3838 1056 3469 
Q 1056 3159 1242 3001 
Q 1428 2844 1947 2747 
L 2328 2669 
Q 3034 2534 3370 2195 
Q 3706 1856 3706 1288 
Q 3706 609 3251 259 
Q 2797 -91 1919 -91 
Q 1588 -91 1214 -16 
Q 841 59 441 206 
L 441 856 
Q 825 641 1194 531 
Q 1563 422 1919 422 
Q 2459 422 2753 634 
Q 3047 847 3047 1241 
Q 3047 1584 2836 1778 
Q 2625 1972 2144 2069 
L 1759 2144 
Q 1053 2284 737 2584 
Q 422 2884 422 3419 
Q 422 4038 858 4394 
Q 1294 4750 2059 4750 
Q 2388 4750 2728 4690 
Q 3069 4631 3425 4513 
z
" transform="scale(0.015625)"/>
       <path id="DejaVuSans-63" d="M 3122 3366 
L 3122 2828 
Q 2878 2963 2633 3030 
Q 2388 3097 2138 3097 
Q 1578 3097 1268 2742 
Q 959 2388 959 1747 
Q 959 1106 1268 751 
Q 1578 397 2138 397 
Q 2388 397 2633 464 
Q 2878 531 3122 666 
L 3122 134 
Q 2881 22 2623 -34 
Q 2366 -91 2075 -91 
Q 1284 -91 818 406 
Q 353 903 353 1747 
Q 353 2603 823 3093 
Q 1294 3584 2113 3584 
Q 2378 3584 2631 3529 
Q 2884 3475 3122 3366 
z
" transform="scale(0.015625)"/>
       <path id="DejaVuSans-6f" d="M 1959 3097 
Q 1497 3097 1228 2736 
Q 959 2375 959 1747 
Q 959 1119 1226 758 
Q 1494 397 1959 397 
Q 2419 397 2687 759 
Q 2956 1122 2956 1747 
Q 2956 2369 2687 2733 
Q 2419 3097 1959 3097 
z
M 1959 3584 
Q 2709 3584 3137 3096 
Q 3566 2609 3566 1747 
Q 3566 888 3137 398 
Q 2709 -91 1959 -91 
Q 1206 -91 779 398 
Q 353 888 353 1747 
Q 353 2609 779 3096 
Q 1206 3584 1959 3584 
z
" transform="scale(0.015625)"/>
       <path id="DejaVuSans-72" d="M 2631 2963 
Q 2534 3019 2420 3045 
Q 2306 3072 2169 3072 
Q 1681 3072 1420 2755 
Q 1159 2438 1159 1844 
L 1159 0 
L 581 0 
L 581 3500 
L 1159 3500 
L 1159 2956 
Q 1341 3275 1631 3429 
Q 1922 3584 2338 3584 
Q 2397 3584 2469 3576 
Q 2541 3569 2628 3553 
L 2631 2963 
z
" transform="scale(0.015625)"/>
      </defs>
      <use xlink:href="#DejaVuSans-5a"/>
      <use xlink:href="#DejaVuSans-2d" x="66.755859"/>
      <use xlink:href="#DejaVuSans-53" x="102.839844"/>
      <use xlink:href="#DejaVuSans-63" x="166.316406"/>
      <use xlink:href="#DejaVuSans-6f" x="221.296875"/>
      <use xlink:href="#DejaVuSans-72" x="282.478516"/>
      <use xlink:href="#DejaVuSans-65" x="321.341797"/>
     </g>
    </g>
   </g>
   <g id="line2d_24">
    <path d="M 73.832727 213.958852 
L 74.918528 212.187237 
L 76.00433 211.079111 
L 78.175932 209.688291 
L 79.261733 208.069151 
L 80.347534 206.9239 
L 81.433335 206.196297 
L 82.519137 205.18403 
L 83.604938 203.707174 
L 84.690739 203.202225 
L 85.77654 201.970157 
L 87.948142 201.090531 
L 89.033943 200.312578 
L 91.205546 198.131476 
L 92.291347 197.492989 
L 93.377148 197.352939 
L 94.462949 197.328119 
L 95.54875 196.793289 
L 96.634552 197.201181 
L 97.720353 197.462287 
L 99.891955 196.954209 
L 100.977756 197.05351 
L 102.063557 197.515513 
L 104.23516 197.572019 
L 105.320961 197.762502 
L 108.578364 199.637859 
L 110.749967 201.942394 
L 111.835768 202.231772 
L 112.921569 203.967869 
L 114.00737 204.620096 
L 116.178972 206.456549 
L 118.350575 207.935332 
L 119.436376 208.899513 
L 120.522177 209.404524 
L 121.607978 210.554097 
L 123.77958 211.90948 
L 124.865382 212.762187 
L 125.951183 214.17469 
L 127.036984 215.304794 
L 128.122785 216.681533 
L 129.208586 218.290901 
L 131.380189 220.990793 
L 132.46599 221.255648 
L 133.551791 221.666505 
L 134.637592 222.421822 
L 135.723393 222.739267 
L 136.809194 222.780266 
L 137.894995 223.123143 
L 140.066598 224.747902 
L 141.152399 224.847945 
L 142.2382 225.155436 
L 143.324001 225.894955 
L 144.409802 225.920209 
L 146.581405 224.924545 
L 147.667206 224.67403 
L 148.753007 223.787365 
L 152.01041 219.654771 
L 153.096212 217.941136 
L 154.182013 216.714808 
L 156.353615 215.342652 
L 159.611019 212.442216 
L 160.69682 210.555327 
L 161.782621 209.684703 
L 162.868422 208.632988 
L 163.954223 207.177968 
L 166.125825 205.027828 
L 167.211627 203.482033 
L 168.297428 201.640762 
L 169.383229 200.045974 
L 170.46903 198.192003 
L 171.554831 195.863437 
L 173.726434 189.646621 
L 174.812235 187.069586 
L 175.898036 184.830768 
L 179.155439 176.471094 
L 180.24124 174.005583 
L 181.327042 171.922779 
L 182.412843 166.513629 
L 184.584445 160.968101 
L 185.670246 158.964689 
L 191.099252 146.595655 
L 193.270854 140.602608 
L 194.356656 137.946025 
L 195.442457 135.790016 
L 197.614059 130.429857 
L 198.69986 127.948898 
L 199.785661 126.24425 
L 200.871462 124.248728 
L 203.043065 120.562954 
L 205.214667 118.000366 
L 206.300468 116.563346 
L 207.386269 115.435912 
L 208.472071 114.507173 
L 209.557872 113.203511 
L 210.643673 112.375381 
L 211.729474 111.260464 
L 212.815275 109.980693 
L 213.901076 108.421218 
L 214.986877 107.628037 
L 216.072679 107.426014 
L 217.15848 106.910195 
L 218.244281 106.798892 
L 219.330082 106.38829 
L 220.415883 106.131456 
L 221.501684 105.447236 
L 222.587486 105.610868 
L 223.673287 106.302679 
L 224.759088 106.422264 
L 225.844889 107.395445 
L 226.93069 107.563465 
L 228.016491 108.343101 
L 229.102292 108.617485 
L 231.273895 111.700455 
L 232.359696 112.739185 
L 233.445497 113.976146 
L 234.531298 115.787168 
L 235.617099 118.946874 
L 236.702901 121.558767 
L 238.874503 126.093825 
L 241.046105 131.149403 
L 243.217708 136.897985 
L 245.38931 142.177965 
L 246.475111 145.136213 
L 247.560912 148.501247 
L 249.732514 153.735819 
L 250.818316 156.117951 
L 252.989918 162.409037 
L 255.16152 167.051233 
L 256.247321 169.955626 
L 257.333123 172.251501 
L 258.418924 174.834493 
L 259.504725 177.794313 
L 262.762128 188.177663 
L 263.847929 191.389969 
L 264.933731 193.60481 
L 266.019532 196.663171 
L 267.105333 198.887559 
L 268.191134 201.435084 
L 272.534339 209.606654 
L 273.62014 211.774122 
L 274.705941 213.198135 
L 275.791742 215.325673 
L 276.877543 218.11477 
L 279.049146 222.191697 
L 281.220748 225.603622 
L 282.306549 226.714117 
L 283.39235 228.545805 
L 284.478151 229.603439 
L 285.563953 230.931092 
L 290.992958 235.031603 
L 292.07876 235.015127 
L 293.164561 235.339721 
L 294.250362 234.989033 
L 295.336163 235.277344 
L 296.421964 235.711281 
L 297.507765 235.922859 
L 298.593566 235.702283 
L 300.765169 234.59191 
L 301.85097 234.400606 
L 305.108373 232.879167 
L 306.194175 232.021042 
L 307.279976 231.011504 
L 308.365777 230.619934 
L 309.451578 229.983196 
L 313.794783 224.782494 
L 314.880584 223.872013 
L 317.052186 221.189888 
L 318.137987 220.20438 
L 320.30959 216.889663 
L 321.395391 215.22902 
L 322.481192 214.459814 
L 323.566993 212.840506 
L 324.652794 210.830464 
L 327.910198 206.581413 
L 328.995999 206.097912 
L 331.167601 203.574401 
L 332.253402 202.033132 
L 333.339203 200.759649 
L 336.596607 198.365522 
L 337.682408 198.319582 
L 338.768209 198.031597 
L 339.85401 197.606611 
L 343.111414 197.381046 
L 344.197215 197.710615 
L 345.283016 197.443497 
L 346.368817 197.403706 
L 347.454618 197.006975 
L 348.54042 196.877999 
L 349.626221 196.278038 
L 351.797823 194.481077 
L 352.883624 193.507471 
L 353.969425 192.742403 
L 355.055227 192.231154 
L 356.141028 192.121074 
L 357.226829 191.881094 
L 358.31263 192.452642 
L 359.398431 191.149589 
L 360.484232 190.805989 
L 361.570033 190.872353 
L 362.655835 190.453362 
L 363.741636 189.794769 
L 364.827437 189.397291 
L 365.913238 189.285325 
L 366.999039 189.438054 
L 369.170642 188.824027 
L 370.256443 188.824674 
L 371.342244 188.664659 
L 372.428045 188.136702 
L 373.513846 188.331566 
L 374.599647 188.092069 
L 375.685448 188.662407 
L 376.77125 188.915415 
L 378.942852 189.832111 
L 380.028653 190.424753 
L 382.200255 192.16801 
L 383.286057 193.672395 
L 387.629261 199.052979 
L 388.715062 200.719079 
L 391.972466 202.954431 
L 395.229869 204.947411 
L 396.31567 205.442419 
L 397.401472 205.268513 
L 398.487273 205.875715 
L 398.487273 205.875715 
" clip-path="url(#p53e827d33f)" style="fill: none; stroke: #ff00ff; stroke-width: 1.5; stroke-linecap: square"/>
   </g>
   <g id="line2d_25">
    <path d="M 182.412843 307.584 
L 182.412843 41.472 
" clip-path="url(#p53e827d33f)" style="fill: none; stroke: #000000; stroke-width: 1.5; stroke-linecap: square"/>
   </g>
   <g id="patch_3">
    <path d="M 57.6 307.584 
L 57.6 41.472 
" style="fill: none; stroke: #000000; stroke-width: 0.8; stroke-linejoin: miter; stroke-linecap: square"/>
   </g>
   <g id="patch_4">
    <path d="M 414.72 307.584 
L 414.72 41.472 
" style="fill: none; stroke: #000000; stroke-width: 0.8; stroke-linejoin: miter; stroke-linecap: square"/>
   </g>
   <g id="patch_5">
    <path d="M 57.6 307.584 
L 414.72 307.584 
" style="fill: none; stroke: #000000; stroke-width: 0.8; stroke-linejoin: miter; stroke-linecap: square"/>
   </g>
   <g id="patch_6">
    <path d="M 57.6 41.472 
L 414.72 41.472 
" style="fill: none; stroke: #000000; stroke-width: 0.8; stroke-linejoin: miter; stroke-linecap: square"/>
   </g>
   <g id="text_26">
    <!-- Event 9_p=0.582 -->
    <g transform="translate(184.232812 35.472) scale(0.12 -0.12)">
     <defs>
      <path id="DejaVuSans-45" d="M 628 4666 
L 3578 4666 
L 3578 4134 
L 1259 4134 
L 1259 2753 
L 3481 2753 
L 3481 2222 
L 1259 2222 
L 1259 531 
L 3634 531 
L 3634 0 
L 628 0 
L 628 4666 
z
" transform="scale(0.015625)"/>
      <path id="DejaVuSans-76" d="M 191 3500 
L 800 3500 
L 1894 563 
L 2988 3500 
L 3597 3500 
L 2284 0 
L 1503 0 
L 191 3500 
z
" transform="scale(0.015625)"/>
      <path id="DejaVuSans-6e" d="M 3513 2113 
L 3513 0 
L 2938 0 
L 2938 2094 
Q 2938 2591 2744 2837 
Q 2550 3084 2163 3084 
Q 1697 3084 1428 2787 
Q 1159 2491 1159 1978 
L 1159 0 
L 581 0 
L 581 3500 
L 1159 3500 
L 1159 2956 
Q 1366 3272 1645 3428 
Q 1925 3584 2291 3584 
Q 2894 3584 3203 3211 
Q 3513 2838 3513 2113 
z
" transform="scale(0.015625)"/>
      <path id="DejaVuSans-74" d="M 1172 4494 
L 1172 3500 
L 2356 3500 
L 2356 3053 
L 1172 3053 
L 1172 1153 
Q 1172 725 1289 603 
Q 1406 481 1766 481 
L 2356 481 
L 2356 0 
L 1766 0 
Q 1100 0 847 248 
Q 594 497 594 1153 
L 594 3053 
L 172 3053 
L 172 3500 
L 594 3500 
L 594 4494 
L 1172 4494 
z
" transform="scale(0.015625)"/>
      <path id="DejaVuSans-5f" d="M 3263 -1063 
L 3263 -1509 
L -63 -1509 
L -63 -1063 
L 3263 -1063 
z
" transform="scale(0.015625)"/>
      <path id="DejaVuSans-70" d="M 1159 525 
L 1159 -1331 
L 581 -1331 
L 581 3500 
L 1159 3500 
L 1159 2969 
Q 1341 3281 1617 3432 
Q 1894 3584 2278 3584 
Q 2916 3584 3314 3078 
Q 3713 2572 3713 1747 
Q 3713 922 3314 415 
Q 2916 -91 2278 -91 
Q 1894 -91 1617 61 
Q 1341 213 1159 525 
z
M 3116 1747 
Q 3116 2381 2855 2742 
Q 2594 3103 2138 3103 
Q 1681 3103 1420 2742 
Q 1159 2381 1159 1747 
Q 1159 1113 1420 752 
Q 1681 391 2138 391 
Q 2594 391 2855 752 
Q 3116 1113 3116 1747 
z
" transform="scale(0.015625)"/>
      <path id="DejaVuSans-3d" d="M 678 2906 
L 4684 2906 
L 4684 2381 
L 678 2381 
L 678 2906 
z
M 678 1631 
L 4684 1631 
L 4684 1100 
L 678 1100 
L 678 1631 
z
" transform="scale(0.015625)"/>
     </defs>
     <use xlink:href="#DejaVuSans-45"/>
     <use xlink:href="#DejaVuSans-76" x="63.183594"/>
     <use xlink:href="#DejaVuSans-65" x="122.363281"/>
     <use xlink:href="#DejaVuSans-6e" x="183.886719"/>
     <use xlink:href="#DejaVuSans-74" x="247.265625"/>
     <use xlink:href="#DejaVuSans-20" x="286.474609"/>
     <use xlink:href="#DejaVuSans-39" x="318.261719"/>
     <use xlink:href="#DejaVuSans-5f" x="381.884766"/>
     <use xlink:href="#DejaVuSans-70" x="431.884766"/>
     <use xlink:href="#DejaVuSans-3d" x="495.361328"/>
     <use xlink:href="#DejaVuSans-30" x="579.150391"/>
     <use xlink:href="#DejaVuSans-2e" x="642.773438"/>
     <use xlink:href="#DejaVuSans-35" x="674.560547"/>
     <use xlink:href="#DejaVuSans-38" x="738.183594"/>
     <use xlink:href="#DejaVuSans-32" x="801.806641"/>
    </g>
   </g>
  </g>
 </g>
 <defs>
  <clipPath id="p53e827d33f">
   <rect x="57.6" y="41.472" width="357.12" height="266.112"/>
  </clipPath>
 </defs>
</svg>
