<?xml version="1.0" encoding="utf-8" standalone="no"?>
<!DOCTYPE svg PUBLIC "-//W3C//DTD SVG 1.1//EN"
  "http://www.w3.org/Graphics/SVG/1.1/DTD/svg11.dtd">
<svg xmlns:xlink="http://www.w3.org/1999/xlink" width="460.8pt" height="345.6pt" viewBox="0 0 460.8 345.6" xmlns="http://www.w3.org/2000/svg" version="1.1">
 <metadata>
  <rdf:RDF xmlns:dc="http://purl.org/dc/elements/1.1/" xmlns:cc="http://creativecommons.org/ns#" xmlns:rdf="http://www.w3.org/1999/02/22-rdf-syntax-ns#">
   <cc:Work>
    <dc:type rdf:resource="http://purl.org/dc/dcmitype/StillImage"/>
    <dc:date>2024-11-12T22:27:49.946767</dc:date>
    <dc:format>image/svg+xml</dc:format>
    <dc:creator>
     <cc:Agent>
      <dc:title>Matplotlib v3.8.2, https://matplotlib.org/</dc:title>
     </cc:Agent>
    </dc:creator>
   </cc:Work>
  </rdf:RDF>
 </metadata>
 <defs>
  <style type="text/css">*{stroke-linejoin: round; stroke-linecap: butt}</style>
 </defs>
 <g id="figure_1">
  <g id="patch_1">
   <path d="M 0 345.6 
L 460.8 345.6 
L 460.8 0 
L 0 0 
z
" style="fill: #ffffff"/>
  </g>
  <g id="axes_1">
   <g id="patch_2">
    <path d="M 57.6 307.584 
L 414.72 307.584 
L 414.72 41.472 
L 57.6 41.472 
z
" style="fill: #ffffff"/>
   </g>
   <g id="PolyCollection_1">
    <defs>
     <path id="m2541311876" d="M 73.832727 -150.184083 
L 73.832727 -89.873532 
L 74.918528 -87.998297 
L 76.00433 -84.13816 
L 77.090131 -80.97827 
L 78.175932 -79.103794 
L 79.261733 -75.943211 
L 80.347534 -73.765003 
L 81.433335 -72.517479 
L 82.519137 -71.167366 
L 83.604938 -70.435916 
L 84.690739 -70.954561 
L 85.77654 -70.763931 
L 86.862341 -70.424922 
L 87.948142 -70.185438 
L 89.033943 -71.125261 
L 90.119745 -70.864786 
L 91.205546 -70.540019 
L 92.291347 -68.722334 
L 93.377148 -69.597331 
L 94.462949 -69.67854 
L 95.54875 -70.245768 
L 96.634552 -68.474546 
L 97.720353 -68.567612 
L 98.806154 -67.435269 
L 99.891955 -66.671709 
L 100.977756 -65.001201 
L 102.063557 -64.721453 
L 103.149358 -63.842881 
L 104.23516 -63.270301 
L 105.320961 -61.706098 
L 106.406762 -61.529259 
L 107.492563 -61.659742 
L 108.578364 -60.927806 
L 109.664165 -59.316281 
L 110.749967 -58.042338 
L 111.835768 -56.353342 
L 112.921569 -54.544823 
L 114.00737 -54.312197 
L 115.093171 -53.105471 
L 116.178972 -53.789559 
L 117.264773 -51.17771 
L 118.350575 -50.112 
L 119.436376 -51.001388 
L 120.522177 -52.885039 
L 121.607978 -53.147675 
L 122.693779 -53.702421 
L 123.77958 -53.514946 
L 124.865382 -54.354647 
L 125.951183 -55.598363 
L 127.036984 -57.170876 
L 128.122785 -59.126945 
L 129.208586 -58.579881 
L 130.294387 -58.811509 
L 131.380189 -58.942247 
L 132.46599 -58.081574 
L 133.551791 -58.752784 
L 134.637592 -57.557752 
L 135.723393 -56.812402 
L 136.809194 -54.922413 
L 137.894995 -55.001403 
L 138.980797 -55.017516 
L 140.066598 -56.126498 
L 141.152399 -56.434867 
L 142.2382 -57.394563 
L 143.324001 -58.370598 
L 144.409802 -58.605943 
L 145.495604 -58.144741 
L 146.581405 -56.145414 
L 147.667206 -56.929685 
L 148.753007 -55.561237 
L 149.838808 -55.515273 
L 150.924609 -55.168825 
L 152.01041 -56.202665 
L 153.096212 -56.434762 
L 154.182013 -58.182741 
L 155.267814 -59.281247 
L 156.353615 -61.728486 
L 157.439416 -63.148879 
L 158.525217 -64.533335 
L 159.611019 -65.112935 
L 160.69682 -66.95932 
L 161.782621 -66.860414 
L 162.868422 -68.577202 
L 163.954223 -69.707213 
L 165.040024 -71.348469 
L 166.125825 -72.922149 
L 167.211627 -76.003097 
L 168.297428 -76.793619 
L 169.383229 -79.224002 
L 170.46903 -82.538588 
L 171.554831 -83.840546 
L 172.640632 -86.085352 
L 173.726434 -88.705443 
L 174.812235 -90.049416 
L 175.898036 -92.120973 
L 176.983837 -93.495211 
L 178.069638 -94.794797 
L 179.155439 -95.312125 
L 180.24124 -96.031686 
L 181.327042 -97.134922 
L 182.412843 -99.977817 
L 183.498644 -100.865896 
L 184.584445 -102.368589 
L 185.670246 -102.08571 
L 186.756047 -103.14267 
L 187.841849 -104.122938 
L 188.92765 -103.627611 
L 190.013451 -105.494965 
L 191.099252 -106.501872 
L 192.185053 -108.639616 
L 193.270854 -110.592082 
L 194.356656 -112.791428 
L 195.442457 -114.384396 
L 196.528258 -117.184647 
L 197.614059 -119.230022 
L 198.69986 -120.8399 
L 199.785661 -123.19777 
L 200.871462 -124.863833 
L 201.957264 -126.544318 
L 203.043065 -127.861084 
L 204.128866 -129.759541 
L 205.214667 -129.589934 
L 206.300468 -130.098315 
L 207.386269 -130.241896 
L 208.472071 -130.382692 
L 209.557872 -131.49189 
L 210.643673 -131.246008 
L 211.729474 -132.946375 
L 212.815275 -132.227034 
L 213.901076 -132.702858 
L 214.986877 -132.260426 
L 216.072679 -132.513611 
L 217.15848 -131.786307 
L 218.244281 -130.387904 
L 219.330082 -130.233001 
L 220.415883 -129.956064 
L 221.501684 -130.329214 
L 222.587486 -130.667337 
L 223.673287 -130.870128 
L 224.759088 -131.151976 
L 225.844889 -132.160928 
L 226.93069 -131.21157 
L 228.016491 -131.555765 
L 229.102292 -131.612637 
L 230.188094 -131.341069 
L 231.273895 -132.033829 
L 232.359696 -130.558084 
L 233.445497 -128.272892 
L 234.531298 -127.196641 
L 235.617099 -126.785708 
L 236.702901 -125.107191 
L 237.788702 -125.107367 
L 238.874503 -125.074819 
L 239.960304 -123.964715 
L 241.046105 -121.508725 
L 242.131906 -119.814151 
L 243.217708 -118.991551 
L 244.303509 -117.891237 
L 245.38931 -117.424502 
L 246.475111 -115.037864 
L 247.560912 -113.435812 
L 248.646713 -113.32195 
L 249.732514 -113.842023 
L 250.818316 -114.910585 
L 251.904117 -115.63718 
L 252.989918 -116.326415 
L 254.075719 -114.532595 
L 255.16152 -112.769538 
L 256.247321 -110.958951 
L 257.333123 -108.611612 
L 258.418924 -107.946816 
L 259.504725 -107.412026 
L 260.590526 -104.913583 
L 261.676327 -103.50239 
L 262.762128 -103.885434 
L 263.847929 -102.538243 
L 264.933731 -101.078204 
L 266.019532 -98.836694 
L 267.105333 -95.799534 
L 268.191134 -94.543354 
L 269.276935 -96.926767 
L 270.362736 -96.589129 
L 271.448538 -94.744885 
L 272.534339 -93.586236 
L 273.62014 -92.320729 
L 274.705941 -91.618274 
L 275.791742 -88.016532 
L 276.877543 -88.095262 
L 277.963344 -87.58082 
L 279.049146 -86.064722 
L 280.134947 -85.231241 
L 281.220748 -84.752158 
L 282.306549 -85.541848 
L 283.39235 -84.4207 
L 284.478151 -81.874707 
L 285.563953 -81.644679 
L 286.649754 -79.485372 
L 287.735555 -78.086927 
L 288.821356 -77.065922 
L 289.907157 -76.826515 
L 290.992958 -78.387142 
L 292.07876 -79.774184 
L 293.164561 -81.397526 
L 294.250362 -80.214103 
L 295.336163 -80.68985 
L 296.421964 -83.255081 
L 297.507765 -86.331952 
L 298.593566 -89.710826 
L 299.679368 -89.858505 
L 300.765169 -90.759268 
L 301.85097 -89.712647 
L 302.936771 -88.989736 
L 304.022572 -90.222991 
L 305.108373 -90.253501 
L 306.194175 -91.042434 
L 307.279976 -90.356831 
L 308.365777 -89.363505 
L 309.451578 -88.708824 
L 310.537379 -87.903581 
L 311.62318 -87.35501 
L 312.708981 -85.773727 
L 313.794783 -86.396416 
L 314.880584 -82.965553 
L 315.966385 -79.849414 
L 317.052186 -79.084742 
L 318.137987 -76.755056 
L 319.223788 -75.520514 
L 320.30959 -75.050384 
L 321.395391 -75.106964 
L 322.481192 -74.105304 
L 323.566993 -74.213576 
L 324.652794 -74.184054 
L 325.738595 -73.380486 
L 326.824396 -73.290656 
L 327.910198 -73.298747 
L 328.995999 -72.926998 
L 330.0818 -72.96708 
L 331.167601 -73.977789 
L 332.253402 -73.328174 
L 333.339203 -71.044189 
L 334.425005 -70.202714 
L 335.510806 -69.713294 
L 336.596607 -69.867677 
L 337.682408 -71.678854 
L 338.768209 -70.229595 
L 339.85401 -70.628801 
L 340.939811 -70.289031 
L 342.025613 -71.180262 
L 343.111414 -72.403025 
L 344.197215 -71.86779 
L 345.283016 -73.61033 
L 346.368817 -72.289108 
L 347.454618 -72.348149 
L 348.54042 -73.563726 
L 349.626221 -74.259515 
L 350.712022 -76.915244 
L 351.797823 -80.380605 
L 352.883624 -82.377616 
L 353.969425 -84.026236 
L 355.055227 -85.329353 
L 356.141028 -86.177471 
L 357.226829 -86.26497 
L 358.31263 -87.901618 
L 359.398431 -88.192845 
L 360.484232 -86.680249 
L 361.570033 -85.947313 
L 362.655835 -84.800926 
L 363.741636 -85.762652 
L 364.827437 -86.536917 
L 365.913238 -88.644681 
L 366.999039 -91.400349 
L 368.08484 -92.261652 
L 369.170642 -94.451554 
L 370.256443 -95.94433 
L 371.342244 -97.340381 
L 372.428045 -98.794965 
L 373.513846 -100.360275 
L 374.599647 -101.931716 
L 375.685448 -104.286399 
L 376.77125 -105.255506 
L 377.857051 -105.472488 
L 378.942852 -107.52256 
L 380.028653 -110.501405 
L 381.114454 -110.836752 
L 382.200255 -113.045661 
L 383.286057 -113.968008 
L 384.371858 -115.967063 
L 385.457659 -118.962107 
L 386.54346 -120.809192 
L 387.629261 -122.650096 
L 388.715062 -124.779791 
L 389.800863 -127.267782 
L 390.886665 -129.576718 
L 391.972466 -132.698158 
L 393.058267 -135.804455 
L 394.144068 -139.146423 
L 395.229869 -142.541412 
L 396.31567 -146.233776 
L 397.401472 -149.891895 
L 398.487273 -153.860552 
L 398.487273 -292.032 
L 398.487273 -292.032 
L 397.401472 -289.812468 
L 396.31567 -288.45639 
L 395.229869 -287.181465 
L 394.144068 -285.014665 
L 393.058267 -283.477001 
L 391.972466 -282.328183 
L 390.886665 -280.234901 
L 389.800863 -279.726578 
L 388.715062 -279.087944 
L 387.629261 -277.978841 
L 386.54346 -277.384791 
L 385.457659 -276.500554 
L 384.371858 -275.059311 
L 383.286057 -274.688965 
L 382.200255 -274.814141 
L 381.114454 -272.327619 
L 380.028653 -272.137404 
L 378.942852 -269.70653 
L 377.857051 -268.781664 
L 376.77125 -269.346533 
L 375.685448 -269.352374 
L 374.599647 -267.500541 
L 373.513846 -266.814953 
L 372.428045 -265.578388 
L 371.342244 -262.905805 
L 370.256443 -262.02177 
L 369.170642 -261.111928 
L 368.08484 -260.258292 
L 366.999039 -259.993053 
L 365.913238 -256.213466 
L 364.827437 -253.018855 
L 363.741636 -251.841802 
L 362.655835 -251.115978 
L 361.570033 -254.35244 
L 360.484232 -256.279166 
L 359.398431 -258.252655 
L 358.31263 -258.530072 
L 357.226829 -255.780841 
L 356.141028 -255.222758 
L 355.055227 -255.230698 
L 353.969425 -253.419004 
L 352.883624 -250.46516 
L 351.797823 -247.255103 
L 350.712022 -242.051067 
L 349.626221 -237.655386 
L 348.54042 -236.950701 
L 347.454618 -234.130487 
L 346.368817 -232.282201 
L 345.283016 -231.806647 
L 344.197215 -227.781544 
L 343.111414 -225.438274 
L 342.025613 -221.6116 
L 340.939811 -218.245595 
L 339.85401 -216.6884 
L 338.768209 -213.582564 
L 337.682408 -213.043049 
L 336.596607 -208.353515 
L 335.510806 -204.384411 
L 334.425005 -201.835151 
L 333.339203 -200.950516 
L 332.253402 -201.96952 
L 331.167601 -200.311037 
L 330.0818 -197.449052 
L 328.995999 -194.995026 
L 327.910198 -193.667518 
L 326.824396 -193.075286 
L 325.738595 -192.068357 
L 324.652794 -191.515937 
L 323.566993 -189.902962 
L 322.481192 -188.486861 
L 321.395391 -188.206421 
L 320.30959 -185.610343 
L 319.223788 -184.967416 
L 318.137987 -184.983404 
L 317.052186 -186.793236 
L 315.966385 -186.906662 
L 314.880584 -189.48241 
L 313.794783 -192.030677 
L 312.708981 -190.523353 
L 311.62318 -191.515084 
L 310.537379 -189.97042 
L 309.451578 -189.800293 
L 308.365777 -188.432612 
L 307.279976 -187.237854 
L 306.194175 -187.54664 
L 305.108373 -184.863168 
L 304.022572 -182.854578 
L 302.936771 -180.557403 
L 301.85097 -180.819442 
L 300.765169 -181.412176 
L 299.679368 -180.651533 
L 298.593566 -180.678413 
L 297.507765 -177.992131 
L 296.421964 -176.497237 
L 295.336163 -174.898794 
L 294.250362 -174.833308 
L 293.164561 -176.906339 
L 292.07876 -176.565722 
L 290.992958 -176.570746 
L 289.907157 -176.259206 
L 288.821356 -178.179555 
L 287.735555 -179.956103 
L 286.649754 -182.817024 
L 285.563953 -185.853162 
L 284.478151 -187.522204 
L 283.39235 -190.340846 
L 282.306549 -192.818875 
L 281.220748 -192.97029 
L 280.134947 -193.722495 
L 279.049146 -194.61984 
L 277.963344 -197.482456 
L 276.877543 -199.337027 
L 275.791742 -200.104156 
L 274.705941 -204.369858 
L 273.62014 -204.696568 
L 272.534339 -206.48077 
L 271.448538 -207.481455 
L 270.362736 -209.85245 
L 269.276935 -210.585927 
L 268.191134 -209.854111 
L 267.105333 -210.72222 
L 266.019532 -213.31909 
L 264.933731 -215.775094 
L 263.847929 -217.171529 
L 262.762128 -218.698964 
L 261.676327 -218.841316 
L 260.590526 -220.199617 
L 259.504725 -223.02595 
L 258.418924 -224.375609 
L 257.333123 -226.164902 
L 256.247321 -227.993612 
L 255.16152 -230.079497 
L 254.075719 -231.413439 
L 252.989918 -232.821283 
L 251.904117 -232.571895 
L 250.818316 -231.145868 
L 249.732514 -230.14054 
L 248.646713 -229.858663 
L 247.560912 -228.504029 
L 246.475111 -230.102515 
L 245.38931 -231.586915 
L 244.303509 -231.402688 
L 243.217708 -233.2044 
L 242.131906 -231.768818 
L 241.046105 -232.288875 
L 239.960304 -233.461722 
L 238.874503 -234.108788 
L 237.788702 -233.328585 
L 236.702901 -232.990031 
L 235.617099 -234.392379 
L 234.531298 -234.873724 
L 233.445497 -236.196722 
L 232.359696 -237.732501 
L 231.273895 -239.2497 
L 230.188094 -238.688691 
L 229.102292 -238.911272 
L 228.016491 -239.486507 
L 226.93069 -239.005189 
L 225.844889 -239.788008 
L 224.759088 -237.145834 
L 223.673287 -236.201524 
L 222.587486 -234.040217 
L 221.501684 -233.021834 
L 220.415883 -231.768344 
L 219.330082 -230.495179 
L 218.244281 -229.310735 
L 217.15848 -230.237508 
L 216.072679 -231.036287 
L 214.986877 -230.590437 
L 213.901076 -230.771156 
L 212.815275 -229.278924 
L 211.729474 -229.181372 
L 210.643673 -226.671053 
L 209.557872 -226.712676 
L 208.472071 -224.905964 
L 207.386269 -225.0842 
L 206.300468 -224.93537 
L 205.214667 -224.43115 
L 204.128866 -225.143753 
L 203.043065 -222.983346 
L 201.957264 -220.545958 
L 200.871462 -217.639277 
L 199.785661 -216.177397 
L 198.69986 -211.913154 
L 197.614059 -208.911023 
L 196.528258 -205.371226 
L 195.442457 -201.448776 
L 194.356656 -199.277536 
L 193.270854 -196.54856 
L 192.185053 -194.036518 
L 191.099252 -191.126888 
L 190.013451 -189.809771 
L 188.92765 -186.645894 
L 187.841849 -186.613685 
L 186.756047 -184.030923 
L 185.670246 -181.83137 
L 184.584445 -182.013263 
L 183.498644 -179.019075 
L 182.412843 -177.488147 
L 181.327042 -172.367468 
L 180.24124 -170.015288 
L 179.155439 -169.439751 
L 178.069638 -167.004581 
L 176.983837 -164.527406 
L 175.898036 -161.716341 
L 174.812235 -159.230601 
L 173.726434 -157.156189 
L 172.640632 -153.456299 
L 171.554831 -150.333387 
L 170.46903 -148.217027 
L 169.383229 -144.653055 
L 168.297428 -141.097681 
L 167.211627 -138.888153 
L 166.125825 -134.482367 
L 165.040024 -131.518583 
L 163.954223 -128.7439 
L 162.868422 -126.113665 
L 161.782621 -122.822814 
L 160.69682 -121.666505 
L 159.611019 -118.323777 
L 158.525217 -116.730473 
L 157.439416 -113.541698 
L 156.353615 -110.710264 
L 155.267814 -106.407484 
L 154.182013 -103.727026 
L 153.096212 -100.666347 
L 152.01041 -98.428978 
L 150.924609 -95.861267 
L 149.838808 -95.104365 
L 148.753007 -93.543196 
L 147.667206 -93.399465 
L 146.581405 -91.406645 
L 145.495604 -91.984817 
L 144.409802 -90.576202 
L 143.324001 -89.200451 
L 142.2382 -87.39678 
L 141.152399 -85.879917 
L 140.066598 -85.044662 
L 138.980797 -82.8309 
L 137.894995 -82.089171 
L 136.809194 -82.308154 
L 135.723393 -83.329286 
L 134.637592 -83.589669 
L 133.551791 -84.479668 
L 132.46599 -84.074793 
L 131.380189 -84.798423 
L 130.294387 -85.250795 
L 129.208586 -85.238599 
L 128.122785 -85.994967 
L 127.036984 -85.354448 
L 125.951183 -84.278648 
L 124.865382 -83.709665 
L 123.77958 -83.679109 
L 122.693779 -84.456169 
L 121.607978 -85.111292 
L 120.522177 -85.272965 
L 119.436376 -84.886045 
L 118.350575 -85.276398 
L 117.264773 -87.365009 
L 116.178972 -89.976004 
L 115.093171 -90.453763 
L 114.00737 -92.155248 
L 112.921569 -93.394874 
L 111.835768 -95.306173 
L 110.749967 -98.589077 
L 109.664165 -100.619406 
L 108.578364 -102.653506 
L 107.492563 -104.410076 
L 106.406762 -105.096516 
L 105.320961 -106.617623 
L 104.23516 -108.392139 
L 103.149358 -109.351245 
L 102.063557 -110.559777 
L 100.977756 -110.845996 
L 99.891955 -113.157247 
L 98.806154 -114.420741 
L 97.720353 -116.045542 
L 96.634552 -116.798843 
L 95.54875 -119.244019 
L 94.462949 -119.580933 
L 93.377148 -120.703693 
L 92.291347 -121.007056 
L 91.205546 -123.428256 
L 90.119745 -124.484641 
L 89.033943 -125.111878 
L 87.948142 -124.10278 
L 86.862341 -124.817332 
L 85.77654 -125.440418 
L 84.690739 -125.43816 
L 83.604938 -125.111364 
L 82.519137 -126.367617 
L 81.433335 -127.640863 
L 80.347534 -128.219429 
L 79.261733 -130.905053 
L 78.175932 -134.703008 
L 77.090131 -137.539446 
L 76.00433 -141.498915 
L 74.918528 -146.802081 
L 73.832727 -150.184083 
z
" style="stroke: #ff00ff; stroke-opacity: 0.1"/>
    </defs>
    <g clip-path="url(#p06e6ee21d4)">
     <use xlink:href="#m2541311876" x="0" y="345.6" style="fill: #ff00ff; fill-opacity: 0.1; stroke: #ff00ff; stroke-opacity: 0.1"/>
    </g>
   </g>
   <g id="matplotlib.axis_1">
    <g id="xtick_1">
     <g id="line2d_1">
      <defs>
       <path id="m1f077c6e59" d="M 0 0 
L 0 3.5 
" style="stroke: #000000; stroke-width: 0.8"/>
      </defs>
      <g>
       <use xlink:href="#m1f077c6e59" x="73.832727" y="307.584" style="stroke: #000000; stroke-width: 0.8"/>
      </g>
     </g>
     <g id="text_1">
      <!-- −5 -->
      <g transform="translate(66.461634 322.182437) scale(0.1 -0.1)">
       <defs>
        <path id="DejaVuSans-2212" d="M 678 2272 
L 4684 2272 
L 4684 1741 
L 678 1741 
L 678 2272 
z
" transform="scale(0.015625)"/>
        <path id="DejaVuSans-35" d="M 691 4666 
L 3169 4666 
L 3169 4134 
L 1269 4134 
L 1269 2991 
Q 1406 3038 1543 3061 
Q 1681 3084 1819 3084 
Q 2600 3084 3056 2656 
Q 3513 2228 3513 1497 
Q 3513 744 3044 326 
Q 2575 -91 1722 -91 
Q 1428 -91 1123 -41 
Q 819 9 494 109 
L 494 744 
Q 775 591 1075 516 
Q 1375 441 1709 441 
Q 2250 441 2565 725 
Q 2881 1009 2881 1497 
Q 2881 1984 2565 2268 
Q 2250 2553 1709 2553 
Q 1456 2553 1204 2497 
Q 953 2441 691 2322 
L 691 4666 
z
" transform="scale(0.015625)"/>
       </defs>
       <use xlink:href="#DejaVuSans-2212"/>
       <use xlink:href="#DejaVuSans-35" x="83.789062"/>
      </g>
     </g>
    </g>
    <g id="xtick_2">
     <g id="line2d_2">
      <g>
       <use xlink:href="#m1f077c6e59" x="95.54875" y="307.584" style="stroke: #000000; stroke-width: 0.8"/>
      </g>
     </g>
     <g id="text_2">
      <!-- −4 -->
      <g transform="translate(88.177657 322.182437) scale(0.1 -0.1)">
       <defs>
        <path id="DejaVuSans-34" d="M 2419 4116 
L 825 1625 
L 2419 1625 
L 2419 4116 
z
M 2253 4666 
L 3047 4666 
L 3047 1625 
L 3713 1625 
L 3713 1100 
L 3047 1100 
L 3047 0 
L 2419 0 
L 2419 1100 
L 313 1100 
L 313 1709 
L 2253 4666 
z
" transform="scale(0.015625)"/>
       </defs>
       <use xlink:href="#DejaVuSans-2212"/>
       <use xlink:href="#DejaVuSans-34" x="83.789062"/>
      </g>
     </g>
    </g>
    <g id="xtick_3">
     <g id="line2d_3">
      <g>
       <use xlink:href="#m1f077c6e59" x="117.264773" y="307.584" style="stroke: #000000; stroke-width: 0.8"/>
      </g>
     </g>
     <g id="text_3">
      <!-- −3 -->
      <g transform="translate(109.89368 322.182437) scale(0.1 -0.1)">
       <defs>
        <path id="DejaVuSans-33" d="M 2597 2516 
Q 3050 2419 3304 2112 
Q 3559 1806 3559 1356 
Q 3559 666 3084 287 
Q 2609 -91 1734 -91 
Q 1441 -91 1130 -33 
Q 819 25 488 141 
L 488 750 
Q 750 597 1062 519 
Q 1375 441 1716 441 
Q 2309 441 2620 675 
Q 2931 909 2931 1356 
Q 2931 1769 2642 2001 
Q 2353 2234 1838 2234 
L 1294 2234 
L 1294 2753 
L 1863 2753 
Q 2328 2753 2575 2939 
Q 2822 3125 2822 3475 
Q 2822 3834 2567 4026 
Q 2313 4219 1838 4219 
Q 1578 4219 1281 4162 
Q 984 4106 628 3988 
L 628 4550 
Q 988 4650 1302 4700 
Q 1616 4750 1894 4750 
Q 2613 4750 3031 4423 
Q 3450 4097 3450 3541 
Q 3450 3153 3228 2886 
Q 3006 2619 2597 2516 
z
" transform="scale(0.015625)"/>
       </defs>
       <use xlink:href="#DejaVuSans-2212"/>
       <use xlink:href="#DejaVuSans-33" x="83.789062"/>
      </g>
     </g>
    </g>
    <g id="xtick_4">
     <g id="line2d_4">
      <g>
       <use xlink:href="#m1f077c6e59" x="138.980797" y="307.584" style="stroke: #000000; stroke-width: 0.8"/>
      </g>
     </g>
     <g id="text_4">
      <!-- −2 -->
      <g transform="translate(131.609703 322.182437) scale(0.1 -0.1)">
       <defs>
        <path id="DejaVuSans-32" d="M 1228 531 
L 3431 531 
L 3431 0 
L 469 0 
L 469 531 
Q 828 903 1448 1529 
Q 2069 2156 2228 2338 
Q 2531 2678 2651 2914 
Q 2772 3150 2772 3378 
Q 2772 3750 2511 3984 
Q 2250 4219 1831 4219 
Q 1534 4219 1204 4116 
Q 875 4013 500 3803 
L 500 4441 
Q 881 4594 1212 4672 
Q 1544 4750 1819 4750 
Q 2544 4750 2975 4387 
Q 3406 4025 3406 3419 
Q 3406 3131 3298 2873 
Q 3191 2616 2906 2266 
Q 2828 2175 2409 1742 
Q 1991 1309 1228 531 
z
" transform="scale(0.015625)"/>
       </defs>
       <use xlink:href="#DejaVuSans-2212"/>
       <use xlink:href="#DejaVuSans-32" x="83.789062"/>
      </g>
     </g>
    </g>
    <g id="xtick_5">
     <g id="line2d_5">
      <g>
       <use xlink:href="#m1f077c6e59" x="160.69682" y="307.584" style="stroke: #000000; stroke-width: 0.8"/>
      </g>
     </g>
     <g id="text_5">
      <!-- −1 -->
      <g transform="translate(153.325726 322.182437) scale(0.1 -0.1)">
       <defs>
        <path id="DejaVuSans-31" d="M 794 531 
L 1825 531 
L 1825 4091 
L 703 3866 
L 703 4441 
L 1819 4666 
L 2450 4666 
L 2450 531 
L 3481 531 
L 3481 0 
L 794 0 
L 794 531 
z
" transform="scale(0.015625)"/>
       </defs>
       <use xlink:href="#DejaVuSans-2212"/>
       <use xlink:href="#DejaVuSans-31" x="83.789062"/>
      </g>
     </g>
    </g>
    <g id="xtick_6">
     <g id="line2d_6">
      <g>
       <use xlink:href="#m1f077c6e59" x="182.412843" y="307.584" style="stroke: #000000; stroke-width: 0.8"/>
      </g>
     </g>
     <g id="text_6">
      <!-- 0 -->
      <g transform="translate(179.231593 322.182437) scale(0.1 -0.1)">
       <defs>
        <path id="DejaVuSans-30" d="M 2034 4250 
Q 1547 4250 1301 3770 
Q 1056 3291 1056 2328 
Q 1056 1369 1301 889 
Q 1547 409 2034 409 
Q 2525 409 2770 889 
Q 3016 1369 3016 2328 
Q 3016 3291 2770 3770 
Q 2525 4250 2034 4250 
z
M 2034 4750 
Q 2819 4750 3233 4129 
Q 3647 3509 3647 2328 
Q 3647 1150 3233 529 
Q 2819 -91 2034 -91 
Q 1250 -91 836 529 
Q 422 1150 422 2328 
Q 422 3509 836 4129 
Q 1250 4750 2034 4750 
z
" transform="scale(0.015625)"/>
       </defs>
       <use xlink:href="#DejaVuSans-30"/>
      </g>
     </g>
    </g>
    <g id="xtick_7">
     <g id="line2d_7">
      <g>
       <use xlink:href="#m1f077c6e59" x="204.128866" y="307.584" style="stroke: #000000; stroke-width: 0.8"/>
      </g>
     </g>
     <g id="text_7">
      <!-- 1 -->
      <g transform="translate(200.947616 322.182437) scale(0.1 -0.1)">
       <use xlink:href="#DejaVuSans-31"/>
      </g>
     </g>
    </g>
    <g id="xtick_8">
     <g id="line2d_8">
      <g>
       <use xlink:href="#m1f077c6e59" x="225.844889" y="307.584" style="stroke: #000000; stroke-width: 0.8"/>
      </g>
     </g>
     <g id="text_8">
      <!-- 2 -->
      <g transform="translate(222.663639 322.182437) scale(0.1 -0.1)">
       <use xlink:href="#DejaVuSans-32"/>
      </g>
     </g>
    </g>
    <g id="xtick_9">
     <g id="line2d_9">
      <g>
       <use xlink:href="#m1f077c6e59" x="247.560912" y="307.584" style="stroke: #000000; stroke-width: 0.8"/>
      </g>
     </g>
     <g id="text_9">
      <!-- 3 -->
      <g transform="translate(244.379662 322.182437) scale(0.1 -0.1)">
       <use xlink:href="#DejaVuSans-33"/>
      </g>
     </g>
    </g>
    <g id="xtick_10">
     <g id="line2d_10">
      <g>
       <use xlink:href="#m1f077c6e59" x="269.276935" y="307.584" style="stroke: #000000; stroke-width: 0.8"/>
      </g>
     </g>
     <g id="text_10">
      <!-- 4 -->
      <g transform="translate(266.095685 322.182437) scale(0.1 -0.1)">
       <use xlink:href="#DejaVuSans-34"/>
      </g>
     </g>
    </g>
    <g id="xtick_11">
     <g id="line2d_11">
      <g>
       <use xlink:href="#m1f077c6e59" x="290.992958" y="307.584" style="stroke: #000000; stroke-width: 0.8"/>
      </g>
     </g>
     <g id="text_11">
      <!-- 5 -->
      <g transform="translate(287.811708 322.182437) scale(0.1 -0.1)">
       <use xlink:href="#DejaVuSans-35"/>
      </g>
     </g>
    </g>
    <g id="xtick_12">
     <g id="line2d_12">
      <g>
       <use xlink:href="#m1f077c6e59" x="312.708981" y="307.584" style="stroke: #000000; stroke-width: 0.8"/>
      </g>
     </g>
     <g id="text_12">
      <!-- 6 -->
      <g transform="translate(309.527731 322.182437) scale(0.1 -0.1)">
       <defs>
        <path id="DejaVuSans-36" d="M 2113 2584 
Q 1688 2584 1439 2293 
Q 1191 2003 1191 1497 
Q 1191 994 1439 701 
Q 1688 409 2113 409 
Q 2538 409 2786 701 
Q 3034 994 3034 1497 
Q 3034 2003 2786 2293 
Q 2538 2584 2113 2584 
z
M 3366 4563 
L 3366 3988 
Q 3128 4100 2886 4159 
Q 2644 4219 2406 4219 
Q 1781 4219 1451 3797 
Q 1122 3375 1075 2522 
Q 1259 2794 1537 2939 
Q 1816 3084 2150 3084 
Q 2853 3084 3261 2657 
Q 3669 2231 3669 1497 
Q 3669 778 3244 343 
Q 2819 -91 2113 -91 
Q 1303 -91 875 529 
Q 447 1150 447 2328 
Q 447 3434 972 4092 
Q 1497 4750 2381 4750 
Q 2619 4750 2861 4703 
Q 3103 4656 3366 4563 
z
" transform="scale(0.015625)"/>
       </defs>
       <use xlink:href="#DejaVuSans-36"/>
      </g>
     </g>
    </g>
    <g id="xtick_13">
     <g id="line2d_13">
      <g>
       <use xlink:href="#m1f077c6e59" x="334.425005" y="307.584" style="stroke: #000000; stroke-width: 0.8"/>
      </g>
     </g>
     <g id="text_13">
      <!-- 7 -->
      <g transform="translate(331.243755 322.182437) scale(0.1 -0.1)">
       <defs>
        <path id="DejaVuSans-37" d="M 525 4666 
L 3525 4666 
L 3525 4397 
L 1831 0 
L 1172 0 
L 2766 4134 
L 525 4134 
L 525 4666 
z
" transform="scale(0.015625)"/>
       </defs>
       <use xlink:href="#DejaVuSans-37"/>
      </g>
     </g>
    </g>
    <g id="xtick_14">
     <g id="line2d_14">
      <g>
       <use xlink:href="#m1f077c6e59" x="356.141028" y="307.584" style="stroke: #000000; stroke-width: 0.8"/>
      </g>
     </g>
     <g id="text_14">
      <!-- 8 -->
      <g transform="translate(352.959778 322.182437) scale(0.1 -0.1)">
       <defs>
        <path id="DejaVuSans-38" d="M 2034 2216 
Q 1584 2216 1326 1975 
Q 1069 1734 1069 1313 
Q 1069 891 1326 650 
Q 1584 409 2034 409 
Q 2484 409 2743 651 
Q 3003 894 3003 1313 
Q 3003 1734 2745 1975 
Q 2488 2216 2034 2216 
z
M 1403 2484 
Q 997 2584 770 2862 
Q 544 3141 544 3541 
Q 544 4100 942 4425 
Q 1341 4750 2034 4750 
Q 2731 4750 3128 4425 
Q 3525 4100 3525 3541 
Q 3525 3141 3298 2862 
Q 3072 2584 2669 2484 
Q 3125 2378 3379 2068 
Q 3634 1759 3634 1313 
Q 3634 634 3220 271 
Q 2806 -91 2034 -91 
Q 1263 -91 848 271 
Q 434 634 434 1313 
Q 434 1759 690 2068 
Q 947 2378 1403 2484 
z
M 1172 3481 
Q 1172 3119 1398 2916 
Q 1625 2713 2034 2713 
Q 2441 2713 2670 2916 
Q 2900 3119 2900 3481 
Q 2900 3844 2670 4047 
Q 2441 4250 2034 4250 
Q 1625 4250 1398 4047 
Q 1172 3844 1172 3481 
z
" transform="scale(0.015625)"/>
       </defs>
       <use xlink:href="#DejaVuSans-38"/>
      </g>
     </g>
    </g>
    <g id="xtick_15">
     <g id="line2d_15">
      <g>
       <use xlink:href="#m1f077c6e59" x="377.857051" y="307.584" style="stroke: #000000; stroke-width: 0.8"/>
      </g>
     </g>
     <g id="text_15">
      <!-- 9 -->
      <g transform="translate(374.675801 322.182437) scale(0.1 -0.1)">
       <defs>
        <path id="DejaVuSans-39" d="M 703 97 
L 703 672 
Q 941 559 1184 500 
Q 1428 441 1663 441 
Q 2288 441 2617 861 
Q 2947 1281 2994 2138 
Q 2813 1869 2534 1725 
Q 2256 1581 1919 1581 
Q 1219 1581 811 2004 
Q 403 2428 403 3163 
Q 403 3881 828 4315 
Q 1253 4750 1959 4750 
Q 2769 4750 3195 4129 
Q 3622 3509 3622 2328 
Q 3622 1225 3098 567 
Q 2575 -91 1691 -91 
Q 1453 -91 1209 -44 
Q 966 3 703 97 
z
M 1959 2075 
Q 2384 2075 2632 2365 
Q 2881 2656 2881 3163 
Q 2881 3666 2632 3958 
Q 2384 4250 1959 4250 
Q 1534 4250 1286 3958 
Q 1038 3666 1038 3163 
Q 1038 2656 1286 2365 
Q 1534 2075 1959 2075 
z
" transform="scale(0.015625)"/>
       </defs>
       <use xlink:href="#DejaVuSans-39"/>
      </g>
     </g>
    </g>
    <g id="xtick_16">
     <g id="line2d_16">
      <g>
       <use xlink:href="#m1f077c6e59" x="399.573074" y="307.584" style="stroke: #000000; stroke-width: 0.8"/>
      </g>
     </g>
     <g id="text_16">
      <!-- 10 -->
      <g transform="translate(393.210574 322.182437) scale(0.1 -0.1)">
       <use xlink:href="#DejaVuSans-31"/>
       <use xlink:href="#DejaVuSans-30" x="63.623047"/>
      </g>
     </g>
    </g>
    <g id="text_17">
     <!-- Time (s) -->
     <g transform="translate(215.831094 335.860562) scale(0.1 -0.1)">
      <defs>
       <path id="DejaVuSans-54" d="M -19 4666 
L 3928 4666 
L 3928 4134 
L 2272 4134 
L 2272 0 
L 1638 0 
L 1638 4134 
L -19 4134 
L -19 4666 
z
" transform="scale(0.015625)"/>
       <path id="DejaVuSans-69" d="M 603 3500 
L 1178 3500 
L 1178 0 
L 603 0 
L 603 3500 
z
M 603 4863 
L 1178 4863 
L 1178 4134 
L 603 4134 
L 603 4863 
z
" transform="scale(0.015625)"/>
       <path id="DejaVuSans-6d" d="M 3328 2828 
Q 3544 3216 3844 3400 
Q 4144 3584 4550 3584 
Q 5097 3584 5394 3201 
Q 5691 2819 5691 2113 
L 5691 0 
L 5113 0 
L 5113 2094 
Q 5113 2597 4934 2840 
Q 4756 3084 4391 3084 
Q 3944 3084 3684 2787 
Q 3425 2491 3425 1978 
L 3425 0 
L 2847 0 
L 2847 2094 
Q 2847 2600 2669 2842 
Q 2491 3084 2119 3084 
Q 1678 3084 1418 2786 
Q 1159 2488 1159 1978 
L 1159 0 
L 581 0 
L 581 3500 
L 1159 3500 
L 1159 2956 
Q 1356 3278 1631 3431 
Q 1906 3584 2284 3584 
Q 2666 3584 2933 3390 
Q 3200 3197 3328 2828 
z
" transform="scale(0.015625)"/>
       <path id="DejaVuSans-65" d="M 3597 1894 
L 3597 1613 
L 953 1613 
Q 991 1019 1311 708 
Q 1631 397 2203 397 
Q 2534 397 2845 478 
Q 3156 559 3463 722 
L 3463 178 
Q 3153 47 2828 -22 
Q 2503 -91 2169 -91 
Q 1331 -91 842 396 
Q 353 884 353 1716 
Q 353 2575 817 3079 
Q 1281 3584 2069 3584 
Q 2775 3584 3186 3129 
Q 3597 2675 3597 1894 
z
M 3022 2063 
Q 3016 2534 2758 2815 
Q 2500 3097 2075 3097 
Q 1594 3097 1305 2825 
Q 1016 2553 972 2059 
L 3022 2063 
z
" transform="scale(0.015625)"/>
       <path id="DejaVuSans-20" transform="scale(0.015625)"/>
       <path id="DejaVuSans-28" d="M 1984 4856 
Q 1566 4138 1362 3434 
Q 1159 2731 1159 2009 
Q 1159 1288 1364 580 
Q 1569 -128 1984 -844 
L 1484 -844 
Q 1016 -109 783 600 
Q 550 1309 550 2009 
Q 550 2706 781 3412 
Q 1013 4119 1484 4856 
L 1984 4856 
z
" transform="scale(0.015625)"/>
       <path id="DejaVuSans-73" d="M 2834 3397 
L 2834 2853 
Q 2591 2978 2328 3040 
Q 2066 3103 1784 3103 
Q 1356 3103 1142 2972 
Q 928 2841 928 2578 
Q 928 2378 1081 2264 
Q 1234 2150 1697 2047 
L 1894 2003 
Q 2506 1872 2764 1633 
Q 3022 1394 3022 966 
Q 3022 478 2636 193 
Q 2250 -91 1575 -91 
Q 1294 -91 989 -36 
Q 684 19 347 128 
L 347 722 
Q 666 556 975 473 
Q 1284 391 1588 391 
Q 1994 391 2212 530 
Q 2431 669 2431 922 
Q 2431 1156 2273 1281 
Q 2116 1406 1581 1522 
L 1381 1569 
Q 847 1681 609 1914 
Q 372 2147 372 2553 
Q 372 3047 722 3315 
Q 1072 3584 1716 3584 
Q 2034 3584 2315 3537 
Q 2597 3491 2834 3397 
z
" transform="scale(0.015625)"/>
       <path id="DejaVuSans-29" d="M 513 4856 
L 1013 4856 
Q 1481 4119 1714 3412 
Q 1947 2706 1947 2009 
Q 1947 1309 1714 600 
Q 1481 -109 1013 -844 
L 513 -844 
Q 928 -128 1133 580 
Q 1338 1288 1338 2009 
Q 1338 2731 1133 3434 
Q 928 4138 513 4856 
z
" transform="scale(0.015625)"/>
      </defs>
      <use xlink:href="#DejaVuSans-54"/>
      <use xlink:href="#DejaVuSans-69" x="57.958984"/>
      <use xlink:href="#DejaVuSans-6d" x="85.742188"/>
      <use xlink:href="#DejaVuSans-65" x="183.154297"/>
      <use xlink:href="#DejaVuSans-20" x="244.677734"/>
      <use xlink:href="#DejaVuSans-28" x="276.464844"/>
      <use xlink:href="#DejaVuSans-73" x="315.478516"/>
      <use xlink:href="#DejaVuSans-29" x="367.578125"/>
     </g>
    </g>
   </g>
   <g id="matplotlib.axis_2">
    <g id="ytick_1">
     <g id="line2d_17">
      <defs>
       <path id="m207df42b3d" d="M 0 0 
L -3.5 0 
" style="stroke: #000000; stroke-width: 0.8"/>
      </defs>
      <g>
       <use xlink:href="#m207df42b3d" x="57.6" y="255.949858" style="stroke: #000000; stroke-width: 0.8"/>
      </g>
     </g>
     <g id="text_18">
      <!-- 0.0 -->
      <g transform="translate(34.696875 259.749077) scale(0.1 -0.1)">
       <defs>
        <path id="DejaVuSans-2e" d="M 684 794 
L 1344 794 
L 1344 0 
L 684 0 
L 684 794 
z
" transform="scale(0.015625)"/>
       </defs>
       <use xlink:href="#DejaVuSans-30"/>
       <use xlink:href="#DejaVuSans-2e" x="63.623047"/>
       <use xlink:href="#DejaVuSans-30" x="95.410156"/>
      </g>
     </g>
    </g>
    <g id="ytick_2">
     <g id="line2d_18">
      <g>
       <use xlink:href="#m207df42b3d" x="57.6" y="201.064603" style="stroke: #000000; stroke-width: 0.8"/>
      </g>
     </g>
     <g id="text_19">
      <!-- 0.5 -->
      <g transform="translate(34.696875 204.863822) scale(0.1 -0.1)">
       <use xlink:href="#DejaVuSans-30"/>
       <use xlink:href="#DejaVuSans-2e" x="63.623047"/>
       <use xlink:href="#DejaVuSans-35" x="95.410156"/>
      </g>
     </g>
    </g>
    <g id="ytick_3">
     <g id="line2d_19">
      <g>
       <use xlink:href="#m207df42b3d" x="57.6" y="146.179348" style="stroke: #000000; stroke-width: 0.8"/>
      </g>
     </g>
     <g id="text_20">
      <!-- 1.0 -->
      <g transform="translate(34.696875 149.978566) scale(0.1 -0.1)">
       <use xlink:href="#DejaVuSans-31"/>
       <use xlink:href="#DejaVuSans-2e" x="63.623047"/>
       <use xlink:href="#DejaVuSans-30" x="95.410156"/>
      </g>
     </g>
    </g>
    <g id="ytick_4">
     <g id="line2d_20">
      <g>
       <use xlink:href="#m207df42b3d" x="57.6" y="91.294092" style="stroke: #000000; stroke-width: 0.8"/>
      </g>
     </g>
     <g id="text_21">
      <!-- 1.5 -->
      <g transform="translate(34.696875 95.093311) scale(0.1 -0.1)">
       <use xlink:href="#DejaVuSans-31"/>
       <use xlink:href="#DejaVuSans-2e" x="63.623047"/>
       <use xlink:href="#DejaVuSans-35" x="95.410156"/>
      </g>
     </g>
    </g>
    <g id="text_22">
     <!-- Z-Score -->
     <g transform="translate(28.617187 193.67175) rotate(-90) scale(0.1 -0.1)">
      <defs>
       <path id="DejaVuSans-5a" d="M 359 4666 
L 4025 4666 
L 4025 4184 
L 1075 531 
L 4097 531 
L 4097 0 
L 288 0 
L 288 481 
L 3238 4134 
L 359 4134 
L 359 4666 
z
" transform="scale(0.015625)"/>
       <path id="DejaVuSans-2d" d="M 313 2009 
L 1997 2009 
L 1997 1497 
L 313 1497 
L 313 2009 
z
" transform="scale(0.015625)"/>
       <path id="DejaVuSans-53" d="M 3425 4513 
L 3425 3897 
Q 3066 4069 2747 4153 
Q 2428 4238 2131 4238 
Q 1616 4238 1336 4038 
Q 1056 3838 1056 3469 
Q 1056 3159 1242 3001 
Q 1428 2844 1947 2747 
L 2328 2669 
Q 3034 2534 3370 2195 
Q 3706 1856 3706 1288 
Q 3706 609 3251 259 
Q 2797 -91 1919 -91 
Q 1588 -91 1214 -16 
Q 841 59 441 206 
L 441 856 
Q 825 641 1194 531 
Q 1563 422 1919 422 
Q 2459 422 2753 634 
Q 3047 847 3047 1241 
Q 3047 1584 2836 1778 
Q 2625 1972 2144 2069 
L 1759 2144 
Q 1053 2284 737 2584 
Q 422 2884 422 3419 
Q 422 4038 858 4394 
Q 1294 4750 2059 4750 
Q 2388 4750 2728 4690 
Q 3069 4631 3425 4513 
z
" transform="scale(0.015625)"/>
       <path id="DejaVuSans-63" d="M 3122 3366 
L 3122 2828 
Q 2878 2963 2633 3030 
Q 2388 3097 2138 3097 
Q 1578 3097 1268 2742 
Q 959 2388 959 1747 
Q 959 1106 1268 751 
Q 1578 397 2138 397 
Q 2388 397 2633 464 
Q 2878 531 3122 666 
L 3122 134 
Q 2881 22 2623 -34 
Q 2366 -91 2075 -91 
Q 1284 -91 818 406 
Q 353 903 353 1747 
Q 353 2603 823 3093 
Q 1294 3584 2113 3584 
Q 2378 3584 2631 3529 
Q 2884 3475 3122 3366 
z
" transform="scale(0.015625)"/>
       <path id="DejaVuSans-6f" d="M 1959 3097 
Q 1497 3097 1228 2736 
Q 959 2375 959 1747 
Q 959 1119 1226 758 
Q 1494 397 1959 397 
Q 2419 397 2687 759 
Q 2956 1122 2956 1747 
Q 2956 2369 2687 2733 
Q 2419 3097 1959 3097 
z
M 1959 3584 
Q 2709 3584 3137 3096 
Q 3566 2609 3566 1747 
Q 3566 888 3137 398 
Q 2709 -91 1959 -91 
Q 1206 -91 779 398 
Q 353 888 353 1747 
Q 353 2609 779 3096 
Q 1206 3584 1959 3584 
z
" transform="scale(0.015625)"/>
       <path id="DejaVuSans-72" d="M 2631 2963 
Q 2534 3019 2420 3045 
Q 2306 3072 2169 3072 
Q 1681 3072 1420 2755 
Q 1159 2438 1159 1844 
L 1159 0 
L 581 0 
L 581 3500 
L 1159 3500 
L 1159 2956 
Q 1341 3275 1631 3429 
Q 1922 3584 2338 3584 
Q 2397 3584 2469 3576 
Q 2541 3569 2628 3553 
L 2631 2963 
z
" transform="scale(0.015625)"/>
      </defs>
      <use xlink:href="#DejaVuSans-5a"/>
      <use xlink:href="#DejaVuSans-2d" x="66.755859"/>
      <use xlink:href="#DejaVuSans-53" x="102.839844"/>
      <use xlink:href="#DejaVuSans-63" x="166.316406"/>
      <use xlink:href="#DejaVuSans-6f" x="221.296875"/>
      <use xlink:href="#DejaVuSans-72" x="282.478516"/>
      <use xlink:href="#DejaVuSans-65" x="321.341797"/>
     </g>
    </g>
   </g>
   <g id="line2d_21">
    <path d="M 73.832727 225.571192 
L 74.918528 228.199811 
L 76.00433 232.781462 
L 77.090131 236.341142 
L 78.175932 238.696599 
L 79.261733 242.175868 
L 80.347534 244.607784 
L 81.433335 245.520829 
L 82.519137 246.832509 
L 83.604938 247.82636 
L 84.690739 247.403639 
L 85.77654 247.497826 
L 87.948142 248.455891 
L 89.033943 247.481431 
L 90.119745 247.925287 
L 91.205546 248.615862 
L 92.291347 250.735305 
L 93.377148 250.449488 
L 94.462949 250.970264 
L 95.54875 250.855107 
L 96.634552 252.963306 
L 97.720353 253.293423 
L 98.806154 254.671995 
L 99.891955 255.685522 
L 100.977756 257.676402 
L 102.063557 257.959385 
L 103.149358 259.002937 
L 104.23516 259.76878 
L 105.320961 261.43814 
L 106.406762 262.287113 
L 107.492563 262.565091 
L 108.578364 263.809344 
L 110.749967 267.284293 
L 111.835768 269.770242 
L 112.921569 271.630151 
L 114.00737 272.366277 
L 115.093171 273.820383 
L 116.178972 273.717219 
L 117.264773 276.328641 
L 118.350575 277.905801 
L 119.436376 277.656284 
L 120.522177 276.520998 
L 122.693779 276.520705 
L 123.77958 277.002972 
L 124.865382 276.567844 
L 125.951183 275.661494 
L 128.122785 273.039044 
L 129.208586 273.69076 
L 130.294387 273.568848 
L 131.380189 273.729665 
L 132.46599 274.521816 
L 133.551791 273.983774 
L 134.637592 275.02629 
L 135.723393 275.529156 
L 136.809194 276.984716 
L 137.894995 277.054713 
L 138.980797 276.675792 
L 140.066598 275.01442 
L 141.152399 274.442608 
L 143.324001 271.814475 
L 144.409802 271.008927 
L 145.495604 270.535221 
L 146.581405 271.823971 
L 147.667206 270.435425 
L 148.753007 271.047784 
L 149.838808 270.290181 
L 150.924609 270.084954 
L 152.01041 268.284179 
L 153.096212 267.049445 
L 154.182013 264.645117 
L 155.267814 262.755635 
L 156.353615 259.380625 
L 158.525217 254.968096 
L 159.611019 253.881644 
L 160.69682 251.287087 
L 161.782621 250.758386 
L 162.868422 248.254566 
L 163.954223 246.374444 
L 166.125825 241.897742 
L 167.211627 238.154375 
L 168.297428 236.65435 
L 169.383229 233.661471 
L 170.46903 230.222192 
L 171.554831 228.513034 
L 172.640632 225.829174 
L 173.726434 222.669184 
L 174.812235 220.959991 
L 176.983837 216.588691 
L 178.069638 214.700311 
L 179.155439 213.224062 
L 180.24124 212.576513 
L 181.327042 210.848805 
L 182.412843 206.867018 
L 183.498644 205.657514 
L 184.584445 203.409074 
L 185.670246 203.64146 
L 187.841849 200.231688 
L 188.92765 200.463248 
L 190.013451 197.947632 
L 191.099252 196.78562 
L 192.185053 194.261933 
L 195.442457 187.683414 
L 196.528258 184.322064 
L 197.614059 181.529477 
L 198.69986 179.223473 
L 199.785661 175.912416 
L 200.871462 174.348445 
L 201.957264 172.054862 
L 204.128866 168.148353 
L 205.214667 168.589458 
L 206.300468 168.083157 
L 207.386269 167.936952 
L 208.472071 167.955672 
L 209.557872 166.497717 
L 210.643673 166.641469 
L 211.729474 164.536126 
L 212.815275 164.847021 
L 213.901076 163.862993 
L 214.986877 164.174568 
L 216.072679 163.825051 
L 217.15848 164.588092 
L 218.244281 165.75068 
L 220.415883 164.737796 
L 222.587486 163.246223 
L 223.673287 162.064174 
L 224.759088 161.451095 
L 225.844889 159.625532 
L 226.93069 160.49162 
L 228.016491 160.078864 
L 230.188094 160.58512 
L 231.273895 159.958236 
L 232.359696 161.454707 
L 233.445497 163.365193 
L 234.531298 164.564818 
L 235.617099 165.010957 
L 236.702901 166.551389 
L 237.788702 166.382024 
L 238.874503 166.008196 
L 239.960304 166.886781 
L 241.046105 168.7012 
L 242.131906 169.808516 
L 243.217708 169.502024 
L 244.303509 170.953037 
L 245.38931 171.094291 
L 246.475111 173.02981 
L 247.560912 174.63008 
L 248.646713 174.009694 
L 249.732514 173.608718 
L 251.904117 171.495463 
L 252.989918 171.026151 
L 255.16152 174.175483 
L 257.333123 178.211743 
L 258.418924 179.438787 
L 259.504725 180.381012 
L 260.590526 183.0434 
L 261.676327 184.428147 
L 262.762128 184.307801 
L 264.933731 187.173351 
L 266.019532 189.522108 
L 267.105333 192.339123 
L 268.191134 193.401267 
L 269.276935 191.843653 
L 270.362736 192.37921 
L 271.448538 194.48683 
L 272.534339 195.566497 
L 273.62014 197.091351 
L 274.705941 197.605934 
L 275.791742 201.539656 
L 276.877543 201.883855 
L 277.963344 203.068362 
L 279.049146 205.257719 
L 280.134947 206.123132 
L 281.220748 206.738776 
L 282.306549 206.419639 
L 283.39235 208.219227 
L 284.478151 210.901545 
L 285.563953 211.85108 
L 286.649754 214.448802 
L 287.735555 216.578485 
L 288.821356 217.977261 
L 289.907157 219.057139 
L 290.992958 218.121056 
L 292.07876 217.430047 
L 293.164561 216.448067 
L 294.250362 218.076295 
L 295.336163 217.805678 
L 297.507765 213.437959 
L 298.593566 210.405381 
L 299.679368 210.344981 
L 300.765169 209.514278 
L 301.85097 210.333956 
L 302.936771 210.82643 
L 304.022572 209.061215 
L 305.108373 208.041665 
L 306.194175 206.305463 
L 307.279976 206.802657 
L 308.365777 206.701941 
L 309.451578 206.345441 
L 310.537379 206.663 
L 311.62318 206.164953 
L 312.708981 207.45146 
L 313.794783 206.386454 
L 315.966385 212.221962 
L 317.052186 212.661011 
L 318.137987 214.73077 
L 319.223788 215.356035 
L 320.30959 215.269637 
L 321.395391 213.943307 
L 322.481192 214.303917 
L 324.652794 212.750005 
L 325.738595 212.875578 
L 326.824396 212.417029 
L 327.910198 212.116867 
L 328.995999 211.638988 
L 330.0818 210.391934 
L 331.167601 208.455587 
L 332.253402 207.951153 
L 333.339203 209.602648 
L 334.425005 209.581067 
L 335.510806 208.551147 
L 336.596607 206.489404 
L 337.682408 203.239048 
L 338.768209 203.69392 
L 339.85401 201.9414 
L 340.939811 201.332687 
L 342.025613 199.204069 
L 343.111414 196.67935 
L 344.197215 195.775333 
L 345.283016 192.891511 
L 346.368817 193.314346 
L 347.454618 192.360682 
L 348.54042 190.342787 
L 349.626221 189.642549 
L 350.712022 186.116845 
L 351.797823 181.782146 
L 352.883624 179.178612 
L 353.969425 176.87738 
L 355.055227 175.319974 
L 357.226829 174.577094 
L 358.31263 172.384155 
L 359.398431 172.37725 
L 360.484232 174.120293 
L 361.570033 175.450124 
L 362.655835 177.641548 
L 364.827437 175.822114 
L 365.913238 173.170927 
L 366.999039 169.903299 
L 368.08484 169.340028 
L 369.170642 167.818259 
L 371.342244 165.476907 
L 372.428045 163.413324 
L 373.513846 162.012386 
L 374.599647 160.883871 
L 375.685448 158.780614 
L 376.77125 158.29898 
L 377.857051 158.472924 
L 378.942852 156.985455 
L 380.028653 154.280595 
L 381.114454 154.017815 
L 382.200255 151.670099 
L 383.286057 151.271513 
L 384.371858 150.086813 
L 385.457659 147.86867 
L 388.715062 143.666133 
L 390.886665 140.694191 
L 391.972466 138.086829 
L 393.058267 135.959272 
L 394.144068 133.519456 
L 396.31567 128.254917 
L 397.401472 125.747818 
L 398.487273 122.653724 
L 398.487273 122.653724 
" clip-path="url(#p06e6ee21d4)" style="fill: none; stroke: #ff00ff; stroke-width: 1.5; stroke-linecap: square"/>
   </g>
   <g id="line2d_22">
    <path d="M 182.412843 307.584 
L 182.412843 41.472 
" clip-path="url(#p06e6ee21d4)" style="fill: none; stroke: #000000; stroke-width: 1.5; stroke-linecap: square"/>
   </g>
   <g id="patch_3">
    <path d="M 57.6 307.584 
L 57.6 41.472 
" style="fill: none; stroke: #000000; stroke-width: 0.8; stroke-linejoin: miter; stroke-linecap: square"/>
   </g>
   <g id="patch_4">
    <path d="M 414.72 307.584 
L 414.72 41.472 
" style="fill: none; stroke: #000000; stroke-width: 0.8; stroke-linejoin: miter; stroke-linecap: square"/>
   </g>
   <g id="patch_5">
    <path d="M 57.6 307.584 
L 414.72 307.584 
" style="fill: none; stroke: #000000; stroke-width: 0.8; stroke-linejoin: miter; stroke-linecap: square"/>
   </g>
   <g id="patch_6">
    <path d="M 57.6 41.472 
L 414.72 41.472 
" style="fill: none; stroke: #000000; stroke-width: 0.8; stroke-linejoin: miter; stroke-linecap: square"/>
   </g>
   <g id="text_23">
    <!-- Event 15_p=0.112 -->
    <g transform="translate(180.415312 35.472) scale(0.12 -0.12)">
     <defs>
      <path id="DejaVuSans-45" d="M 628 4666 
L 3578 4666 
L 3578 4134 
L 1259 4134 
L 1259 2753 
L 3481 2753 
L 3481 2222 
L 1259 2222 
L 1259 531 
L 3634 531 
L 3634 0 
L 628 0 
L 628 4666 
z
" transform="scale(0.015625)"/>
      <path id="DejaVuSans-76" d="M 191 3500 
L 800 3500 
L 1894 563 
L 2988 3500 
L 3597 3500 
L 2284 0 
L 1503 0 
L 191 3500 
z
" transform="scale(0.015625)"/>
      <path id="DejaVuSans-6e" d="M 3513 2113 
L 3513 0 
L 2938 0 
L 2938 2094 
Q 2938 2591 2744 2837 
Q 2550 3084 2163 3084 
Q 1697 3084 1428 2787 
Q 1159 2491 1159 1978 
L 1159 0 
L 581 0 
L 581 3500 
L 1159 3500 
L 1159 2956 
Q 1366 3272 1645 3428 
Q 1925 3584 2291 3584 
Q 2894 3584 3203 3211 
Q 3513 2838 3513 2113 
z
" transform="scale(0.015625)"/>
      <path id="DejaVuSans-74" d="M 1172 4494 
L 1172 3500 
L 2356 3500 
L 2356 3053 
L 1172 3053 
L 1172 1153 
Q 1172 725 1289 603 
Q 1406 481 1766 481 
L 2356 481 
L 2356 0 
L 1766 0 
Q 1100 0 847 248 
Q 594 497 594 1153 
L 594 3053 
L 172 3053 
L 172 3500 
L 594 3500 
L 594 4494 
L 1172 4494 
z
" transform="scale(0.015625)"/>
      <path id="DejaVuSans-5f" d="M 3263 -1063 
L 3263 -1509 
L -63 -1509 
L -63 -1063 
L 3263 -1063 
z
" transform="scale(0.015625)"/>
      <path id="DejaVuSans-70" d="M 1159 525 
L 1159 -1331 
L 581 -1331 
L 581 3500 
L 1159 3500 
L 1159 2969 
Q 1341 3281 1617 3432 
Q 1894 3584 2278 3584 
Q 2916 3584 3314 3078 
Q 3713 2572 3713 1747 
Q 3713 922 3314 415 
Q 2916 -91 2278 -91 
Q 1894 -91 1617 61 
Q 1341 213 1159 525 
z
M 3116 1747 
Q 3116 2381 2855 2742 
Q 2594 3103 2138 3103 
Q 1681 3103 1420 2742 
Q 1159 2381 1159 1747 
Q 1159 1113 1420 752 
Q 1681 391 2138 391 
Q 2594 391 2855 752 
Q 3116 1113 3116 1747 
z
" transform="scale(0.015625)"/>
      <path id="DejaVuSans-3d" d="M 678 2906 
L 4684 2906 
L 4684 2381 
L 678 2381 
L 678 2906 
z
M 678 1631 
L 4684 1631 
L 4684 1100 
L 678 1100 
L 678 1631 
z
" transform="scale(0.015625)"/>
     </defs>
     <use xlink:href="#DejaVuSans-45"/>
     <use xlink:href="#DejaVuSans-76" x="63.183594"/>
     <use xlink:href="#DejaVuSans-65" x="122.363281"/>
     <use xlink:href="#DejaVuSans-6e" x="183.886719"/>
     <use xlink:href="#DejaVuSans-74" x="247.265625"/>
     <use xlink:href="#DejaVuSans-20" x="286.474609"/>
     <use xlink:href="#DejaVuSans-31" x="318.261719"/>
     <use xlink:href="#DejaVuSans-35" x="381.884766"/>
     <use xlink:href="#DejaVuSans-5f" x="445.507812"/>
     <use xlink:href="#DejaVuSans-70" x="495.507812"/>
     <use xlink:href="#DejaVuSans-3d" x="558.984375"/>
     <use xlink:href="#DejaVuSans-30" x="642.773438"/>
     <use xlink:href="#DejaVuSans-2e" x="706.396484"/>
     <use xlink:href="#DejaVuSans-31" x="738.183594"/>
     <use xlink:href="#DejaVuSans-31" x="801.806641"/>
     <use xlink:href="#DejaVuSans-32" x="865.429688"/>
    </g>
   </g>
  </g>
 </g>
 <defs>
  <clipPath id="p06e6ee21d4">
   <rect x="57.6" y="41.472" width="357.12" height="266.112"/>
  </clipPath>
 </defs>
</svg>
