<?xml version="1.0" encoding="utf-8" standalone="no"?>
<!DOCTYPE svg PUBLIC "-//W3C//DTD SVG 1.1//EN"
  "http://www.w3.org/Graphics/SVG/1.1/DTD/svg11.dtd">
<svg xmlns:xlink="http://www.w3.org/1999/xlink" width="460.8pt" height="345.6pt" viewBox="0 0 460.8 345.6" xmlns="http://www.w3.org/2000/svg" version="1.1">
 <metadata>
  <rdf:RDF xmlns:dc="http://purl.org/dc/elements/1.1/" xmlns:cc="http://creativecommons.org/ns#" xmlns:rdf="http://www.w3.org/1999/02/22-rdf-syntax-ns#">
   <cc:Work>
    <dc:type rdf:resource="http://purl.org/dc/dcmitype/StillImage"/>
    <dc:date>2024-11-12T22:27:50.467682</dc:date>
    <dc:format>image/svg+xml</dc:format>
    <dc:creator>
     <cc:Agent>
      <dc:title>Matplotlib v3.8.2, https://matplotlib.org/</dc:title>
     </cc:Agent>
    </dc:creator>
   </cc:Work>
  </rdf:RDF>
 </metadata>
 <defs>
  <style type="text/css">*{stroke-linejoin: round; stroke-linecap: butt}</style>
 </defs>
 <g id="figure_1">
  <g id="patch_1">
   <path d="M 0 345.6 
L 460.8 345.6 
L 460.8 0 
L 0 0 
z
" style="fill: #ffffff"/>
  </g>
  <g id="axes_1">
   <g id="patch_2">
    <path d="M 57.6 307.584 
L 414.72 307.584 
L 414.72 41.472 
L 57.6 41.472 
z
" style="fill: #ffffff"/>
   </g>
   <g id="PolyCollection_1">
    <defs>
     <path id="m11434adb9f" d="M 73.832727 -73.073194 
L 73.832727 -63.045939 
L 74.918528 -62.922517 
L 76.00433 -62.599825 
L 77.090131 -62.471248 
L 78.175932 -62.518322 
L 79.261733 -62.588112 
L 80.347534 -62.302296 
L 81.433335 -61.955991 
L 82.519137 -61.858215 
L 83.604938 -61.652293 
L 84.690739 -61.407208 
L 85.77654 -61.347345 
L 86.862341 -61.311777 
L 87.948142 -61.093228 
L 89.033943 -60.753317 
L 90.119745 -60.494109 
L 91.205546 -60.306886 
L 92.291347 -60.018891 
L 93.377148 -59.482507 
L 94.462949 -59.258311 
L 95.54875 -58.604495 
L 96.634552 -58.292167 
L 97.720353 -58.202527 
L 98.806154 -58.044032 
L 99.891955 -57.499656 
L 100.977756 -57.451006 
L 102.063557 -57.222704 
L 103.149358 -57.599792 
L 104.23516 -57.391878 
L 105.320961 -57.698986 
L 106.406762 -57.732303 
L 107.492563 -57.481731 
L 108.578364 -57.38579 
L 109.664165 -57.221853 
L 110.749967 -57.413571 
L 111.835768 -57.642682 
L 112.921569 -57.659267 
L 114.00737 -57.581734 
L 115.093171 -57.629036 
L 116.178972 -57.788704 
L 117.264773 -57.857837 
L 118.350575 -57.875016 
L 119.436376 -58.043325 
L 120.522177 -57.98632 
L 121.607978 -58.214484 
L 122.693779 -58.00632 
L 123.77958 -57.861903 
L 124.865382 -57.42575 
L 125.951183 -57.446564 
L 127.036984 -57.45789 
L 128.122785 -57.359925 
L 129.208586 -57.384114 
L 130.294387 -57.516402 
L 131.380189 -57.457825 
L 132.46599 -57.309644 
L 133.551791 -57.106082 
L 134.637592 -57.009012 
L 135.723393 -56.740786 
L 136.809194 -56.619968 
L 137.894995 -56.398488 
L 138.980797 -56.368565 
L 140.066598 -56.205783 
L 141.152399 -56.125547 
L 142.2382 -56.092072 
L 143.324001 -55.885244 
L 144.409802 -56.200329 
L 145.495604 -56.287179 
L 146.581405 -56.482305 
L 147.667206 -56.468777 
L 148.753007 -56.657761 
L 149.838808 -56.683772 
L 150.924609 -56.74586 
L 152.01041 -56.837821 
L 153.096212 -56.905285 
L 154.182013 -56.709605 
L 155.267814 -56.74265 
L 156.353615 -56.768543 
L 157.439416 -56.771126 
L 158.525217 -56.761589 
L 159.611019 -56.852793 
L 160.69682 -56.587311 
L 161.782621 -56.290532 
L 162.868422 -56.055347 
L 163.954223 -55.995159 
L 165.040024 -55.855486 
L 166.125825 -55.751565 
L 167.211627 -55.467517 
L 168.297428 -55.532936 
L 169.383229 -55.33818 
L 170.46903 -55.046102 
L 171.554831 -55.170659 
L 172.640632 -55.23591 
L 173.726434 -55.288508 
L 174.812235 -55.100876 
L 175.898036 -54.703117 
L 176.983837 -54.572909 
L 178.069638 -54.38851 
L 179.155439 -53.937982 
L 180.24124 -53.519341 
L 181.327042 -53.244739 
L 182.412843 -52.308833 
L 183.498644 -51.761827 
L 184.584445 -51.128893 
L 185.670246 -50.965718 
L 186.756047 -50.860388 
L 187.841849 -51.146999 
L 188.92765 -51.234912 
L 190.013451 -51.315301 
L 191.099252 -51.341315 
L 192.185053 -51.209789 
L 193.270854 -51.167381 
L 194.356656 -51.11335 
L 195.442457 -50.801021 
L 196.528258 -50.621191 
L 197.614059 -50.567903 
L 198.69986 -50.483051 
L 199.785661 -50.610509 
L 200.871462 -50.289549 
L 201.957264 -50.112 
L 203.043065 -50.353693 
L 204.128866 -50.588877 
L 205.214667 -50.695983 
L 206.300468 -51.095096 
L 207.386269 -51.297478 
L 208.472071 -51.995924 
L 209.557872 -52.031436 
L 210.643673 -52.426683 
L 211.729474 -52.764361 
L 212.815275 -53.015986 
L 213.901076 -53.40855 
L 214.986877 -53.886137 
L 216.072679 -54.22447 
L 217.15848 -54.800443 
L 218.244281 -54.824847 
L 219.330082 -55.027808 
L 220.415883 -55.29776 
L 221.501684 -55.330943 
L 222.587486 -55.766615 
L 223.673287 -56.076377 
L 224.759088 -56.265983 
L 225.844889 -56.615953 
L 226.93069 -56.72868 
L 228.016491 -56.73302 
L 229.102292 -56.712159 
L 230.188094 -56.903955 
L 231.273895 -56.989404 
L 232.359696 -57.083736 
L 233.445497 -57.072016 
L 234.531298 -57.019105 
L 235.617099 -57.016923 
L 236.702901 -57.028268 
L 237.788702 -56.939861 
L 238.874503 -57.00337 
L 239.960304 -57.263109 
L 241.046105 -57.544736 
L 242.131906 -57.924605 
L 243.217708 -58.320038 
L 244.303509 -58.515779 
L 245.38931 -58.665424 
L 246.475111 -59.142842 
L 247.560912 -59.560921 
L 248.646713 -60.119348 
L 249.732514 -60.398881 
L 250.818316 -60.8098 
L 251.904117 -61.168886 
L 252.989918 -61.499186 
L 254.075719 -61.951218 
L 255.16152 -62.32174 
L 256.247321 -62.653278 
L 257.333123 -63.085911 
L 258.418924 -63.468718 
L 259.504725 -63.955073 
L 260.590526 -64.340152 
L 261.676327 -64.689964 
L 262.762128 -65.159713 
L 263.847929 -65.642256 
L 264.933731 -66.144676 
L 266.019532 -66.58981 
L 267.105333 -66.781895 
L 268.191134 -67.155031 
L 269.276935 -67.438096 
L 270.362736 -67.721485 
L 271.448538 -68.121435 
L 272.534339 -68.067841 
L 273.62014 -68.384886 
L 274.705941 -68.751263 
L 275.791742 -69.072602 
L 276.877543 -69.478307 
L 277.963344 -69.763402 
L 279.049146 -69.933412 
L 280.134947 -70.248367 
L 281.220748 -70.533983 
L 282.306549 -71.017325 
L 283.39235 -71.257285 
L 284.478151 -71.577678 
L 285.563953 -72.117542 
L 286.649754 -72.32021 
L 287.735555 -72.738605 
L 288.821356 -72.936624 
L 289.907157 -73.312803 
L 290.992958 -73.760474 
L 292.07876 -74.030597 
L 293.164561 -74.464357 
L 294.250362 -74.687979 
L 295.336163 -74.980425 
L 296.421964 -75.45305 
L 297.507765 -75.950209 
L 298.593566 -76.331479 
L 299.679368 -76.763705 
L 300.765169 -77.132984 
L 301.85097 -77.410468 
L 302.936771 -77.766958 
L 304.022572 -77.954387 
L 305.108373 -78.128293 
L 306.194175 -78.197993 
L 307.279976 -78.272846 
L 308.365777 -78.535313 
L 309.451578 -79.030873 
L 310.537379 -79.158273 
L 311.62318 -79.217621 
L 312.708981 -79.292894 
L 313.794783 -79.549895 
L 314.880584 -79.657952 
L 315.966385 -79.854935 
L 317.052186 -80.051912 
L 318.137987 -80.184853 
L 319.223788 -80.351969 
L 320.30959 -80.543886 
L 321.395391 -80.69679 
L 322.481192 -81.005809 
L 323.566993 -81.166999 
L 324.652794 -81.326818 
L 325.738595 -81.480032 
L 326.824396 -81.612243 
L 327.910198 -81.874581 
L 328.995999 -82.144738 
L 330.0818 -82.247564 
L 331.167601 -82.465755 
L 332.253402 -82.718876 
L 333.339203 -82.988102 
L 334.425005 -83.233512 
L 335.510806 -83.492164 
L 336.596607 -84.047935 
L 337.682408 -84.580635 
L 338.768209 -85.025613 
L 339.85401 -85.510592 
L 340.939811 -85.842382 
L 342.025613 -86.144368 
L 343.111414 -86.586432 
L 344.197215 -87.1455 
L 345.283016 -87.518565 
L 346.368817 -87.849501 
L 347.454618 -88.427831 
L 348.54042 -88.905532 
L 349.626221 -89.37309 
L 350.712022 -89.940669 
L 351.797823 -90.524123 
L 352.883624 -91.30884 
L 353.969425 -91.861381 
L 355.055227 -92.410491 
L 356.141028 -93.17519 
L 357.226829 -93.764973 
L 358.31263 -94.524213 
L 359.398431 -95.413031 
L 360.484232 -95.846154 
L 361.570033 -96.402857 
L 362.655835 -97.051403 
L 363.741636 -97.535108 
L 364.827437 -98.058789 
L 365.913238 -98.702333 
L 366.999039 -99.366668 
L 368.08484 -99.963062 
L 369.170642 -100.432055 
L 370.256443 -101.042732 
L 371.342244 -101.676763 
L 372.428045 -102.147125 
L 373.513846 -102.514192 
L 374.599647 -102.949054 
L 375.685448 -103.63913 
L 376.77125 -104.286944 
L 377.857051 -104.747086 
L 378.942852 -105.086763 
L 380.028653 -105.605218 
L 381.114454 -105.926647 
L 382.200255 -106.227301 
L 383.286057 -106.645384 
L 384.371858 -107.251398 
L 385.457659 -107.890933 
L 386.54346 -108.334604 
L 387.629261 -108.935075 
L 388.715062 -109.49628 
L 389.800863 -109.995235 
L 390.886665 -110.257527 
L 391.972466 -110.421916 
L 393.058267 -110.741189 
L 394.144068 -111.028463 
L 395.229869 -111.361511 
L 396.31567 -111.488872 
L 397.401472 -111.830391 
L 398.487273 -112.085509 
L 398.487273 -292.032 
L 398.487273 -292.032 
L 397.401472 -290.703077 
L 396.31567 -289.152894 
L 395.229869 -288.12769 
L 394.144068 -286.506226 
L 393.058267 -285.134529 
L 391.972466 -283.501223 
L 390.886665 -282.409394 
L 389.800863 -280.537574 
L 388.715062 -278.400121 
L 387.629261 -276.035951 
L 386.54346 -273.759606 
L 385.457659 -271.645343 
L 384.371858 -269.465137 
L 383.286057 -267.388341 
L 382.200255 -266.270997 
L 381.114454 -264.575342 
L 380.028653 -263.08338 
L 378.942852 -261.402756 
L 377.857051 -259.552677 
L 376.77125 -257.729302 
L 375.685448 -255.886116 
L 374.599647 -254.064043 
L 373.513846 -252.586735 
L 372.428045 -250.785316 
L 371.342244 -248.770578 
L 370.256443 -246.643191 
L 369.170642 -244.46093 
L 368.08484 -242.333626 
L 366.999039 -240.454362 
L 365.913238 -238.384666 
L 364.827437 -236.5018 
L 363.741636 -234.610611 
L 362.655835 -232.853649 
L 361.570033 -230.679282 
L 360.484232 -228.553817 
L 359.398431 -226.587427 
L 358.31263 -223.796908 
L 357.226829 -221.490056 
L 356.141028 -219.20649 
L 355.055227 -216.632312 
L 353.969425 -214.629343 
L 352.883624 -212.530697 
L 351.797823 -210.638827 
L 350.712022 -208.829982 
L 349.626221 -206.473489 
L 348.54042 -204.349343 
L 347.454618 -202.317083 
L 346.368817 -200.577277 
L 345.283016 -198.434643 
L 344.197215 -195.890777 
L 343.111414 -193.242104 
L 342.025613 -190.901339 
L 340.939811 -188.759084 
L 339.85401 -186.681501 
L 338.768209 -184.756787 
L 337.682408 -183.067001 
L 336.596607 -181.025784 
L 335.510806 -178.964487 
L 334.425005 -177.624854 
L 333.339203 -176.36462 
L 332.253402 -174.702052 
L 331.167601 -173.052152 
L 330.0818 -171.859271 
L 328.995999 -170.183283 
L 327.910198 -168.386314 
L 326.824396 -166.774453 
L 325.738595 -165.618731 
L 324.652794 -164.701467 
L 323.566993 -163.990538 
L 322.481192 -163.112355 
L 321.395391 -162.334148 
L 320.30959 -162.037238 
L 319.223788 -161.214338 
L 318.137987 -160.440039 
L 317.052186 -159.753757 
L 315.966385 -159.034177 
L 314.880584 -158.503151 
L 313.794783 -157.955399 
L 312.708981 -157.277412 
L 311.62318 -156.540256 
L 310.537379 -156.091794 
L 309.451578 -155.301513 
L 308.365777 -154.119725 
L 307.279976 -153.440207 
L 306.194175 -153.093278 
L 305.108373 -152.772441 
L 304.022572 -152.226874 
L 302.936771 -151.500538 
L 301.85097 -150.483982 
L 300.765169 -149.632195 
L 299.679368 -148.534569 
L 298.593566 -147.375845 
L 297.507765 -146.696438 
L 296.421964 -145.602849 
L 295.336163 -144.607114 
L 294.250362 -144.014523 
L 293.164561 -143.415902 
L 292.07876 -142.670225 
L 290.992958 -142.063115 
L 289.907157 -141.15591 
L 288.821356 -140.32151 
L 287.735555 -139.796051 
L 286.649754 -138.84054 
L 285.563953 -138.410245 
L 284.478151 -137.841854 
L 283.39235 -137.855755 
L 282.306549 -137.012381 
L 281.220748 -136.68324 
L 280.134947 -136.739954 
L 279.049146 -136.776772 
L 277.963344 -136.887097 
L 276.877543 -136.907507 
L 275.791742 -136.814966 
L 274.705941 -136.288927 
L 273.62014 -135.464849 
L 272.534339 -135.063004 
L 271.448538 -134.919336 
L 270.362736 -133.883513 
L 269.276935 -132.889748 
L 268.191134 -131.820749 
L 267.105333 -130.730454 
L 266.019532 -129.605707 
L 264.933731 -128.408487 
L 263.847929 -127.060581 
L 262.762128 -126.12057 
L 261.676327 -125.26133 
L 260.590526 -124.188428 
L 259.504725 -123.408304 
L 258.418924 -122.564528 
L 257.333123 -121.833988 
L 256.247321 -121.048101 
L 255.16152 -120.486889 
L 254.075719 -119.431866 
L 252.989918 -118.513159 
L 251.904117 -117.793157 
L 250.818316 -116.808783 
L 249.732514 -115.826786 
L 248.646713 -114.604077 
L 247.560912 -113.118825 
L 246.475111 -111.369507 
L 245.38931 -110.207958 
L 244.303509 -109.104501 
L 243.217708 -107.585182 
L 242.131906 -105.553456 
L 241.046105 -103.458862 
L 239.960304 -101.485405 
L 238.874503 -99.728597 
L 237.788702 -98.024097 
L 236.702901 -96.604385 
L 235.617099 -94.771598 
L 234.531298 -93.177467 
L 233.445497 -91.564877 
L 232.359696 -89.899466 
L 231.273895 -88.270069 
L 230.188094 -86.421717 
L 229.102292 -84.793454 
L 228.016491 -83.205876 
L 226.93069 -81.809123 
L 225.844889 -80.491781 
L 224.759088 -79.036394 
L 223.673287 -77.605744 
L 222.587486 -76.271134 
L 221.501684 -75.061462 
L 220.415883 -73.854083 
L 219.330082 -72.400113 
L 218.244281 -71.616316 
L 217.15848 -70.805303 
L 216.072679 -69.256622 
L 214.986877 -68.104708 
L 213.901076 -67.220342 
L 212.815275 -66.359406 
L 211.729474 -65.716568 
L 210.643673 -65.116039 
L 209.557872 -64.6437 
L 208.472071 -64.480143 
L 207.386269 -63.677378 
L 206.300468 -63.396354 
L 205.214667 -63.047465 
L 204.128866 -62.852751 
L 203.043065 -62.703823 
L 201.957264 -62.411538 
L 200.871462 -62.441986 
L 199.785661 -62.580618 
L 198.69986 -62.46762 
L 197.614059 -62.369398 
L 196.528258 -62.321427 
L 195.442457 -62.411994 
L 194.356656 -62.589767 
L 193.270854 -62.549322 
L 192.185053 -62.548314 
L 191.099252 -62.554931 
L 190.013451 -62.450317 
L 188.92765 -62.354848 
L 187.841849 -62.146176 
L 186.756047 -61.878605 
L 185.670246 -61.802285 
L 184.584445 -61.678256 
L 183.498644 -61.892929 
L 182.412843 -62.063849 
L 181.327042 -62.500278 
L 180.24124 -62.570405 
L 179.155439 -62.772851 
L 178.069638 -62.991159 
L 176.983837 -63.0453 
L 175.898036 -62.97754 
L 174.812235 -63.111899 
L 173.726434 -63.071033 
L 172.640632 -62.846279 
L 171.554831 -62.642392 
L 170.46903 -62.433461 
L 169.383229 -62.670904 
L 168.297428 -62.831558 
L 167.211627 -62.664985 
L 166.125825 -62.834057 
L 165.040024 -62.822679 
L 163.954223 -62.804913 
L 162.868422 -62.479506 
L 161.782621 -62.524134 
L 160.69682 -62.589197 
L 159.611019 -62.569194 
L 158.525217 -62.090073 
L 157.439416 -62.017942 
L 156.353615 -61.826782 
L 155.267814 -61.619105 
L 154.182013 -61.404267 
L 153.096212 -61.531743 
L 152.01041 -61.411893 
L 150.924609 -61.204597 
L 149.838808 -61.024788 
L 148.753007 -60.926989 
L 147.667206 -60.709605 
L 146.581405 -60.744539 
L 145.495604 -60.48751 
L 144.409802 -60.427334 
L 143.324001 -60.166295 
L 142.2382 -60.377211 
L 141.152399 -60.535927 
L 140.066598 -60.698845 
L 138.980797 -60.813172 
L 137.894995 -60.841526 
L 136.809194 -61.104314 
L 135.723393 -61.3233 
L 134.637592 -61.534596 
L 133.551791 -61.682003 
L 132.46599 -61.762378 
L 131.380189 -61.866356 
L 130.294387 -61.920806 
L 129.208586 -61.831435 
L 128.122785 -61.877576 
L 127.036984 -61.889688 
L 125.951183 -61.929195 
L 124.865382 -61.852318 
L 123.77958 -62.25052 
L 122.693779 -62.373422 
L 121.607978 -62.596237 
L 120.522177 -62.391247 
L 119.436376 -62.327082 
L 118.350575 -62.152939 
L 117.264773 -62.162158 
L 116.178972 -62.107153 
L 115.093171 -61.901166 
L 114.00737 -61.808229 
L 112.921569 -61.9504 
L 111.835768 -61.989551 
L 110.749967 -61.741062 
L 109.664165 -61.531433 
L 108.578364 -61.782405 
L 107.492563 -61.939773 
L 106.406762 -62.247673 
L 105.320961 -62.346459 
L 104.23516 -62.406664 
L 103.149358 -62.723363 
L 102.063557 -62.675546 
L 100.977756 -62.986118 
L 99.891955 -63.136964 
L 98.806154 -63.613464 
L 97.720353 -63.935029 
L 96.634552 -64.101475 
L 95.54875 -64.484228 
L 94.462949 -65.158238 
L 93.377148 -65.555094 
L 92.291347 -66.248817 
L 91.205546 -66.700312 
L 90.119745 -67.134705 
L 89.033943 -67.547863 
L 87.948142 -68.048632 
L 86.862341 -68.45806 
L 85.77654 -68.646462 
L 84.690739 -68.832168 
L 83.604938 -69.182997 
L 82.519137 -69.630107 
L 81.433335 -69.94436 
L 80.347534 -70.571356 
L 79.261733 -71.252351 
L 78.175932 -71.372651 
L 77.090131 -71.639181 
L 76.00433 -72.019388 
L 74.918528 -72.649961 
L 73.832727 -73.073194 
z
" style="stroke: #ff00ff; stroke-opacity: 0.1"/>
    </defs>
    <g clip-path="url(#pc2457d1940)">
     <use xlink:href="#m11434adb9f" x="0" y="345.6" style="fill: #ff00ff; fill-opacity: 0.1; stroke: #ff00ff; stroke-opacity: 0.1"/>
    </g>
   </g>
   <g id="matplotlib.axis_1">
    <g id="xtick_1">
     <g id="line2d_1">
      <defs>
       <path id="m8786024de2" d="M 0 0 
L 0 3.5 
" style="stroke: #000000; stroke-width: 0.8"/>
      </defs>
      <g>
       <use xlink:href="#m8786024de2" x="73.832727" y="307.584" style="stroke: #000000; stroke-width: 0.8"/>
      </g>
     </g>
     <g id="text_1">
      <!-- −5 -->
      <g transform="translate(66.461634 322.182437) scale(0.1 -0.1)">
       <defs>
        <path id="DejaVuSans-2212" d="M 678 2272 
L 4684 2272 
L 4684 1741 
L 678 1741 
L 678 2272 
z
" transform="scale(0.015625)"/>
        <path id="DejaVuSans-35" d="M 691 4666 
L 3169 4666 
L 3169 4134 
L 1269 4134 
L 1269 2991 
Q 1406 3038 1543 3061 
Q 1681 3084 1819 3084 
Q 2600 3084 3056 2656 
Q 3513 2228 3513 1497 
Q 3513 744 3044 326 
Q 2575 -91 1722 -91 
Q 1428 -91 1123 -41 
Q 819 9 494 109 
L 494 744 
Q 775 591 1075 516 
Q 1375 441 1709 441 
Q 2250 441 2565 725 
Q 2881 1009 2881 1497 
Q 2881 1984 2565 2268 
Q 2250 2553 1709 2553 
Q 1456 2553 1204 2497 
Q 953 2441 691 2322 
L 691 4666 
z
" transform="scale(0.015625)"/>
       </defs>
       <use xlink:href="#DejaVuSans-2212"/>
       <use xlink:href="#DejaVuSans-35" x="83.789062"/>
      </g>
     </g>
    </g>
    <g id="xtick_2">
     <g id="line2d_2">
      <g>
       <use xlink:href="#m8786024de2" x="95.54875" y="307.584" style="stroke: #000000; stroke-width: 0.8"/>
      </g>
     </g>
     <g id="text_2">
      <!-- −4 -->
      <g transform="translate(88.177657 322.182437) scale(0.1 -0.1)">
       <defs>
        <path id="DejaVuSans-34" d="M 2419 4116 
L 825 1625 
L 2419 1625 
L 2419 4116 
z
M 2253 4666 
L 3047 4666 
L 3047 1625 
L 3713 1625 
L 3713 1100 
L 3047 1100 
L 3047 0 
L 2419 0 
L 2419 1100 
L 313 1100 
L 313 1709 
L 2253 4666 
z
" transform="scale(0.015625)"/>
       </defs>
       <use xlink:href="#DejaVuSans-2212"/>
       <use xlink:href="#DejaVuSans-34" x="83.789062"/>
      </g>
     </g>
    </g>
    <g id="xtick_3">
     <g id="line2d_3">
      <g>
       <use xlink:href="#m8786024de2" x="117.264773" y="307.584" style="stroke: #000000; stroke-width: 0.8"/>
      </g>
     </g>
     <g id="text_3">
      <!-- −3 -->
      <g transform="translate(109.89368 322.182437) scale(0.1 -0.1)">
       <defs>
        <path id="DejaVuSans-33" d="M 2597 2516 
Q 3050 2419 3304 2112 
Q 3559 1806 3559 1356 
Q 3559 666 3084 287 
Q 2609 -91 1734 -91 
Q 1441 -91 1130 -33 
Q 819 25 488 141 
L 488 750 
Q 750 597 1062 519 
Q 1375 441 1716 441 
Q 2309 441 2620 675 
Q 2931 909 2931 1356 
Q 2931 1769 2642 2001 
Q 2353 2234 1838 2234 
L 1294 2234 
L 1294 2753 
L 1863 2753 
Q 2328 2753 2575 2939 
Q 2822 3125 2822 3475 
Q 2822 3834 2567 4026 
Q 2313 4219 1838 4219 
Q 1578 4219 1281 4162 
Q 984 4106 628 3988 
L 628 4550 
Q 988 4650 1302 4700 
Q 1616 4750 1894 4750 
Q 2613 4750 3031 4423 
Q 3450 4097 3450 3541 
Q 3450 3153 3228 2886 
Q 3006 2619 2597 2516 
z
" transform="scale(0.015625)"/>
       </defs>
       <use xlink:href="#DejaVuSans-2212"/>
       <use xlink:href="#DejaVuSans-33" x="83.789062"/>
      </g>
     </g>
    </g>
    <g id="xtick_4">
     <g id="line2d_4">
      <g>
       <use xlink:href="#m8786024de2" x="138.980797" y="307.584" style="stroke: #000000; stroke-width: 0.8"/>
      </g>
     </g>
     <g id="text_4">
      <!-- −2 -->
      <g transform="translate(131.609703 322.182437) scale(0.1 -0.1)">
       <defs>
        <path id="DejaVuSans-32" d="M 1228 531 
L 3431 531 
L 3431 0 
L 469 0 
L 469 531 
Q 828 903 1448 1529 
Q 2069 2156 2228 2338 
Q 2531 2678 2651 2914 
Q 2772 3150 2772 3378 
Q 2772 3750 2511 3984 
Q 2250 4219 1831 4219 
Q 1534 4219 1204 4116 
Q 875 4013 500 3803 
L 500 4441 
Q 881 4594 1212 4672 
Q 1544 4750 1819 4750 
Q 2544 4750 2975 4387 
Q 3406 4025 3406 3419 
Q 3406 3131 3298 2873 
Q 3191 2616 2906 2266 
Q 2828 2175 2409 1742 
Q 1991 1309 1228 531 
z
" transform="scale(0.015625)"/>
       </defs>
       <use xlink:href="#DejaVuSans-2212"/>
       <use xlink:href="#DejaVuSans-32" x="83.789062"/>
      </g>
     </g>
    </g>
    <g id="xtick_5">
     <g id="line2d_5">
      <g>
       <use xlink:href="#m8786024de2" x="160.69682" y="307.584" style="stroke: #000000; stroke-width: 0.8"/>
      </g>
     </g>
     <g id="text_5">
      <!-- −1 -->
      <g transform="translate(153.325726 322.182437) scale(0.1 -0.1)">
       <defs>
        <path id="DejaVuSans-31" d="M 794 531 
L 1825 531 
L 1825 4091 
L 703 3866 
L 703 4441 
L 1819 4666 
L 2450 4666 
L 2450 531 
L 3481 531 
L 3481 0 
L 794 0 
L 794 531 
z
" transform="scale(0.015625)"/>
       </defs>
       <use xlink:href="#DejaVuSans-2212"/>
       <use xlink:href="#DejaVuSans-31" x="83.789062"/>
      </g>
     </g>
    </g>
    <g id="xtick_6">
     <g id="line2d_6">
      <g>
       <use xlink:href="#m8786024de2" x="182.412843" y="307.584" style="stroke: #000000; stroke-width: 0.8"/>
      </g>
     </g>
     <g id="text_6">
      <!-- 0 -->
      <g transform="translate(179.231593 322.182437) scale(0.1 -0.1)">
       <defs>
        <path id="DejaVuSans-30" d="M 2034 4250 
Q 1547 4250 1301 3770 
Q 1056 3291 1056 2328 
Q 1056 1369 1301 889 
Q 1547 409 2034 409 
Q 2525 409 2770 889 
Q 3016 1369 3016 2328 
Q 3016 3291 2770 3770 
Q 2525 4250 2034 4250 
z
M 2034 4750 
Q 2819 4750 3233 4129 
Q 3647 3509 3647 2328 
Q 3647 1150 3233 529 
Q 2819 -91 2034 -91 
Q 1250 -91 836 529 
Q 422 1150 422 2328 
Q 422 3509 836 4129 
Q 1250 4750 2034 4750 
z
" transform="scale(0.015625)"/>
       </defs>
       <use xlink:href="#DejaVuSans-30"/>
      </g>
     </g>
    </g>
    <g id="xtick_7">
     <g id="line2d_7">
      <g>
       <use xlink:href="#m8786024de2" x="204.128866" y="307.584" style="stroke: #000000; stroke-width: 0.8"/>
      </g>
     </g>
     <g id="text_7">
      <!-- 1 -->
      <g transform="translate(200.947616 322.182437) scale(0.1 -0.1)">
       <use xlink:href="#DejaVuSans-31"/>
      </g>
     </g>
    </g>
    <g id="xtick_8">
     <g id="line2d_8">
      <g>
       <use xlink:href="#m8786024de2" x="225.844889" y="307.584" style="stroke: #000000; stroke-width: 0.8"/>
      </g>
     </g>
     <g id="text_8">
      <!-- 2 -->
      <g transform="translate(222.663639 322.182437) scale(0.1 -0.1)">
       <use xlink:href="#DejaVuSans-32"/>
      </g>
     </g>
    </g>
    <g id="xtick_9">
     <g id="line2d_9">
      <g>
       <use xlink:href="#m8786024de2" x="247.560912" y="307.584" style="stroke: #000000; stroke-width: 0.8"/>
      </g>
     </g>
     <g id="text_9">
      <!-- 3 -->
      <g transform="translate(244.379662 322.182437) scale(0.1 -0.1)">
       <use xlink:href="#DejaVuSans-33"/>
      </g>
     </g>
    </g>
    <g id="xtick_10">
     <g id="line2d_10">
      <g>
       <use xlink:href="#m8786024de2" x="269.276935" y="307.584" style="stroke: #000000; stroke-width: 0.8"/>
      </g>
     </g>
     <g id="text_10">
      <!-- 4 -->
      <g transform="translate(266.095685 322.182437) scale(0.1 -0.1)">
       <use xlink:href="#DejaVuSans-34"/>
      </g>
     </g>
    </g>
    <g id="xtick_11">
     <g id="line2d_11">
      <g>
       <use xlink:href="#m8786024de2" x="290.992958" y="307.584" style="stroke: #000000; stroke-width: 0.8"/>
      </g>
     </g>
     <g id="text_11">
      <!-- 5 -->
      <g transform="translate(287.811708 322.182437) scale(0.1 -0.1)">
       <use xlink:href="#DejaVuSans-35"/>
      </g>
     </g>
    </g>
    <g id="xtick_12">
     <g id="line2d_12">
      <g>
       <use xlink:href="#m8786024de2" x="312.708981" y="307.584" style="stroke: #000000; stroke-width: 0.8"/>
      </g>
     </g>
     <g id="text_12">
      <!-- 6 -->
      <g transform="translate(309.527731 322.182437) scale(0.1 -0.1)">
       <defs>
        <path id="DejaVuSans-36" d="M 2113 2584 
Q 1688 2584 1439 2293 
Q 1191 2003 1191 1497 
Q 1191 994 1439 701 
Q 1688 409 2113 409 
Q 2538 409 2786 701 
Q 3034 994 3034 1497 
Q 3034 2003 2786 2293 
Q 2538 2584 2113 2584 
z
M 3366 4563 
L 3366 3988 
Q 3128 4100 2886 4159 
Q 2644 4219 2406 4219 
Q 1781 4219 1451 3797 
Q 1122 3375 1075 2522 
Q 1259 2794 1537 2939 
Q 1816 3084 2150 3084 
Q 2853 3084 3261 2657 
Q 3669 2231 3669 1497 
Q 3669 778 3244 343 
Q 2819 -91 2113 -91 
Q 1303 -91 875 529 
Q 447 1150 447 2328 
Q 447 3434 972 4092 
Q 1497 4750 2381 4750 
Q 2619 4750 2861 4703 
Q 3103 4656 3366 4563 
z
" transform="scale(0.015625)"/>
       </defs>
       <use xlink:href="#DejaVuSans-36"/>
      </g>
     </g>
    </g>
    <g id="xtick_13">
     <g id="line2d_13">
      <g>
       <use xlink:href="#m8786024de2" x="334.425005" y="307.584" style="stroke: #000000; stroke-width: 0.8"/>
      </g>
     </g>
     <g id="text_13">
      <!-- 7 -->
      <g transform="translate(331.243755 322.182437) scale(0.1 -0.1)">
       <defs>
        <path id="DejaVuSans-37" d="M 525 4666 
L 3525 4666 
L 3525 4397 
L 1831 0 
L 1172 0 
L 2766 4134 
L 525 4134 
L 525 4666 
z
" transform="scale(0.015625)"/>
       </defs>
       <use xlink:href="#DejaVuSans-37"/>
      </g>
     </g>
    </g>
    <g id="xtick_14">
     <g id="line2d_14">
      <g>
       <use xlink:href="#m8786024de2" x="356.141028" y="307.584" style="stroke: #000000; stroke-width: 0.8"/>
      </g>
     </g>
     <g id="text_14">
      <!-- 8 -->
      <g transform="translate(352.959778 322.182437) scale(0.1 -0.1)">
       <defs>
        <path id="DejaVuSans-38" d="M 2034 2216 
Q 1584 2216 1326 1975 
Q 1069 1734 1069 1313 
Q 1069 891 1326 650 
Q 1584 409 2034 409 
Q 2484 409 2743 651 
Q 3003 894 3003 1313 
Q 3003 1734 2745 1975 
Q 2488 2216 2034 2216 
z
M 1403 2484 
Q 997 2584 770 2862 
Q 544 3141 544 3541 
Q 544 4100 942 4425 
Q 1341 4750 2034 4750 
Q 2731 4750 3128 4425 
Q 3525 4100 3525 3541 
Q 3525 3141 3298 2862 
Q 3072 2584 2669 2484 
Q 3125 2378 3379 2068 
Q 3634 1759 3634 1313 
Q 3634 634 3220 271 
Q 2806 -91 2034 -91 
Q 1263 -91 848 271 
Q 434 634 434 1313 
Q 434 1759 690 2068 
Q 947 2378 1403 2484 
z
M 1172 3481 
Q 1172 3119 1398 2916 
Q 1625 2713 2034 2713 
Q 2441 2713 2670 2916 
Q 2900 3119 2900 3481 
Q 2900 3844 2670 4047 
Q 2441 4250 2034 4250 
Q 1625 4250 1398 4047 
Q 1172 3844 1172 3481 
z
" transform="scale(0.015625)"/>
       </defs>
       <use xlink:href="#DejaVuSans-38"/>
      </g>
     </g>
    </g>
    <g id="xtick_15">
     <g id="line2d_15">
      <g>
       <use xlink:href="#m8786024de2" x="377.857051" y="307.584" style="stroke: #000000; stroke-width: 0.8"/>
      </g>
     </g>
     <g id="text_15">
      <!-- 9 -->
      <g transform="translate(374.675801 322.182437) scale(0.1 -0.1)">
       <defs>
        <path id="DejaVuSans-39" d="M 703 97 
L 703 672 
Q 941 559 1184 500 
Q 1428 441 1663 441 
Q 2288 441 2617 861 
Q 2947 1281 2994 2138 
Q 2813 1869 2534 1725 
Q 2256 1581 1919 1581 
Q 1219 1581 811 2004 
Q 403 2428 403 3163 
Q 403 3881 828 4315 
Q 1253 4750 1959 4750 
Q 2769 4750 3195 4129 
Q 3622 3509 3622 2328 
Q 3622 1225 3098 567 
Q 2575 -91 1691 -91 
Q 1453 -91 1209 -44 
Q 966 3 703 97 
z
M 1959 2075 
Q 2384 2075 2632 2365 
Q 2881 2656 2881 3163 
Q 2881 3666 2632 3958 
Q 2384 4250 1959 4250 
Q 1534 4250 1286 3958 
Q 1038 3666 1038 3163 
Q 1038 2656 1286 2365 
Q 1534 2075 1959 2075 
z
" transform="scale(0.015625)"/>
       </defs>
       <use xlink:href="#DejaVuSans-39"/>
      </g>
     </g>
    </g>
    <g id="xtick_16">
     <g id="line2d_16">
      <g>
       <use xlink:href="#m8786024de2" x="399.573074" y="307.584" style="stroke: #000000; stroke-width: 0.8"/>
      </g>
     </g>
     <g id="text_16">
      <!-- 10 -->
      <g transform="translate(393.210574 322.182437) scale(0.1 -0.1)">
       <use xlink:href="#DejaVuSans-31"/>
       <use xlink:href="#DejaVuSans-30" x="63.623047"/>
      </g>
     </g>
    </g>
    <g id="text_17">
     <!-- Time (s) -->
     <g transform="translate(215.831094 335.860562) scale(0.1 -0.1)">
      <defs>
       <path id="DejaVuSans-54" d="M -19 4666 
L 3928 4666 
L 3928 4134 
L 2272 4134 
L 2272 0 
L 1638 0 
L 1638 4134 
L -19 4134 
L -19 4666 
z
" transform="scale(0.015625)"/>
       <path id="DejaVuSans-69" d="M 603 3500 
L 1178 3500 
L 1178 0 
L 603 0 
L 603 3500 
z
M 603 4863 
L 1178 4863 
L 1178 4134 
L 603 4134 
L 603 4863 
z
" transform="scale(0.015625)"/>
       <path id="DejaVuSans-6d" d="M 3328 2828 
Q 3544 3216 3844 3400 
Q 4144 3584 4550 3584 
Q 5097 3584 5394 3201 
Q 5691 2819 5691 2113 
L 5691 0 
L 5113 0 
L 5113 2094 
Q 5113 2597 4934 2840 
Q 4756 3084 4391 3084 
Q 3944 3084 3684 2787 
Q 3425 2491 3425 1978 
L 3425 0 
L 2847 0 
L 2847 2094 
Q 2847 2600 2669 2842 
Q 2491 3084 2119 3084 
Q 1678 3084 1418 2786 
Q 1159 2488 1159 1978 
L 1159 0 
L 581 0 
L 581 3500 
L 1159 3500 
L 1159 2956 
Q 1356 3278 1631 3431 
Q 1906 3584 2284 3584 
Q 2666 3584 2933 3390 
Q 3200 3197 3328 2828 
z
" transform="scale(0.015625)"/>
       <path id="DejaVuSans-65" d="M 3597 1894 
L 3597 1613 
L 953 1613 
Q 991 1019 1311 708 
Q 1631 397 2203 397 
Q 2534 397 2845 478 
Q 3156 559 3463 722 
L 3463 178 
Q 3153 47 2828 -22 
Q 2503 -91 2169 -91 
Q 1331 -91 842 396 
Q 353 884 353 1716 
Q 353 2575 817 3079 
Q 1281 3584 2069 3584 
Q 2775 3584 3186 3129 
Q 3597 2675 3597 1894 
z
M 3022 2063 
Q 3016 2534 2758 2815 
Q 2500 3097 2075 3097 
Q 1594 3097 1305 2825 
Q 1016 2553 972 2059 
L 3022 2063 
z
" transform="scale(0.015625)"/>
       <path id="DejaVuSans-20" transform="scale(0.015625)"/>
       <path id="DejaVuSans-28" d="M 1984 4856 
Q 1566 4138 1362 3434 
Q 1159 2731 1159 2009 
Q 1159 1288 1364 580 
Q 1569 -128 1984 -844 
L 1484 -844 
Q 1016 -109 783 600 
Q 550 1309 550 2009 
Q 550 2706 781 3412 
Q 1013 4119 1484 4856 
L 1984 4856 
z
" transform="scale(0.015625)"/>
       <path id="DejaVuSans-73" d="M 2834 3397 
L 2834 2853 
Q 2591 2978 2328 3040 
Q 2066 3103 1784 3103 
Q 1356 3103 1142 2972 
Q 928 2841 928 2578 
Q 928 2378 1081 2264 
Q 1234 2150 1697 2047 
L 1894 2003 
Q 2506 1872 2764 1633 
Q 3022 1394 3022 966 
Q 3022 478 2636 193 
Q 2250 -91 1575 -91 
Q 1294 -91 989 -36 
Q 684 19 347 128 
L 347 722 
Q 666 556 975 473 
Q 1284 391 1588 391 
Q 1994 391 2212 530 
Q 2431 669 2431 922 
Q 2431 1156 2273 1281 
Q 2116 1406 1581 1522 
L 1381 1569 
Q 847 1681 609 1914 
Q 372 2147 372 2553 
Q 372 3047 722 3315 
Q 1072 3584 1716 3584 
Q 2034 3584 2315 3537 
Q 2597 3491 2834 3397 
z
" transform="scale(0.015625)"/>
       <path id="DejaVuSans-29" d="M 513 4856 
L 1013 4856 
Q 1481 4119 1714 3412 
Q 1947 2706 1947 2009 
Q 1947 1309 1714 600 
Q 1481 -109 1013 -844 
L 513 -844 
Q 928 -128 1133 580 
Q 1338 1288 1338 2009 
Q 1338 2731 1133 3434 
Q 928 4138 513 4856 
z
" transform="scale(0.015625)"/>
      </defs>
      <use xlink:href="#DejaVuSans-54"/>
      <use xlink:href="#DejaVuSans-69" x="57.958984"/>
      <use xlink:href="#DejaVuSans-6d" x="85.742188"/>
      <use xlink:href="#DejaVuSans-65" x="183.154297"/>
      <use xlink:href="#DejaVuSans-20" x="244.677734"/>
      <use xlink:href="#DejaVuSans-28" x="276.464844"/>
      <use xlink:href="#DejaVuSans-73" x="315.478516"/>
      <use xlink:href="#DejaVuSans-29" x="367.578125"/>
     </g>
    </g>
   </g>
   <g id="matplotlib.axis_2">
    <g id="ytick_1">
     <g id="line2d_17">
      <defs>
       <path id="m711d8f9b1a" d="M 0 0 
L -3.5 0 
" style="stroke: #000000; stroke-width: 0.8"/>
      </defs>
      <g>
       <use xlink:href="#m711d8f9b1a" x="57.6" y="285.019197" style="stroke: #000000; stroke-width: 0.8"/>
      </g>
     </g>
     <g id="text_18">
      <!-- 0 -->
      <g transform="translate(44.2375 288.818415) scale(0.1 -0.1)">
       <use xlink:href="#DejaVuSans-30"/>
      </g>
     </g>
    </g>
    <g id="ytick_2">
     <g id="line2d_18">
      <g>
       <use xlink:href="#m711d8f9b1a" x="57.6" y="254.782386" style="stroke: #000000; stroke-width: 0.8"/>
      </g>
     </g>
     <g id="text_19">
      <!-- 2 -->
      <g transform="translate(44.2375 258.581605) scale(0.1 -0.1)">
       <use xlink:href="#DejaVuSans-32"/>
      </g>
     </g>
    </g>
    <g id="ytick_3">
     <g id="line2d_19">
      <g>
       <use xlink:href="#m711d8f9b1a" x="57.6" y="224.545576" style="stroke: #000000; stroke-width: 0.8"/>
      </g>
     </g>
     <g id="text_20">
      <!-- 4 -->
      <g transform="translate(44.2375 228.344795) scale(0.1 -0.1)">
       <use xlink:href="#DejaVuSans-34"/>
      </g>
     </g>
    </g>
    <g id="ytick_4">
     <g id="line2d_20">
      <g>
       <use xlink:href="#m711d8f9b1a" x="57.6" y="194.308766" style="stroke: #000000; stroke-width: 0.8"/>
      </g>
     </g>
     <g id="text_21">
      <!-- 6 -->
      <g transform="translate(44.2375 198.107984) scale(0.1 -0.1)">
       <use xlink:href="#DejaVuSans-36"/>
      </g>
     </g>
    </g>
    <g id="ytick_5">
     <g id="line2d_21">
      <g>
       <use xlink:href="#m711d8f9b1a" x="57.6" y="164.071955" style="stroke: #000000; stroke-width: 0.8"/>
      </g>
     </g>
     <g id="text_22">
      <!-- 8 -->
      <g transform="translate(44.2375 167.871174) scale(0.1 -0.1)">
       <use xlink:href="#DejaVuSans-38"/>
      </g>
     </g>
    </g>
    <g id="ytick_6">
     <g id="line2d_22">
      <g>
       <use xlink:href="#m711d8f9b1a" x="57.6" y="133.835145" style="stroke: #000000; stroke-width: 0.8"/>
      </g>
     </g>
     <g id="text_23">
      <!-- 10 -->
      <g transform="translate(37.875 137.634364) scale(0.1 -0.1)">
       <use xlink:href="#DejaVuSans-31"/>
       <use xlink:href="#DejaVuSans-30" x="63.623047"/>
      </g>
     </g>
    </g>
    <g id="ytick_7">
     <g id="line2d_23">
      <g>
       <use xlink:href="#m711d8f9b1a" x="57.6" y="103.598335" style="stroke: #000000; stroke-width: 0.8"/>
      </g>
     </g>
     <g id="text_24">
      <!-- 12 -->
      <g transform="translate(37.875 107.397553) scale(0.1 -0.1)">
       <use xlink:href="#DejaVuSans-31"/>
       <use xlink:href="#DejaVuSans-32" x="63.623047"/>
      </g>
     </g>
    </g>
    <g id="ytick_8">
     <g id="line2d_24">
      <g>
       <use xlink:href="#m711d8f9b1a" x="57.6" y="73.361524" style="stroke: #000000; stroke-width: 0.8"/>
      </g>
     </g>
     <g id="text_25">
      <!-- 14 -->
      <g transform="translate(37.875 77.160743) scale(0.1 -0.1)">
       <use xlink:href="#DejaVuSans-31"/>
       <use xlink:href="#DejaVuSans-34" x="63.623047"/>
      </g>
     </g>
    </g>
    <g id="ytick_9">
     <g id="line2d_25">
      <g>
       <use xlink:href="#m711d8f9b1a" x="57.6" y="43.124714" style="stroke: #000000; stroke-width: 0.8"/>
      </g>
     </g>
     <g id="text_26">
      <!-- 16 -->
      <g transform="translate(37.875 46.923933) scale(0.1 -0.1)">
       <use xlink:href="#DejaVuSans-31"/>
       <use xlink:href="#DejaVuSans-36" x="63.623047"/>
      </g>
     </g>
    </g>
    <g id="text_27">
     <!-- Z-Score -->
     <g transform="translate(31.795312 193.67175) rotate(-90) scale(0.1 -0.1)">
      <defs>
       <path id="DejaVuSans-5a" d="M 359 4666 
L 4025 4666 
L 4025 4184 
L 1075 531 
L 4097 531 
L 4097 0 
L 288 0 
L 288 481 
L 3238 4134 
L 359 4134 
L 359 4666 
z
" transform="scale(0.015625)"/>
       <path id="DejaVuSans-2d" d="M 313 2009 
L 1997 2009 
L 1997 1497 
L 313 1497 
L 313 2009 
z
" transform="scale(0.015625)"/>
       <path id="DejaVuSans-53" d="M 3425 4513 
L 3425 3897 
Q 3066 4069 2747 4153 
Q 2428 4238 2131 4238 
Q 1616 4238 1336 4038 
Q 1056 3838 1056 3469 
Q 1056 3159 1242 3001 
Q 1428 2844 1947 2747 
L 2328 2669 
Q 3034 2534 3370 2195 
Q 3706 1856 3706 1288 
Q 3706 609 3251 259 
Q 2797 -91 1919 -91 
Q 1588 -91 1214 -16 
Q 841 59 441 206 
L 441 856 
Q 825 641 1194 531 
Q 1563 422 1919 422 
Q 2459 422 2753 634 
Q 3047 847 3047 1241 
Q 3047 1584 2836 1778 
Q 2625 1972 2144 2069 
L 1759 2144 
Q 1053 2284 737 2584 
Q 422 2884 422 3419 
Q 422 4038 858 4394 
Q 1294 4750 2059 4750 
Q 2388 4750 2728 4690 
Q 3069 4631 3425 4513 
z
" transform="scale(0.015625)"/>
       <path id="DejaVuSans-63" d="M 3122 3366 
L 3122 2828 
Q 2878 2963 2633 3030 
Q 2388 3097 2138 3097 
Q 1578 3097 1268 2742 
Q 959 2388 959 1747 
Q 959 1106 1268 751 
Q 1578 397 2138 397 
Q 2388 397 2633 464 
Q 2878 531 3122 666 
L 3122 134 
Q 2881 22 2623 -34 
Q 2366 -91 2075 -91 
Q 1284 -91 818 406 
Q 353 903 353 1747 
Q 353 2603 823 3093 
Q 1294 3584 2113 3584 
Q 2378 3584 2631 3529 
Q 2884 3475 3122 3366 
z
" transform="scale(0.015625)"/>
       <path id="DejaVuSans-6f" d="M 1959 3097 
Q 1497 3097 1228 2736 
Q 959 2375 959 1747 
Q 959 1119 1226 758 
Q 1494 397 1959 397 
Q 2419 397 2687 759 
Q 2956 1122 2956 1747 
Q 2956 2369 2687 2733 
Q 2419 3097 1959 3097 
z
M 1959 3584 
Q 2709 3584 3137 3096 
Q 3566 2609 3566 1747 
Q 3566 888 3137 398 
Q 2709 -91 1959 -91 
Q 1206 -91 779 398 
Q 353 888 353 1747 
Q 353 2609 779 3096 
Q 1206 3584 1959 3584 
z
" transform="scale(0.015625)"/>
       <path id="DejaVuSans-72" d="M 2631 2963 
Q 2534 3019 2420 3045 
Q 2306 3072 2169 3072 
Q 1681 3072 1420 2755 
Q 1159 2438 1159 1844 
L 1159 0 
L 581 0 
L 581 3500 
L 1159 3500 
L 1159 2956 
Q 1341 3275 1631 3429 
Q 1922 3584 2338 3584 
Q 2397 3584 2469 3576 
Q 2541 3569 2628 3553 
L 2631 2963 
z
" transform="scale(0.015625)"/>
      </defs>
      <use xlink:href="#DejaVuSans-5a"/>
      <use xlink:href="#DejaVuSans-2d" x="66.755859"/>
      <use xlink:href="#DejaVuSans-53" x="102.839844"/>
      <use xlink:href="#DejaVuSans-63" x="166.316406"/>
      <use xlink:href="#DejaVuSans-6f" x="221.296875"/>
      <use xlink:href="#DejaVuSans-72" x="282.478516"/>
      <use xlink:href="#DejaVuSans-65" x="321.341797"/>
     </g>
    </g>
   </g>
   <g id="line2d_26">
    <path d="M 73.832727 277.540434 
L 74.918528 277.813761 
L 76.00433 278.290393 
L 77.090131 278.544785 
L 79.261733 278.679769 
L 81.433335 279.649825 
L 82.519137 279.855839 
L 84.690739 280.480312 
L 86.862341 280.715082 
L 89.033943 281.44941 
L 92.291347 282.466146 
L 93.377148 283.081199 
L 94.462949 283.391726 
L 95.54875 284.055638 
L 96.634552 284.403179 
L 97.720353 284.531222 
L 98.806154 284.771252 
L 99.891955 285.28169 
L 100.977756 285.381438 
L 102.063557 285.650875 
L 103.149358 285.438423 
L 104.23516 285.700729 
L 105.320961 285.577278 
L 106.406762 285.610012 
L 107.492563 285.889248 
L 109.664165 286.223357 
L 111.835768 285.783884 
L 115.093171 285.834899 
L 116.178972 285.652072 
L 120.522177 285.411216 
L 121.607978 285.194639 
L 123.77958 285.543788 
L 124.865382 285.960966 
L 127.036984 285.926211 
L 129.208586 285.992225 
L 130.294387 285.881396 
L 132.46599 286.063989 
L 136.809194 286.737859 
L 137.894995 286.979993 
L 140.066598 287.147686 
L 143.324001 287.57423 
L 144.409802 287.286169 
L 145.495604 287.212656 
L 146.581405 286.986578 
L 147.667206 287.010809 
L 148.753007 286.807625 
L 150.924609 286.624772 
L 153.096212 286.381486 
L 154.182013 286.543064 
L 157.439416 286.205466 
L 158.525217 286.174169 
L 159.611019 285.889006 
L 162.868422 286.332574 
L 163.954223 286.199964 
L 166.125825 286.307189 
L 167.211627 286.533749 
L 168.297428 286.417753 
L 170.46903 286.860219 
L 173.726434 286.42023 
L 174.812235 286.493613 
L 175.898036 286.759671 
L 178.069638 286.910166 
L 180.24124 287.555127 
L 181.327042 287.727491 
L 182.412843 288.413659 
L 184.584445 289.196425 
L 186.756047 289.230503 
L 187.841849 288.953413 
L 190.013451 288.717191 
L 191.099252 288.651877 
L 195.442457 288.993493 
L 196.528258 289.128691 
L 198.69986 289.124664 
L 199.785661 289.004436 
L 200.871462 289.234232 
L 201.957264 289.338231 
L 204.128866 288.879186 
L 205.214667 288.728276 
L 206.300468 288.354275 
L 207.386269 288.112572 
L 208.472071 287.361966 
L 209.557872 287.262432 
L 212.815275 285.912304 
L 214.986877 284.604578 
L 216.072679 283.859454 
L 217.15848 282.797127 
L 219.330082 281.886039 
L 220.415883 281.024078 
L 221.501684 280.403797 
L 226.93069 276.331098 
L 229.102292 274.847194 
L 233.445497 271.281553 
L 235.617099 269.705739 
L 236.702901 268.783674 
L 237.788702 268.118021 
L 239.960304 266.225743 
L 242.131906 263.86097 
L 243.217708 262.64739 
L 244.303509 261.78986 
L 245.38931 261.163309 
L 246.475111 260.343826 
L 248.646713 258.238287 
L 251.904117 256.118979 
L 252.989918 255.593827 
L 255.16152 254.195686 
L 256.247321 253.74931 
L 261.676327 250.624353 
L 263.847929 249.248581 
L 266.019532 247.502241 
L 270.362736 244.797501 
L 271.448538 244.079614 
L 272.534339 244.034578 
L 273.62014 243.675133 
L 274.705941 243.079905 
L 275.791742 242.656216 
L 276.877543 242.407093 
L 280.134947 242.105839 
L 281.220748 241.991388 
L 282.306549 241.585147 
L 283.39235 241.04348 
L 284.478151 240.890234 
L 285.563953 240.336107 
L 286.649754 240.019625 
L 287.735555 239.332672 
L 288.821356 238.970933 
L 293.164561 236.65987 
L 295.336163 235.806231 
L 297.507765 234.276677 
L 298.593566 233.746338 
L 300.765169 232.217411 
L 304.022572 230.509369 
L 305.108373 230.149633 
L 307.279976 229.743473 
L 308.365777 229.272481 
L 309.451578 228.433807 
L 310.537379 227.974966 
L 311.62318 227.721062 
L 319.223788 224.816846 
L 320.30959 224.309438 
L 321.395391 224.084531 
L 323.566993 223.021232 
L 325.738595 222.050619 
L 326.824396 221.406652 
L 330.0818 218.546582 
L 331.167601 217.841046 
L 333.339203 215.923639 
L 335.510806 214.371675 
L 337.682408 211.776182 
L 339.85401 209.503953 
L 342.025613 207.077147 
L 343.111414 205.685732 
L 345.283016 202.623396 
L 349.626221 197.67671 
L 350.712022 196.214674 
L 352.883624 193.680232 
L 355.055227 191.078598 
L 356.141028 189.40916 
L 358.31263 186.439439 
L 359.398431 184.599771 
L 361.570033 182.058931 
L 362.655835 180.647474 
L 364.827437 178.319705 
L 369.170642 173.153508 
L 372.428045 169.133779 
L 375.685448 165.837377 
L 377.857051 163.450118 
L 380.028653 161.255701 
L 383.286057 158.583137 
L 387.629261 153.114487 
L 389.800863 150.333596 
L 390.886665 149.266539 
L 391.972466 148.63843 
L 395.229869 145.8554 
L 396.31567 145.279117 
L 397.401472 144.333266 
L 398.487273 143.541246 
L 398.487273 143.541246 
" clip-path="url(#pc2457d1940)" style="fill: none; stroke: #ff00ff; stroke-width: 1.5; stroke-linecap: square"/>
   </g>
   <g id="line2d_27">
    <path d="M 182.412843 307.584 
L 182.412843 41.472 
" clip-path="url(#pc2457d1940)" style="fill: none; stroke: #000000; stroke-width: 1.5; stroke-linecap: square"/>
   </g>
   <g id="patch_3">
    <path d="M 57.6 307.584 
L 57.6 41.472 
" style="fill: none; stroke: #000000; stroke-width: 0.8; stroke-linejoin: miter; stroke-linecap: square"/>
   </g>
   <g id="patch_4">
    <path d="M 414.72 307.584 
L 414.72 41.472 
" style="fill: none; stroke: #000000; stroke-width: 0.8; stroke-linejoin: miter; stroke-linecap: square"/>
   </g>
   <g id="patch_5">
    <path d="M 57.6 307.584 
L 414.72 307.584 
" style="fill: none; stroke: #000000; stroke-width: 0.8; stroke-linejoin: miter; stroke-linecap: square"/>
   </g>
   <g id="patch_6">
    <path d="M 57.6 41.472 
L 414.72 41.472 
" style="fill: none; stroke: #000000; stroke-width: 0.8; stroke-linejoin: miter; stroke-linecap: square"/>
   </g>
   <g id="text_28">
    <!-- Event 17_p=0.163 -->
    <g transform="translate(180.415312 35.472) scale(0.12 -0.12)">
     <defs>
      <path id="DejaVuSans-45" d="M 628 4666 
L 3578 4666 
L 3578 4134 
L 1259 4134 
L 1259 2753 
L 3481 2753 
L 3481 2222 
L 1259 2222 
L 1259 531 
L 3634 531 
L 3634 0 
L 628 0 
L 628 4666 
z
" transform="scale(0.015625)"/>
      <path id="DejaVuSans-76" d="M 191 3500 
L 800 3500 
L 1894 563 
L 2988 3500 
L 3597 3500 
L 2284 0 
L 1503 0 
L 191 3500 
z
" transform="scale(0.015625)"/>
      <path id="DejaVuSans-6e" d="M 3513 2113 
L 3513 0 
L 2938 0 
L 2938 2094 
Q 2938 2591 2744 2837 
Q 2550 3084 2163 3084 
Q 1697 3084 1428 2787 
Q 1159 2491 1159 1978 
L 1159 0 
L 581 0 
L 581 3500 
L 1159 3500 
L 1159 2956 
Q 1366 3272 1645 3428 
Q 1925 3584 2291 3584 
Q 2894 3584 3203 3211 
Q 3513 2838 3513 2113 
z
" transform="scale(0.015625)"/>
      <path id="DejaVuSans-74" d="M 1172 4494 
L 1172 3500 
L 2356 3500 
L 2356 3053 
L 1172 3053 
L 1172 1153 
Q 1172 725 1289 603 
Q 1406 481 1766 481 
L 2356 481 
L 2356 0 
L 1766 0 
Q 1100 0 847 248 
Q 594 497 594 1153 
L 594 3053 
L 172 3053 
L 172 3500 
L 594 3500 
L 594 4494 
L 1172 4494 
z
" transform="scale(0.015625)"/>
      <path id="DejaVuSans-5f" d="M 3263 -1063 
L 3263 -1509 
L -63 -1509 
L -63 -1063 
L 3263 -1063 
z
" transform="scale(0.015625)"/>
      <path id="DejaVuSans-70" d="M 1159 525 
L 1159 -1331 
L 581 -1331 
L 581 3500 
L 1159 3500 
L 1159 2969 
Q 1341 3281 1617 3432 
Q 1894 3584 2278 3584 
Q 2916 3584 3314 3078 
Q 3713 2572 3713 1747 
Q 3713 922 3314 415 
Q 2916 -91 2278 -91 
Q 1894 -91 1617 61 
Q 1341 213 1159 525 
z
M 3116 1747 
Q 3116 2381 2855 2742 
Q 2594 3103 2138 3103 
Q 1681 3103 1420 2742 
Q 1159 2381 1159 1747 
Q 1159 1113 1420 752 
Q 1681 391 2138 391 
Q 2594 391 2855 752 
Q 3116 1113 3116 1747 
z
" transform="scale(0.015625)"/>
      <path id="DejaVuSans-3d" d="M 678 2906 
L 4684 2906 
L 4684 2381 
L 678 2381 
L 678 2906 
z
M 678 1631 
L 4684 1631 
L 4684 1100 
L 678 1100 
L 678 1631 
z
" transform="scale(0.015625)"/>
      <path id="DejaVuSans-2e" d="M 684 794 
L 1344 794 
L 1344 0 
L 684 0 
L 684 794 
z
" transform="scale(0.015625)"/>
     </defs>
     <use xlink:href="#DejaVuSans-45"/>
     <use xlink:href="#DejaVuSans-76" x="63.183594"/>
     <use xlink:href="#DejaVuSans-65" x="122.363281"/>
     <use xlink:href="#DejaVuSans-6e" x="183.886719"/>
     <use xlink:href="#DejaVuSans-74" x="247.265625"/>
     <use xlink:href="#DejaVuSans-20" x="286.474609"/>
     <use xlink:href="#DejaVuSans-31" x="318.261719"/>
     <use xlink:href="#DejaVuSans-37" x="381.884766"/>
     <use xlink:href="#DejaVuSans-5f" x="445.507812"/>
     <use xlink:href="#DejaVuSans-70" x="495.507812"/>
     <use xlink:href="#DejaVuSans-3d" x="558.984375"/>
     <use xlink:href="#DejaVuSans-30" x="642.773438"/>
     <use xlink:href="#DejaVuSans-2e" x="706.396484"/>
     <use xlink:href="#DejaVuSans-31" x="738.183594"/>
     <use xlink:href="#DejaVuSans-36" x="801.806641"/>
     <use xlink:href="#DejaVuSans-33" x="865.429688"/>
    </g>
   </g>
  </g>
 </g>
 <defs>
  <clipPath id="pc2457d1940">
   <rect x="57.6" y="41.472" width="357.12" height="266.112"/>
  </clipPath>
 </defs>
</svg>
