<?xml version="1.0" encoding="utf-8" standalone="no"?>
<!DOCTYPE svg PUBLIC "-//W3C//DTD SVG 1.1//EN"
  "http://www.w3.org/Graphics/SVG/1.1/DTD/svg11.dtd">
<svg xmlns:xlink="http://www.w3.org/1999/xlink" width="460.8pt" height="345.6pt" viewBox="0 0 460.8 345.6" xmlns="http://www.w3.org/2000/svg" version="1.1">
 <metadata>
  <rdf:RDF xmlns:dc="http://purl.org/dc/elements/1.1/" xmlns:cc="http://creativecommons.org/ns#" xmlns:rdf="http://www.w3.org/1999/02/22-rdf-syntax-ns#">
   <cc:Work>
    <dc:type rdf:resource="http://purl.org/dc/dcmitype/StillImage"/>
    <dc:date>2024-11-12T22:27:49.710958</dc:date>
    <dc:format>image/svg+xml</dc:format>
    <dc:creator>
     <cc:Agent>
      <dc:title>Matplotlib v3.8.2, https://matplotlib.org/</dc:title>
     </cc:Agent>
    </dc:creator>
   </cc:Work>
  </rdf:RDF>
 </metadata>
 <defs>
  <style type="text/css">*{stroke-linejoin: round; stroke-linecap: butt}</style>
 </defs>
 <g id="figure_1">
  <g id="patch_1">
   <path d="M 0 345.6 
L 460.8 345.6 
L 460.8 0 
L 0 0 
z
" style="fill: #ffffff"/>
  </g>
  <g id="axes_1">
   <g id="patch_2">
    <path d="M 57.6 307.584 
L 414.72 307.584 
L 414.72 41.472 
L 57.6 41.472 
z
" style="fill: #ffffff"/>
   </g>
   <g id="PolyCollection_1">
    <defs>
     <path id="ma86b92dcad" d="M 73.832727 -158.831811 
L 73.832727 -103.964789 
L 74.918528 -102.973825 
L 76.00433 -101.70775 
L 77.090131 -100.226865 
L 78.175932 -100.127036 
L 79.261733 -99.813891 
L 80.347534 -98.696912 
L 81.433335 -98.105157 
L 82.519137 -97.093634 
L 83.604938 -96.087727 
L 84.690739 -95.314542 
L 85.77654 -95.140064 
L 86.862341 -94.315106 
L 87.948142 -93.780406 
L 89.033943 -94.069088 
L 90.119745 -94.298376 
L 91.205546 -94.500684 
L 92.291347 -95.675946 
L 93.377148 -95.759346 
L 94.462949 -95.394747 
L 95.54875 -96.155269 
L 96.634552 -97.323142 
L 97.720353 -97.935897 
L 98.806154 -98.948191 
L 99.891955 -99.468752 
L 100.977756 -99.166839 
L 102.063557 -100.265216 
L 103.149358 -99.901027 
L 104.23516 -99.76661 
L 105.320961 -99.880018 
L 106.406762 -99.361395 
L 107.492563 -100.092353 
L 108.578364 -99.645385 
L 109.664165 -99.927143 
L 110.749967 -100.073219 
L 111.835768 -101.23349 
L 112.921569 -102.211658 
L 114.00737 -101.593847 
L 115.093171 -101.926824 
L 116.178972 -102.805704 
L 117.264773 -103.431259 
L 118.350575 -103.548475 
L 119.436376 -103.193937 
L 120.522177 -104.713653 
L 121.607978 -105.345855 
L 122.693779 -106.789854 
L 123.77958 -107.910881 
L 124.865382 -110.788708 
L 125.951183 -112.140816 
L 127.036984 -113.352367 
L 128.122785 -117.141237 
L 129.208586 -119.685899 
L 130.294387 -122.418665 
L 131.380189 -125.519289 
L 132.46599 -126.61495 
L 133.551791 -128.472143 
L 134.637592 -131.005589 
L 135.723393 -134.178385 
L 136.809194 -137.52732 
L 137.894995 -140.080995 
L 138.980797 -142.598087 
L 140.066598 -145.119374 
L 141.152399 -147.337867 
L 142.2382 -148.676424 
L 143.324001 -149.655853 
L 144.409802 -151.383292 
L 145.495604 -153.17217 
L 146.581405 -154.48835 
L 147.667206 -156.545393 
L 148.753007 -157.120837 
L 149.838808 -158.689255 
L 150.924609 -160.304954 
L 152.01041 -161.845488 
L 153.096212 -163.564246 
L 154.182013 -163.888182 
L 155.267814 -163.632784 
L 156.353615 -163.733692 
L 157.439416 -164.006664 
L 158.525217 -163.483512 
L 159.611019 -163.548714 
L 160.69682 -162.613675 
L 161.782621 -162.254023 
L 162.868422 -162.120826 
L 163.954223 -161.195922 
L 165.040024 -160.947079 
L 166.125825 -160.374097 
L 167.211627 -160.95955 
L 168.297428 -160.896851 
L 169.383229 -160.807593 
L 170.46903 -161.458184 
L 171.554831 -159.797629 
L 172.640632 -159.357375 
L 173.726434 -158.12526 
L 174.812235 -156.703577 
L 175.898036 -155.582108 
L 176.983837 -153.467369 
L 178.069638 -152.543245 
L 179.155439 -150.108738 
L 180.24124 -148.718474 
L 181.327042 -146.388622 
L 182.412843 -142.854497 
L 183.498644 -140.766893 
L 184.584445 -138.271332 
L 185.670246 -135.697085 
L 186.756047 -134.669052 
L 187.841849 -131.7191 
L 188.92765 -129.995174 
L 190.013451 -127.191612 
L 191.099252 -124.116369 
L 192.185053 -120.670711 
L 193.270854 -116.739462 
L 194.356656 -113.965171 
L 195.442457 -111.886943 
L 196.528258 -109.18403 
L 197.614059 -106.300491 
L 198.69986 -103.926594 
L 199.785661 -101.236919 
L 200.871462 -98.893022 
L 201.957264 -95.132072 
L 203.043065 -91.646984 
L 204.128866 -89.544118 
L 205.214667 -87.307044 
L 206.300468 -85.028843 
L 207.386269 -84.389822 
L 208.472071 -81.754982 
L 209.557872 -78.825988 
L 210.643673 -76.384665 
L 211.729474 -75.448305 
L 212.815275 -73.205076 
L 213.901076 -70.547677 
L 214.986877 -67.439173 
L 216.072679 -65.006941 
L 217.15848 -63.479709 
L 218.244281 -62.424657 
L 219.330082 -61.402662 
L 220.415883 -59.875983 
L 221.501684 -59.368565 
L 222.587486 -58.049785 
L 223.673287 -56.589564 
L 224.759088 -54.67962 
L 225.844889 -52.982523 
L 226.93069 -52.805003 
L 228.016491 -52.085006 
L 229.102292 -51.336466 
L 230.188094 -51.059728 
L 231.273895 -50.450711 
L 232.359696 -50.22758 
L 233.445497 -50.112 
L 234.531298 -51.04994 
L 235.617099 -51.840069 
L 236.702901 -52.763388 
L 237.788702 -53.007559 
L 238.874503 -52.879332 
L 239.960304 -53.87286 
L 241.046105 -53.384756 
L 242.131906 -54.510276 
L 243.217708 -54.287561 
L 244.303509 -54.865369 
L 245.38931 -55.692268 
L 246.475111 -57.59028 
L 247.560912 -59.720866 
L 248.646713 -61.197921 
L 249.732514 -63.221351 
L 250.818316 -63.657413 
L 251.904117 -65.732142 
L 252.989918 -68.317604 
L 254.075719 -69.982992 
L 255.16152 -71.540345 
L 256.247321 -73.793109 
L 257.333123 -76.872966 
L 258.418924 -79.567849 
L 259.504725 -81.209624 
L 260.590526 -83.547415 
L 261.676327 -85.533924 
L 262.762128 -88.256377 
L 263.847929 -89.551746 
L 264.933731 -90.578724 
L 266.019532 -93.04442 
L 267.105333 -95.415781 
L 268.191134 -97.189915 
L 269.276935 -99.532804 
L 270.362736 -100.27295 
L 271.448538 -99.974224 
L 272.534339 -100.669869 
L 273.62014 -103.247485 
L 274.705941 -104.749998 
L 275.791742 -105.841514 
L 276.877543 -107.612734 
L 277.963344 -109.345808 
L 279.049146 -111.478318 
L 280.134947 -114.289181 
L 281.220748 -115.831492 
L 282.306549 -116.72056 
L 283.39235 -117.955792 
L 284.478151 -119.18753 
L 285.563953 -120.183898 
L 286.649754 -121.976981 
L 287.735555 -123.988631 
L 288.821356 -127.305781 
L 289.907157 -129.444736 
L 290.992958 -130.463392 
L 292.07876 -132.107334 
L 293.164561 -134.122371 
L 294.250362 -135.159403 
L 295.336163 -137.504184 
L 296.421964 -139.197107 
L 297.507765 -141.353399 
L 298.593566 -142.274566 
L 299.679368 -143.124184 
L 300.765169 -144.013296 
L 301.85097 -145.116586 
L 302.936771 -146.92094 
L 304.022572 -148.938623 
L 305.108373 -151.353914 
L 306.194175 -153.073393 
L 307.279976 -154.882439 
L 308.365777 -156.869468 
L 309.451578 -159.172561 
L 310.537379 -160.801514 
L 311.62318 -162.86608 
L 312.708981 -165.300346 
L 313.794783 -167.134464 
L 314.880584 -169.353746 
L 315.966385 -170.556246 
L 317.052186 -171.893335 
L 318.137987 -173.998169 
L 319.223788 -175.163083 
L 320.30959 -177.441917 
L 321.395391 -178.387723 
L 322.481192 -178.940388 
L 323.566993 -179.827274 
L 324.652794 -180.98498 
L 325.738595 -182.216498 
L 326.824396 -182.110828 
L 327.910198 -183.571943 
L 328.995999 -183.813367 
L 330.0818 -184.489113 
L 331.167601 -185.49718 
L 332.253402 -185.533188 
L 333.339203 -185.288536 
L 334.425005 -185.986451 
L 335.510806 -187.436617 
L 336.596607 -188.453178 
L 337.682408 -188.298246 
L 338.768209 -188.244074 
L 339.85401 -188.061623 
L 340.939811 -188.209903 
L 342.025613 -188.841134 
L 343.111414 -190.041333 
L 344.197215 -189.450157 
L 345.283016 -189.625234 
L 346.368817 -189.154585 
L 347.454618 -188.894665 
L 348.54042 -188.891506 
L 349.626221 -190.030501 
L 350.712022 -190.137551 
L 351.797823 -190.500132 
L 352.883624 -190.241482 
L 353.969425 -190.673411 
L 355.055227 -190.940297 
L 356.141028 -191.501088 
L 357.226829 -191.05132 
L 358.31263 -191.582823 
L 359.398431 -190.601386 
L 360.484232 -190.094385 
L 361.570033 -189.306772 
L 362.655835 -188.706441 
L 363.741636 -188.469994 
L 364.827437 -187.450661 
L 365.913238 -187.992408 
L 366.999039 -187.39919 
L 368.08484 -186.457291 
L 369.170642 -185.951284 
L 370.256443 -185.981168 
L 371.342244 -185.579687 
L 372.428045 -184.895702 
L 373.513846 -184.386469 
L 374.599647 -182.715724 
L 375.685448 -181.401668 
L 376.77125 -180.987822 
L 377.857051 -180.220988 
L 378.942852 -179.413762 
L 380.028653 -178.405424 
L 381.114454 -177.534606 
L 382.200255 -175.471675 
L 383.286057 -173.902782 
L 384.371858 -173.115516 
L 385.457659 -174.342424 
L 386.54346 -173.397158 
L 387.629261 -173.187632 
L 388.715062 -172.501704 
L 389.800863 -171.919132 
L 390.886665 -171.889866 
L 391.972466 -172.114998 
L 393.058267 -172.563547 
L 394.144068 -174.324913 
L 395.229869 -173.736258 
L 396.31567 -174.71097 
L 397.401472 -175.119009 
L 398.487273 -175.004704 
L 398.487273 -292.032 
L 398.487273 -292.032 
L 397.401472 -291.880368 
L 396.31567 -290.621826 
L 395.229869 -289.373722 
L 394.144068 -289.115241 
L 393.058267 -287.848585 
L 391.972466 -286.703438 
L 390.886665 -286.354978 
L 389.800863 -285.670747 
L 388.715062 -285.485544 
L 387.629261 -285.139607 
L 386.54346 -284.123726 
L 385.457659 -283.388041 
L 384.371858 -281.912046 
L 383.286057 -281.630187 
L 382.200255 -281.037882 
L 381.114454 -280.589969 
L 380.028653 -279.720146 
L 378.942852 -278.856167 
L 377.857051 -278.744916 
L 376.77125 -278.704142 
L 375.685448 -278.595235 
L 374.599647 -278.403403 
L 373.513846 -278.357309 
L 372.428045 -277.844897 
L 371.342244 -276.691475 
L 370.256443 -275.239074 
L 369.170642 -273.533412 
L 368.08484 -272.266818 
L 366.999039 -271.194094 
L 365.913238 -270.103665 
L 364.827437 -268.20926 
L 363.741636 -266.817817 
L 362.655835 -265.380224 
L 361.570033 -263.782078 
L 360.484232 -262.349871 
L 359.398431 -260.841965 
L 358.31263 -260.084255 
L 357.226829 -257.295839 
L 356.141028 -255.948787 
L 355.055227 -253.9312 
L 353.969425 -252.292173 
L 352.883624 -250.768511 
L 351.797823 -249.973867 
L 350.712022 -249.374117 
L 349.626221 -248.878524 
L 348.54042 -246.930952 
L 347.454618 -247.018608 
L 346.368817 -247.038505 
L 345.283016 -247.492418 
L 344.197215 -246.831363 
L 343.111414 -246.114059 
L 342.025613 -244.253178 
L 340.939811 -242.623543 
L 339.85401 -241.458699 
L 338.768209 -240.712184 
L 337.682408 -239.508807 
L 336.596607 -238.792059 
L 335.510806 -236.807054 
L 334.425005 -234.493742 
L 333.339203 -233.732882 
L 332.253402 -233.483601 
L 331.167601 -233.648342 
L 330.0818 -232.166843 
L 328.995999 -232.29741 
L 327.910198 -231.983989 
L 326.824396 -231.233241 
L 325.738595 -231.306771 
L 324.652794 -229.653984 
L 323.566993 -228.654195 
L 322.481192 -227.945569 
L 321.395391 -227.425242 
L 320.30959 -228.437978 
L 319.223788 -227.287156 
L 318.137987 -226.533895 
L 317.052186 -225.307912 
L 315.966385 -225.148197 
L 314.880584 -225.081365 
L 313.794783 -223.159134 
L 312.708981 -222.923472 
L 311.62318 -222.236658 
L 310.537379 -221.530391 
L 309.451578 -220.519158 
L 308.365777 -219.245413 
L 307.279976 -216.95579 
L 306.194175 -216.204993 
L 305.108373 -214.580451 
L 304.022572 -212.450441 
L 302.936771 -210.647764 
L 301.85097 -209.989489 
L 300.765169 -208.628847 
L 299.679368 -207.606872 
L 298.593566 -207.190287 
L 297.507765 -206.372697 
L 296.421964 -204.327145 
L 295.336163 -202.708973 
L 294.250362 -200.911184 
L 293.164561 -199.998072 
L 292.07876 -198.214231 
L 290.992958 -196.291454 
L 289.907157 -195.638378 
L 288.821356 -193.171062 
L 287.735555 -190.015826 
L 286.649754 -187.821623 
L 285.563953 -185.582655 
L 284.478151 -184.020145 
L 283.39235 -182.182596 
L 282.306549 -180.391329 
L 281.220748 -178.186758 
L 280.134947 -176.770258 
L 279.049146 -173.89769 
L 277.963344 -172.120378 
L 276.877543 -170.595669 
L 275.791742 -168.753452 
L 274.705941 -167.756271 
L 273.62014 -166.009297 
L 272.534339 -164.389215 
L 271.448538 -164.166382 
L 270.362736 -164.572523 
L 269.276935 -163.656267 
L 268.191134 -162.509091 
L 267.105333 -161.716072 
L 266.019532 -160.998077 
L 264.933731 -159.546625 
L 263.847929 -159.298736 
L 262.762128 -158.311392 
L 261.676327 -156.903254 
L 260.590526 -155.464602 
L 259.504725 -154.471814 
L 258.418924 -153.269798 
L 257.333123 -151.348481 
L 256.247321 -148.9324 
L 255.16152 -147.193148 
L 254.075719 -145.693568 
L 252.989918 -143.623807 
L 251.904117 -141.273774 
L 250.818316 -139.116377 
L 249.732514 -138.36372 
L 248.646713 -136.23514 
L 247.560912 -134.662146 
L 246.475111 -133.077001 
L 245.38931 -131.377768 
L 244.303509 -130.201368 
L 243.217708 -129.876984 
L 242.131906 -129.6265 
L 241.046105 -129.111399 
L 239.960304 -129.633838 
L 238.874503 -128.98955 
L 237.788702 -129.055405 
L 236.702901 -128.656695 
L 235.617099 -128.255585 
L 234.531298 -127.753394 
L 233.445497 -126.900199 
L 232.359696 -127.635348 
L 231.273895 -127.30342 
L 230.188094 -126.891475 
L 229.102292 -126.472089 
L 228.016491 -126.289034 
L 226.93069 -126.122376 
L 225.844889 -125.730183 
L 224.759088 -126.720002 
L 223.673287 -128.109851 
L 222.587486 -128.496807 
L 221.501684 -129.381832 
L 220.415883 -129.110499 
L 219.330082 -129.705794 
L 218.244281 -129.819494 
L 217.15848 -130.456701 
L 216.072679 -130.494464 
L 214.986877 -131.988247 
L 213.901076 -133.656469 
L 212.815275 -135.281573 
L 211.729474 -136.788339 
L 210.643673 -136.728377 
L 209.557872 -138.324866 
L 208.472071 -139.765901 
L 207.386269 -140.653845 
L 206.300468 -140.450255 
L 205.214667 -142.242887 
L 204.128866 -143.852006 
L 203.043065 -145.874429 
L 201.957264 -148.420234 
L 200.871462 -151.078434 
L 199.785661 -153.034693 
L 198.69986 -155.362047 
L 197.614059 -157.281697 
L 196.528258 -159.681657 
L 195.442457 -161.79942 
L 194.356656 -164.419074 
L 193.270854 -167.011247 
L 192.185053 -170.04083 
L 191.099252 -173.188953 
L 190.013451 -176.64365 
L 188.92765 -179.474308 
L 187.841849 -181.833699 
L 186.756047 -183.859445 
L 185.670246 -185.078514 
L 184.584445 -186.951224 
L 183.498644 -188.438819 
L 182.412843 -189.895391 
L 181.327042 -193.171517 
L 180.24124 -194.872463 
L 179.155439 -196.34519 
L 178.069638 -197.51924 
L 176.983837 -198.457432 
L 175.898036 -199.602843 
L 174.812235 -199.92967 
L 173.726434 -200.480489 
L 172.640632 -200.892641 
L 171.554831 -200.775065 
L 170.46903 -201.67697 
L 169.383229 -200.790358 
L 168.297428 -201.399178 
L 167.211627 -200.961643 
L 166.125825 -199.899151 
L 165.040024 -200.088544 
L 163.954223 -199.854345 
L 162.868422 -199.56596 
L 161.782621 -198.794356 
L 160.69682 -198.142757 
L 159.611019 -198.167857 
L 158.525217 -197.879758 
L 157.439416 -197.513948 
L 156.353615 -196.772121 
L 155.267814 -196.383853 
L 154.182013 -195.780097 
L 153.096212 -195.422182 
L 152.01041 -193.591908 
L 150.924609 -191.920784 
L 149.838808 -189.722456 
L 148.753007 -188.269437 
L 147.667206 -187.224247 
L 146.581405 -185.04772 
L 145.495604 -182.603213 
L 144.409802 -180.281561 
L 143.324001 -178.127991 
L 142.2382 -176.177582 
L 141.152399 -174.205865 
L 140.066598 -170.598107 
L 138.980797 -167.561826 
L 137.894995 -164.431793 
L 136.809194 -161.750122 
L 135.723393 -157.26085 
L 134.637592 -154.576589 
L 133.551791 -152.358932 
L 132.46599 -150.160167 
L 131.380189 -148.259583 
L 130.294387 -145.472186 
L 129.208586 -142.743542 
L 128.122785 -139.810989 
L 127.036984 -137.182654 
L 125.951183 -134.602446 
L 124.865382 -132.502226 
L 123.77958 -130.2706 
L 122.693779 -128.943006 
L 121.607978 -128.336761 
L 120.522177 -128.239024 
L 119.436376 -127.334106 
L 118.350575 -127.331528 
L 117.264773 -127.127923 
L 116.178972 -125.821729 
L 115.093171 -125.494335 
L 114.00737 -125.265413 
L 112.921569 -125.497548 
L 111.835768 -125.701273 
L 110.749967 -125.57537 
L 109.664165 -126.801094 
L 108.578364 -127.849506 
L 107.492563 -129.36639 
L 106.406762 -130.496993 
L 105.320961 -132.99461 
L 104.23516 -135.516473 
L 103.149358 -138.203487 
L 102.063557 -140.387422 
L 100.977756 -140.706314 
L 99.891955 -142.350409 
L 98.806154 -143.131057 
L 97.720353 -143.361997 
L 96.634552 -144.54066 
L 95.54875 -143.976562 
L 94.462949 -144.217333 
L 93.377148 -144.109039 
L 92.291347 -144.512157 
L 91.205546 -144.230621 
L 90.119745 -144.712284 
L 89.033943 -145.445273 
L 87.948142 -146.621865 
L 86.862341 -147.705501 
L 85.77654 -149.254507 
L 84.690739 -148.950489 
L 83.604938 -149.953535 
L 82.519137 -151.316559 
L 81.433335 -153.119269 
L 80.347534 -153.637307 
L 79.261733 -154.682892 
L 78.175932 -153.785995 
L 77.090131 -154.415799 
L 76.00433 -155.99935 
L 74.918528 -158.452151 
L 73.832727 -158.831811 
z
" style="stroke: #ff00ff; stroke-opacity: 0.1"/>
    </defs>
    <g clip-path="url(#p8187d19a9e)">
     <use xlink:href="#ma86b92dcad" x="0" y="345.6" style="fill: #ff00ff; fill-opacity: 0.1; stroke: #ff00ff; stroke-opacity: 0.1"/>
    </g>
   </g>
   <g id="matplotlib.axis_1">
    <g id="xtick_1">
     <g id="line2d_1">
      <defs>
       <path id="mc8bbeacd39" d="M 0 0 
L 0 3.5 
" style="stroke: #000000; stroke-width: 0.8"/>
      </defs>
      <g>
       <use xlink:href="#mc8bbeacd39" x="73.832727" y="307.584" style="stroke: #000000; stroke-width: 0.8"/>
      </g>
     </g>
     <g id="text_1">
      <!-- −5 -->
      <g transform="translate(66.461634 322.182437) scale(0.1 -0.1)">
       <defs>
        <path id="DejaVuSans-2212" d="M 678 2272 
L 4684 2272 
L 4684 1741 
L 678 1741 
L 678 2272 
z
" transform="scale(0.015625)"/>
        <path id="DejaVuSans-35" d="M 691 4666 
L 3169 4666 
L 3169 4134 
L 1269 4134 
L 1269 2991 
Q 1406 3038 1543 3061 
Q 1681 3084 1819 3084 
Q 2600 3084 3056 2656 
Q 3513 2228 3513 1497 
Q 3513 744 3044 326 
Q 2575 -91 1722 -91 
Q 1428 -91 1123 -41 
Q 819 9 494 109 
L 494 744 
Q 775 591 1075 516 
Q 1375 441 1709 441 
Q 2250 441 2565 725 
Q 2881 1009 2881 1497 
Q 2881 1984 2565 2268 
Q 2250 2553 1709 2553 
Q 1456 2553 1204 2497 
Q 953 2441 691 2322 
L 691 4666 
z
" transform="scale(0.015625)"/>
       </defs>
       <use xlink:href="#DejaVuSans-2212"/>
       <use xlink:href="#DejaVuSans-35" x="83.789062"/>
      </g>
     </g>
    </g>
    <g id="xtick_2">
     <g id="line2d_2">
      <g>
       <use xlink:href="#mc8bbeacd39" x="95.54875" y="307.584" style="stroke: #000000; stroke-width: 0.8"/>
      </g>
     </g>
     <g id="text_2">
      <!-- −4 -->
      <g transform="translate(88.177657 322.182437) scale(0.1 -0.1)">
       <defs>
        <path id="DejaVuSans-34" d="M 2419 4116 
L 825 1625 
L 2419 1625 
L 2419 4116 
z
M 2253 4666 
L 3047 4666 
L 3047 1625 
L 3713 1625 
L 3713 1100 
L 3047 1100 
L 3047 0 
L 2419 0 
L 2419 1100 
L 313 1100 
L 313 1709 
L 2253 4666 
z
" transform="scale(0.015625)"/>
       </defs>
       <use xlink:href="#DejaVuSans-2212"/>
       <use xlink:href="#DejaVuSans-34" x="83.789062"/>
      </g>
     </g>
    </g>
    <g id="xtick_3">
     <g id="line2d_3">
      <g>
       <use xlink:href="#mc8bbeacd39" x="117.264773" y="307.584" style="stroke: #000000; stroke-width: 0.8"/>
      </g>
     </g>
     <g id="text_3">
      <!-- −3 -->
      <g transform="translate(109.89368 322.182437) scale(0.1 -0.1)">
       <defs>
        <path id="DejaVuSans-33" d="M 2597 2516 
Q 3050 2419 3304 2112 
Q 3559 1806 3559 1356 
Q 3559 666 3084 287 
Q 2609 -91 1734 -91 
Q 1441 -91 1130 -33 
Q 819 25 488 141 
L 488 750 
Q 750 597 1062 519 
Q 1375 441 1716 441 
Q 2309 441 2620 675 
Q 2931 909 2931 1356 
Q 2931 1769 2642 2001 
Q 2353 2234 1838 2234 
L 1294 2234 
L 1294 2753 
L 1863 2753 
Q 2328 2753 2575 2939 
Q 2822 3125 2822 3475 
Q 2822 3834 2567 4026 
Q 2313 4219 1838 4219 
Q 1578 4219 1281 4162 
Q 984 4106 628 3988 
L 628 4550 
Q 988 4650 1302 4700 
Q 1616 4750 1894 4750 
Q 2613 4750 3031 4423 
Q 3450 4097 3450 3541 
Q 3450 3153 3228 2886 
Q 3006 2619 2597 2516 
z
" transform="scale(0.015625)"/>
       </defs>
       <use xlink:href="#DejaVuSans-2212"/>
       <use xlink:href="#DejaVuSans-33" x="83.789062"/>
      </g>
     </g>
    </g>
    <g id="xtick_4">
     <g id="line2d_4">
      <g>
       <use xlink:href="#mc8bbeacd39" x="138.980797" y="307.584" style="stroke: #000000; stroke-width: 0.8"/>
      </g>
     </g>
     <g id="text_4">
      <!-- −2 -->
      <g transform="translate(131.609703 322.182437) scale(0.1 -0.1)">
       <defs>
        <path id="DejaVuSans-32" d="M 1228 531 
L 3431 531 
L 3431 0 
L 469 0 
L 469 531 
Q 828 903 1448 1529 
Q 2069 2156 2228 2338 
Q 2531 2678 2651 2914 
Q 2772 3150 2772 3378 
Q 2772 3750 2511 3984 
Q 2250 4219 1831 4219 
Q 1534 4219 1204 4116 
Q 875 4013 500 3803 
L 500 4441 
Q 881 4594 1212 4672 
Q 1544 4750 1819 4750 
Q 2544 4750 2975 4387 
Q 3406 4025 3406 3419 
Q 3406 3131 3298 2873 
Q 3191 2616 2906 2266 
Q 2828 2175 2409 1742 
Q 1991 1309 1228 531 
z
" transform="scale(0.015625)"/>
       </defs>
       <use xlink:href="#DejaVuSans-2212"/>
       <use xlink:href="#DejaVuSans-32" x="83.789062"/>
      </g>
     </g>
    </g>
    <g id="xtick_5">
     <g id="line2d_5">
      <g>
       <use xlink:href="#mc8bbeacd39" x="160.69682" y="307.584" style="stroke: #000000; stroke-width: 0.8"/>
      </g>
     </g>
     <g id="text_5">
      <!-- −1 -->
      <g transform="translate(153.325726 322.182437) scale(0.1 -0.1)">
       <defs>
        <path id="DejaVuSans-31" d="M 794 531 
L 1825 531 
L 1825 4091 
L 703 3866 
L 703 4441 
L 1819 4666 
L 2450 4666 
L 2450 531 
L 3481 531 
L 3481 0 
L 794 0 
L 794 531 
z
" transform="scale(0.015625)"/>
       </defs>
       <use xlink:href="#DejaVuSans-2212"/>
       <use xlink:href="#DejaVuSans-31" x="83.789062"/>
      </g>
     </g>
    </g>
    <g id="xtick_6">
     <g id="line2d_6">
      <g>
       <use xlink:href="#mc8bbeacd39" x="182.412843" y="307.584" style="stroke: #000000; stroke-width: 0.8"/>
      </g>
     </g>
     <g id="text_6">
      <!-- 0 -->
      <g transform="translate(179.231593 322.182437) scale(0.1 -0.1)">
       <defs>
        <path id="DejaVuSans-30" d="M 2034 4250 
Q 1547 4250 1301 3770 
Q 1056 3291 1056 2328 
Q 1056 1369 1301 889 
Q 1547 409 2034 409 
Q 2525 409 2770 889 
Q 3016 1369 3016 2328 
Q 3016 3291 2770 3770 
Q 2525 4250 2034 4250 
z
M 2034 4750 
Q 2819 4750 3233 4129 
Q 3647 3509 3647 2328 
Q 3647 1150 3233 529 
Q 2819 -91 2034 -91 
Q 1250 -91 836 529 
Q 422 1150 422 2328 
Q 422 3509 836 4129 
Q 1250 4750 2034 4750 
z
" transform="scale(0.015625)"/>
       </defs>
       <use xlink:href="#DejaVuSans-30"/>
      </g>
     </g>
    </g>
    <g id="xtick_7">
     <g id="line2d_7">
      <g>
       <use xlink:href="#mc8bbeacd39" x="204.128866" y="307.584" style="stroke: #000000; stroke-width: 0.8"/>
      </g>
     </g>
     <g id="text_7">
      <!-- 1 -->
      <g transform="translate(200.947616 322.182437) scale(0.1 -0.1)">
       <use xlink:href="#DejaVuSans-31"/>
      </g>
     </g>
    </g>
    <g id="xtick_8">
     <g id="line2d_8">
      <g>
       <use xlink:href="#mc8bbeacd39" x="225.844889" y="307.584" style="stroke: #000000; stroke-width: 0.8"/>
      </g>
     </g>
     <g id="text_8">
      <!-- 2 -->
      <g transform="translate(222.663639 322.182437) scale(0.1 -0.1)">
       <use xlink:href="#DejaVuSans-32"/>
      </g>
     </g>
    </g>
    <g id="xtick_9">
     <g id="line2d_9">
      <g>
       <use xlink:href="#mc8bbeacd39" x="247.560912" y="307.584" style="stroke: #000000; stroke-width: 0.8"/>
      </g>
     </g>
     <g id="text_9">
      <!-- 3 -->
      <g transform="translate(244.379662 322.182437) scale(0.1 -0.1)">
       <use xlink:href="#DejaVuSans-33"/>
      </g>
     </g>
    </g>
    <g id="xtick_10">
     <g id="line2d_10">
      <g>
       <use xlink:href="#mc8bbeacd39" x="269.276935" y="307.584" style="stroke: #000000; stroke-width: 0.8"/>
      </g>
     </g>
     <g id="text_10">
      <!-- 4 -->
      <g transform="translate(266.095685 322.182437) scale(0.1 -0.1)">
       <use xlink:href="#DejaVuSans-34"/>
      </g>
     </g>
    </g>
    <g id="xtick_11">
     <g id="line2d_11">
      <g>
       <use xlink:href="#mc8bbeacd39" x="290.992958" y="307.584" style="stroke: #000000; stroke-width: 0.8"/>
      </g>
     </g>
     <g id="text_11">
      <!-- 5 -->
      <g transform="translate(287.811708 322.182437) scale(0.1 -0.1)">
       <use xlink:href="#DejaVuSans-35"/>
      </g>
     </g>
    </g>
    <g id="xtick_12">
     <g id="line2d_12">
      <g>
       <use xlink:href="#mc8bbeacd39" x="312.708981" y="307.584" style="stroke: #000000; stroke-width: 0.8"/>
      </g>
     </g>
     <g id="text_12">
      <!-- 6 -->
      <g transform="translate(309.527731 322.182437) scale(0.1 -0.1)">
       <defs>
        <path id="DejaVuSans-36" d="M 2113 2584 
Q 1688 2584 1439 2293 
Q 1191 2003 1191 1497 
Q 1191 994 1439 701 
Q 1688 409 2113 409 
Q 2538 409 2786 701 
Q 3034 994 3034 1497 
Q 3034 2003 2786 2293 
Q 2538 2584 2113 2584 
z
M 3366 4563 
L 3366 3988 
Q 3128 4100 2886 4159 
Q 2644 4219 2406 4219 
Q 1781 4219 1451 3797 
Q 1122 3375 1075 2522 
Q 1259 2794 1537 2939 
Q 1816 3084 2150 3084 
Q 2853 3084 3261 2657 
Q 3669 2231 3669 1497 
Q 3669 778 3244 343 
Q 2819 -91 2113 -91 
Q 1303 -91 875 529 
Q 447 1150 447 2328 
Q 447 3434 972 4092 
Q 1497 4750 2381 4750 
Q 2619 4750 2861 4703 
Q 3103 4656 3366 4563 
z
" transform="scale(0.015625)"/>
       </defs>
       <use xlink:href="#DejaVuSans-36"/>
      </g>
     </g>
    </g>
    <g id="xtick_13">
     <g id="line2d_13">
      <g>
       <use xlink:href="#mc8bbeacd39" x="334.425005" y="307.584" style="stroke: #000000; stroke-width: 0.8"/>
      </g>
     </g>
     <g id="text_13">
      <!-- 7 -->
      <g transform="translate(331.243755 322.182437) scale(0.1 -0.1)">
       <defs>
        <path id="DejaVuSans-37" d="M 525 4666 
L 3525 4666 
L 3525 4397 
L 1831 0 
L 1172 0 
L 2766 4134 
L 525 4134 
L 525 4666 
z
" transform="scale(0.015625)"/>
       </defs>
       <use xlink:href="#DejaVuSans-37"/>
      </g>
     </g>
    </g>
    <g id="xtick_14">
     <g id="line2d_14">
      <g>
       <use xlink:href="#mc8bbeacd39" x="356.141028" y="307.584" style="stroke: #000000; stroke-width: 0.8"/>
      </g>
     </g>
     <g id="text_14">
      <!-- 8 -->
      <g transform="translate(352.959778 322.182437) scale(0.1 -0.1)">
       <defs>
        <path id="DejaVuSans-38" d="M 2034 2216 
Q 1584 2216 1326 1975 
Q 1069 1734 1069 1313 
Q 1069 891 1326 650 
Q 1584 409 2034 409 
Q 2484 409 2743 651 
Q 3003 894 3003 1313 
Q 3003 1734 2745 1975 
Q 2488 2216 2034 2216 
z
M 1403 2484 
Q 997 2584 770 2862 
Q 544 3141 544 3541 
Q 544 4100 942 4425 
Q 1341 4750 2034 4750 
Q 2731 4750 3128 4425 
Q 3525 4100 3525 3541 
Q 3525 3141 3298 2862 
Q 3072 2584 2669 2484 
Q 3125 2378 3379 2068 
Q 3634 1759 3634 1313 
Q 3634 634 3220 271 
Q 2806 -91 2034 -91 
Q 1263 -91 848 271 
Q 434 634 434 1313 
Q 434 1759 690 2068 
Q 947 2378 1403 2484 
z
M 1172 3481 
Q 1172 3119 1398 2916 
Q 1625 2713 2034 2713 
Q 2441 2713 2670 2916 
Q 2900 3119 2900 3481 
Q 2900 3844 2670 4047 
Q 2441 4250 2034 4250 
Q 1625 4250 1398 4047 
Q 1172 3844 1172 3481 
z
" transform="scale(0.015625)"/>
       </defs>
       <use xlink:href="#DejaVuSans-38"/>
      </g>
     </g>
    </g>
    <g id="xtick_15">
     <g id="line2d_15">
      <g>
       <use xlink:href="#mc8bbeacd39" x="377.857051" y="307.584" style="stroke: #000000; stroke-width: 0.8"/>
      </g>
     </g>
     <g id="text_15">
      <!-- 9 -->
      <g transform="translate(374.675801 322.182437) scale(0.1 -0.1)">
       <defs>
        <path id="DejaVuSans-39" d="M 703 97 
L 703 672 
Q 941 559 1184 500 
Q 1428 441 1663 441 
Q 2288 441 2617 861 
Q 2947 1281 2994 2138 
Q 2813 1869 2534 1725 
Q 2256 1581 1919 1581 
Q 1219 1581 811 2004 
Q 403 2428 403 3163 
Q 403 3881 828 4315 
Q 1253 4750 1959 4750 
Q 2769 4750 3195 4129 
Q 3622 3509 3622 2328 
Q 3622 1225 3098 567 
Q 2575 -91 1691 -91 
Q 1453 -91 1209 -44 
Q 966 3 703 97 
z
M 1959 2075 
Q 2384 2075 2632 2365 
Q 2881 2656 2881 3163 
Q 2881 3666 2632 3958 
Q 2384 4250 1959 4250 
Q 1534 4250 1286 3958 
Q 1038 3666 1038 3163 
Q 1038 2656 1286 2365 
Q 1534 2075 1959 2075 
z
" transform="scale(0.015625)"/>
       </defs>
       <use xlink:href="#DejaVuSans-39"/>
      </g>
     </g>
    </g>
    <g id="xtick_16">
     <g id="line2d_16">
      <g>
       <use xlink:href="#mc8bbeacd39" x="399.573074" y="307.584" style="stroke: #000000; stroke-width: 0.8"/>
      </g>
     </g>
     <g id="text_16">
      <!-- 10 -->
      <g transform="translate(393.210574 322.182437) scale(0.1 -0.1)">
       <use xlink:href="#DejaVuSans-31"/>
       <use xlink:href="#DejaVuSans-30" x="63.623047"/>
      </g>
     </g>
    </g>
    <g id="text_17">
     <!-- Time (s) -->
     <g transform="translate(215.831094 335.860562) scale(0.1 -0.1)">
      <defs>
       <path id="DejaVuSans-54" d="M -19 4666 
L 3928 4666 
L 3928 4134 
L 2272 4134 
L 2272 0 
L 1638 0 
L 1638 4134 
L -19 4134 
L -19 4666 
z
" transform="scale(0.015625)"/>
       <path id="DejaVuSans-69" d="M 603 3500 
L 1178 3500 
L 1178 0 
L 603 0 
L 603 3500 
z
M 603 4863 
L 1178 4863 
L 1178 4134 
L 603 4134 
L 603 4863 
z
" transform="scale(0.015625)"/>
       <path id="DejaVuSans-6d" d="M 3328 2828 
Q 3544 3216 3844 3400 
Q 4144 3584 4550 3584 
Q 5097 3584 5394 3201 
Q 5691 2819 5691 2113 
L 5691 0 
L 5113 0 
L 5113 2094 
Q 5113 2597 4934 2840 
Q 4756 3084 4391 3084 
Q 3944 3084 3684 2787 
Q 3425 2491 3425 1978 
L 3425 0 
L 2847 0 
L 2847 2094 
Q 2847 2600 2669 2842 
Q 2491 3084 2119 3084 
Q 1678 3084 1418 2786 
Q 1159 2488 1159 1978 
L 1159 0 
L 581 0 
L 581 3500 
L 1159 3500 
L 1159 2956 
Q 1356 3278 1631 3431 
Q 1906 3584 2284 3584 
Q 2666 3584 2933 3390 
Q 3200 3197 3328 2828 
z
" transform="scale(0.015625)"/>
       <path id="DejaVuSans-65" d="M 3597 1894 
L 3597 1613 
L 953 1613 
Q 991 1019 1311 708 
Q 1631 397 2203 397 
Q 2534 397 2845 478 
Q 3156 559 3463 722 
L 3463 178 
Q 3153 47 2828 -22 
Q 2503 -91 2169 -91 
Q 1331 -91 842 396 
Q 353 884 353 1716 
Q 353 2575 817 3079 
Q 1281 3584 2069 3584 
Q 2775 3584 3186 3129 
Q 3597 2675 3597 1894 
z
M 3022 2063 
Q 3016 2534 2758 2815 
Q 2500 3097 2075 3097 
Q 1594 3097 1305 2825 
Q 1016 2553 972 2059 
L 3022 2063 
z
" transform="scale(0.015625)"/>
       <path id="DejaVuSans-20" transform="scale(0.015625)"/>
       <path id="DejaVuSans-28" d="M 1984 4856 
Q 1566 4138 1362 3434 
Q 1159 2731 1159 2009 
Q 1159 1288 1364 580 
Q 1569 -128 1984 -844 
L 1484 -844 
Q 1016 -109 783 600 
Q 550 1309 550 2009 
Q 550 2706 781 3412 
Q 1013 4119 1484 4856 
L 1984 4856 
z
" transform="scale(0.015625)"/>
       <path id="DejaVuSans-73" d="M 2834 3397 
L 2834 2853 
Q 2591 2978 2328 3040 
Q 2066 3103 1784 3103 
Q 1356 3103 1142 2972 
Q 928 2841 928 2578 
Q 928 2378 1081 2264 
Q 1234 2150 1697 2047 
L 1894 2003 
Q 2506 1872 2764 1633 
Q 3022 1394 3022 966 
Q 3022 478 2636 193 
Q 2250 -91 1575 -91 
Q 1294 -91 989 -36 
Q 684 19 347 128 
L 347 722 
Q 666 556 975 473 
Q 1284 391 1588 391 
Q 1994 391 2212 530 
Q 2431 669 2431 922 
Q 2431 1156 2273 1281 
Q 2116 1406 1581 1522 
L 1381 1569 
Q 847 1681 609 1914 
Q 372 2147 372 2553 
Q 372 3047 722 3315 
Q 1072 3584 1716 3584 
Q 2034 3584 2315 3537 
Q 2597 3491 2834 3397 
z
" transform="scale(0.015625)"/>
       <path id="DejaVuSans-29" d="M 513 4856 
L 1013 4856 
Q 1481 4119 1714 3412 
Q 1947 2706 1947 2009 
Q 1947 1309 1714 600 
Q 1481 -109 1013 -844 
L 513 -844 
Q 928 -128 1133 580 
Q 1338 1288 1338 2009 
Q 1338 2731 1133 3434 
Q 928 4138 513 4856 
z
" transform="scale(0.015625)"/>
      </defs>
      <use xlink:href="#DejaVuSans-54"/>
      <use xlink:href="#DejaVuSans-69" x="57.958984"/>
      <use xlink:href="#DejaVuSans-6d" x="85.742188"/>
      <use xlink:href="#DejaVuSans-65" x="183.154297"/>
      <use xlink:href="#DejaVuSans-20" x="244.677734"/>
      <use xlink:href="#DejaVuSans-28" x="276.464844"/>
      <use xlink:href="#DejaVuSans-73" x="315.478516"/>
      <use xlink:href="#DejaVuSans-29" x="367.578125"/>
     </g>
    </g>
   </g>
   <g id="matplotlib.axis_2">
    <g id="ytick_1">
     <g id="line2d_17">
      <defs>
       <path id="m0abe15e4b4" d="M 0 0 
L -3.5 0 
" style="stroke: #000000; stroke-width: 0.8"/>
      </defs>
      <g>
       <use xlink:href="#m0abe15e4b4" x="57.6" y="255.25261" style="stroke: #000000; stroke-width: 0.8"/>
      </g>
     </g>
     <g id="text_18">
      <!-- −1 -->
      <g transform="translate(35.857813 259.051829) scale(0.1 -0.1)">
       <use xlink:href="#DejaVuSans-2212"/>
       <use xlink:href="#DejaVuSans-31" x="83.789062"/>
      </g>
     </g>
    </g>
    <g id="ytick_2">
     <g id="line2d_18">
      <g>
       <use xlink:href="#m0abe15e4b4" x="57.6" y="201.560184" style="stroke: #000000; stroke-width: 0.8"/>
      </g>
     </g>
     <g id="text_19">
      <!-- 0 -->
      <g transform="translate(44.2375 205.359403) scale(0.1 -0.1)">
       <use xlink:href="#DejaVuSans-30"/>
      </g>
     </g>
    </g>
    <g id="ytick_3">
     <g id="line2d_19">
      <g>
       <use xlink:href="#m0abe15e4b4" x="57.6" y="147.867758" style="stroke: #000000; stroke-width: 0.8"/>
      </g>
     </g>
     <g id="text_20">
      <!-- 1 -->
      <g transform="translate(44.2375 151.666977) scale(0.1 -0.1)">
       <use xlink:href="#DejaVuSans-31"/>
      </g>
     </g>
    </g>
    <g id="ytick_4">
     <g id="line2d_20">
      <g>
       <use xlink:href="#m0abe15e4b4" x="57.6" y="94.175332" style="stroke: #000000; stroke-width: 0.8"/>
      </g>
     </g>
     <g id="text_21">
      <!-- 2 -->
      <g transform="translate(44.2375 97.974551) scale(0.1 -0.1)">
       <use xlink:href="#DejaVuSans-32"/>
      </g>
     </g>
    </g>
    <g id="text_22">
     <!-- Z-Score -->
     <g transform="translate(29.778125 193.67175) rotate(-90) scale(0.1 -0.1)">
      <defs>
       <path id="DejaVuSans-5a" d="M 359 4666 
L 4025 4666 
L 4025 4184 
L 1075 531 
L 4097 531 
L 4097 0 
L 288 0 
L 288 481 
L 3238 4134 
L 359 4134 
L 359 4666 
z
" transform="scale(0.015625)"/>
       <path id="DejaVuSans-2d" d="M 313 2009 
L 1997 2009 
L 1997 1497 
L 313 1497 
L 313 2009 
z
" transform="scale(0.015625)"/>
       <path id="DejaVuSans-53" d="M 3425 4513 
L 3425 3897 
Q 3066 4069 2747 4153 
Q 2428 4238 2131 4238 
Q 1616 4238 1336 4038 
Q 1056 3838 1056 3469 
Q 1056 3159 1242 3001 
Q 1428 2844 1947 2747 
L 2328 2669 
Q 3034 2534 3370 2195 
Q 3706 1856 3706 1288 
Q 3706 609 3251 259 
Q 2797 -91 1919 -91 
Q 1588 -91 1214 -16 
Q 841 59 441 206 
L 441 856 
Q 825 641 1194 531 
Q 1563 422 1919 422 
Q 2459 422 2753 634 
Q 3047 847 3047 1241 
Q 3047 1584 2836 1778 
Q 2625 1972 2144 2069 
L 1759 2144 
Q 1053 2284 737 2584 
Q 422 2884 422 3419 
Q 422 4038 858 4394 
Q 1294 4750 2059 4750 
Q 2388 4750 2728 4690 
Q 3069 4631 3425 4513 
z
" transform="scale(0.015625)"/>
       <path id="DejaVuSans-63" d="M 3122 3366 
L 3122 2828 
Q 2878 2963 2633 3030 
Q 2388 3097 2138 3097 
Q 1578 3097 1268 2742 
Q 959 2388 959 1747 
Q 959 1106 1268 751 
Q 1578 397 2138 397 
Q 2388 397 2633 464 
Q 2878 531 3122 666 
L 3122 134 
Q 2881 22 2623 -34 
Q 2366 -91 2075 -91 
Q 1284 -91 818 406 
Q 353 903 353 1747 
Q 353 2603 823 3093 
Q 1294 3584 2113 3584 
Q 2378 3584 2631 3529 
Q 2884 3475 3122 3366 
z
" transform="scale(0.015625)"/>
       <path id="DejaVuSans-6f" d="M 1959 3097 
Q 1497 3097 1228 2736 
Q 959 2375 959 1747 
Q 959 1119 1226 758 
Q 1494 397 1959 397 
Q 2419 397 2687 759 
Q 2956 1122 2956 1747 
Q 2956 2369 2687 2733 
Q 2419 3097 1959 3097 
z
M 1959 3584 
Q 2709 3584 3137 3096 
Q 3566 2609 3566 1747 
Q 3566 888 3137 398 
Q 2709 -91 1959 -91 
Q 1206 -91 779 398 
Q 353 888 353 1747 
Q 353 2609 779 3096 
Q 1206 3584 1959 3584 
z
" transform="scale(0.015625)"/>
       <path id="DejaVuSans-72" d="M 2631 2963 
Q 2534 3019 2420 3045 
Q 2306 3072 2169 3072 
Q 1681 3072 1420 2755 
Q 1159 2438 1159 1844 
L 1159 0 
L 581 0 
L 581 3500 
L 1159 3500 
L 1159 2956 
Q 1341 3275 1631 3429 
Q 1922 3584 2338 3584 
Q 2397 3584 2469 3576 
Q 2541 3569 2628 3553 
L 2631 2963 
z
" transform="scale(0.015625)"/>
      </defs>
      <use xlink:href="#DejaVuSans-5a"/>
      <use xlink:href="#DejaVuSans-2d" x="66.755859"/>
      <use xlink:href="#DejaVuSans-53" x="102.839844"/>
      <use xlink:href="#DejaVuSans-63" x="166.316406"/>
      <use xlink:href="#DejaVuSans-6f" x="221.296875"/>
      <use xlink:href="#DejaVuSans-72" x="282.478516"/>
      <use xlink:href="#DejaVuSans-65" x="321.341797"/>
     </g>
    </g>
   </g>
   <g id="line2d_21">
    <path d="M 73.832727 214.2017 
L 74.918528 214.887012 
L 76.00433 216.74645 
L 77.090131 218.278668 
L 78.175932 218.643484 
L 79.261733 218.351608 
L 80.347534 219.432891 
L 81.433335 219.987787 
L 82.519137 221.394904 
L 83.604938 222.579369 
L 84.690739 223.467485 
L 85.77654 223.402715 
L 86.862341 224.589696 
L 87.948142 225.398864 
L 89.033943 225.84282 
L 91.205546 226.234347 
L 92.291347 225.505948 
L 94.462949 225.79396 
L 95.54875 225.534084 
L 96.634552 224.668099 
L 97.720353 224.951053 
L 98.806154 224.560376 
L 99.891955 224.69042 
L 100.977756 225.663423 
L 102.063557 225.273681 
L 105.320961 229.162686 
L 106.406762 230.670806 
L 107.492563 230.870629 
L 108.578364 231.852554 
L 109.664165 232.235881 
L 110.749967 232.775706 
L 111.835768 232.132618 
L 112.921569 231.745397 
L 114.00737 232.17037 
L 115.093171 231.88942 
L 116.178972 231.286284 
L 117.264773 230.320409 
L 118.350575 230.159998 
L 119.436376 230.335979 
L 120.522177 229.123662 
L 121.607978 228.758692 
L 122.693779 227.73357 
L 123.77958 226.509259 
L 124.865382 223.954533 
L 127.036984 220.33249 
L 128.122785 217.123887 
L 131.380189 208.710564 
L 132.46599 207.212441 
L 133.551791 205.184463 
L 134.637592 202.808911 
L 135.723393 199.880383 
L 136.809194 195.961279 
L 138.980797 190.520043 
L 141.152399 184.828134 
L 144.409802 179.767573 
L 147.667206 173.71518 
L 148.753007 172.904863 
L 149.838808 171.394144 
L 150.924609 169.487131 
L 153.096212 166.106786 
L 154.182013 165.765861 
L 156.353615 165.347093 
L 157.439416 164.839694 
L 158.525217 164.918365 
L 159.611019 164.741714 
L 160.69682 165.221784 
L 161.782621 165.075811 
L 162.868422 164.756607 
L 163.954223 165.074867 
L 165.040024 165.082188 
L 166.125825 165.463376 
L 167.211627 164.639404 
L 168.297428 164.451985 
L 169.383229 164.801024 
L 170.46903 164.032423 
L 171.554831 165.313653 
L 172.640632 165.474992 
L 173.726434 166.297125 
L 174.812235 167.283377 
L 175.898036 168.007525 
L 176.983837 169.637599 
L 178.069638 170.568758 
L 179.155439 172.373036 
L 180.24124 173.804532 
L 181.327042 175.81993 
L 182.412843 179.225056 
L 183.498644 180.997144 
L 185.670246 185.212201 
L 186.756047 186.335751 
L 187.841849 188.8236 
L 188.92765 190.865259 
L 190.013451 193.682369 
L 194.356656 206.407878 
L 196.528258 211.167156 
L 197.614059 213.808906 
L 198.69986 215.955679 
L 199.785661 218.464194 
L 200.871462 220.614272 
L 203.043065 226.839294 
L 206.300468 232.860451 
L 207.386269 233.078167 
L 208.472071 234.839558 
L 210.643673 239.043479 
L 211.729474 239.481678 
L 212.815275 241.356676 
L 213.901076 243.497927 
L 214.986877 245.88629 
L 216.072679 247.849298 
L 218.244281 249.477924 
L 219.330082 250.045772 
L 220.415883 251.106759 
L 221.501684 251.224802 
L 222.587486 252.326704 
L 223.673287 253.250292 
L 224.759088 254.900189 
L 225.844889 256.243647 
L 226.93069 256.136311 
L 229.102292 256.695722 
L 230.188094 256.624399 
L 231.273895 256.722935 
L 232.359696 256.668536 
L 233.445497 257.093901 
L 234.531298 256.198333 
L 236.702901 254.889958 
L 237.788702 254.568518 
L 238.874503 254.665559 
L 239.960304 253.846651 
L 241.046105 254.351922 
L 242.131906 253.531612 
L 243.217708 253.517727 
L 244.303509 253.066631 
L 245.38931 252.064982 
L 249.732514 244.807464 
L 250.818316 244.213105 
L 251.904117 242.097042 
L 252.989918 239.629295 
L 254.075719 237.76172 
L 255.16152 236.233253 
L 256.247321 234.237246 
L 257.333123 231.489277 
L 258.418924 229.181177 
L 259.504725 227.759281 
L 261.676327 224.381411 
L 262.762128 222.316115 
L 263.847929 221.174759 
L 264.933731 220.537325 
L 266.019532 218.578752 
L 267.105333 217.034074 
L 268.191134 215.750497 
L 269.276935 214.005465 
L 270.362736 213.177264 
L 271.448538 213.529697 
L 272.534339 213.070458 
L 273.62014 210.971609 
L 274.705941 209.346865 
L 275.791742 208.302517 
L 279.049146 202.911996 
L 280.134947 200.070281 
L 285.563953 192.716724 
L 287.735555 188.597772 
L 288.821356 185.361578 
L 289.907157 183.058443 
L 290.992958 182.222577 
L 293.164561 178.539779 
L 294.250362 177.564706 
L 295.336163 175.493422 
L 296.421964 173.837874 
L 297.507765 171.736952 
L 298.593566 170.867573 
L 299.679368 170.234472 
L 300.765169 169.278929 
L 302.936771 166.815648 
L 304.022572 164.905468 
L 305.108373 162.632818 
L 306.194175 160.960807 
L 307.279976 159.680885 
L 308.365777 157.542559 
L 309.451578 155.75414 
L 311.62318 153.048631 
L 312.708981 151.488091 
L 313.794783 150.453201 
L 314.880584 148.382444 
L 317.052186 146.999376 
L 318.137987 145.333968 
L 319.223788 144.37488 
L 320.30959 142.660052 
L 321.395391 142.693517 
L 322.481192 142.157021 
L 323.566993 141.359266 
L 324.652794 140.280518 
L 325.738595 138.838365 
L 326.824396 138.927966 
L 327.910198 137.822034 
L 330.0818 137.272022 
L 331.167601 136.027239 
L 333.339203 136.089291 
L 334.425005 135.359903 
L 335.510806 133.478164 
L 336.596607 131.977381 
L 337.682408 131.696473 
L 338.768209 131.121871 
L 339.85401 130.839839 
L 340.939811 130.183277 
L 342.025613 129.052844 
L 343.111414 127.522304 
L 344.197215 127.45924 
L 345.283016 127.041174 
L 346.368817 127.503455 
L 348.54042 127.688771 
L 349.626221 126.145487 
L 350.712022 125.844166 
L 351.797823 125.363 
L 352.883624 125.095003 
L 355.055227 123.164252 
L 356.141028 121.875062 
L 357.226829 121.42642 
L 358.31263 119.766461 
L 359.398431 119.878325 
L 360.484232 119.377872 
L 361.570033 119.055575 
L 363.741636 117.956094 
L 364.827437 117.77004 
L 365.913238 116.551963 
L 366.999039 116.303358 
L 368.08484 116.237945 
L 369.170642 115.857652 
L 370.256443 114.989879 
L 371.342244 114.464419 
L 372.428045 114.229701 
L 373.513846 114.228111 
L 374.599647 115.040436 
L 375.685448 115.601548 
L 376.77125 115.754018 
L 378.942852 116.465036 
L 381.114454 116.537713 
L 382.200255 117.345222 
L 383.286057 117.833515 
L 384.371858 118.086219 
L 385.457659 116.734767 
L 386.54346 116.839558 
L 387.629261 116.43638 
L 389.800863 116.80506 
L 391.972466 116.190782 
L 393.058267 115.393934 
L 394.144068 113.879923 
L 395.229869 114.04501 
L 396.31567 112.933602 
L 397.401472 112.100311 
L 398.487273 112.081648 
L 398.487273 112.081648 
" clip-path="url(#p8187d19a9e)" style="fill: none; stroke: #ff00ff; stroke-width: 1.5; stroke-linecap: square"/>
   </g>
   <g id="line2d_22">
    <path d="M 182.412843 307.584 
L 182.412843 41.472 
" clip-path="url(#p8187d19a9e)" style="fill: none; stroke: #000000; stroke-width: 1.5; stroke-linecap: square"/>
   </g>
   <g id="patch_3">
    <path d="M 57.6 307.584 
L 57.6 41.472 
" style="fill: none; stroke: #000000; stroke-width: 0.8; stroke-linejoin: miter; stroke-linecap: square"/>
   </g>
   <g id="patch_4">
    <path d="M 414.72 307.584 
L 414.72 41.472 
" style="fill: none; stroke: #000000; stroke-width: 0.8; stroke-linejoin: miter; stroke-linecap: square"/>
   </g>
   <g id="patch_5">
    <path d="M 57.6 307.584 
L 414.72 307.584 
" style="fill: none; stroke: #000000; stroke-width: 0.8; stroke-linejoin: miter; stroke-linecap: square"/>
   </g>
   <g id="patch_6">
    <path d="M 57.6 41.472 
L 414.72 41.472 
" style="fill: none; stroke: #000000; stroke-width: 0.8; stroke-linejoin: miter; stroke-linecap: square"/>
   </g>
   <g id="text_23">
    <!-- Event 10_p=0.262 -->
    <g transform="translate(180.415312 35.472) scale(0.12 -0.12)">
     <defs>
      <path id="DejaVuSans-45" d="M 628 4666 
L 3578 4666 
L 3578 4134 
L 1259 4134 
L 1259 2753 
L 3481 2753 
L 3481 2222 
L 1259 2222 
L 1259 531 
L 3634 531 
L 3634 0 
L 628 0 
L 628 4666 
z
" transform="scale(0.015625)"/>
      <path id="DejaVuSans-76" d="M 191 3500 
L 800 3500 
L 1894 563 
L 2988 3500 
L 3597 3500 
L 2284 0 
L 1503 0 
L 191 3500 
z
" transform="scale(0.015625)"/>
      <path id="DejaVuSans-6e" d="M 3513 2113 
L 3513 0 
L 2938 0 
L 2938 2094 
Q 2938 2591 2744 2837 
Q 2550 3084 2163 3084 
Q 1697 3084 1428 2787 
Q 1159 2491 1159 1978 
L 1159 0 
L 581 0 
L 581 3500 
L 1159 3500 
L 1159 2956 
Q 1366 3272 1645 3428 
Q 1925 3584 2291 3584 
Q 2894 3584 3203 3211 
Q 3513 2838 3513 2113 
z
" transform="scale(0.015625)"/>
      <path id="DejaVuSans-74" d="M 1172 4494 
L 1172 3500 
L 2356 3500 
L 2356 3053 
L 1172 3053 
L 1172 1153 
Q 1172 725 1289 603 
Q 1406 481 1766 481 
L 2356 481 
L 2356 0 
L 1766 0 
Q 1100 0 847 248 
Q 594 497 594 1153 
L 594 3053 
L 172 3053 
L 172 3500 
L 594 3500 
L 594 4494 
L 1172 4494 
z
" transform="scale(0.015625)"/>
      <path id="DejaVuSans-5f" d="M 3263 -1063 
L 3263 -1509 
L -63 -1509 
L -63 -1063 
L 3263 -1063 
z
" transform="scale(0.015625)"/>
      <path id="DejaVuSans-70" d="M 1159 525 
L 1159 -1331 
L 581 -1331 
L 581 3500 
L 1159 3500 
L 1159 2969 
Q 1341 3281 1617 3432 
Q 1894 3584 2278 3584 
Q 2916 3584 3314 3078 
Q 3713 2572 3713 1747 
Q 3713 922 3314 415 
Q 2916 -91 2278 -91 
Q 1894 -91 1617 61 
Q 1341 213 1159 525 
z
M 3116 1747 
Q 3116 2381 2855 2742 
Q 2594 3103 2138 3103 
Q 1681 3103 1420 2742 
Q 1159 2381 1159 1747 
Q 1159 1113 1420 752 
Q 1681 391 2138 391 
Q 2594 391 2855 752 
Q 3116 1113 3116 1747 
z
" transform="scale(0.015625)"/>
      <path id="DejaVuSans-3d" d="M 678 2906 
L 4684 2906 
L 4684 2381 
L 678 2381 
L 678 2906 
z
M 678 1631 
L 4684 1631 
L 4684 1100 
L 678 1100 
L 678 1631 
z
" transform="scale(0.015625)"/>
      <path id="DejaVuSans-2e" d="M 684 794 
L 1344 794 
L 1344 0 
L 684 0 
L 684 794 
z
" transform="scale(0.015625)"/>
     </defs>
     <use xlink:href="#DejaVuSans-45"/>
     <use xlink:href="#DejaVuSans-76" x="63.183594"/>
     <use xlink:href="#DejaVuSans-65" x="122.363281"/>
     <use xlink:href="#DejaVuSans-6e" x="183.886719"/>
     <use xlink:href="#DejaVuSans-74" x="247.265625"/>
     <use xlink:href="#DejaVuSans-20" x="286.474609"/>
     <use xlink:href="#DejaVuSans-31" x="318.261719"/>
     <use xlink:href="#DejaVuSans-30" x="381.884766"/>
     <use xlink:href="#DejaVuSans-5f" x="445.507812"/>
     <use xlink:href="#DejaVuSans-70" x="495.507812"/>
     <use xlink:href="#DejaVuSans-3d" x="558.984375"/>
     <use xlink:href="#DejaVuSans-30" x="642.773438"/>
     <use xlink:href="#DejaVuSans-2e" x="706.396484"/>
     <use xlink:href="#DejaVuSans-32" x="738.183594"/>
     <use xlink:href="#DejaVuSans-36" x="801.806641"/>
     <use xlink:href="#DejaVuSans-32" x="865.429688"/>
    </g>
   </g>
  </g>
 </g>
 <defs>
  <clipPath id="p8187d19a9e">
   <rect x="57.6" y="41.472" width="357.12" height="266.112"/>
  </clipPath>
 </defs>
</svg>
