<?xml version="1.0" encoding="utf-8" standalone="no"?>
<!DOCTYPE svg PUBLIC "-//W3C//DTD SVG 1.1//EN"
  "http://www.w3.org/Graphics/SVG/1.1/DTD/svg11.dtd">
<svg xmlns:xlink="http://www.w3.org/1999/xlink" width="460.8pt" height="345.6pt" viewBox="0 0 460.8 345.6" xmlns="http://www.w3.org/2000/svg" version="1.1">
 <metadata>
  <rdf:RDF xmlns:dc="http://purl.org/dc/elements/1.1/" xmlns:cc="http://creativecommons.org/ns#" xmlns:rdf="http://www.w3.org/1999/02/22-rdf-syntax-ns#">
   <cc:Work>
    <dc:type rdf:resource="http://purl.org/dc/dcmitype/StillImage"/>
    <dc:date>2024-11-12T22:27:50.971722</dc:date>
    <dc:format>image/svg+xml</dc:format>
    <dc:creator>
     <cc:Agent>
      <dc:title>Matplotlib v3.8.2, https://matplotlib.org/</dc:title>
     </cc:Agent>
    </dc:creator>
   </cc:Work>
  </rdf:RDF>
 </metadata>
 <defs>
  <style type="text/css">*{stroke-linejoin: round; stroke-linecap: butt}</style>
 </defs>
 <g id="figure_1">
  <g id="patch_1">
   <path d="M 0 345.6 
L 460.8 345.6 
L 460.8 0 
L 0 0 
z
" style="fill: #ffffff"/>
  </g>
  <g id="axes_1">
   <g id="patch_2">
    <path d="M 57.6 307.584 
L 414.72 307.584 
L 414.72 41.472 
L 57.6 41.472 
z
" style="fill: #ffffff"/>
   </g>
   <g id="PolyCollection_1">
    <defs>
     <path id="m8ef8b7b009" d="M 73.832727 -98.972851 
L 73.832727 -74.505628 
L 74.918528 -76.649255 
L 76.00433 -77.853116 
L 77.090131 -78.832422 
L 78.175932 -79.405603 
L 79.261733 -80.293315 
L 80.347534 -79.989081 
L 81.433335 -79.968706 
L 82.519137 -80.625264 
L 83.604938 -80.039078 
L 84.690739 -80.636513 
L 85.77654 -80.214583 
L 86.862341 -81.0842 
L 87.948142 -82.000986 
L 89.033943 -80.952532 
L 90.119745 -81.914215 
L 91.205546 -82.991622 
L 92.291347 -83.912965 
L 93.377148 -85.40417 
L 94.462949 -85.912284 
L 95.54875 -87.027745 
L 96.634552 -88.356583 
L 97.720353 -90.100848 
L 98.806154 -91.107688 
L 99.891955 -91.53447 
L 100.977756 -92.357414 
L 102.063557 -93.643413 
L 103.149358 -94.98911 
L 104.23516 -96.110061 
L 105.320961 -96.615074 
L 106.406762 -97.503301 
L 107.492563 -98.534692 
L 108.578364 -99.357152 
L 109.664165 -99.611582 
L 110.749967 -99.737199 
L 111.835768 -100.616971 
L 112.921569 -100.542055 
L 114.00737 -100.138202 
L 115.093171 -100.43172 
L 116.178972 -99.795488 
L 117.264773 -98.953579 
L 118.350575 -98.901876 
L 119.436376 -97.098126 
L 120.522177 -97.494076 
L 121.607978 -96.821115 
L 122.693779 -95.699538 
L 123.77958 -96.583165 
L 124.865382 -97.002344 
L 125.951183 -97.167521 
L 127.036984 -96.363558 
L 128.122785 -95.480331 
L 129.208586 -94.774909 
L 130.294387 -94.744896 
L 131.380189 -94.183809 
L 132.46599 -94.34971 
L 133.551791 -94.664744 
L 134.637592 -94.220452 
L 135.723393 -94.33641 
L 136.809194 -92.817926 
L 137.894995 -92.57377 
L 138.980797 -90.690894 
L 140.066598 -91.312716 
L 141.152399 -89.719237 
L 142.2382 -90.069455 
L 143.324001 -89.755148 
L 144.409802 -90.653831 
L 145.495604 -90.568543 
L 146.581405 -90.362194 
L 147.667206 -90.089617 
L 148.753007 -89.438896 
L 149.838808 -90.328555 
L 150.924609 -90.0421 
L 152.01041 -89.753132 
L 153.096212 -89.032085 
L 154.182013 -88.091033 
L 155.267814 -86.868547 
L 156.353615 -85.293526 
L 157.439416 -83.218564 
L 158.525217 -82.648727 
L 159.611019 -82.415718 
L 160.69682 -82.239892 
L 161.782621 -81.968901 
L 162.868422 -81.452716 
L 163.954223 -83.060853 
L 165.040024 -83.260149 
L 166.125825 -82.987458 
L 167.211627 -82.907822 
L 168.297428 -83.34124 
L 169.383229 -83.196008 
L 170.46903 -83.194003 
L 171.554831 -82.90939 
L 172.640632 -82.601903 
L 173.726434 -82.066652 
L 174.812235 -82.05818 
L 175.898036 -82.314969 
L 176.983837 -82.853117 
L 178.069638 -82.698638 
L 179.155439 -82.090488 
L 180.24124 -82.6097 
L 181.327042 -83.432784 
L 182.412843 -84.620485 
L 183.498644 -85.302668 
L 184.584445 -86.088721 
L 185.670246 -86.268684 
L 186.756047 -86.536123 
L 187.841849 -87.5361 
L 188.92765 -89.454932 
L 190.013451 -91.353616 
L 191.099252 -92.584015 
L 192.185053 -94.591824 
L 193.270854 -95.936582 
L 194.356656 -97.370016 
L 195.442457 -98.980988 
L 196.528258 -98.898221 
L 197.614059 -100.103825 
L 198.69986 -100.708856 
L 199.785661 -102.617239 
L 200.871462 -103.74763 
L 201.957264 -105.83111 
L 203.043065 -106.150638 
L 204.128866 -107.838162 
L 205.214667 -108.865516 
L 206.300468 -110.11414 
L 207.386269 -110.799942 
L 208.472071 -111.865014 
L 209.557872 -113.262449 
L 210.643673 -113.89255 
L 211.729474 -114.521806 
L 212.815275 -114.987137 
L 213.901076 -115.872766 
L 214.986877 -116.5621 
L 216.072679 -118.238979 
L 217.15848 -119.916283 
L 218.244281 -120.874846 
L 219.330082 -121.437937 
L 220.415883 -122.153231 
L 221.501684 -122.315663 
L 222.587486 -122.532629 
L 223.673287 -122.378865 
L 224.759088 -122.335838 
L 225.844889 -122.803175 
L 226.93069 -121.952235 
L 228.016491 -121.462981 
L 229.102292 -120.999864 
L 230.188094 -120.616359 
L 231.273895 -119.795976 
L 232.359696 -119.961719 
L 233.445497 -119.336278 
L 234.531298 -118.85118 
L 235.617099 -118.204313 
L 236.702901 -116.771133 
L 237.788702 -115.349227 
L 238.874503 -113.549454 
L 239.960304 -112.257137 
L 241.046105 -110.947023 
L 242.131906 -109.628968 
L 243.217708 -106.750562 
L 244.303509 -104.957735 
L 245.38931 -102.986597 
L 246.475111 -100.517372 
L 247.560912 -97.889704 
L 248.646713 -95.294863 
L 249.732514 -93.195319 
L 250.818316 -92.193929 
L 251.904117 -90.403567 
L 252.989918 -87.425744 
L 254.075719 -84.457141 
L 255.16152 -81.458858 
L 256.247321 -77.321039 
L 257.333123 -74.713394 
L 258.418924 -71.586355 
L 259.504725 -69.004271 
L 260.590526 -68.115515 
L 261.676327 -66.508104 
L 262.762128 -65.56218 
L 263.847929 -63.910325 
L 264.933731 -63.801229 
L 266.019532 -62.765961 
L 267.105333 -62.829307 
L 268.191134 -61.089673 
L 269.276935 -61.024212 
L 270.362736 -60.033437 
L 271.448538 -60.164044 
L 272.534339 -59.433638 
L 273.62014 -58.409469 
L 274.705941 -57.9021 
L 275.791742 -57.559811 
L 276.877543 -57.336597 
L 277.963344 -55.902483 
L 279.049146 -54.169676 
L 280.134947 -53.114556 
L 281.220748 -51.366201 
L 282.306549 -51.015555 
L 283.39235 -51.120547 
L 284.478151 -50.340528 
L 285.563953 -50.185815 
L 286.649754 -50.112 
L 287.735555 -50.714001 
L 288.821356 -50.771571 
L 289.907157 -50.814381 
L 290.992958 -51.662199 
L 292.07876 -53.523953 
L 293.164561 -54.771881 
L 294.250362 -55.228603 
L 295.336163 -57.271346 
L 296.421964 -57.945246 
L 297.507765 -60.019809 
L 298.593566 -61.419597 
L 299.679368 -62.634799 
L 300.765169 -64.545307 
L 301.85097 -66.394861 
L 302.936771 -67.917027 
L 304.022572 -68.732591 
L 305.108373 -70.229749 
L 306.194175 -71.399949 
L 307.279976 -73.023153 
L 308.365777 -74.746604 
L 309.451578 -76.3902 
L 310.537379 -77.949095 
L 311.62318 -79.347038 
L 312.708981 -80.840755 
L 313.794783 -81.719542 
L 314.880584 -81.854629 
L 315.966385 -82.67446 
L 317.052186 -83.544905 
L 318.137987 -84.375905 
L 319.223788 -84.807425 
L 320.30959 -86.032006 
L 321.395391 -86.697692 
L 322.481192 -87.333298 
L 323.566993 -87.826361 
L 324.652794 -87.43021 
L 325.738595 -86.937532 
L 326.824396 -86.248193 
L 327.910198 -85.298407 
L 328.995999 -84.41049 
L 330.0818 -83.75895 
L 331.167601 -83.243126 
L 332.253402 -83.148257 
L 333.339203 -82.261516 
L 334.425005 -81.350542 
L 335.510806 -81.203703 
L 336.596607 -81.117009 
L 337.682408 -80.699355 
L 338.768209 -80.519873 
L 339.85401 -80.154308 
L 340.939811 -79.944022 
L 342.025613 -79.652128 
L 343.111414 -79.34966 
L 344.197215 -78.887195 
L 345.283016 -78.043755 
L 346.368817 -77.186257 
L 347.454618 -76.561783 
L 348.54042 -76.166163 
L 349.626221 -75.568601 
L 350.712022 -75.246567 
L 351.797823 -74.431506 
L 352.883624 -73.747289 
L 353.969425 -73.004263 
L 355.055227 -72.143045 
L 356.141028 -70.718196 
L 357.226829 -69.430635 
L 358.31263 -67.914299 
L 359.398431 -65.959873 
L 360.484232 -65.188113 
L 361.570033 -64.281485 
L 362.655835 -63.789407 
L 363.741636 -63.513562 
L 364.827437 -63.422289 
L 365.913238 -63.000245 
L 366.999039 -62.295944 
L 368.08484 -62.442702 
L 369.170642 -62.329314 
L 370.256443 -62.718942 
L 371.342244 -62.77287 
L 372.428045 -62.451686 
L 373.513846 -62.290029 
L 374.599647 -61.805612 
L 375.685448 -61.721828 
L 376.77125 -62.064675 
L 377.857051 -62.318929 
L 378.942852 -62.978827 
L 380.028653 -62.867017 
L 381.114454 -63.013757 
L 382.200255 -63.279205 
L 383.286057 -63.604772 
L 384.371858 -63.640311 
L 385.457659 -63.928573 
L 386.54346 -63.751785 
L 387.629261 -63.628284 
L 388.715062 -64.259097 
L 389.800863 -64.789169 
L 390.886665 -65.255489 
L 391.972466 -66.295366 
L 393.058267 -66.461941 
L 394.144068 -67.343459 
L 395.229869 -68.562682 
L 396.31567 -68.883849 
L 397.401472 -69.948405 
L 398.487273 -71.673315 
L 398.487273 -292.032 
L 398.487273 -292.032 
L 397.401472 -286.529594 
L 396.31567 -283.383748 
L 395.229869 -282.079838 
L 394.144068 -279.964811 
L 393.058267 -278.301863 
L 391.972466 -280.006048 
L 390.886665 -277.995324 
L 389.800863 -277.953207 
L 388.715062 -278.666864 
L 387.629261 -278.5654 
L 386.54346 -281.422088 
L 385.457659 -282.132649 
L 384.371858 -282.666287 
L 383.286057 -282.248274 
L 382.200255 -279.38964 
L 381.114454 -277.820543 
L 380.028653 -275.087367 
L 378.942852 -273.596045 
L 377.857051 -270.795612 
L 376.77125 -266.763427 
L 375.685448 -263.823556 
L 374.599647 -261.605512 
L 373.513846 -260.870052 
L 372.428045 -259.692582 
L 371.342244 -258.656477 
L 370.256443 -255.793105 
L 369.170642 -251.561993 
L 368.08484 -248.876366 
L 366.999039 -245.706166 
L 365.913238 -244.594547 
L 364.827437 -242.192469 
L 363.741636 -241.303531 
L 362.655835 -240.621932 
L 361.570033 -241.932897 
L 360.484232 -243.90171 
L 359.398431 -245.408553 
L 358.31263 -251.325272 
L 357.226829 -255.316815 
L 356.141028 -258.035029 
L 355.055227 -261.580582 
L 353.969425 -263.92354 
L 352.883624 -265.216475 
L 351.797823 -266.21415 
L 350.712022 -266.993781 
L 349.626221 -267.721458 
L 348.54042 -267.902023 
L 347.454618 -268.253141 
L 346.368817 -269.126565 
L 345.283016 -268.962018 
L 344.197215 -269.549569 
L 343.111414 -269.379047 
L 342.025613 -268.361968 
L 340.939811 -267.084263 
L 339.85401 -265.488299 
L 338.768209 -263.65138 
L 337.682408 -262.05003 
L 336.596607 -260.992487 
L 335.510806 -259.05824 
L 334.425005 -257.163808 
L 333.339203 -257.290503 
L 332.253402 -256.601985 
L 331.167601 -253.400142 
L 330.0818 -250.455583 
L 328.995999 -248.531062 
L 327.910198 -246.707672 
L 326.824396 -244.650434 
L 325.738595 -241.231333 
L 324.652794 -238.576113 
L 323.566993 -235.638926 
L 322.481192 -231.313255 
L 321.395391 -226.831074 
L 320.30959 -222.165634 
L 319.223788 -216.898901 
L 318.137987 -214.261532 
L 317.052186 -210.742329 
L 315.966385 -207.529098 
L 314.880584 -204.546083 
L 313.794783 -202.873355 
L 312.708981 -200.293132 
L 311.62318 -196.639779 
L 310.537379 -194.016033 
L 309.451578 -190.633089 
L 308.365777 -188.369107 
L 307.279976 -185.564727 
L 306.194175 -183.166158 
L 305.108373 -182.395892 
L 304.022572 -180.287905 
L 302.936771 -178.940501 
L 301.85097 -177.073876 
L 300.765169 -175.371051 
L 299.679368 -174.899188 
L 298.593566 -174.199088 
L 297.507765 -173.816993 
L 296.421964 -173.873864 
L 295.336163 -174.49602 
L 294.250362 -174.470047 
L 293.164561 -174.860461 
L 292.07876 -174.92175 
L 290.992958 -175.842892 
L 289.907157 -176.137775 
L 288.821356 -177.72837 
L 287.735555 -178.239212 
L 286.649754 -178.557259 
L 285.563953 -179.933449 
L 284.478151 -180.72878 
L 283.39235 -182.514236 
L 282.306549 -184.336539 
L 281.220748 -186.4664 
L 280.134947 -188.238285 
L 279.049146 -190.151365 
L 277.963344 -191.963584 
L 276.877543 -195.845154 
L 275.791742 -197.943452 
L 274.705941 -200.361655 
L 273.62014 -202.173497 
L 272.534339 -204.496076 
L 271.448538 -207.071079 
L 270.362736 -208.28265 
L 269.276935 -208.542432 
L 268.191134 -208.885183 
L 267.105333 -211.83213 
L 266.019532 -212.900836 
L 264.933731 -215.218905 
L 263.847929 -215.266488 
L 262.762128 -217.039009 
L 261.676327 -218.313507 
L 260.590526 -219.472672 
L 259.504725 -220.155065 
L 258.418924 -222.147239 
L 257.333123 -225.299115 
L 256.247321 -227.561025 
L 255.16152 -232.466888 
L 254.075719 -234.710872 
L 252.989918 -237.003549 
L 251.904117 -239.913759 
L 250.818316 -241.678172 
L 249.732514 -242.198069 
L 248.646713 -242.529413 
L 247.560912 -244.125723 
L 246.475111 -245.717772 
L 245.38931 -246.900828 
L 244.303509 -247.064841 
L 243.217708 -248.152759 
L 242.131906 -249.392409 
L 241.046105 -249.016221 
L 239.960304 -248.892811 
L 238.874503 -249.780419 
L 237.788702 -250.576682 
L 236.702901 -250.369024 
L 235.617099 -249.225596 
L 234.531298 -248.338402 
L 233.445497 -246.966913 
L 232.359696 -245.918044 
L 231.273895 -244.496963 
L 230.188094 -244.096442 
L 229.102292 -242.997929 
L 228.016491 -242.080137 
L 226.93069 -240.335015 
L 225.844889 -240.399239 
L 224.759088 -238.608385 
L 223.673287 -237.996858 
L 222.587486 -238.299912 
L 221.501684 -237.811065 
L 220.415883 -236.548219 
L 219.330082 -234.866957 
L 218.244281 -232.154269 
L 217.15848 -228.839301 
L 216.072679 -224.749176 
L 214.986877 -220.924952 
L 213.901076 -218.661902 
L 212.815275 -215.254185 
L 211.729474 -213.173744 
L 210.643673 -210.413073 
L 209.557872 -208.31911 
L 208.472071 -204.508564 
L 207.386269 -201.489121 
L 206.300468 -200.34813 
L 205.214667 -198.508076 
L 204.128866 -196.381072 
L 203.043065 -192.009418 
L 201.957264 -190.437292 
L 200.871462 -186.262545 
L 199.785661 -183.91238 
L 198.69986 -179.686491 
L 197.614059 -177.786773 
L 196.528258 -175.321823 
L 195.442457 -174.692975 
L 194.356656 -171.043245 
L 193.270854 -167.210899 
L 192.185053 -164.340003 
L 191.099252 -159.492217 
L 190.013451 -156.584941 
L 188.92765 -152.55222 
L 187.841849 -148.604682 
L 186.756047 -146.050546 
L 185.670246 -144.359628 
L 184.584445 -142.294732 
L 183.498644 -139.639415 
L 182.412843 -136.972011 
L 181.327042 -131.709782 
L 180.24124 -128.675994 
L 179.155439 -126.075377 
L 178.069638 -125.473492 
L 176.983837 -124.345367 
L 175.898036 -121.99661 
L 174.812235 -120.207374 
L 173.726434 -118.724786 
L 172.640632 -118.091429 
L 171.554831 -116.812792 
L 170.46903 -115.619738 
L 169.383229 -114.214459 
L 168.297428 -113.337253 
L 167.211627 -111.510064 
L 166.125825 -110.508769 
L 165.040024 -109.396604 
L 163.954223 -108.187147 
L 162.868422 -105.795714 
L 161.782621 -105.577547 
L 160.69682 -105.143002 
L 159.611019 -104.510136 
L 158.525217 -103.850052 
L 157.439416 -103.746338 
L 156.353615 -104.686281 
L 155.267814 -105.42302 
L 154.182013 -106.019339 
L 153.096212 -106.416849 
L 152.01041 -106.683209 
L 150.924609 -106.535252 
L 149.838808 -106.146163 
L 148.753007 -105.012356 
L 147.667206 -105.086992 
L 146.581405 -105.022461 
L 145.495604 -105.166278 
L 144.409802 -104.836894 
L 143.324001 -104.343724 
L 142.2382 -104.62804 
L 141.152399 -104.455405 
L 140.066598 -105.288644 
L 138.980797 -105.374579 
L 137.894995 -106.642376 
L 136.809194 -107.101748 
L 135.723393 -108.003648 
L 134.637592 -108.624144 
L 133.551791 -108.979454 
L 132.46599 -109.018557 
L 131.380189 -109.426984 
L 130.294387 -110.182931 
L 129.208586 -110.410154 
L 128.122785 -111.029506 
L 127.036984 -110.858365 
L 125.951183 -111.072861 
L 124.865382 -111.403042 
L 123.77958 -111.399241 
L 122.693779 -111.209906 
L 121.607978 -111.307796 
L 120.522177 -111.546807 
L 119.436376 -111.171711 
L 118.350575 -111.996275 
L 117.264773 -111.932172 
L 116.178972 -112.646312 
L 115.093171 -113.10497 
L 114.00737 -113.52117 
L 112.921569 -114.258271 
L 111.835768 -115.521348 
L 110.749967 -116.338224 
L 109.664165 -117.724844 
L 108.578364 -118.235983 
L 107.492563 -118.088106 
L 106.406762 -117.249682 
L 105.320961 -116.82206 
L 104.23516 -117.190904 
L 103.149358 -116.128514 
L 102.063557 -114.934092 
L 100.977756 -114.455586 
L 99.891955 -114.537783 
L 98.806154 -114.811367 
L 97.720353 -114.822667 
L 96.634552 -113.487217 
L 95.54875 -112.389695 
L 94.462949 -111.61388 
L 93.377148 -110.96289 
L 92.291347 -109.020657 
L 91.205546 -108.010778 
L 90.119745 -107.282247 
L 89.033943 -106.375754 
L 87.948142 -107.044961 
L 86.862341 -105.904697 
L 85.77654 -104.848283 
L 84.690739 -105.012254 
L 83.604938 -104.139031 
L 82.519137 -104.428203 
L 81.433335 -103.735778 
L 80.347534 -103.804761 
L 79.261733 -103.941935 
L 78.175932 -103.016058 
L 77.090131 -102.397905 
L 76.00433 -101.525475 
L 74.918528 -100.580456 
L 73.832727 -98.972851 
z
" style="stroke: #ff00ff; stroke-opacity: 0.1"/>
    </defs>
    <g clip-path="url(#p8420b0c6ba)">
     <use xlink:href="#m8ef8b7b009" x="0" y="345.6" style="fill: #ff00ff; fill-opacity: 0.1; stroke: #ff00ff; stroke-opacity: 0.1"/>
    </g>
   </g>
   <g id="matplotlib.axis_1">
    <g id="xtick_1">
     <g id="line2d_1">
      <defs>
       <path id="m106c657a44" d="M 0 0 
L 0 3.5 
" style="stroke: #000000; stroke-width: 0.8"/>
      </defs>
      <g>
       <use xlink:href="#m106c657a44" x="73.832727" y="307.584" style="stroke: #000000; stroke-width: 0.8"/>
      </g>
     </g>
     <g id="text_1">
      <!-- −5 -->
      <g transform="translate(66.461634 322.182437) scale(0.1 -0.1)">
       <defs>
        <path id="DejaVuSans-2212" d="M 678 2272 
L 4684 2272 
L 4684 1741 
L 678 1741 
L 678 2272 
z
" transform="scale(0.015625)"/>
        <path id="DejaVuSans-35" d="M 691 4666 
L 3169 4666 
L 3169 4134 
L 1269 4134 
L 1269 2991 
Q 1406 3038 1543 3061 
Q 1681 3084 1819 3084 
Q 2600 3084 3056 2656 
Q 3513 2228 3513 1497 
Q 3513 744 3044 326 
Q 2575 -91 1722 -91 
Q 1428 -91 1123 -41 
Q 819 9 494 109 
L 494 744 
Q 775 591 1075 516 
Q 1375 441 1709 441 
Q 2250 441 2565 725 
Q 2881 1009 2881 1497 
Q 2881 1984 2565 2268 
Q 2250 2553 1709 2553 
Q 1456 2553 1204 2497 
Q 953 2441 691 2322 
L 691 4666 
z
" transform="scale(0.015625)"/>
       </defs>
       <use xlink:href="#DejaVuSans-2212"/>
       <use xlink:href="#DejaVuSans-35" x="83.789062"/>
      </g>
     </g>
    </g>
    <g id="xtick_2">
     <g id="line2d_2">
      <g>
       <use xlink:href="#m106c657a44" x="95.54875" y="307.584" style="stroke: #000000; stroke-width: 0.8"/>
      </g>
     </g>
     <g id="text_2">
      <!-- −4 -->
      <g transform="translate(88.177657 322.182437) scale(0.1 -0.1)">
       <defs>
        <path id="DejaVuSans-34" d="M 2419 4116 
L 825 1625 
L 2419 1625 
L 2419 4116 
z
M 2253 4666 
L 3047 4666 
L 3047 1625 
L 3713 1625 
L 3713 1100 
L 3047 1100 
L 3047 0 
L 2419 0 
L 2419 1100 
L 313 1100 
L 313 1709 
L 2253 4666 
z
" transform="scale(0.015625)"/>
       </defs>
       <use xlink:href="#DejaVuSans-2212"/>
       <use xlink:href="#DejaVuSans-34" x="83.789062"/>
      </g>
     </g>
    </g>
    <g id="xtick_3">
     <g id="line2d_3">
      <g>
       <use xlink:href="#m106c657a44" x="117.264773" y="307.584" style="stroke: #000000; stroke-width: 0.8"/>
      </g>
     </g>
     <g id="text_3">
      <!-- −3 -->
      <g transform="translate(109.89368 322.182437) scale(0.1 -0.1)">
       <defs>
        <path id="DejaVuSans-33" d="M 2597 2516 
Q 3050 2419 3304 2112 
Q 3559 1806 3559 1356 
Q 3559 666 3084 287 
Q 2609 -91 1734 -91 
Q 1441 -91 1130 -33 
Q 819 25 488 141 
L 488 750 
Q 750 597 1062 519 
Q 1375 441 1716 441 
Q 2309 441 2620 675 
Q 2931 909 2931 1356 
Q 2931 1769 2642 2001 
Q 2353 2234 1838 2234 
L 1294 2234 
L 1294 2753 
L 1863 2753 
Q 2328 2753 2575 2939 
Q 2822 3125 2822 3475 
Q 2822 3834 2567 4026 
Q 2313 4219 1838 4219 
Q 1578 4219 1281 4162 
Q 984 4106 628 3988 
L 628 4550 
Q 988 4650 1302 4700 
Q 1616 4750 1894 4750 
Q 2613 4750 3031 4423 
Q 3450 4097 3450 3541 
Q 3450 3153 3228 2886 
Q 3006 2619 2597 2516 
z
" transform="scale(0.015625)"/>
       </defs>
       <use xlink:href="#DejaVuSans-2212"/>
       <use xlink:href="#DejaVuSans-33" x="83.789062"/>
      </g>
     </g>
    </g>
    <g id="xtick_4">
     <g id="line2d_4">
      <g>
       <use xlink:href="#m106c657a44" x="138.980797" y="307.584" style="stroke: #000000; stroke-width: 0.8"/>
      </g>
     </g>
     <g id="text_4">
      <!-- −2 -->
      <g transform="translate(131.609703 322.182437) scale(0.1 -0.1)">
       <defs>
        <path id="DejaVuSans-32" d="M 1228 531 
L 3431 531 
L 3431 0 
L 469 0 
L 469 531 
Q 828 903 1448 1529 
Q 2069 2156 2228 2338 
Q 2531 2678 2651 2914 
Q 2772 3150 2772 3378 
Q 2772 3750 2511 3984 
Q 2250 4219 1831 4219 
Q 1534 4219 1204 4116 
Q 875 4013 500 3803 
L 500 4441 
Q 881 4594 1212 4672 
Q 1544 4750 1819 4750 
Q 2544 4750 2975 4387 
Q 3406 4025 3406 3419 
Q 3406 3131 3298 2873 
Q 3191 2616 2906 2266 
Q 2828 2175 2409 1742 
Q 1991 1309 1228 531 
z
" transform="scale(0.015625)"/>
       </defs>
       <use xlink:href="#DejaVuSans-2212"/>
       <use xlink:href="#DejaVuSans-32" x="83.789062"/>
      </g>
     </g>
    </g>
    <g id="xtick_5">
     <g id="line2d_5">
      <g>
       <use xlink:href="#m106c657a44" x="160.69682" y="307.584" style="stroke: #000000; stroke-width: 0.8"/>
      </g>
     </g>
     <g id="text_5">
      <!-- −1 -->
      <g transform="translate(153.325726 322.182437) scale(0.1 -0.1)">
       <defs>
        <path id="DejaVuSans-31" d="M 794 531 
L 1825 531 
L 1825 4091 
L 703 3866 
L 703 4441 
L 1819 4666 
L 2450 4666 
L 2450 531 
L 3481 531 
L 3481 0 
L 794 0 
L 794 531 
z
" transform="scale(0.015625)"/>
       </defs>
       <use xlink:href="#DejaVuSans-2212"/>
       <use xlink:href="#DejaVuSans-31" x="83.789062"/>
      </g>
     </g>
    </g>
    <g id="xtick_6">
     <g id="line2d_6">
      <g>
       <use xlink:href="#m106c657a44" x="182.412843" y="307.584" style="stroke: #000000; stroke-width: 0.8"/>
      </g>
     </g>
     <g id="text_6">
      <!-- 0 -->
      <g transform="translate(179.231593 322.182437) scale(0.1 -0.1)">
       <defs>
        <path id="DejaVuSans-30" d="M 2034 4250 
Q 1547 4250 1301 3770 
Q 1056 3291 1056 2328 
Q 1056 1369 1301 889 
Q 1547 409 2034 409 
Q 2525 409 2770 889 
Q 3016 1369 3016 2328 
Q 3016 3291 2770 3770 
Q 2525 4250 2034 4250 
z
M 2034 4750 
Q 2819 4750 3233 4129 
Q 3647 3509 3647 2328 
Q 3647 1150 3233 529 
Q 2819 -91 2034 -91 
Q 1250 -91 836 529 
Q 422 1150 422 2328 
Q 422 3509 836 4129 
Q 1250 4750 2034 4750 
z
" transform="scale(0.015625)"/>
       </defs>
       <use xlink:href="#DejaVuSans-30"/>
      </g>
     </g>
    </g>
    <g id="xtick_7">
     <g id="line2d_7">
      <g>
       <use xlink:href="#m106c657a44" x="204.128866" y="307.584" style="stroke: #000000; stroke-width: 0.8"/>
      </g>
     </g>
     <g id="text_7">
      <!-- 1 -->
      <g transform="translate(200.947616 322.182437) scale(0.1 -0.1)">
       <use xlink:href="#DejaVuSans-31"/>
      </g>
     </g>
    </g>
    <g id="xtick_8">
     <g id="line2d_8">
      <g>
       <use xlink:href="#m106c657a44" x="225.844889" y="307.584" style="stroke: #000000; stroke-width: 0.8"/>
      </g>
     </g>
     <g id="text_8">
      <!-- 2 -->
      <g transform="translate(222.663639 322.182437) scale(0.1 -0.1)">
       <use xlink:href="#DejaVuSans-32"/>
      </g>
     </g>
    </g>
    <g id="xtick_9">
     <g id="line2d_9">
      <g>
       <use xlink:href="#m106c657a44" x="247.560912" y="307.584" style="stroke: #000000; stroke-width: 0.8"/>
      </g>
     </g>
     <g id="text_9">
      <!-- 3 -->
      <g transform="translate(244.379662 322.182437) scale(0.1 -0.1)">
       <use xlink:href="#DejaVuSans-33"/>
      </g>
     </g>
    </g>
    <g id="xtick_10">
     <g id="line2d_10">
      <g>
       <use xlink:href="#m106c657a44" x="269.276935" y="307.584" style="stroke: #000000; stroke-width: 0.8"/>
      </g>
     </g>
     <g id="text_10">
      <!-- 4 -->
      <g transform="translate(266.095685 322.182437) scale(0.1 -0.1)">
       <use xlink:href="#DejaVuSans-34"/>
      </g>
     </g>
    </g>
    <g id="xtick_11">
     <g id="line2d_11">
      <g>
       <use xlink:href="#m106c657a44" x="290.992958" y="307.584" style="stroke: #000000; stroke-width: 0.8"/>
      </g>
     </g>
     <g id="text_11">
      <!-- 5 -->
      <g transform="translate(287.811708 322.182437) scale(0.1 -0.1)">
       <use xlink:href="#DejaVuSans-35"/>
      </g>
     </g>
    </g>
    <g id="xtick_12">
     <g id="line2d_12">
      <g>
       <use xlink:href="#m106c657a44" x="312.708981" y="307.584" style="stroke: #000000; stroke-width: 0.8"/>
      </g>
     </g>
     <g id="text_12">
      <!-- 6 -->
      <g transform="translate(309.527731 322.182437) scale(0.1 -0.1)">
       <defs>
        <path id="DejaVuSans-36" d="M 2113 2584 
Q 1688 2584 1439 2293 
Q 1191 2003 1191 1497 
Q 1191 994 1439 701 
Q 1688 409 2113 409 
Q 2538 409 2786 701 
Q 3034 994 3034 1497 
Q 3034 2003 2786 2293 
Q 2538 2584 2113 2584 
z
M 3366 4563 
L 3366 3988 
Q 3128 4100 2886 4159 
Q 2644 4219 2406 4219 
Q 1781 4219 1451 3797 
Q 1122 3375 1075 2522 
Q 1259 2794 1537 2939 
Q 1816 3084 2150 3084 
Q 2853 3084 3261 2657 
Q 3669 2231 3669 1497 
Q 3669 778 3244 343 
Q 2819 -91 2113 -91 
Q 1303 -91 875 529 
Q 447 1150 447 2328 
Q 447 3434 972 4092 
Q 1497 4750 2381 4750 
Q 2619 4750 2861 4703 
Q 3103 4656 3366 4563 
z
" transform="scale(0.015625)"/>
       </defs>
       <use xlink:href="#DejaVuSans-36"/>
      </g>
     </g>
    </g>
    <g id="xtick_13">
     <g id="line2d_13">
      <g>
       <use xlink:href="#m106c657a44" x="334.425005" y="307.584" style="stroke: #000000; stroke-width: 0.8"/>
      </g>
     </g>
     <g id="text_13">
      <!-- 7 -->
      <g transform="translate(331.243755 322.182437) scale(0.1 -0.1)">
       <defs>
        <path id="DejaVuSans-37" d="M 525 4666 
L 3525 4666 
L 3525 4397 
L 1831 0 
L 1172 0 
L 2766 4134 
L 525 4134 
L 525 4666 
z
" transform="scale(0.015625)"/>
       </defs>
       <use xlink:href="#DejaVuSans-37"/>
      </g>
     </g>
    </g>
    <g id="xtick_14">
     <g id="line2d_14">
      <g>
       <use xlink:href="#m106c657a44" x="356.141028" y="307.584" style="stroke: #000000; stroke-width: 0.8"/>
      </g>
     </g>
     <g id="text_14">
      <!-- 8 -->
      <g transform="translate(352.959778 322.182437) scale(0.1 -0.1)">
       <defs>
        <path id="DejaVuSans-38" d="M 2034 2216 
Q 1584 2216 1326 1975 
Q 1069 1734 1069 1313 
Q 1069 891 1326 650 
Q 1584 409 2034 409 
Q 2484 409 2743 651 
Q 3003 894 3003 1313 
Q 3003 1734 2745 1975 
Q 2488 2216 2034 2216 
z
M 1403 2484 
Q 997 2584 770 2862 
Q 544 3141 544 3541 
Q 544 4100 942 4425 
Q 1341 4750 2034 4750 
Q 2731 4750 3128 4425 
Q 3525 4100 3525 3541 
Q 3525 3141 3298 2862 
Q 3072 2584 2669 2484 
Q 3125 2378 3379 2068 
Q 3634 1759 3634 1313 
Q 3634 634 3220 271 
Q 2806 -91 2034 -91 
Q 1263 -91 848 271 
Q 434 634 434 1313 
Q 434 1759 690 2068 
Q 947 2378 1403 2484 
z
M 1172 3481 
Q 1172 3119 1398 2916 
Q 1625 2713 2034 2713 
Q 2441 2713 2670 2916 
Q 2900 3119 2900 3481 
Q 2900 3844 2670 4047 
Q 2441 4250 2034 4250 
Q 1625 4250 1398 4047 
Q 1172 3844 1172 3481 
z
" transform="scale(0.015625)"/>
       </defs>
       <use xlink:href="#DejaVuSans-38"/>
      </g>
     </g>
    </g>
    <g id="xtick_15">
     <g id="line2d_15">
      <g>
       <use xlink:href="#m106c657a44" x="377.857051" y="307.584" style="stroke: #000000; stroke-width: 0.8"/>
      </g>
     </g>
     <g id="text_15">
      <!-- 9 -->
      <g transform="translate(374.675801 322.182437) scale(0.1 -0.1)">
       <defs>
        <path id="DejaVuSans-39" d="M 703 97 
L 703 672 
Q 941 559 1184 500 
Q 1428 441 1663 441 
Q 2288 441 2617 861 
Q 2947 1281 2994 2138 
Q 2813 1869 2534 1725 
Q 2256 1581 1919 1581 
Q 1219 1581 811 2004 
Q 403 2428 403 3163 
Q 403 3881 828 4315 
Q 1253 4750 1959 4750 
Q 2769 4750 3195 4129 
Q 3622 3509 3622 2328 
Q 3622 1225 3098 567 
Q 2575 -91 1691 -91 
Q 1453 -91 1209 -44 
Q 966 3 703 97 
z
M 1959 2075 
Q 2384 2075 2632 2365 
Q 2881 2656 2881 3163 
Q 2881 3666 2632 3958 
Q 2384 4250 1959 4250 
Q 1534 4250 1286 3958 
Q 1038 3666 1038 3163 
Q 1038 2656 1286 2365 
Q 1534 2075 1959 2075 
z
" transform="scale(0.015625)"/>
       </defs>
       <use xlink:href="#DejaVuSans-39"/>
      </g>
     </g>
    </g>
    <g id="xtick_16">
     <g id="line2d_16">
      <g>
       <use xlink:href="#m106c657a44" x="399.573074" y="307.584" style="stroke: #000000; stroke-width: 0.8"/>
      </g>
     </g>
     <g id="text_16">
      <!-- 10 -->
      <g transform="translate(393.210574 322.182437) scale(0.1 -0.1)">
       <use xlink:href="#DejaVuSans-31"/>
       <use xlink:href="#DejaVuSans-30" x="63.623047"/>
      </g>
     </g>
    </g>
    <g id="text_17">
     <!-- Time (s) -->
     <g transform="translate(215.831094 335.860562) scale(0.1 -0.1)">
      <defs>
       <path id="DejaVuSans-54" d="M -19 4666 
L 3928 4666 
L 3928 4134 
L 2272 4134 
L 2272 0 
L 1638 0 
L 1638 4134 
L -19 4134 
L -19 4666 
z
" transform="scale(0.015625)"/>
       <path id="DejaVuSans-69" d="M 603 3500 
L 1178 3500 
L 1178 0 
L 603 0 
L 603 3500 
z
M 603 4863 
L 1178 4863 
L 1178 4134 
L 603 4134 
L 603 4863 
z
" transform="scale(0.015625)"/>
       <path id="DejaVuSans-6d" d="M 3328 2828 
Q 3544 3216 3844 3400 
Q 4144 3584 4550 3584 
Q 5097 3584 5394 3201 
Q 5691 2819 5691 2113 
L 5691 0 
L 5113 0 
L 5113 2094 
Q 5113 2597 4934 2840 
Q 4756 3084 4391 3084 
Q 3944 3084 3684 2787 
Q 3425 2491 3425 1978 
L 3425 0 
L 2847 0 
L 2847 2094 
Q 2847 2600 2669 2842 
Q 2491 3084 2119 3084 
Q 1678 3084 1418 2786 
Q 1159 2488 1159 1978 
L 1159 0 
L 581 0 
L 581 3500 
L 1159 3500 
L 1159 2956 
Q 1356 3278 1631 3431 
Q 1906 3584 2284 3584 
Q 2666 3584 2933 3390 
Q 3200 3197 3328 2828 
z
" transform="scale(0.015625)"/>
       <path id="DejaVuSans-65" d="M 3597 1894 
L 3597 1613 
L 953 1613 
Q 991 1019 1311 708 
Q 1631 397 2203 397 
Q 2534 397 2845 478 
Q 3156 559 3463 722 
L 3463 178 
Q 3153 47 2828 -22 
Q 2503 -91 2169 -91 
Q 1331 -91 842 396 
Q 353 884 353 1716 
Q 353 2575 817 3079 
Q 1281 3584 2069 3584 
Q 2775 3584 3186 3129 
Q 3597 2675 3597 1894 
z
M 3022 2063 
Q 3016 2534 2758 2815 
Q 2500 3097 2075 3097 
Q 1594 3097 1305 2825 
Q 1016 2553 972 2059 
L 3022 2063 
z
" transform="scale(0.015625)"/>
       <path id="DejaVuSans-20" transform="scale(0.015625)"/>
       <path id="DejaVuSans-28" d="M 1984 4856 
Q 1566 4138 1362 3434 
Q 1159 2731 1159 2009 
Q 1159 1288 1364 580 
Q 1569 -128 1984 -844 
L 1484 -844 
Q 1016 -109 783 600 
Q 550 1309 550 2009 
Q 550 2706 781 3412 
Q 1013 4119 1484 4856 
L 1984 4856 
z
" transform="scale(0.015625)"/>
       <path id="DejaVuSans-73" d="M 2834 3397 
L 2834 2853 
Q 2591 2978 2328 3040 
Q 2066 3103 1784 3103 
Q 1356 3103 1142 2972 
Q 928 2841 928 2578 
Q 928 2378 1081 2264 
Q 1234 2150 1697 2047 
L 1894 2003 
Q 2506 1872 2764 1633 
Q 3022 1394 3022 966 
Q 3022 478 2636 193 
Q 2250 -91 1575 -91 
Q 1294 -91 989 -36 
Q 684 19 347 128 
L 347 722 
Q 666 556 975 473 
Q 1284 391 1588 391 
Q 1994 391 2212 530 
Q 2431 669 2431 922 
Q 2431 1156 2273 1281 
Q 2116 1406 1581 1522 
L 1381 1569 
Q 847 1681 609 1914 
Q 372 2147 372 2553 
Q 372 3047 722 3315 
Q 1072 3584 1716 3584 
Q 2034 3584 2315 3537 
Q 2597 3491 2834 3397 
z
" transform="scale(0.015625)"/>
       <path id="DejaVuSans-29" d="M 513 4856 
L 1013 4856 
Q 1481 4119 1714 3412 
Q 1947 2706 1947 2009 
Q 1947 1309 1714 600 
Q 1481 -109 1013 -844 
L 513 -844 
Q 928 -128 1133 580 
Q 1338 1288 1338 2009 
Q 1338 2731 1133 3434 
Q 928 4138 513 4856 
z
" transform="scale(0.015625)"/>
      </defs>
      <use xlink:href="#DejaVuSans-54"/>
      <use xlink:href="#DejaVuSans-69" x="57.958984"/>
      <use xlink:href="#DejaVuSans-6d" x="85.742188"/>
      <use xlink:href="#DejaVuSans-65" x="183.154297"/>
      <use xlink:href="#DejaVuSans-20" x="244.677734"/>
      <use xlink:href="#DejaVuSans-28" x="276.464844"/>
      <use xlink:href="#DejaVuSans-73" x="315.478516"/>
      <use xlink:href="#DejaVuSans-29" x="367.578125"/>
     </g>
    </g>
   </g>
   <g id="matplotlib.axis_2">
    <g id="ytick_1">
     <g id="line2d_17">
      <defs>
       <path id="m9a04a7a337" d="M 0 0 
L -3.5 0 
" style="stroke: #000000; stroke-width: 0.8"/>
      </defs>
      <g>
       <use xlink:href="#m9a04a7a337" x="57.6" y="283.098329" style="stroke: #000000; stroke-width: 0.8"/>
      </g>
     </g>
     <g id="text_18">
      <!-- −1 -->
      <g transform="translate(35.857813 286.897547) scale(0.1 -0.1)">
       <use xlink:href="#DejaVuSans-2212"/>
       <use xlink:href="#DejaVuSans-31" x="83.789062"/>
      </g>
     </g>
    </g>
    <g id="ytick_2">
     <g id="line2d_18">
      <g>
       <use xlink:href="#m9a04a7a337" x="57.6" y="246.020169" style="stroke: #000000; stroke-width: 0.8"/>
      </g>
     </g>
     <g id="text_19">
      <!-- 0 -->
      <g transform="translate(44.2375 249.819388) scale(0.1 -0.1)">
       <use xlink:href="#DejaVuSans-30"/>
      </g>
     </g>
    </g>
    <g id="ytick_3">
     <g id="line2d_19">
      <g>
       <use xlink:href="#m9a04a7a337" x="57.6" y="208.94201" style="stroke: #000000; stroke-width: 0.8"/>
      </g>
     </g>
     <g id="text_20">
      <!-- 1 -->
      <g transform="translate(44.2375 212.741228) scale(0.1 -0.1)">
       <use xlink:href="#DejaVuSans-31"/>
      </g>
     </g>
    </g>
    <g id="ytick_4">
     <g id="line2d_20">
      <g>
       <use xlink:href="#m9a04a7a337" x="57.6" y="171.86385" style="stroke: #000000; stroke-width: 0.8"/>
      </g>
     </g>
     <g id="text_21">
      <!-- 2 -->
      <g transform="translate(44.2375 175.663069) scale(0.1 -0.1)">
       <use xlink:href="#DejaVuSans-32"/>
      </g>
     </g>
    </g>
    <g id="ytick_5">
     <g id="line2d_21">
      <g>
       <use xlink:href="#m9a04a7a337" x="57.6" y="134.78569" style="stroke: #000000; stroke-width: 0.8"/>
      </g>
     </g>
     <g id="text_22">
      <!-- 3 -->
      <g transform="translate(44.2375 138.584909) scale(0.1 -0.1)">
       <use xlink:href="#DejaVuSans-33"/>
      </g>
     </g>
    </g>
    <g id="ytick_6">
     <g id="line2d_22">
      <g>
       <use xlink:href="#m9a04a7a337" x="57.6" y="97.707531" style="stroke: #000000; stroke-width: 0.8"/>
      </g>
     </g>
     <g id="text_23">
      <!-- 4 -->
      <g transform="translate(44.2375 101.50675) scale(0.1 -0.1)">
       <use xlink:href="#DejaVuSans-34"/>
      </g>
     </g>
    </g>
    <g id="ytick_7">
     <g id="line2d_23">
      <g>
       <use xlink:href="#m9a04a7a337" x="57.6" y="60.629371" style="stroke: #000000; stroke-width: 0.8"/>
      </g>
     </g>
     <g id="text_24">
      <!-- 5 -->
      <g transform="translate(44.2375 64.42859) scale(0.1 -0.1)">
       <use xlink:href="#DejaVuSans-35"/>
      </g>
     </g>
    </g>
    <g id="text_25">
     <!-- Z-Score -->
     <g transform="translate(29.778125 193.67175) rotate(-90) scale(0.1 -0.1)">
      <defs>
       <path id="DejaVuSans-5a" d="M 359 4666 
L 4025 4666 
L 4025 4184 
L 1075 531 
L 4097 531 
L 4097 0 
L 288 0 
L 288 481 
L 3238 4134 
L 359 4134 
L 359 4666 
z
" transform="scale(0.015625)"/>
       <path id="DejaVuSans-2d" d="M 313 2009 
L 1997 2009 
L 1997 1497 
L 313 1497 
L 313 2009 
z
" transform="scale(0.015625)"/>
       <path id="DejaVuSans-53" d="M 3425 4513 
L 3425 3897 
Q 3066 4069 2747 4153 
Q 2428 4238 2131 4238 
Q 1616 4238 1336 4038 
Q 1056 3838 1056 3469 
Q 1056 3159 1242 3001 
Q 1428 2844 1947 2747 
L 2328 2669 
Q 3034 2534 3370 2195 
Q 3706 1856 3706 1288 
Q 3706 609 3251 259 
Q 2797 -91 1919 -91 
Q 1588 -91 1214 -16 
Q 841 59 441 206 
L 441 856 
Q 825 641 1194 531 
Q 1563 422 1919 422 
Q 2459 422 2753 634 
Q 3047 847 3047 1241 
Q 3047 1584 2836 1778 
Q 2625 1972 2144 2069 
L 1759 2144 
Q 1053 2284 737 2584 
Q 422 2884 422 3419 
Q 422 4038 858 4394 
Q 1294 4750 2059 4750 
Q 2388 4750 2728 4690 
Q 3069 4631 3425 4513 
z
" transform="scale(0.015625)"/>
       <path id="DejaVuSans-63" d="M 3122 3366 
L 3122 2828 
Q 2878 2963 2633 3030 
Q 2388 3097 2138 3097 
Q 1578 3097 1268 2742 
Q 959 2388 959 1747 
Q 959 1106 1268 751 
Q 1578 397 2138 397 
Q 2388 397 2633 464 
Q 2878 531 3122 666 
L 3122 134 
Q 2881 22 2623 -34 
Q 2366 -91 2075 -91 
Q 1284 -91 818 406 
Q 353 903 353 1747 
Q 353 2603 823 3093 
Q 1294 3584 2113 3584 
Q 2378 3584 2631 3529 
Q 2884 3475 3122 3366 
z
" transform="scale(0.015625)"/>
       <path id="DejaVuSans-6f" d="M 1959 3097 
Q 1497 3097 1228 2736 
Q 959 2375 959 1747 
Q 959 1119 1226 758 
Q 1494 397 1959 397 
Q 2419 397 2687 759 
Q 2956 1122 2956 1747 
Q 2956 2369 2687 2733 
Q 2419 3097 1959 3097 
z
M 1959 3584 
Q 2709 3584 3137 3096 
Q 3566 2609 3566 1747 
Q 3566 888 3137 398 
Q 2709 -91 1959 -91 
Q 1206 -91 779 398 
Q 353 888 353 1747 
Q 353 2609 779 3096 
Q 1206 3584 1959 3584 
z
" transform="scale(0.015625)"/>
       <path id="DejaVuSans-72" d="M 2631 2963 
Q 2534 3019 2420 3045 
Q 2306 3072 2169 3072 
Q 1681 3072 1420 2755 
Q 1159 2438 1159 1844 
L 1159 0 
L 581 0 
L 581 3500 
L 1159 3500 
L 1159 2956 
Q 1341 3275 1631 3429 
Q 1922 3584 2338 3584 
Q 2397 3584 2469 3576 
Q 2541 3569 2628 3553 
L 2631 2963 
z
" transform="scale(0.015625)"/>
      </defs>
      <use xlink:href="#DejaVuSans-5a"/>
      <use xlink:href="#DejaVuSans-2d" x="66.755859"/>
      <use xlink:href="#DejaVuSans-53" x="102.839844"/>
      <use xlink:href="#DejaVuSans-63" x="166.316406"/>
      <use xlink:href="#DejaVuSans-6f" x="221.296875"/>
      <use xlink:href="#DejaVuSans-72" x="282.478516"/>
      <use xlink:href="#DejaVuSans-65" x="321.341797"/>
     </g>
    </g>
   </g>
   <g id="line2d_24">
    <path d="M 73.832727 258.86076 
L 74.918528 256.985145 
L 77.090131 254.984837 
L 78.175932 254.38917 
L 79.261733 253.482375 
L 80.347534 253.703079 
L 81.433335 253.747758 
L 82.519137 253.073267 
L 83.604938 253.510945 
L 84.690739 252.775617 
L 85.77654 253.068567 
L 87.948142 251.077026 
L 89.033943 251.935857 
L 92.291347 249.133189 
L 93.377148 247.41647 
L 94.462949 246.836918 
L 95.54875 245.89128 
L 96.634552 244.6781 
L 97.720353 243.138242 
L 98.806154 242.640473 
L 99.891955 242.563873 
L 100.977756 242.1935 
L 102.063557 241.311248 
L 103.149358 240.041188 
L 104.23516 238.949517 
L 105.320961 238.881433 
L 106.406762 238.223509 
L 107.492563 237.288601 
L 108.578364 236.803433 
L 109.664165 236.931787 
L 110.749967 237.562288 
L 111.835768 237.53084 
L 114.00737 238.770314 
L 115.093171 238.831655 
L 116.178972 239.3791 
L 117.264773 240.157124 
L 118.350575 240.150925 
L 119.436376 241.465082 
L 120.522177 241.079559 
L 121.607978 241.535545 
L 122.693779 242.145278 
L 123.77958 241.608797 
L 124.865382 241.397307 
L 125.951183 241.479809 
L 127.036984 241.989039 
L 128.122785 242.345081 
L 129.208586 243.007469 
L 130.294387 243.136087 
L 131.380189 243.794603 
L 132.46599 243.915867 
L 133.551791 243.777901 
L 134.637592 244.177702 
L 135.723393 244.429971 
L 136.809194 245.640163 
L 137.894995 245.991927 
L 138.980797 247.567263 
L 140.066598 247.29932 
L 141.152399 248.512679 
L 142.2382 248.251253 
L 143.324001 248.550564 
L 144.409802 247.854637 
L 145.495604 247.73259 
L 147.667206 248.011696 
L 148.753007 248.374374 
L 149.838808 247.362641 
L 150.924609 247.311324 
L 152.01041 247.38183 
L 153.096212 247.875533 
L 154.182013 248.544814 
L 155.267814 249.454217 
L 156.353615 250.610096 
L 157.439416 252.117549 
L 158.525217 252.350611 
L 160.69682 251.908553 
L 161.782621 251.826776 
L 162.868422 251.975785 
L 163.954223 249.976 
L 165.040024 249.271623 
L 167.211627 248.391057 
L 168.297428 247.260754 
L 169.383229 246.894767 
L 170.46903 246.19313 
L 172.640632 245.253334 
L 173.726434 245.204281 
L 174.812235 244.467223 
L 175.898036 243.444211 
L 176.983837 242.000758 
L 178.069638 241.513935 
L 179.155439 241.517068 
L 180.24124 239.957153 
L 181.327042 238.028717 
L 182.412843 234.803752 
L 184.584445 231.408273 
L 186.756047 229.306665 
L 187.841849 227.529609 
L 190.013451 221.630721 
L 191.099252 219.561884 
L 192.185053 216.134087 
L 193.270854 214.026259 
L 195.442457 208.763019 
L 196.528258 208.489978 
L 197.614059 206.654701 
L 198.69986 205.402327 
L 199.785661 202.335191 
L 200.871462 200.594913 
L 201.957264 197.465799 
L 203.043065 196.519972 
L 204.128866 193.490383 
L 206.300468 190.368865 
L 207.386269 189.455469 
L 208.472071 187.413211 
L 209.557872 184.809221 
L 210.643673 183.447189 
L 211.729474 181.752225 
L 212.815275 180.479339 
L 213.901076 178.332666 
L 214.986877 176.856474 
L 217.15848 171.222208 
L 218.244281 169.085442 
L 219.330082 167.447553 
L 220.415883 166.249275 
L 221.501684 165.536636 
L 222.587486 165.183729 
L 223.673287 165.412138 
L 224.759088 165.127888 
L 225.844889 163.998793 
L 226.93069 164.456375 
L 228.016491 163.828441 
L 229.102292 163.601103 
L 230.188094 163.2436 
L 231.273895 163.45353 
L 232.359696 162.660119 
L 233.445497 162.448404 
L 234.531298 162.005209 
L 235.617099 161.885045 
L 236.702901 162.029922 
L 237.788702 162.637045 
L 238.874503 163.935063 
L 239.960304 165.025026 
L 242.131906 166.089311 
L 243.217708 168.148339 
L 244.303509 169.588712 
L 245.38931 170.656287 
L 246.475111 172.482428 
L 248.646713 176.687862 
L 249.732514 177.903306 
L 250.818316 178.663949 
L 251.904117 180.441337 
L 254.075719 186.015994 
L 255.16152 188.637127 
L 256.247321 193.158968 
L 257.333123 195.593745 
L 258.418924 198.733203 
L 259.504725 201.020332 
L 260.590526 201.805907 
L 261.676327 203.189195 
L 262.762128 204.299405 
L 263.847929 206.011594 
L 264.933731 206.089933 
L 266.019532 207.766601 
L 267.105333 208.269281 
L 268.191134 210.612572 
L 269.276935 210.816678 
L 271.448538 211.982439 
L 273.62014 215.308517 
L 274.705941 216.468123 
L 275.791742 217.848369 
L 276.877543 219.009124 
L 277.963344 221.666966 
L 279.049146 223.439479 
L 280.134947 224.923579 
L 281.220748 226.6837 
L 282.306549 227.923953 
L 283.39235 228.782609 
L 284.478151 230.065346 
L 285.563953 230.540368 
L 286.649754 231.26537 
L 287.735555 231.123393 
L 288.821356 231.350029 
L 289.907157 232.123922 
L 290.992958 231.847454 
L 292.07876 231.377148 
L 293.164561 230.783829 
L 294.250362 230.750675 
L 295.336163 229.716317 
L 296.421964 229.690445 
L 298.593566 227.790658 
L 299.679368 226.833007 
L 300.765169 225.641821 
L 302.936771 222.171236 
L 304.022572 221.089752 
L 305.108373 219.287179 
L 306.194175 218.316946 
L 307.279976 216.30606 
L 308.365777 214.042145 
L 309.451578 212.088356 
L 310.537379 209.617436 
L 311.62318 207.606591 
L 312.708981 205.033057 
L 313.794783 203.303552 
L 314.880584 202.399644 
L 317.052186 198.456383 
L 318.137987 196.281281 
L 319.223788 194.746837 
L 320.30959 191.50118 
L 322.481192 186.276724 
L 323.566993 183.867356 
L 324.652794 182.596838 
L 325.738595 181.515567 
L 326.824396 180.150687 
L 330.0818 178.492734 
L 331.167601 177.278366 
L 332.253402 175.724879 
L 333.339203 175.82399 
L 334.425005 176.342825 
L 336.596607 174.545252 
L 337.682408 174.225308 
L 340.939811 172.085857 
L 342.025613 171.592952 
L 343.111414 171.235647 
L 344.197215 171.381618 
L 345.283016 172.097114 
L 346.368817 172.443589 
L 347.454618 173.192538 
L 349.626221 173.954971 
L 350.712022 174.479826 
L 352.883624 176.118118 
L 353.969425 177.136099 
L 355.055227 178.738186 
L 356.141028 181.223387 
L 357.226829 183.226275 
L 358.31263 185.980215 
L 359.398431 189.915787 
L 360.484232 191.055089 
L 361.570033 192.492809 
L 362.655835 193.394331 
L 363.741636 193.191454 
L 364.827437 192.792621 
L 365.913238 191.802604 
L 366.999039 191.598945 
L 368.08484 189.940466 
L 369.170642 188.654346 
L 370.256443 186.343976 
L 371.342244 184.885327 
L 372.428045 184.527866 
L 373.513846 184.01996 
L 374.599647 183.894438 
L 375.685448 182.827308 
L 376.77125 181.185949 
L 377.857051 179.042729 
L 378.942852 177.312564 
L 380.028653 176.622808 
L 381.114454 175.18285 
L 382.200255 174.265578 
L 383.286057 172.673477 
L 384.371858 172.446701 
L 385.457659 172.569389 
L 386.54346 173.013063 
L 387.629261 174.503158 
L 388.715062 174.137019 
L 389.800863 174.228812 
L 390.886665 173.974593 
L 391.972466 172.449293 
L 393.058267 173.218098 
L 394.144068 171.945865 
L 395.229869 170.27874 
L 396.31567 169.466201 
L 397.401472 167.361 
L 398.487273 163.747343 
L 398.487273 163.747343 
" clip-path="url(#p8420b0c6ba)" style="fill: none; stroke: #ff00ff; stroke-width: 1.5; stroke-linecap: square"/>
   </g>
   <g id="line2d_25">
    <path d="M 182.412843 307.584 
L 182.412843 41.472 
" clip-path="url(#p8420b0c6ba)" style="fill: none; stroke: #000000; stroke-width: 1.5; stroke-linecap: square"/>
   </g>
   <g id="patch_3">
    <path d="M 57.6 307.584 
L 57.6 41.472 
" style="fill: none; stroke: #000000; stroke-width: 0.8; stroke-linejoin: miter; stroke-linecap: square"/>
   </g>
   <g id="patch_4">
    <path d="M 414.72 307.584 
L 414.72 41.472 
" style="fill: none; stroke: #000000; stroke-width: 0.8; stroke-linejoin: miter; stroke-linecap: square"/>
   </g>
   <g id="patch_5">
    <path d="M 57.6 307.584 
L 414.72 307.584 
" style="fill: none; stroke: #000000; stroke-width: 0.8; stroke-linejoin: miter; stroke-linecap: square"/>
   </g>
   <g id="patch_6">
    <path d="M 57.6 41.472 
L 414.72 41.472 
" style="fill: none; stroke: #000000; stroke-width: 0.8; stroke-linejoin: miter; stroke-linecap: square"/>
   </g>
   <g id="text_26">
    <!-- Event 6_p=0.395 -->
    <g transform="translate(184.232812 35.472) scale(0.12 -0.12)">
     <defs>
      <path id="DejaVuSans-45" d="M 628 4666 
L 3578 4666 
L 3578 4134 
L 1259 4134 
L 1259 2753 
L 3481 2753 
L 3481 2222 
L 1259 2222 
L 1259 531 
L 3634 531 
L 3634 0 
L 628 0 
L 628 4666 
z
" transform="scale(0.015625)"/>
      <path id="DejaVuSans-76" d="M 191 3500 
L 800 3500 
L 1894 563 
L 2988 3500 
L 3597 3500 
L 2284 0 
L 1503 0 
L 191 3500 
z
" transform="scale(0.015625)"/>
      <path id="DejaVuSans-6e" d="M 3513 2113 
L 3513 0 
L 2938 0 
L 2938 2094 
Q 2938 2591 2744 2837 
Q 2550 3084 2163 3084 
Q 1697 3084 1428 2787 
Q 1159 2491 1159 1978 
L 1159 0 
L 581 0 
L 581 3500 
L 1159 3500 
L 1159 2956 
Q 1366 3272 1645 3428 
Q 1925 3584 2291 3584 
Q 2894 3584 3203 3211 
Q 3513 2838 3513 2113 
z
" transform="scale(0.015625)"/>
      <path id="DejaVuSans-74" d="M 1172 4494 
L 1172 3500 
L 2356 3500 
L 2356 3053 
L 1172 3053 
L 1172 1153 
Q 1172 725 1289 603 
Q 1406 481 1766 481 
L 2356 481 
L 2356 0 
L 1766 0 
Q 1100 0 847 248 
Q 594 497 594 1153 
L 594 3053 
L 172 3053 
L 172 3500 
L 594 3500 
L 594 4494 
L 1172 4494 
z
" transform="scale(0.015625)"/>
      <path id="DejaVuSans-5f" d="M 3263 -1063 
L 3263 -1509 
L -63 -1509 
L -63 -1063 
L 3263 -1063 
z
" transform="scale(0.015625)"/>
      <path id="DejaVuSans-70" d="M 1159 525 
L 1159 -1331 
L 581 -1331 
L 581 3500 
L 1159 3500 
L 1159 2969 
Q 1341 3281 1617 3432 
Q 1894 3584 2278 3584 
Q 2916 3584 3314 3078 
Q 3713 2572 3713 1747 
Q 3713 922 3314 415 
Q 2916 -91 2278 -91 
Q 1894 -91 1617 61 
Q 1341 213 1159 525 
z
M 3116 1747 
Q 3116 2381 2855 2742 
Q 2594 3103 2138 3103 
Q 1681 3103 1420 2742 
Q 1159 2381 1159 1747 
Q 1159 1113 1420 752 
Q 1681 391 2138 391 
Q 2594 391 2855 752 
Q 3116 1113 3116 1747 
z
" transform="scale(0.015625)"/>
      <path id="DejaVuSans-3d" d="M 678 2906 
L 4684 2906 
L 4684 2381 
L 678 2381 
L 678 2906 
z
M 678 1631 
L 4684 1631 
L 4684 1100 
L 678 1100 
L 678 1631 
z
" transform="scale(0.015625)"/>
      <path id="DejaVuSans-2e" d="M 684 794 
L 1344 794 
L 1344 0 
L 684 0 
L 684 794 
z
" transform="scale(0.015625)"/>
     </defs>
     <use xlink:href="#DejaVuSans-45"/>
     <use xlink:href="#DejaVuSans-76" x="63.183594"/>
     <use xlink:href="#DejaVuSans-65" x="122.363281"/>
     <use xlink:href="#DejaVuSans-6e" x="183.886719"/>
     <use xlink:href="#DejaVuSans-74" x="247.265625"/>
     <use xlink:href="#DejaVuSans-20" x="286.474609"/>
     <use xlink:href="#DejaVuSans-36" x="318.261719"/>
     <use xlink:href="#DejaVuSans-5f" x="381.884766"/>
     <use xlink:href="#DejaVuSans-70" x="431.884766"/>
     <use xlink:href="#DejaVuSans-3d" x="495.361328"/>
     <use xlink:href="#DejaVuSans-30" x="579.150391"/>
     <use xlink:href="#DejaVuSans-2e" x="642.773438"/>
     <use xlink:href="#DejaVuSans-33" x="674.560547"/>
     <use xlink:href="#DejaVuSans-39" x="738.183594"/>
     <use xlink:href="#DejaVuSans-35" x="801.806641"/>
    </g>
   </g>
  </g>
 </g>
 <defs>
  <clipPath id="p8420b0c6ba">
   <rect x="57.6" y="41.472" width="357.12" height="266.112"/>
  </clipPath>
 </defs>
</svg>
