<?xml version="1.0" encoding="utf-8" standalone="no"?>
<!DOCTYPE svg PUBLIC "-//W3C//DTD SVG 1.1//EN"
  "http://www.w3.org/Graphics/SVG/1.1/DTD/svg11.dtd">
<svg xmlns:xlink="http://www.w3.org/1999/xlink" width="460.8pt" height="345.6pt" viewBox="0 0 460.8 345.6" xmlns="http://www.w3.org/2000/svg" version="1.1">
 <metadata>
  <rdf:RDF xmlns:dc="http://purl.org/dc/elements/1.1/" xmlns:cc="http://creativecommons.org/ns#" xmlns:rdf="http://www.w3.org/1999/02/22-rdf-syntax-ns#">
   <cc:Work>
    <dc:type rdf:resource="http://purl.org/dc/dcmitype/StillImage"/>
    <dc:date>2024-11-12T22:27:52.027057</dc:date>
    <dc:format>image/svg+xml</dc:format>
    <dc:creator>
     <cc:Agent>
      <dc:title>Matplotlib v3.8.2, https://matplotlib.org/</dc:title>
     </cc:Agent>
    </dc:creator>
   </cc:Work>
  </rdf:RDF>
 </metadata>
 <defs>
  <style type="text/css">*{stroke-linejoin: round; stroke-linecap: butt}</style>
 </defs>
 <g id="figure_1">
  <g id="patch_1">
   <path d="M 0 345.6 
L 460.8 345.6 
L 460.8 0 
L 0 0 
z
" style="fill: #ffffff"/>
  </g>
  <g id="axes_1">
   <g id="patch_2">
    <path d="M 57.6 307.584 
L 414.72 307.584 
L 414.72 41.472 
L 57.6 41.472 
z
" style="fill: #ffffff"/>
   </g>
   <g id="PolyCollection_1">
    <defs>
     <path id="mb5d32524be" d="M 73.832727 -135.683598 
L 73.832727 -84.463968 
L 74.918528 -82.623465 
L 76.00433 -78.972717 
L 77.090131 -75.89482 
L 78.175932 -74.383627 
L 79.261733 -72.103066 
L 80.347534 -69.951011 
L 81.433335 -68.8033 
L 82.519137 -67.211377 
L 83.604938 -66.087213 
L 84.690739 -66.008544 
L 85.77654 -65.858985 
L 86.862341 -65.068891 
L 87.948142 -64.514315 
L 89.033943 -65.12802 
L 90.119745 -64.905561 
L 91.205546 -64.644046 
L 92.291347 -63.813237 
L 93.377148 -64.345044 
L 94.462949 -64.21215 
L 95.54875 -64.822417 
L 96.634552 -64.058697 
L 97.720353 -64.146112 
L 98.806154 -63.670736 
L 99.891955 -63.188099 
L 100.977756 -61.61498 
L 102.063557 -61.782867 
L 103.149358 -60.675365 
L 104.23516 -59.779302 
L 105.320961 -58.291699 
L 106.406762 -57.506343 
L 107.492563 -57.636885 
L 108.578364 -56.658294 
L 109.664165 -55.422101 
L 110.749967 -54.330311 
L 111.835768 -53.525875 
L 112.921569 -52.55295 
L 114.00737 -52.10187 
L 115.093171 -51.395018 
L 116.178972 -52.212937 
L 117.264773 -50.820695 
L 118.350575 -50.112 
L 119.436376 -50.573233 
L 120.522177 -52.554936 
L 121.607978 -52.970649 
L 122.693779 -53.944202 
L 123.77958 -54.416456 
L 124.865382 -56.387222 
L 125.951183 -58.070791 
L 127.036984 -60.007342 
L 128.122785 -63.127192 
L 129.208586 -64.072559 
L 130.294387 -65.597958 
L 131.380189 -67.154314 
L 132.46599 -67.172033 
L 133.551791 -68.586895 
L 134.637592 -68.900345 
L 135.723393 -69.813328 
L 136.809194 -70.149395 
L 137.894995 -71.361674 
L 138.980797 -72.625712 
L 140.066598 -74.72061 
L 141.152399 -76.128087 
L 142.2382 -77.552685 
L 143.324001 -78.890378 
L 144.409802 -79.966926 
L 145.495604 -80.616003 
L 146.581405 -79.927547 
L 147.667206 -81.526949 
L 148.753007 -80.921453 
L 149.838808 -81.681471 
L 150.924609 -82.277079 
L 152.01041 -83.858454 
L 153.096212 -84.941873 
L 154.182013 -86.496106 
L 155.267814 -87.426765 
L 156.353615 -89.463038 
L 157.439416 -90.795604 
L 158.525217 -91.821197 
L 159.611019 -92.36962 
L 160.69682 -93.530661 
L 161.782621 -93.498804 
L 162.868422 -94.92121 
L 163.954223 -95.58177 
L 165.040024 -96.807481 
L 166.125825 -97.827753 
L 167.211627 -100.505901 
L 168.297428 -101.193918 
L 169.383229 -102.916622 
L 170.46903 -105.711868 
L 171.554831 -106.036935 
L 172.640632 -107.598038 
L 173.726434 -109.102914 
L 174.812235 -109.570181 
L 175.898036 -110.687374 
L 176.983837 -110.873291 
L 178.069638 -111.412579 
L 179.155439 -110.865029 
L 180.24124 -110.694707 
L 181.327042 -110.493356 
L 182.412843 -110.917972 
L 183.498644 -110.643978 
L 184.584445 -110.689102 
L 185.670246 -109.312848 
L 186.756047 -109.555511 
L 187.841849 -108.966394 
L 188.92765 -107.641516 
L 190.013451 -107.578827 
L 191.099252 -106.664072 
L 192.185053 -106.48361 
L 193.270854 -106.007239 
L 194.356656 -106.16681 
L 195.442457 -106.120902 
L 196.528258 -106.813259 
L 197.614059 -106.85701 
L 198.69986 -106.849454 
L 199.785661 -107.190445 
L 200.871462 -107.175699 
L 201.957264 -106.575506 
L 203.043065 -105.82692 
L 204.128866 -106.039545 
L 205.214667 -104.809943 
L 206.300468 -104.017088 
L 207.386269 -103.932506 
L 208.472071 -102.917326 
L 209.557872 -102.395989 
L 210.643673 -101.052602 
L 211.729474 -101.94355 
L 212.815275 -100.37748 
L 213.901076 -99.47933 
L 214.986877 -97.740355 
L 216.072679 -96.757806 
L 217.15848 -95.68666 
L 218.244281 -94.227741 
L 219.330082 -93.780423 
L 220.415883 -92.981658 
L 221.501684 -93.143445 
L 222.587486 -92.758382 
L 223.673287 -92.373657 
L 224.759088 -91.637263 
L 225.844889 -91.599041 
L 226.93069 -90.955608 
L 228.016491 -90.969557 
L 229.102292 -90.743189 
L 230.188094 -90.533559 
L 231.273895 -90.862534 
L 232.359696 -89.81375 
L 233.445497 -88.077278 
L 234.531298 -87.82089 
L 235.617099 -87.915152 
L 236.702901 -87.170463 
L 237.788702 -87.347889 
L 238.874503 -87.299278 
L 239.960304 -87.026451 
L 241.046105 -85.088849 
L 242.131906 -84.455261 
L 243.217708 -83.930512 
L 244.303509 -83.405352 
L 245.38931 -83.620503 
L 246.475111 -82.982102 
L 247.560912 -82.919002 
L 248.646713 -83.708453 
L 249.732514 -85.182171 
L 250.818316 -86.224607 
L 251.904117 -87.89555 
L 252.989918 -89.7189 
L 254.075719 -89.441451 
L 255.16152 -89.040552 
L 256.247321 -88.871039 
L 257.333123 -88.756041 
L 258.418924 -89.549652 
L 259.504725 -89.941956 
L 260.590526 -89.164141 
L 261.676327 -89.119019 
L 262.762128 -90.577236 
L 263.847929 -90.244628 
L 264.933731 -89.610705 
L 266.019532 -89.12551 
L 267.105333 -87.919337 
L 268.191134 -87.782101 
L 269.276935 -90.445623 
L 270.362736 -90.613784 
L 271.448538 -89.113782 
L 272.534339 -88.567967 
L 273.62014 -88.818361 
L 274.705941 -89.146377 
L 275.791742 -87.105349 
L 276.877543 -88.067113 
L 277.963344 -88.52223 
L 279.049146 -88.435373 
L 280.134947 -89.280219 
L 281.220748 -89.69225 
L 282.306549 -90.914417 
L 283.39235 -90.794265 
L 284.478151 -89.677248 
L 285.563953 -90.06811 
L 286.649754 -89.458096 
L 287.735555 -89.439798 
L 288.821356 -90.301701 
L 289.907157 -91.185768 
L 290.992958 -92.724072 
L 292.07876 -94.53795 
L 293.164561 -96.629464 
L 294.250362 -96.22914 
L 295.336163 -97.626501 
L 296.421964 -100.274756 
L 297.507765 -103.492775 
L 298.593566 -106.361462 
L 299.679368 -106.8133 
L 300.765169 -107.9167 
L 301.85097 -107.744973 
L 302.936771 -107.942635 
L 304.022572 -109.826896 
L 305.108373 -111.044989 
L 306.194175 -112.502962 
L 307.279976 -112.72626 
L 308.365777 -113.074353 
L 309.451578 -113.607814 
L 310.537379 -113.73295 
L 311.62318 -114.16878 
L 312.708981 -113.908985 
L 313.794783 -115.006149 
L 314.880584 -113.517547 
L 315.966385 -111.625552 
L 317.052186 -111.518944 
L 318.137987 -110.664513 
L 319.223788 -110.268146 
L 320.30959 -110.832609 
L 321.395391 -111.050919 
L 322.481192 -110.599137 
L 323.566993 -111.097091 
L 324.652794 -111.631775 
L 325.738595 -111.724264 
L 326.824396 -111.641019 
L 327.910198 -112.221354 
L 328.995999 -112.113894 
L 330.0818 -112.372709 
L 331.167601 -113.717778 
L 332.253402 -113.270801 
L 333.339203 -111.590326 
L 334.425005 -111.347469 
L 335.510806 -111.891116 
L 336.596607 -112.741008 
L 337.682408 -114.221278 
L 338.768209 -113.400092 
L 339.85401 -113.833429 
L 340.939811 -113.878105 
L 342.025613 -115.064814 
L 343.111414 -116.704916 
L 344.197215 -116.329036 
L 345.283016 -117.82679 
L 346.368817 -116.670575 
L 347.454618 -116.66875 
L 348.54042 -117.573739 
L 349.626221 -118.775935 
L 350.712022 -120.880653 
L 351.797823 -123.671297 
L 352.883624 -125.230036 
L 353.969425 -126.870889 
L 355.055227 -128.216831 
L 356.141028 -129.358311 
L 357.226829 -129.544621 
L 358.31263 -131.428616 
L 359.398431 -131.474799 
L 360.484232 -130.471684 
L 361.570033 -129.921807 
L 362.655835 -129.125421 
L 363.741636 -129.999271 
L 364.827437 -130.501676 
L 365.913238 -132.562059 
L 366.999039 -134.611368 
L 368.08484 -135.114347 
L 369.170642 -136.735454 
L 370.256443 -138.101369 
L 371.342244 -139.218681 
L 372.428045 -140.290647 
L 373.513846 -141.349186 
L 374.599647 -141.94946 
L 375.685448 -143.269005 
L 376.77125 -143.832253 
L 377.857051 -143.725008 
L 378.942852 -144.946186 
L 380.028653 -146.914 
L 381.114454 -147.001621 
L 382.200255 -148.017139 
L 383.286057 -148.223002 
L 384.371858 -149.404647 
L 385.457659 -152.162958 
L 386.54346 -153.266039 
L 387.629261 -154.637745 
L 388.715062 -155.970544 
L 389.800863 -157.54071 
L 390.886665 -159.23735 
L 391.972466 -161.600403 
L 393.058267 -164.096203 
L 394.144068 -167.239046 
L 395.229869 -169.495368 
L 396.31567 -172.586927 
L 397.401472 -175.457879 
L 398.487273 -178.250718 
L 398.487273 -292.032 
L 398.487273 -292.032 
L 397.401472 -290.320036 
L 396.31567 -288.732363 
L 395.229869 -287.124488 
L 394.144068 -285.51171 
L 393.058267 -283.620848 
L 391.972466 -282.244358 
L 390.886665 -280.543412 
L 389.800863 -279.87398 
L 388.715062 -279.373707 
L 387.629261 -278.526395 
L 386.54346 -277.734401 
L 385.457659 -276.960853 
L 384.371858 -275.167508 
L 383.286057 -274.88107 
L 382.200255 -274.991488 
L 381.114454 -273.400797 
L 380.028653 -273.107884 
L 378.942852 -271.225042 
L 377.857051 -270.633281 
L 376.77125 -271.13697 
L 375.685448 -271.152521 
L 374.599647 -269.976844 
L 373.513846 -269.743479 
L 372.428045 -268.769122 
L 371.342244 -266.617013 
L 370.256443 -265.562071 
L 369.170642 -264.328649 
L 368.08484 -263.367451 
L 366.999039 -262.989066 
L 365.913238 -260.054743 
L 364.827437 -257.067359 
L 363.741636 -255.971238 
L 362.655835 -255.028193 
L 361.570033 -256.916335 
L 360.484232 -257.97621 
L 359.398431 -259.005953 
L 358.31263 -259.15266 
L 357.226829 -256.216699 
L 356.141028 -255.491657 
L 355.055227 -254.750137 
L 353.969425 -252.896239 
L 352.883624 -250.23418 
L 351.797823 -247.753044 
L 350.712022 -243.783031 
L 349.626221 -240.477823 
L 348.54042 -239.139735 
L 347.454618 -237.163694 
L 346.368817 -235.917328 
L 345.283016 -235.831003 
L 344.197215 -232.734186 
L 343.111414 -230.985189 
L 342.025613 -227.452147 
L 340.939811 -224.435403 
L 339.85401 -222.948696 
L 338.768209 -220.562239 
L 337.682408 -219.832826 
L 336.596607 -216.32259 
L 335.510806 -212.700044 
L 334.425005 -209.890939 
L 333.339203 -208.896064 
L 332.253402 -209.607929 
L 331.167601 -208.493137 
L 330.0818 -205.80055 
L 328.995999 -203.981816 
L 327.910198 -202.907314 
L 326.824396 -201.959623 
L 325.738595 -201.300029 
L 324.652794 -200.14957 
L 323.566993 -198.470333 
L 322.481192 -197.074853 
L 321.395391 -196.615822 
L 320.30959 -194.944055 
L 319.223788 -193.688777 
L 318.137987 -193.251331 
L 317.052186 -193.752367 
L 315.966385 -193.542854 
L 314.880584 -195.150277 
L 313.794783 -195.950303 
L 312.708981 -194.480633 
L 311.62318 -194.544233 
L 310.537379 -192.888943 
L 309.451578 -192.170113 
L 308.365777 -190.419476 
L 307.279976 -188.508599 
L 306.194175 -188.188094 
L 305.108373 -185.476462 
L 304.022572 -182.970569 
L 302.936771 -180.407816 
L 301.85097 -180.102862 
L 300.765169 -179.90231 
L 299.679368 -178.857015 
L 298.593566 -178.595691 
L 297.507765 -176.208161 
L 296.421964 -174.035733 
L 295.336163 -172.029489 
L 294.250362 -170.987774 
L 293.164561 -171.984846 
L 292.07876 -170.775631 
L 290.992958 -169.82538 
L 289.907157 -169.180447 
L 288.821356 -169.354524 
L 287.735555 -169.046853 
L 286.649754 -170.03859 
L 285.563953 -171.203123 
L 284.478151 -171.70654 
L 283.39235 -172.962397 
L 282.306549 -173.956324 
L 281.220748 -173.187298 
L 280.134947 -173.03016 
L 279.049146 -172.321862 
L 277.963344 -173.477822 
L 276.877543 -174.040896 
L 275.791742 -173.716476 
L 274.705941 -176.347301 
L 273.62014 -175.815998 
L 272.534339 -176.203468 
L 271.448538 -176.769358 
L 270.362736 -178.673599 
L 269.276935 -178.79994 
L 268.191134 -177.480649 
L 267.105333 -177.615161 
L 266.019532 -178.967255 
L 264.933731 -179.952383 
L 263.847929 -180.759503 
L 262.762128 -181.383161 
L 261.676327 -180.626109 
L 260.590526 -180.896591 
L 259.504725 -182.333658 
L 258.418924 -182.687154 
L 257.333123 -182.979256 
L 256.247321 -183.176505 
L 255.16152 -183.859581 
L 254.075719 -184.193652 
L 252.989918 -184.391971 
L 251.904117 -183.096388 
L 250.818316 -181.115772 
L 249.732514 -180.067362 
L 248.646713 -178.908323 
L 247.560912 -177.291315 
L 246.475111 -177.712763 
L 245.38931 -178.103551 
L 244.303509 -177.533762 
L 243.217708 -178.666797 
L 242.131906 -177.683922 
L 241.046105 -177.845345 
L 239.960304 -179.037876 
L 238.874503 -179.229792 
L 237.788702 -178.735028 
L 236.702901 -178.349256 
L 235.617099 -179.183805 
L 234.531298 -179.28647 
L 233.445497 -179.884575 
L 232.359696 -181.338574 
L 231.273895 -182.405883 
L 230.188094 -181.923258 
L 229.102292 -182.001402 
L 228.016491 -182.430226 
L 226.93069 -182.119073 
L 225.844889 -182.625384 
L 224.759088 -181.267646 
L 223.673287 -181.272607 
L 222.587486 -180.086562 
L 221.501684 -179.806866 
L 220.415883 -178.906001 
L 219.330082 -178.433371 
L 218.244281 -177.800753 
L 217.15848 -178.863639 
L 216.072679 -179.672089 
L 214.986877 -180.122446 
L 213.901076 -181.195249 
L 212.815275 -180.986107 
L 211.729474 -181.723559 
L 210.643673 -179.994808 
L 209.557872 -180.854789 
L 208.472071 -180.378522 
L 207.386269 -181.13096 
L 206.300468 -181.049515 
L 205.214667 -181.533783 
L 204.128866 -182.844031 
L 203.043065 -182.152182 
L 201.957264 -181.661519 
L 200.871462 -180.907151 
L 199.785661 -180.74923 
L 198.69986 -178.767999 
L 197.614059 -177.538074 
L 196.528258 -176.143024 
L 195.442457 -174.343222 
L 194.356656 -173.889358 
L 193.270854 -173.127325 
L 192.185053 -172.853327 
L 191.099252 -172.271323 
L 190.013451 -172.89788 
L 188.92765 -171.971268 
L 187.841849 -172.999559 
L 186.756047 -172.285595 
L 185.670246 -171.277535 
L 184.584445 -172.43531 
L 183.498644 -171.18818 
L 182.412843 -170.911481 
L 181.327042 -168.927295 
L 180.24124 -168.212276 
L 179.155439 -168.517522 
L 178.069638 -167.6123 
L 176.983837 -166.333584 
L 175.898036 -165.095926 
L 174.812235 -163.624685 
L 173.726434 -162.588205 
L 172.640632 -160.323543 
L 171.554831 -158.152542 
L 170.46903 -157.265386 
L 169.383229 -154.314289 
L 168.297428 -152.042289 
L 167.211627 -150.370114 
L 166.125825 -146.806285 
L 165.040024 -144.913613 
L 163.954223 -142.945058 
L 162.868422 -141.193967 
L 161.782621 -138.670485 
L 160.69682 -137.727783 
L 159.611019 -135.60115 
L 158.525217 -134.399692 
L 157.439416 -132.187486 
L 156.353615 -129.936157 
L 155.267814 -126.837066 
L 154.182013 -124.855912 
L 153.096212 -122.587052 
L 152.01041 -120.126695 
L 150.924609 -117.510231 
L 149.838808 -115.923897 
L 148.753007 -114.09263 
L 147.667206 -113.574345 
L 146.581405 -111.068742 
L 145.495604 -110.390927 
L 144.409802 -108.322282 
L 143.324001 -106.313345 
L 142.2382 -104.188263 
L 141.152399 -102.181903 
L 140.066598 -99.881734 
L 138.980797 -96.821898 
L 137.894995 -94.746477 
L 136.809194 -93.473661 
L 135.723393 -92.04769 
L 134.637592 -90.796064 
L 133.551791 -90.273793 
L 132.46599 -88.904611 
L 131.380189 -88.590596 
L 130.294387 -87.471082 
L 129.208586 -86.121434 
L 128.122785 -85.305687 
L 127.036984 -83.372541 
L 125.951183 -81.515732 
L 124.865382 -80.17945 
L 123.77958 -78.994902 
L 122.693779 -78.956659 
L 121.607978 -78.990036 
L 120.522177 -78.971917 
L 119.436376 -78.109563 
L 118.350575 -78.382893 
L 117.264773 -79.802535 
L 116.178972 -81.242384 
L 115.093171 -81.314744 
L 114.00737 -82.438695 
L 112.921569 -83.474906 
L 111.835768 -84.816179 
L 110.749967 -86.980858 
L 109.664165 -88.818039 
L 108.578364 -90.603653 
L 107.492563 -92.399463 
L 106.406762 -93.130517 
L 105.320961 -95.066361 
L 104.23516 -97.189215 
L 103.149358 -98.79757 
L 102.063557 -100.462124 
L 100.977756 -100.655216 
L 99.891955 -102.930273 
L 98.806154 -104.045723 
L 97.720353 -105.183205 
L 96.634552 -106.028876 
L 95.54875 -107.46629 
L 94.462949 -107.652792 
L 93.377148 -108.401641 
L 92.291347 -108.676981 
L 91.205546 -110.199562 
L 90.119745 -111.077384 
L 89.033943 -111.747364 
L 87.948142 -111.386809 
L 86.862341 -112.323457 
L 85.77654 -113.403755 
L 84.690739 -113.326764 
L 83.604938 -113.512729 
L 82.519137 -115.000025 
L 81.433335 -116.700412 
L 80.347534 -117.4249 
L 79.261733 -119.867506 
L 78.175932 -122.343388 
L 77.090131 -124.608033 
L 76.00433 -128.205606 
L 74.918528 -133.035495 
L 73.832727 -135.683598 
z
" style="stroke: #ff00ff; stroke-opacity: 0.1"/>
    </defs>
    <g clip-path="url(#p32e530ae31)">
     <use xlink:href="#mb5d32524be" x="0" y="345.6" style="fill: #ff00ff; fill-opacity: 0.1; stroke: #ff00ff; stroke-opacity: 0.1"/>
    </g>
   </g>
   <g id="matplotlib.axis_1">
    <g id="xtick_1">
     <g id="line2d_1">
      <defs>
       <path id="m69b21b3790" d="M 0 0 
L 0 3.5 
" style="stroke: #000000; stroke-width: 0.8"/>
      </defs>
      <g>
       <use xlink:href="#m69b21b3790" x="73.832727" y="307.584" style="stroke: #000000; stroke-width: 0.8"/>
      </g>
     </g>
     <g id="text_1">
      <!-- −5 -->
      <g transform="translate(66.461634 322.182437) scale(0.1 -0.1)">
       <defs>
        <path id="DejaVuSans-2212" d="M 678 2272 
L 4684 2272 
L 4684 1741 
L 678 1741 
L 678 2272 
z
" transform="scale(0.015625)"/>
        <path id="DejaVuSans-35" d="M 691 4666 
L 3169 4666 
L 3169 4134 
L 1269 4134 
L 1269 2991 
Q 1406 3038 1543 3061 
Q 1681 3084 1819 3084 
Q 2600 3084 3056 2656 
Q 3513 2228 3513 1497 
Q 3513 744 3044 326 
Q 2575 -91 1722 -91 
Q 1428 -91 1123 -41 
Q 819 9 494 109 
L 494 744 
Q 775 591 1075 516 
Q 1375 441 1709 441 
Q 2250 441 2565 725 
Q 2881 1009 2881 1497 
Q 2881 1984 2565 2268 
Q 2250 2553 1709 2553 
Q 1456 2553 1204 2497 
Q 953 2441 691 2322 
L 691 4666 
z
" transform="scale(0.015625)"/>
       </defs>
       <use xlink:href="#DejaVuSans-2212"/>
       <use xlink:href="#DejaVuSans-35" x="83.789062"/>
      </g>
     </g>
    </g>
    <g id="xtick_2">
     <g id="line2d_2">
      <g>
       <use xlink:href="#m69b21b3790" x="95.54875" y="307.584" style="stroke: #000000; stroke-width: 0.8"/>
      </g>
     </g>
     <g id="text_2">
      <!-- −4 -->
      <g transform="translate(88.177657 322.182437) scale(0.1 -0.1)">
       <defs>
        <path id="DejaVuSans-34" d="M 2419 4116 
L 825 1625 
L 2419 1625 
L 2419 4116 
z
M 2253 4666 
L 3047 4666 
L 3047 1625 
L 3713 1625 
L 3713 1100 
L 3047 1100 
L 3047 0 
L 2419 0 
L 2419 1100 
L 313 1100 
L 313 1709 
L 2253 4666 
z
" transform="scale(0.015625)"/>
       </defs>
       <use xlink:href="#DejaVuSans-2212"/>
       <use xlink:href="#DejaVuSans-34" x="83.789062"/>
      </g>
     </g>
    </g>
    <g id="xtick_3">
     <g id="line2d_3">
      <g>
       <use xlink:href="#m69b21b3790" x="117.264773" y="307.584" style="stroke: #000000; stroke-width: 0.8"/>
      </g>
     </g>
     <g id="text_3">
      <!-- −3 -->
      <g transform="translate(109.89368 322.182437) scale(0.1 -0.1)">
       <defs>
        <path id="DejaVuSans-33" d="M 2597 2516 
Q 3050 2419 3304 2112 
Q 3559 1806 3559 1356 
Q 3559 666 3084 287 
Q 2609 -91 1734 -91 
Q 1441 -91 1130 -33 
Q 819 25 488 141 
L 488 750 
Q 750 597 1062 519 
Q 1375 441 1716 441 
Q 2309 441 2620 675 
Q 2931 909 2931 1356 
Q 2931 1769 2642 2001 
Q 2353 2234 1838 2234 
L 1294 2234 
L 1294 2753 
L 1863 2753 
Q 2328 2753 2575 2939 
Q 2822 3125 2822 3475 
Q 2822 3834 2567 4026 
Q 2313 4219 1838 4219 
Q 1578 4219 1281 4162 
Q 984 4106 628 3988 
L 628 4550 
Q 988 4650 1302 4700 
Q 1616 4750 1894 4750 
Q 2613 4750 3031 4423 
Q 3450 4097 3450 3541 
Q 3450 3153 3228 2886 
Q 3006 2619 2597 2516 
z
" transform="scale(0.015625)"/>
       </defs>
       <use xlink:href="#DejaVuSans-2212"/>
       <use xlink:href="#DejaVuSans-33" x="83.789062"/>
      </g>
     </g>
    </g>
    <g id="xtick_4">
     <g id="line2d_4">
      <g>
       <use xlink:href="#m69b21b3790" x="138.980797" y="307.584" style="stroke: #000000; stroke-width: 0.8"/>
      </g>
     </g>
     <g id="text_4">
      <!-- −2 -->
      <g transform="translate(131.609703 322.182437) scale(0.1 -0.1)">
       <defs>
        <path id="DejaVuSans-32" d="M 1228 531 
L 3431 531 
L 3431 0 
L 469 0 
L 469 531 
Q 828 903 1448 1529 
Q 2069 2156 2228 2338 
Q 2531 2678 2651 2914 
Q 2772 3150 2772 3378 
Q 2772 3750 2511 3984 
Q 2250 4219 1831 4219 
Q 1534 4219 1204 4116 
Q 875 4013 500 3803 
L 500 4441 
Q 881 4594 1212 4672 
Q 1544 4750 1819 4750 
Q 2544 4750 2975 4387 
Q 3406 4025 3406 3419 
Q 3406 3131 3298 2873 
Q 3191 2616 2906 2266 
Q 2828 2175 2409 1742 
Q 1991 1309 1228 531 
z
" transform="scale(0.015625)"/>
       </defs>
       <use xlink:href="#DejaVuSans-2212"/>
       <use xlink:href="#DejaVuSans-32" x="83.789062"/>
      </g>
     </g>
    </g>
    <g id="xtick_5">
     <g id="line2d_5">
      <g>
       <use xlink:href="#m69b21b3790" x="160.69682" y="307.584" style="stroke: #000000; stroke-width: 0.8"/>
      </g>
     </g>
     <g id="text_5">
      <!-- −1 -->
      <g transform="translate(153.325726 322.182437) scale(0.1 -0.1)">
       <defs>
        <path id="DejaVuSans-31" d="M 794 531 
L 1825 531 
L 1825 4091 
L 703 3866 
L 703 4441 
L 1819 4666 
L 2450 4666 
L 2450 531 
L 3481 531 
L 3481 0 
L 794 0 
L 794 531 
z
" transform="scale(0.015625)"/>
       </defs>
       <use xlink:href="#DejaVuSans-2212"/>
       <use xlink:href="#DejaVuSans-31" x="83.789062"/>
      </g>
     </g>
    </g>
    <g id="xtick_6">
     <g id="line2d_6">
      <g>
       <use xlink:href="#m69b21b3790" x="182.412843" y="307.584" style="stroke: #000000; stroke-width: 0.8"/>
      </g>
     </g>
     <g id="text_6">
      <!-- 0 -->
      <g transform="translate(179.231593 322.182437) scale(0.1 -0.1)">
       <defs>
        <path id="DejaVuSans-30" d="M 2034 4250 
Q 1547 4250 1301 3770 
Q 1056 3291 1056 2328 
Q 1056 1369 1301 889 
Q 1547 409 2034 409 
Q 2525 409 2770 889 
Q 3016 1369 3016 2328 
Q 3016 3291 2770 3770 
Q 2525 4250 2034 4250 
z
M 2034 4750 
Q 2819 4750 3233 4129 
Q 3647 3509 3647 2328 
Q 3647 1150 3233 529 
Q 2819 -91 2034 -91 
Q 1250 -91 836 529 
Q 422 1150 422 2328 
Q 422 3509 836 4129 
Q 1250 4750 2034 4750 
z
" transform="scale(0.015625)"/>
       </defs>
       <use xlink:href="#DejaVuSans-30"/>
      </g>
     </g>
    </g>
    <g id="xtick_7">
     <g id="line2d_7">
      <g>
       <use xlink:href="#m69b21b3790" x="204.128866" y="307.584" style="stroke: #000000; stroke-width: 0.8"/>
      </g>
     </g>
     <g id="text_7">
      <!-- 1 -->
      <g transform="translate(200.947616 322.182437) scale(0.1 -0.1)">
       <use xlink:href="#DejaVuSans-31"/>
      </g>
     </g>
    </g>
    <g id="xtick_8">
     <g id="line2d_8">
      <g>
       <use xlink:href="#m69b21b3790" x="225.844889" y="307.584" style="stroke: #000000; stroke-width: 0.8"/>
      </g>
     </g>
     <g id="text_8">
      <!-- 2 -->
      <g transform="translate(222.663639 322.182437) scale(0.1 -0.1)">
       <use xlink:href="#DejaVuSans-32"/>
      </g>
     </g>
    </g>
    <g id="xtick_9">
     <g id="line2d_9">
      <g>
       <use xlink:href="#m69b21b3790" x="247.560912" y="307.584" style="stroke: #000000; stroke-width: 0.8"/>
      </g>
     </g>
     <g id="text_9">
      <!-- 3 -->
      <g transform="translate(244.379662 322.182437) scale(0.1 -0.1)">
       <use xlink:href="#DejaVuSans-33"/>
      </g>
     </g>
    </g>
    <g id="xtick_10">
     <g id="line2d_10">
      <g>
       <use xlink:href="#m69b21b3790" x="269.276935" y="307.584" style="stroke: #000000; stroke-width: 0.8"/>
      </g>
     </g>
     <g id="text_10">
      <!-- 4 -->
      <g transform="translate(266.095685 322.182437) scale(0.1 -0.1)">
       <use xlink:href="#DejaVuSans-34"/>
      </g>
     </g>
    </g>
    <g id="xtick_11">
     <g id="line2d_11">
      <g>
       <use xlink:href="#m69b21b3790" x="290.992958" y="307.584" style="stroke: #000000; stroke-width: 0.8"/>
      </g>
     </g>
     <g id="text_11">
      <!-- 5 -->
      <g transform="translate(287.811708 322.182437) scale(0.1 -0.1)">
       <use xlink:href="#DejaVuSans-35"/>
      </g>
     </g>
    </g>
    <g id="xtick_12">
     <g id="line2d_12">
      <g>
       <use xlink:href="#m69b21b3790" x="312.708981" y="307.584" style="stroke: #000000; stroke-width: 0.8"/>
      </g>
     </g>
     <g id="text_12">
      <!-- 6 -->
      <g transform="translate(309.527731 322.182437) scale(0.1 -0.1)">
       <defs>
        <path id="DejaVuSans-36" d="M 2113 2584 
Q 1688 2584 1439 2293 
Q 1191 2003 1191 1497 
Q 1191 994 1439 701 
Q 1688 409 2113 409 
Q 2538 409 2786 701 
Q 3034 994 3034 1497 
Q 3034 2003 2786 2293 
Q 2538 2584 2113 2584 
z
M 3366 4563 
L 3366 3988 
Q 3128 4100 2886 4159 
Q 2644 4219 2406 4219 
Q 1781 4219 1451 3797 
Q 1122 3375 1075 2522 
Q 1259 2794 1537 2939 
Q 1816 3084 2150 3084 
Q 2853 3084 3261 2657 
Q 3669 2231 3669 1497 
Q 3669 778 3244 343 
Q 2819 -91 2113 -91 
Q 1303 -91 875 529 
Q 447 1150 447 2328 
Q 447 3434 972 4092 
Q 1497 4750 2381 4750 
Q 2619 4750 2861 4703 
Q 3103 4656 3366 4563 
z
" transform="scale(0.015625)"/>
       </defs>
       <use xlink:href="#DejaVuSans-36"/>
      </g>
     </g>
    </g>
    <g id="xtick_13">
     <g id="line2d_13">
      <g>
       <use xlink:href="#m69b21b3790" x="334.425005" y="307.584" style="stroke: #000000; stroke-width: 0.8"/>
      </g>
     </g>
     <g id="text_13">
      <!-- 7 -->
      <g transform="translate(331.243755 322.182437) scale(0.1 -0.1)">
       <defs>
        <path id="DejaVuSans-37" d="M 525 4666 
L 3525 4666 
L 3525 4397 
L 1831 0 
L 1172 0 
L 2766 4134 
L 525 4134 
L 525 4666 
z
" transform="scale(0.015625)"/>
       </defs>
       <use xlink:href="#DejaVuSans-37"/>
      </g>
     </g>
    </g>
    <g id="xtick_14">
     <g id="line2d_14">
      <g>
       <use xlink:href="#m69b21b3790" x="356.141028" y="307.584" style="stroke: #000000; stroke-width: 0.8"/>
      </g>
     </g>
     <g id="text_14">
      <!-- 8 -->
      <g transform="translate(352.959778 322.182437) scale(0.1 -0.1)">
       <defs>
        <path id="DejaVuSans-38" d="M 2034 2216 
Q 1584 2216 1326 1975 
Q 1069 1734 1069 1313 
Q 1069 891 1326 650 
Q 1584 409 2034 409 
Q 2484 409 2743 651 
Q 3003 894 3003 1313 
Q 3003 1734 2745 1975 
Q 2488 2216 2034 2216 
z
M 1403 2484 
Q 997 2584 770 2862 
Q 544 3141 544 3541 
Q 544 4100 942 4425 
Q 1341 4750 2034 4750 
Q 2731 4750 3128 4425 
Q 3525 4100 3525 3541 
Q 3525 3141 3298 2862 
Q 3072 2584 2669 2484 
Q 3125 2378 3379 2068 
Q 3634 1759 3634 1313 
Q 3634 634 3220 271 
Q 2806 -91 2034 -91 
Q 1263 -91 848 271 
Q 434 634 434 1313 
Q 434 1759 690 2068 
Q 947 2378 1403 2484 
z
M 1172 3481 
Q 1172 3119 1398 2916 
Q 1625 2713 2034 2713 
Q 2441 2713 2670 2916 
Q 2900 3119 2900 3481 
Q 2900 3844 2670 4047 
Q 2441 4250 2034 4250 
Q 1625 4250 1398 4047 
Q 1172 3844 1172 3481 
z
" transform="scale(0.015625)"/>
       </defs>
       <use xlink:href="#DejaVuSans-38"/>
      </g>
     </g>
    </g>
    <g id="xtick_15">
     <g id="line2d_15">
      <g>
       <use xlink:href="#m69b21b3790" x="377.857051" y="307.584" style="stroke: #000000; stroke-width: 0.8"/>
      </g>
     </g>
     <g id="text_15">
      <!-- 9 -->
      <g transform="translate(374.675801 322.182437) scale(0.1 -0.1)">
       <defs>
        <path id="DejaVuSans-39" d="M 703 97 
L 703 672 
Q 941 559 1184 500 
Q 1428 441 1663 441 
Q 2288 441 2617 861 
Q 2947 1281 2994 2138 
Q 2813 1869 2534 1725 
Q 2256 1581 1919 1581 
Q 1219 1581 811 2004 
Q 403 2428 403 3163 
Q 403 3881 828 4315 
Q 1253 4750 1959 4750 
Q 2769 4750 3195 4129 
Q 3622 3509 3622 2328 
Q 3622 1225 3098 567 
Q 2575 -91 1691 -91 
Q 1453 -91 1209 -44 
Q 966 3 703 97 
z
M 1959 2075 
Q 2384 2075 2632 2365 
Q 2881 2656 2881 3163 
Q 2881 3666 2632 3958 
Q 2384 4250 1959 4250 
Q 1534 4250 1286 3958 
Q 1038 3666 1038 3163 
Q 1038 2656 1286 2365 
Q 1534 2075 1959 2075 
z
" transform="scale(0.015625)"/>
       </defs>
       <use xlink:href="#DejaVuSans-39"/>
      </g>
     </g>
    </g>
    <g id="xtick_16">
     <g id="line2d_16">
      <g>
       <use xlink:href="#m69b21b3790" x="399.573074" y="307.584" style="stroke: #000000; stroke-width: 0.8"/>
      </g>
     </g>
     <g id="text_16">
      <!-- 10 -->
      <g transform="translate(393.210574 322.182437) scale(0.1 -0.1)">
       <use xlink:href="#DejaVuSans-31"/>
       <use xlink:href="#DejaVuSans-30" x="63.623047"/>
      </g>
     </g>
    </g>
    <g id="text_17">
     <!-- Time (s) -->
     <g transform="translate(215.831094 335.860562) scale(0.1 -0.1)">
      <defs>
       <path id="DejaVuSans-54" d="M -19 4666 
L 3928 4666 
L 3928 4134 
L 2272 4134 
L 2272 0 
L 1638 0 
L 1638 4134 
L -19 4134 
L -19 4666 
z
" transform="scale(0.015625)"/>
       <path id="DejaVuSans-69" d="M 603 3500 
L 1178 3500 
L 1178 0 
L 603 0 
L 603 3500 
z
M 603 4863 
L 1178 4863 
L 1178 4134 
L 603 4134 
L 603 4863 
z
" transform="scale(0.015625)"/>
       <path id="DejaVuSans-6d" d="M 3328 2828 
Q 3544 3216 3844 3400 
Q 4144 3584 4550 3584 
Q 5097 3584 5394 3201 
Q 5691 2819 5691 2113 
L 5691 0 
L 5113 0 
L 5113 2094 
Q 5113 2597 4934 2840 
Q 4756 3084 4391 3084 
Q 3944 3084 3684 2787 
Q 3425 2491 3425 1978 
L 3425 0 
L 2847 0 
L 2847 2094 
Q 2847 2600 2669 2842 
Q 2491 3084 2119 3084 
Q 1678 3084 1418 2786 
Q 1159 2488 1159 1978 
L 1159 0 
L 581 0 
L 581 3500 
L 1159 3500 
L 1159 2956 
Q 1356 3278 1631 3431 
Q 1906 3584 2284 3584 
Q 2666 3584 2933 3390 
Q 3200 3197 3328 2828 
z
" transform="scale(0.015625)"/>
       <path id="DejaVuSans-65" d="M 3597 1894 
L 3597 1613 
L 953 1613 
Q 991 1019 1311 708 
Q 1631 397 2203 397 
Q 2534 397 2845 478 
Q 3156 559 3463 722 
L 3463 178 
Q 3153 47 2828 -22 
Q 2503 -91 2169 -91 
Q 1331 -91 842 396 
Q 353 884 353 1716 
Q 353 2575 817 3079 
Q 1281 3584 2069 3584 
Q 2775 3584 3186 3129 
Q 3597 2675 3597 1894 
z
M 3022 2063 
Q 3016 2534 2758 2815 
Q 2500 3097 2075 3097 
Q 1594 3097 1305 2825 
Q 1016 2553 972 2059 
L 3022 2063 
z
" transform="scale(0.015625)"/>
       <path id="DejaVuSans-20" transform="scale(0.015625)"/>
       <path id="DejaVuSans-28" d="M 1984 4856 
Q 1566 4138 1362 3434 
Q 1159 2731 1159 2009 
Q 1159 1288 1364 580 
Q 1569 -128 1984 -844 
L 1484 -844 
Q 1016 -109 783 600 
Q 550 1309 550 2009 
Q 550 2706 781 3412 
Q 1013 4119 1484 4856 
L 1984 4856 
z
" transform="scale(0.015625)"/>
       <path id="DejaVuSans-73" d="M 2834 3397 
L 2834 2853 
Q 2591 2978 2328 3040 
Q 2066 3103 1784 3103 
Q 1356 3103 1142 2972 
Q 928 2841 928 2578 
Q 928 2378 1081 2264 
Q 1234 2150 1697 2047 
L 1894 2003 
Q 2506 1872 2764 1633 
Q 3022 1394 3022 966 
Q 3022 478 2636 193 
Q 2250 -91 1575 -91 
Q 1294 -91 989 -36 
Q 684 19 347 128 
L 347 722 
Q 666 556 975 473 
Q 1284 391 1588 391 
Q 1994 391 2212 530 
Q 2431 669 2431 922 
Q 2431 1156 2273 1281 
Q 2116 1406 1581 1522 
L 1381 1569 
Q 847 1681 609 1914 
Q 372 2147 372 2553 
Q 372 3047 722 3315 
Q 1072 3584 1716 3584 
Q 2034 3584 2315 3537 
Q 2597 3491 2834 3397 
z
" transform="scale(0.015625)"/>
       <path id="DejaVuSans-29" d="M 513 4856 
L 1013 4856 
Q 1481 4119 1714 3412 
Q 1947 2706 1947 2009 
Q 1947 1309 1714 600 
Q 1481 -109 1013 -844 
L 513 -844 
Q 928 -128 1133 580 
Q 1338 1288 1338 2009 
Q 1338 2731 1133 3434 
Q 928 4138 513 4856 
z
" transform="scale(0.015625)"/>
      </defs>
      <use xlink:href="#DejaVuSans-54"/>
      <use xlink:href="#DejaVuSans-69" x="57.958984"/>
      <use xlink:href="#DejaVuSans-6d" x="85.742188"/>
      <use xlink:href="#DejaVuSans-65" x="183.154297"/>
      <use xlink:href="#DejaVuSans-20" x="244.677734"/>
      <use xlink:href="#DejaVuSans-28" x="276.464844"/>
      <use xlink:href="#DejaVuSans-73" x="315.478516"/>
      <use xlink:href="#DejaVuSans-29" x="367.578125"/>
     </g>
    </g>
   </g>
   <g id="matplotlib.axis_2">
    <g id="ytick_1">
     <g id="line2d_17">
      <defs>
       <path id="m21d829ec8b" d="M 0 0 
L -3.5 0 
" style="stroke: #000000; stroke-width: 0.8"/>
      </defs>
      <g>
       <use xlink:href="#m21d829ec8b" x="57.6" y="304.359506" style="stroke: #000000; stroke-width: 0.8"/>
      </g>
     </g>
     <g id="text_18">
      <!-- −0.5 -->
      <g transform="translate(26.317187 308.158724) scale(0.1 -0.1)">
       <defs>
        <path id="DejaVuSans-2e" d="M 684 794 
L 1344 794 
L 1344 0 
L 684 0 
L 684 794 
z
" transform="scale(0.015625)"/>
       </defs>
       <use xlink:href="#DejaVuSans-2212"/>
       <use xlink:href="#DejaVuSans-30" x="83.789062"/>
       <use xlink:href="#DejaVuSans-2e" x="147.412109"/>
       <use xlink:href="#DejaVuSans-35" x="179.199219"/>
      </g>
     </g>
    </g>
    <g id="ytick_2">
     <g id="line2d_18">
      <g>
       <use xlink:href="#m21d829ec8b" x="57.6" y="251.304671" style="stroke: #000000; stroke-width: 0.8"/>
      </g>
     </g>
     <g id="text_19">
      <!-- 0.0 -->
      <g transform="translate(34.696875 255.10389) scale(0.1 -0.1)">
       <use xlink:href="#DejaVuSans-30"/>
       <use xlink:href="#DejaVuSans-2e" x="63.623047"/>
       <use xlink:href="#DejaVuSans-30" x="95.410156"/>
      </g>
     </g>
    </g>
    <g id="ytick_3">
     <g id="line2d_19">
      <g>
       <use xlink:href="#m21d829ec8b" x="57.6" y="198.249837" style="stroke: #000000; stroke-width: 0.8"/>
      </g>
     </g>
     <g id="text_20">
      <!-- 0.5 -->
      <g transform="translate(34.696875 202.049055) scale(0.1 -0.1)">
       <use xlink:href="#DejaVuSans-30"/>
       <use xlink:href="#DejaVuSans-2e" x="63.623047"/>
       <use xlink:href="#DejaVuSans-35" x="95.410156"/>
      </g>
     </g>
    </g>
    <g id="ytick_4">
     <g id="line2d_20">
      <g>
       <use xlink:href="#m21d829ec8b" x="57.6" y="145.195002" style="stroke: #000000; stroke-width: 0.8"/>
      </g>
     </g>
     <g id="text_21">
      <!-- 1.0 -->
      <g transform="translate(34.696875 148.994221) scale(0.1 -0.1)">
       <use xlink:href="#DejaVuSans-31"/>
       <use xlink:href="#DejaVuSans-2e" x="63.623047"/>
       <use xlink:href="#DejaVuSans-30" x="95.410156"/>
      </g>
     </g>
    </g>
    <g id="ytick_5">
     <g id="line2d_21">
      <g>
       <use xlink:href="#m21d829ec8b" x="57.6" y="92.140168" style="stroke: #000000; stroke-width: 0.8"/>
      </g>
     </g>
     <g id="text_22">
      <!-- 1.5 -->
      <g transform="translate(34.696875 95.939387) scale(0.1 -0.1)">
       <use xlink:href="#DejaVuSans-31"/>
       <use xlink:href="#DejaVuSans-2e" x="63.623047"/>
       <use xlink:href="#DejaVuSans-35" x="95.410156"/>
      </g>
     </g>
    </g>
    <g id="text_23">
     <!-- Z-Score -->
     <g transform="translate(20.2375 193.67175) rotate(-90) scale(0.1 -0.1)">
      <defs>
       <path id="DejaVuSans-5a" d="M 359 4666 
L 4025 4666 
L 4025 4184 
L 1075 531 
L 4097 531 
L 4097 0 
L 288 0 
L 288 481 
L 3238 4134 
L 359 4134 
L 359 4666 
z
" transform="scale(0.015625)"/>
       <path id="DejaVuSans-2d" d="M 313 2009 
L 1997 2009 
L 1997 1497 
L 313 1497 
L 313 2009 
z
" transform="scale(0.015625)"/>
       <path id="DejaVuSans-53" d="M 3425 4513 
L 3425 3897 
Q 3066 4069 2747 4153 
Q 2428 4238 2131 4238 
Q 1616 4238 1336 4038 
Q 1056 3838 1056 3469 
Q 1056 3159 1242 3001 
Q 1428 2844 1947 2747 
L 2328 2669 
Q 3034 2534 3370 2195 
Q 3706 1856 3706 1288 
Q 3706 609 3251 259 
Q 2797 -91 1919 -91 
Q 1588 -91 1214 -16 
Q 841 59 441 206 
L 441 856 
Q 825 641 1194 531 
Q 1563 422 1919 422 
Q 2459 422 2753 634 
Q 3047 847 3047 1241 
Q 3047 1584 2836 1778 
Q 2625 1972 2144 2069 
L 1759 2144 
Q 1053 2284 737 2584 
Q 422 2884 422 3419 
Q 422 4038 858 4394 
Q 1294 4750 2059 4750 
Q 2388 4750 2728 4690 
Q 3069 4631 3425 4513 
z
" transform="scale(0.015625)"/>
       <path id="DejaVuSans-63" d="M 3122 3366 
L 3122 2828 
Q 2878 2963 2633 3030 
Q 2388 3097 2138 3097 
Q 1578 3097 1268 2742 
Q 959 2388 959 1747 
Q 959 1106 1268 751 
Q 1578 397 2138 397 
Q 2388 397 2633 464 
Q 2878 531 3122 666 
L 3122 134 
Q 2881 22 2623 -34 
Q 2366 -91 2075 -91 
Q 1284 -91 818 406 
Q 353 903 353 1747 
Q 353 2603 823 3093 
Q 1294 3584 2113 3584 
Q 2378 3584 2631 3529 
Q 2884 3475 3122 3366 
z
" transform="scale(0.015625)"/>
       <path id="DejaVuSans-6f" d="M 1959 3097 
Q 1497 3097 1228 2736 
Q 959 2375 959 1747 
Q 959 1119 1226 758 
Q 1494 397 1959 397 
Q 2419 397 2687 759 
Q 2956 1122 2956 1747 
Q 2956 2369 2687 2733 
Q 2419 3097 1959 3097 
z
M 1959 3584 
Q 2709 3584 3137 3096 
Q 3566 2609 3566 1747 
Q 3566 888 3137 398 
Q 2709 -91 1959 -91 
Q 1206 -91 779 398 
Q 353 888 353 1747 
Q 353 2609 779 3096 
Q 1206 3584 1959 3584 
z
" transform="scale(0.015625)"/>
       <path id="DejaVuSans-72" d="M 2631 2963 
Q 2534 3019 2420 3045 
Q 2306 3072 2169 3072 
Q 1681 3072 1420 2755 
Q 1159 2438 1159 1844 
L 1159 0 
L 581 0 
L 581 3500 
L 1159 3500 
L 1159 2956 
Q 1341 3275 1631 3429 
Q 1922 3584 2338 3584 
Q 2397 3584 2469 3576 
Q 2541 3569 2628 3553 
L 2631 2963 
z
" transform="scale(0.015625)"/>
      </defs>
      <use xlink:href="#DejaVuSans-5a"/>
      <use xlink:href="#DejaVuSans-2d" x="66.755859"/>
      <use xlink:href="#DejaVuSans-53" x="102.839844"/>
      <use xlink:href="#DejaVuSans-63" x="166.316406"/>
      <use xlink:href="#DejaVuSans-6f" x="221.296875"/>
      <use xlink:href="#DejaVuSans-72" x="282.478516"/>
      <use xlink:href="#DejaVuSans-65" x="321.341797"/>
     </g>
    </g>
   </g>
   <g id="line2d_22">
    <path d="M 73.832727 235.526217 
L 74.918528 237.77052 
L 76.00433 242.010838 
L 77.090131 245.348574 
L 78.175932 247.236493 
L 80.347534 251.912044 
L 81.433335 252.848144 
L 82.519137 254.494299 
L 83.604938 255.800029 
L 85.77654 255.96863 
L 86.862341 256.903826 
L 87.948142 257.649438 
L 89.033943 257.162308 
L 90.119745 257.608528 
L 91.205546 258.178196 
L 92.291347 259.354891 
L 93.377148 259.226658 
L 94.462949 259.667529 
L 95.54875 259.455647 
L 96.634552 260.556214 
L 97.720353 260.935341 
L 99.891955 262.540814 
L 100.977756 264.464902 
L 102.063557 264.477504 
L 104.23516 267.115741 
L 105.320961 268.92097 
L 106.406762 270.28157 
L 107.492563 270.581826 
L 109.664165 273.47993 
L 111.835768 276.428973 
L 112.921569 277.586072 
L 114.00737 278.329717 
L 115.093171 279.245119 
L 116.178972 278.872339 
L 117.264773 280.288385 
L 118.350575 281.352554 
L 119.436376 281.258602 
L 120.522177 279.836574 
L 121.607978 279.619657 
L 122.693779 279.149569 
L 123.77958 278.894321 
L 125.951183 275.806738 
L 127.036984 273.910058 
L 128.122785 271.383561 
L 129.208586 270.503003 
L 131.380189 267.727545 
L 132.46599 267.561678 
L 133.551791 266.169656 
L 134.637592 265.751796 
L 135.723393 264.669491 
L 136.809194 263.788472 
L 137.894995 262.545925 
L 138.980797 260.876195 
L 140.066598 258.298828 
L 142.2382 254.729526 
L 144.409802 251.455396 
L 145.495604 250.096535 
L 146.581405 250.101855 
L 147.667206 248.049353 
L 148.753007 248.092958 
L 149.838808 246.797316 
L 150.924609 245.706345 
L 152.01041 243.607426 
L 155.267814 238.468084 
L 156.353615 235.900402 
L 158.525217 232.489556 
L 159.611019 231.614615 
L 160.69682 229.970778 
L 161.782621 229.515356 
L 162.868422 227.542411 
L 163.954223 226.336586 
L 166.125825 223.282981 
L 167.211627 220.161992 
L 168.297428 218.981897 
L 169.383229 216.984544 
L 170.46903 214.111373 
L 171.554831 213.505262 
L 173.726434 209.75444 
L 174.812235 209.002567 
L 175.898036 207.70835 
L 176.983837 206.996562 
L 178.069638 206.087561 
L 179.155439 205.908725 
L 180.24124 206.146508 
L 181.327042 205.889674 
L 182.412843 204.685273 
L 183.498644 204.683921 
L 184.584445 204.037794 
L 185.670246 205.304809 
L 186.756047 204.679447 
L 187.841849 204.617024 
L 188.92765 205.793608 
L 190.013451 205.361647 
L 191.099252 206.132302 
L 192.185053 205.931531 
L 193.270854 206.032718 
L 194.356656 205.571916 
L 195.442457 205.367938 
L 196.528258 204.121858 
L 198.69986 202.791274 
L 199.785661 201.630162 
L 201.957264 201.481487 
L 203.043065 201.610449 
L 204.128866 201.158212 
L 205.214667 202.428137 
L 206.300468 203.066698 
L 207.386269 203.068267 
L 208.472071 203.952076 
L 209.557872 203.974611 
L 210.643673 205.076295 
L 211.729474 203.766446 
L 212.815275 204.918206 
L 213.901076 205.262711 
L 214.986877 206.6686 
L 216.072679 207.385052 
L 217.15848 208.32485 
L 218.244281 209.585753 
L 219.330082 209.493103 
L 220.415883 209.656171 
L 221.501684 209.124844 
L 222.587486 209.177528 
L 223.673287 208.776868 
L 224.759088 209.147545 
L 225.844889 208.487787 
L 226.93069 209.06266 
L 228.016491 208.900108 
L 229.102292 209.227704 
L 230.188094 209.371592 
L 231.273895 208.965791 
L 232.359696 210.023838 
L 233.445497 211.619073 
L 234.531298 212.04632 
L 235.617099 212.050522 
L 236.702901 212.84014 
L 238.874503 212.335465 
L 239.960304 212.567836 
L 241.046105 214.132903 
L 242.131906 214.530408 
L 243.217708 214.301346 
L 244.303509 215.130443 
L 245.38931 214.737973 
L 246.475111 215.252568 
L 247.560912 215.494841 
L 250.818316 211.929811 
L 251.904117 210.104031 
L 252.989918 208.544564 
L 254.075719 208.782449 
L 256.247321 209.576228 
L 257.333123 209.732351 
L 258.418924 209.481597 
L 259.504725 209.462193 
L 260.590526 210.569634 
L 261.676327 210.727436 
L 262.762128 209.619801 
L 263.847929 210.097935 
L 266.019532 211.553617 
L 267.105333 212.832751 
L 268.191134 212.968625 
L 269.276935 210.977219 
L 270.362736 210.956308 
L 271.448538 212.65843 
L 272.534339 213.214283 
L 273.62014 213.28282 
L 274.705941 212.853161 
L 275.791742 215.189087 
L 276.877543 214.545996 
L 277.963344 214.599974 
L 279.049146 215.221382 
L 280.134947 214.44481 
L 281.220748 214.160226 
L 282.306549 213.16463 
L 283.39235 213.721669 
L 284.478151 214.908106 
L 285.563953 214.964384 
L 286.649754 215.851657 
L 287.735555 216.356674 
L 288.821356 215.771888 
L 289.907157 215.416893 
L 290.992958 214.325274 
L 292.07876 212.94321 
L 293.164561 211.292845 
L 294.250362 211.991543 
L 295.336163 210.772005 
L 296.421964 208.444755 
L 298.593566 203.121423 
L 299.679368 202.764842 
L 300.765169 201.690495 
L 301.85097 201.676083 
L 302.936771 201.424774 
L 304.022572 199.201267 
L 305.108373 197.339275 
L 306.194175 195.254472 
L 307.279976 194.98257 
L 309.451578 192.711036 
L 310.537379 192.289054 
L 311.62318 191.243493 
L 312.708981 191.405191 
L 313.794783 190.121774 
L 314.880584 191.266088 
L 315.966385 193.015797 
L 317.052186 192.964344 
L 318.137987 193.642078 
L 319.223788 193.621538 
L 321.395391 191.76663 
L 322.481192 191.763005 
L 323.566993 190.816288 
L 324.652794 189.709328 
L 325.738595 189.087853 
L 326.824396 188.799679 
L 327.910198 188.035666 
L 328.995999 187.552145 
L 330.0818 186.51337 
L 331.167601 184.494542 
L 332.253402 184.160635 
L 333.339203 185.356805 
L 334.425005 184.980796 
L 335.510806 183.30442 
L 336.596607 181.068201 
L 337.682408 178.572948 
L 338.768209 178.618835 
L 339.85401 177.208937 
L 340.939811 176.443246 
L 342.025613 174.34152 
L 343.111414 171.754948 
L 344.197215 171.068389 
L 345.283016 168.771103 
L 346.368817 169.306049 
L 347.454618 168.683778 
L 349.626221 165.973121 
L 350.712022 163.268158 
L 351.797823 159.887829 
L 353.969425 155.716436 
L 355.055227 154.116516 
L 356.141028 153.175016 
L 357.226829 152.71934 
L 358.31263 150.309362 
L 359.398431 150.359624 
L 360.484232 151.376053 
L 361.570033 152.180929 
L 362.655835 153.523193 
L 364.827437 151.815483 
L 366.999039 146.799783 
L 368.08484 146.359101 
L 370.256443 143.76828 
L 371.342244 142.682153 
L 372.428045 141.070116 
L 373.513846 140.053668 
L 374.599647 139.636848 
L 375.685448 138.389237 
L 376.77125 138.115388 
L 377.857051 138.420855 
L 378.942852 137.514386 
L 380.028653 135.589058 
L 381.114454 135.398791 
L 382.200255 134.095686 
L 383.286057 134.047964 
L 384.371858 133.313922 
L 385.457659 131.038095 
L 387.629261 129.01793 
L 390.886665 125.709619 
L 393.058267 121.741474 
L 394.144068 119.224622 
L 395.229869 117.290072 
L 398.487273 110.458641 
L 398.487273 110.458641 
" clip-path="url(#p32e530ae31)" style="fill: none; stroke: #ff00ff; stroke-width: 1.5; stroke-linecap: square"/>
   </g>
   <g id="line2d_23">
    <path d="M 182.412843 307.584 
L 182.412843 41.472 
" clip-path="url(#p32e530ae31)" style="fill: none; stroke: #000000; stroke-width: 1.5; stroke-linecap: square"/>
   </g>
   <g id="patch_3">
    <path d="M 57.6 307.584 
L 57.6 41.472 
" style="fill: none; stroke: #000000; stroke-width: 0.8; stroke-linejoin: miter; stroke-linecap: square"/>
   </g>
   <g id="patch_4">
    <path d="M 414.72 307.584 
L 414.72 41.472 
" style="fill: none; stroke: #000000; stroke-width: 0.8; stroke-linejoin: miter; stroke-linecap: square"/>
   </g>
   <g id="patch_5">
    <path d="M 57.6 307.584 
L 414.72 307.584 
" style="fill: none; stroke: #000000; stroke-width: 0.8; stroke-linejoin: miter; stroke-linecap: square"/>
   </g>
   <g id="patch_6">
    <path d="M 57.6 41.472 
L 414.72 41.472 
" style="fill: none; stroke: #000000; stroke-width: 0.8; stroke-linejoin: miter; stroke-linecap: square"/>
   </g>
   <g id="text_24">
    <!-- Group 3_p=0.063 -->
    <g transform="translate(183.158437 35.472) scale(0.12 -0.12)">
     <defs>
      <path id="DejaVuSans-47" d="M 3809 666 
L 3809 1919 
L 2778 1919 
L 2778 2438 
L 4434 2438 
L 4434 434 
Q 4069 175 3628 42 
Q 3188 -91 2688 -91 
Q 1594 -91 976 548 
Q 359 1188 359 2328 
Q 359 3472 976 4111 
Q 1594 4750 2688 4750 
Q 3144 4750 3555 4637 
Q 3966 4525 4313 4306 
L 4313 3634 
Q 3963 3931 3569 4081 
Q 3175 4231 2741 4231 
Q 1884 4231 1454 3753 
Q 1025 3275 1025 2328 
Q 1025 1384 1454 906 
Q 1884 428 2741 428 
Q 3075 428 3337 486 
Q 3600 544 3809 666 
z
" transform="scale(0.015625)"/>
      <path id="DejaVuSans-75" d="M 544 1381 
L 544 3500 
L 1119 3500 
L 1119 1403 
Q 1119 906 1312 657 
Q 1506 409 1894 409 
Q 2359 409 2629 706 
Q 2900 1003 2900 1516 
L 2900 3500 
L 3475 3500 
L 3475 0 
L 2900 0 
L 2900 538 
Q 2691 219 2414 64 
Q 2138 -91 1772 -91 
Q 1169 -91 856 284 
Q 544 659 544 1381 
z
M 1991 3584 
L 1991 3584 
z
" transform="scale(0.015625)"/>
      <path id="DejaVuSans-70" d="M 1159 525 
L 1159 -1331 
L 581 -1331 
L 581 3500 
L 1159 3500 
L 1159 2969 
Q 1341 3281 1617 3432 
Q 1894 3584 2278 3584 
Q 2916 3584 3314 3078 
Q 3713 2572 3713 1747 
Q 3713 922 3314 415 
Q 2916 -91 2278 -91 
Q 1894 -91 1617 61 
Q 1341 213 1159 525 
z
M 3116 1747 
Q 3116 2381 2855 2742 
Q 2594 3103 2138 3103 
Q 1681 3103 1420 2742 
Q 1159 2381 1159 1747 
Q 1159 1113 1420 752 
Q 1681 391 2138 391 
Q 2594 391 2855 752 
Q 3116 1113 3116 1747 
z
" transform="scale(0.015625)"/>
      <path id="DejaVuSans-5f" d="M 3263 -1063 
L 3263 -1509 
L -63 -1509 
L -63 -1063 
L 3263 -1063 
z
" transform="scale(0.015625)"/>
      <path id="DejaVuSans-3d" d="M 678 2906 
L 4684 2906 
L 4684 2381 
L 678 2381 
L 678 2906 
z
M 678 1631 
L 4684 1631 
L 4684 1100 
L 678 1100 
L 678 1631 
z
" transform="scale(0.015625)"/>
     </defs>
     <use xlink:href="#DejaVuSans-47"/>
     <use xlink:href="#DejaVuSans-72" x="77.490234"/>
     <use xlink:href="#DejaVuSans-6f" x="116.353516"/>
     <use xlink:href="#DejaVuSans-75" x="177.535156"/>
     <use xlink:href="#DejaVuSans-70" x="240.914062"/>
     <use xlink:href="#DejaVuSans-20" x="304.390625"/>
     <use xlink:href="#DejaVuSans-33" x="336.177734"/>
     <use xlink:href="#DejaVuSans-5f" x="399.800781"/>
     <use xlink:href="#DejaVuSans-70" x="449.800781"/>
     <use xlink:href="#DejaVuSans-3d" x="513.277344"/>
     <use xlink:href="#DejaVuSans-30" x="597.066406"/>
     <use xlink:href="#DejaVuSans-2e" x="660.689453"/>
     <use xlink:href="#DejaVuSans-30" x="692.476562"/>
     <use xlink:href="#DejaVuSans-36" x="756.099609"/>
     <use xlink:href="#DejaVuSans-33" x="819.722656"/>
    </g>
   </g>
  </g>
 </g>
 <defs>
  <clipPath id="p32e530ae31">
   <rect x="57.6" y="41.472" width="357.12" height="266.112"/>
  </clipPath>
 </defs>
</svg>
