<?xml version="1.0" encoding="utf-8" standalone="no"?>
<!DOCTYPE svg PUBLIC "-//W3C//DTD SVG 1.1//EN"
  "http://www.w3.org/Graphics/SVG/1.1/DTD/svg11.dtd">
<svg xmlns:xlink="http://www.w3.org/1999/xlink" width="460.8pt" height="345.6pt" viewBox="0 0 460.8 345.6" xmlns="http://www.w3.org/2000/svg" version="1.1">
 <metadata>
  <rdf:RDF xmlns:dc="http://purl.org/dc/elements/1.1/" xmlns:cc="http://creativecommons.org/ns#" xmlns:rdf="http://www.w3.org/1999/02/22-rdf-syntax-ns#">
   <cc:Work>
    <dc:type rdf:resource="http://purl.org/dc/dcmitype/StillImage"/>
    <dc:date>2024-11-14T18:55:17.470999</dc:date>
    <dc:format>image/svg+xml</dc:format>
    <dc:creator>
     <cc:Agent>
      <dc:title>Matplotlib v3.8.2, https://matplotlib.org/</dc:title>
     </cc:Agent>
    </dc:creator>
   </cc:Work>
  </rdf:RDF>
 </metadata>
 <defs>
  <style type="text/css">*{stroke-linejoin: round; stroke-linecap: butt}</style>
 </defs>
 <g id="figure_1">
  <g id="patch_1">
   <path d="M 0 345.6 
L 460.8 345.6 
L 460.8 0 
L 0 0 
z
" style="fill: #ffffff"/>
  </g>
  <g id="axes_1">
   <g id="patch_2">
    <path d="M 57.6 307.584 
L 414.72 307.584 
L 414.72 41.472 
L 57.6 41.472 
z
" style="fill: #ffffff"/>
   </g>
   <g id="PolyCollection_1">
    <defs>
     <path id="m4fa92d7a2a" d="M 73.832727 -129.260331 
L 73.832727 -84.838113 
L 74.918528 -86.404921 
L 76.00433 -87.123398 
L 77.090131 -88.159859 
L 78.175932 -88.102721 
L 79.261733 -89.150055 
L 80.347534 -90.036125 
L 81.433335 -90.309945 
L 82.519137 -89.518908 
L 83.604938 -90.841888 
L 84.690739 -92.096165 
L 85.77654 -93.587592 
L 86.862341 -94.964612 
L 87.948142 -95.612313 
L 89.033943 -95.278556 
L 90.119745 -96.205551 
L 91.205546 -97.239966 
L 92.291347 -98.112368 
L 93.377148 -98.421142 
L 94.462949 -99.11842 
L 95.54875 -101.060971 
L 96.634552 -101.608678 
L 97.720353 -101.935435 
L 98.806154 -102.679475 
L 99.891955 -103.896989 
L 100.977756 -104.889572 
L 102.063557 -104.627523 
L 103.149358 -105.005212 
L 104.23516 -104.429595 
L 105.320961 -105.34406 
L 106.406762 -105.659217 
L 107.492563 -105.700238 
L 108.578364 -105.689609 
L 109.664165 -105.846223 
L 110.749967 -106.440884 
L 111.835768 -106.25702 
L 112.921569 -105.938854 
L 114.00737 -105.745779 
L 115.093171 -104.437897 
L 116.178972 -104.104636 
L 117.264773 -103.289608 
L 118.350575 -104.497993 
L 119.436376 -104.2451 
L 120.522177 -104.495253 
L 121.607978 -105.162819 
L 122.693779 -104.175462 
L 123.77958 -103.806982 
L 124.865382 -104.360637 
L 125.951183 -104.580562 
L 127.036984 -105.684555 
L 128.122785 -105.908665 
L 129.208586 -106.189875 
L 130.294387 -107.160272 
L 131.380189 -107.476297 
L 132.46599 -108.101665 
L 133.551791 -108.664202 
L 134.637592 -109.162246 
L 135.723393 -108.477026 
L 136.809194 -109.013824 
L 137.894995 -109.553115 
L 138.980797 -109.89494 
L 140.066598 -111.141061 
L 141.152399 -111.039533 
L 142.2382 -111.336438 
L 143.324001 -110.879743 
L 144.409802 -111.120331 
L 145.495604 -111.041836 
L 146.581405 -113.37751 
L 147.667206 -114.163522 
L 148.753007 -114.564698 
L 149.838808 -114.665933 
L 150.924609 -113.97136 
L 152.01041 -114.787675 
L 153.096212 -115.084198 
L 154.182013 -115.618614 
L 155.267814 -114.577353 
L 156.353615 -113.136254 
L 157.439416 -112.672215 
L 158.525217 -111.21152 
L 159.611019 -109.932043 
L 160.69682 -108.633355 
L 161.782621 -108.110144 
L 162.868422 -107.11745 
L 163.954223 -106.741378 
L 165.040024 -106.226518 
L 166.125825 -105.900714 
L 167.211627 -105.366476 
L 168.297428 -105.412783 
L 169.383229 -105.117159 
L 170.46903 -105.306999 
L 171.554831 -104.518609 
L 172.640632 -106.084636 
L 173.726434 -106.555231 
L 174.812235 -107.423483 
L 175.898036 -109.783022 
L 176.983837 -110.716543 
L 178.069638 -112.4695 
L 179.155439 -115.209054 
L 180.24124 -117.51785 
L 181.327042 -119.700107 
L 182.412843 -120.796347 
L 183.498644 -122.818459 
L 184.584445 -123.763995 
L 185.670246 -125.996851 
L 186.756047 -127.106967 
L 187.841849 -128.746841 
L 188.92765 -129.00636 
L 190.013451 -129.538389 
L 191.099252 -130.248635 
L 192.185053 -132.132251 
L 193.270854 -133.030384 
L 194.356656 -134.575407 
L 195.442457 -134.67749 
L 196.528258 -136.420457 
L 197.614059 -136.369802 
L 198.69986 -137.699186 
L 199.785661 -139.063951 
L 200.871462 -139.625973 
L 201.957264 -140.914071 
L 203.043065 -141.698722 
L 204.128866 -143.778059 
L 205.214667 -145.297634 
L 206.300468 -147.805676 
L 207.386269 -149.471903 
L 208.472071 -152.311606 
L 209.557872 -153.384265 
L 210.643673 -153.636604 
L 211.729474 -153.744022 
L 212.815275 -154.945695 
L 213.901076 -156.679828 
L 214.986877 -157.000851 
L 216.072679 -157.640483 
L 217.15848 -158.594269 
L 218.244281 -159.910031 
L 219.330082 -163.562998 
L 220.415883 -166.0156 
L 221.501684 -167.80254 
L 222.587486 -169.430213 
L 223.673287 -170.516576 
L 224.759088 -171.369849 
L 225.844889 -171.47352 
L 226.93069 -171.780175 
L 228.016491 -170.634937 
L 229.102292 -170.634043 
L 230.188094 -170.642263 
L 231.273895 -170.687514 
L 232.359696 -170.441989 
L 233.445497 -170.306875 
L 234.531298 -169.777035 
L 235.617099 -168.141592 
L 236.702901 -166.548948 
L 237.788702 -164.965523 
L 238.874503 -162.247772 
L 239.960304 -160.35845 
L 241.046105 -157.508711 
L 242.131906 -155.261885 
L 243.217708 -153.127972 
L 244.303509 -152.543111 
L 245.38931 -151.862606 
L 246.475111 -150.084871 
L 247.560912 -147.349967 
L 248.646713 -145.409451 
L 249.732514 -142.962686 
L 250.818316 -141.037142 
L 251.904117 -137.773176 
L 252.989918 -135.102766 
L 254.075719 -132.981169 
L 255.16152 -130.949392 
L 256.247321 -128.503723 
L 257.333123 -126.308065 
L 258.418924 -124.207423 
L 259.504725 -121.493084 
L 260.590526 -117.84173 
L 261.676327 -115.838039 
L 262.762128 -112.70376 
L 263.847929 -109.817637 
L 264.933731 -108.360325 
L 266.019532 -105.314338 
L 267.105333 -102.860787 
L 268.191134 -99.328406 
L 269.276935 -96.679749 
L 270.362736 -94.360978 
L 271.448538 -91.290947 
L 272.534339 -89.310624 
L 273.62014 -87.321622 
L 274.705941 -86.514817 
L 275.791742 -84.38452 
L 276.877543 -81.702181 
L 277.963344 -78.652659 
L 279.049146 -77.168303 
L 280.134947 -75.751786 
L 281.220748 -73.456875 
L 282.306549 -72.475599 
L 283.39235 -68.859706 
L 284.478151 -65.605335 
L 285.563953 -63.098181 
L 286.649754 -61.641519 
L 287.735555 -61.164178 
L 288.821356 -60.01867 
L 289.907157 -60.131866 
L 290.992958 -59.588304 
L 292.07876 -60.330472 
L 293.164561 -59.468098 
L 294.250362 -58.576694 
L 295.336163 -57.727108 
L 296.421964 -57.524802 
L 297.507765 -56.409227 
L 298.593566 -57.501689 
L 299.679368 -57.228053 
L 300.765169 -57.25331 
L 301.85097 -56.861084 
L 302.936771 -57.473418 
L 304.022572 -57.379105 
L 305.108373 -57.485322 
L 306.194175 -56.971661 
L 307.279976 -57.70534 
L 308.365777 -55.954965 
L 309.451578 -54.680237 
L 310.537379 -54.343138 
L 311.62318 -53.667128 
L 312.708981 -53.613242 
L 313.794783 -54.042646 
L 314.880584 -54.558251 
L 315.966385 -55.819392 
L 317.052186 -57.550003 
L 318.137987 -58.864535 
L 319.223788 -59.920686 
L 320.30959 -59.50488 
L 321.395391 -60.889576 
L 322.481192 -60.490691 
L 323.566993 -62.837853 
L 324.652794 -64.69732 
L 325.738595 -65.93953 
L 326.824396 -66.940806 
L 327.910198 -68.500255 
L 328.995999 -68.370218 
L 330.0818 -68.859065 
L 331.167601 -69.925267 
L 332.253402 -71.099213 
L 333.339203 -72.05821 
L 334.425005 -72.15605 
L 335.510806 -73.072539 
L 336.596607 -72.479189 
L 337.682408 -72.043898 
L 338.768209 -71.372256 
L 339.85401 -71.694767 
L 340.939811 -72.495896 
L 342.025613 -73.510214 
L 343.111414 -74.438876 
L 344.197215 -74.360924 
L 345.283016 -74.830914 
L 346.368817 -74.745191 
L 347.454618 -74.739031 
L 348.54042 -75.335668 
L 349.626221 -77.199039 
L 350.712022 -77.784472 
L 351.797823 -78.293772 
L 352.883624 -79.761052 
L 353.969425 -79.076312 
L 355.055227 -78.827243 
L 356.141028 -78.831079 
L 357.226829 -79.216984 
L 358.31263 -79.092272 
L 359.398431 -78.47819 
L 360.484232 -77.330918 
L 361.570033 -77.160689 
L 362.655835 -75.481048 
L 363.741636 -74.707913 
L 364.827437 -74.227742 
L 365.913238 -74.842888 
L 366.999039 -74.017155 
L 368.08484 -73.574655 
L 369.170642 -73.992128 
L 370.256443 -73.369214 
L 371.342244 -72.998096 
L 372.428045 -73.060738 
L 373.513846 -73.020898 
L 374.599647 -74.304232 
L 375.685448 -74.611108 
L 376.77125 -73.837334 
L 377.857051 -72.849236 
L 378.942852 -71.630109 
L 380.028653 -69.559365 
L 381.114454 -68.205412 
L 382.200255 -67.0328 
L 383.286057 -65.364188 
L 384.371858 -64.876446 
L 385.457659 -62.50742 
L 386.54346 -62.166422 
L 387.629261 -60.552899 
L 388.715062 -59.633577 
L 389.800863 -58.376445 
L 390.886665 -58.411312 
L 391.972466 -57.059157 
L 393.058267 -56.728759 
L 394.144068 -56.425758 
L 395.229869 -54.909062 
L 396.31567 -53.472461 
L 397.401472 -51.299868 
L 398.487273 -50.112 
L 398.487273 -265.025172 
L 398.487273 -265.025172 
L 397.401472 -266.583768 
L 396.31567 -268.945128 
L 395.229869 -270.724972 
L 394.144068 -272.353253 
L 393.058267 -272.950636 
L 391.972466 -273.598038 
L 390.886665 -275.472596 
L 389.800863 -276.11328 
L 388.715062 -278.263145 
L 387.629261 -279.658787 
L 386.54346 -281.570158 
L 385.457659 -281.820991 
L 384.371858 -283.821593 
L 383.286057 -283.777941 
L 382.200255 -285.027434 
L 381.114454 -285.443445 
L 380.028653 -286.030181 
L 378.942852 -286.965033 
L 377.857051 -287.089016 
L 376.77125 -286.518221 
L 375.685448 -285.673385 
L 374.599647 -283.58465 
L 373.513846 -280.372196 
L 372.428045 -278.323803 
L 371.342244 -275.986858 
L 370.256443 -274.145279 
L 369.170642 -272.660507 
L 368.08484 -270.048267 
L 366.999039 -268.658008 
L 365.913238 -267.443841 
L 364.827437 -265.21105 
L 363.741636 -264.12727 
L 362.655835 -263.263953 
L 361.570033 -263.32802 
L 360.484232 -261.726018 
L 359.398431 -261.098815 
L 358.31263 -259.792691 
L 357.226829 -257.951958 
L 356.141028 -255.519908 
L 355.055227 -253.368355 
L 353.969425 -251.682482 
L 352.883624 -250.550259 
L 351.797823 -246.75168 
L 350.712022 -244.461651 
L 349.626221 -241.748331 
L 348.54042 -237.693109 
L 347.454618 -235.165477 
L 346.368817 -233.227346 
L 345.283016 -231.486121 
L 344.197215 -229.488724 
L 343.111414 -228.134646 
L 342.025613 -225.654723 
L 340.939811 -223.083858 
L 339.85401 -220.796051 
L 338.768209 -219.097343 
L 337.682408 -218.185482 
L 336.596607 -217.264715 
L 335.510806 -216.350252 
L 334.425005 -213.953839 
L 333.339203 -212.696777 
L 332.253402 -210.463342 
L 331.167601 -207.908601 
L 330.0818 -205.581102 
L 328.995999 -203.700101 
L 327.910198 -202.283889 
L 326.824396 -199.233568 
L 325.738595 -196.659609 
L 324.652794 -193.779288 
L 323.566993 -190.495586 
L 322.481192 -186.755173 
L 321.395391 -185.974276 
L 320.30959 -183.621415 
L 319.223788 -182.690535 
L 318.137987 -180.585229 
L 317.052186 -178.38022 
L 315.966385 -175.557261 
L 314.880584 -173.496702 
L 313.794783 -172.334407 
L 312.708981 -171.331332 
L 311.62318 -170.58039 
L 310.537379 -170.954968 
L 309.451578 -171.078562 
L 308.365777 -172.00452 
L 307.279976 -173.487693 
L 306.194175 -172.765 
L 305.108373 -173.086602 
L 304.022572 -172.922371 
L 302.936771 -172.886866 
L 301.85097 -172.22678 
L 300.765169 -172.31506 
L 299.679368 -171.743994 
L 298.593566 -171.875382 
L 297.507765 -170.626579 
L 296.421964 -171.46105 
L 295.336163 -171.573598 
L 294.250362 -172.361847 
L 293.164561 -173.224411 
L 292.07876 -174.2405 
L 290.992958 -173.759031 
L 289.907157 -174.633844 
L 288.821356 -174.705989 
L 287.735555 -176.312583 
L 286.649754 -177.043417 
L 285.563953 -178.834311 
L 284.478151 -181.725041 
L 283.39235 -185.137291 
L 282.306549 -188.87575 
L 281.220748 -190.124336 
L 280.134947 -192.689189 
L 279.049146 -194.195095 
L 277.963344 -195.843837 
L 276.877543 -199.05609 
L 275.791742 -201.807142 
L 274.705941 -204.281778 
L 273.62014 -205.295443 
L 272.534339 -207.520635 
L 271.448538 -209.873577 
L 270.362736 -213.382882 
L 269.276935 -216.016464 
L 268.191134 -219.22337 
L 267.105333 -223.110887 
L 266.019532 -225.833927 
L 264.933731 -228.951218 
L 263.847929 -230.790875 
L 262.762128 -233.965332 
L 261.676327 -237.289927 
L 260.590526 -239.815102 
L 259.504725 -243.519433 
L 258.418924 -246.226374 
L 257.333123 -248.528072 
L 256.247321 -251.12364 
L 255.16152 -253.960239 
L 254.075719 -256.07702 
L 252.989918 -258.411211 
L 251.904117 -261.110831 
L 250.818316 -264.476541 
L 249.732514 -266.660173 
L 248.646713 -269.380348 
L 247.560912 -271.691239 
L 246.475111 -274.587126 
L 245.38931 -276.17918 
L 244.303509 -276.941929 
L 243.217708 -277.490047 
L 242.131906 -279.582688 
L 241.046105 -281.696001 
L 239.960304 -284.703262 
L 238.874503 -286.162358 
L 237.788702 -288.53663 
L 236.702901 -289.598993 
L 235.617099 -291.037326 
L 234.531298 -292.032 
L 233.445497 -291.802204 
L 232.359696 -291.015394 
L 231.273895 -290.454442 
L 230.188094 -289.425372 
L 229.102292 -288.505907 
L 228.016491 -287.652426 
L 226.93069 -287.899539 
L 225.844889 -286.350747 
L 224.759088 -284.796414 
L 223.673287 -282.355329 
L 222.587486 -279.892578 
L 221.501684 -276.92972 
L 220.415883 -273.619822 
L 219.330082 -269.699894 
L 218.244281 -264.847607 
L 217.15848 -262.212406 
L 216.072679 -260.158226 
L 214.986877 -258.511358 
L 213.901076 -257.155426 
L 212.815275 -254.205646 
L 211.729474 -251.652679 
L 210.643673 -250.040626 
L 209.557872 -248.511227 
L 208.472071 -245.921601 
L 207.386269 -241.752158 
L 206.300468 -239.001587 
L 205.214667 -235.356653 
L 204.128866 -232.39822 
L 203.043065 -228.984664 
L 201.957264 -227.089399 
L 200.871462 -224.274368 
L 199.785661 -222.178592 
L 198.69986 -219.267883 
L 197.614059 -216.308827 
L 196.528258 -214.890453 
L 195.442457 -211.655794 
L 194.356656 -209.862348 
L 193.270854 -206.571125 
L 192.185053 -203.998935 
L 191.099252 -200.269782 
L 190.013451 -197.87008 
L 188.92765 -195.490692 
L 187.841849 -193.309481 
L 186.756047 -189.642157 
L 185.670246 -186.287958 
L 184.584445 -181.797208 
L 183.498644 -178.883946 
L 182.412843 -174.993039 
L 181.327042 -170.247808 
L 180.24124 -166.313577 
L 179.155439 -162.171551 
L 178.069638 -157.819418 
L 176.983837 -154.33113 
L 175.898036 -151.843902 
L 174.812235 -148.144914 
L 173.726434 -146.119293 
L 172.640632 -144.341862 
L 171.554831 -141.71297 
L 170.46903 -141.540232 
L 169.383229 -140.452453 
L 168.297428 -140.039226 
L 167.211627 -139.458706 
L 166.125825 -139.197122 
L 165.040024 -138.465703 
L 163.954223 -138.228714 
L 162.868422 -137.960243 
L 161.782621 -138.151877 
L 160.69682 -137.697114 
L 159.611019 -138.083285 
L 158.525217 -138.333454 
L 157.439416 -138.998144 
L 156.353615 -138.700055 
L 155.267814 -139.407131 
L 154.182013 -139.696739 
L 153.096212 -138.584185 
L 152.01041 -137.709301 
L 150.924609 -136.582528 
L 149.838808 -137.133891 
L 148.753007 -137.041113 
L 147.667206 -136.671436 
L 146.581405 -136.111248 
L 145.495604 -133.772675 
L 144.409802 -133.813907 
L 143.324001 -133.746337 
L 142.2382 -134.130345 
L 141.152399 -133.563553 
L 140.066598 -133.613695 
L 138.980797 -132.291873 
L 137.894995 -131.962937 
L 136.809194 -131.360447 
L 135.723393 -131.144113 
L 134.637592 -132.098937 
L 133.551791 -131.507294 
L 132.46599 -130.972441 
L 131.380189 -130.546264 
L 130.294387 -130.423401 
L 129.208586 -129.521904 
L 128.122785 -129.003717 
L 127.036984 -128.530123 
L 125.951183 -127.368698 
L 124.865382 -126.860695 
L 123.77958 -126.224295 
L 122.693779 -125.988403 
L 121.607978 -126.678265 
L 120.522177 -125.902685 
L 119.436376 -125.591322 
L 118.350575 -125.880123 
L 117.264773 -124.609996 
L 116.178972 -125.506372 
L 115.093171 -125.817109 
L 114.00737 -127.110535 
L 112.921569 -127.404198 
L 111.835768 -127.740857 
L 110.749967 -128.202463 
L 109.664165 -128.053729 
L 108.578364 -128.310109 
L 107.492563 -128.803859 
L 106.406762 -129.17419 
L 105.320961 -129.341719 
L 104.23516 -128.828859 
L 103.149358 -129.936219 
L 102.063557 -130.082574 
L 100.977756 -130.765541 
L 99.891955 -130.302803 
L 98.806154 -129.829941 
L 97.720353 -129.741891 
L 96.634552 -129.632901 
L 95.54875 -129.471635 
L 94.462949 -128.031859 
L 93.377148 -127.817659 
L 92.291347 -127.963825 
L 91.205546 -127.535534 
L 90.119745 -127.046473 
L 89.033943 -126.690464 
L 87.948142 -127.416132 
L 86.862341 -127.402116 
L 85.77654 -126.766073 
L 84.690739 -126.050403 
L 83.604938 -125.789407 
L 82.519137 -125.502585 
L 81.433335 -127.178421 
L 80.347534 -127.890037 
L 79.261733 -128.173572 
L 78.175932 -128.183736 
L 77.090131 -129.138087 
L 76.00433 -129.154436 
L 74.918528 -129.459824 
L 73.832727 -129.260331 
z
" style="stroke: #ff00ff; stroke-opacity: 0.1"/>
    </defs>
    <g clip-path="url(#pa7728e30e5)">
     <use xlink:href="#m4fa92d7a2a" x="0" y="345.6" style="fill: #ff00ff; fill-opacity: 0.1; stroke: #ff00ff; stroke-opacity: 0.1"/>
    </g>
   </g>
   <g id="matplotlib.axis_1">
    <g id="xtick_1">
     <g id="line2d_1">
      <defs>
       <path id="m09caaaca42" d="M 0 0 
L 0 3.5 
" style="stroke: #000000; stroke-width: 0.8"/>
      </defs>
      <g>
       <use xlink:href="#m09caaaca42" x="73.832727" y="307.584" style="stroke: #000000; stroke-width: 0.8"/>
      </g>
     </g>
     <g id="text_1">
      <!-- −5 -->
      <g transform="translate(66.461634 322.182437) scale(0.1 -0.1)">
       <defs>
        <path id="DejaVuSans-2212" d="M 678 2272 
L 4684 2272 
L 4684 1741 
L 678 1741 
L 678 2272 
z
" transform="scale(0.015625)"/>
        <path id="DejaVuSans-35" d="M 691 4666 
L 3169 4666 
L 3169 4134 
L 1269 4134 
L 1269 2991 
Q 1406 3038 1543 3061 
Q 1681 3084 1819 3084 
Q 2600 3084 3056 2656 
Q 3513 2228 3513 1497 
Q 3513 744 3044 326 
Q 2575 -91 1722 -91 
Q 1428 -91 1123 -41 
Q 819 9 494 109 
L 494 744 
Q 775 591 1075 516 
Q 1375 441 1709 441 
Q 2250 441 2565 725 
Q 2881 1009 2881 1497 
Q 2881 1984 2565 2268 
Q 2250 2553 1709 2553 
Q 1456 2553 1204 2497 
Q 953 2441 691 2322 
L 691 4666 
z
" transform="scale(0.015625)"/>
       </defs>
       <use xlink:href="#DejaVuSans-2212"/>
       <use xlink:href="#DejaVuSans-35" x="83.789062"/>
      </g>
     </g>
    </g>
    <g id="xtick_2">
     <g id="line2d_2">
      <g>
       <use xlink:href="#m09caaaca42" x="95.54875" y="307.584" style="stroke: #000000; stroke-width: 0.8"/>
      </g>
     </g>
     <g id="text_2">
      <!-- −4 -->
      <g transform="translate(88.177657 322.182437) scale(0.1 -0.1)">
       <defs>
        <path id="DejaVuSans-34" d="M 2419 4116 
L 825 1625 
L 2419 1625 
L 2419 4116 
z
M 2253 4666 
L 3047 4666 
L 3047 1625 
L 3713 1625 
L 3713 1100 
L 3047 1100 
L 3047 0 
L 2419 0 
L 2419 1100 
L 313 1100 
L 313 1709 
L 2253 4666 
z
" transform="scale(0.015625)"/>
       </defs>
       <use xlink:href="#DejaVuSans-2212"/>
       <use xlink:href="#DejaVuSans-34" x="83.789062"/>
      </g>
     </g>
    </g>
    <g id="xtick_3">
     <g id="line2d_3">
      <g>
       <use xlink:href="#m09caaaca42" x="117.264773" y="307.584" style="stroke: #000000; stroke-width: 0.8"/>
      </g>
     </g>
     <g id="text_3">
      <!-- −3 -->
      <g transform="translate(109.89368 322.182437) scale(0.1 -0.1)">
       <defs>
        <path id="DejaVuSans-33" d="M 2597 2516 
Q 3050 2419 3304 2112 
Q 3559 1806 3559 1356 
Q 3559 666 3084 287 
Q 2609 -91 1734 -91 
Q 1441 -91 1130 -33 
Q 819 25 488 141 
L 488 750 
Q 750 597 1062 519 
Q 1375 441 1716 441 
Q 2309 441 2620 675 
Q 2931 909 2931 1356 
Q 2931 1769 2642 2001 
Q 2353 2234 1838 2234 
L 1294 2234 
L 1294 2753 
L 1863 2753 
Q 2328 2753 2575 2939 
Q 2822 3125 2822 3475 
Q 2822 3834 2567 4026 
Q 2313 4219 1838 4219 
Q 1578 4219 1281 4162 
Q 984 4106 628 3988 
L 628 4550 
Q 988 4650 1302 4700 
Q 1616 4750 1894 4750 
Q 2613 4750 3031 4423 
Q 3450 4097 3450 3541 
Q 3450 3153 3228 2886 
Q 3006 2619 2597 2516 
z
" transform="scale(0.015625)"/>
       </defs>
       <use xlink:href="#DejaVuSans-2212"/>
       <use xlink:href="#DejaVuSans-33" x="83.789062"/>
      </g>
     </g>
    </g>
    <g id="xtick_4">
     <g id="line2d_4">
      <g>
       <use xlink:href="#m09caaaca42" x="138.980797" y="307.584" style="stroke: #000000; stroke-width: 0.8"/>
      </g>
     </g>
     <g id="text_4">
      <!-- −2 -->
      <g transform="translate(131.609703 322.182437) scale(0.1 -0.1)">
       <defs>
        <path id="DejaVuSans-32" d="M 1228 531 
L 3431 531 
L 3431 0 
L 469 0 
L 469 531 
Q 828 903 1448 1529 
Q 2069 2156 2228 2338 
Q 2531 2678 2651 2914 
Q 2772 3150 2772 3378 
Q 2772 3750 2511 3984 
Q 2250 4219 1831 4219 
Q 1534 4219 1204 4116 
Q 875 4013 500 3803 
L 500 4441 
Q 881 4594 1212 4672 
Q 1544 4750 1819 4750 
Q 2544 4750 2975 4387 
Q 3406 4025 3406 3419 
Q 3406 3131 3298 2873 
Q 3191 2616 2906 2266 
Q 2828 2175 2409 1742 
Q 1991 1309 1228 531 
z
" transform="scale(0.015625)"/>
       </defs>
       <use xlink:href="#DejaVuSans-2212"/>
       <use xlink:href="#DejaVuSans-32" x="83.789062"/>
      </g>
     </g>
    </g>
    <g id="xtick_5">
     <g id="line2d_5">
      <g>
       <use xlink:href="#m09caaaca42" x="160.69682" y="307.584" style="stroke: #000000; stroke-width: 0.8"/>
      </g>
     </g>
     <g id="text_5">
      <!-- −1 -->
      <g transform="translate(153.325726 322.182437) scale(0.1 -0.1)">
       <defs>
        <path id="DejaVuSans-31" d="M 794 531 
L 1825 531 
L 1825 4091 
L 703 3866 
L 703 4441 
L 1819 4666 
L 2450 4666 
L 2450 531 
L 3481 531 
L 3481 0 
L 794 0 
L 794 531 
z
" transform="scale(0.015625)"/>
       </defs>
       <use xlink:href="#DejaVuSans-2212"/>
       <use xlink:href="#DejaVuSans-31" x="83.789062"/>
      </g>
     </g>
    </g>
    <g id="xtick_6">
     <g id="line2d_6">
      <g>
       <use xlink:href="#m09caaaca42" x="182.412843" y="307.584" style="stroke: #000000; stroke-width: 0.8"/>
      </g>
     </g>
     <g id="text_6">
      <!-- 0 -->
      <g transform="translate(179.231593 322.182437) scale(0.1 -0.1)">
       <defs>
        <path id="DejaVuSans-30" d="M 2034 4250 
Q 1547 4250 1301 3770 
Q 1056 3291 1056 2328 
Q 1056 1369 1301 889 
Q 1547 409 2034 409 
Q 2525 409 2770 889 
Q 3016 1369 3016 2328 
Q 3016 3291 2770 3770 
Q 2525 4250 2034 4250 
z
M 2034 4750 
Q 2819 4750 3233 4129 
Q 3647 3509 3647 2328 
Q 3647 1150 3233 529 
Q 2819 -91 2034 -91 
Q 1250 -91 836 529 
Q 422 1150 422 2328 
Q 422 3509 836 4129 
Q 1250 4750 2034 4750 
z
" transform="scale(0.015625)"/>
       </defs>
       <use xlink:href="#DejaVuSans-30"/>
      </g>
     </g>
    </g>
    <g id="xtick_7">
     <g id="line2d_7">
      <g>
       <use xlink:href="#m09caaaca42" x="204.128866" y="307.584" style="stroke: #000000; stroke-width: 0.8"/>
      </g>
     </g>
     <g id="text_7">
      <!-- 1 -->
      <g transform="translate(200.947616 322.182437) scale(0.1 -0.1)">
       <use xlink:href="#DejaVuSans-31"/>
      </g>
     </g>
    </g>
    <g id="xtick_8">
     <g id="line2d_8">
      <g>
       <use xlink:href="#m09caaaca42" x="225.844889" y="307.584" style="stroke: #000000; stroke-width: 0.8"/>
      </g>
     </g>
     <g id="text_8">
      <!-- 2 -->
      <g transform="translate(222.663639 322.182437) scale(0.1 -0.1)">
       <use xlink:href="#DejaVuSans-32"/>
      </g>
     </g>
    </g>
    <g id="xtick_9">
     <g id="line2d_9">
      <g>
       <use xlink:href="#m09caaaca42" x="247.560912" y="307.584" style="stroke: #000000; stroke-width: 0.8"/>
      </g>
     </g>
     <g id="text_9">
      <!-- 3 -->
      <g transform="translate(244.379662 322.182437) scale(0.1 -0.1)">
       <use xlink:href="#DejaVuSans-33"/>
      </g>
     </g>
    </g>
    <g id="xtick_10">
     <g id="line2d_10">
      <g>
       <use xlink:href="#m09caaaca42" x="269.276935" y="307.584" style="stroke: #000000; stroke-width: 0.8"/>
      </g>
     </g>
     <g id="text_10">
      <!-- 4 -->
      <g transform="translate(266.095685 322.182437) scale(0.1 -0.1)">
       <use xlink:href="#DejaVuSans-34"/>
      </g>
     </g>
    </g>
    <g id="xtick_11">
     <g id="line2d_11">
      <g>
       <use xlink:href="#m09caaaca42" x="290.992958" y="307.584" style="stroke: #000000; stroke-width: 0.8"/>
      </g>
     </g>
     <g id="text_11">
      <!-- 5 -->
      <g transform="translate(287.811708 322.182437) scale(0.1 -0.1)">
       <use xlink:href="#DejaVuSans-35"/>
      </g>
     </g>
    </g>
    <g id="xtick_12">
     <g id="line2d_12">
      <g>
       <use xlink:href="#m09caaaca42" x="312.708981" y="307.584" style="stroke: #000000; stroke-width: 0.8"/>
      </g>
     </g>
     <g id="text_12">
      <!-- 6 -->
      <g transform="translate(309.527731 322.182437) scale(0.1 -0.1)">
       <defs>
        <path id="DejaVuSans-36" d="M 2113 2584 
Q 1688 2584 1439 2293 
Q 1191 2003 1191 1497 
Q 1191 994 1439 701 
Q 1688 409 2113 409 
Q 2538 409 2786 701 
Q 3034 994 3034 1497 
Q 3034 2003 2786 2293 
Q 2538 2584 2113 2584 
z
M 3366 4563 
L 3366 3988 
Q 3128 4100 2886 4159 
Q 2644 4219 2406 4219 
Q 1781 4219 1451 3797 
Q 1122 3375 1075 2522 
Q 1259 2794 1537 2939 
Q 1816 3084 2150 3084 
Q 2853 3084 3261 2657 
Q 3669 2231 3669 1497 
Q 3669 778 3244 343 
Q 2819 -91 2113 -91 
Q 1303 -91 875 529 
Q 447 1150 447 2328 
Q 447 3434 972 4092 
Q 1497 4750 2381 4750 
Q 2619 4750 2861 4703 
Q 3103 4656 3366 4563 
z
" transform="scale(0.015625)"/>
       </defs>
       <use xlink:href="#DejaVuSans-36"/>
      </g>
     </g>
    </g>
    <g id="xtick_13">
     <g id="line2d_13">
      <g>
       <use xlink:href="#m09caaaca42" x="334.425005" y="307.584" style="stroke: #000000; stroke-width: 0.8"/>
      </g>
     </g>
     <g id="text_13">
      <!-- 7 -->
      <g transform="translate(331.243755 322.182437) scale(0.1 -0.1)">
       <defs>
        <path id="DejaVuSans-37" d="M 525 4666 
L 3525 4666 
L 3525 4397 
L 1831 0 
L 1172 0 
L 2766 4134 
L 525 4134 
L 525 4666 
z
" transform="scale(0.015625)"/>
       </defs>
       <use xlink:href="#DejaVuSans-37"/>
      </g>
     </g>
    </g>
    <g id="xtick_14">
     <g id="line2d_14">
      <g>
       <use xlink:href="#m09caaaca42" x="356.141028" y="307.584" style="stroke: #000000; stroke-width: 0.8"/>
      </g>
     </g>
     <g id="text_14">
      <!-- 8 -->
      <g transform="translate(352.959778 322.182437) scale(0.1 -0.1)">
       <defs>
        <path id="DejaVuSans-38" d="M 2034 2216 
Q 1584 2216 1326 1975 
Q 1069 1734 1069 1313 
Q 1069 891 1326 650 
Q 1584 409 2034 409 
Q 2484 409 2743 651 
Q 3003 894 3003 1313 
Q 3003 1734 2745 1975 
Q 2488 2216 2034 2216 
z
M 1403 2484 
Q 997 2584 770 2862 
Q 544 3141 544 3541 
Q 544 4100 942 4425 
Q 1341 4750 2034 4750 
Q 2731 4750 3128 4425 
Q 3525 4100 3525 3541 
Q 3525 3141 3298 2862 
Q 3072 2584 2669 2484 
Q 3125 2378 3379 2068 
Q 3634 1759 3634 1313 
Q 3634 634 3220 271 
Q 2806 -91 2034 -91 
Q 1263 -91 848 271 
Q 434 634 434 1313 
Q 434 1759 690 2068 
Q 947 2378 1403 2484 
z
M 1172 3481 
Q 1172 3119 1398 2916 
Q 1625 2713 2034 2713 
Q 2441 2713 2670 2916 
Q 2900 3119 2900 3481 
Q 2900 3844 2670 4047 
Q 2441 4250 2034 4250 
Q 1625 4250 1398 4047 
Q 1172 3844 1172 3481 
z
" transform="scale(0.015625)"/>
       </defs>
       <use xlink:href="#DejaVuSans-38"/>
      </g>
     </g>
    </g>
    <g id="xtick_15">
     <g id="line2d_15">
      <g>
       <use xlink:href="#m09caaaca42" x="377.857051" y="307.584" style="stroke: #000000; stroke-width: 0.8"/>
      </g>
     </g>
     <g id="text_15">
      <!-- 9 -->
      <g transform="translate(374.675801 322.182437) scale(0.1 -0.1)">
       <defs>
        <path id="DejaVuSans-39" d="M 703 97 
L 703 672 
Q 941 559 1184 500 
Q 1428 441 1663 441 
Q 2288 441 2617 861 
Q 2947 1281 2994 2138 
Q 2813 1869 2534 1725 
Q 2256 1581 1919 1581 
Q 1219 1581 811 2004 
Q 403 2428 403 3163 
Q 403 3881 828 4315 
Q 1253 4750 1959 4750 
Q 2769 4750 3195 4129 
Q 3622 3509 3622 2328 
Q 3622 1225 3098 567 
Q 2575 -91 1691 -91 
Q 1453 -91 1209 -44 
Q 966 3 703 97 
z
M 1959 2075 
Q 2384 2075 2632 2365 
Q 2881 2656 2881 3163 
Q 2881 3666 2632 3958 
Q 2384 4250 1959 4250 
Q 1534 4250 1286 3958 
Q 1038 3666 1038 3163 
Q 1038 2656 1286 2365 
Q 1534 2075 1959 2075 
z
" transform="scale(0.015625)"/>
       </defs>
       <use xlink:href="#DejaVuSans-39"/>
      </g>
     </g>
    </g>
    <g id="xtick_16">
     <g id="line2d_16">
      <g>
       <use xlink:href="#m09caaaca42" x="399.573074" y="307.584" style="stroke: #000000; stroke-width: 0.8"/>
      </g>
     </g>
     <g id="text_16">
      <!-- 10 -->
      <g transform="translate(393.210574 322.182437) scale(0.1 -0.1)">
       <use xlink:href="#DejaVuSans-31"/>
       <use xlink:href="#DejaVuSans-30" x="63.623047"/>
      </g>
     </g>
    </g>
    <g id="text_17">
     <!-- Time (s) -->
     <g transform="translate(215.831094 335.860562) scale(0.1 -0.1)">
      <defs>
       <path id="DejaVuSans-54" d="M -19 4666 
L 3928 4666 
L 3928 4134 
L 2272 4134 
L 2272 0 
L 1638 0 
L 1638 4134 
L -19 4134 
L -19 4666 
z
" transform="scale(0.015625)"/>
       <path id="DejaVuSans-69" d="M 603 3500 
L 1178 3500 
L 1178 0 
L 603 0 
L 603 3500 
z
M 603 4863 
L 1178 4863 
L 1178 4134 
L 603 4134 
L 603 4863 
z
" transform="scale(0.015625)"/>
       <path id="DejaVuSans-6d" d="M 3328 2828 
Q 3544 3216 3844 3400 
Q 4144 3584 4550 3584 
Q 5097 3584 5394 3201 
Q 5691 2819 5691 2113 
L 5691 0 
L 5113 0 
L 5113 2094 
Q 5113 2597 4934 2840 
Q 4756 3084 4391 3084 
Q 3944 3084 3684 2787 
Q 3425 2491 3425 1978 
L 3425 0 
L 2847 0 
L 2847 2094 
Q 2847 2600 2669 2842 
Q 2491 3084 2119 3084 
Q 1678 3084 1418 2786 
Q 1159 2488 1159 1978 
L 1159 0 
L 581 0 
L 581 3500 
L 1159 3500 
L 1159 2956 
Q 1356 3278 1631 3431 
Q 1906 3584 2284 3584 
Q 2666 3584 2933 3390 
Q 3200 3197 3328 2828 
z
" transform="scale(0.015625)"/>
       <path id="DejaVuSans-65" d="M 3597 1894 
L 3597 1613 
L 953 1613 
Q 991 1019 1311 708 
Q 1631 397 2203 397 
Q 2534 397 2845 478 
Q 3156 559 3463 722 
L 3463 178 
Q 3153 47 2828 -22 
Q 2503 -91 2169 -91 
Q 1331 -91 842 396 
Q 353 884 353 1716 
Q 353 2575 817 3079 
Q 1281 3584 2069 3584 
Q 2775 3584 3186 3129 
Q 3597 2675 3597 1894 
z
M 3022 2063 
Q 3016 2534 2758 2815 
Q 2500 3097 2075 3097 
Q 1594 3097 1305 2825 
Q 1016 2553 972 2059 
L 3022 2063 
z
" transform="scale(0.015625)"/>
       <path id="DejaVuSans-20" transform="scale(0.015625)"/>
       <path id="DejaVuSans-28" d="M 1984 4856 
Q 1566 4138 1362 3434 
Q 1159 2731 1159 2009 
Q 1159 1288 1364 580 
Q 1569 -128 1984 -844 
L 1484 -844 
Q 1016 -109 783 600 
Q 550 1309 550 2009 
Q 550 2706 781 3412 
Q 1013 4119 1484 4856 
L 1984 4856 
z
" transform="scale(0.015625)"/>
       <path id="DejaVuSans-73" d="M 2834 3397 
L 2834 2853 
Q 2591 2978 2328 3040 
Q 2066 3103 1784 3103 
Q 1356 3103 1142 2972 
Q 928 2841 928 2578 
Q 928 2378 1081 2264 
Q 1234 2150 1697 2047 
L 1894 2003 
Q 2506 1872 2764 1633 
Q 3022 1394 3022 966 
Q 3022 478 2636 193 
Q 2250 -91 1575 -91 
Q 1294 -91 989 -36 
Q 684 19 347 128 
L 347 722 
Q 666 556 975 473 
Q 1284 391 1588 391 
Q 1994 391 2212 530 
Q 2431 669 2431 922 
Q 2431 1156 2273 1281 
Q 2116 1406 1581 1522 
L 1381 1569 
Q 847 1681 609 1914 
Q 372 2147 372 2553 
Q 372 3047 722 3315 
Q 1072 3584 1716 3584 
Q 2034 3584 2315 3537 
Q 2597 3491 2834 3397 
z
" transform="scale(0.015625)"/>
       <path id="DejaVuSans-29" d="M 513 4856 
L 1013 4856 
Q 1481 4119 1714 3412 
Q 1947 2706 1947 2009 
Q 1947 1309 1714 600 
Q 1481 -109 1013 -844 
L 513 -844 
Q 928 -128 1133 580 
Q 1338 1288 1338 2009 
Q 1338 2731 1133 3434 
Q 928 4138 513 4856 
z
" transform="scale(0.015625)"/>
      </defs>
      <use xlink:href="#DejaVuSans-54"/>
      <use xlink:href="#DejaVuSans-69" x="57.958984"/>
      <use xlink:href="#DejaVuSans-6d" x="85.742188"/>
      <use xlink:href="#DejaVuSans-65" x="183.154297"/>
      <use xlink:href="#DejaVuSans-20" x="244.677734"/>
      <use xlink:href="#DejaVuSans-28" x="276.464844"/>
      <use xlink:href="#DejaVuSans-73" x="315.478516"/>
      <use xlink:href="#DejaVuSans-29" x="367.578125"/>
     </g>
    </g>
   </g>
   <g id="matplotlib.axis_2">
    <g id="ytick_1">
     <g id="line2d_17">
      <defs>
       <path id="mba05e02bf1" d="M 0 0 
L -3.5 0 
" style="stroke: #000000; stroke-width: 0.8"/>
      </defs>
      <g>
       <use xlink:href="#mba05e02bf1" x="57.6" y="287.021218" style="stroke: #000000; stroke-width: 0.8"/>
      </g>
     </g>
     <g id="text_18">
      <!-- −0.4 -->
      <g transform="translate(26.317187 290.820436) scale(0.1 -0.1)">
       <defs>
        <path id="DejaVuSans-2e" d="M 684 794 
L 1344 794 
L 1344 0 
L 684 0 
L 684 794 
z
" transform="scale(0.015625)"/>
       </defs>
       <use xlink:href="#DejaVuSans-2212"/>
       <use xlink:href="#DejaVuSans-30" x="83.789062"/>
       <use xlink:href="#DejaVuSans-2e" x="147.412109"/>
       <use xlink:href="#DejaVuSans-34" x="179.199219"/>
      </g>
     </g>
    </g>
    <g id="ytick_2">
     <g id="line2d_18">
      <g>
       <use xlink:href="#mba05e02bf1" x="57.6" y="256.686955" style="stroke: #000000; stroke-width: 0.8"/>
      </g>
     </g>
     <g id="text_19">
      <!-- −0.2 -->
      <g transform="translate(26.317187 260.486173) scale(0.1 -0.1)">
       <use xlink:href="#DejaVuSans-2212"/>
       <use xlink:href="#DejaVuSans-30" x="83.789062"/>
       <use xlink:href="#DejaVuSans-2e" x="147.412109"/>
       <use xlink:href="#DejaVuSans-32" x="179.199219"/>
      </g>
     </g>
    </g>
    <g id="ytick_3">
     <g id="line2d_19">
      <g>
       <use xlink:href="#mba05e02bf1" x="57.6" y="226.352692" style="stroke: #000000; stroke-width: 0.8"/>
      </g>
     </g>
     <g id="text_20">
      <!-- 0.0 -->
      <g transform="translate(34.696875 230.15191) scale(0.1 -0.1)">
       <use xlink:href="#DejaVuSans-30"/>
       <use xlink:href="#DejaVuSans-2e" x="63.623047"/>
       <use xlink:href="#DejaVuSans-30" x="95.410156"/>
      </g>
     </g>
    </g>
    <g id="ytick_4">
     <g id="line2d_20">
      <g>
       <use xlink:href="#mba05e02bf1" x="57.6" y="196.018429" style="stroke: #000000; stroke-width: 0.8"/>
      </g>
     </g>
     <g id="text_21">
      <!-- 0.2 -->
      <g transform="translate(34.696875 199.817647) scale(0.1 -0.1)">
       <use xlink:href="#DejaVuSans-30"/>
       <use xlink:href="#DejaVuSans-2e" x="63.623047"/>
       <use xlink:href="#DejaVuSans-32" x="95.410156"/>
      </g>
     </g>
    </g>
    <g id="ytick_5">
     <g id="line2d_21">
      <g>
       <use xlink:href="#mba05e02bf1" x="57.6" y="165.684166" style="stroke: #000000; stroke-width: 0.8"/>
      </g>
     </g>
     <g id="text_22">
      <!-- 0.4 -->
      <g transform="translate(34.696875 169.483384) scale(0.1 -0.1)">
       <use xlink:href="#DejaVuSans-30"/>
       <use xlink:href="#DejaVuSans-2e" x="63.623047"/>
       <use xlink:href="#DejaVuSans-34" x="95.410156"/>
      </g>
     </g>
    </g>
    <g id="ytick_6">
     <g id="line2d_22">
      <g>
       <use xlink:href="#mba05e02bf1" x="57.6" y="135.349902" style="stroke: #000000; stroke-width: 0.8"/>
      </g>
     </g>
     <g id="text_23">
      <!-- 0.6 -->
      <g transform="translate(34.696875 139.149121) scale(0.1 -0.1)">
       <use xlink:href="#DejaVuSans-30"/>
       <use xlink:href="#DejaVuSans-2e" x="63.623047"/>
       <use xlink:href="#DejaVuSans-36" x="95.410156"/>
      </g>
     </g>
    </g>
    <g id="ytick_7">
     <g id="line2d_23">
      <g>
       <use xlink:href="#mba05e02bf1" x="57.6" y="105.015639" style="stroke: #000000; stroke-width: 0.8"/>
      </g>
     </g>
     <g id="text_24">
      <!-- 0.8 -->
      <g transform="translate(34.696875 108.814858) scale(0.1 -0.1)">
       <use xlink:href="#DejaVuSans-30"/>
       <use xlink:href="#DejaVuSans-2e" x="63.623047"/>
       <use xlink:href="#DejaVuSans-38" x="95.410156"/>
      </g>
     </g>
    </g>
    <g id="ytick_8">
     <g id="line2d_24">
      <g>
       <use xlink:href="#mba05e02bf1" x="57.6" y="74.681376" style="stroke: #000000; stroke-width: 0.8"/>
      </g>
     </g>
     <g id="text_25">
      <!-- 1.0 -->
      <g transform="translate(34.696875 78.480595) scale(0.1 -0.1)">
       <use xlink:href="#DejaVuSans-31"/>
       <use xlink:href="#DejaVuSans-2e" x="63.623047"/>
       <use xlink:href="#DejaVuSans-30" x="95.410156"/>
      </g>
     </g>
    </g>
    <g id="ytick_9">
     <g id="line2d_25">
      <g>
       <use xlink:href="#mba05e02bf1" x="57.6" y="44.347113" style="stroke: #000000; stroke-width: 0.8"/>
      </g>
     </g>
     <g id="text_26">
      <!-- 1.2 -->
      <g transform="translate(34.696875 48.146332) scale(0.1 -0.1)">
       <use xlink:href="#DejaVuSans-31"/>
       <use xlink:href="#DejaVuSans-2e" x="63.623047"/>
       <use xlink:href="#DejaVuSans-32" x="95.410156"/>
      </g>
     </g>
    </g>
    <g id="text_27">
     <!-- Z-Score -->
     <g transform="translate(20.2375 193.67175) rotate(-90) scale(0.1 -0.1)">
      <defs>
       <path id="DejaVuSans-5a" d="M 359 4666 
L 4025 4666 
L 4025 4184 
L 1075 531 
L 4097 531 
L 4097 0 
L 288 0 
L 288 481 
L 3238 4134 
L 359 4134 
L 359 4666 
z
" transform="scale(0.015625)"/>
       <path id="DejaVuSans-2d" d="M 313 2009 
L 1997 2009 
L 1997 1497 
L 313 1497 
L 313 2009 
z
" transform="scale(0.015625)"/>
       <path id="DejaVuSans-53" d="M 3425 4513 
L 3425 3897 
Q 3066 4069 2747 4153 
Q 2428 4238 2131 4238 
Q 1616 4238 1336 4038 
Q 1056 3838 1056 3469 
Q 1056 3159 1242 3001 
Q 1428 2844 1947 2747 
L 2328 2669 
Q 3034 2534 3370 2195 
Q 3706 1856 3706 1288 
Q 3706 609 3251 259 
Q 2797 -91 1919 -91 
Q 1588 -91 1214 -16 
Q 841 59 441 206 
L 441 856 
Q 825 641 1194 531 
Q 1563 422 1919 422 
Q 2459 422 2753 634 
Q 3047 847 3047 1241 
Q 3047 1584 2836 1778 
Q 2625 1972 2144 2069 
L 1759 2144 
Q 1053 2284 737 2584 
Q 422 2884 422 3419 
Q 422 4038 858 4394 
Q 1294 4750 2059 4750 
Q 2388 4750 2728 4690 
Q 3069 4631 3425 4513 
z
" transform="scale(0.015625)"/>
       <path id="DejaVuSans-63" d="M 3122 3366 
L 3122 2828 
Q 2878 2963 2633 3030 
Q 2388 3097 2138 3097 
Q 1578 3097 1268 2742 
Q 959 2388 959 1747 
Q 959 1106 1268 751 
Q 1578 397 2138 397 
Q 2388 397 2633 464 
Q 2878 531 3122 666 
L 3122 134 
Q 2881 22 2623 -34 
Q 2366 -91 2075 -91 
Q 1284 -91 818 406 
Q 353 903 353 1747 
Q 353 2603 823 3093 
Q 1294 3584 2113 3584 
Q 2378 3584 2631 3529 
Q 2884 3475 3122 3366 
z
" transform="scale(0.015625)"/>
       <path id="DejaVuSans-6f" d="M 1959 3097 
Q 1497 3097 1228 2736 
Q 959 2375 959 1747 
Q 959 1119 1226 758 
Q 1494 397 1959 397 
Q 2419 397 2687 759 
Q 2956 1122 2956 1747 
Q 2956 2369 2687 2733 
Q 2419 3097 1959 3097 
z
M 1959 3584 
Q 2709 3584 3137 3096 
Q 3566 2609 3566 1747 
Q 3566 888 3137 398 
Q 2709 -91 1959 -91 
Q 1206 -91 779 398 
Q 353 888 353 1747 
Q 353 2609 779 3096 
Q 1206 3584 1959 3584 
z
" transform="scale(0.015625)"/>
       <path id="DejaVuSans-72" d="M 2631 2963 
Q 2534 3019 2420 3045 
Q 2306 3072 2169 3072 
Q 1681 3072 1420 2755 
Q 1159 2438 1159 1844 
L 1159 0 
L 581 0 
L 581 3500 
L 1159 3500 
L 1159 2956 
Q 1341 3275 1631 3429 
Q 1922 3584 2338 3584 
Q 2397 3584 2469 3576 
Q 2541 3569 2628 3553 
L 2631 2963 
z
" transform="scale(0.015625)"/>
      </defs>
      <use xlink:href="#DejaVuSans-5a"/>
      <use xlink:href="#DejaVuSans-2d" x="66.755859"/>
      <use xlink:href="#DejaVuSans-53" x="102.839844"/>
      <use xlink:href="#DejaVuSans-63" x="166.316406"/>
      <use xlink:href="#DejaVuSans-6f" x="221.296875"/>
      <use xlink:href="#DejaVuSans-72" x="282.478516"/>
      <use xlink:href="#DejaVuSans-65" x="321.341797"/>
     </g>
    </g>
   </g>
   <g id="line2d_26">
    <path d="M 73.832727 238.550778 
L 74.918528 237.667627 
L 76.00433 237.461083 
L 77.090131 236.951027 
L 78.175932 237.456771 
L 79.261733 236.938186 
L 80.347534 236.636919 
L 81.433335 236.855817 
L 82.519137 238.089254 
L 84.690739 236.526716 
L 86.862341 234.416636 
L 87.948142 234.085778 
L 89.033943 234.61549 
L 91.205546 233.21225 
L 92.291347 232.561903 
L 93.377148 232.480599 
L 94.462949 232.024861 
L 95.54875 230.333697 
L 96.634552 229.979211 
L 97.720353 229.761337 
L 98.806154 229.345292 
L 100.977756 227.772444 
L 102.063557 228.244952 
L 103.149358 228.129284 
L 104.23516 228.970773 
L 105.320961 228.257111 
L 106.406762 228.183296 
L 109.664165 228.650024 
L 110.749967 228.278327 
L 114.00737 229.171843 
L 115.093171 230.472497 
L 116.178972 230.794496 
L 117.264773 231.650198 
L 118.350575 230.410942 
L 119.436376 230.681789 
L 120.522177 230.401031 
L 121.607978 229.679458 
L 122.693779 230.518068 
L 123.77958 230.584361 
L 124.865382 229.989334 
L 125.951183 229.62537 
L 127.036984 228.492661 
L 129.208586 227.744111 
L 130.294387 226.808164 
L 131.380189 226.58872 
L 134.637592 224.969409 
L 135.723393 225.78943 
L 136.809194 225.412865 
L 137.894995 224.841974 
L 138.980797 224.506593 
L 140.066598 223.222622 
L 141.152399 223.298457 
L 142.2382 222.866609 
L 143.324001 223.28696 
L 144.409802 223.132881 
L 145.495604 223.192744 
L 146.581405 220.855621 
L 147.667206 220.182521 
L 148.753007 219.797094 
L 149.838808 219.700088 
L 150.924609 220.323056 
L 152.01041 219.351512 
L 153.096212 218.765809 
L 154.182013 217.942323 
L 155.267814 218.607758 
L 156.353615 219.681846 
L 157.439416 219.764821 
L 158.525217 220.827513 
L 160.69682 222.434766 
L 161.782621 222.468989 
L 162.868422 223.061154 
L 165.040024 223.25389 
L 166.125825 223.051082 
L 167.211627 223.187409 
L 168.297428 222.873995 
L 169.383229 222.815194 
L 170.46903 222.176384 
L 171.554831 222.484211 
L 172.640632 220.386751 
L 173.726434 219.262738 
L 174.812235 217.815801 
L 175.898036 214.786538 
L 176.983837 213.076164 
L 178.069638 210.455541 
L 180.24124 203.684287 
L 183.498644 194.748797 
L 184.584445 192.819398 
L 185.670246 189.457595 
L 186.756047 187.225438 
L 187.841849 184.571839 
L 188.92765 183.351474 
L 191.099252 180.340792 
L 192.185053 177.534407 
L 193.270854 175.799245 
L 194.356656 173.381123 
L 195.442457 172.433358 
L 196.528258 169.944545 
L 197.614059 169.260686 
L 199.785661 164.978729 
L 200.871462 163.649829 
L 201.957264 161.598265 
L 203.043065 160.258307 
L 204.128866 157.511861 
L 205.214667 155.272856 
L 206.300468 152.196369 
L 207.386269 149.987969 
L 208.472071 146.483397 
L 209.557872 144.652254 
L 211.729474 142.901649 
L 212.815275 141.024329 
L 213.901076 138.682373 
L 214.986877 137.843896 
L 216.072679 136.700645 
L 217.15848 135.196663 
L 218.244281 133.221181 
L 219.330082 128.968554 
L 220.415883 125.782289 
L 222.587486 120.938605 
L 224.759088 117.516868 
L 226.93069 115.760143 
L 228.016491 116.456318 
L 230.188094 115.566183 
L 231.273895 115.029022 
L 232.359696 114.871308 
L 233.445497 114.54546 
L 234.531298 114.695483 
L 235.617099 116.010541 
L 236.702901 117.52603 
L 237.788702 118.848924 
L 238.874503 121.394935 
L 239.960304 123.069144 
L 241.046105 125.997644 
L 243.217708 130.290991 
L 244.303509 130.85748 
L 245.38931 131.579107 
L 246.475111 133.264002 
L 247.560912 136.079397 
L 248.646713 138.2051 
L 249.732514 140.788571 
L 250.818316 142.843158 
L 251.904117 146.157996 
L 252.989918 148.843011 
L 255.16152 153.145184 
L 257.333123 158.181932 
L 258.418924 160.383101 
L 259.504725 163.093742 
L 260.590526 166.771584 
L 261.676327 169.036017 
L 263.847929 175.295744 
L 264.933731 176.944229 
L 266.019532 180.025868 
L 267.105333 182.614163 
L 268.191134 186.324112 
L 269.276935 189.251894 
L 270.362736 191.72807 
L 271.448538 195.017738 
L 273.62014 199.291467 
L 274.705941 200.201703 
L 275.791742 202.504169 
L 276.877543 205.220865 
L 277.963344 208.351752 
L 280.134947 211.379513 
L 281.220748 213.809394 
L 282.306549 214.924325 
L 284.478151 221.934812 
L 285.563953 224.633754 
L 286.649754 226.257532 
L 287.735555 226.861619 
L 288.821356 228.23767 
L 289.907157 228.217145 
L 290.992958 228.926333 
L 292.07876 228.314514 
L 294.250362 230.130729 
L 295.336163 230.949647 
L 296.421964 231.107074 
L 297.507765 232.082097 
L 298.593566 230.911465 
L 299.679368 231.113976 
L 300.765169 230.815815 
L 301.85097 231.056068 
L 302.936771 230.419858 
L 304.022572 230.449262 
L 305.108373 230.314038 
L 306.194175 230.731669 
L 307.279976 230.003484 
L 308.365777 231.620257 
L 309.451578 232.7206 
L 310.537379 232.950947 
L 311.62318 233.476241 
L 312.708981 233.127713 
L 314.880584 231.572523 
L 315.966385 229.911674 
L 317.052186 227.634889 
L 319.223788 224.294389 
L 320.30959 224.036852 
L 321.395391 222.168074 
L 322.481192 221.977068 
L 323.566993 218.933281 
L 324.652794 216.361696 
L 325.738595 214.30043 
L 326.824396 212.512813 
L 327.910198 210.207928 
L 328.995999 209.564841 
L 330.0818 208.379917 
L 333.339203 203.222506 
L 334.425005 202.545056 
L 335.510806 200.888604 
L 338.768209 200.3652 
L 339.85401 199.354591 
L 340.939811 197.810123 
L 343.111414 194.313239 
L 344.197215 193.675176 
L 345.283016 192.441483 
L 347.454618 190.647746 
L 348.54042 189.085612 
L 349.626221 186.126315 
L 350.712022 184.476939 
L 351.797823 183.077274 
L 352.883624 180.444344 
L 353.969425 180.220603 
L 355.055227 179.502201 
L 356.141028 178.424507 
L 357.226829 177.015529 
L 358.31263 176.157518 
L 359.398431 175.811498 
L 360.484232 176.071532 
L 361.570033 175.355645 
L 362.655835 176.227499 
L 363.741636 176.182408 
L 364.827437 175.880604 
L 365.913238 174.456636 
L 366.999039 174.262419 
L 368.08484 173.788539 
L 369.170642 172.273682 
L 370.256443 171.842754 
L 371.342244 171.107523 
L 372.428045 169.90773 
L 373.513846 168.903453 
L 374.599647 166.655559 
L 375.685448 165.457753 
L 376.77125 165.422223 
L 377.857051 165.630874 
L 378.942852 166.302429 
L 380.028653 167.805227 
L 381.114454 168.775572 
L 382.200255 169.569883 
L 383.286057 171.028935 
L 384.371858 171.250981 
L 385.457659 173.435794 
L 386.54346 173.73171 
L 387.629261 175.494157 
L 388.715062 176.651639 
L 389.800863 178.355138 
L 390.886665 178.658046 
L 391.972466 180.271402 
L 394.144068 181.210494 
L 396.31567 184.391206 
L 397.401472 186.658182 
L 398.487273 188.031414 
L 398.487273 188.031414 
" clip-path="url(#pa7728e30e5)" style="fill: none; stroke: #ff00ff; stroke-width: 1.5; stroke-linecap: square"/>
   </g>
   <g id="line2d_27">
    <path d="M 182.412843 307.584 
L 182.412843 41.472 
" clip-path="url(#pa7728e30e5)" style="fill: none; stroke: #000000; stroke-width: 1.5; stroke-linecap: square"/>
   </g>
   <g id="patch_3">
    <path d="M 57.6 307.584 
L 57.6 41.472 
" style="fill: none; stroke: #000000; stroke-width: 0.8; stroke-linejoin: miter; stroke-linecap: square"/>
   </g>
   <g id="patch_4">
    <path d="M 414.72 307.584 
L 414.72 41.472 
" style="fill: none; stroke: #000000; stroke-width: 0.8; stroke-linejoin: miter; stroke-linecap: square"/>
   </g>
   <g id="patch_5">
    <path d="M 57.6 307.584 
L 414.72 307.584 
" style="fill: none; stroke: #000000; stroke-width: 0.8; stroke-linejoin: miter; stroke-linecap: square"/>
   </g>
   <g id="patch_6">
    <path d="M 57.6 41.472 
L 414.72 41.472 
" style="fill: none; stroke: #000000; stroke-width: 0.8; stroke-linejoin: miter; stroke-linecap: square"/>
   </g>
   <g id="text_28">
    <!-- Group 2_p=0.433 -->
    <g transform="translate(183.158437 35.472) scale(0.12 -0.12)">
     <defs>
      <path id="DejaVuSans-47" d="M 3809 666 
L 3809 1919 
L 2778 1919 
L 2778 2438 
L 4434 2438 
L 4434 434 
Q 4069 175 3628 42 
Q 3188 -91 2688 -91 
Q 1594 -91 976 548 
Q 359 1188 359 2328 
Q 359 3472 976 4111 
Q 1594 4750 2688 4750 
Q 3144 4750 3555 4637 
Q 3966 4525 4313 4306 
L 4313 3634 
Q 3963 3931 3569 4081 
Q 3175 4231 2741 4231 
Q 1884 4231 1454 3753 
Q 1025 3275 1025 2328 
Q 1025 1384 1454 906 
Q 1884 428 2741 428 
Q 3075 428 3337 486 
Q 3600 544 3809 666 
z
" transform="scale(0.015625)"/>
      <path id="DejaVuSans-75" d="M 544 1381 
L 544 3500 
L 1119 3500 
L 1119 1403 
Q 1119 906 1312 657 
Q 1506 409 1894 409 
Q 2359 409 2629 706 
Q 2900 1003 2900 1516 
L 2900 3500 
L 3475 3500 
L 3475 0 
L 2900 0 
L 2900 538 
Q 2691 219 2414 64 
Q 2138 -91 1772 -91 
Q 1169 -91 856 284 
Q 544 659 544 1381 
z
M 1991 3584 
L 1991 3584 
z
" transform="scale(0.015625)"/>
      <path id="DejaVuSans-70" d="M 1159 525 
L 1159 -1331 
L 581 -1331 
L 581 3500 
L 1159 3500 
L 1159 2969 
Q 1341 3281 1617 3432 
Q 1894 3584 2278 3584 
Q 2916 3584 3314 3078 
Q 3713 2572 3713 1747 
Q 3713 922 3314 415 
Q 2916 -91 2278 -91 
Q 1894 -91 1617 61 
Q 1341 213 1159 525 
z
M 3116 1747 
Q 3116 2381 2855 2742 
Q 2594 3103 2138 3103 
Q 1681 3103 1420 2742 
Q 1159 2381 1159 1747 
Q 1159 1113 1420 752 
Q 1681 391 2138 391 
Q 2594 391 2855 752 
Q 3116 1113 3116 1747 
z
" transform="scale(0.015625)"/>
      <path id="DejaVuSans-5f" d="M 3263 -1063 
L 3263 -1509 
L -63 -1509 
L -63 -1063 
L 3263 -1063 
z
" transform="scale(0.015625)"/>
      <path id="DejaVuSans-3d" d="M 678 2906 
L 4684 2906 
L 4684 2381 
L 678 2381 
L 678 2906 
z
M 678 1631 
L 4684 1631 
L 4684 1100 
L 678 1100 
L 678 1631 
z
" transform="scale(0.015625)"/>
     </defs>
     <use xlink:href="#DejaVuSans-47"/>
     <use xlink:href="#DejaVuSans-72" x="77.490234"/>
     <use xlink:href="#DejaVuSans-6f" x="116.353516"/>
     <use xlink:href="#DejaVuSans-75" x="177.535156"/>
     <use xlink:href="#DejaVuSans-70" x="240.914062"/>
     <use xlink:href="#DejaVuSans-20" x="304.390625"/>
     <use xlink:href="#DejaVuSans-32" x="336.177734"/>
     <use xlink:href="#DejaVuSans-5f" x="399.800781"/>
     <use xlink:href="#DejaVuSans-70" x="449.800781"/>
     <use xlink:href="#DejaVuSans-3d" x="513.277344"/>
     <use xlink:href="#DejaVuSans-30" x="597.066406"/>
     <use xlink:href="#DejaVuSans-2e" x="660.689453"/>
     <use xlink:href="#DejaVuSans-34" x="692.476562"/>
     <use xlink:href="#DejaVuSans-33" x="756.099609"/>
     <use xlink:href="#DejaVuSans-33" x="819.722656"/>
    </g>
   </g>
  </g>
 </g>
 <defs>
  <clipPath id="pa7728e30e5">
   <rect x="57.6" y="41.472" width="357.12" height="266.112"/>
  </clipPath>
 </defs>
</svg>
