<?xml version="1.0" encoding="utf-8" standalone="no"?>
<!DOCTYPE svg PUBLIC "-//W3C//DTD SVG 1.1//EN"
  "http://www.w3.org/Graphics/SVG/1.1/DTD/svg11.dtd">
<svg xmlns:xlink="http://www.w3.org/1999/xlink" width="460.8pt" height="345.6pt" viewBox="0 0 460.8 345.6" xmlns="http://www.w3.org/2000/svg" version="1.1">
 <metadata>
  <rdf:RDF xmlns:dc="http://purl.org/dc/elements/1.1/" xmlns:cc="http://creativecommons.org/ns#" xmlns:rdf="http://www.w3.org/1999/02/22-rdf-syntax-ns#">
   <cc:Work>
    <dc:type rdf:resource="http://purl.org/dc/dcmitype/StillImage"/>
    <dc:date>2024-11-12T22:27:51.792923</dc:date>
    <dc:format>image/svg+xml</dc:format>
    <dc:creator>
     <cc:Agent>
      <dc:title>Matplotlib v3.8.2, https://matplotlib.org/</dc:title>
     </cc:Agent>
    </dc:creator>
   </cc:Work>
  </rdf:RDF>
 </metadata>
 <defs>
  <style type="text/css">*{stroke-linejoin: round; stroke-linecap: butt}</style>
 </defs>
 <g id="figure_1">
  <g id="patch_1">
   <path d="M 0 345.6 
L 460.8 345.6 
L 460.8 0 
L 0 0 
z
" style="fill: #ffffff"/>
  </g>
  <g id="axes_1">
   <g id="patch_2">
    <path d="M 57.6 307.584 
L 414.72 307.584 
L 414.72 41.472 
L 57.6 41.472 
z
" style="fill: #ffffff"/>
   </g>
   <g id="PolyCollection_1">
    <defs>
     <path id="mbf6beb186d" d="M 73.832727 -65.466444 
L 73.832727 -50.112 
L 74.918528 -51.270249 
L 76.00433 -51.69884 
L 77.090131 -52.270607 
L 78.175932 -52.277497 
L 79.261733 -52.828344 
L 80.347534 -52.656843 
L 81.433335 -52.673962 
L 82.519137 -53.184729 
L 83.604938 -53.277252 
L 84.690739 -53.433849 
L 85.77654 -53.300186 
L 86.862341 -53.696418 
L 87.948142 -54.35551 
L 89.033943 -54.196762 
L 90.119745 -54.599197 
L 91.205546 -55.214528 
L 92.291347 -55.893035 
L 93.377148 -56.761085 
L 94.462949 -57.290356 
L 95.54875 -58.165383 
L 96.634552 -59.001147 
L 97.720353 -60.250252 
L 98.806154 -60.882211 
L 99.891955 -61.306243 
L 100.977756 -62.0091 
L 102.063557 -62.786436 
L 103.149358 -63.449687 
L 104.23516 -64.113653 
L 105.320961 -64.779623 
L 106.406762 -65.559868 
L 107.492563 -66.502729 
L 108.578364 -67.013467 
L 109.664165 -67.062715 
L 110.749967 -67.106495 
L 111.835768 -67.311056 
L 112.921569 -67.767057 
L 114.00737 -67.942759 
L 115.093171 -68.133778 
L 116.178972 -67.862155 
L 117.264773 -67.651979 
L 118.350575 -67.819023 
L 119.436376 -67.296975 
L 120.522177 -67.340209 
L 121.607978 -67.448109 
L 122.693779 -67.229581 
L 123.77958 -67.496724 
L 124.865382 -67.794326 
L 125.951183 -67.808669 
L 127.036984 -67.566586 
L 128.122785 -67.334866 
L 129.208586 -67.049594 
L 130.294387 -67.098376 
L 131.380189 -66.247962 
L 132.46599 -65.70248 
L 133.551791 -65.545882 
L 134.637592 -65.187187 
L 135.723393 -64.70066 
L 136.809194 -63.64746 
L 137.894995 -62.988974 
L 138.980797 -61.674368 
L 140.066598 -61.880819 
L 141.152399 -60.97853 
L 142.2382 -61.396207 
L 143.324001 -61.369305 
L 144.409802 -61.912317 
L 145.495604 -62.177956 
L 146.581405 -61.839974 
L 147.667206 -61.947914 
L 148.753007 -61.977946 
L 149.838808 -62.299847 
L 150.924609 -62.123348 
L 152.01041 -61.669968 
L 153.096212 -61.246993 
L 154.182013 -60.591261 
L 155.267814 -59.700813 
L 156.353615 -59.001778 
L 157.439416 -58.104239 
L 158.525217 -57.758249 
L 159.611019 -57.569288 
L 160.69682 -57.470721 
L 161.782621 -57.370022 
L 162.868422 -57.379804 
L 163.954223 -58.199173 
L 165.040024 -58.775246 
L 166.125825 -58.969045 
L 167.211627 -59.340584 
L 168.297428 -59.806527 
L 169.383229 -59.750279 
L 170.46903 -60.260895 
L 171.554831 -60.35909 
L 172.640632 -60.708707 
L 173.726434 -60.866095 
L 174.812235 -61.145219 
L 175.898036 -61.376844 
L 176.983837 -61.948468 
L 178.069638 -61.962284 
L 179.155439 -61.835395 
L 180.24124 -62.327303 
L 181.327042 -62.971985 
L 182.412843 -63.770665 
L 183.498644 -64.182236 
L 184.584445 -64.675869 
L 185.670246 -64.746317 
L 186.756047 -64.634809 
L 187.841849 -65.126572 
L 188.92765 -65.864908 
L 190.013451 -66.790844 
L 191.099252 -67.326935 
L 192.185053 -68.280199 
L 193.270854 -68.568505 
L 194.356656 -69.262368 
L 195.442457 -69.804209 
L 196.528258 -69.660156 
L 197.614059 -70.183909 
L 198.69986 -70.068589 
L 199.785661 -70.697536 
L 200.871462 -71.391272 
L 201.957264 -72.425912 
L 203.043065 -72.562959 
L 204.128866 -73.315808 
L 205.214667 -73.502144 
L 206.300468 -74.130897 
L 207.386269 -74.349742 
L 208.472071 -75.114109 
L 209.557872 -75.947904 
L 210.643673 -76.194268 
L 211.729474 -76.378728 
L 212.815275 -76.621055 
L 213.901076 -77.167552 
L 214.986877 -77.460348 
L 216.072679 -78.043887 
L 217.15848 -78.921767 
L 218.244281 -79.374275 
L 219.330082 -79.418796 
L 220.415883 -79.580568 
L 221.501684 -79.646596 
L 222.587486 -79.637184 
L 223.673287 -79.425772 
L 224.759088 -79.069145 
L 225.844889 -78.960681 
L 226.93069 -78.419949 
L 228.016491 -77.993748 
L 229.102292 -77.658232 
L 230.188094 -77.242563 
L 231.273895 -76.853132 
L 232.359696 -76.987546 
L 233.445497 -76.784069 
L 234.531298 -76.630891 
L 235.617099 -76.26107 
L 236.702901 -75.763189 
L 237.788702 -75.289804 
L 238.874503 -74.953368 
L 239.960304 -74.293693 
L 241.046105 -74.013644 
L 242.131906 -73.737599 
L 243.217708 -72.870554 
L 244.303509 -72.525235 
L 245.38931 -71.710733 
L 246.475111 -71.583433 
L 247.560912 -71.062961 
L 248.646713 -70.448384 
L 249.732514 -70.279053 
L 250.818316 -70.645107 
L 251.904117 -70.35824 
L 252.989918 -69.720298 
L 254.075719 -69.137094 
L 255.16152 -68.469913 
L 256.247321 -67.609398 
L 257.333123 -67.410273 
L 258.418924 -67.10119 
L 259.504725 -67.12153 
L 260.590526 -67.905704 
L 261.676327 -68.351326 
L 262.762128 -69.297748 
L 263.847929 -70.091322 
L 264.933731 -71.314251 
L 266.019532 -72.417382 
L 267.105333 -73.80242 
L 268.191134 -74.569357 
L 269.276935 -76.101341 
L 270.362736 -76.759427 
L 271.448538 -77.833133 
L 272.534339 -78.484071 
L 273.62014 -79.341964 
L 274.705941 -80.352518 
L 275.791742 -81.343068 
L 276.877543 -82.38846 
L 277.963344 -82.864077 
L 279.049146 -83.378327 
L 280.134947 -84.283372 
L 281.220748 -84.99436 
L 282.306549 -86.044367 
L 283.39235 -87.254892 
L 284.478151 -88.167406 
L 285.563953 -89.405209 
L 286.649754 -90.621373 
L 287.735555 -91.868177 
L 288.821356 -93.233614 
L 289.907157 -94.275386 
L 290.992958 -95.785175 
L 292.07876 -97.235728 
L 293.164561 -98.645325 
L 294.250362 -99.826138 
L 295.336163 -101.447097 
L 296.421964 -102.381516 
L 297.507765 -103.574123 
L 298.593566 -104.691407 
L 299.679368 -105.914981 
L 300.765169 -106.879542 
L 301.85097 -107.962322 
L 302.936771 -109.130569 
L 304.022572 -110.337252 
L 305.108373 -111.691538 
L 306.194175 -112.673599 
L 307.279976 -113.993732 
L 308.365777 -115.391098 
L 309.451578 -116.831015 
L 310.537379 -118.006305 
L 311.62318 -119.082929 
L 312.708981 -120.461673 
L 313.794783 -121.372517 
L 314.880584 -122.150374 
L 315.966385 -123.275109 
L 317.052186 -124.416589 
L 318.137987 -125.594256 
L 319.223788 -126.442927 
L 320.30959 -127.547041 
L 321.395391 -128.592307 
L 322.481192 -129.523974 
L 323.566993 -130.357494 
L 324.652794 -130.593863 
L 325.738595 -130.70973 
L 326.824396 -130.955321 
L 327.910198 -130.792153 
L 328.995999 -130.558734 
L 330.0818 -130.425209 
L 331.167601 -130.358339 
L 332.253402 -130.455393 
L 333.339203 -129.915717 
L 334.425005 -129.561367 
L 335.510806 -129.734979 
L 336.596607 -129.692848 
L 337.682408 -129.390662 
L 338.768209 -129.24353 
L 339.85401 -129.10789 
L 340.939811 -129.145152 
L 342.025613 -128.996282 
L 343.111414 -128.965543 
L 344.197215 -128.696947 
L 345.283016 -127.963712 
L 346.368817 -127.809928 
L 347.454618 -127.552871 
L 348.54042 -127.342643 
L 349.626221 -126.957348 
L 350.712022 -126.724769 
L 351.797823 -126.470339 
L 352.883624 -126.117963 
L 353.969425 -125.51776 
L 355.055227 -124.715653 
L 356.141028 -123.720048 
L 357.226829 -123.008766 
L 358.31263 -121.746581 
L 359.398431 -120.235306 
L 360.484232 -119.790518 
L 361.570033 -119.29982 
L 362.655835 -118.787702 
L 363.741636 -118.807001 
L 364.827437 -119.290759 
L 365.913238 -119.670872 
L 366.999039 -119.769476 
L 368.08484 -120.092085 
L 369.170642 -120.345002 
L 370.256443 -121.067099 
L 371.342244 -121.517155 
L 372.428045 -121.430447 
L 373.513846 -121.560583 
L 374.599647 -121.368661 
L 375.685448 -121.521135 
L 376.77125 -121.689677 
L 377.857051 -121.995356 
L 378.942852 -122.051711 
L 380.028653 -121.560959 
L 381.114454 -121.419981 
L 382.200255 -121.340166 
L 383.286057 -121.481074 
L 384.371858 -121.141466 
L 385.457659 -121.129167 
L 386.54346 -120.777738 
L 387.629261 -120.074982 
L 388.715062 -120.176547 
L 389.800863 -120.091714 
L 390.886665 -120.105251 
L 391.972466 -120.291966 
L 393.058267 -120.119341 
L 394.144068 -120.376828 
L 395.229869 -121.095296 
L 396.31567 -121.336846 
L 397.401472 -121.776451 
L 398.487273 -122.548885 
L 398.487273 -276.662499 
L 398.487273 -276.662499 
L 397.401472 -276.02089 
L 396.31567 -275.692154 
L 395.229869 -276.322391 
L 394.144068 -275.993799 
L 393.058267 -276.303792 
L 391.972466 -277.611342 
L 390.886665 -278.593731 
L 389.800863 -279.919853 
L 388.715062 -281.38298 
L 387.629261 -282.684987 
L 386.54346 -284.756001 
L 385.457659 -286.407058 
L 384.371858 -287.406884 
L 383.286057 -288.512329 
L 382.200255 -289.059454 
L 381.114454 -289.770867 
L 380.028653 -290.247935 
L 378.942852 -291.479661 
L 377.857051 -291.993934 
L 376.77125 -291.794204 
L 375.685448 -291.97222 
L 374.599647 -291.880008 
L 373.513846 -292.032 
L 372.428045 -291.828472 
L 371.342244 -291.655814 
L 370.256443 -290.855135 
L 369.170642 -288.97386 
L 368.08484 -287.863801 
L 366.999039 -287.147019 
L 365.913238 -286.778538 
L 364.827437 -285.470456 
L 363.741636 -284.498682 
L 362.655835 -284.194414 
L 361.570033 -284.719412 
L 360.484232 -284.996278 
L 359.398431 -285.14961 
L 358.31263 -286.707403 
L 357.226829 -287.931036 
L 356.141028 -288.061156 
L 355.055227 -288.903463 
L 353.969425 -289.56711 
L 352.883624 -289.814128 
L 351.797823 -289.773597 
L 350.712022 -289.222078 
L 349.626221 -288.746007 
L 348.54042 -288.680895 
L 347.454618 -288.207432 
L 346.368817 -287.941516 
L 345.283016 -287.286391 
L 344.197215 -287.658689 
L 343.111414 -286.907291 
L 342.025613 -285.976808 
L 340.939811 -285.115542 
L 339.85401 -284.129402 
L 338.768209 -283.171089 
L 337.682408 -282.138002 
L 336.596607 -281.330631 
L 335.510806 -280.297578 
L 334.425005 -278.682452 
L 333.339203 -277.884303 
L 332.253402 -277.318609 
L 331.167601 -275.698787 
L 330.0818 -274.311419 
L 328.995999 -273.475333 
L 327.910198 -272.287846 
L 326.824396 -270.733238 
L 325.738595 -268.611512 
L 324.652794 -266.723468 
L 323.566993 -264.731765 
L 322.481192 -262.181393 
L 321.395391 -259.315946 
L 320.30959 -256.412077 
L 319.223788 -253.515542 
L 318.137987 -250.800516 
L 317.052186 -247.817741 
L 315.966385 -245.059623 
L 314.880584 -242.266301 
L 313.794783 -239.931425 
L 312.708981 -237.830249 
L 311.62318 -234.901964 
L 310.537379 -232.685509 
L 309.451578 -230.437715 
L 308.365777 -227.829808 
L 307.279976 -225.586781 
L 306.194175 -223.127872 
L 305.108373 -221.583532 
L 304.022572 -219.666271 
L 302.936771 -217.545091 
L 301.85097 -215.622638 
L 300.765169 -213.999833 
L 299.679368 -212.664605 
L 298.593566 -210.755418 
L 297.507765 -209.21014 
L 296.421964 -207.48469 
L 295.336163 -205.983422 
L 294.250362 -203.772528 
L 293.164561 -201.607618 
L 292.07876 -199.763578 
L 290.992958 -197.993783 
L 289.907157 -195.536899 
L 288.821356 -193.518771 
L 287.735555 -190.820232 
L 286.649754 -188.718048 
L 285.563953 -186.677162 
L 284.478151 -184.454748 
L 283.39235 -182.740319 
L 282.306549 -180.753026 
L 281.220748 -178.748656 
L 280.134947 -176.832599 
L 279.049146 -175.066425 
L 277.963344 -173.579057 
L 276.877543 -172.852994 
L 275.791742 -171.37565 
L 274.705941 -169.923621 
L 273.62014 -168.421451 
L 272.534339 -167.006686 
L 271.448538 -166.063298 
L 270.362736 -164.566138 
L 269.276935 -162.956653 
L 268.191134 -160.762704 
L 267.105333 -159.575634 
L 266.019532 -157.848406 
L 264.933731 -156.215118 
L 263.847929 -154.430227 
L 262.762128 -153.062085 
L 261.676327 -151.564677 
L 260.590526 -150.527009 
L 259.504725 -149.210534 
L 258.418924 -148.626876 
L 257.333123 -148.537578 
L 256.247321 -148.220282 
L 255.16152 -148.938866 
L 254.075719 -148.933077 
L 252.989918 -148.924795 
L 251.904117 -149.137447 
L 250.818316 -149.153666 
L 249.732514 -148.320838 
L 248.646713 -147.583737 
L 247.560912 -147.61102 
L 246.475111 -147.583369 
L 245.38931 -147.1283 
L 244.303509 -147.080942 
L 243.217708 -146.992974 
L 242.131906 -147.168992 
L 241.046105 -146.683312 
L 239.960304 -146.27164 
L 238.874503 -146.612178 
L 237.788702 -146.510399 
L 236.702901 -146.490288 
L 235.617099 -145.906802 
L 234.531298 -145.71307 
L 233.445497 -145.183264 
L 232.359696 -144.815651 
L 231.273895 -144.175087 
L 230.188094 -144.148962 
L 229.102292 -144.014947 
L 228.016491 -143.654677 
L 226.93069 -143.068589 
L 225.844889 -143.228179 
L 224.759088 -142.696201 
L 223.673287 -142.546631 
L 222.587486 -142.524587 
L 221.501684 -142.050163 
L 220.415883 -141.330872 
L 219.330082 -140.440273 
L 218.244281 -139.367032 
L 217.15848 -137.817375 
L 216.072679 -135.925307 
L 214.986877 -134.382705 
L 213.901076 -133.207529 
L 212.815275 -131.608553 
L 211.729474 -130.67243 
L 210.643673 -129.681236 
L 209.557872 -128.79452 
L 208.472071 -127.124863 
L 207.386269 -125.467108 
L 206.300468 -124.996215 
L 205.214667 -124.066654 
L 204.128866 -123.263654 
L 203.043065 -121.356266 
L 201.957264 -120.448687 
L 200.871462 -118.494687 
L 199.785661 -116.86761 
L 198.69986 -115.170511 
L 197.614059 -114.446701 
L 196.528258 -112.969774 
L 195.442457 -112.343824 
L 194.356656 -110.486724 
L 193.270854 -108.490822 
L 192.185053 -107.188972 
L 191.099252 -104.866367 
L 190.013451 -103.386327 
L 188.92765 -101.130123 
L 187.841849 -99.061824 
L 186.756047 -97.511386 
L 185.670246 -96.48113 
L 184.584445 -95.372279 
L 183.498644 -93.767329 
L 182.412843 -92.172388 
L 181.327042 -89.069415 
L 180.24124 -87.231693 
L 179.155439 -85.528259 
L 178.069638 -84.762281 
L 176.983837 -83.887079 
L 175.898036 -82.411904 
L 174.812235 -81.202769 
L 173.726434 -79.967614 
L 172.640632 -79.076405 
L 171.554831 -77.894901 
L 170.46903 -77.057034 
L 169.383229 -75.792485 
L 168.297428 -75.196972 
L 167.211627 -74.090555 
L 166.125825 -73.227109 
L 165.040024 -72.428899 
L 163.954223 -71.45517 
L 162.868422 -70.078498 
L 161.782621 -69.644412 
L 160.69682 -69.43258 
L 159.611019 -69.161909 
L 158.525217 -69.045312 
L 157.439416 -69.093666 
L 156.353615 -69.610566 
L 155.267814 -70.09973 
L 154.182013 -70.703001 
L 153.096212 -71.118883 
L 152.01041 -71.401944 
L 150.924609 -71.581486 
L 149.838808 -71.4814 
L 148.753007 -71.189107 
L 147.667206 -71.177225 
L 146.581405 -71.161289 
L 145.495604 -71.462467 
L 144.409802 -71.330722 
L 143.324001 -71.119526 
L 142.2382 -71.221408 
L 141.152399 -71.14039 
L 140.066598 -71.847513 
L 138.980797 -71.879622 
L 137.894995 -72.890733 
L 136.809194 -73.487413 
L 135.723393 -73.98638 
L 134.637592 -74.452221 
L 133.551791 -74.575922 
L 132.46599 -74.585264 
L 131.380189 -74.923597 
L 130.294387 -75.600429 
L 129.208586 -75.541155 
L 128.122785 -75.757076 
L 127.036984 -75.63956 
L 125.951183 -75.69386 
L 124.865382 -75.67959 
L 123.77958 -75.396054 
L 122.693779 -75.268921 
L 121.607978 -75.189556 
L 120.522177 -74.959246 
L 119.436376 -74.923705 
L 118.350575 -75.277998 
L 117.264773 -75.159012 
L 116.178972 -75.380248 
L 115.093171 -75.672171 
L 114.00737 -75.798821 
L 112.921569 -75.824064 
L 111.835768 -75.865234 
L 110.749967 -76.206769 
L 109.664165 -76.722983 
L 108.578364 -76.984151 
L 107.492563 -76.829149 
L 106.406762 -76.102438 
L 105.320961 -75.624197 
L 104.23516 -75.186516 
L 103.149358 -74.623201 
L 102.063557 -74.146575 
L 100.977756 -73.655262 
L 99.891955 -73.342835 
L 98.806154 -73.040871 
L 97.720353 -72.644261 
L 96.634552 -71.460283 
L 95.54875 -70.659758 
L 94.462949 -69.950429 
L 93.377148 -69.419471 
L 92.291347 -68.493739 
L 91.205546 -67.876705 
L 90.119745 -67.489251 
L 89.033943 -67.300811 
L 87.948142 -67.522723 
L 86.862341 -66.797959 
L 85.77654 -66.285662 
L 84.690739 -66.560777 
L 83.604938 -66.512169 
L 82.519137 -66.694302 
L 81.433335 -66.321284 
L 80.347534 -66.698042 
L 79.261733 -67.032081 
L 78.175932 -66.427785 
L 77.090131 -66.698377 
L 76.00433 -66.54507 
L 74.918528 -66.437806 
L 73.832727 -65.466444 
z
" style="stroke: #ff00ff; stroke-opacity: 0.1"/>
    </defs>
    <g clip-path="url(#p62c28192d5)">
     <use xlink:href="#mbf6beb186d" x="0" y="345.6" style="fill: #ff00ff; fill-opacity: 0.1; stroke: #ff00ff; stroke-opacity: 0.1"/>
    </g>
   </g>
   <g id="matplotlib.axis_1">
    <g id="xtick_1">
     <g id="line2d_1">
      <defs>
       <path id="mefa89e5db2" d="M 0 0 
L 0 3.5 
" style="stroke: #000000; stroke-width: 0.8"/>
      </defs>
      <g>
       <use xlink:href="#mefa89e5db2" x="73.832727" y="307.584" style="stroke: #000000; stroke-width: 0.8"/>
      </g>
     </g>
     <g id="text_1">
      <!-- −5 -->
      <g transform="translate(66.461634 322.182437) scale(0.1 -0.1)">
       <defs>
        <path id="DejaVuSans-2212" d="M 678 2272 
L 4684 2272 
L 4684 1741 
L 678 1741 
L 678 2272 
z
" transform="scale(0.015625)"/>
        <path id="DejaVuSans-35" d="M 691 4666 
L 3169 4666 
L 3169 4134 
L 1269 4134 
L 1269 2991 
Q 1406 3038 1543 3061 
Q 1681 3084 1819 3084 
Q 2600 3084 3056 2656 
Q 3513 2228 3513 1497 
Q 3513 744 3044 326 
Q 2575 -91 1722 -91 
Q 1428 -91 1123 -41 
Q 819 9 494 109 
L 494 744 
Q 775 591 1075 516 
Q 1375 441 1709 441 
Q 2250 441 2565 725 
Q 2881 1009 2881 1497 
Q 2881 1984 2565 2268 
Q 2250 2553 1709 2553 
Q 1456 2553 1204 2497 
Q 953 2441 691 2322 
L 691 4666 
z
" transform="scale(0.015625)"/>
       </defs>
       <use xlink:href="#DejaVuSans-2212"/>
       <use xlink:href="#DejaVuSans-35" x="83.789062"/>
      </g>
     </g>
    </g>
    <g id="xtick_2">
     <g id="line2d_2">
      <g>
       <use xlink:href="#mefa89e5db2" x="95.54875" y="307.584" style="stroke: #000000; stroke-width: 0.8"/>
      </g>
     </g>
     <g id="text_2">
      <!-- −4 -->
      <g transform="translate(88.177657 322.182437) scale(0.1 -0.1)">
       <defs>
        <path id="DejaVuSans-34" d="M 2419 4116 
L 825 1625 
L 2419 1625 
L 2419 4116 
z
M 2253 4666 
L 3047 4666 
L 3047 1625 
L 3713 1625 
L 3713 1100 
L 3047 1100 
L 3047 0 
L 2419 0 
L 2419 1100 
L 313 1100 
L 313 1709 
L 2253 4666 
z
" transform="scale(0.015625)"/>
       </defs>
       <use xlink:href="#DejaVuSans-2212"/>
       <use xlink:href="#DejaVuSans-34" x="83.789062"/>
      </g>
     </g>
    </g>
    <g id="xtick_3">
     <g id="line2d_3">
      <g>
       <use xlink:href="#mefa89e5db2" x="117.264773" y="307.584" style="stroke: #000000; stroke-width: 0.8"/>
      </g>
     </g>
     <g id="text_3">
      <!-- −3 -->
      <g transform="translate(109.89368 322.182437) scale(0.1 -0.1)">
       <defs>
        <path id="DejaVuSans-33" d="M 2597 2516 
Q 3050 2419 3304 2112 
Q 3559 1806 3559 1356 
Q 3559 666 3084 287 
Q 2609 -91 1734 -91 
Q 1441 -91 1130 -33 
Q 819 25 488 141 
L 488 750 
Q 750 597 1062 519 
Q 1375 441 1716 441 
Q 2309 441 2620 675 
Q 2931 909 2931 1356 
Q 2931 1769 2642 2001 
Q 2353 2234 1838 2234 
L 1294 2234 
L 1294 2753 
L 1863 2753 
Q 2328 2753 2575 2939 
Q 2822 3125 2822 3475 
Q 2822 3834 2567 4026 
Q 2313 4219 1838 4219 
Q 1578 4219 1281 4162 
Q 984 4106 628 3988 
L 628 4550 
Q 988 4650 1302 4700 
Q 1616 4750 1894 4750 
Q 2613 4750 3031 4423 
Q 3450 4097 3450 3541 
Q 3450 3153 3228 2886 
Q 3006 2619 2597 2516 
z
" transform="scale(0.015625)"/>
       </defs>
       <use xlink:href="#DejaVuSans-2212"/>
       <use xlink:href="#DejaVuSans-33" x="83.789062"/>
      </g>
     </g>
    </g>
    <g id="xtick_4">
     <g id="line2d_4">
      <g>
       <use xlink:href="#mefa89e5db2" x="138.980797" y="307.584" style="stroke: #000000; stroke-width: 0.8"/>
      </g>
     </g>
     <g id="text_4">
      <!-- −2 -->
      <g transform="translate(131.609703 322.182437) scale(0.1 -0.1)">
       <defs>
        <path id="DejaVuSans-32" d="M 1228 531 
L 3431 531 
L 3431 0 
L 469 0 
L 469 531 
Q 828 903 1448 1529 
Q 2069 2156 2228 2338 
Q 2531 2678 2651 2914 
Q 2772 3150 2772 3378 
Q 2772 3750 2511 3984 
Q 2250 4219 1831 4219 
Q 1534 4219 1204 4116 
Q 875 4013 500 3803 
L 500 4441 
Q 881 4594 1212 4672 
Q 1544 4750 1819 4750 
Q 2544 4750 2975 4387 
Q 3406 4025 3406 3419 
Q 3406 3131 3298 2873 
Q 3191 2616 2906 2266 
Q 2828 2175 2409 1742 
Q 1991 1309 1228 531 
z
" transform="scale(0.015625)"/>
       </defs>
       <use xlink:href="#DejaVuSans-2212"/>
       <use xlink:href="#DejaVuSans-32" x="83.789062"/>
      </g>
     </g>
    </g>
    <g id="xtick_5">
     <g id="line2d_5">
      <g>
       <use xlink:href="#mefa89e5db2" x="160.69682" y="307.584" style="stroke: #000000; stroke-width: 0.8"/>
      </g>
     </g>
     <g id="text_5">
      <!-- −1 -->
      <g transform="translate(153.325726 322.182437) scale(0.1 -0.1)">
       <defs>
        <path id="DejaVuSans-31" d="M 794 531 
L 1825 531 
L 1825 4091 
L 703 3866 
L 703 4441 
L 1819 4666 
L 2450 4666 
L 2450 531 
L 3481 531 
L 3481 0 
L 794 0 
L 794 531 
z
" transform="scale(0.015625)"/>
       </defs>
       <use xlink:href="#DejaVuSans-2212"/>
       <use xlink:href="#DejaVuSans-31" x="83.789062"/>
      </g>
     </g>
    </g>
    <g id="xtick_6">
     <g id="line2d_6">
      <g>
       <use xlink:href="#mefa89e5db2" x="182.412843" y="307.584" style="stroke: #000000; stroke-width: 0.8"/>
      </g>
     </g>
     <g id="text_6">
      <!-- 0 -->
      <g transform="translate(179.231593 322.182437) scale(0.1 -0.1)">
       <defs>
        <path id="DejaVuSans-30" d="M 2034 4250 
Q 1547 4250 1301 3770 
Q 1056 3291 1056 2328 
Q 1056 1369 1301 889 
Q 1547 409 2034 409 
Q 2525 409 2770 889 
Q 3016 1369 3016 2328 
Q 3016 3291 2770 3770 
Q 2525 4250 2034 4250 
z
M 2034 4750 
Q 2819 4750 3233 4129 
Q 3647 3509 3647 2328 
Q 3647 1150 3233 529 
Q 2819 -91 2034 -91 
Q 1250 -91 836 529 
Q 422 1150 422 2328 
Q 422 3509 836 4129 
Q 1250 4750 2034 4750 
z
" transform="scale(0.015625)"/>
       </defs>
       <use xlink:href="#DejaVuSans-30"/>
      </g>
     </g>
    </g>
    <g id="xtick_7">
     <g id="line2d_7">
      <g>
       <use xlink:href="#mefa89e5db2" x="204.128866" y="307.584" style="stroke: #000000; stroke-width: 0.8"/>
      </g>
     </g>
     <g id="text_7">
      <!-- 1 -->
      <g transform="translate(200.947616 322.182437) scale(0.1 -0.1)">
       <use xlink:href="#DejaVuSans-31"/>
      </g>
     </g>
    </g>
    <g id="xtick_8">
     <g id="line2d_8">
      <g>
       <use xlink:href="#mefa89e5db2" x="225.844889" y="307.584" style="stroke: #000000; stroke-width: 0.8"/>
      </g>
     </g>
     <g id="text_8">
      <!-- 2 -->
      <g transform="translate(222.663639 322.182437) scale(0.1 -0.1)">
       <use xlink:href="#DejaVuSans-32"/>
      </g>
     </g>
    </g>
    <g id="xtick_9">
     <g id="line2d_9">
      <g>
       <use xlink:href="#mefa89e5db2" x="247.560912" y="307.584" style="stroke: #000000; stroke-width: 0.8"/>
      </g>
     </g>
     <g id="text_9">
      <!-- 3 -->
      <g transform="translate(244.379662 322.182437) scale(0.1 -0.1)">
       <use xlink:href="#DejaVuSans-33"/>
      </g>
     </g>
    </g>
    <g id="xtick_10">
     <g id="line2d_10">
      <g>
       <use xlink:href="#mefa89e5db2" x="269.276935" y="307.584" style="stroke: #000000; stroke-width: 0.8"/>
      </g>
     </g>
     <g id="text_10">
      <!-- 4 -->
      <g transform="translate(266.095685 322.182437) scale(0.1 -0.1)">
       <use xlink:href="#DejaVuSans-34"/>
      </g>
     </g>
    </g>
    <g id="xtick_11">
     <g id="line2d_11">
      <g>
       <use xlink:href="#mefa89e5db2" x="290.992958" y="307.584" style="stroke: #000000; stroke-width: 0.8"/>
      </g>
     </g>
     <g id="text_11">
      <!-- 5 -->
      <g transform="translate(287.811708 322.182437) scale(0.1 -0.1)">
       <use xlink:href="#DejaVuSans-35"/>
      </g>
     </g>
    </g>
    <g id="xtick_12">
     <g id="line2d_12">
      <g>
       <use xlink:href="#mefa89e5db2" x="312.708981" y="307.584" style="stroke: #000000; stroke-width: 0.8"/>
      </g>
     </g>
     <g id="text_12">
      <!-- 6 -->
      <g transform="translate(309.527731 322.182437) scale(0.1 -0.1)">
       <defs>
        <path id="DejaVuSans-36" d="M 2113 2584 
Q 1688 2584 1439 2293 
Q 1191 2003 1191 1497 
Q 1191 994 1439 701 
Q 1688 409 2113 409 
Q 2538 409 2786 701 
Q 3034 994 3034 1497 
Q 3034 2003 2786 2293 
Q 2538 2584 2113 2584 
z
M 3366 4563 
L 3366 3988 
Q 3128 4100 2886 4159 
Q 2644 4219 2406 4219 
Q 1781 4219 1451 3797 
Q 1122 3375 1075 2522 
Q 1259 2794 1537 2939 
Q 1816 3084 2150 3084 
Q 2853 3084 3261 2657 
Q 3669 2231 3669 1497 
Q 3669 778 3244 343 
Q 2819 -91 2113 -91 
Q 1303 -91 875 529 
Q 447 1150 447 2328 
Q 447 3434 972 4092 
Q 1497 4750 2381 4750 
Q 2619 4750 2861 4703 
Q 3103 4656 3366 4563 
z
" transform="scale(0.015625)"/>
       </defs>
       <use xlink:href="#DejaVuSans-36"/>
      </g>
     </g>
    </g>
    <g id="xtick_13">
     <g id="line2d_13">
      <g>
       <use xlink:href="#mefa89e5db2" x="334.425005" y="307.584" style="stroke: #000000; stroke-width: 0.8"/>
      </g>
     </g>
     <g id="text_13">
      <!-- 7 -->
      <g transform="translate(331.243755 322.182437) scale(0.1 -0.1)">
       <defs>
        <path id="DejaVuSans-37" d="M 525 4666 
L 3525 4666 
L 3525 4397 
L 1831 0 
L 1172 0 
L 2766 4134 
L 525 4134 
L 525 4666 
z
" transform="scale(0.015625)"/>
       </defs>
       <use xlink:href="#DejaVuSans-37"/>
      </g>
     </g>
    </g>
    <g id="xtick_14">
     <g id="line2d_14">
      <g>
       <use xlink:href="#mefa89e5db2" x="356.141028" y="307.584" style="stroke: #000000; stroke-width: 0.8"/>
      </g>
     </g>
     <g id="text_14">
      <!-- 8 -->
      <g transform="translate(352.959778 322.182437) scale(0.1 -0.1)">
       <defs>
        <path id="DejaVuSans-38" d="M 2034 2216 
Q 1584 2216 1326 1975 
Q 1069 1734 1069 1313 
Q 1069 891 1326 650 
Q 1584 409 2034 409 
Q 2484 409 2743 651 
Q 3003 894 3003 1313 
Q 3003 1734 2745 1975 
Q 2488 2216 2034 2216 
z
M 1403 2484 
Q 997 2584 770 2862 
Q 544 3141 544 3541 
Q 544 4100 942 4425 
Q 1341 4750 2034 4750 
Q 2731 4750 3128 4425 
Q 3525 4100 3525 3541 
Q 3525 3141 3298 2862 
Q 3072 2584 2669 2484 
Q 3125 2378 3379 2068 
Q 3634 1759 3634 1313 
Q 3634 634 3220 271 
Q 2806 -91 2034 -91 
Q 1263 -91 848 271 
Q 434 634 434 1313 
Q 434 1759 690 2068 
Q 947 2378 1403 2484 
z
M 1172 3481 
Q 1172 3119 1398 2916 
Q 1625 2713 2034 2713 
Q 2441 2713 2670 2916 
Q 2900 3119 2900 3481 
Q 2900 3844 2670 4047 
Q 2441 4250 2034 4250 
Q 1625 4250 1398 4047 
Q 1172 3844 1172 3481 
z
" transform="scale(0.015625)"/>
       </defs>
       <use xlink:href="#DejaVuSans-38"/>
      </g>
     </g>
    </g>
    <g id="xtick_15">
     <g id="line2d_15">
      <g>
       <use xlink:href="#mefa89e5db2" x="377.857051" y="307.584" style="stroke: #000000; stroke-width: 0.8"/>
      </g>
     </g>
     <g id="text_15">
      <!-- 9 -->
      <g transform="translate(374.675801 322.182437) scale(0.1 -0.1)">
       <defs>
        <path id="DejaVuSans-39" d="M 703 97 
L 703 672 
Q 941 559 1184 500 
Q 1428 441 1663 441 
Q 2288 441 2617 861 
Q 2947 1281 2994 2138 
Q 2813 1869 2534 1725 
Q 2256 1581 1919 1581 
Q 1219 1581 811 2004 
Q 403 2428 403 3163 
Q 403 3881 828 4315 
Q 1253 4750 1959 4750 
Q 2769 4750 3195 4129 
Q 3622 3509 3622 2328 
Q 3622 1225 3098 567 
Q 2575 -91 1691 -91 
Q 1453 -91 1209 -44 
Q 966 3 703 97 
z
M 1959 2075 
Q 2384 2075 2632 2365 
Q 2881 2656 2881 3163 
Q 2881 3666 2632 3958 
Q 2384 4250 1959 4250 
Q 1534 4250 1286 3958 
Q 1038 3666 1038 3163 
Q 1038 2656 1286 2365 
Q 1534 2075 1959 2075 
z
" transform="scale(0.015625)"/>
       </defs>
       <use xlink:href="#DejaVuSans-39"/>
      </g>
     </g>
    </g>
    <g id="xtick_16">
     <g id="line2d_16">
      <g>
       <use xlink:href="#mefa89e5db2" x="399.573074" y="307.584" style="stroke: #000000; stroke-width: 0.8"/>
      </g>
     </g>
     <g id="text_16">
      <!-- 10 -->
      <g transform="translate(393.210574 322.182437) scale(0.1 -0.1)">
       <use xlink:href="#DejaVuSans-31"/>
       <use xlink:href="#DejaVuSans-30" x="63.623047"/>
      </g>
     </g>
    </g>
    <g id="text_17">
     <!-- Time (s) -->
     <g transform="translate(215.831094 335.860562) scale(0.1 -0.1)">
      <defs>
       <path id="DejaVuSans-54" d="M -19 4666 
L 3928 4666 
L 3928 4134 
L 2272 4134 
L 2272 0 
L 1638 0 
L 1638 4134 
L -19 4134 
L -19 4666 
z
" transform="scale(0.015625)"/>
       <path id="DejaVuSans-69" d="M 603 3500 
L 1178 3500 
L 1178 0 
L 603 0 
L 603 3500 
z
M 603 4863 
L 1178 4863 
L 1178 4134 
L 603 4134 
L 603 4863 
z
" transform="scale(0.015625)"/>
       <path id="DejaVuSans-6d" d="M 3328 2828 
Q 3544 3216 3844 3400 
Q 4144 3584 4550 3584 
Q 5097 3584 5394 3201 
Q 5691 2819 5691 2113 
L 5691 0 
L 5113 0 
L 5113 2094 
Q 5113 2597 4934 2840 
Q 4756 3084 4391 3084 
Q 3944 3084 3684 2787 
Q 3425 2491 3425 1978 
L 3425 0 
L 2847 0 
L 2847 2094 
Q 2847 2600 2669 2842 
Q 2491 3084 2119 3084 
Q 1678 3084 1418 2786 
Q 1159 2488 1159 1978 
L 1159 0 
L 581 0 
L 581 3500 
L 1159 3500 
L 1159 2956 
Q 1356 3278 1631 3431 
Q 1906 3584 2284 3584 
Q 2666 3584 2933 3390 
Q 3200 3197 3328 2828 
z
" transform="scale(0.015625)"/>
       <path id="DejaVuSans-65" d="M 3597 1894 
L 3597 1613 
L 953 1613 
Q 991 1019 1311 708 
Q 1631 397 2203 397 
Q 2534 397 2845 478 
Q 3156 559 3463 722 
L 3463 178 
Q 3153 47 2828 -22 
Q 2503 -91 2169 -91 
Q 1331 -91 842 396 
Q 353 884 353 1716 
Q 353 2575 817 3079 
Q 1281 3584 2069 3584 
Q 2775 3584 3186 3129 
Q 3597 2675 3597 1894 
z
M 3022 2063 
Q 3016 2534 2758 2815 
Q 2500 3097 2075 3097 
Q 1594 3097 1305 2825 
Q 1016 2553 972 2059 
L 3022 2063 
z
" transform="scale(0.015625)"/>
       <path id="DejaVuSans-20" transform="scale(0.015625)"/>
       <path id="DejaVuSans-28" d="M 1984 4856 
Q 1566 4138 1362 3434 
Q 1159 2731 1159 2009 
Q 1159 1288 1364 580 
Q 1569 -128 1984 -844 
L 1484 -844 
Q 1016 -109 783 600 
Q 550 1309 550 2009 
Q 550 2706 781 3412 
Q 1013 4119 1484 4856 
L 1984 4856 
z
" transform="scale(0.015625)"/>
       <path id="DejaVuSans-73" d="M 2834 3397 
L 2834 2853 
Q 2591 2978 2328 3040 
Q 2066 3103 1784 3103 
Q 1356 3103 1142 2972 
Q 928 2841 928 2578 
Q 928 2378 1081 2264 
Q 1234 2150 1697 2047 
L 1894 2003 
Q 2506 1872 2764 1633 
Q 3022 1394 3022 966 
Q 3022 478 2636 193 
Q 2250 -91 1575 -91 
Q 1294 -91 989 -36 
Q 684 19 347 128 
L 347 722 
Q 666 556 975 473 
Q 1284 391 1588 391 
Q 1994 391 2212 530 
Q 2431 669 2431 922 
Q 2431 1156 2273 1281 
Q 2116 1406 1581 1522 
L 1381 1569 
Q 847 1681 609 1914 
Q 372 2147 372 2553 
Q 372 3047 722 3315 
Q 1072 3584 1716 3584 
Q 2034 3584 2315 3537 
Q 2597 3491 2834 3397 
z
" transform="scale(0.015625)"/>
       <path id="DejaVuSans-29" d="M 513 4856 
L 1013 4856 
Q 1481 4119 1714 3412 
Q 1947 2706 1947 2009 
Q 1947 1309 1714 600 
Q 1481 -109 1013 -844 
L 513 -844 
Q 928 -128 1133 580 
Q 1338 1288 1338 2009 
Q 1338 2731 1133 3434 
Q 928 4138 513 4856 
z
" transform="scale(0.015625)"/>
      </defs>
      <use xlink:href="#DejaVuSans-54"/>
      <use xlink:href="#DejaVuSans-69" x="57.958984"/>
      <use xlink:href="#DejaVuSans-6d" x="85.742188"/>
      <use xlink:href="#DejaVuSans-65" x="183.154297"/>
      <use xlink:href="#DejaVuSans-20" x="244.677734"/>
      <use xlink:href="#DejaVuSans-28" x="276.464844"/>
      <use xlink:href="#DejaVuSans-73" x="315.478516"/>
      <use xlink:href="#DejaVuSans-29" x="367.578125"/>
     </g>
    </g>
   </g>
   <g id="matplotlib.axis_2">
    <g id="ytick_1">
     <g id="line2d_17">
      <defs>
       <path id="mcb000b1f5e" d="M 0 0 
L -3.5 0 
" style="stroke: #000000; stroke-width: 0.8"/>
      </defs>
      <g>
       <use xlink:href="#mcb000b1f5e" x="57.6" y="278.477255" style="stroke: #000000; stroke-width: 0.8"/>
      </g>
     </g>
     <g id="text_18">
      <!-- 0 -->
      <g transform="translate(44.2375 282.276473) scale(0.1 -0.1)">
       <use xlink:href="#DejaVuSans-30"/>
      </g>
     </g>
    </g>
    <g id="ytick_2">
     <g id="line2d_18">
      <g>
       <use xlink:href="#mcb000b1f5e" x="57.6" y="222.563752" style="stroke: #000000; stroke-width: 0.8"/>
      </g>
     </g>
     <g id="text_19">
      <!-- 2 -->
      <g transform="translate(44.2375 226.362971) scale(0.1 -0.1)">
       <use xlink:href="#DejaVuSans-32"/>
      </g>
     </g>
    </g>
    <g id="ytick_3">
     <g id="line2d_19">
      <g>
       <use xlink:href="#mcb000b1f5e" x="57.6" y="166.65025" style="stroke: #000000; stroke-width: 0.8"/>
      </g>
     </g>
     <g id="text_20">
      <!-- 4 -->
      <g transform="translate(44.2375 170.449468) scale(0.1 -0.1)">
       <use xlink:href="#DejaVuSans-34"/>
      </g>
     </g>
    </g>
    <g id="ytick_4">
     <g id="line2d_20">
      <g>
       <use xlink:href="#mcb000b1f5e" x="57.6" y="110.736747" style="stroke: #000000; stroke-width: 0.8"/>
      </g>
     </g>
     <g id="text_21">
      <!-- 6 -->
      <g transform="translate(44.2375 114.535966) scale(0.1 -0.1)">
       <use xlink:href="#DejaVuSans-36"/>
      </g>
     </g>
    </g>
    <g id="ytick_5">
     <g id="line2d_21">
      <g>
       <use xlink:href="#mcb000b1f5e" x="57.6" y="54.823245" style="stroke: #000000; stroke-width: 0.8"/>
      </g>
     </g>
     <g id="text_22">
      <!-- 8 -->
      <g transform="translate(44.2375 58.622463) scale(0.1 -0.1)">
       <use xlink:href="#DejaVuSans-38"/>
      </g>
     </g>
    </g>
    <g id="text_23">
     <!-- Z-Score -->
     <g transform="translate(38.157812 193.67175) rotate(-90) scale(0.1 -0.1)">
      <defs>
       <path id="DejaVuSans-5a" d="M 359 4666 
L 4025 4666 
L 4025 4184 
L 1075 531 
L 4097 531 
L 4097 0 
L 288 0 
L 288 481 
L 3238 4134 
L 359 4134 
L 359 4666 
z
" transform="scale(0.015625)"/>
       <path id="DejaVuSans-2d" d="M 313 2009 
L 1997 2009 
L 1997 1497 
L 313 1497 
L 313 2009 
z
" transform="scale(0.015625)"/>
       <path id="DejaVuSans-53" d="M 3425 4513 
L 3425 3897 
Q 3066 4069 2747 4153 
Q 2428 4238 2131 4238 
Q 1616 4238 1336 4038 
Q 1056 3838 1056 3469 
Q 1056 3159 1242 3001 
Q 1428 2844 1947 2747 
L 2328 2669 
Q 3034 2534 3370 2195 
Q 3706 1856 3706 1288 
Q 3706 609 3251 259 
Q 2797 -91 1919 -91 
Q 1588 -91 1214 -16 
Q 841 59 441 206 
L 441 856 
Q 825 641 1194 531 
Q 1563 422 1919 422 
Q 2459 422 2753 634 
Q 3047 847 3047 1241 
Q 3047 1584 2836 1778 
Q 2625 1972 2144 2069 
L 1759 2144 
Q 1053 2284 737 2584 
Q 422 2884 422 3419 
Q 422 4038 858 4394 
Q 1294 4750 2059 4750 
Q 2388 4750 2728 4690 
Q 3069 4631 3425 4513 
z
" transform="scale(0.015625)"/>
       <path id="DejaVuSans-63" d="M 3122 3366 
L 3122 2828 
Q 2878 2963 2633 3030 
Q 2388 3097 2138 3097 
Q 1578 3097 1268 2742 
Q 959 2388 959 1747 
Q 959 1106 1268 751 
Q 1578 397 2138 397 
Q 2388 397 2633 464 
Q 2878 531 3122 666 
L 3122 134 
Q 2881 22 2623 -34 
Q 2366 -91 2075 -91 
Q 1284 -91 818 406 
Q 353 903 353 1747 
Q 353 2603 823 3093 
Q 1294 3584 2113 3584 
Q 2378 3584 2631 3529 
Q 2884 3475 3122 3366 
z
" transform="scale(0.015625)"/>
       <path id="DejaVuSans-6f" d="M 1959 3097 
Q 1497 3097 1228 2736 
Q 959 2375 959 1747 
Q 959 1119 1226 758 
Q 1494 397 1959 397 
Q 2419 397 2687 759 
Q 2956 1122 2956 1747 
Q 2956 2369 2687 2733 
Q 2419 3097 1959 3097 
z
M 1959 3584 
Q 2709 3584 3137 3096 
Q 3566 2609 3566 1747 
Q 3566 888 3137 398 
Q 2709 -91 1959 -91 
Q 1206 -91 779 398 
Q 353 888 353 1747 
Q 353 2609 779 3096 
Q 1206 3584 1959 3584 
z
" transform="scale(0.015625)"/>
       <path id="DejaVuSans-72" d="M 2631 2963 
Q 2534 3019 2420 3045 
Q 2306 3072 2169 3072 
Q 1681 3072 1420 2755 
Q 1159 2438 1159 1844 
L 1159 0 
L 581 0 
L 581 3500 
L 1159 3500 
L 1159 2956 
Q 1341 3275 1631 3429 
Q 1922 3584 2338 3584 
Q 2397 3584 2469 3576 
Q 2541 3569 2628 3553 
L 2631 2963 
z
" transform="scale(0.015625)"/>
      </defs>
      <use xlink:href="#DejaVuSans-5a"/>
      <use xlink:href="#DejaVuSans-2d" x="66.755859"/>
      <use xlink:href="#DejaVuSans-53" x="102.839844"/>
      <use xlink:href="#DejaVuSans-63" x="166.316406"/>
      <use xlink:href="#DejaVuSans-6f" x="221.296875"/>
      <use xlink:href="#DejaVuSans-72" x="282.478516"/>
      <use xlink:href="#DejaVuSans-65" x="321.341797"/>
     </g>
    </g>
   </g>
   <g id="line2d_22">
    <path d="M 73.832727 287.810778 
L 74.918528 286.745973 
L 77.090131 286.115508 
L 78.175932 286.247359 
L 79.261733 285.669788 
L 81.433335 286.102377 
L 82.519137 285.660484 
L 83.604938 285.70529 
L 84.690739 285.602687 
L 85.77654 285.807076 
L 86.862341 285.352812 
L 87.948142 284.660884 
L 89.033943 284.851213 
L 90.119745 284.555776 
L 91.205546 284.054384 
L 92.291347 283.406613 
L 93.377148 282.509722 
L 94.462949 281.979608 
L 96.634552 280.369285 
L 97.720353 279.152744 
L 98.806154 278.638459 
L 99.891955 278.275461 
L 100.977756 277.767819 
L 104.23516 275.949915 
L 106.406762 274.768847 
L 107.492563 273.934061 
L 108.578364 273.601191 
L 109.664165 273.707151 
L 110.749967 273.943368 
L 111.835768 274.011855 
L 112.921569 273.804439 
L 115.093171 273.697025 
L 117.264773 274.194504 
L 118.350575 274.051489 
L 119.436376 274.48966 
L 120.522177 274.450273 
L 121.607978 274.281168 
L 122.693779 274.350749 
L 125.951183 273.848736 
L 129.208586 274.304625 
L 130.294387 274.250598 
L 131.380189 275.014221 
L 132.46599 275.456128 
L 133.551791 275.539098 
L 134.637592 275.780296 
L 135.723393 276.25648 
L 136.809194 277.032563 
L 137.894995 277.660147 
L 138.980797 278.823005 
L 140.066598 278.735834 
L 141.152399 279.54054 
L 142.2382 279.291193 
L 143.324001 279.355584 
L 144.409802 278.97848 
L 145.495604 278.779789 
L 146.581405 279.099368 
L 148.753007 279.016473 
L 149.838808 278.709377 
L 150.924609 278.747583 
L 153.096212 279.417062 
L 154.182013 279.952869 
L 155.267814 280.699728 
L 157.439416 282.001048 
L 158.525217 282.198219 
L 159.611019 282.234401 
L 162.868422 281.870849 
L 163.954223 280.772828 
L 165.040024 279.997928 
L 167.211627 278.88443 
L 168.297428 278.09825 
L 169.383229 277.828618 
L 170.46903 276.941036 
L 171.554831 276.473004 
L 172.640632 275.707444 
L 173.726434 275.183146 
L 175.898036 273.705626 
L 176.983837 272.682226 
L 178.069638 272.237718 
L 179.155439 271.918173 
L 181.327042 269.5793 
L 182.412843 267.628473 
L 184.584445 265.575926 
L 185.670246 264.986276 
L 186.756047 264.526902 
L 187.841849 263.505802 
L 188.92765 262.102485 
L 190.013451 260.511414 
L 191.099252 259.503349 
L 192.185053 257.865414 
L 193.270854 257.070337 
L 195.442457 254.525983 
L 196.528258 254.285035 
L 197.614059 253.284695 
L 198.69986 252.98045 
L 200.871462 250.65702 
L 201.957264 249.162701 
L 203.043065 248.640387 
L 204.128866 247.310269 
L 205.214667 246.815601 
L 206.300468 246.036444 
L 207.386269 245.691575 
L 209.557872 243.228788 
L 212.815275 241.485196 
L 213.901076 240.41246 
L 214.986877 239.678474 
L 216.072679 238.615403 
L 217.15848 237.230429 
L 218.244281 236.229346 
L 220.415883 235.14428 
L 221.501684 234.75162 
L 222.587486 234.519114 
L 224.759088 234.717327 
L 225.844889 234.50557 
L 226.93069 234.855731 
L 229.102292 234.76341 
L 231.273895 235.08589 
L 232.359696 234.698402 
L 236.702901 234.473261 
L 238.874503 234.817227 
L 239.960304 235.317334 
L 242.131906 235.146705 
L 243.217708 235.668236 
L 244.303509 235.796911 
L 245.38931 236.180483 
L 246.475111 236.016599 
L 248.646713 236.58394 
L 249.732514 236.300054 
L 250.818316 235.700613 
L 251.904117 235.852156 
L 252.989918 236.277453 
L 255.16152 236.89561 
L 256.247321 237.68516 
L 257.333123 237.626074 
L 258.418924 237.735967 
L 259.504725 237.433968 
L 260.590526 236.383644 
L 261.676327 235.641999 
L 264.933731 231.835316 
L 266.019532 230.467106 
L 267.105333 228.910973 
L 268.191134 227.93397 
L 269.276935 226.071003 
L 271.448538 223.651784 
L 272.534339 222.854622 
L 274.705941 220.46193 
L 276.877543 217.979273 
L 277.963344 217.378433 
L 279.049146 216.377624 
L 282.306549 212.201303 
L 283.39235 210.602394 
L 284.478151 209.288923 
L 295.336163 191.88474 
L 296.421964 190.666897 
L 299.679368 186.310207 
L 300.765169 185.160313 
L 301.85097 183.80752 
L 304.022572 180.598239 
L 305.108373 178.962465 
L 306.194175 177.699264 
L 310.537379 170.254093 
L 311.62318 168.607554 
L 312.708981 166.454039 
L 314.880584 163.391663 
L 322.481192 149.747316 
L 323.566993 148.05537 
L 326.824396 144.755721 
L 327.910198 144.060001 
L 328.995999 143.582966 
L 330.0818 143.231686 
L 331.167601 142.571437 
L 332.253402 141.712999 
L 333.339203 141.69999 
L 334.425005 141.478091 
L 335.510806 140.583722 
L 336.596607 140.08826 
L 337.682408 139.835668 
L 343.111414 137.663583 
L 344.197215 137.422182 
L 345.283016 137.974949 
L 346.368817 137.724278 
L 347.454618 137.719848 
L 348.54042 137.588231 
L 349.626221 137.748322 
L 351.797823 137.478032 
L 352.883624 137.633954 
L 353.969425 138.057565 
L 355.055227 138.790442 
L 356.141028 139.709398 
L 357.226829 140.130099 
L 358.31263 141.373008 
L 359.398431 142.907542 
L 361.570033 143.590384 
L 362.655835 144.108942 
L 363.741636 143.947158 
L 365.913238 142.375295 
L 366.999039 142.141753 
L 368.08484 141.622057 
L 369.170642 140.940569 
L 370.256443 139.638883 
L 371.342244 139.013515 
L 372.428045 138.970541 
L 373.513846 138.803708 
L 374.599647 138.975666 
L 375.685448 138.853322 
L 376.77125 138.858059 
L 377.857051 138.605355 
L 378.942852 138.834314 
L 380.028653 139.695553 
L 383.286057 140.603298 
L 384.371858 141.325825 
L 385.457659 141.831888 
L 386.54346 142.83313 
L 387.629261 144.220016 
L 388.715062 144.820236 
L 390.886665 146.250509 
L 391.972466 146.648346 
L 393.058267 147.388434 
L 394.144068 147.414687 
L 395.229869 146.891157 
L 396.31567 147.0855 
L 397.401472 146.701329 
L 398.487273 145.994308 
L 398.487273 145.994308 
" clip-path="url(#p62c28192d5)" style="fill: none; stroke: #ff00ff; stroke-width: 1.5; stroke-linecap: square"/>
   </g>
   <g id="line2d_23">
    <path d="M 182.412843 307.584 
L 182.412843 41.472 
" clip-path="url(#p62c28192d5)" style="fill: none; stroke: #000000; stroke-width: 1.5; stroke-linecap: square"/>
   </g>
   <g id="patch_3">
    <path d="M 57.6 307.584 
L 57.6 41.472 
" style="fill: none; stroke: #000000; stroke-width: 0.8; stroke-linejoin: miter; stroke-linecap: square"/>
   </g>
   <g id="patch_4">
    <path d="M 414.72 307.584 
L 414.72 41.472 
" style="fill: none; stroke: #000000; stroke-width: 0.8; stroke-linejoin: miter; stroke-linecap: square"/>
   </g>
   <g id="patch_5">
    <path d="M 57.6 307.584 
L 414.72 307.584 
" style="fill: none; stroke: #000000; stroke-width: 0.8; stroke-linejoin: miter; stroke-linecap: square"/>
   </g>
   <g id="patch_6">
    <path d="M 57.6 41.472 
L 414.72 41.472 
" style="fill: none; stroke: #000000; stroke-width: 0.8; stroke-linejoin: miter; stroke-linecap: square"/>
   </g>
   <g id="text_24">
    <!-- Group 2_p=0.096 -->
    <g transform="translate(183.158437 35.472) scale(0.12 -0.12)">
     <defs>
      <path id="DejaVuSans-47" d="M 3809 666 
L 3809 1919 
L 2778 1919 
L 2778 2438 
L 4434 2438 
L 4434 434 
Q 4069 175 3628 42 
Q 3188 -91 2688 -91 
Q 1594 -91 976 548 
Q 359 1188 359 2328 
Q 359 3472 976 4111 
Q 1594 4750 2688 4750 
Q 3144 4750 3555 4637 
Q 3966 4525 4313 4306 
L 4313 3634 
Q 3963 3931 3569 4081 
Q 3175 4231 2741 4231 
Q 1884 4231 1454 3753 
Q 1025 3275 1025 2328 
Q 1025 1384 1454 906 
Q 1884 428 2741 428 
Q 3075 428 3337 486 
Q 3600 544 3809 666 
z
" transform="scale(0.015625)"/>
      <path id="DejaVuSans-75" d="M 544 1381 
L 544 3500 
L 1119 3500 
L 1119 1403 
Q 1119 906 1312 657 
Q 1506 409 1894 409 
Q 2359 409 2629 706 
Q 2900 1003 2900 1516 
L 2900 3500 
L 3475 3500 
L 3475 0 
L 2900 0 
L 2900 538 
Q 2691 219 2414 64 
Q 2138 -91 1772 -91 
Q 1169 -91 856 284 
Q 544 659 544 1381 
z
M 1991 3584 
L 1991 3584 
z
" transform="scale(0.015625)"/>
      <path id="DejaVuSans-70" d="M 1159 525 
L 1159 -1331 
L 581 -1331 
L 581 3500 
L 1159 3500 
L 1159 2969 
Q 1341 3281 1617 3432 
Q 1894 3584 2278 3584 
Q 2916 3584 3314 3078 
Q 3713 2572 3713 1747 
Q 3713 922 3314 415 
Q 2916 -91 2278 -91 
Q 1894 -91 1617 61 
Q 1341 213 1159 525 
z
M 3116 1747 
Q 3116 2381 2855 2742 
Q 2594 3103 2138 3103 
Q 1681 3103 1420 2742 
Q 1159 2381 1159 1747 
Q 1159 1113 1420 752 
Q 1681 391 2138 391 
Q 2594 391 2855 752 
Q 3116 1113 3116 1747 
z
" transform="scale(0.015625)"/>
      <path id="DejaVuSans-5f" d="M 3263 -1063 
L 3263 -1509 
L -63 -1509 
L -63 -1063 
L 3263 -1063 
z
" transform="scale(0.015625)"/>
      <path id="DejaVuSans-3d" d="M 678 2906 
L 4684 2906 
L 4684 2381 
L 678 2381 
L 678 2906 
z
M 678 1631 
L 4684 1631 
L 4684 1100 
L 678 1100 
L 678 1631 
z
" transform="scale(0.015625)"/>
      <path id="DejaVuSans-2e" d="M 684 794 
L 1344 794 
L 1344 0 
L 684 0 
L 684 794 
z
" transform="scale(0.015625)"/>
     </defs>
     <use xlink:href="#DejaVuSans-47"/>
     <use xlink:href="#DejaVuSans-72" x="77.490234"/>
     <use xlink:href="#DejaVuSans-6f" x="116.353516"/>
     <use xlink:href="#DejaVuSans-75" x="177.535156"/>
     <use xlink:href="#DejaVuSans-70" x="240.914062"/>
     <use xlink:href="#DejaVuSans-20" x="304.390625"/>
     <use xlink:href="#DejaVuSans-32" x="336.177734"/>
     <use xlink:href="#DejaVuSans-5f" x="399.800781"/>
     <use xlink:href="#DejaVuSans-70" x="449.800781"/>
     <use xlink:href="#DejaVuSans-3d" x="513.277344"/>
     <use xlink:href="#DejaVuSans-30" x="597.066406"/>
     <use xlink:href="#DejaVuSans-2e" x="660.689453"/>
     <use xlink:href="#DejaVuSans-30" x="692.476562"/>
     <use xlink:href="#DejaVuSans-39" x="756.099609"/>
     <use xlink:href="#DejaVuSans-36" x="819.722656"/>
    </g>
   </g>
  </g>
 </g>
 <defs>
  <clipPath id="p62c28192d5">
   <rect x="57.6" y="41.472" width="357.12" height="266.112"/>
  </clipPath>
 </defs>
</svg>
