<?xml version="1.0" encoding="utf-8" standalone="no"?>
<!DOCTYPE svg PUBLIC "-//W3C//DTD SVG 1.1//EN"
  "http://www.w3.org/Graphics/SVG/1.1/DTD/svg11.dtd">
<svg xmlns:xlink="http://www.w3.org/1999/xlink" width="460.8pt" height="345.6pt" viewBox="0 0 460.8 345.6" xmlns="http://www.w3.org/2000/svg" version="1.1">
 <metadata>
  <rdf:RDF xmlns:dc="http://purl.org/dc/elements/1.1/" xmlns:cc="http://creativecommons.org/ns#" xmlns:rdf="http://www.w3.org/1999/02/22-rdf-syntax-ns#">
   <cc:Work>
    <dc:type rdf:resource="http://purl.org/dc/dcmitype/StillImage"/>
    <dc:date>2024-11-12T22:27:51.497770</dc:date>
    <dc:format>image/svg+xml</dc:format>
    <dc:creator>
     <cc:Agent>
      <dc:title>Matplotlib v3.8.2, https://matplotlib.org/</dc:title>
     </cc:Agent>
    </dc:creator>
   </cc:Work>
  </rdf:RDF>
 </metadata>
 <defs>
  <style type="text/css">*{stroke-linejoin: round; stroke-linecap: butt}</style>
 </defs>
 <g id="figure_1">
  <g id="patch_1">
   <path d="M 0 345.6 
L 460.8 345.6 
L 460.8 0 
L 0 0 
z
" style="fill: #ffffff"/>
  </g>
  <g id="axes_1">
   <g id="patch_2">
    <path d="M 57.6 307.584 
L 414.72 307.584 
L 414.72 41.472 
L 57.6 41.472 
z
" style="fill: #ffffff"/>
   </g>
   <g id="PolyCollection_1">
    <defs>
     <path id="m7060deb9f8" d="M 73.832727 -67.103645 
L 73.832727 -56.032961 
L 74.918528 -56.197995 
L 76.00433 -56.019046 
L 77.090131 -56.018189 
L 78.175932 -56.090202 
L 79.261733 -56.219903 
L 80.347534 -55.797098 
L 81.433335 -55.435587 
L 82.519137 -55.418977 
L 83.604938 -55.104629 
L 84.690739 -54.953089 
L 85.77654 -54.786371 
L 86.862341 -54.878833 
L 87.948142 -54.833635 
L 89.033943 -54.39333 
L 90.119745 -54.24056 
L 91.205546 -54.23729 
L 92.291347 -54.111079 
L 93.377148 -53.852314 
L 94.462949 -53.696787 
L 95.54875 -53.29791 
L 96.634552 -53.239929 
L 97.720353 -53.453807 
L 98.806154 -53.384363 
L 99.891955 -52.961525 
L 100.977756 -53.040815 
L 102.063557 -53.063968 
L 103.149358 -53.65197 
L 104.23516 -53.676915 
L 105.320961 -53.988495 
L 106.406762 -54.180851 
L 107.492563 -54.167186 
L 108.578364 -54.228618 
L 109.664165 -54.058898 
L 110.749967 -54.183946 
L 111.835768 -54.415794 
L 112.921569 -54.439013 
L 114.00737 -54.299908 
L 115.093171 -54.353805 
L 116.178972 -54.430738 
L 117.264773 -54.393404 
L 118.350575 -54.467621 
L 119.436376 -54.446972 
L 120.522177 -54.46093 
L 121.607978 -54.688832 
L 122.693779 -54.450442 
L 123.77958 -54.511139 
L 124.865382 -54.220003 
L 125.951183 -54.313543 
L 127.036984 -54.280258 
L 128.122785 -54.170857 
L 129.208586 -54.142483 
L 130.294387 -54.368515 
L 131.380189 -54.239009 
L 132.46599 -54.173418 
L 133.551791 -54.108042 
L 134.637592 -54.007269 
L 135.723393 -53.797961 
L 136.809194 -53.524569 
L 137.894995 -53.290143 
L 138.980797 -52.973171 
L 140.066598 -52.995231 
L 141.152399 -52.711795 
L 142.2382 -52.724064 
L 143.324001 -52.53471 
L 144.409802 -53.007135 
L 145.495604 -53.172289 
L 146.581405 -53.403 
L 147.667206 -53.457873 
L 148.753007 -53.63794 
L 149.838808 -53.890492 
L 150.924609 -53.954623 
L 152.01041 -54.018748 
L 153.096212 -54.003702 
L 154.182013 -53.723183 
L 155.267814 -53.564796 
L 156.353615 -53.445698 
L 157.439416 -53.203126 
L 158.525217 -53.098712 
L 159.611019 -53.238615 
L 160.69682 -53.046404 
L 161.782621 -52.81172 
L 162.868422 -52.620583 
L 163.954223 -52.946516 
L 165.040024 -52.984501 
L 166.125825 -52.974536 
L 167.211627 -52.764701 
L 168.297428 -52.997742 
L 169.383229 -52.909307 
L 170.46903 -52.758068 
L 171.554831 -52.887032 
L 172.640632 -52.988242 
L 173.726434 -53.045678 
L 174.812235 -52.928857 
L 175.898036 -52.683644 
L 176.983837 -52.71984 
L 178.069638 -52.54479 
L 179.155439 -52.123686 
L 180.24124 -51.834302 
L 181.327042 -51.778817 
L 182.412843 -51.182627 
L 183.498644 -50.869333 
L 184.584445 -50.409795 
L 185.670246 -50.246335 
L 186.756047 -50.112 
L 187.841849 -50.439594 
L 188.92765 -50.786503 
L 190.013451 -51.110223 
L 191.099252 -51.307967 
L 192.185053 -51.427629 
L 193.270854 -51.388151 
L 194.356656 -51.534982 
L 195.442457 -51.360015 
L 196.528258 -51.03653 
L 197.614059 -51.048233 
L 198.69986 -50.981928 
L 199.785661 -51.220837 
L 200.871462 -51.007652 
L 201.957264 -51.146309 
L 203.043065 -51.253942 
L 204.128866 -51.662966 
L 205.214667 -51.816451 
L 206.300468 -52.350337 
L 207.386269 -52.65127 
L 208.472071 -53.413405 
L 209.557872 -53.646362 
L 210.643673 -54.062344 
L 211.729474 -54.435358 
L 212.815275 -54.737479 
L 213.901076 -55.306845 
L 214.986877 -55.839598 
L 216.072679 -56.487952 
L 217.15848 -57.426069 
L 218.244281 -57.669361 
L 219.330082 -57.922528 
L 220.415883 -58.338832 
L 221.501684 -58.509383 
L 222.587486 -58.935286 
L 223.673287 -59.221253 
L 224.759088 -59.460398 
L 225.844889 -59.900633 
L 226.93069 -59.912327 
L 228.016491 -59.932728 
L 229.102292 -59.881427 
L 230.188094 -60.096689 
L 231.273895 -60.147246 
L 232.359696 -60.30805 
L 233.445497 -60.306069 
L 234.531298 -60.286155 
L 235.617099 -60.273784 
L 236.702901 -60.227219 
L 237.788702 -60.063865 
L 238.874503 -59.95516 
L 239.960304 -60.061179 
L 241.046105 -60.275352 
L 242.131906 -60.505217 
L 243.217708 -60.618401 
L 244.303509 -60.644791 
L 245.38931 -60.530513 
L 246.475111 -60.668214 
L 247.560912 -60.750378 
L 248.646713 -60.940473 
L 249.732514 -61.029511 
L 250.818316 -61.344659 
L 251.904117 -61.507995 
L 252.989918 -61.364236 
L 254.075719 -61.401765 
L 255.16152 -61.35386 
L 256.247321 -61.075142 
L 257.333123 -61.196506 
L 258.418924 -61.139147 
L 259.504725 -61.312777 
L 260.590526 -61.677166 
L 261.676327 -61.917115 
L 262.762128 -62.302791 
L 263.847929 -62.752389 
L 264.933731 -63.423334 
L 266.019532 -63.747954 
L 267.105333 -64.164808 
L 268.191134 -64.347849 
L 269.276935 -64.871053 
L 270.362736 -65.145671 
L 271.448538 -65.581011 
L 272.534339 -65.44634 
L 273.62014 -65.664741 
L 274.705941 -66.005881 
L 275.791742 -66.254792 
L 276.877543 -66.627291 
L 277.963344 -66.601178 
L 279.049146 -66.607123 
L 280.134947 -66.800349 
L 281.220748 -66.916187 
L 282.306549 -67.311877 
L 283.39235 -67.612406 
L 284.478151 -67.880871 
L 285.563953 -68.526732 
L 286.649754 -68.798252 
L 287.735555 -69.397335 
L 288.821356 -69.715934 
L 289.907157 -70.096457 
L 290.992958 -70.762455 
L 292.07876 -71.243491 
L 293.164561 -71.925649 
L 294.250362 -72.255812 
L 295.336163 -72.833145 
L 296.421964 -73.402966 
L 297.507765 -74.090488 
L 298.593566 -74.704917 
L 299.679368 -75.372622 
L 300.765169 -75.978362 
L 301.85097 -76.524811 
L 302.936771 -77.157158 
L 304.022572 -77.541136 
L 305.108373 -78.031638 
L 306.194175 -78.27719 
L 307.279976 -78.68132 
L 308.365777 -79.302664 
L 309.451578 -80.110646 
L 310.537379 -80.614899 
L 311.62318 -80.94308 
L 312.708981 -81.381814 
L 313.794783 -81.813537 
L 314.880584 -81.999231 
L 315.966385 -82.393838 
L 317.052186 -82.882524 
L 318.137987 -83.283408 
L 319.223788 -83.629957 
L 320.30959 -84.196329 
L 321.395391 -84.667927 
L 322.481192 -85.209296 
L 323.566993 -85.630765 
L 324.652794 -85.832923 
L 325.738595 -85.954869 
L 326.824396 -86.136135 
L 327.910198 -86.233389 
L 328.995999 -86.39264 
L 330.0818 -86.48914 
L 331.167601 -86.674282 
L 332.253402 -86.957732 
L 333.339203 -86.985996 
L 334.425005 -87.014604 
L 335.510806 -87.273701 
L 336.596607 -87.846941 
L 337.682408 -88.242856 
L 338.768209 -88.639831 
L 339.85401 -89.090048 
L 340.939811 -89.414769 
L 342.025613 -89.739549 
L 343.111414 -90.154152 
L 344.197215 -90.593005 
L 345.283016 -90.765207 
L 346.368817 -91.037993 
L 347.454618 -91.449029 
L 348.54042 -91.821903 
L 349.626221 -92.170023 
L 350.712022 -92.660097 
L 351.797823 -93.044896 
L 352.883624 -93.646232 
L 353.969425 -93.995463 
L 355.055227 -94.193814 
L 356.141028 -94.517001 
L 357.226829 -94.732382 
L 358.31263 -94.931263 
L 359.398431 -95.143532 
L 360.484232 -95.390402 
L 361.570033 -95.709008 
L 362.655835 -96.126595 
L 363.741636 -96.642719 
L 364.827437 -97.302318 
L 365.913238 -98.078034 
L 366.999039 -98.803111 
L 368.08484 -99.663786 
L 369.170642 -100.277585 
L 370.256443 -101.260175 
L 371.342244 -102.120499 
L 372.428045 -102.619525 
L 373.513846 -103.106367 
L 374.599647 -103.615646 
L 375.685448 -104.507145 
L 376.77125 -105.453308 
L 377.857051 -106.308056 
L 378.942852 -106.978834 
L 380.028653 -107.646243 
L 381.114454 -108.180556 
L 382.200255 -108.730477 
L 383.286057 -109.462924 
L 384.371858 -110.168943 
L 385.457659 -110.873845 
L 386.54346 -111.358601 
L 387.629261 -111.778805 
L 388.715062 -112.49484 
L 389.800863 -113.14024 
L 390.886665 -113.5768 
L 391.972466 -114.080916 
L 393.058267 -114.399421 
L 394.144068 -114.941086 
L 395.229869 -115.692591 
L 396.31567 -116.100416 
L 397.401472 -116.850849 
L 398.487273 -117.781252 
L 398.487273 -292.032 
L 398.487273 -292.032 
L 397.401472 -290.026498 
L 396.31567 -288.112357 
L 395.229869 -286.861637 
L 394.144068 -284.913539 
L 393.058267 -283.35723 
L 391.972466 -281.884393 
L 390.886665 -280.51379 
L 389.800863 -278.610946 
L 388.715062 -276.499263 
L 387.629261 -274.139506 
L 386.54346 -272.245462 
L 385.457659 -270.23613 
L 384.371858 -268.134317 
L 383.286057 -266.05521 
L 382.200255 -264.600091 
L 381.114454 -262.734048 
L 380.028653 -261.037344 
L 378.942852 -259.242375 
L 377.857051 -257.120108 
L 376.77125 -254.892262 
L 375.685448 -252.762076 
L 374.599647 -250.744343 
L 373.513846 -249.227744 
L 372.428045 -247.376148 
L 371.342244 -245.400134 
L 370.256443 -243.068114 
L 369.170642 -240.515813 
L 368.08484 -238.279678 
L 366.999039 -236.137472 
L 365.913238 -234.048321 
L 364.827437 -232.029389 
L 363.741636 -230.076039 
L 362.655835 -228.346342 
L 361.570033 -226.526137 
L 360.484232 -224.779777 
L 359.398431 -223.133465 
L 358.31263 -221.266774 
L 357.226829 -219.697707 
L 356.141028 -217.960204 
L 355.055227 -216.033727 
L 353.969425 -214.543154 
L 352.883624 -212.792895 
L 351.797823 -211.177743 
L 350.712022 -209.663691 
L 349.626221 -207.565412 
L 348.54042 -205.693332 
L 347.454618 -203.903618 
L 346.368817 -202.439985 
L 345.283016 -200.48879 
L 344.197215 -198.336629 
L 343.111414 -195.974071 
L 342.025613 -193.782616 
L 340.939811 -191.735285 
L 339.85401 -189.755923 
L 338.768209 -187.904553 
L 337.682408 -186.30126 
L 336.596607 -184.471057 
L 335.510806 -182.450925 
L 334.425005 -181.117495 
L 333.339203 -180.134721 
L 332.253402 -178.769088 
L 331.167601 -177.073364 
L 330.0818 -175.84783 
L 328.995999 -174.227446 
L 327.910198 -172.565148 
L 326.824396 -171.104282 
L 325.738595 -169.822811 
L 324.652794 -168.86544 
L 323.566993 -168.02008 
L 322.481192 -166.801834 
L 321.395391 -165.68389 
L 320.30959 -164.932276 
L 319.223788 -163.650254 
L 318.137987 -162.680143 
L 317.052186 -161.687605 
L 315.966385 -160.657939 
L 314.880584 -159.889748 
L 313.794783 -159.264969 
L 312.708981 -158.407495 
L 311.62318 -157.313733 
L 310.537379 -156.612255 
L 309.451578 -155.47032 
L 308.365777 -154.038629 
L 307.279976 -153.025277 
L 306.194175 -152.372078 
L 305.108373 -151.93035 
L 304.022572 -151.111749 
L 302.936771 -150.24611 
L 301.85097 -149.033264 
L 300.765169 -147.99904 
L 299.679368 -146.813384 
L 298.593566 -145.531577 
L 297.507765 -144.703123 
L 296.421964 -143.581 
L 295.336163 -142.598518 
L 294.250362 -141.864125 
L 293.164561 -141.243601 
L 292.07876 -140.347503 
L 290.992958 -139.699916 
L 289.907157 -138.682158 
L 288.821356 -137.962488 
L 287.735555 -137.372036 
L 286.649754 -136.337352 
L 285.563953 -135.918302 
L 284.478151 -135.257341 
L 283.39235 -135.318564 
L 282.306549 -134.577354 
L 281.220748 -134.378716 
L 280.134947 -134.543709 
L 279.049146 -134.683051 
L 277.963344 -134.911118 
L 276.877543 -135.303422 
L 275.791742 -135.285561 
L 274.705941 -134.94842 
L 273.62014 -134.264997 
L 272.534339 -134.023515 
L 271.448538 -134.082718 
L 270.362736 -133.158797 
L 269.276935 -132.214044 
L 268.191134 -131.032916 
L 267.105333 -130.287048 
L 266.019532 -129.139846 
L 264.933731 -128.227035 
L 263.847929 -126.817363 
L 262.762128 -125.977699 
L 261.676327 -125.266614 
L 260.590526 -124.365594 
L 259.504725 -123.632983 
L 258.418924 -123.089196 
L 257.333123 -122.829075 
L 256.247321 -122.369129 
L 255.16152 -122.491195 
L 254.075719 -121.886463 
L 252.989918 -121.398738 
L 251.904117 -121.193871 
L 250.818316 -120.497974 
L 249.732514 -119.657275 
L 248.646713 -118.648474 
L 247.560912 -117.598295 
L 246.475111 -116.329665 
L 245.38931 -115.525101 
L 244.303509 -114.70376 
L 243.217708 -113.536747 
L 242.131906 -111.9667 
L 241.046105 -110.200512 
L 239.960304 -108.500665 
L 238.874503 -107.152751 
L 237.788702 -105.869514 
L 236.702901 -104.710219 
L 235.617099 -103.113401 
L 234.531298 -101.741426 
L 233.445497 -100.30141 
L 232.359696 -98.871489 
L 231.273895 -97.424659 
L 230.188094 -95.957087 
L 229.102292 -94.541216 
L 228.016491 -93.285361 
L 226.93069 -92.046318 
L 225.844889 -91.129399 
L 224.759088 -89.776585 
L 223.673287 -88.636686 
L 222.587486 -87.705307 
L 221.501684 -86.734807 
L 220.415883 -85.707921 
L 219.330082 -84.442077 
L 218.244281 -83.53814 
L 217.15848 -82.495905 
L 216.072679 -80.672489 
L 214.986877 -79.237825 
L 213.901076 -78.241267 
L 212.815275 -77.054055 
L 211.729474 -76.285966 
L 210.643673 -75.45379 
L 209.557872 -74.760123 
L 208.472071 -74.072584 
L 207.386269 -72.954046 
L 206.300468 -72.514323 
L 205.214667 -71.892192 
L 204.128866 -71.473919 
L 203.043065 -70.686143 
L 201.957264 -70.343282 
L 200.871462 -69.776223 
L 199.785661 -69.67108 
L 198.69986 -69.068695 
L 197.614059 -68.808565 
L 196.528258 -68.521408 
L 195.442457 -68.693181 
L 194.356656 -68.474672 
L 193.270854 -67.943927 
L 192.185053 -67.709476 
L 191.099252 -67.124267 
L 190.013451 -66.660043 
L 188.92765 -66.01506 
L 187.841849 -65.291608 
L 186.756047 -64.798267 
L 185.670246 -64.623183 
L 184.584445 -64.374057 
L 183.498644 -64.310753 
L 182.412843 -64.124002 
L 181.327042 -63.884566 
L 180.24124 -63.539246 
L 179.155439 -63.42569 
L 178.069638 -63.542393 
L 176.983837 -63.466688 
L 175.898036 -63.101986 
L 174.812235 -62.981011 
L 173.726434 -62.759904 
L 172.640632 -62.439794 
L 171.554831 -62.062002 
L 170.46903 -61.738791 
L 169.383229 -61.685582 
L 168.297428 -61.614453 
L 167.211627 -61.151178 
L 166.125825 -61.147238 
L 165.040024 -60.933947 
L 163.954223 -60.667934 
L 162.868422 -59.927645 
L 161.782621 -59.876787 
L 160.69682 -59.866721 
L 159.611019 -59.751657 
L 158.525217 -59.233234 
L 157.439416 -59.192342 
L 156.353615 -59.174863 
L 155.267814 -59.078768 
L 154.182013 -59.031171 
L 153.096212 -59.222907 
L 152.01041 -59.165975 
L 150.924609 -58.985015 
L 149.838808 -58.781314 
L 148.753007 -58.470036 
L 147.667206 -58.240599 
L 146.581405 -58.202188 
L 145.495604 -57.941962 
L 144.409802 -57.78514 
L 143.324001 -57.421509 
L 142.2382 -57.613594 
L 141.152399 -57.719711 
L 140.066598 -58.02338 
L 138.980797 -58.024912 
L 137.894995 -58.287715 
L 136.809194 -58.561482 
L 135.723393 -58.875462 
L 134.637592 -59.094212 
L 133.551791 -59.203619 
L 132.46599 -59.172283 
L 131.380189 -59.222396 
L 130.294387 -59.33746 
L 129.208586 -59.144237 
L 128.122785 -59.199856 
L 127.036984 -59.130903 
L 125.951183 -59.139067 
L 124.865382 -59.023897 
L 123.77958 -59.296743 
L 122.693779 -59.260167 
L 121.607978 -59.433672 
L 120.522177 -59.208782 
L 119.436376 -59.086877 
L 118.350575 -59.056842 
L 117.264773 -58.994724 
L 116.178972 -59.042492 
L 115.093171 -58.932724 
L 114.00737 -58.89849 
L 112.921569 -59.132923 
L 111.835768 -59.280723 
L 110.749967 -59.183186 
L 109.664165 -59.212306 
L 108.578364 -59.518305 
L 107.492563 -59.570217 
L 106.406762 -59.644567 
L 105.320961 -59.600977 
L 104.23516 -59.642453 
L 103.149358 -59.696779 
L 102.063557 -59.360893 
L 100.977756 -59.477374 
L 99.891955 -59.590067 
L 98.806154 -60.031036 
L 97.720353 -60.316878 
L 96.634552 -60.209784 
L 95.54875 -60.368891 
L 94.462949 -60.84205 
L 93.377148 -61.155339 
L 92.291347 -61.548354 
L 91.205546 -61.837689 
L 90.119745 -62.100582 
L 89.033943 -62.436094 
L 87.948142 -63.006342 
L 86.862341 -63.219167 
L 85.77654 -63.234564 
L 84.690739 -63.497224 
L 83.604938 -63.750165 
L 82.519137 -64.298878 
L 81.433335 -64.51221 
L 80.347534 -65.136734 
L 79.261733 -65.927387 
L 78.175932 -65.975856 
L 77.090131 -66.173332 
L 76.00433 -66.440136 
L 74.918528 -66.950267 
L 73.832727 -67.103645 
z
" style="stroke: #ff00ff; stroke-opacity: 0.1"/>
    </defs>
    <g clip-path="url(#p1174f9af8e)">
     <use xlink:href="#m7060deb9f8" x="0" y="345.6" style="fill: #ff00ff; fill-opacity: 0.1; stroke: #ff00ff; stroke-opacity: 0.1"/>
    </g>
   </g>
   <g id="matplotlib.axis_1">
    <g id="xtick_1">
     <g id="line2d_1">
      <defs>
       <path id="mb5a3ded9e1" d="M 0 0 
L 0 3.5 
" style="stroke: #000000; stroke-width: 0.8"/>
      </defs>
      <g>
       <use xlink:href="#mb5a3ded9e1" x="73.832727" y="307.584" style="stroke: #000000; stroke-width: 0.8"/>
      </g>
     </g>
     <g id="text_1">
      <!-- −5 -->
      <g transform="translate(66.461634 322.182437) scale(0.1 -0.1)">
       <defs>
        <path id="DejaVuSans-2212" d="M 678 2272 
L 4684 2272 
L 4684 1741 
L 678 1741 
L 678 2272 
z
" transform="scale(0.015625)"/>
        <path id="DejaVuSans-35" d="M 691 4666 
L 3169 4666 
L 3169 4134 
L 1269 4134 
L 1269 2991 
Q 1406 3038 1543 3061 
Q 1681 3084 1819 3084 
Q 2600 3084 3056 2656 
Q 3513 2228 3513 1497 
Q 3513 744 3044 326 
Q 2575 -91 1722 -91 
Q 1428 -91 1123 -41 
Q 819 9 494 109 
L 494 744 
Q 775 591 1075 516 
Q 1375 441 1709 441 
Q 2250 441 2565 725 
Q 2881 1009 2881 1497 
Q 2881 1984 2565 2268 
Q 2250 2553 1709 2553 
Q 1456 2553 1204 2497 
Q 953 2441 691 2322 
L 691 4666 
z
" transform="scale(0.015625)"/>
       </defs>
       <use xlink:href="#DejaVuSans-2212"/>
       <use xlink:href="#DejaVuSans-35" x="83.789062"/>
      </g>
     </g>
    </g>
    <g id="xtick_2">
     <g id="line2d_2">
      <g>
       <use xlink:href="#mb5a3ded9e1" x="95.54875" y="307.584" style="stroke: #000000; stroke-width: 0.8"/>
      </g>
     </g>
     <g id="text_2">
      <!-- −4 -->
      <g transform="translate(88.177657 322.182437) scale(0.1 -0.1)">
       <defs>
        <path id="DejaVuSans-34" d="M 2419 4116 
L 825 1625 
L 2419 1625 
L 2419 4116 
z
M 2253 4666 
L 3047 4666 
L 3047 1625 
L 3713 1625 
L 3713 1100 
L 3047 1100 
L 3047 0 
L 2419 0 
L 2419 1100 
L 313 1100 
L 313 1709 
L 2253 4666 
z
" transform="scale(0.015625)"/>
       </defs>
       <use xlink:href="#DejaVuSans-2212"/>
       <use xlink:href="#DejaVuSans-34" x="83.789062"/>
      </g>
     </g>
    </g>
    <g id="xtick_3">
     <g id="line2d_3">
      <g>
       <use xlink:href="#mb5a3ded9e1" x="117.264773" y="307.584" style="stroke: #000000; stroke-width: 0.8"/>
      </g>
     </g>
     <g id="text_3">
      <!-- −3 -->
      <g transform="translate(109.89368 322.182437) scale(0.1 -0.1)">
       <defs>
        <path id="DejaVuSans-33" d="M 2597 2516 
Q 3050 2419 3304 2112 
Q 3559 1806 3559 1356 
Q 3559 666 3084 287 
Q 2609 -91 1734 -91 
Q 1441 -91 1130 -33 
Q 819 25 488 141 
L 488 750 
Q 750 597 1062 519 
Q 1375 441 1716 441 
Q 2309 441 2620 675 
Q 2931 909 2931 1356 
Q 2931 1769 2642 2001 
Q 2353 2234 1838 2234 
L 1294 2234 
L 1294 2753 
L 1863 2753 
Q 2328 2753 2575 2939 
Q 2822 3125 2822 3475 
Q 2822 3834 2567 4026 
Q 2313 4219 1838 4219 
Q 1578 4219 1281 4162 
Q 984 4106 628 3988 
L 628 4550 
Q 988 4650 1302 4700 
Q 1616 4750 1894 4750 
Q 2613 4750 3031 4423 
Q 3450 4097 3450 3541 
Q 3450 3153 3228 2886 
Q 3006 2619 2597 2516 
z
" transform="scale(0.015625)"/>
       </defs>
       <use xlink:href="#DejaVuSans-2212"/>
       <use xlink:href="#DejaVuSans-33" x="83.789062"/>
      </g>
     </g>
    </g>
    <g id="xtick_4">
     <g id="line2d_4">
      <g>
       <use xlink:href="#mb5a3ded9e1" x="138.980797" y="307.584" style="stroke: #000000; stroke-width: 0.8"/>
      </g>
     </g>
     <g id="text_4">
      <!-- −2 -->
      <g transform="translate(131.609703 322.182437) scale(0.1 -0.1)">
       <defs>
        <path id="DejaVuSans-32" d="M 1228 531 
L 3431 531 
L 3431 0 
L 469 0 
L 469 531 
Q 828 903 1448 1529 
Q 2069 2156 2228 2338 
Q 2531 2678 2651 2914 
Q 2772 3150 2772 3378 
Q 2772 3750 2511 3984 
Q 2250 4219 1831 4219 
Q 1534 4219 1204 4116 
Q 875 4013 500 3803 
L 500 4441 
Q 881 4594 1212 4672 
Q 1544 4750 1819 4750 
Q 2544 4750 2975 4387 
Q 3406 4025 3406 3419 
Q 3406 3131 3298 2873 
Q 3191 2616 2906 2266 
Q 2828 2175 2409 1742 
Q 1991 1309 1228 531 
z
" transform="scale(0.015625)"/>
       </defs>
       <use xlink:href="#DejaVuSans-2212"/>
       <use xlink:href="#DejaVuSans-32" x="83.789062"/>
      </g>
     </g>
    </g>
    <g id="xtick_5">
     <g id="line2d_5">
      <g>
       <use xlink:href="#mb5a3ded9e1" x="160.69682" y="307.584" style="stroke: #000000; stroke-width: 0.8"/>
      </g>
     </g>
     <g id="text_5">
      <!-- −1 -->
      <g transform="translate(153.325726 322.182437) scale(0.1 -0.1)">
       <defs>
        <path id="DejaVuSans-31" d="M 794 531 
L 1825 531 
L 1825 4091 
L 703 3866 
L 703 4441 
L 1819 4666 
L 2450 4666 
L 2450 531 
L 3481 531 
L 3481 0 
L 794 0 
L 794 531 
z
" transform="scale(0.015625)"/>
       </defs>
       <use xlink:href="#DejaVuSans-2212"/>
       <use xlink:href="#DejaVuSans-31" x="83.789062"/>
      </g>
     </g>
    </g>
    <g id="xtick_6">
     <g id="line2d_6">
      <g>
       <use xlink:href="#mb5a3ded9e1" x="182.412843" y="307.584" style="stroke: #000000; stroke-width: 0.8"/>
      </g>
     </g>
     <g id="text_6">
      <!-- 0 -->
      <g transform="translate(179.231593 322.182437) scale(0.1 -0.1)">
       <defs>
        <path id="DejaVuSans-30" d="M 2034 4250 
Q 1547 4250 1301 3770 
Q 1056 3291 1056 2328 
Q 1056 1369 1301 889 
Q 1547 409 2034 409 
Q 2525 409 2770 889 
Q 3016 1369 3016 2328 
Q 3016 3291 2770 3770 
Q 2525 4250 2034 4250 
z
M 2034 4750 
Q 2819 4750 3233 4129 
Q 3647 3509 3647 2328 
Q 3647 1150 3233 529 
Q 2819 -91 2034 -91 
Q 1250 -91 836 529 
Q 422 1150 422 2328 
Q 422 3509 836 4129 
Q 1250 4750 2034 4750 
z
" transform="scale(0.015625)"/>
       </defs>
       <use xlink:href="#DejaVuSans-30"/>
      </g>
     </g>
    </g>
    <g id="xtick_7">
     <g id="line2d_7">
      <g>
       <use xlink:href="#mb5a3ded9e1" x="204.128866" y="307.584" style="stroke: #000000; stroke-width: 0.8"/>
      </g>
     </g>
     <g id="text_7">
      <!-- 1 -->
      <g transform="translate(200.947616 322.182437) scale(0.1 -0.1)">
       <use xlink:href="#DejaVuSans-31"/>
      </g>
     </g>
    </g>
    <g id="xtick_8">
     <g id="line2d_8">
      <g>
       <use xlink:href="#mb5a3ded9e1" x="225.844889" y="307.584" style="stroke: #000000; stroke-width: 0.8"/>
      </g>
     </g>
     <g id="text_8">
      <!-- 2 -->
      <g transform="translate(222.663639 322.182437) scale(0.1 -0.1)">
       <use xlink:href="#DejaVuSans-32"/>
      </g>
     </g>
    </g>
    <g id="xtick_9">
     <g id="line2d_9">
      <g>
       <use xlink:href="#mb5a3ded9e1" x="247.560912" y="307.584" style="stroke: #000000; stroke-width: 0.8"/>
      </g>
     </g>
     <g id="text_9">
      <!-- 3 -->
      <g transform="translate(244.379662 322.182437) scale(0.1 -0.1)">
       <use xlink:href="#DejaVuSans-33"/>
      </g>
     </g>
    </g>
    <g id="xtick_10">
     <g id="line2d_10">
      <g>
       <use xlink:href="#mb5a3ded9e1" x="269.276935" y="307.584" style="stroke: #000000; stroke-width: 0.8"/>
      </g>
     </g>
     <g id="text_10">
      <!-- 4 -->
      <g transform="translate(266.095685 322.182437) scale(0.1 -0.1)">
       <use xlink:href="#DejaVuSans-34"/>
      </g>
     </g>
    </g>
    <g id="xtick_11">
     <g id="line2d_11">
      <g>
       <use xlink:href="#mb5a3ded9e1" x="290.992958" y="307.584" style="stroke: #000000; stroke-width: 0.8"/>
      </g>
     </g>
     <g id="text_11">
      <!-- 5 -->
      <g transform="translate(287.811708 322.182437) scale(0.1 -0.1)">
       <use xlink:href="#DejaVuSans-35"/>
      </g>
     </g>
    </g>
    <g id="xtick_12">
     <g id="line2d_12">
      <g>
       <use xlink:href="#mb5a3ded9e1" x="312.708981" y="307.584" style="stroke: #000000; stroke-width: 0.8"/>
      </g>
     </g>
     <g id="text_12">
      <!-- 6 -->
      <g transform="translate(309.527731 322.182437) scale(0.1 -0.1)">
       <defs>
        <path id="DejaVuSans-36" d="M 2113 2584 
Q 1688 2584 1439 2293 
Q 1191 2003 1191 1497 
Q 1191 994 1439 701 
Q 1688 409 2113 409 
Q 2538 409 2786 701 
Q 3034 994 3034 1497 
Q 3034 2003 2786 2293 
Q 2538 2584 2113 2584 
z
M 3366 4563 
L 3366 3988 
Q 3128 4100 2886 4159 
Q 2644 4219 2406 4219 
Q 1781 4219 1451 3797 
Q 1122 3375 1075 2522 
Q 1259 2794 1537 2939 
Q 1816 3084 2150 3084 
Q 2853 3084 3261 2657 
Q 3669 2231 3669 1497 
Q 3669 778 3244 343 
Q 2819 -91 2113 -91 
Q 1303 -91 875 529 
Q 447 1150 447 2328 
Q 447 3434 972 4092 
Q 1497 4750 2381 4750 
Q 2619 4750 2861 4703 
Q 3103 4656 3366 4563 
z
" transform="scale(0.015625)"/>
       </defs>
       <use xlink:href="#DejaVuSans-36"/>
      </g>
     </g>
    </g>
    <g id="xtick_13">
     <g id="line2d_13">
      <g>
       <use xlink:href="#mb5a3ded9e1" x="334.425005" y="307.584" style="stroke: #000000; stroke-width: 0.8"/>
      </g>
     </g>
     <g id="text_13">
      <!-- 7 -->
      <g transform="translate(331.243755 322.182437) scale(0.1 -0.1)">
       <defs>
        <path id="DejaVuSans-37" d="M 525 4666 
L 3525 4666 
L 3525 4397 
L 1831 0 
L 1172 0 
L 2766 4134 
L 525 4134 
L 525 4666 
z
" transform="scale(0.015625)"/>
       </defs>
       <use xlink:href="#DejaVuSans-37"/>
      </g>
     </g>
    </g>
    <g id="xtick_14">
     <g id="line2d_14">
      <g>
       <use xlink:href="#mb5a3ded9e1" x="356.141028" y="307.584" style="stroke: #000000; stroke-width: 0.8"/>
      </g>
     </g>
     <g id="text_14">
      <!-- 8 -->
      <g transform="translate(352.959778 322.182437) scale(0.1 -0.1)">
       <defs>
        <path id="DejaVuSans-38" d="M 2034 2216 
Q 1584 2216 1326 1975 
Q 1069 1734 1069 1313 
Q 1069 891 1326 650 
Q 1584 409 2034 409 
Q 2484 409 2743 651 
Q 3003 894 3003 1313 
Q 3003 1734 2745 1975 
Q 2488 2216 2034 2216 
z
M 1403 2484 
Q 997 2584 770 2862 
Q 544 3141 544 3541 
Q 544 4100 942 4425 
Q 1341 4750 2034 4750 
Q 2731 4750 3128 4425 
Q 3525 4100 3525 3541 
Q 3525 3141 3298 2862 
Q 3072 2584 2669 2484 
Q 3125 2378 3379 2068 
Q 3634 1759 3634 1313 
Q 3634 634 3220 271 
Q 2806 -91 2034 -91 
Q 1263 -91 848 271 
Q 434 634 434 1313 
Q 434 1759 690 2068 
Q 947 2378 1403 2484 
z
M 1172 3481 
Q 1172 3119 1398 2916 
Q 1625 2713 2034 2713 
Q 2441 2713 2670 2916 
Q 2900 3119 2900 3481 
Q 2900 3844 2670 4047 
Q 2441 4250 2034 4250 
Q 1625 4250 1398 4047 
Q 1172 3844 1172 3481 
z
" transform="scale(0.015625)"/>
       </defs>
       <use xlink:href="#DejaVuSans-38"/>
      </g>
     </g>
    </g>
    <g id="xtick_15">
     <g id="line2d_15">
      <g>
       <use xlink:href="#mb5a3ded9e1" x="377.857051" y="307.584" style="stroke: #000000; stroke-width: 0.8"/>
      </g>
     </g>
     <g id="text_15">
      <!-- 9 -->
      <g transform="translate(374.675801 322.182437) scale(0.1 -0.1)">
       <defs>
        <path id="DejaVuSans-39" d="M 703 97 
L 703 672 
Q 941 559 1184 500 
Q 1428 441 1663 441 
Q 2288 441 2617 861 
Q 2947 1281 2994 2138 
Q 2813 1869 2534 1725 
Q 2256 1581 1919 1581 
Q 1219 1581 811 2004 
Q 403 2428 403 3163 
Q 403 3881 828 4315 
Q 1253 4750 1959 4750 
Q 2769 4750 3195 4129 
Q 3622 3509 3622 2328 
Q 3622 1225 3098 567 
Q 2575 -91 1691 -91 
Q 1453 -91 1209 -44 
Q 966 3 703 97 
z
M 1959 2075 
Q 2384 2075 2632 2365 
Q 2881 2656 2881 3163 
Q 2881 3666 2632 3958 
Q 2384 4250 1959 4250 
Q 1534 4250 1286 3958 
Q 1038 3666 1038 3163 
Q 1038 2656 1286 2365 
Q 1534 2075 1959 2075 
z
" transform="scale(0.015625)"/>
       </defs>
       <use xlink:href="#DejaVuSans-39"/>
      </g>
     </g>
    </g>
    <g id="xtick_16">
     <g id="line2d_16">
      <g>
       <use xlink:href="#mb5a3ded9e1" x="399.573074" y="307.584" style="stroke: #000000; stroke-width: 0.8"/>
      </g>
     </g>
     <g id="text_16">
      <!-- 10 -->
      <g transform="translate(393.210574 322.182437) scale(0.1 -0.1)">
       <use xlink:href="#DejaVuSans-31"/>
       <use xlink:href="#DejaVuSans-30" x="63.623047"/>
      </g>
     </g>
    </g>
    <g id="text_17">
     <!-- Time (s) -->
     <g transform="translate(215.831094 335.860562) scale(0.1 -0.1)">
      <defs>
       <path id="DejaVuSans-54" d="M -19 4666 
L 3928 4666 
L 3928 4134 
L 2272 4134 
L 2272 0 
L 1638 0 
L 1638 4134 
L -19 4134 
L -19 4666 
z
" transform="scale(0.015625)"/>
       <path id="DejaVuSans-69" d="M 603 3500 
L 1178 3500 
L 1178 0 
L 603 0 
L 603 3500 
z
M 603 4863 
L 1178 4863 
L 1178 4134 
L 603 4134 
L 603 4863 
z
" transform="scale(0.015625)"/>
       <path id="DejaVuSans-6d" d="M 3328 2828 
Q 3544 3216 3844 3400 
Q 4144 3584 4550 3584 
Q 5097 3584 5394 3201 
Q 5691 2819 5691 2113 
L 5691 0 
L 5113 0 
L 5113 2094 
Q 5113 2597 4934 2840 
Q 4756 3084 4391 3084 
Q 3944 3084 3684 2787 
Q 3425 2491 3425 1978 
L 3425 0 
L 2847 0 
L 2847 2094 
Q 2847 2600 2669 2842 
Q 2491 3084 2119 3084 
Q 1678 3084 1418 2786 
Q 1159 2488 1159 1978 
L 1159 0 
L 581 0 
L 581 3500 
L 1159 3500 
L 1159 2956 
Q 1356 3278 1631 3431 
Q 1906 3584 2284 3584 
Q 2666 3584 2933 3390 
Q 3200 3197 3328 2828 
z
" transform="scale(0.015625)"/>
       <path id="DejaVuSans-65" d="M 3597 1894 
L 3597 1613 
L 953 1613 
Q 991 1019 1311 708 
Q 1631 397 2203 397 
Q 2534 397 2845 478 
Q 3156 559 3463 722 
L 3463 178 
Q 3153 47 2828 -22 
Q 2503 -91 2169 -91 
Q 1331 -91 842 396 
Q 353 884 353 1716 
Q 353 2575 817 3079 
Q 1281 3584 2069 3584 
Q 2775 3584 3186 3129 
Q 3597 2675 3597 1894 
z
M 3022 2063 
Q 3016 2534 2758 2815 
Q 2500 3097 2075 3097 
Q 1594 3097 1305 2825 
Q 1016 2553 972 2059 
L 3022 2063 
z
" transform="scale(0.015625)"/>
       <path id="DejaVuSans-20" transform="scale(0.015625)"/>
       <path id="DejaVuSans-28" d="M 1984 4856 
Q 1566 4138 1362 3434 
Q 1159 2731 1159 2009 
Q 1159 1288 1364 580 
Q 1569 -128 1984 -844 
L 1484 -844 
Q 1016 -109 783 600 
Q 550 1309 550 2009 
Q 550 2706 781 3412 
Q 1013 4119 1484 4856 
L 1984 4856 
z
" transform="scale(0.015625)"/>
       <path id="DejaVuSans-73" d="M 2834 3397 
L 2834 2853 
Q 2591 2978 2328 3040 
Q 2066 3103 1784 3103 
Q 1356 3103 1142 2972 
Q 928 2841 928 2578 
Q 928 2378 1081 2264 
Q 1234 2150 1697 2047 
L 1894 2003 
Q 2506 1872 2764 1633 
Q 3022 1394 3022 966 
Q 3022 478 2636 193 
Q 2250 -91 1575 -91 
Q 1294 -91 989 -36 
Q 684 19 347 128 
L 347 722 
Q 666 556 975 473 
Q 1284 391 1588 391 
Q 1994 391 2212 530 
Q 2431 669 2431 922 
Q 2431 1156 2273 1281 
Q 2116 1406 1581 1522 
L 1381 1569 
Q 847 1681 609 1914 
Q 372 2147 372 2553 
Q 372 3047 722 3315 
Q 1072 3584 1716 3584 
Q 2034 3584 2315 3537 
Q 2597 3491 2834 3397 
z
" transform="scale(0.015625)"/>
       <path id="DejaVuSans-29" d="M 513 4856 
L 1013 4856 
Q 1481 4119 1714 3412 
Q 1947 2706 1947 2009 
Q 1947 1309 1714 600 
Q 1481 -109 1013 -844 
L 513 -844 
Q 928 -128 1133 580 
Q 1338 1288 1338 2009 
Q 1338 2731 1133 3434 
Q 928 4138 513 4856 
z
" transform="scale(0.015625)"/>
      </defs>
      <use xlink:href="#DejaVuSans-54"/>
      <use xlink:href="#DejaVuSans-69" x="57.958984"/>
      <use xlink:href="#DejaVuSans-6d" x="85.742188"/>
      <use xlink:href="#DejaVuSans-65" x="183.154297"/>
      <use xlink:href="#DejaVuSans-20" x="244.677734"/>
      <use xlink:href="#DejaVuSans-28" x="276.464844"/>
      <use xlink:href="#DejaVuSans-73" x="315.478516"/>
      <use xlink:href="#DejaVuSans-29" x="367.578125"/>
     </g>
    </g>
   </g>
   <g id="matplotlib.axis_2">
    <g id="ytick_1">
     <g id="line2d_17">
      <defs>
       <path id="m6d2cf4f5de" d="M 0 0 
L -3.5 0 
" style="stroke: #000000; stroke-width: 0.8"/>
      </defs>
      <g>
       <use xlink:href="#m6d2cf4f5de" x="57.6" y="288.367695" style="stroke: #000000; stroke-width: 0.8"/>
      </g>
     </g>
     <g id="text_18">
      <!-- 0 -->
      <g transform="translate(44.2375 292.166914) scale(0.1 -0.1)">
       <use xlink:href="#DejaVuSans-30"/>
      </g>
     </g>
    </g>
    <g id="ytick_2">
     <g id="line2d_18">
      <g>
       <use xlink:href="#m6d2cf4f5de" x="57.6" y="245.050898" style="stroke: #000000; stroke-width: 0.8"/>
      </g>
     </g>
     <g id="text_19">
      <!-- 2 -->
      <g transform="translate(44.2375 248.850116) scale(0.1 -0.1)">
       <use xlink:href="#DejaVuSans-32"/>
      </g>
     </g>
    </g>
    <g id="ytick_3">
     <g id="line2d_19">
      <g>
       <use xlink:href="#m6d2cf4f5de" x="57.6" y="201.7341" style="stroke: #000000; stroke-width: 0.8"/>
      </g>
     </g>
     <g id="text_20">
      <!-- 4 -->
      <g transform="translate(44.2375 205.533319) scale(0.1 -0.1)">
       <use xlink:href="#DejaVuSans-34"/>
      </g>
     </g>
    </g>
    <g id="ytick_4">
     <g id="line2d_20">
      <g>
       <use xlink:href="#m6d2cf4f5de" x="57.6" y="158.417302" style="stroke: #000000; stroke-width: 0.8"/>
      </g>
     </g>
     <g id="text_21">
      <!-- 6 -->
      <g transform="translate(44.2375 162.216521) scale(0.1 -0.1)">
       <use xlink:href="#DejaVuSans-36"/>
      </g>
     </g>
    </g>
    <g id="ytick_5">
     <g id="line2d_21">
      <g>
       <use xlink:href="#m6d2cf4f5de" x="57.6" y="115.100505" style="stroke: #000000; stroke-width: 0.8"/>
      </g>
     </g>
     <g id="text_22">
      <!-- 8 -->
      <g transform="translate(44.2375 118.899724) scale(0.1 -0.1)">
       <use xlink:href="#DejaVuSans-38"/>
      </g>
     </g>
    </g>
    <g id="ytick_6">
     <g id="line2d_22">
      <g>
       <use xlink:href="#m6d2cf4f5de" x="57.6" y="71.783707" style="stroke: #000000; stroke-width: 0.8"/>
      </g>
     </g>
     <g id="text_23">
      <!-- 10 -->
      <g transform="translate(37.875 75.582926) scale(0.1 -0.1)">
       <use xlink:href="#DejaVuSans-31"/>
       <use xlink:href="#DejaVuSans-30" x="63.623047"/>
      </g>
     </g>
    </g>
    <g id="text_24">
     <!-- Z-Score -->
     <g transform="translate(31.795312 193.67175) rotate(-90) scale(0.1 -0.1)">
      <defs>
       <path id="DejaVuSans-5a" d="M 359 4666 
L 4025 4666 
L 4025 4184 
L 1075 531 
L 4097 531 
L 4097 0 
L 288 0 
L 288 481 
L 3238 4134 
L 359 4134 
L 359 4666 
z
" transform="scale(0.015625)"/>
       <path id="DejaVuSans-2d" d="M 313 2009 
L 1997 2009 
L 1997 1497 
L 313 1497 
L 313 2009 
z
" transform="scale(0.015625)"/>
       <path id="DejaVuSans-53" d="M 3425 4513 
L 3425 3897 
Q 3066 4069 2747 4153 
Q 2428 4238 2131 4238 
Q 1616 4238 1336 4038 
Q 1056 3838 1056 3469 
Q 1056 3159 1242 3001 
Q 1428 2844 1947 2747 
L 2328 2669 
Q 3034 2534 3370 2195 
Q 3706 1856 3706 1288 
Q 3706 609 3251 259 
Q 2797 -91 1919 -91 
Q 1588 -91 1214 -16 
Q 841 59 441 206 
L 441 856 
Q 825 641 1194 531 
Q 1563 422 1919 422 
Q 2459 422 2753 634 
Q 3047 847 3047 1241 
Q 3047 1584 2836 1778 
Q 2625 1972 2144 2069 
L 1759 2144 
Q 1053 2284 737 2584 
Q 422 2884 422 3419 
Q 422 4038 858 4394 
Q 1294 4750 2059 4750 
Q 2388 4750 2728 4690 
Q 3069 4631 3425 4513 
z
" transform="scale(0.015625)"/>
       <path id="DejaVuSans-63" d="M 3122 3366 
L 3122 2828 
Q 2878 2963 2633 3030 
Q 2388 3097 2138 3097 
Q 1578 3097 1268 2742 
Q 959 2388 959 1747 
Q 959 1106 1268 751 
Q 1578 397 2138 397 
Q 2388 397 2633 464 
Q 2878 531 3122 666 
L 3122 134 
Q 2881 22 2623 -34 
Q 2366 -91 2075 -91 
Q 1284 -91 818 406 
Q 353 903 353 1747 
Q 353 2603 823 3093 
Q 1294 3584 2113 3584 
Q 2378 3584 2631 3529 
Q 2884 3475 3122 3366 
z
" transform="scale(0.015625)"/>
       <path id="DejaVuSans-6f" d="M 1959 3097 
Q 1497 3097 1228 2736 
Q 959 2375 959 1747 
Q 959 1119 1226 758 
Q 1494 397 1959 397 
Q 2419 397 2687 759 
Q 2956 1122 2956 1747 
Q 2956 2369 2687 2733 
Q 2419 3097 1959 3097 
z
M 1959 3584 
Q 2709 3584 3137 3096 
Q 3566 2609 3566 1747 
Q 3566 888 3137 398 
Q 2709 -91 1959 -91 
Q 1206 -91 779 398 
Q 353 888 353 1747 
Q 353 2609 779 3096 
Q 1206 3584 1959 3584 
z
" transform="scale(0.015625)"/>
       <path id="DejaVuSans-72" d="M 2631 2963 
Q 2534 3019 2420 3045 
Q 2306 3072 2169 3072 
Q 1681 3072 1420 2755 
Q 1159 2438 1159 1844 
L 1159 0 
L 581 0 
L 581 3500 
L 1159 3500 
L 1159 2956 
Q 1341 3275 1631 3429 
Q 1922 3584 2338 3584 
Q 2397 3584 2469 3576 
Q 2541 3569 2628 3553 
L 2631 2963 
z
" transform="scale(0.015625)"/>
      </defs>
      <use xlink:href="#DejaVuSans-5a"/>
      <use xlink:href="#DejaVuSans-2d" x="66.755859"/>
      <use xlink:href="#DejaVuSans-53" x="102.839844"/>
      <use xlink:href="#DejaVuSans-63" x="166.316406"/>
      <use xlink:href="#DejaVuSans-6f" x="221.296875"/>
      <use xlink:href="#DejaVuSans-72" x="282.478516"/>
      <use xlink:href="#DejaVuSans-65" x="321.341797"/>
     </g>
    </g>
   </g>
   <g id="line2d_23">
    <path d="M 73.832727 284.031697 
L 74.918528 284.025869 
L 76.00433 284.370409 
L 78.175932 284.566971 
L 79.261733 284.526355 
L 81.433335 285.626102 
L 82.519137 285.741073 
L 83.604938 286.172603 
L 85.77654 286.589533 
L 86.862341 286.551 
L 87.948142 286.680011 
L 89.033943 287.185288 
L 91.205546 287.56251 
L 92.291347 287.770284 
L 95.54875 288.766599 
L 96.634552 288.875144 
L 97.720353 288.714657 
L 98.806154 288.8923 
L 99.891955 289.324204 
L 102.063557 289.387569 
L 103.149358 288.925625 
L 104.23516 288.940316 
L 106.406762 288.687291 
L 108.578364 288.726539 
L 109.664165 288.964398 
L 110.749967 288.916434 
L 111.835768 288.751742 
L 112.921569 288.814032 
L 114.00737 289.000801 
L 120.522177 288.765144 
L 121.607978 288.538748 
L 122.693779 288.744695 
L 123.77958 288.696059 
L 124.865382 288.97805 
L 125.951183 288.873695 
L 129.208586 288.95664 
L 130.294387 288.747012 
L 132.46599 288.927149 
L 134.637592 289.04926 
L 136.809194 289.556975 
L 138.980797 290.100959 
L 140.066598 290.090694 
L 141.152399 290.384247 
L 142.2382 290.431171 
L 143.324001 290.62189 
L 144.409802 290.203862 
L 148.753007 289.546012 
L 149.838808 289.264097 
L 152.01041 289.007638 
L 153.096212 288.986695 
L 154.182013 289.222823 
L 158.525217 289.434027 
L 159.611019 289.104864 
L 162.868422 289.325886 
L 163.954223 288.792775 
L 166.125825 288.539113 
L 167.211627 288.642061 
L 168.297428 288.293903 
L 170.46903 288.35157 
L 173.726434 287.697209 
L 174.812235 287.645066 
L 175.898036 287.707185 
L 176.983837 287.506736 
L 178.069638 287.556408 
L 179.155439 287.825312 
L 180.24124 287.913226 
L 181.327042 287.768308 
L 182.412843 287.946686 
L 183.498644 288.009957 
L 184.584445 288.208074 
L 186.756047 288.144866 
L 187.841849 287.734399 
L 190.013451 286.714867 
L 192.185053 286.031447 
L 193.270854 285.933961 
L 194.356656 285.595173 
L 195.442457 285.573402 
L 196.528258 285.821031 
L 198.69986 285.574688 
L 199.785661 285.154042 
L 200.871462 285.208063 
L 201.957264 284.855204 
L 203.043065 284.629958 
L 204.128866 284.031558 
L 205.214667 283.745678 
L 206.300468 283.16767 
L 207.386269 282.797342 
L 208.472071 281.857005 
L 210.643673 280.841933 
L 212.815275 279.704233 
L 216.072679 277.019779 
L 217.15848 275.639013 
L 219.330082 274.417698 
L 220.415883 273.576624 
L 223.673287 271.671031 
L 224.759088 270.981508 
L 225.844889 270.084984 
L 226.93069 269.620677 
L 229.102292 268.388678 
L 232.359696 266.010231 
L 236.702901 263.131281 
L 238.874503 262.046045 
L 239.960304 261.319078 
L 243.217708 258.522426 
L 244.303509 257.925724 
L 245.38931 257.572193 
L 246.475111 257.10106 
L 248.646713 255.805527 
L 251.904117 254.249067 
L 252.989918 254.218513 
L 255.16152 253.677473 
L 256.247321 253.877865 
L 257.333123 253.587209 
L 258.418924 253.485829 
L 259.504725 253.12712 
L 263.847929 250.815124 
L 264.933731 249.774816 
L 266.019532 249.1561 
L 267.105333 248.374072 
L 268.191134 247.909617 
L 269.276935 247.057452 
L 271.448538 245.768135 
L 272.534339 245.865072 
L 273.62014 245.635131 
L 274.705941 245.122849 
L 276.877543 244.634643 
L 279.049146 244.954913 
L 281.220748 244.952548 
L 282.306549 244.655384 
L 283.39235 244.134515 
L 284.478151 244.030894 
L 285.563953 243.377483 
L 286.649754 243.032198 
L 287.735555 242.215315 
L 289.907157 241.210692 
L 290.992958 240.368815 
L 292.07876 239.804503 
L 293.164561 239.015375 
L 294.250362 238.540031 
L 296.421964 237.108017 
L 297.507765 236.203195 
L 298.593566 235.481753 
L 300.765169 233.611299 
L 304.022572 231.273557 
L 305.108373 230.619006 
L 306.194175 230.275366 
L 307.279976 229.746702 
L 308.365777 228.929354 
L 309.451578 227.809517 
L 310.537379 226.986423 
L 311.62318 226.471593 
L 313.794783 225.060747 
L 314.880584 224.655511 
L 315.966385 224.074112 
L 318.137987 222.618225 
L 319.223788 221.959895 
L 320.30959 221.035697 
L 321.395391 220.424092 
L 323.566993 218.774578 
L 325.738595 217.71116 
L 327.910198 216.200732 
L 330.0818 214.431515 
L 331.167601 213.726177 
L 332.253402 212.73659 
L 333.339203 212.039642 
L 334.425005 211.533951 
L 335.510806 210.737687 
L 336.596607 209.441001 
L 342.025613 203.838918 
L 345.283016 199.973001 
L 346.368817 198.861011 
L 348.54042 196.842383 
L 349.626221 195.732283 
L 350.712022 194.438106 
L 351.797823 193.488681 
L 353.969425 191.330692 
L 355.055227 190.48623 
L 357.226829 188.384956 
L 358.31263 187.500981 
L 363.741636 182.240621 
L 365.913238 179.536822 
L 369.170642 175.203301 
L 371.342244 171.839684 
L 373.513846 169.432945 
L 374.599647 168.420005 
L 380.028653 161.258207 
L 383.286057 157.840933 
L 386.54346 153.797968 
L 387.629261 152.640844 
L 389.800863 149.724407 
L 390.886665 148.554705 
L 394.144068 145.672687 
L 395.229869 144.322886 
L 396.31567 143.493613 
L 398.487273 140.693374 
L 398.487273 140.693374 
" clip-path="url(#p1174f9af8e)" style="fill: none; stroke: #ff00ff; stroke-width: 1.5; stroke-linecap: square"/>
   </g>
   <g id="line2d_24">
    <path d="M 182.412843 307.584 
L 182.412843 41.472 
" clip-path="url(#p1174f9af8e)" style="fill: none; stroke: #000000; stroke-width: 1.5; stroke-linecap: square"/>
   </g>
   <g id="patch_3">
    <path d="M 57.6 307.584 
L 57.6 41.472 
" style="fill: none; stroke: #000000; stroke-width: 0.8; stroke-linejoin: miter; stroke-linecap: square"/>
   </g>
   <g id="patch_4">
    <path d="M 414.72 307.584 
L 414.72 41.472 
" style="fill: none; stroke: #000000; stroke-width: 0.8; stroke-linejoin: miter; stroke-linecap: square"/>
   </g>
   <g id="patch_5">
    <path d="M 57.6 307.584 
L 414.72 307.584 
" style="fill: none; stroke: #000000; stroke-width: 0.8; stroke-linejoin: miter; stroke-linecap: square"/>
   </g>
   <g id="patch_6">
    <path d="M 57.6 41.472 
L 414.72 41.472 
" style="fill: none; stroke: #000000; stroke-width: 0.8; stroke-linejoin: miter; stroke-linecap: square"/>
   </g>
   <g id="text_25">
    <!-- Group 1_p=0.120 -->
    <g transform="translate(183.158437 35.472) scale(0.12 -0.12)">
     <defs>
      <path id="DejaVuSans-47" d="M 3809 666 
L 3809 1919 
L 2778 1919 
L 2778 2438 
L 4434 2438 
L 4434 434 
Q 4069 175 3628 42 
Q 3188 -91 2688 -91 
Q 1594 -91 976 548 
Q 359 1188 359 2328 
Q 359 3472 976 4111 
Q 1594 4750 2688 4750 
Q 3144 4750 3555 4637 
Q 3966 4525 4313 4306 
L 4313 3634 
Q 3963 3931 3569 4081 
Q 3175 4231 2741 4231 
Q 1884 4231 1454 3753 
Q 1025 3275 1025 2328 
Q 1025 1384 1454 906 
Q 1884 428 2741 428 
Q 3075 428 3337 486 
Q 3600 544 3809 666 
z
" transform="scale(0.015625)"/>
      <path id="DejaVuSans-75" d="M 544 1381 
L 544 3500 
L 1119 3500 
L 1119 1403 
Q 1119 906 1312 657 
Q 1506 409 1894 409 
Q 2359 409 2629 706 
Q 2900 1003 2900 1516 
L 2900 3500 
L 3475 3500 
L 3475 0 
L 2900 0 
L 2900 538 
Q 2691 219 2414 64 
Q 2138 -91 1772 -91 
Q 1169 -91 856 284 
Q 544 659 544 1381 
z
M 1991 3584 
L 1991 3584 
z
" transform="scale(0.015625)"/>
      <path id="DejaVuSans-70" d="M 1159 525 
L 1159 -1331 
L 581 -1331 
L 581 3500 
L 1159 3500 
L 1159 2969 
Q 1341 3281 1617 3432 
Q 1894 3584 2278 3584 
Q 2916 3584 3314 3078 
Q 3713 2572 3713 1747 
Q 3713 922 3314 415 
Q 2916 -91 2278 -91 
Q 1894 -91 1617 61 
Q 1341 213 1159 525 
z
M 3116 1747 
Q 3116 2381 2855 2742 
Q 2594 3103 2138 3103 
Q 1681 3103 1420 2742 
Q 1159 2381 1159 1747 
Q 1159 1113 1420 752 
Q 1681 391 2138 391 
Q 2594 391 2855 752 
Q 3116 1113 3116 1747 
z
" transform="scale(0.015625)"/>
      <path id="DejaVuSans-5f" d="M 3263 -1063 
L 3263 -1509 
L -63 -1509 
L -63 -1063 
L 3263 -1063 
z
" transform="scale(0.015625)"/>
      <path id="DejaVuSans-3d" d="M 678 2906 
L 4684 2906 
L 4684 2381 
L 678 2381 
L 678 2906 
z
M 678 1631 
L 4684 1631 
L 4684 1100 
L 678 1100 
L 678 1631 
z
" transform="scale(0.015625)"/>
      <path id="DejaVuSans-2e" d="M 684 794 
L 1344 794 
L 1344 0 
L 684 0 
L 684 794 
z
" transform="scale(0.015625)"/>
     </defs>
     <use xlink:href="#DejaVuSans-47"/>
     <use xlink:href="#DejaVuSans-72" x="77.490234"/>
     <use xlink:href="#DejaVuSans-6f" x="116.353516"/>
     <use xlink:href="#DejaVuSans-75" x="177.535156"/>
     <use xlink:href="#DejaVuSans-70" x="240.914062"/>
     <use xlink:href="#DejaVuSans-20" x="304.390625"/>
     <use xlink:href="#DejaVuSans-31" x="336.177734"/>
     <use xlink:href="#DejaVuSans-5f" x="399.800781"/>
     <use xlink:href="#DejaVuSans-70" x="449.800781"/>
     <use xlink:href="#DejaVuSans-3d" x="513.277344"/>
     <use xlink:href="#DejaVuSans-30" x="597.066406"/>
     <use xlink:href="#DejaVuSans-2e" x="660.689453"/>
     <use xlink:href="#DejaVuSans-31" x="692.476562"/>
     <use xlink:href="#DejaVuSans-32" x="756.099609"/>
     <use xlink:href="#DejaVuSans-30" x="819.722656"/>
    </g>
   </g>
  </g>
 </g>
 <defs>
  <clipPath id="p1174f9af8e">
   <rect x="57.6" y="41.472" width="357.12" height="266.112"/>
  </clipPath>
 </defs>
</svg>
