<?xml version="1.0" encoding="utf-8" standalone="no"?>
<!DOCTYPE svg PUBLIC "-//W3C//DTD SVG 1.1//EN"
  "http://www.w3.org/Graphics/SVG/1.1/DTD/svg11.dtd">
<svg xmlns:xlink="http://www.w3.org/1999/xlink" width="460.8pt" height="345.6pt" viewBox="0 0 460.8 345.6" xmlns="http://www.w3.org/2000/svg" version="1.1">
 <metadata>
  <rdf:RDF xmlns:dc="http://purl.org/dc/elements/1.1/" xmlns:cc="http://creativecommons.org/ns#" xmlns:rdf="http://www.w3.org/1999/02/22-rdf-syntax-ns#">
   <cc:Work>
    <dc:type rdf:resource="http://purl.org/dc/dcmitype/StillImage"/>
    <dc:date>2024-11-14T18:55:16.977190</dc:date>
    <dc:format>image/svg+xml</dc:format>
    <dc:creator>
     <cc:Agent>
      <dc:title>Matplotlib v3.8.2, https://matplotlib.org/</dc:title>
     </cc:Agent>
    </dc:creator>
   </cc:Work>
  </rdf:RDF>
 </metadata>
 <defs>
  <style type="text/css">*{stroke-linejoin: round; stroke-linecap: butt}</style>
 </defs>
 <g id="figure_1">
  <g id="patch_1">
   <path d="M 0 345.6 
L 460.8 345.6 
L 460.8 0 
L 0 0 
z
" style="fill: #ffffff"/>
  </g>
  <g id="axes_1">
   <g id="patch_2">
    <path d="M 57.6 307.584 
L 414.72 307.584 
L 414.72 41.472 
L 57.6 41.472 
z
" style="fill: #ffffff"/>
   </g>
   <g id="PolyCollection_1">
    <defs>
     <path id="m47bda54cc2" d="M 73.832727 -85.707484 
L 73.832727 -50.788625 
L 74.918528 -52.104341 
L 76.00433 -52.662678 
L 77.090131 -53.588497 
L 78.175932 -54.105042 
L 79.261733 -55.310761 
L 80.347534 -56.209813 
L 81.433335 -57.038041 
L 82.519137 -57.357636 
L 83.604938 -58.063207 
L 84.690739 -59.04661 
L 85.77654 -60.293562 
L 86.862341 -61.951774 
L 87.948142 -63.285074 
L 89.033943 -64.502446 
L 90.119745 -65.914402 
L 91.205546 -66.462009 
L 92.291347 -66.713062 
L 93.377148 -66.264628 
L 94.462949 -66.751403 
L 95.54875 -67.189691 
L 96.634552 -66.14841 
L 97.720353 -65.113966 
L 98.806154 -64.204561 
L 99.891955 -64.327462 
L 100.977756 -64.245349 
L 102.063557 -63.192285 
L 103.149358 -62.280014 
L 104.23516 -61.396772 
L 105.320961 -61.505734 
L 106.406762 -61.73827 
L 107.492563 -61.88688 
L 108.578364 -61.314404 
L 109.664165 -61.260409 
L 110.749967 -61.145068 
L 111.835768 -61.265867 
L 112.921569 -61.029879 
L 114.00737 -61.043175 
L 115.093171 -60.57255 
L 116.178972 -60.156752 
L 117.264773 -59.505292 
L 118.350575 -59.979593 
L 119.436376 -59.934371 
L 120.522177 -59.67496 
L 121.607978 -60.083526 
L 122.693779 -60.074552 
L 123.77958 -59.160155 
L 124.865382 -59.726071 
L 125.951183 -60.270439 
L 127.036984 -61.253403 
L 128.122785 -61.200048 
L 129.208586 -61.266802 
L 130.294387 -61.344971 
L 131.380189 -61.096992 
L 132.46599 -60.861188 
L 133.551791 -60.465146 
L 134.637592 -60.287107 
L 135.723393 -60.054949 
L 136.809194 -60.370214 
L 137.894995 -60.065011 
L 138.980797 -60.014458 
L 140.066598 -60.046234 
L 141.152399 -60.146608 
L 142.2382 -60.207717 
L 143.324001 -59.274786 
L 144.409802 -59.528165 
L 145.495604 -58.584921 
L 146.581405 -58.614125 
L 147.667206 -58.769768 
L 148.753007 -58.130593 
L 149.838808 -57.711944 
L 150.924609 -56.712255 
L 152.01041 -56.677979 
L 153.096212 -56.755823 
L 154.182013 -56.356622 
L 155.267814 -56.040325 
L 156.353615 -55.422181 
L 157.439416 -55.279426 
L 158.525217 -54.547187 
L 159.611019 -53.872487 
L 160.69682 -53.697117 
L 161.782621 -53.836794 
L 162.868422 -53.506014 
L 163.954223 -53.436443 
L 165.040024 -53.400452 
L 166.125825 -52.979638 
L 167.211627 -51.960763 
L 168.297428 -52.114358 
L 169.383229 -50.990125 
L 170.46903 -50.795663 
L 171.554831 -50.112 
L 172.640632 -50.590909 
L 173.726434 -50.448311 
L 174.812235 -51.034971 
L 175.898036 -51.301158 
L 176.983837 -52.101516 
L 178.069638 -53.376437 
L 179.155439 -55.012818 
L 180.24124 -56.259937 
L 181.327042 -57.758785 
L 182.412843 -59.114466 
L 183.498644 -60.472904 
L 184.584445 -61.791643 
L 185.670246 -63.533965 
L 186.756047 -65.787677 
L 187.841849 -67.284011 
L 188.92765 -68.24775 
L 190.013451 -68.90804 
L 191.099252 -69.8304 
L 192.185053 -71.898531 
L 193.270854 -73.500813 
L 194.356656 -74.862315 
L 195.442457 -75.993492 
L 196.528258 -77.595462 
L 197.614059 -78.838172 
L 198.69986 -80.419201 
L 199.785661 -82.418822 
L 200.871462 -84.044447 
L 201.957264 -85.391884 
L 203.043065 -87.312202 
L 204.128866 -88.538503 
L 205.214667 -90.225398 
L 206.300468 -92.633051 
L 207.386269 -94.444912 
L 208.472071 -97.34308 
L 209.557872 -98.726075 
L 210.643673 -99.624485 
L 211.729474 -101.624465 
L 212.815275 -103.810549 
L 213.901076 -106.579619 
L 214.986877 -107.916969 
L 216.072679 -109.845526 
L 217.15848 -112.754882 
L 218.244281 -115.131944 
L 219.330082 -119.202259 
L 220.415883 -122.303034 
L 221.501684 -124.89383 
L 222.587486 -127.194266 
L 223.673287 -129.431897 
L 224.759088 -131.366295 
L 225.844889 -133.784751 
L 226.93069 -135.702325 
L 228.016491 -137.622978 
L 229.102292 -139.669653 
L 230.188094 -142.440023 
L 231.273895 -143.762265 
L 232.359696 -145.838005 
L 233.445497 -147.481358 
L 234.531298 -148.103793 
L 235.617099 -149.444713 
L 236.702901 -150.27899 
L 237.788702 -151.009442 
L 238.874503 -151.02224 
L 239.960304 -150.834196 
L 241.046105 -150.273288 
L 242.131906 -149.80444 
L 243.217708 -150.104531 
L 244.303509 -150.53454 
L 245.38931 -151.055926 
L 246.475111 -151.147936 
L 247.560912 -150.813096 
L 248.646713 -151.077616 
L 249.732514 -151.050102 
L 250.818316 -150.731702 
L 251.904117 -149.606294 
L 252.989918 -149.260847 
L 254.075719 -149.449128 
L 255.16152 -148.812288 
L 256.247321 -148.094038 
L 257.333123 -147.592811 
L 258.418924 -146.46825 
L 259.504725 -145.812763 
L 260.590526 -144.966568 
L 261.676327 -143.975841 
L 262.762128 -142.731421 
L 263.847929 -140.897649 
L 264.933731 -139.992927 
L 266.019532 -139.161264 
L 267.105333 -137.218956 
L 268.191134 -135.945379 
L 269.276935 -135.246266 
L 270.362736 -134.852484 
L 271.448538 -133.351015 
L 272.534339 -133.051399 
L 273.62014 -132.924819 
L 274.705941 -133.022876 
L 275.791742 -131.937248 
L 276.877543 -130.552015 
L 277.963344 -128.733456 
L 279.049146 -128.041781 
L 280.134947 -127.220484 
L 281.220748 -125.949989 
L 282.306549 -125.214083 
L 283.39235 -123.187824 
L 284.478151 -121.564864 
L 285.563953 -121.230191 
L 286.649754 -120.613775 
L 287.735555 -121.234666 
L 288.821356 -121.30557 
L 289.907157 -122.053046 
L 290.992958 -122.918603 
L 292.07876 -123.198811 
L 293.164561 -123.418789 
L 294.250362 -123.151123 
L 295.336163 -123.592773 
L 296.421964 -124.376094 
L 297.507765 -124.936602 
L 298.593566 -127.326607 
L 299.679368 -128.085605 
L 300.765169 -129.627917 
L 301.85097 -130.171041 
L 302.936771 -131.416194 
L 304.022572 -132.314486 
L 305.108373 -132.711641 
L 306.194175 -133.271818 
L 307.279976 -133.194044 
L 308.365777 -133.095465 
L 309.451578 -133.398765 
L 310.537379 -133.791306 
L 311.62318 -134.112185 
L 312.708981 -134.063707 
L 313.794783 -134.384243 
L 314.880584 -134.515752 
L 315.966385 -135.578633 
L 317.052186 -136.39945 
L 318.137987 -137.498941 
L 319.223788 -138.865295 
L 320.30959 -139.074299 
L 321.395391 -140.003195 
L 322.481192 -141.536051 
L 323.566993 -143.274045 
L 324.652794 -143.885383 
L 325.738595 -145.129901 
L 326.824396 -146.197345 
L 327.910198 -147.711962 
L 328.995999 -147.971965 
L 330.0818 -147.509981 
L 331.167601 -148.749059 
L 332.253402 -150.014309 
L 333.339203 -150.050948 
L 334.425005 -149.978665 
L 335.510806 -150.058967 
L 336.596607 -149.531559 
L 337.682408 -149.010787 
L 338.768209 -148.691828 
L 339.85401 -148.172877 
L 340.939811 -148.520274 
L 342.025613 -149.70568 
L 343.111414 -150.218765 
L 344.197215 -150.763598 
L 345.283016 -151.367277 
L 346.368817 -151.654326 
L 347.454618 -152.20151 
L 348.54042 -152.808455 
L 349.626221 -153.323347 
L 350.712022 -154.060535 
L 351.797823 -153.992297 
L 352.883624 -154.468422 
L 353.969425 -153.406715 
L 355.055227 -152.728466 
L 356.141028 -152.783955 
L 357.226829 -151.995137 
L 358.31263 -152.174123 
L 359.398431 -151.256085 
L 360.484232 -150.184348 
L 361.570033 -149.342098 
L 362.655835 -147.196719 
L 363.741636 -145.793479 
L 364.827437 -143.877901 
L 365.913238 -142.793792 
L 366.999039 -141.873169 
L 368.08484 -140.514296 
L 369.170642 -140.303485 
L 370.256443 -139.52244 
L 371.342244 -139.026604 
L 372.428045 -138.303197 
L 373.513846 -137.375422 
L 374.599647 -136.851279 
L 375.685448 -135.595483 
L 376.77125 -134.37793 
L 377.857051 -133.403502 
L 378.942852 -132.036026 
L 380.028653 -130.643902 
L 381.114454 -129.611957 
L 382.200255 -128.30129 
L 383.286057 -126.598405 
L 384.371858 -126.026597 
L 385.457659 -123.580987 
L 386.54346 -121.884177 
L 387.629261 -120.137761 
L 388.715062 -119.137881 
L 389.800863 -117.458008 
L 390.886665 -116.717757 
L 391.972466 -115.184451 
L 393.058267 -113.691184 
L 394.144068 -113.122173 
L 395.229869 -111.64914 
L 396.31567 -109.385352 
L 397.401472 -107.838473 
L 398.487273 -106.604265 
L 398.487273 -252.591519 
L 398.487273 -252.591519 
L 397.401472 -253.943886 
L 396.31567 -255.758669 
L 395.229869 -258.450775 
L 394.144068 -259.982916 
L 393.058267 -260.66304 
L 391.972466 -262.205683 
L 390.886665 -263.853259 
L 389.800863 -264.722936 
L 388.715062 -266.736952 
L 387.629261 -267.761057 
L 386.54346 -269.648424 
L 385.457659 -271.582335 
L 384.371858 -274.002768 
L 383.286057 -274.350502 
L 382.200255 -276.08158 
L 381.114454 -277.320362 
L 380.028653 -278.128618 
L 378.942852 -279.238475 
L 377.857051 -280.415762 
L 376.77125 -280.891681 
L 375.685448 -281.618376 
L 374.599647 -282.451159 
L 373.513846 -282.449811 
L 372.428045 -282.871656 
L 371.342244 -283.059841 
L 370.256443 -282.99416 
L 369.170642 -283.396529 
L 368.08484 -282.829309 
L 366.999039 -283.540876 
L 365.913238 -284.078551 
L 364.827437 -284.757619 
L 363.741636 -286.574031 
L 362.655835 -287.766935 
L 361.570033 -289.685427 
L 360.484232 -290.223414 
L 359.398431 -291.095883 
L 358.31263 -291.722237 
L 357.226829 -291.182355 
L 356.141028 -291.59399 
L 355.055227 -291.104911 
L 353.969425 -291.410307 
L 352.883624 -292.032 
L 351.797823 -290.885021 
L 350.712022 -290.512449 
L 349.626221 -289.120902 
L 348.54042 -287.971923 
L 347.454618 -286.785301 
L 346.368817 -285.831268 
L 345.283016 -285.060493 
L 344.197215 -283.868669 
L 343.111414 -282.76268 
L 342.025613 -281.587046 
L 340.939811 -279.89162 
L 339.85401 -279.123193 
L 338.768209 -279.125922 
L 337.682408 -278.841812 
L 336.596607 -278.916813 
L 335.510806 -279.063147 
L 334.425005 -278.686618 
L 333.339203 -278.425956 
L 332.253402 -277.931351 
L 331.167601 -276.158389 
L 330.0818 -274.400328 
L 328.995999 -274.401715 
L 327.910198 -273.615225 
L 326.824396 -271.69887 
L 325.738595 -270.087694 
L 324.652794 -268.183778 
L 323.566993 -267.121068 
L 322.481192 -264.817047 
L 321.395391 -262.582973 
L 320.30959 -261.189311 
L 319.223788 -260.514666 
L 318.137987 -258.710595 
L 317.052186 -257.291704 
L 315.966385 -256.306145 
L 314.880584 -255.069735 
L 313.794783 -254.820713 
L 312.708981 -254.476804 
L 311.62318 -254.566362 
L 310.537379 -254.205574 
L 309.451578 -253.96986 
L 308.365777 -253.689904 
L 307.279976 -253.594139 
L 306.194175 -253.836009 
L 305.108373 -253.335929 
L 304.022572 -252.963057 
L 302.936771 -251.95007 
L 301.85097 -250.729083 
L 300.765169 -250.102678 
L 299.679368 -248.479031 
L 298.593566 -247.606004 
L 297.507765 -245.028243 
L 296.421964 -244.510212 
L 295.336163 -243.726488 
L 294.250362 -243.179834 
L 293.164561 -243.321504 
L 292.07876 -242.945567 
L 290.992958 -242.605135 
L 289.907157 -241.52861 
L 288.821356 -240.620835 
L 287.735555 -240.432682 
L 286.649754 -239.766143 
L 285.563953 -240.281467 
L 284.478151 -240.655463 
L 283.39235 -242.184202 
L 282.306549 -244.157125 
L 281.220748 -244.864425 
L 280.134947 -246.241275 
L 279.049146 -247.049768 
L 277.963344 -247.669663 
L 276.877543 -249.45574 
L 275.791742 -250.67416 
L 274.705941 -251.860589 
L 273.62014 -251.597976 
L 272.534339 -251.463509 
L 271.448538 -251.371997 
L 270.362736 -252.491074 
L 269.276935 -252.407881 
L 268.191134 -252.675288 
L 267.105333 -253.386648 
L 266.019532 -254.929052 
L 264.933731 -255.295481 
L 263.847929 -255.919951 
L 262.762128 -257.42914 
L 261.676327 -258.41011 
L 260.590526 -259.263797 
L 259.504725 -259.599316 
L 258.418924 -259.811149 
L 257.333123 -260.544327 
L 256.247321 -260.612475 
L 255.16152 -260.83894 
L 254.075719 -260.938169 
L 252.989918 -260.261823 
L 251.904117 -259.987541 
L 250.818316 -260.78584 
L 249.732514 -260.784625 
L 248.646713 -260.488905 
L 247.560912 -259.780925 
L 246.475111 -259.674499 
L 245.38931 -259.055904 
L 244.303509 -258.15465 
L 243.217708 -257.156678 
L 242.131906 -256.163462 
L 241.046105 -255.954525 
L 239.960304 -256.06865 
L 238.874503 -255.781912 
L 237.788702 -255.047679 
L 236.702901 -253.670746 
L 235.617099 -252.035995 
L 234.531298 -249.787157 
L 233.445497 -248.264179 
L 232.359696 -245.567977 
L 231.273895 -242.455861 
L 230.188094 -240.106392 
L 229.102292 -236.494572 
L 228.016491 -233.319066 
L 226.93069 -230.385715 
L 225.844889 -227.433222 
L 224.759088 -223.806131 
L 223.673287 -220.605875 
L 222.587486 -217.264267 
L 221.501684 -214.011109 
L 220.415883 -210.178489 
L 219.330082 -205.726331 
L 218.244281 -200.402878 
L 217.15848 -196.832959 
L 216.072679 -192.703078 
L 214.986877 -189.509104 
L 213.901076 -187.144142 
L 212.815275 -183.151458 
L 211.729474 -179.760677 
L 210.643673 -176.56877 
L 209.557872 -174.485563 
L 208.472071 -171.885442 
L 207.386269 -167.720555 
L 206.300468 -164.919555 
L 205.214667 -161.316634 
L 204.128866 -158.405523 
L 203.043065 -155.81245 
L 201.957264 -152.622884 
L 200.871462 -149.904179 
L 199.785661 -146.914033 
L 198.69986 -143.489237 
L 197.614059 -140.438057 
L 196.528258 -137.946998 
L 195.442457 -135.005929 
L 194.356656 -132.40551 
L 193.270854 -129.676672 
L 192.185053 -126.682629 
L 191.099252 -123.208966 
L 190.013451 -120.92496 
L 188.92765 -118.831075 
L 187.841849 -116.337718 
L 186.756047 -113.264263 
L 185.670246 -109.316544 
L 184.584445 -105.824077 
L 183.498644 -102.861029 
L 182.412843 -99.953739 
L 181.327042 -95.589748 
L 180.24124 -92.720608 
L 179.155439 -89.937853 
L 178.069638 -87.034623 
L 176.983837 -84.514327 
L 175.898036 -82.455718 
L 174.812235 -81.219937 
L 173.726434 -79.625153 
L 172.640632 -78.925278 
L 171.554831 -77.728841 
L 170.46903 -77.683983 
L 169.383229 -77.102153 
L 168.297428 -77.689299 
L 167.211627 -76.980488 
L 166.125825 -77.38675 
L 165.040024 -77.017955 
L 163.954223 -76.470411 
L 162.868422 -76.061851 
L 161.782621 -75.755657 
L 160.69682 -74.967214 
L 159.611019 -74.561795 
L 158.525217 -74.69889 
L 157.439416 -74.948247 
L 156.353615 -74.47238 
L 155.267814 -74.577408 
L 154.182013 -74.502728 
L 153.096212 -74.517742 
L 152.01041 -74.326736 
L 150.924609 -74.203555 
L 149.838808 -75.120336 
L 148.753007 -75.524497 
L 147.667206 -76.087759 
L 146.581405 -75.953569 
L 145.495604 -75.877054 
L 144.409802 -76.689249 
L 143.324001 -76.475081 
L 142.2382 -77.38432 
L 141.152399 -77.218753 
L 140.066598 -77.000043 
L 138.980797 -76.834883 
L 137.894995 -76.908057 
L 136.809194 -77.117257 
L 135.723393 -76.867006 
L 134.637592 -77.128947 
L 133.551791 -77.220582 
L 132.46599 -77.652952 
L 131.380189 -77.799493 
L 130.294387 -78.150171 
L 129.208586 -78.156452 
L 128.122785 -78.062448 
L 127.036984 -78.135579 
L 125.951183 -77.218412 
L 124.865382 -76.58035 
L 123.77958 -76.10881 
L 122.693779 -76.901232 
L 121.607978 -76.877408 
L 120.522177 -76.366684 
L 119.436376 -76.619325 
L 118.350575 -76.744569 
L 117.264773 -76.250103 
L 116.178972 -76.965629 
L 115.093171 -77.459251 
L 114.00737 -77.987553 
L 112.921569 -78.11728 
L 111.835768 -78.294869 
L 110.749967 -78.266861 
L 109.664165 -78.611168 
L 108.578364 -78.773708 
L 107.492563 -79.651789 
L 106.406762 -79.790996 
L 105.320961 -79.743389 
L 104.23516 -79.867892 
L 103.149358 -80.980781 
L 102.063557 -82.114014 
L 100.977756 -83.28344 
L 99.891955 -83.791157 
L 98.806154 -84.115967 
L 97.720353 -85.394676 
L 96.634552 -86.681762 
L 95.54875 -88.143959 
L 94.462949 -88.085717 
L 93.377148 -87.894491 
L 92.291347 -88.655992 
L 91.205546 -88.845175 
L 90.119745 -88.767238 
L 89.033943 -87.880637 
L 87.948142 -87.285933 
L 86.862341 -86.678675 
L 85.77654 -85.728168 
L 84.690739 -85.100618 
L 83.604938 -84.852168 
L 82.519137 -84.964067 
L 81.433335 -85.421048 
L 80.347534 -85.429598 
L 79.261733 -85.418158 
L 78.175932 -85.185768 
L 77.090131 -85.575719 
L 76.00433 -85.61029 
L 74.918528 -85.955453 
L 73.832727 -85.707484 
z
" style="stroke: #ff00ff; stroke-opacity: 0.1"/>
    </defs>
    <g clip-path="url(#pa98de2ece2)">
     <use xlink:href="#m47bda54cc2" x="0" y="345.6" style="fill: #ff00ff; fill-opacity: 0.1; stroke: #ff00ff; stroke-opacity: 0.1"/>
    </g>
   </g>
   <g id="matplotlib.axis_1">
    <g id="xtick_1">
     <g id="line2d_1">
      <defs>
       <path id="md9809fb24f" d="M 0 0 
L 0 3.5 
" style="stroke: #000000; stroke-width: 0.8"/>
      </defs>
      <g>
       <use xlink:href="#md9809fb24f" x="73.832727" y="307.584" style="stroke: #000000; stroke-width: 0.8"/>
      </g>
     </g>
     <g id="text_1">
      <!-- −5 -->
      <g transform="translate(66.461634 322.182437) scale(0.1 -0.1)">
       <defs>
        <path id="DejaVuSans-2212" d="M 678 2272 
L 4684 2272 
L 4684 1741 
L 678 1741 
L 678 2272 
z
" transform="scale(0.015625)"/>
        <path id="DejaVuSans-35" d="M 691 4666 
L 3169 4666 
L 3169 4134 
L 1269 4134 
L 1269 2991 
Q 1406 3038 1543 3061 
Q 1681 3084 1819 3084 
Q 2600 3084 3056 2656 
Q 3513 2228 3513 1497 
Q 3513 744 3044 326 
Q 2575 -91 1722 -91 
Q 1428 -91 1123 -41 
Q 819 9 494 109 
L 494 744 
Q 775 591 1075 516 
Q 1375 441 1709 441 
Q 2250 441 2565 725 
Q 2881 1009 2881 1497 
Q 2881 1984 2565 2268 
Q 2250 2553 1709 2553 
Q 1456 2553 1204 2497 
Q 953 2441 691 2322 
L 691 4666 
z
" transform="scale(0.015625)"/>
       </defs>
       <use xlink:href="#DejaVuSans-2212"/>
       <use xlink:href="#DejaVuSans-35" x="83.789062"/>
      </g>
     </g>
    </g>
    <g id="xtick_2">
     <g id="line2d_2">
      <g>
       <use xlink:href="#md9809fb24f" x="95.54875" y="307.584" style="stroke: #000000; stroke-width: 0.8"/>
      </g>
     </g>
     <g id="text_2">
      <!-- −4 -->
      <g transform="translate(88.177657 322.182437) scale(0.1 -0.1)">
       <defs>
        <path id="DejaVuSans-34" d="M 2419 4116 
L 825 1625 
L 2419 1625 
L 2419 4116 
z
M 2253 4666 
L 3047 4666 
L 3047 1625 
L 3713 1625 
L 3713 1100 
L 3047 1100 
L 3047 0 
L 2419 0 
L 2419 1100 
L 313 1100 
L 313 1709 
L 2253 4666 
z
" transform="scale(0.015625)"/>
       </defs>
       <use xlink:href="#DejaVuSans-2212"/>
       <use xlink:href="#DejaVuSans-34" x="83.789062"/>
      </g>
     </g>
    </g>
    <g id="xtick_3">
     <g id="line2d_3">
      <g>
       <use xlink:href="#md9809fb24f" x="117.264773" y="307.584" style="stroke: #000000; stroke-width: 0.8"/>
      </g>
     </g>
     <g id="text_3">
      <!-- −3 -->
      <g transform="translate(109.89368 322.182437) scale(0.1 -0.1)">
       <defs>
        <path id="DejaVuSans-33" d="M 2597 2516 
Q 3050 2419 3304 2112 
Q 3559 1806 3559 1356 
Q 3559 666 3084 287 
Q 2609 -91 1734 -91 
Q 1441 -91 1130 -33 
Q 819 25 488 141 
L 488 750 
Q 750 597 1062 519 
Q 1375 441 1716 441 
Q 2309 441 2620 675 
Q 2931 909 2931 1356 
Q 2931 1769 2642 2001 
Q 2353 2234 1838 2234 
L 1294 2234 
L 1294 2753 
L 1863 2753 
Q 2328 2753 2575 2939 
Q 2822 3125 2822 3475 
Q 2822 3834 2567 4026 
Q 2313 4219 1838 4219 
Q 1578 4219 1281 4162 
Q 984 4106 628 3988 
L 628 4550 
Q 988 4650 1302 4700 
Q 1616 4750 1894 4750 
Q 2613 4750 3031 4423 
Q 3450 4097 3450 3541 
Q 3450 3153 3228 2886 
Q 3006 2619 2597 2516 
z
" transform="scale(0.015625)"/>
       </defs>
       <use xlink:href="#DejaVuSans-2212"/>
       <use xlink:href="#DejaVuSans-33" x="83.789062"/>
      </g>
     </g>
    </g>
    <g id="xtick_4">
     <g id="line2d_4">
      <g>
       <use xlink:href="#md9809fb24f" x="138.980797" y="307.584" style="stroke: #000000; stroke-width: 0.8"/>
      </g>
     </g>
     <g id="text_4">
      <!-- −2 -->
      <g transform="translate(131.609703 322.182437) scale(0.1 -0.1)">
       <defs>
        <path id="DejaVuSans-32" d="M 1228 531 
L 3431 531 
L 3431 0 
L 469 0 
L 469 531 
Q 828 903 1448 1529 
Q 2069 2156 2228 2338 
Q 2531 2678 2651 2914 
Q 2772 3150 2772 3378 
Q 2772 3750 2511 3984 
Q 2250 4219 1831 4219 
Q 1534 4219 1204 4116 
Q 875 4013 500 3803 
L 500 4441 
Q 881 4594 1212 4672 
Q 1544 4750 1819 4750 
Q 2544 4750 2975 4387 
Q 3406 4025 3406 3419 
Q 3406 3131 3298 2873 
Q 3191 2616 2906 2266 
Q 2828 2175 2409 1742 
Q 1991 1309 1228 531 
z
" transform="scale(0.015625)"/>
       </defs>
       <use xlink:href="#DejaVuSans-2212"/>
       <use xlink:href="#DejaVuSans-32" x="83.789062"/>
      </g>
     </g>
    </g>
    <g id="xtick_5">
     <g id="line2d_5">
      <g>
       <use xlink:href="#md9809fb24f" x="160.69682" y="307.584" style="stroke: #000000; stroke-width: 0.8"/>
      </g>
     </g>
     <g id="text_5">
      <!-- −1 -->
      <g transform="translate(153.325726 322.182437) scale(0.1 -0.1)">
       <defs>
        <path id="DejaVuSans-31" d="M 794 531 
L 1825 531 
L 1825 4091 
L 703 3866 
L 703 4441 
L 1819 4666 
L 2450 4666 
L 2450 531 
L 3481 531 
L 3481 0 
L 794 0 
L 794 531 
z
" transform="scale(0.015625)"/>
       </defs>
       <use xlink:href="#DejaVuSans-2212"/>
       <use xlink:href="#DejaVuSans-31" x="83.789062"/>
      </g>
     </g>
    </g>
    <g id="xtick_6">
     <g id="line2d_6">
      <g>
       <use xlink:href="#md9809fb24f" x="182.412843" y="307.584" style="stroke: #000000; stroke-width: 0.8"/>
      </g>
     </g>
     <g id="text_6">
      <!-- 0 -->
      <g transform="translate(179.231593 322.182437) scale(0.1 -0.1)">
       <defs>
        <path id="DejaVuSans-30" d="M 2034 4250 
Q 1547 4250 1301 3770 
Q 1056 3291 1056 2328 
Q 1056 1369 1301 889 
Q 1547 409 2034 409 
Q 2525 409 2770 889 
Q 3016 1369 3016 2328 
Q 3016 3291 2770 3770 
Q 2525 4250 2034 4250 
z
M 2034 4750 
Q 2819 4750 3233 4129 
Q 3647 3509 3647 2328 
Q 3647 1150 3233 529 
Q 2819 -91 2034 -91 
Q 1250 -91 836 529 
Q 422 1150 422 2328 
Q 422 3509 836 4129 
Q 1250 4750 2034 4750 
z
" transform="scale(0.015625)"/>
       </defs>
       <use xlink:href="#DejaVuSans-30"/>
      </g>
     </g>
    </g>
    <g id="xtick_7">
     <g id="line2d_7">
      <g>
       <use xlink:href="#md9809fb24f" x="204.128866" y="307.584" style="stroke: #000000; stroke-width: 0.8"/>
      </g>
     </g>
     <g id="text_7">
      <!-- 1 -->
      <g transform="translate(200.947616 322.182437) scale(0.1 -0.1)">
       <use xlink:href="#DejaVuSans-31"/>
      </g>
     </g>
    </g>
    <g id="xtick_8">
     <g id="line2d_8">
      <g>
       <use xlink:href="#md9809fb24f" x="225.844889" y="307.584" style="stroke: #000000; stroke-width: 0.8"/>
      </g>
     </g>
     <g id="text_8">
      <!-- 2 -->
      <g transform="translate(222.663639 322.182437) scale(0.1 -0.1)">
       <use xlink:href="#DejaVuSans-32"/>
      </g>
     </g>
    </g>
    <g id="xtick_9">
     <g id="line2d_9">
      <g>
       <use xlink:href="#md9809fb24f" x="247.560912" y="307.584" style="stroke: #000000; stroke-width: 0.8"/>
      </g>
     </g>
     <g id="text_9">
      <!-- 3 -->
      <g transform="translate(244.379662 322.182437) scale(0.1 -0.1)">
       <use xlink:href="#DejaVuSans-33"/>
      </g>
     </g>
    </g>
    <g id="xtick_10">
     <g id="line2d_10">
      <g>
       <use xlink:href="#md9809fb24f" x="269.276935" y="307.584" style="stroke: #000000; stroke-width: 0.8"/>
      </g>
     </g>
     <g id="text_10">
      <!-- 4 -->
      <g transform="translate(266.095685 322.182437) scale(0.1 -0.1)">
       <use xlink:href="#DejaVuSans-34"/>
      </g>
     </g>
    </g>
    <g id="xtick_11">
     <g id="line2d_11">
      <g>
       <use xlink:href="#md9809fb24f" x="290.992958" y="307.584" style="stroke: #000000; stroke-width: 0.8"/>
      </g>
     </g>
     <g id="text_11">
      <!-- 5 -->
      <g transform="translate(287.811708 322.182437) scale(0.1 -0.1)">
       <use xlink:href="#DejaVuSans-35"/>
      </g>
     </g>
    </g>
    <g id="xtick_12">
     <g id="line2d_12">
      <g>
       <use xlink:href="#md9809fb24f" x="312.708981" y="307.584" style="stroke: #000000; stroke-width: 0.8"/>
      </g>
     </g>
     <g id="text_12">
      <!-- 6 -->
      <g transform="translate(309.527731 322.182437) scale(0.1 -0.1)">
       <defs>
        <path id="DejaVuSans-36" d="M 2113 2584 
Q 1688 2584 1439 2293 
Q 1191 2003 1191 1497 
Q 1191 994 1439 701 
Q 1688 409 2113 409 
Q 2538 409 2786 701 
Q 3034 994 3034 1497 
Q 3034 2003 2786 2293 
Q 2538 2584 2113 2584 
z
M 3366 4563 
L 3366 3988 
Q 3128 4100 2886 4159 
Q 2644 4219 2406 4219 
Q 1781 4219 1451 3797 
Q 1122 3375 1075 2522 
Q 1259 2794 1537 2939 
Q 1816 3084 2150 3084 
Q 2853 3084 3261 2657 
Q 3669 2231 3669 1497 
Q 3669 778 3244 343 
Q 2819 -91 2113 -91 
Q 1303 -91 875 529 
Q 447 1150 447 2328 
Q 447 3434 972 4092 
Q 1497 4750 2381 4750 
Q 2619 4750 2861 4703 
Q 3103 4656 3366 4563 
z
" transform="scale(0.015625)"/>
       </defs>
       <use xlink:href="#DejaVuSans-36"/>
      </g>
     </g>
    </g>
    <g id="xtick_13">
     <g id="line2d_13">
      <g>
       <use xlink:href="#md9809fb24f" x="334.425005" y="307.584" style="stroke: #000000; stroke-width: 0.8"/>
      </g>
     </g>
     <g id="text_13">
      <!-- 7 -->
      <g transform="translate(331.243755 322.182437) scale(0.1 -0.1)">
       <defs>
        <path id="DejaVuSans-37" d="M 525 4666 
L 3525 4666 
L 3525 4397 
L 1831 0 
L 1172 0 
L 2766 4134 
L 525 4134 
L 525 4666 
z
" transform="scale(0.015625)"/>
       </defs>
       <use xlink:href="#DejaVuSans-37"/>
      </g>
     </g>
    </g>
    <g id="xtick_14">
     <g id="line2d_14">
      <g>
       <use xlink:href="#md9809fb24f" x="356.141028" y="307.584" style="stroke: #000000; stroke-width: 0.8"/>
      </g>
     </g>
     <g id="text_14">
      <!-- 8 -->
      <g transform="translate(352.959778 322.182437) scale(0.1 -0.1)">
       <defs>
        <path id="DejaVuSans-38" d="M 2034 2216 
Q 1584 2216 1326 1975 
Q 1069 1734 1069 1313 
Q 1069 891 1326 650 
Q 1584 409 2034 409 
Q 2484 409 2743 651 
Q 3003 894 3003 1313 
Q 3003 1734 2745 1975 
Q 2488 2216 2034 2216 
z
M 1403 2484 
Q 997 2584 770 2862 
Q 544 3141 544 3541 
Q 544 4100 942 4425 
Q 1341 4750 2034 4750 
Q 2731 4750 3128 4425 
Q 3525 4100 3525 3541 
Q 3525 3141 3298 2862 
Q 3072 2584 2669 2484 
Q 3125 2378 3379 2068 
Q 3634 1759 3634 1313 
Q 3634 634 3220 271 
Q 2806 -91 2034 -91 
Q 1263 -91 848 271 
Q 434 634 434 1313 
Q 434 1759 690 2068 
Q 947 2378 1403 2484 
z
M 1172 3481 
Q 1172 3119 1398 2916 
Q 1625 2713 2034 2713 
Q 2441 2713 2670 2916 
Q 2900 3119 2900 3481 
Q 2900 3844 2670 4047 
Q 2441 4250 2034 4250 
Q 1625 4250 1398 4047 
Q 1172 3844 1172 3481 
z
" transform="scale(0.015625)"/>
       </defs>
       <use xlink:href="#DejaVuSans-38"/>
      </g>
     </g>
    </g>
    <g id="xtick_15">
     <g id="line2d_15">
      <g>
       <use xlink:href="#md9809fb24f" x="377.857051" y="307.584" style="stroke: #000000; stroke-width: 0.8"/>
      </g>
     </g>
     <g id="text_15">
      <!-- 9 -->
      <g transform="translate(374.675801 322.182437) scale(0.1 -0.1)">
       <defs>
        <path id="DejaVuSans-39" d="M 703 97 
L 703 672 
Q 941 559 1184 500 
Q 1428 441 1663 441 
Q 2288 441 2617 861 
Q 2947 1281 2994 2138 
Q 2813 1869 2534 1725 
Q 2256 1581 1919 1581 
Q 1219 1581 811 2004 
Q 403 2428 403 3163 
Q 403 3881 828 4315 
Q 1253 4750 1959 4750 
Q 2769 4750 3195 4129 
Q 3622 3509 3622 2328 
Q 3622 1225 3098 567 
Q 2575 -91 1691 -91 
Q 1453 -91 1209 -44 
Q 966 3 703 97 
z
M 1959 2075 
Q 2384 2075 2632 2365 
Q 2881 2656 2881 3163 
Q 2881 3666 2632 3958 
Q 2384 4250 1959 4250 
Q 1534 4250 1286 3958 
Q 1038 3666 1038 3163 
Q 1038 2656 1286 2365 
Q 1534 2075 1959 2075 
z
" transform="scale(0.015625)"/>
       </defs>
       <use xlink:href="#DejaVuSans-39"/>
      </g>
     </g>
    </g>
    <g id="xtick_16">
     <g id="line2d_16">
      <g>
       <use xlink:href="#md9809fb24f" x="399.573074" y="307.584" style="stroke: #000000; stroke-width: 0.8"/>
      </g>
     </g>
     <g id="text_16">
      <!-- 10 -->
      <g transform="translate(393.210574 322.182437) scale(0.1 -0.1)">
       <use xlink:href="#DejaVuSans-31"/>
       <use xlink:href="#DejaVuSans-30" x="63.623047"/>
      </g>
     </g>
    </g>
    <g id="text_17">
     <!-- Time (s) -->
     <g transform="translate(215.831094 335.860562) scale(0.1 -0.1)">
      <defs>
       <path id="DejaVuSans-54" d="M -19 4666 
L 3928 4666 
L 3928 4134 
L 2272 4134 
L 2272 0 
L 1638 0 
L 1638 4134 
L -19 4134 
L -19 4666 
z
" transform="scale(0.015625)"/>
       <path id="DejaVuSans-69" d="M 603 3500 
L 1178 3500 
L 1178 0 
L 603 0 
L 603 3500 
z
M 603 4863 
L 1178 4863 
L 1178 4134 
L 603 4134 
L 603 4863 
z
" transform="scale(0.015625)"/>
       <path id="DejaVuSans-6d" d="M 3328 2828 
Q 3544 3216 3844 3400 
Q 4144 3584 4550 3584 
Q 5097 3584 5394 3201 
Q 5691 2819 5691 2113 
L 5691 0 
L 5113 0 
L 5113 2094 
Q 5113 2597 4934 2840 
Q 4756 3084 4391 3084 
Q 3944 3084 3684 2787 
Q 3425 2491 3425 1978 
L 3425 0 
L 2847 0 
L 2847 2094 
Q 2847 2600 2669 2842 
Q 2491 3084 2119 3084 
Q 1678 3084 1418 2786 
Q 1159 2488 1159 1978 
L 1159 0 
L 581 0 
L 581 3500 
L 1159 3500 
L 1159 2956 
Q 1356 3278 1631 3431 
Q 1906 3584 2284 3584 
Q 2666 3584 2933 3390 
Q 3200 3197 3328 2828 
z
" transform="scale(0.015625)"/>
       <path id="DejaVuSans-65" d="M 3597 1894 
L 3597 1613 
L 953 1613 
Q 991 1019 1311 708 
Q 1631 397 2203 397 
Q 2534 397 2845 478 
Q 3156 559 3463 722 
L 3463 178 
Q 3153 47 2828 -22 
Q 2503 -91 2169 -91 
Q 1331 -91 842 396 
Q 353 884 353 1716 
Q 353 2575 817 3079 
Q 1281 3584 2069 3584 
Q 2775 3584 3186 3129 
Q 3597 2675 3597 1894 
z
M 3022 2063 
Q 3016 2534 2758 2815 
Q 2500 3097 2075 3097 
Q 1594 3097 1305 2825 
Q 1016 2553 972 2059 
L 3022 2063 
z
" transform="scale(0.015625)"/>
       <path id="DejaVuSans-20" transform="scale(0.015625)"/>
       <path id="DejaVuSans-28" d="M 1984 4856 
Q 1566 4138 1362 3434 
Q 1159 2731 1159 2009 
Q 1159 1288 1364 580 
Q 1569 -128 1984 -844 
L 1484 -844 
Q 1016 -109 783 600 
Q 550 1309 550 2009 
Q 550 2706 781 3412 
Q 1013 4119 1484 4856 
L 1984 4856 
z
" transform="scale(0.015625)"/>
       <path id="DejaVuSans-73" d="M 2834 3397 
L 2834 2853 
Q 2591 2978 2328 3040 
Q 2066 3103 1784 3103 
Q 1356 3103 1142 2972 
Q 928 2841 928 2578 
Q 928 2378 1081 2264 
Q 1234 2150 1697 2047 
L 1894 2003 
Q 2506 1872 2764 1633 
Q 3022 1394 3022 966 
Q 3022 478 2636 193 
Q 2250 -91 1575 -91 
Q 1294 -91 989 -36 
Q 684 19 347 128 
L 347 722 
Q 666 556 975 473 
Q 1284 391 1588 391 
Q 1994 391 2212 530 
Q 2431 669 2431 922 
Q 2431 1156 2273 1281 
Q 2116 1406 1581 1522 
L 1381 1569 
Q 847 1681 609 1914 
Q 372 2147 372 2553 
Q 372 3047 722 3315 
Q 1072 3584 1716 3584 
Q 2034 3584 2315 3537 
Q 2597 3491 2834 3397 
z
" transform="scale(0.015625)"/>
       <path id="DejaVuSans-29" d="M 513 4856 
L 1013 4856 
Q 1481 4119 1714 3412 
Q 1947 2706 1947 2009 
Q 1947 1309 1714 600 
Q 1481 -109 1013 -844 
L 513 -844 
Q 928 -128 1133 580 
Q 1338 1288 1338 2009 
Q 1338 2731 1133 3434 
Q 928 4138 513 4856 
z
" transform="scale(0.015625)"/>
      </defs>
      <use xlink:href="#DejaVuSans-54"/>
      <use xlink:href="#DejaVuSans-69" x="57.958984"/>
      <use xlink:href="#DejaVuSans-6d" x="85.742188"/>
      <use xlink:href="#DejaVuSans-65" x="183.154297"/>
      <use xlink:href="#DejaVuSans-20" x="244.677734"/>
      <use xlink:href="#DejaVuSans-28" x="276.464844"/>
      <use xlink:href="#DejaVuSans-73" x="315.478516"/>
      <use xlink:href="#DejaVuSans-29" x="367.578125"/>
     </g>
    </g>
   </g>
   <g id="matplotlib.axis_2">
    <g id="ytick_1">
     <g id="line2d_17">
      <defs>
       <path id="m21def4a648" d="M 0 0 
L -3.5 0 
" style="stroke: #000000; stroke-width: 0.8"/>
      </defs>
      <g>
       <use xlink:href="#m21def4a648" x="57.6" y="276.243495" style="stroke: #000000; stroke-width: 0.8"/>
      </g>
     </g>
     <g id="text_18">
      <!-- 0.00 -->
      <g transform="translate(28.334375 280.042714) scale(0.1 -0.1)">
       <defs>
        <path id="DejaVuSans-2e" d="M 684 794 
L 1344 794 
L 1344 0 
L 684 0 
L 684 794 
z
" transform="scale(0.015625)"/>
       </defs>
       <use xlink:href="#DejaVuSans-30"/>
       <use xlink:href="#DejaVuSans-2e" x="63.623047"/>
       <use xlink:href="#DejaVuSans-30" x="95.410156"/>
       <use xlink:href="#DejaVuSans-30" x="159.033203"/>
      </g>
     </g>
    </g>
    <g id="ytick_2">
     <g id="line2d_18">
      <g>
       <use xlink:href="#m21def4a648" x="57.6" y="242.537635" style="stroke: #000000; stroke-width: 0.8"/>
      </g>
     </g>
     <g id="text_19">
      <!-- 0.25 -->
      <g transform="translate(28.334375 246.336853) scale(0.1 -0.1)">
       <use xlink:href="#DejaVuSans-30"/>
       <use xlink:href="#DejaVuSans-2e" x="63.623047"/>
       <use xlink:href="#DejaVuSans-32" x="95.410156"/>
       <use xlink:href="#DejaVuSans-35" x="159.033203"/>
      </g>
     </g>
    </g>
    <g id="ytick_3">
     <g id="line2d_19">
      <g>
       <use xlink:href="#m21def4a648" x="57.6" y="208.831774" style="stroke: #000000; stroke-width: 0.8"/>
      </g>
     </g>
     <g id="text_20">
      <!-- 0.50 -->
      <g transform="translate(28.334375 212.630993) scale(0.1 -0.1)">
       <use xlink:href="#DejaVuSans-30"/>
       <use xlink:href="#DejaVuSans-2e" x="63.623047"/>
       <use xlink:href="#DejaVuSans-35" x="95.410156"/>
       <use xlink:href="#DejaVuSans-30" x="159.033203"/>
      </g>
     </g>
    </g>
    <g id="ytick_4">
     <g id="line2d_20">
      <g>
       <use xlink:href="#m21def4a648" x="57.6" y="175.125914" style="stroke: #000000; stroke-width: 0.8"/>
      </g>
     </g>
     <g id="text_21">
      <!-- 0.75 -->
      <g transform="translate(28.334375 178.925133) scale(0.1 -0.1)">
       <use xlink:href="#DejaVuSans-30"/>
       <use xlink:href="#DejaVuSans-2e" x="63.623047"/>
       <use xlink:href="#DejaVuSans-37" x="95.410156"/>
       <use xlink:href="#DejaVuSans-35" x="159.033203"/>
      </g>
     </g>
    </g>
    <g id="ytick_5">
     <g id="line2d_21">
      <g>
       <use xlink:href="#m21def4a648" x="57.6" y="141.420053" style="stroke: #000000; stroke-width: 0.8"/>
      </g>
     </g>
     <g id="text_22">
      <!-- 1.00 -->
      <g transform="translate(28.334375 145.219272) scale(0.1 -0.1)">
       <use xlink:href="#DejaVuSans-31"/>
       <use xlink:href="#DejaVuSans-2e" x="63.623047"/>
       <use xlink:href="#DejaVuSans-30" x="95.410156"/>
       <use xlink:href="#DejaVuSans-30" x="159.033203"/>
      </g>
     </g>
    </g>
    <g id="ytick_6">
     <g id="line2d_22">
      <g>
       <use xlink:href="#m21def4a648" x="57.6" y="107.714193" style="stroke: #000000; stroke-width: 0.8"/>
      </g>
     </g>
     <g id="text_23">
      <!-- 1.25 -->
      <g transform="translate(28.334375 111.513412) scale(0.1 -0.1)">
       <use xlink:href="#DejaVuSans-31"/>
       <use xlink:href="#DejaVuSans-2e" x="63.623047"/>
       <use xlink:href="#DejaVuSans-32" x="95.410156"/>
       <use xlink:href="#DejaVuSans-35" x="159.033203"/>
      </g>
     </g>
    </g>
    <g id="ytick_7">
     <g id="line2d_23">
      <g>
       <use xlink:href="#m21def4a648" x="57.6" y="74.008332" style="stroke: #000000; stroke-width: 0.8"/>
      </g>
     </g>
     <g id="text_24">
      <!-- 1.50 -->
      <g transform="translate(28.334375 77.807551) scale(0.1 -0.1)">
       <use xlink:href="#DejaVuSans-31"/>
       <use xlink:href="#DejaVuSans-2e" x="63.623047"/>
       <use xlink:href="#DejaVuSans-35" x="95.410156"/>
       <use xlink:href="#DejaVuSans-30" x="159.033203"/>
      </g>
     </g>
    </g>
    <g id="text_25">
     <!-- Z-Score -->
     <g transform="translate(22.254687 193.67175) rotate(-90) scale(0.1 -0.1)">
      <defs>
       <path id="DejaVuSans-5a" d="M 359 4666 
L 4025 4666 
L 4025 4184 
L 1075 531 
L 4097 531 
L 4097 0 
L 288 0 
L 288 481 
L 3238 4134 
L 359 4134 
L 359 4666 
z
" transform="scale(0.015625)"/>
       <path id="DejaVuSans-2d" d="M 313 2009 
L 1997 2009 
L 1997 1497 
L 313 1497 
L 313 2009 
z
" transform="scale(0.015625)"/>
       <path id="DejaVuSans-53" d="M 3425 4513 
L 3425 3897 
Q 3066 4069 2747 4153 
Q 2428 4238 2131 4238 
Q 1616 4238 1336 4038 
Q 1056 3838 1056 3469 
Q 1056 3159 1242 3001 
Q 1428 2844 1947 2747 
L 2328 2669 
Q 3034 2534 3370 2195 
Q 3706 1856 3706 1288 
Q 3706 609 3251 259 
Q 2797 -91 1919 -91 
Q 1588 -91 1214 -16 
Q 841 59 441 206 
L 441 856 
Q 825 641 1194 531 
Q 1563 422 1919 422 
Q 2459 422 2753 634 
Q 3047 847 3047 1241 
Q 3047 1584 2836 1778 
Q 2625 1972 2144 2069 
L 1759 2144 
Q 1053 2284 737 2584 
Q 422 2884 422 3419 
Q 422 4038 858 4394 
Q 1294 4750 2059 4750 
Q 2388 4750 2728 4690 
Q 3069 4631 3425 4513 
z
" transform="scale(0.015625)"/>
       <path id="DejaVuSans-63" d="M 3122 3366 
L 3122 2828 
Q 2878 2963 2633 3030 
Q 2388 3097 2138 3097 
Q 1578 3097 1268 2742 
Q 959 2388 959 1747 
Q 959 1106 1268 751 
Q 1578 397 2138 397 
Q 2388 397 2633 464 
Q 2878 531 3122 666 
L 3122 134 
Q 2881 22 2623 -34 
Q 2366 -91 2075 -91 
Q 1284 -91 818 406 
Q 353 903 353 1747 
Q 353 2603 823 3093 
Q 1294 3584 2113 3584 
Q 2378 3584 2631 3529 
Q 2884 3475 3122 3366 
z
" transform="scale(0.015625)"/>
       <path id="DejaVuSans-6f" d="M 1959 3097 
Q 1497 3097 1228 2736 
Q 959 2375 959 1747 
Q 959 1119 1226 758 
Q 1494 397 1959 397 
Q 2419 397 2687 759 
Q 2956 1122 2956 1747 
Q 2956 2369 2687 2733 
Q 2419 3097 1959 3097 
z
M 1959 3584 
Q 2709 3584 3137 3096 
Q 3566 2609 3566 1747 
Q 3566 888 3137 398 
Q 2709 -91 1959 -91 
Q 1206 -91 779 398 
Q 353 888 353 1747 
Q 353 2609 779 3096 
Q 1206 3584 1959 3584 
z
" transform="scale(0.015625)"/>
       <path id="DejaVuSans-72" d="M 2631 2963 
Q 2534 3019 2420 3045 
Q 2306 3072 2169 3072 
Q 1681 3072 1420 2755 
Q 1159 2438 1159 1844 
L 1159 0 
L 581 0 
L 581 3500 
L 1159 3500 
L 1159 2956 
Q 1341 3275 1631 3429 
Q 1922 3584 2338 3584 
Q 2397 3584 2469 3576 
Q 2541 3569 2628 3553 
L 2631 2963 
z
" transform="scale(0.015625)"/>
      </defs>
      <use xlink:href="#DejaVuSans-5a"/>
      <use xlink:href="#DejaVuSans-2d" x="66.755859"/>
      <use xlink:href="#DejaVuSans-53" x="102.839844"/>
      <use xlink:href="#DejaVuSans-63" x="166.316406"/>
      <use xlink:href="#DejaVuSans-6f" x="221.296875"/>
      <use xlink:href="#DejaVuSans-72" x="282.478516"/>
      <use xlink:href="#DejaVuSans-65" x="321.341797"/>
     </g>
    </g>
   </g>
   <g id="line2d_24">
    <path d="M 73.832727 277.351945 
L 74.918528 276.570103 
L 76.00433 276.463516 
L 77.090131 276.017892 
L 78.175932 275.954595 
L 79.261733 275.23554 
L 81.433335 274.370455 
L 82.519137 274.439149 
L 83.604938 274.142313 
L 84.690739 273.526386 
L 85.77654 272.589135 
L 86.862341 271.284776 
L 90.119745 268.25918 
L 91.205546 267.946408 
L 92.291347 267.915473 
L 93.377148 268.52044 
L 95.54875 267.933175 
L 97.720353 270.345679 
L 98.806154 271.439736 
L 99.891955 271.540691 
L 100.977756 271.835605 
L 103.149358 273.969603 
L 104.23516 274.967668 
L 105.320961 274.975438 
L 106.406762 274.835367 
L 107.492563 274.830665 
L 108.578364 275.555944 
L 109.664165 275.664211 
L 110.749967 275.894035 
L 111.835768 275.819632 
L 112.921569 276.026421 
L 114.00737 276.084636 
L 116.178972 277.03881 
L 117.264773 277.722303 
L 118.350575 277.237919 
L 119.436376 277.323152 
L 120.522177 277.579178 
L 121.607978 277.119533 
L 122.693779 277.112108 
L 123.77958 277.965518 
L 125.951183 276.855574 
L 127.036984 275.905509 
L 128.122785 275.968752 
L 130.294387 275.852429 
L 133.551791 276.757136 
L 134.637592 276.891973 
L 135.723393 277.139022 
L 136.809194 276.856264 
L 137.894995 277.113466 
L 138.980797 277.175329 
L 142.2382 276.803981 
L 143.324001 277.725066 
L 144.409802 277.491293 
L 145.495604 278.369013 
L 147.667206 278.171236 
L 148.753007 278.772455 
L 149.838808 279.18386 
L 150.924609 280.142095 
L 153.096212 279.963218 
L 156.353615 280.652719 
L 157.439416 280.486163 
L 159.611019 281.382859 
L 160.69682 281.267834 
L 161.782621 280.803775 
L 162.868422 280.816067 
L 166.125825 280.416806 
L 167.211627 281.129375 
L 168.297428 280.698172 
L 169.383229 281.553861 
L 170.46903 281.360177 
L 171.554831 281.67958 
L 172.640632 280.841907 
L 173.726434 280.563268 
L 174.812235 279.472546 
L 175.898036 278.721562 
L 176.983837 277.292079 
L 178.069638 275.39447 
L 180.24124 271.109727 
L 181.327042 268.925734 
L 182.412843 266.065897 
L 184.584445 261.79214 
L 185.670246 259.174746 
L 186.756047 256.07403 
L 187.841849 253.789135 
L 188.92765 252.060587 
L 190.013451 250.6835 
L 191.099252 249.080317 
L 192.185053 246.30942 
L 194.356656 241.966087 
L 195.442457 240.10029 
L 196.528258 237.82877 
L 197.614059 235.961886 
L 198.69986 233.645781 
L 199.785661 230.933573 
L 200.871462 228.625687 
L 201.957264 226.592616 
L 203.043065 224.037674 
L 204.128866 222.127987 
L 205.214667 219.828984 
L 206.300468 216.823697 
L 207.386269 214.517267 
L 208.472071 210.985739 
L 209.557872 208.994181 
L 210.643673 207.503373 
L 212.815275 202.118997 
L 213.901076 198.73812 
L 214.986877 196.886964 
L 216.072679 194.325698 
L 217.15848 190.80608 
L 218.244281 187.832589 
L 219.330082 183.135705 
L 220.415883 179.359239 
L 221.501684 176.147531 
L 226.93069 162.55598 
L 229.102292 157.517888 
L 230.188094 154.326793 
L 231.273895 152.490937 
L 232.359696 149.897009 
L 233.445497 147.727231 
L 234.531298 146.654525 
L 235.617099 144.859646 
L 236.702901 143.625132 
L 237.788702 142.57144 
L 238.874503 142.197924 
L 239.960304 142.148577 
L 241.046105 142.486093 
L 242.131906 142.616049 
L 244.303509 141.255405 
L 245.38931 140.544085 
L 246.475111 140.188782 
L 247.560912 140.302989 
L 248.646713 139.816739 
L 249.732514 139.682636 
L 250.818316 139.841229 
L 251.904117 140.803083 
L 252.989918 140.838665 
L 254.075719 140.406351 
L 257.333123 141.531431 
L 258.418924 142.4603 
L 259.504725 142.893961 
L 260.590526 143.484817 
L 261.676327 144.407024 
L 262.762128 145.51972 
L 263.847929 147.1912 
L 264.933731 147.955796 
L 266.019532 148.554842 
L 267.105333 150.297198 
L 268.191134 151.289666 
L 269.276935 151.772927 
L 270.362736 151.928221 
L 271.448538 153.238494 
L 273.62014 153.338603 
L 274.705941 153.158268 
L 275.791742 154.294296 
L 276.877543 155.596122 
L 277.963344 157.39844 
L 279.049146 158.054225 
L 280.134947 158.86912 
L 281.220748 160.192793 
L 282.306549 160.914396 
L 283.39235 162.913987 
L 284.478151 164.489837 
L 285.563953 164.844171 
L 286.649754 165.410041 
L 287.735555 164.766326 
L 288.821356 164.636797 
L 289.907157 163.809172 
L 290.992958 162.838131 
L 293.164561 162.229854 
L 294.250362 162.434522 
L 295.336163 161.94037 
L 296.421964 161.156847 
L 297.507765 160.617577 
L 298.593566 158.133695 
L 299.679368 157.317682 
L 300.765169 155.734703 
L 301.85097 155.149938 
L 302.936771 153.916868 
L 304.022572 152.961228 
L 305.108373 152.576215 
L 306.194175 152.046086 
L 307.279976 152.205908 
L 308.365777 152.207315 
L 311.62318 151.260727 
L 312.708981 151.329745 
L 313.794783 150.997522 
L 314.880584 150.807257 
L 315.966385 149.657611 
L 317.052186 148.754423 
L 318.137987 147.495232 
L 319.223788 145.91002 
L 320.30959 145.468195 
L 321.395391 144.306916 
L 323.566993 140.402443 
L 324.652794 139.56542 
L 325.738595 137.991202 
L 326.824396 136.651892 
L 327.910198 134.936407 
L 328.995999 134.41316 
L 330.0818 134.644846 
L 332.253402 131.62717 
L 333.339203 131.361548 
L 334.425005 131.267358 
L 335.510806 131.038943 
L 337.682408 131.673701 
L 338.768209 131.691125 
L 339.85401 131.951965 
L 340.939811 131.394053 
L 342.025613 129.953637 
L 345.283016 127.386115 
L 346.368817 126.857203 
L 347.454618 126.106595 
L 350.712022 123.313508 
L 351.797823 123.161341 
L 352.883624 122.349789 
L 353.969425 123.191489 
L 355.055227 123.683311 
L 356.141028 123.411027 
L 357.226829 124.011254 
L 358.31263 123.65182 
L 359.398431 124.424016 
L 360.484232 125.396119 
L 361.570033 126.086238 
L 362.655835 128.118173 
L 363.741636 129.416245 
L 364.827437 131.28224 
L 365.913238 132.163828 
L 366.999039 132.892977 
L 368.08484 133.928197 
L 369.170642 133.749993 
L 370.256443 134.3417 
L 371.342244 134.556777 
L 372.428045 135.012574 
L 373.513846 135.687384 
L 374.599647 135.948781 
L 376.77125 137.965194 
L 377.857051 138.690368 
L 380.028653 141.21374 
L 381.114454 142.13384 
L 382.200255 143.408565 
L 383.286057 145.125547 
L 384.371858 145.585318 
L 385.457659 148.018339 
L 387.629261 151.650591 
L 388.715062 152.662583 
L 389.800863 154.509528 
L 390.886665 155.314492 
L 393.058267 158.422888 
L 394.144068 159.047455 
L 395.229869 160.550043 
L 396.31567 163.02799 
L 397.401472 164.708821 
L 398.487273 166.002108 
L 398.487273 166.002108 
" clip-path="url(#pa98de2ece2)" style="fill: none; stroke: #ff00ff; stroke-width: 1.5; stroke-linecap: square"/>
   </g>
   <g id="line2d_25">
    <path d="M 182.412843 307.584 
L 182.412843 41.472 
" clip-path="url(#pa98de2ece2)" style="fill: none; stroke: #000000; stroke-width: 1.5; stroke-linecap: square"/>
   </g>
   <g id="patch_3">
    <path d="M 57.6 307.584 
L 57.6 41.472 
" style="fill: none; stroke: #000000; stroke-width: 0.8; stroke-linejoin: miter; stroke-linecap: square"/>
   </g>
   <g id="patch_4">
    <path d="M 414.72 307.584 
L 414.72 41.472 
" style="fill: none; stroke: #000000; stroke-width: 0.8; stroke-linejoin: miter; stroke-linecap: square"/>
   </g>
   <g id="patch_5">
    <path d="M 57.6 307.584 
L 414.72 307.584 
" style="fill: none; stroke: #000000; stroke-width: 0.8; stroke-linejoin: miter; stroke-linecap: square"/>
   </g>
   <g id="patch_6">
    <path d="M 57.6 41.472 
L 414.72 41.472 
" style="fill: none; stroke: #000000; stroke-width: 0.8; stroke-linejoin: miter; stroke-linecap: square"/>
   </g>
   <g id="text_26">
    <!-- Group 1_p=0.020 -->
    <g transform="translate(183.158437 35.472) scale(0.12 -0.12)">
     <defs>
      <path id="DejaVuSans-47" d="M 3809 666 
L 3809 1919 
L 2778 1919 
L 2778 2438 
L 4434 2438 
L 4434 434 
Q 4069 175 3628 42 
Q 3188 -91 2688 -91 
Q 1594 -91 976 548 
Q 359 1188 359 2328 
Q 359 3472 976 4111 
Q 1594 4750 2688 4750 
Q 3144 4750 3555 4637 
Q 3966 4525 4313 4306 
L 4313 3634 
Q 3963 3931 3569 4081 
Q 3175 4231 2741 4231 
Q 1884 4231 1454 3753 
Q 1025 3275 1025 2328 
Q 1025 1384 1454 906 
Q 1884 428 2741 428 
Q 3075 428 3337 486 
Q 3600 544 3809 666 
z
" transform="scale(0.015625)"/>
      <path id="DejaVuSans-75" d="M 544 1381 
L 544 3500 
L 1119 3500 
L 1119 1403 
Q 1119 906 1312 657 
Q 1506 409 1894 409 
Q 2359 409 2629 706 
Q 2900 1003 2900 1516 
L 2900 3500 
L 3475 3500 
L 3475 0 
L 2900 0 
L 2900 538 
Q 2691 219 2414 64 
Q 2138 -91 1772 -91 
Q 1169 -91 856 284 
Q 544 659 544 1381 
z
M 1991 3584 
L 1991 3584 
z
" transform="scale(0.015625)"/>
      <path id="DejaVuSans-70" d="M 1159 525 
L 1159 -1331 
L 581 -1331 
L 581 3500 
L 1159 3500 
L 1159 2969 
Q 1341 3281 1617 3432 
Q 1894 3584 2278 3584 
Q 2916 3584 3314 3078 
Q 3713 2572 3713 1747 
Q 3713 922 3314 415 
Q 2916 -91 2278 -91 
Q 1894 -91 1617 61 
Q 1341 213 1159 525 
z
M 3116 1747 
Q 3116 2381 2855 2742 
Q 2594 3103 2138 3103 
Q 1681 3103 1420 2742 
Q 1159 2381 1159 1747 
Q 1159 1113 1420 752 
Q 1681 391 2138 391 
Q 2594 391 2855 752 
Q 3116 1113 3116 1747 
z
" transform="scale(0.015625)"/>
      <path id="DejaVuSans-5f" d="M 3263 -1063 
L 3263 -1509 
L -63 -1509 
L -63 -1063 
L 3263 -1063 
z
" transform="scale(0.015625)"/>
      <path id="DejaVuSans-3d" d="M 678 2906 
L 4684 2906 
L 4684 2381 
L 678 2381 
L 678 2906 
z
M 678 1631 
L 4684 1631 
L 4684 1100 
L 678 1100 
L 678 1631 
z
" transform="scale(0.015625)"/>
     </defs>
     <use xlink:href="#DejaVuSans-47"/>
     <use xlink:href="#DejaVuSans-72" x="77.490234"/>
     <use xlink:href="#DejaVuSans-6f" x="116.353516"/>
     <use xlink:href="#DejaVuSans-75" x="177.535156"/>
     <use xlink:href="#DejaVuSans-70" x="240.914062"/>
     <use xlink:href="#DejaVuSans-20" x="304.390625"/>
     <use xlink:href="#DejaVuSans-31" x="336.177734"/>
     <use xlink:href="#DejaVuSans-5f" x="399.800781"/>
     <use xlink:href="#DejaVuSans-70" x="449.800781"/>
     <use xlink:href="#DejaVuSans-3d" x="513.277344"/>
     <use xlink:href="#DejaVuSans-30" x="597.066406"/>
     <use xlink:href="#DejaVuSans-2e" x="660.689453"/>
     <use xlink:href="#DejaVuSans-30" x="692.476562"/>
     <use xlink:href="#DejaVuSans-32" x="756.099609"/>
     <use xlink:href="#DejaVuSans-30" x="819.722656"/>
    </g>
   </g>
  </g>
 </g>
 <defs>
  <clipPath id="pa98de2ece2">
   <rect x="57.6" y="41.472" width="357.12" height="266.112"/>
  </clipPath>
 </defs>
</svg>
