<?xml version="1.0" encoding="utf-8" standalone="no"?>
<!DOCTYPE svg PUBLIC "-//W3C//DTD SVG 1.1//EN"
  "http://www.w3.org/Graphics/SVG/1.1/DTD/svg11.dtd">
<svg xmlns:xlink="http://www.w3.org/1999/xlink" width="460.8pt" height="345.6pt" viewBox="0 0 460.8 345.6" xmlns="http://www.w3.org/2000/svg" version="1.1">
 <metadata>
  <rdf:RDF xmlns:dc="http://purl.org/dc/elements/1.1/" xmlns:cc="http://creativecommons.org/ns#" xmlns:rdf="http://www.w3.org/1999/02/22-rdf-syntax-ns#">
   <cc:Work>
    <dc:type rdf:resource="http://purl.org/dc/dcmitype/StillImage"/>
    <dc:date>2024-11-14T18:55:17.929651</dc:date>
    <dc:format>image/svg+xml</dc:format>
    <dc:creator>
     <cc:Agent>
      <dc:title>Matplotlib v3.8.2, https://matplotlib.org/</dc:title>
     </cc:Agent>
    </dc:creator>
   </cc:Work>
  </rdf:RDF>
 </metadata>
 <defs>
  <style type="text/css">*{stroke-linejoin: round; stroke-linecap: butt}</style>
 </defs>
 <g id="figure_1">
  <g id="patch_1">
   <path d="M 0 345.6 
L 460.8 345.6 
L 460.8 0 
L 0 0 
z
" style="fill: #ffffff"/>
  </g>
  <g id="axes_1">
   <g id="patch_2">
    <path d="M 57.6 307.584 
L 414.72 307.584 
L 414.72 41.472 
L 57.6 41.472 
z
" style="fill: #ffffff"/>
   </g>
   <g id="PolyCollection_1">
    <defs>
     <path id="m048807bd67" d="M 73.832727 -128.292368 
L 73.832727 -97.4104 
L 74.918528 -97.71297 
L 76.00433 -97.319971 
L 77.090131 -97.746802 
L 78.175932 -97.378053 
L 79.261733 -97.678251 
L 80.347534 -98.039434 
L 81.433335 -98.430275 
L 82.519137 -97.987889 
L 83.604938 -98.786555 
L 84.690739 -99.309746 
L 85.77654 -99.929081 
L 86.862341 -99.821106 
L 87.948142 -100.120334 
L 89.033943 -100.560137 
L 90.119745 -102.600721 
L 91.205546 -103.881571 
L 92.291347 -105.610144 
L 93.377148 -107.262662 
L 94.462949 -108.628003 
L 95.54875 -110.57494 
L 96.634552 -111.190324 
L 97.720353 -111.656846 
L 98.806154 -112.138268 
L 99.891955 -113.485756 
L 100.977756 -114.107445 
L 102.063557 -115.086608 
L 103.149358 -115.729532 
L 104.23516 -116.402519 
L 105.320961 -117.165125 
L 106.406762 -118.580429 
L 107.492563 -118.931095 
L 108.578364 -119.454536 
L 109.664165 -120.362355 
L 110.749967 -120.585278 
L 111.835768 -121.387545 
L 112.921569 -122.184857 
L 114.00737 -122.588005 
L 115.093171 -122.609997 
L 116.178972 -122.990447 
L 117.264773 -122.279414 
L 118.350575 -122.005485 
L 119.436376 -121.955913 
L 120.522177 -121.556857 
L 121.607978 -121.551008 
L 122.693779 -120.353435 
L 123.77958 -120.266293 
L 124.865382 -119.107079 
L 125.951183 -118.323119 
L 127.036984 -117.942739 
L 128.122785 -116.482874 
L 129.208586 -114.678727 
L 130.294387 -113.454073 
L 131.380189 -112.870448 
L 132.46599 -113.050765 
L 133.551791 -112.749676 
L 134.637592 -111.519647 
L 135.723393 -110.69008 
L 136.809194 -109.96104 
L 137.894995 -109.470979 
L 138.980797 -109.696399 
L 140.066598 -110.021619 
L 141.152399 -110.026199 
L 142.2382 -110.576733 
L 143.324001 -109.996551 
L 144.409802 -110.007067 
L 145.495604 -110.775698 
L 146.581405 -111.91967 
L 147.667206 -111.800311 
L 148.753007 -111.23102 
L 149.838808 -111.465721 
L 150.924609 -111.867437 
L 152.01041 -111.965749 
L 153.096212 -112.610062 
L 154.182013 -112.066156 
L 155.267814 -112.933732 
L 156.353615 -112.565398 
L 157.439416 -112.534739 
L 158.525217 -112.785375 
L 159.611019 -112.068936 
L 160.69682 -113.249826 
L 161.782621 -113.330561 
L 162.868422 -114.458249 
L 163.954223 -114.681071 
L 165.040024 -115.862305 
L 166.125825 -116.364298 
L 167.211627 -116.870577 
L 168.297428 -117.634384 
L 169.383229 -118.52664 
L 170.46903 -118.837183 
L 171.554831 -120.243732 
L 172.640632 -121.514462 
L 173.726434 -122.582563 
L 174.812235 -125.013329 
L 175.898036 -127.187409 
L 176.983837 -128.936031 
L 178.069638 -131.157222 
L 179.155439 -133.415562 
L 180.24124 -135.72314 
L 181.327042 -139.018283 
L 182.412843 -144.848439 
L 183.498644 -147.87745 
L 184.584445 -151.528991 
L 185.670246 -155.21464 
L 186.756047 -157.825692 
L 187.841849 -160.930979 
L 188.92765 -163.858681 
L 190.013451 -166.956719 
L 191.099252 -170.8406 
L 192.185053 -174.40939 
L 193.270854 -178.511989 
L 194.356656 -181.859688 
L 195.442457 -184.750875 
L 196.528258 -187.823211 
L 197.614059 -191.610947 
L 198.69986 -194.912297 
L 199.785661 -198.047997 
L 200.871462 -200.719183 
L 201.957264 -202.584266 
L 203.043065 -204.754037 
L 204.128866 -206.37973 
L 205.214667 -208.219436 
L 206.300468 -209.789953 
L 207.386269 -211.200335 
L 208.472071 -211.497896 
L 209.557872 -212.166599 
L 210.643673 -212.753922 
L 211.729474 -213.173528 
L 212.815275 -213.22097 
L 213.901076 -213.076899 
L 214.986877 -213.21743 
L 216.072679 -212.987384 
L 217.15848 -213.288071 
L 218.244281 -212.332321 
L 219.330082 -212.208224 
L 220.415883 -212.108946 
L 221.501684 -211.546479 
L 222.587486 -210.782836 
L 223.673287 -209.195313 
L 224.759088 -208.710505 
L 225.844889 -207.04707 
L 226.93069 -205.75641 
L 228.016491 -203.640071 
L 229.102292 -202.830693 
L 230.188094 -201.239301 
L 231.273895 -199.786811 
L 232.359696 -198.012249 
L 233.445497 -196.487449 
L 234.531298 -194.625714 
L 235.617099 -191.473383 
L 236.702901 -189.376811 
L 237.788702 -185.174146 
L 238.874503 -181.767479 
L 239.960304 -178.749893 
L 241.046105 -175.486089 
L 242.131906 -172.757424 
L 243.217708 -169.231512 
L 244.303509 -165.423659 
L 245.38931 -161.262621 
L 246.475111 -157.288222 
L 247.560912 -153.293317 
L 248.646713 -148.755783 
L 249.732514 -144.612284 
L 250.818316 -140.92533 
L 251.904117 -137.275982 
L 252.989918 -133.951392 
L 254.075719 -131.06053 
L 255.16152 -127.20299 
L 256.247321 -123.409965 
L 257.333123 -119.857863 
L 258.418924 -115.609044 
L 259.504725 -112.222084 
L 260.590526 -107.909809 
L 261.676327 -104.341352 
L 262.762128 -100.214761 
L 263.847929 -96.159958 
L 264.933731 -92.582688 
L 266.019532 -89.153963 
L 267.105333 -85.391188 
L 268.191134 -82.356097 
L 269.276935 -79.134538 
L 270.362736 -76.67421 
L 271.448538 -74.499834 
L 272.534339 -73.169184 
L 273.62014 -71.013269 
L 274.705941 -69.620248 
L 275.791742 -68.830101 
L 276.877543 -68.307364 
L 277.963344 -67.537699 
L 279.049146 -66.092767 
L 280.134947 -64.708178 
L 281.220748 -63.62711 
L 282.306549 -62.939299 
L 283.39235 -61.839857 
L 284.478151 -60.468791 
L 285.563953 -59.140263 
L 286.649754 -58.179834 
L 287.735555 -57.502451 
L 288.821356 -56.435408 
L 289.907157 -55.225771 
L 290.992958 -53.830418 
L 292.07876 -53.487807 
L 293.164561 -52.355614 
L 294.250362 -51.677957 
L 295.336163 -50.644741 
L 296.421964 -50.112 
L 297.507765 -50.123955 
L 298.593566 -50.216308 
L 299.679368 -51.264016 
L 300.765169 -50.640295 
L 301.85097 -52.113317 
L 302.936771 -52.936553 
L 304.022572 -53.555495 
L 305.108373 -54.628907 
L 306.194175 -55.341584 
L 307.279976 -55.973332 
L 308.365777 -56.979547 
L 309.451578 -58.257482 
L 310.537379 -59.009258 
L 311.62318 -59.431216 
L 312.708981 -59.886041 
L 313.794783 -60.281713 
L 314.880584 -60.188726 
L 315.966385 -60.450085 
L 317.052186 -60.981074 
L 318.137987 -60.988103 
L 319.223788 -61.329245 
L 320.30959 -61.66633 
L 321.395391 -61.730724 
L 322.481192 -62.782922 
L 323.566993 -63.000352 
L 324.652794 -63.643947 
L 325.738595 -63.388183 
L 326.824396 -63.55742 
L 327.910198 -63.706133 
L 328.995999 -64.471831 
L 330.0818 -64.579043 
L 331.167601 -65.313706 
L 332.253402 -65.408703 
L 333.339203 -65.771555 
L 334.425005 -65.913657 
L 335.510806 -66.474995 
L 336.596607 -66.144653 
L 337.682408 -67.193964 
L 338.768209 -68.049982 
L 339.85401 -68.939257 
L 340.939811 -69.225009 
L 342.025613 -70.220579 
L 343.111414 -72.073847 
L 344.197215 -73.532901 
L 345.283016 -74.787419 
L 346.368817 -75.906099 
L 347.454618 -77.754636 
L 348.54042 -78.875369 
L 349.626221 -79.786009 
L 350.712022 -81.492364 
L 351.797823 -82.608773 
L 352.883624 -83.283171 
L 353.969425 -84.794865 
L 355.055227 -86.166147 
L 356.141028 -87.358838 
L 357.226829 -88.533795 
L 358.31263 -89.761845 
L 359.398431 -91.047645 
L 360.484232 -92.100091 
L 361.570033 -92.83674 
L 362.655835 -93.112789 
L 363.741636 -93.428133 
L 364.827437 -93.912451 
L 365.913238 -94.025092 
L 366.999039 -94.727278 
L 368.08484 -95.725963 
L 369.170642 -95.966765 
L 370.256443 -96.648565 
L 371.342244 -97.67307 
L 372.428045 -98.795446 
L 373.513846 -100.020637 
L 374.599647 -101.725175 
L 375.685448 -103.839997 
L 376.77125 -105.862483 
L 377.857051 -107.636238 
L 378.942852 -109.857953 
L 380.028653 -111.134198 
L 381.114454 -112.191639 
L 382.200255 -113.204018 
L 383.286057 -115.065127 
L 384.371858 -116.436597 
L 385.457659 -116.947355 
L 386.54346 -117.790552 
L 387.629261 -118.71374 
L 388.715062 -120.235871 
L 389.800863 -120.745228 
L 390.886665 -121.771759 
L 391.972466 -122.853878 
L 393.058267 -123.670477 
L 394.144068 -124.905828 
L 395.229869 -125.846506 
L 396.31567 -127.531199 
L 397.401472 -128.245366 
L 398.487273 -129.468441 
L 398.487273 -203.889203 
L 398.487273 -203.889203 
L 397.401472 -201.673175 
L 396.31567 -200.21662 
L 395.229869 -197.849821 
L 394.144068 -195.93487 
L 393.058267 -193.880551 
L 391.972466 -192.398045 
L 390.886665 -190.520003 
L 389.800863 -188.649875 
L 388.715062 -187.698135 
L 387.629261 -185.276434 
L 386.54346 -183.709051 
L 385.457659 -182.323717 
L 384.371858 -181.476856 
L 383.286057 -179.672147 
L 382.200255 -177.50984 
L 381.114454 -176.362911 
L 380.028653 -175.297099 
L 378.942852 -174.05286 
L 377.857051 -171.513034 
L 376.77125 -169.404531 
L 375.685448 -167.4165 
L 374.599647 -164.996191 
L 373.513846 -163.143994 
L 372.428045 -162.188894 
L 371.342244 -161.155031 
L 370.256443 -159.607558 
L 369.170642 -158.984437 
L 368.08484 -159.033824 
L 366.999039 -158.087941 
L 365.913238 -157.386921 
L 364.827437 -157.209665 
L 363.741636 -156.576326 
L 362.655835 -156.404425 
L 361.570033 -156.236634 
L 360.484232 -155.417834 
L 359.398431 -154.317915 
L 358.31263 -153.090058 
L 357.226829 -151.944543 
L 356.141028 -150.695258 
L 355.055227 -149.302811 
L 353.969425 -148.097605 
L 352.883624 -146.412874 
L 351.797823 -145.79708 
L 350.712022 -144.660718 
L 349.626221 -142.872464 
L 348.54042 -142.147208 
L 347.454618 -141.041864 
L 346.368817 -139.202697 
L 345.283016 -138.33421 
L 344.197215 -137.229256 
L 343.111414 -136.121855 
L 342.025613 -134.521629 
L 340.939811 -133.717014 
L 339.85401 -133.585621 
L 338.768209 -132.892392 
L 337.682408 -132.100664 
L 336.596607 -131.114625 
L 335.510806 -131.671045 
L 334.425005 -131.31371 
L 333.339203 -131.482869 
L 332.253402 -131.230946 
L 331.167601 -131.351379 
L 330.0818 -130.897086 
L 328.995999 -131.02332 
L 327.910198 -130.446332 
L 326.824396 -130.542364 
L 325.738595 -130.386092 
L 324.652794 -130.816397 
L 323.566993 -130.306072 
L 322.481192 -130.26862 
L 321.395391 -129.243508 
L 320.30959 -128.965645 
L 319.223788 -128.630755 
L 318.137987 -128.547585 
L 317.052186 -128.513353 
L 315.966385 -128.006676 
L 314.880584 -127.79539 
L 313.794783 -127.890443 
L 312.708981 -127.537167 
L 311.62318 -127.197299 
L 310.537379 -126.816806 
L 309.451578 -125.88661 
L 308.365777 -124.782656 
L 307.279976 -123.735511 
L 306.194175 -123.308873 
L 305.108373 -122.696844 
L 304.022572 -121.652618 
L 302.936771 -121.135277 
L 301.85097 -120.549153 
L 300.765169 -119.063681 
L 299.679368 -119.813079 
L 298.593566 -118.815026 
L 297.507765 -118.724061 
L 296.421964 -118.684628 
L 295.336163 -119.19134 
L 294.250362 -120.443758 
L 293.164561 -121.168741 
L 292.07876 -122.205711 
L 290.992958 -122.548048 
L 289.907157 -124.013174 
L 288.821356 -125.252435 
L 287.735555 -126.471971 
L 286.649754 -127.078356 
L 285.563953 -128.019523 
L 284.478151 -129.390715 
L 283.39235 -130.928764 
L 282.306549 -131.978544 
L 281.220748 -132.641137 
L 280.134947 -133.655327 
L 279.049146 -135.078305 
L 277.963344 -136.335064 
L 276.877543 -137.053678 
L 275.791742 -137.499463 
L 274.705941 -138.24155 
L 273.62014 -139.503921 
L 272.534339 -141.667964 
L 271.448538 -143.073954 
L 270.362736 -145.299242 
L 269.276935 -147.955446 
L 268.191134 -151.493329 
L 267.105333 -154.922841 
L 266.019532 -159.06866 
L 264.933731 -163.107227 
L 263.847929 -167.294479 
L 262.762128 -172.110375 
L 261.676327 -177.019469 
L 260.590526 -181.629107 
L 259.504725 -186.958461 
L 258.418924 -191.249452 
L 257.333123 -196.25423 
L 256.247321 -200.358126 
L 255.16152 -204.752926 
L 254.075719 -209.081775 
L 252.989918 -212.533359 
L 251.904117 -216.364787 
L 250.818316 -220.458765 
L 249.732514 -224.78634 
L 248.646713 -229.438456 
L 247.560912 -234.554963 
L 246.475111 -239.227427 
L 245.38931 -243.628166 
L 244.303509 -248.514446 
L 243.217708 -252.978176 
L 242.131906 -257.078527 
L 241.046105 -260.431315 
L 239.960304 -264.202688 
L 238.874503 -267.644697 
L 237.788702 -271.399932 
L 236.702901 -275.725595 
L 235.617099 -277.961984 
L 234.531298 -281.15858 
L 233.445497 -282.983415 
L 232.359696 -284.513972 
L 231.273895 -286.101241 
L 230.188094 -287.061224 
L 229.102292 -288.113108 
L 228.016491 -288.632566 
L 226.93069 -290.032095 
L 225.844889 -290.451691 
L 224.759088 -291.479736 
L 223.673287 -291.330237 
L 222.587486 -292.017828 
L 221.501684 -292.032 
L 220.415883 -291.665705 
L 219.330082 -291.137538 
L 218.244281 -290.207404 
L 217.15848 -290.121573 
L 216.072679 -288.968722 
L 214.986877 -288.319345 
L 213.901076 -287.135008 
L 212.815275 -286.236336 
L 211.729474 -285.1415 
L 210.643673 -283.79767 
L 209.557872 -282.274964 
L 208.472071 -280.485422 
L 207.386269 -278.866175 
L 206.300468 -276.330825 
L 205.214667 -273.272842 
L 204.128866 -269.847453 
L 203.043065 -266.622795 
L 201.957264 -262.724609 
L 200.871462 -258.952528 
L 199.785661 -254.48265 
L 198.69986 -249.380715 
L 197.614059 -243.973646 
L 196.528258 -238.178973 
L 195.442457 -233.107721 
L 194.356656 -228.474203 
L 193.270854 -223.552376 
L 192.185053 -217.935848 
L 191.099252 -212.860614 
L 190.013451 -207.685429 
L 188.92765 -203.258285 
L 187.841849 -199.081743 
L 186.756047 -194.737551 
L 185.670246 -190.698979 
L 184.584445 -185.810557 
L 183.498644 -181.063129 
L 182.412843 -177.04096 
L 181.327042 -168.998748 
L 180.24124 -164.776277 
L 179.155439 -161.429867 
L 178.069638 -158.419316 
L 176.983837 -155.394597 
L 175.898036 -152.991391 
L 174.812235 -150.218811 
L 173.726434 -147.239639 
L 172.640632 -145.63153 
L 171.554831 -143.864354 
L 170.46903 -142.156275 
L 169.383229 -141.556991 
L 168.297428 -140.338063 
L 167.211627 -139.085388 
L 166.125825 -138.146463 
L 165.040024 -137.207276 
L 163.954223 -135.68199 
L 162.868422 -134.944223 
L 161.782621 -133.374539 
L 160.69682 -132.757422 
L 159.611019 -131.121995 
L 158.525217 -131.41297 
L 157.439416 -130.820027 
L 156.353615 -130.552223 
L 155.267814 -130.768401 
L 154.182013 -129.613545 
L 153.096212 -129.944522 
L 152.01041 -129.099746 
L 150.924609 -128.854263 
L 149.838808 -128.225676 
L 148.753007 -127.723675 
L 147.667206 -127.97813 
L 146.581405 -127.926225 
L 145.495604 -126.454876 
L 144.409802 -125.401233 
L 143.324001 -125.015104 
L 142.2382 -125.294175 
L 141.152399 -124.407092 
L 140.066598 -124.032228 
L 138.980797 -123.554357 
L 137.894995 -123.196619 
L 136.809194 -123.521231 
L 135.723393 -124.076077 
L 134.637592 -124.680574 
L 133.551791 -125.729278 
L 132.46599 -126.087598 
L 131.380189 -126.005597 
L 130.294387 -126.594561 
L 129.208586 -127.659068 
L 128.122785 -129.531189 
L 127.036984 -130.733277 
L 125.951183 -131.193877 
L 124.865382 -132.075801 
L 123.77958 -133.210993 
L 122.693779 -133.386942 
L 121.607978 -134.598468 
L 120.522177 -134.55501 
L 119.436376 -135.022181 
L 118.350575 -135.251598 
L 117.264773 -135.558988 
L 116.178972 -136.399391 
L 115.093171 -136.066438 
L 114.00737 -136.252638 
L 112.921569 -135.900833 
L 111.835768 -135.17081 
L 110.749967 -134.607229 
L 109.664165 -134.692576 
L 108.578364 -134.206778 
L 107.492563 -133.947984 
L 106.406762 -133.793864 
L 105.320961 -132.721955 
L 104.23516 -132.321117 
L 103.149358 -132.063295 
L 102.063557 -131.954605 
L 100.977756 -131.296496 
L 99.891955 -131.221469 
L 98.806154 -130.27815 
L 97.720353 -130.375017 
L 96.634552 -130.324832 
L 95.54875 -130.242124 
L 94.462949 -128.654122 
L 93.377148 -127.881564 
L 92.291347 -126.694559 
L 91.205546 -125.51972 
L 90.119745 -124.715909 
L 89.033943 -123.354932 
L 87.948142 -123.598643 
L 86.862341 -123.981259 
L 85.77654 -124.677558 
L 84.690739 -124.643378 
L 83.604938 -124.691976 
L 82.519137 -124.51422 
L 81.433335 -125.330584 
L 80.347534 -125.524327 
L 79.261733 -125.647602 
L 78.175932 -125.953993 
L 77.090131 -126.784008 
L 76.00433 -126.951425 
L 74.918528 -127.964448 
L 73.832727 -128.292368 
z
" style="stroke: #ff00ff; stroke-opacity: 0.1"/>
    </defs>
    <g clip-path="url(#pb5253e974d)">
     <use xlink:href="#m048807bd67" x="0" y="345.6" style="fill: #ff00ff; fill-opacity: 0.1; stroke: #ff00ff; stroke-opacity: 0.1"/>
    </g>
   </g>
   <g id="matplotlib.axis_1">
    <g id="xtick_1">
     <g id="line2d_1">
      <defs>
       <path id="m04bc1f4991" d="M 0 0 
L 0 3.5 
" style="stroke: #000000; stroke-width: 0.8"/>
      </defs>
      <g>
       <use xlink:href="#m04bc1f4991" x="73.832727" y="307.584" style="stroke: #000000; stroke-width: 0.8"/>
      </g>
     </g>
     <g id="text_1">
      <!-- −5 -->
      <g transform="translate(66.461634 322.182437) scale(0.1 -0.1)">
       <defs>
        <path id="DejaVuSans-2212" d="M 678 2272 
L 4684 2272 
L 4684 1741 
L 678 1741 
L 678 2272 
z
" transform="scale(0.015625)"/>
        <path id="DejaVuSans-35" d="M 691 4666 
L 3169 4666 
L 3169 4134 
L 1269 4134 
L 1269 2991 
Q 1406 3038 1543 3061 
Q 1681 3084 1819 3084 
Q 2600 3084 3056 2656 
Q 3513 2228 3513 1497 
Q 3513 744 3044 326 
Q 2575 -91 1722 -91 
Q 1428 -91 1123 -41 
Q 819 9 494 109 
L 494 744 
Q 775 591 1075 516 
Q 1375 441 1709 441 
Q 2250 441 2565 725 
Q 2881 1009 2881 1497 
Q 2881 1984 2565 2268 
Q 2250 2553 1709 2553 
Q 1456 2553 1204 2497 
Q 953 2441 691 2322 
L 691 4666 
z
" transform="scale(0.015625)"/>
       </defs>
       <use xlink:href="#DejaVuSans-2212"/>
       <use xlink:href="#DejaVuSans-35" x="83.789062"/>
      </g>
     </g>
    </g>
    <g id="xtick_2">
     <g id="line2d_2">
      <g>
       <use xlink:href="#m04bc1f4991" x="95.54875" y="307.584" style="stroke: #000000; stroke-width: 0.8"/>
      </g>
     </g>
     <g id="text_2">
      <!-- −4 -->
      <g transform="translate(88.177657 322.182437) scale(0.1 -0.1)">
       <defs>
        <path id="DejaVuSans-34" d="M 2419 4116 
L 825 1625 
L 2419 1625 
L 2419 4116 
z
M 2253 4666 
L 3047 4666 
L 3047 1625 
L 3713 1625 
L 3713 1100 
L 3047 1100 
L 3047 0 
L 2419 0 
L 2419 1100 
L 313 1100 
L 313 1709 
L 2253 4666 
z
" transform="scale(0.015625)"/>
       </defs>
       <use xlink:href="#DejaVuSans-2212"/>
       <use xlink:href="#DejaVuSans-34" x="83.789062"/>
      </g>
     </g>
    </g>
    <g id="xtick_3">
     <g id="line2d_3">
      <g>
       <use xlink:href="#m04bc1f4991" x="117.264773" y="307.584" style="stroke: #000000; stroke-width: 0.8"/>
      </g>
     </g>
     <g id="text_3">
      <!-- −3 -->
      <g transform="translate(109.89368 322.182437) scale(0.1 -0.1)">
       <defs>
        <path id="DejaVuSans-33" d="M 2597 2516 
Q 3050 2419 3304 2112 
Q 3559 1806 3559 1356 
Q 3559 666 3084 287 
Q 2609 -91 1734 -91 
Q 1441 -91 1130 -33 
Q 819 25 488 141 
L 488 750 
Q 750 597 1062 519 
Q 1375 441 1716 441 
Q 2309 441 2620 675 
Q 2931 909 2931 1356 
Q 2931 1769 2642 2001 
Q 2353 2234 1838 2234 
L 1294 2234 
L 1294 2753 
L 1863 2753 
Q 2328 2753 2575 2939 
Q 2822 3125 2822 3475 
Q 2822 3834 2567 4026 
Q 2313 4219 1838 4219 
Q 1578 4219 1281 4162 
Q 984 4106 628 3988 
L 628 4550 
Q 988 4650 1302 4700 
Q 1616 4750 1894 4750 
Q 2613 4750 3031 4423 
Q 3450 4097 3450 3541 
Q 3450 3153 3228 2886 
Q 3006 2619 2597 2516 
z
" transform="scale(0.015625)"/>
       </defs>
       <use xlink:href="#DejaVuSans-2212"/>
       <use xlink:href="#DejaVuSans-33" x="83.789062"/>
      </g>
     </g>
    </g>
    <g id="xtick_4">
     <g id="line2d_4">
      <g>
       <use xlink:href="#m04bc1f4991" x="138.980797" y="307.584" style="stroke: #000000; stroke-width: 0.8"/>
      </g>
     </g>
     <g id="text_4">
      <!-- −2 -->
      <g transform="translate(131.609703 322.182437) scale(0.1 -0.1)">
       <defs>
        <path id="DejaVuSans-32" d="M 1228 531 
L 3431 531 
L 3431 0 
L 469 0 
L 469 531 
Q 828 903 1448 1529 
Q 2069 2156 2228 2338 
Q 2531 2678 2651 2914 
Q 2772 3150 2772 3378 
Q 2772 3750 2511 3984 
Q 2250 4219 1831 4219 
Q 1534 4219 1204 4116 
Q 875 4013 500 3803 
L 500 4441 
Q 881 4594 1212 4672 
Q 1544 4750 1819 4750 
Q 2544 4750 2975 4387 
Q 3406 4025 3406 3419 
Q 3406 3131 3298 2873 
Q 3191 2616 2906 2266 
Q 2828 2175 2409 1742 
Q 1991 1309 1228 531 
z
" transform="scale(0.015625)"/>
       </defs>
       <use xlink:href="#DejaVuSans-2212"/>
       <use xlink:href="#DejaVuSans-32" x="83.789062"/>
      </g>
     </g>
    </g>
    <g id="xtick_5">
     <g id="line2d_5">
      <g>
       <use xlink:href="#m04bc1f4991" x="160.69682" y="307.584" style="stroke: #000000; stroke-width: 0.8"/>
      </g>
     </g>
     <g id="text_5">
      <!-- −1 -->
      <g transform="translate(153.325726 322.182437) scale(0.1 -0.1)">
       <defs>
        <path id="DejaVuSans-31" d="M 794 531 
L 1825 531 
L 1825 4091 
L 703 3866 
L 703 4441 
L 1819 4666 
L 2450 4666 
L 2450 531 
L 3481 531 
L 3481 0 
L 794 0 
L 794 531 
z
" transform="scale(0.015625)"/>
       </defs>
       <use xlink:href="#DejaVuSans-2212"/>
       <use xlink:href="#DejaVuSans-31" x="83.789062"/>
      </g>
     </g>
    </g>
    <g id="xtick_6">
     <g id="line2d_6">
      <g>
       <use xlink:href="#m04bc1f4991" x="182.412843" y="307.584" style="stroke: #000000; stroke-width: 0.8"/>
      </g>
     </g>
     <g id="text_6">
      <!-- 0 -->
      <g transform="translate(179.231593 322.182437) scale(0.1 -0.1)">
       <defs>
        <path id="DejaVuSans-30" d="M 2034 4250 
Q 1547 4250 1301 3770 
Q 1056 3291 1056 2328 
Q 1056 1369 1301 889 
Q 1547 409 2034 409 
Q 2525 409 2770 889 
Q 3016 1369 3016 2328 
Q 3016 3291 2770 3770 
Q 2525 4250 2034 4250 
z
M 2034 4750 
Q 2819 4750 3233 4129 
Q 3647 3509 3647 2328 
Q 3647 1150 3233 529 
Q 2819 -91 2034 -91 
Q 1250 -91 836 529 
Q 422 1150 422 2328 
Q 422 3509 836 4129 
Q 1250 4750 2034 4750 
z
" transform="scale(0.015625)"/>
       </defs>
       <use xlink:href="#DejaVuSans-30"/>
      </g>
     </g>
    </g>
    <g id="xtick_7">
     <g id="line2d_7">
      <g>
       <use xlink:href="#m04bc1f4991" x="204.128866" y="307.584" style="stroke: #000000; stroke-width: 0.8"/>
      </g>
     </g>
     <g id="text_7">
      <!-- 1 -->
      <g transform="translate(200.947616 322.182437) scale(0.1 -0.1)">
       <use xlink:href="#DejaVuSans-31"/>
      </g>
     </g>
    </g>
    <g id="xtick_8">
     <g id="line2d_8">
      <g>
       <use xlink:href="#m04bc1f4991" x="225.844889" y="307.584" style="stroke: #000000; stroke-width: 0.8"/>
      </g>
     </g>
     <g id="text_8">
      <!-- 2 -->
      <g transform="translate(222.663639 322.182437) scale(0.1 -0.1)">
       <use xlink:href="#DejaVuSans-32"/>
      </g>
     </g>
    </g>
    <g id="xtick_9">
     <g id="line2d_9">
      <g>
       <use xlink:href="#m04bc1f4991" x="247.560912" y="307.584" style="stroke: #000000; stroke-width: 0.8"/>
      </g>
     </g>
     <g id="text_9">
      <!-- 3 -->
      <g transform="translate(244.379662 322.182437) scale(0.1 -0.1)">
       <use xlink:href="#DejaVuSans-33"/>
      </g>
     </g>
    </g>
    <g id="xtick_10">
     <g id="line2d_10">
      <g>
       <use xlink:href="#m04bc1f4991" x="269.276935" y="307.584" style="stroke: #000000; stroke-width: 0.8"/>
      </g>
     </g>
     <g id="text_10">
      <!-- 4 -->
      <g transform="translate(266.095685 322.182437) scale(0.1 -0.1)">
       <use xlink:href="#DejaVuSans-34"/>
      </g>
     </g>
    </g>
    <g id="xtick_11">
     <g id="line2d_11">
      <g>
       <use xlink:href="#m04bc1f4991" x="290.992958" y="307.584" style="stroke: #000000; stroke-width: 0.8"/>
      </g>
     </g>
     <g id="text_11">
      <!-- 5 -->
      <g transform="translate(287.811708 322.182437) scale(0.1 -0.1)">
       <use xlink:href="#DejaVuSans-35"/>
      </g>
     </g>
    </g>
    <g id="xtick_12">
     <g id="line2d_12">
      <g>
       <use xlink:href="#m04bc1f4991" x="312.708981" y="307.584" style="stroke: #000000; stroke-width: 0.8"/>
      </g>
     </g>
     <g id="text_12">
      <!-- 6 -->
      <g transform="translate(309.527731 322.182437) scale(0.1 -0.1)">
       <defs>
        <path id="DejaVuSans-36" d="M 2113 2584 
Q 1688 2584 1439 2293 
Q 1191 2003 1191 1497 
Q 1191 994 1439 701 
Q 1688 409 2113 409 
Q 2538 409 2786 701 
Q 3034 994 3034 1497 
Q 3034 2003 2786 2293 
Q 2538 2584 2113 2584 
z
M 3366 4563 
L 3366 3988 
Q 3128 4100 2886 4159 
Q 2644 4219 2406 4219 
Q 1781 4219 1451 3797 
Q 1122 3375 1075 2522 
Q 1259 2794 1537 2939 
Q 1816 3084 2150 3084 
Q 2853 3084 3261 2657 
Q 3669 2231 3669 1497 
Q 3669 778 3244 343 
Q 2819 -91 2113 -91 
Q 1303 -91 875 529 
Q 447 1150 447 2328 
Q 447 3434 972 4092 
Q 1497 4750 2381 4750 
Q 2619 4750 2861 4703 
Q 3103 4656 3366 4563 
z
" transform="scale(0.015625)"/>
       </defs>
       <use xlink:href="#DejaVuSans-36"/>
      </g>
     </g>
    </g>
    <g id="xtick_13">
     <g id="line2d_13">
      <g>
       <use xlink:href="#m04bc1f4991" x="334.425005" y="307.584" style="stroke: #000000; stroke-width: 0.8"/>
      </g>
     </g>
     <g id="text_13">
      <!-- 7 -->
      <g transform="translate(331.243755 322.182437) scale(0.1 -0.1)">
       <defs>
        <path id="DejaVuSans-37" d="M 525 4666 
L 3525 4666 
L 3525 4397 
L 1831 0 
L 1172 0 
L 2766 4134 
L 525 4134 
L 525 4666 
z
" transform="scale(0.015625)"/>
       </defs>
       <use xlink:href="#DejaVuSans-37"/>
      </g>
     </g>
    </g>
    <g id="xtick_14">
     <g id="line2d_14">
      <g>
       <use xlink:href="#m04bc1f4991" x="356.141028" y="307.584" style="stroke: #000000; stroke-width: 0.8"/>
      </g>
     </g>
     <g id="text_14">
      <!-- 8 -->
      <g transform="translate(352.959778 322.182437) scale(0.1 -0.1)">
       <defs>
        <path id="DejaVuSans-38" d="M 2034 2216 
Q 1584 2216 1326 1975 
Q 1069 1734 1069 1313 
Q 1069 891 1326 650 
Q 1584 409 2034 409 
Q 2484 409 2743 651 
Q 3003 894 3003 1313 
Q 3003 1734 2745 1975 
Q 2488 2216 2034 2216 
z
M 1403 2484 
Q 997 2584 770 2862 
Q 544 3141 544 3541 
Q 544 4100 942 4425 
Q 1341 4750 2034 4750 
Q 2731 4750 3128 4425 
Q 3525 4100 3525 3541 
Q 3525 3141 3298 2862 
Q 3072 2584 2669 2484 
Q 3125 2378 3379 2068 
Q 3634 1759 3634 1313 
Q 3634 634 3220 271 
Q 2806 -91 2034 -91 
Q 1263 -91 848 271 
Q 434 634 434 1313 
Q 434 1759 690 2068 
Q 947 2378 1403 2484 
z
M 1172 3481 
Q 1172 3119 1398 2916 
Q 1625 2713 2034 2713 
Q 2441 2713 2670 2916 
Q 2900 3119 2900 3481 
Q 2900 3844 2670 4047 
Q 2441 4250 2034 4250 
Q 1625 4250 1398 4047 
Q 1172 3844 1172 3481 
z
" transform="scale(0.015625)"/>
       </defs>
       <use xlink:href="#DejaVuSans-38"/>
      </g>
     </g>
    </g>
    <g id="xtick_15">
     <g id="line2d_15">
      <g>
       <use xlink:href="#m04bc1f4991" x="377.857051" y="307.584" style="stroke: #000000; stroke-width: 0.8"/>
      </g>
     </g>
     <g id="text_15">
      <!-- 9 -->
      <g transform="translate(374.675801 322.182437) scale(0.1 -0.1)">
       <defs>
        <path id="DejaVuSans-39" d="M 703 97 
L 703 672 
Q 941 559 1184 500 
Q 1428 441 1663 441 
Q 2288 441 2617 861 
Q 2947 1281 2994 2138 
Q 2813 1869 2534 1725 
Q 2256 1581 1919 1581 
Q 1219 1581 811 2004 
Q 403 2428 403 3163 
Q 403 3881 828 4315 
Q 1253 4750 1959 4750 
Q 2769 4750 3195 4129 
Q 3622 3509 3622 2328 
Q 3622 1225 3098 567 
Q 2575 -91 1691 -91 
Q 1453 -91 1209 -44 
Q 966 3 703 97 
z
M 1959 2075 
Q 2384 2075 2632 2365 
Q 2881 2656 2881 3163 
Q 2881 3666 2632 3958 
Q 2384 4250 1959 4250 
Q 1534 4250 1286 3958 
Q 1038 3666 1038 3163 
Q 1038 2656 1286 2365 
Q 1534 2075 1959 2075 
z
" transform="scale(0.015625)"/>
       </defs>
       <use xlink:href="#DejaVuSans-39"/>
      </g>
     </g>
    </g>
    <g id="xtick_16">
     <g id="line2d_16">
      <g>
       <use xlink:href="#m04bc1f4991" x="399.573074" y="307.584" style="stroke: #000000; stroke-width: 0.8"/>
      </g>
     </g>
     <g id="text_16">
      <!-- 10 -->
      <g transform="translate(393.210574 322.182437) scale(0.1 -0.1)">
       <use xlink:href="#DejaVuSans-31"/>
       <use xlink:href="#DejaVuSans-30" x="63.623047"/>
      </g>
     </g>
    </g>
    <g id="text_17">
     <!-- Time (s) -->
     <g transform="translate(215.831094 335.860562) scale(0.1 -0.1)">
      <defs>
       <path id="DejaVuSans-54" d="M -19 4666 
L 3928 4666 
L 3928 4134 
L 2272 4134 
L 2272 0 
L 1638 0 
L 1638 4134 
L -19 4134 
L -19 4666 
z
" transform="scale(0.015625)"/>
       <path id="DejaVuSans-69" d="M 603 3500 
L 1178 3500 
L 1178 0 
L 603 0 
L 603 3500 
z
M 603 4863 
L 1178 4863 
L 1178 4134 
L 603 4134 
L 603 4863 
z
" transform="scale(0.015625)"/>
       <path id="DejaVuSans-6d" d="M 3328 2828 
Q 3544 3216 3844 3400 
Q 4144 3584 4550 3584 
Q 5097 3584 5394 3201 
Q 5691 2819 5691 2113 
L 5691 0 
L 5113 0 
L 5113 2094 
Q 5113 2597 4934 2840 
Q 4756 3084 4391 3084 
Q 3944 3084 3684 2787 
Q 3425 2491 3425 1978 
L 3425 0 
L 2847 0 
L 2847 2094 
Q 2847 2600 2669 2842 
Q 2491 3084 2119 3084 
Q 1678 3084 1418 2786 
Q 1159 2488 1159 1978 
L 1159 0 
L 581 0 
L 581 3500 
L 1159 3500 
L 1159 2956 
Q 1356 3278 1631 3431 
Q 1906 3584 2284 3584 
Q 2666 3584 2933 3390 
Q 3200 3197 3328 2828 
z
" transform="scale(0.015625)"/>
       <path id="DejaVuSans-65" d="M 3597 1894 
L 3597 1613 
L 953 1613 
Q 991 1019 1311 708 
Q 1631 397 2203 397 
Q 2534 397 2845 478 
Q 3156 559 3463 722 
L 3463 178 
Q 3153 47 2828 -22 
Q 2503 -91 2169 -91 
Q 1331 -91 842 396 
Q 353 884 353 1716 
Q 353 2575 817 3079 
Q 1281 3584 2069 3584 
Q 2775 3584 3186 3129 
Q 3597 2675 3597 1894 
z
M 3022 2063 
Q 3016 2534 2758 2815 
Q 2500 3097 2075 3097 
Q 1594 3097 1305 2825 
Q 1016 2553 972 2059 
L 3022 2063 
z
" transform="scale(0.015625)"/>
       <path id="DejaVuSans-20" transform="scale(0.015625)"/>
       <path id="DejaVuSans-28" d="M 1984 4856 
Q 1566 4138 1362 3434 
Q 1159 2731 1159 2009 
Q 1159 1288 1364 580 
Q 1569 -128 1984 -844 
L 1484 -844 
Q 1016 -109 783 600 
Q 550 1309 550 2009 
Q 550 2706 781 3412 
Q 1013 4119 1484 4856 
L 1984 4856 
z
" transform="scale(0.015625)"/>
       <path id="DejaVuSans-73" d="M 2834 3397 
L 2834 2853 
Q 2591 2978 2328 3040 
Q 2066 3103 1784 3103 
Q 1356 3103 1142 2972 
Q 928 2841 928 2578 
Q 928 2378 1081 2264 
Q 1234 2150 1697 2047 
L 1894 2003 
Q 2506 1872 2764 1633 
Q 3022 1394 3022 966 
Q 3022 478 2636 193 
Q 2250 -91 1575 -91 
Q 1294 -91 989 -36 
Q 684 19 347 128 
L 347 722 
Q 666 556 975 473 
Q 1284 391 1588 391 
Q 1994 391 2212 530 
Q 2431 669 2431 922 
Q 2431 1156 2273 1281 
Q 2116 1406 1581 1522 
L 1381 1569 
Q 847 1681 609 1914 
Q 372 2147 372 2553 
Q 372 3047 722 3315 
Q 1072 3584 1716 3584 
Q 2034 3584 2315 3537 
Q 2597 3491 2834 3397 
z
" transform="scale(0.015625)"/>
       <path id="DejaVuSans-29" d="M 513 4856 
L 1013 4856 
Q 1481 4119 1714 3412 
Q 1947 2706 1947 2009 
Q 1947 1309 1714 600 
Q 1481 -109 1013 -844 
L 513 -844 
Q 928 -128 1133 580 
Q 1338 1288 1338 2009 
Q 1338 2731 1133 3434 
Q 928 4138 513 4856 
z
" transform="scale(0.015625)"/>
      </defs>
      <use xlink:href="#DejaVuSans-54"/>
      <use xlink:href="#DejaVuSans-69" x="57.958984"/>
      <use xlink:href="#DejaVuSans-6d" x="85.742188"/>
      <use xlink:href="#DejaVuSans-65" x="183.154297"/>
      <use xlink:href="#DejaVuSans-20" x="244.677734"/>
      <use xlink:href="#DejaVuSans-28" x="276.464844"/>
      <use xlink:href="#DejaVuSans-73" x="315.478516"/>
      <use xlink:href="#DejaVuSans-29" x="367.578125"/>
     </g>
    </g>
   </g>
   <g id="matplotlib.axis_2">
    <g id="ytick_1">
     <g id="line2d_17">
      <defs>
       <path id="mebc4f38139" d="M 0 0 
L -3.5 0 
" style="stroke: #000000; stroke-width: 0.8"/>
      </defs>
      <g>
       <use xlink:href="#mebc4f38139" x="57.6" y="273.457734" style="stroke: #000000; stroke-width: 0.8"/>
      </g>
     </g>
     <g id="text_18">
      <!-- −0.5 -->
      <g transform="translate(26.317187 277.256952) scale(0.1 -0.1)">
       <defs>
        <path id="DejaVuSans-2e" d="M 684 794 
L 1344 794 
L 1344 0 
L 684 0 
L 684 794 
z
" transform="scale(0.015625)"/>
       </defs>
       <use xlink:href="#DejaVuSans-2212"/>
       <use xlink:href="#DejaVuSans-30" x="83.789062"/>
       <use xlink:href="#DejaVuSans-2e" x="147.412109"/>
       <use xlink:href="#DejaVuSans-35" x="179.199219"/>
      </g>
     </g>
    </g>
    <g id="ytick_2">
     <g id="line2d_18">
      <g>
       <use xlink:href="#mebc4f38139" x="57.6" y="222.542431" style="stroke: #000000; stroke-width: 0.8"/>
      </g>
     </g>
     <g id="text_19">
      <!-- 0.0 -->
      <g transform="translate(34.696875 226.34165) scale(0.1 -0.1)">
       <use xlink:href="#DejaVuSans-30"/>
       <use xlink:href="#DejaVuSans-2e" x="63.623047"/>
       <use xlink:href="#DejaVuSans-30" x="95.410156"/>
      </g>
     </g>
    </g>
    <g id="ytick_3">
     <g id="line2d_19">
      <g>
       <use xlink:href="#mebc4f38139" x="57.6" y="171.627128" style="stroke: #000000; stroke-width: 0.8"/>
      </g>
     </g>
     <g id="text_20">
      <!-- 0.5 -->
      <g transform="translate(34.696875 175.426347) scale(0.1 -0.1)">
       <use xlink:href="#DejaVuSans-30"/>
       <use xlink:href="#DejaVuSans-2e" x="63.623047"/>
       <use xlink:href="#DejaVuSans-35" x="95.410156"/>
      </g>
     </g>
    </g>
    <g id="ytick_4">
     <g id="line2d_20">
      <g>
       <use xlink:href="#mebc4f38139" x="57.6" y="120.711825" style="stroke: #000000; stroke-width: 0.8"/>
      </g>
     </g>
     <g id="text_21">
      <!-- 1.0 -->
      <g transform="translate(34.696875 124.511044) scale(0.1 -0.1)">
       <use xlink:href="#DejaVuSans-31"/>
       <use xlink:href="#DejaVuSans-2e" x="63.623047"/>
       <use xlink:href="#DejaVuSans-30" x="95.410156"/>
      </g>
     </g>
    </g>
    <g id="ytick_5">
     <g id="line2d_21">
      <g>
       <use xlink:href="#mebc4f38139" x="57.6" y="69.796523" style="stroke: #000000; stroke-width: 0.8"/>
      </g>
     </g>
     <g id="text_22">
      <!-- 1.5 -->
      <g transform="translate(34.696875 73.595741) scale(0.1 -0.1)">
       <use xlink:href="#DejaVuSans-31"/>
       <use xlink:href="#DejaVuSans-2e" x="63.623047"/>
       <use xlink:href="#DejaVuSans-35" x="95.410156"/>
      </g>
     </g>
    </g>
    <g id="text_23">
     <!-- Z-Score -->
     <g transform="translate(20.2375 193.67175) rotate(-90) scale(0.1 -0.1)">
      <defs>
       <path id="DejaVuSans-5a" d="M 359 4666 
L 4025 4666 
L 4025 4184 
L 1075 531 
L 4097 531 
L 4097 0 
L 288 0 
L 288 481 
L 3238 4134 
L 359 4134 
L 359 4666 
z
" transform="scale(0.015625)"/>
       <path id="DejaVuSans-2d" d="M 313 2009 
L 1997 2009 
L 1997 1497 
L 313 1497 
L 313 2009 
z
" transform="scale(0.015625)"/>
       <path id="DejaVuSans-53" d="M 3425 4513 
L 3425 3897 
Q 3066 4069 2747 4153 
Q 2428 4238 2131 4238 
Q 1616 4238 1336 4038 
Q 1056 3838 1056 3469 
Q 1056 3159 1242 3001 
Q 1428 2844 1947 2747 
L 2328 2669 
Q 3034 2534 3370 2195 
Q 3706 1856 3706 1288 
Q 3706 609 3251 259 
Q 2797 -91 1919 -91 
Q 1588 -91 1214 -16 
Q 841 59 441 206 
L 441 856 
Q 825 641 1194 531 
Q 1563 422 1919 422 
Q 2459 422 2753 634 
Q 3047 847 3047 1241 
Q 3047 1584 2836 1778 
Q 2625 1972 2144 2069 
L 1759 2144 
Q 1053 2284 737 2584 
Q 422 2884 422 3419 
Q 422 4038 858 4394 
Q 1294 4750 2059 4750 
Q 2388 4750 2728 4690 
Q 3069 4631 3425 4513 
z
" transform="scale(0.015625)"/>
       <path id="DejaVuSans-63" d="M 3122 3366 
L 3122 2828 
Q 2878 2963 2633 3030 
Q 2388 3097 2138 3097 
Q 1578 3097 1268 2742 
Q 959 2388 959 1747 
Q 959 1106 1268 751 
Q 1578 397 2138 397 
Q 2388 397 2633 464 
Q 2878 531 3122 666 
L 3122 134 
Q 2881 22 2623 -34 
Q 2366 -91 2075 -91 
Q 1284 -91 818 406 
Q 353 903 353 1747 
Q 353 2603 823 3093 
Q 1294 3584 2113 3584 
Q 2378 3584 2631 3529 
Q 2884 3475 3122 3366 
z
" transform="scale(0.015625)"/>
       <path id="DejaVuSans-6f" d="M 1959 3097 
Q 1497 3097 1228 2736 
Q 959 2375 959 1747 
Q 959 1119 1226 758 
Q 1494 397 1959 397 
Q 2419 397 2687 759 
Q 2956 1122 2956 1747 
Q 2956 2369 2687 2733 
Q 2419 3097 1959 3097 
z
M 1959 3584 
Q 2709 3584 3137 3096 
Q 3566 2609 3566 1747 
Q 3566 888 3137 398 
Q 2709 -91 1959 -91 
Q 1206 -91 779 398 
Q 353 888 353 1747 
Q 353 2609 779 3096 
Q 1206 3584 1959 3584 
z
" transform="scale(0.015625)"/>
       <path id="DejaVuSans-72" d="M 2631 2963 
Q 2534 3019 2420 3045 
Q 2306 3072 2169 3072 
Q 1681 3072 1420 2755 
Q 1159 2438 1159 1844 
L 1159 0 
L 581 0 
L 581 3500 
L 1159 3500 
L 1159 2956 
Q 1341 3275 1631 3429 
Q 1922 3584 2338 3584 
Q 2397 3584 2469 3576 
Q 2541 3569 2628 3553 
L 2631 2963 
z
" transform="scale(0.015625)"/>
      </defs>
      <use xlink:href="#DejaVuSans-5a"/>
      <use xlink:href="#DejaVuSans-2d" x="66.755859"/>
      <use xlink:href="#DejaVuSans-53" x="102.839844"/>
      <use xlink:href="#DejaVuSans-63" x="166.316406"/>
      <use xlink:href="#DejaVuSans-6f" x="221.296875"/>
      <use xlink:href="#DejaVuSans-72" x="282.478516"/>
      <use xlink:href="#DejaVuSans-65" x="321.341797"/>
     </g>
    </g>
   </g>
   <g id="line2d_22">
    <path d="M 73.832727 232.748616 
L 74.918528 232.761291 
L 76.00433 233.464302 
L 77.090131 233.334595 
L 78.175932 233.933977 
L 79.261733 233.937073 
L 81.433335 233.71957 
L 82.519137 234.348945 
L 83.604938 233.860735 
L 85.77654 233.29668 
L 86.862341 233.698817 
L 87.948142 233.740512 
L 89.033943 233.642465 
L 90.119745 231.941685 
L 91.205546 230.899354 
L 93.377148 228.027887 
L 94.462949 226.958938 
L 95.54875 225.191468 
L 97.720353 224.584069 
L 98.806154 224.391791 
L 99.891955 223.246388 
L 100.977756 222.89803 
L 102.063557 222.079394 
L 104.23516 221.238182 
L 105.320961 220.65646 
L 106.406762 219.412853 
L 107.492563 219.160461 
L 108.578364 218.769343 
L 109.664165 218.072534 
L 110.749967 218.003747 
L 112.921569 216.557155 
L 114.00737 216.179679 
L 115.093171 216.261782 
L 116.178972 215.905081 
L 117.264773 216.680799 
L 118.350575 216.971459 
L 119.436376 217.110953 
L 120.522177 217.544066 
L 121.607978 217.525262 
L 122.693779 218.729812 
L 123.77958 218.861357 
L 124.865382 220.00856 
L 125.951183 220.841502 
L 127.036984 221.261992 
L 128.122785 222.592969 
L 129.208586 224.431102 
L 130.294387 225.575683 
L 131.380189 226.161977 
L 132.46599 226.030818 
L 133.551791 226.360523 
L 134.637592 227.49989 
L 136.809194 228.858864 
L 137.894995 229.266201 
L 141.152399 228.383355 
L 142.2382 227.664546 
L 143.324001 228.094172 
L 144.409802 227.89585 
L 145.495604 226.984713 
L 146.581405 225.677052 
L 147.667206 225.71078 
L 148.753007 226.122653 
L 149.838808 225.754301 
L 150.924609 225.23915 
L 152.01041 225.067252 
L 153.096212 224.322708 
L 154.182013 224.760149 
L 155.267814 223.748934 
L 156.353615 224.04119 
L 157.439416 223.922617 
L 158.525217 223.500828 
L 159.611019 224.004534 
L 160.69682 222.596376 
L 161.782621 222.24745 
L 162.868422 220.898764 
L 163.954223 220.418469 
L 165.040024 219.06521 
L 167.211627 217.622018 
L 169.383229 215.558185 
L 170.46903 215.103271 
L 172.640632 212.027004 
L 173.726434 210.688899 
L 175.898036 205.5106 
L 176.983837 203.434686 
L 180.24124 195.350291 
L 181.327042 191.591485 
L 182.412843 184.6553 
L 183.498644 181.129711 
L 185.670246 172.643191 
L 186.756047 169.318379 
L 190.013451 158.278926 
L 194.356656 140.433055 
L 196.528258 132.598908 
L 198.69986 123.453494 
L 199.785661 119.334676 
L 200.871462 115.764144 
L 204.128866 107.486409 
L 205.214667 104.853861 
L 206.300468 102.539611 
L 207.386269 100.566745 
L 208.472071 99.608341 
L 209.557872 98.379219 
L 210.643673 97.324204 
L 211.729474 96.442486 
L 212.815275 95.871347 
L 213.901076 95.494047 
L 214.986877 94.831612 
L 216.072679 94.621947 
L 217.15848 93.895178 
L 218.244281 94.330137 
L 219.330082 93.927119 
L 220.415883 93.712675 
L 221.501684 93.810761 
L 222.587486 94.199668 
L 223.673287 95.337225 
L 224.759088 95.50488 
L 225.844889 96.850619 
L 226.93069 97.705748 
L 228.016491 99.463682 
L 229.102292 100.128099 
L 231.273895 102.655974 
L 234.531298 107.707853 
L 235.617099 110.882317 
L 236.702901 113.048797 
L 237.788702 117.312961 
L 239.960304 124.123709 
L 241.046105 127.641298 
L 242.131906 130.682025 
L 244.303509 138.630948 
L 246.475111 147.342175 
L 247.560912 151.67586 
L 249.732514 160.900688 
L 251.904117 168.779615 
L 252.989918 172.357624 
L 254.075719 175.528847 
L 259.504725 196.009728 
L 260.590526 200.830542 
L 262.762128 209.437432 
L 263.847929 213.872782 
L 267.105333 225.442986 
L 269.276935 232.055008 
L 270.362736 234.613274 
L 271.448538 236.813106 
L 272.534339 238.181426 
L 273.62014 240.341405 
L 274.705941 241.669101 
L 275.791742 242.435218 
L 276.877543 242.919479 
L 277.963344 243.663618 
L 280.134947 246.418247 
L 281.220748 247.465877 
L 282.306549 248.141079 
L 283.39235 249.215689 
L 285.563953 252.020107 
L 286.649754 252.970905 
L 287.735555 253.612789 
L 289.907157 255.980528 
L 290.992958 257.410767 
L 292.07876 257.753241 
L 293.164561 258.837823 
L 294.250362 259.539143 
L 295.336163 260.681959 
L 296.421964 261.201686 
L 298.593566 261.084333 
L 299.679368 260.061452 
L 300.765169 260.748012 
L 301.85097 259.268765 
L 302.936771 258.564085 
L 304.022572 257.995943 
L 305.108373 256.937124 
L 306.194175 256.274771 
L 307.279976 255.745578 
L 308.365777 254.718899 
L 309.451578 253.527954 
L 310.537379 252.686968 
L 313.794783 251.513922 
L 314.880584 251.607942 
L 315.966385 251.37162 
L 317.052186 250.852787 
L 318.137987 250.832156 
L 319.223788 250.62 
L 320.30959 250.284013 
L 321.395391 250.112884 
L 322.481192 249.074229 
L 323.566993 248.946788 
L 324.652794 248.369828 
L 325.738595 248.712863 
L 326.824396 248.550108 
L 327.910198 248.523768 
L 328.995999 247.852425 
L 330.0818 247.861936 
L 331.167601 247.267457 
L 332.253402 247.280175 
L 333.339203 246.972788 
L 334.425005 246.986317 
L 335.510806 246.52698 
L 336.596607 246.970361 
L 337.682408 245.952686 
L 339.85401 244.337561 
L 340.939811 244.128988 
L 342.025613 243.228896 
L 343.111414 241.502149 
L 345.283016 239.039185 
L 346.368817 238.045602 
L 347.454618 236.20175 
L 348.54042 235.088712 
L 349.626221 234.270763 
L 350.712022 232.523459 
L 351.797823 231.397073 
L 352.883624 230.751978 
L 353.969425 229.153765 
L 357.226829 225.360831 
L 360.484232 221.841037 
L 361.570033 221.063313 
L 363.741636 220.59777 
L 364.827437 220.038942 
L 365.913238 219.893994 
L 366.999039 219.19239 
L 368.08484 218.220107 
L 369.170642 218.124399 
L 370.256443 217.471939 
L 371.342244 216.185949 
L 373.513846 214.017684 
L 374.599647 212.239317 
L 375.685448 209.971751 
L 377.857051 206.025364 
L 378.942852 203.644593 
L 380.028653 202.384351 
L 382.200255 200.243071 
L 383.286057 198.231363 
L 384.371858 196.643273 
L 385.457659 195.964464 
L 387.629261 193.604913 
L 388.715062 191.632997 
L 389.800863 190.902449 
L 391.972466 187.974038 
L 393.058267 186.824486 
L 394.144068 185.179651 
L 395.229869 183.751837 
L 396.31567 181.72609 
L 397.401472 180.640729 
L 398.487273 178.921178 
L 398.487273 178.921178 
" clip-path="url(#pb5253e974d)" style="fill: none; stroke: #ff00ff; stroke-width: 1.5; stroke-linecap: square"/>
   </g>
   <g id="line2d_23">
    <path d="M 182.412843 307.584 
L 182.412843 41.472 
" clip-path="url(#pb5253e974d)" style="fill: none; stroke: #000000; stroke-width: 1.5; stroke-linecap: square"/>
   </g>
   <g id="patch_3">
    <path d="M 57.6 307.584 
L 57.6 41.472 
" style="fill: none; stroke: #000000; stroke-width: 0.8; stroke-linejoin: miter; stroke-linecap: square"/>
   </g>
   <g id="patch_4">
    <path d="M 414.72 307.584 
L 414.72 41.472 
" style="fill: none; stroke: #000000; stroke-width: 0.8; stroke-linejoin: miter; stroke-linecap: square"/>
   </g>
   <g id="patch_5">
    <path d="M 57.6 307.584 
L 414.72 307.584 
" style="fill: none; stroke: #000000; stroke-width: 0.8; stroke-linejoin: miter; stroke-linecap: square"/>
   </g>
   <g id="patch_6">
    <path d="M 57.6 41.472 
L 414.72 41.472 
" style="fill: none; stroke: #000000; stroke-width: 0.8; stroke-linejoin: miter; stroke-linecap: square"/>
   </g>
   <g id="text_24">
    <!-- Group 3_p=0.279 -->
    <g transform="translate(183.158437 35.472) scale(0.12 -0.12)">
     <defs>
      <path id="DejaVuSans-47" d="M 3809 666 
L 3809 1919 
L 2778 1919 
L 2778 2438 
L 4434 2438 
L 4434 434 
Q 4069 175 3628 42 
Q 3188 -91 2688 -91 
Q 1594 -91 976 548 
Q 359 1188 359 2328 
Q 359 3472 976 4111 
Q 1594 4750 2688 4750 
Q 3144 4750 3555 4637 
Q 3966 4525 4313 4306 
L 4313 3634 
Q 3963 3931 3569 4081 
Q 3175 4231 2741 4231 
Q 1884 4231 1454 3753 
Q 1025 3275 1025 2328 
Q 1025 1384 1454 906 
Q 1884 428 2741 428 
Q 3075 428 3337 486 
Q 3600 544 3809 666 
z
" transform="scale(0.015625)"/>
      <path id="DejaVuSans-75" d="M 544 1381 
L 544 3500 
L 1119 3500 
L 1119 1403 
Q 1119 906 1312 657 
Q 1506 409 1894 409 
Q 2359 409 2629 706 
Q 2900 1003 2900 1516 
L 2900 3500 
L 3475 3500 
L 3475 0 
L 2900 0 
L 2900 538 
Q 2691 219 2414 64 
Q 2138 -91 1772 -91 
Q 1169 -91 856 284 
Q 544 659 544 1381 
z
M 1991 3584 
L 1991 3584 
z
" transform="scale(0.015625)"/>
      <path id="DejaVuSans-70" d="M 1159 525 
L 1159 -1331 
L 581 -1331 
L 581 3500 
L 1159 3500 
L 1159 2969 
Q 1341 3281 1617 3432 
Q 1894 3584 2278 3584 
Q 2916 3584 3314 3078 
Q 3713 2572 3713 1747 
Q 3713 922 3314 415 
Q 2916 -91 2278 -91 
Q 1894 -91 1617 61 
Q 1341 213 1159 525 
z
M 3116 1747 
Q 3116 2381 2855 2742 
Q 2594 3103 2138 3103 
Q 1681 3103 1420 2742 
Q 1159 2381 1159 1747 
Q 1159 1113 1420 752 
Q 1681 391 2138 391 
Q 2594 391 2855 752 
Q 3116 1113 3116 1747 
z
" transform="scale(0.015625)"/>
      <path id="DejaVuSans-5f" d="M 3263 -1063 
L 3263 -1509 
L -63 -1509 
L -63 -1063 
L 3263 -1063 
z
" transform="scale(0.015625)"/>
      <path id="DejaVuSans-3d" d="M 678 2906 
L 4684 2906 
L 4684 2381 
L 678 2381 
L 678 2906 
z
M 678 1631 
L 4684 1631 
L 4684 1100 
L 678 1100 
L 678 1631 
z
" transform="scale(0.015625)"/>
     </defs>
     <use xlink:href="#DejaVuSans-47"/>
     <use xlink:href="#DejaVuSans-72" x="77.490234"/>
     <use xlink:href="#DejaVuSans-6f" x="116.353516"/>
     <use xlink:href="#DejaVuSans-75" x="177.535156"/>
     <use xlink:href="#DejaVuSans-70" x="240.914062"/>
     <use xlink:href="#DejaVuSans-20" x="304.390625"/>
     <use xlink:href="#DejaVuSans-33" x="336.177734"/>
     <use xlink:href="#DejaVuSans-5f" x="399.800781"/>
     <use xlink:href="#DejaVuSans-70" x="449.800781"/>
     <use xlink:href="#DejaVuSans-3d" x="513.277344"/>
     <use xlink:href="#DejaVuSans-30" x="597.066406"/>
     <use xlink:href="#DejaVuSans-2e" x="660.689453"/>
     <use xlink:href="#DejaVuSans-32" x="692.476562"/>
     <use xlink:href="#DejaVuSans-37" x="756.099609"/>
     <use xlink:href="#DejaVuSans-39" x="819.722656"/>
    </g>
   </g>
  </g>
 </g>
 <defs>
  <clipPath id="pb5253e974d">
   <rect x="57.6" y="41.472" width="357.12" height="266.112"/>
  </clipPath>
 </defs>
</svg>
