<?xml version="1.0" encoding="utf-8" standalone="no"?>
<!DOCTYPE svg PUBLIC "-//W3C//DTD SVG 1.1//EN"
  "http://www.w3.org/Graphics/SVG/1.1/DTD/svg11.dtd">
<svg xmlns:xlink="http://www.w3.org/1999/xlink" width="460.8pt" height="345.6pt" viewBox="0 0 460.8 345.6" xmlns="http://www.w3.org/2000/svg" version="1.1">
 <metadata>
  <rdf:RDF xmlns:dc="http://purl.org/dc/elements/1.1/" xmlns:cc="http://creativecommons.org/ns#" xmlns:rdf="http://www.w3.org/1999/02/22-rdf-syntax-ns#">
   <cc:Work>
    <dc:type rdf:resource="http://purl.org/dc/dcmitype/StillImage"/>
    <dc:date>2024-11-14T18:55:12.514538</dc:date>
    <dc:format>image/svg+xml</dc:format>
    <dc:creator>
     <cc:Agent>
      <dc:title>Matplotlib v3.8.2, https://matplotlib.org/</dc:title>
     </cc:Agent>
    </dc:creator>
   </cc:Work>
  </rdf:RDF>
 </metadata>
 <defs>
  <style type="text/css">*{stroke-linejoin: round; stroke-linecap: butt}</style>
 </defs>
 <g id="figure_1">
  <g id="patch_1">
   <path d="M 0 345.6 
L 460.8 345.6 
L 460.8 0 
L 0 0 
z
" style="fill: #ffffff"/>
  </g>
  <g id="axes_1">
   <g id="patch_2">
    <path d="M 57.6 307.584 
L 414.72 307.584 
L 414.72 41.472 
L 57.6 41.472 
z
" style="fill: #ffffff"/>
   </g>
   <g id="PolyCollection_1">
    <defs>
     <path id="m22fe44c031" d="M 73.832727 -232.222165 
L 73.832727 -192.24308 
L 74.918528 -192.865281 
L 76.00433 -191.989896 
L 77.090131 -190.428614 
L 78.175932 -190.18977 
L 79.261733 -191.772213 
L 80.347534 -191.08354 
L 81.433335 -189.720879 
L 82.519137 -188.467217 
L 83.604938 -185.836222 
L 84.690739 -184.613732 
L 85.77654 -183.977335 
L 86.862341 -182.612332 
L 87.948142 -180.364247 
L 89.033943 -178.810472 
L 90.119745 -176.034054 
L 91.205546 -175.270908 
L 92.291347 -174.68916 
L 93.377148 -174.710911 
L 94.462949 -171.846204 
L 95.54875 -172.149948 
L 96.634552 -170.860586 
L 97.720353 -173.022796 
L 98.806154 -172.525189 
L 99.891955 -170.811223 
L 100.977756 -170.273144 
L 102.063557 -168.188252 
L 103.149358 -166.911249 
L 104.23516 -165.63598 
L 105.320961 -165.820028 
L 106.406762 -165.529556 
L 107.492563 -164.167827 
L 108.578364 -163.84186 
L 109.664165 -163.67801 
L 110.749967 -163.983241 
L 111.835768 -163.95585 
L 112.921569 -163.630082 
L 114.00737 -161.955178 
L 115.093171 -162.301369 
L 116.178972 -162.992215 
L 117.264773 -163.235183 
L 118.350575 -163.822922 
L 119.436376 -162.406835 
L 120.522177 -161.757487 
L 121.607978 -159.759814 
L 122.693779 -158.663707 
L 123.77958 -158.353004 
L 124.865382 -157.34492 
L 125.951183 -156.349074 
L 127.036984 -156.926336 
L 128.122785 -156.689191 
L 129.208586 -156.715039 
L 130.294387 -158.316168 
L 131.380189 -158.243382 
L 132.46599 -155.819305 
L 133.551791 -154.728822 
L 134.637592 -154.17839 
L 135.723393 -155.558479 
L 136.809194 -153.288763 
L 137.894995 -154.505975 
L 138.980797 -153.677255 
L 140.066598 -154.39681 
L 141.152399 -156.48784 
L 142.2382 -156.57004 
L 143.324001 -153.730614 
L 144.409802 -154.05899 
L 145.495604 -155.440353 
L 146.581405 -156.169734 
L 147.667206 -157.228125 
L 148.753007 -157.120846 
L 149.838808 -157.528068 
L 150.924609 -157.796792 
L 152.01041 -158.163624 
L 153.096212 -159.831803 
L 154.182013 -161.186991 
L 155.267814 -161.970724 
L 156.353615 -164.058174 
L 157.439416 -166.490225 
L 158.525217 -168.779202 
L 159.611019 -169.568167 
L 160.69682 -170.379684 
L 161.782621 -171.289147 
L 162.868422 -171.411607 
L 163.954223 -173.377484 
L 165.040024 -172.482314 
L 166.125825 -172.923271 
L 167.211627 -174.067858 
L 168.297428 -173.419446 
L 169.383229 -173.693785 
L 170.46903 -173.176915 
L 171.554831 -172.897671 
L 172.640632 -173.120408 
L 173.726434 -172.634432 
L 174.812235 -168.754353 
L 175.898036 -169.70494 
L 176.983837 -171.41296 
L 178.069638 -173.131686 
L 179.155439 -171.712781 
L 180.24124 -171.792363 
L 181.327042 -173.162044 
L 182.412843 -174.847104 
L 183.498644 -176.650146 
L 184.584445 -179.436897 
L 185.670246 -180.897967 
L 186.756047 -183.794286 
L 187.841849 -186.823955 
L 188.92765 -189.256115 
L 190.013451 -189.64855 
L 191.099252 -191.177966 
L 192.185053 -193.039361 
L 193.270854 -193.57601 
L 194.356656 -195.23335 
L 195.442457 -196.746131 
L 196.528258 -198.847214 
L 197.614059 -200.568923 
L 198.69986 -200.426306 
L 199.785661 -201.862424 
L 200.871462 -201.352166 
L 201.957264 -201.792854 
L 203.043065 -200.517837 
L 204.128866 -199.541499 
L 205.214667 -198.148582 
L 206.300468 -199.742912 
L 207.386269 -198.179677 
L 208.472071 -198.286821 
L 209.557872 -198.099008 
L 210.643673 -196.446328 
L 211.729474 -196.285964 
L 212.815275 -196.34505 
L 213.901076 -197.297837 
L 214.986877 -196.852068 
L 216.072679 -196.396924 
L 217.15848 -197.430311 
L 218.244281 -197.832755 
L 219.330082 -196.656863 
L 220.415883 -194.85716 
L 221.501684 -194.101878 
L 222.587486 -192.426801 
L 223.673287 -192.840825 
L 224.759088 -191.551386 
L 225.844889 -190.579268 
L 226.93069 -189.605123 
L 228.016491 -191.080362 
L 229.102292 -190.47603 
L 230.188094 -189.123416 
L 231.273895 -188.388281 
L 232.359696 -187.400705 
L 233.445497 -187.012405 
L 234.531298 -186.415096 
L 235.617099 -184.845623 
L 236.702901 -183.360446 
L 237.788702 -184.677596 
L 238.874503 -181.898016 
L 239.960304 -180.264725 
L 241.046105 -179.10349 
L 242.131906 -179.488995 
L 243.217708 -180.407921 
L 244.303509 -179.130485 
L 245.38931 -179.809751 
L 246.475111 -179.273452 
L 247.560912 -178.174309 
L 248.646713 -177.721522 
L 249.732514 -175.48994 
L 250.818316 -172.402479 
L 251.904117 -169.783139 
L 252.989918 -165.677661 
L 254.075719 -164.316116 
L 255.16152 -162.555155 
L 256.247321 -160.520443 
L 257.333123 -158.469938 
L 258.418924 -156.359401 
L 259.504725 -154.754968 
L 260.590526 -150.640449 
L 261.676327 -148.691299 
L 262.762128 -146.977568 
L 263.847929 -145.011919 
L 264.933731 -141.84525 
L 266.019532 -141.27385 
L 267.105333 -139.934112 
L 268.191134 -137.431633 
L 269.276935 -137.637029 
L 270.362736 -136.024218 
L 271.448538 -135.779549 
L 272.534339 -134.734689 
L 273.62014 -134.351923 
L 274.705941 -134.726339 
L 275.791742 -132.64388 
L 276.877543 -132.506293 
L 277.963344 -132.06787 
L 279.049146 -132.96025 
L 280.134947 -133.043028 
L 281.220748 -132.167775 
L 282.306549 -131.453347 
L 283.39235 -131.808071 
L 284.478151 -132.225369 
L 285.563953 -132.003133 
L 286.649754 -131.259478 
L 287.735555 -130.37105 
L 288.821356 -130.827788 
L 289.907157 -131.492855 
L 290.992958 -130.926551 
L 292.07876 -128.845438 
L 293.164561 -130.190969 
L 294.250362 -131.087726 
L 295.336163 -132.302316 
L 296.421964 -132.298541 
L 297.507765 -133.242563 
L 298.593566 -134.076709 
L 299.679368 -135.216443 
L 300.765169 -135.292906 
L 301.85097 -135.251188 
L 302.936771 -136.752163 
L 304.022572 -136.755238 
L 305.108373 -136.801829 
L 306.194175 -136.293247 
L 307.279976 -133.943816 
L 308.365777 -134.699636 
L 309.451578 -133.788573 
L 310.537379 -133.091401 
L 311.62318 -133.713182 
L 312.708981 -133.109176 
L 313.794783 -135.380469 
L 314.880584 -134.983233 
L 315.966385 -136.042144 
L 317.052186 -137.538708 
L 318.137987 -136.582902 
L 319.223788 -135.964836 
L 320.30959 -135.82382 
L 321.395391 -136.043052 
L 322.481192 -134.336361 
L 323.566993 -133.61813 
L 324.652794 -135.501204 
L 325.738595 -135.658457 
L 326.824396 -136.134788 
L 327.910198 -135.618058 
L 328.995999 -135.855123 
L 330.0818 -134.240335 
L 331.167601 -133.325506 
L 332.253402 -132.791177 
L 333.339203 -131.384786 
L 334.425005 -130.035003 
L 335.510806 -129.510587 
L 336.596607 -126.393178 
L 337.682408 -123.753569 
L 338.768209 -122.301078 
L 339.85401 -120.735243 
L 340.939811 -118.182674 
L 342.025613 -115.594581 
L 343.111414 -112.320862 
L 344.197215 -111.365434 
L 345.283016 -110.508373 
L 346.368817 -108.046621 
L 347.454618 -106.666923 
L 348.54042 -106.325822 
L 349.626221 -104.649602 
L 350.712022 -103.39973 
L 351.797823 -102.797308 
L 352.883624 -101.169279 
L 353.969425 -98.561913 
L 355.055227 -96.935132 
L 356.141028 -96.433666 
L 357.226829 -94.516814 
L 358.31263 -90.819232 
L 359.398431 -88.302339 
L 360.484232 -86.421083 
L 361.570033 -83.726809 
L 362.655835 -79.793184 
L 363.741636 -77.737943 
L 364.827437 -74.881042 
L 365.913238 -72.813417 
L 366.999039 -71.217115 
L 368.08484 -68.724151 
L 369.170642 -67.506423 
L 370.256443 -66.176273 
L 371.342244 -63.846264 
L 372.428045 -60.818955 
L 373.513846 -60.966913 
L 374.599647 -60.167552 
L 375.685448 -58.10376 
L 376.77125 -56.372926 
L 377.857051 -53.634706 
L 378.942852 -53.307169 
L 380.028653 -51.836829 
L 381.114454 -51.801305 
L 382.200255 -50.981638 
L 383.286057 -50.112 
L 384.371858 -50.430739 
L 385.457659 -50.431031 
L 386.54346 -51.785612 
L 387.629261 -52.897019 
L 388.715062 -52.927791 
L 389.800863 -53.782875 
L 390.886665 -54.91281 
L 391.972466 -55.772016 
L 393.058267 -57.494206 
L 394.144068 -57.492239 
L 395.229869 -59.458847 
L 396.31567 -59.528642 
L 397.401472 -59.354268 
L 398.487273 -60.17088 
L 398.487273 -194.811184 
L 398.487273 -194.811184 
L 397.401472 -193.407089 
L 396.31567 -192.996762 
L 395.229869 -191.868551 
L 394.144068 -189.466086 
L 393.058267 -188.249659 
L 391.972466 -186.275487 
L 390.886665 -185.742225 
L 389.800863 -185.704024 
L 388.715062 -185.097834 
L 387.629261 -185.935476 
L 386.54346 -186.078539 
L 385.457659 -185.91924 
L 384.371858 -186.450007 
L 383.286057 -187.07922 
L 382.200255 -188.239034 
L 381.114454 -188.637422 
L 380.028653 -188.523602 
L 378.942852 -189.900996 
L 377.857051 -190.392491 
L 376.77125 -191.760929 
L 375.685448 -192.642433 
L 374.599647 -194.729526 
L 373.513846 -196.24133 
L 372.428045 -196.424566 
L 371.342244 -198.733983 
L 370.256443 -199.635353 
L 369.170642 -200.78922 
L 368.08484 -201.770384 
L 366.999039 -203.832205 
L 365.913238 -204.829069 
L 364.827437 -206.1037 
L 363.741636 -207.721838 
L 362.655835 -208.570316 
L 361.570033 -210.388305 
L 360.484232 -211.822514 
L 359.398431 -213.03708 
L 358.31263 -213.820324 
L 357.226829 -215.635064 
L 356.141028 -216.360586 
L 355.055227 -216.653616 
L 353.969425 -217.615451 
L 352.883624 -218.298363 
L 351.797823 -219.763015 
L 350.712022 -220.411936 
L 349.626221 -220.232214 
L 348.54042 -221.079578 
L 347.454618 -221.3126 
L 346.368817 -222.797744 
L 345.283016 -224.880359 
L 344.197215 -224.896962 
L 343.111414 -225.506723 
L 342.025613 -227.320574 
L 340.939811 -228.88085 
L 339.85401 -230.538013 
L 338.768209 -231.124743 
L 337.682408 -231.977514 
L 336.596607 -233.344417 
L 335.510806 -236.087811 
L 334.425005 -236.515111 
L 333.339203 -238.016111 
L 332.253402 -238.576039 
L 331.167601 -238.810516 
L 330.0818 -239.677937 
L 328.995999 -241.214928 
L 327.910198 -240.70739 
L 326.824396 -241.111566 
L 325.738595 -240.769065 
L 324.652794 -240.040526 
L 323.566993 -238.883618 
L 322.481192 -240.148504 
L 321.395391 -241.93082 
L 320.30959 -242.439157 
L 319.223788 -243.589773 
L 318.137987 -244.679817 
L 317.052186 -246.006261 
L 315.966385 -244.544991 
L 314.880584 -244.025488 
L 313.794783 -245.246939 
L 312.708981 -243.331492 
L 311.62318 -243.481 
L 310.537379 -242.78728 
L 309.451578 -243.08915 
L 308.365777 -244.045568 
L 307.279976 -243.472025 
L 306.194175 -245.315792 
L 305.108373 -245.712533 
L 304.022572 -245.515799 
L 302.936771 -244.596491 
L 301.85097 -242.813817 
L 300.765169 -242.321455 
L 299.679368 -242.368689 
L 298.593566 -240.758838 
L 297.507765 -240.416947 
L 296.421964 -239.303295 
L 295.336163 -239.647199 
L 294.250362 -239.107158 
L 293.164561 -238.853904 
L 292.07876 -238.657081 
L 290.992958 -240.520158 
L 289.907157 -241.607815 
L 288.821356 -241.513987 
L 287.735555 -241.732267 
L 286.649754 -243.182762 
L 285.563953 -244.59242 
L 284.478151 -244.919864 
L 283.39235 -244.335191 
L 282.306549 -243.697131 
L 281.220748 -244.263181 
L 280.134947 -244.894912 
L 279.049146 -244.844751 
L 277.963344 -244.083536 
L 276.877543 -244.000631 
L 275.791742 -243.766357 
L 274.705941 -245.636506 
L 273.62014 -245.028386 
L 272.534339 -245.310696 
L 271.448538 -245.644896 
L 270.362736 -245.920157 
L 269.276935 -246.858884 
L 268.191134 -246.445454 
L 267.105333 -248.494519 
L 266.019532 -249.265511 
L 264.933731 -249.392847 
L 263.847929 -252.550727 
L 262.762128 -253.966676 
L 261.676327 -254.845172 
L 260.590526 -256.971358 
L 259.504725 -260.647833 
L 258.418924 -260.67557 
L 257.333123 -262.351677 
L 256.247321 -263.931433 
L 255.16152 -266.002717 
L 254.075719 -267.475822 
L 252.989918 -269.813235 
L 251.904117 -275.089847 
L 250.818316 -278.592034 
L 249.732514 -283.361615 
L 248.646713 -286.411008 
L 247.560912 -287.375744 
L 246.475111 -289.37375 
L 245.38931 -289.61336 
L 244.303509 -289.723394 
L 243.217708 -291.342051 
L 242.131906 -289.440962 
L 241.046105 -287.510555 
L 239.960304 -287.671609 
L 238.874503 -289.480351 
L 237.788702 -292.032 
L 236.702901 -289.624524 
L 235.617099 -290.683756 
L 234.531298 -290.164903 
L 233.445497 -288.778657 
L 232.359696 -288.210988 
L 231.273895 -288.365263 
L 230.188094 -287.836188 
L 229.102292 -287.889994 
L 228.016491 -287.718991 
L 226.93069 -284.73115 
L 225.844889 -283.928884 
L 224.759088 -284.198495 
L 223.673287 -285.661448 
L 222.587486 -284.878816 
L 221.501684 -285.426408 
L 220.415883 -287.061772 
L 219.330082 -289.524432 
L 218.244281 -290.729564 
L 217.15848 -288.669451 
L 216.072679 -287.201581 
L 214.986877 -285.28653 
L 213.901076 -284.302868 
L 212.815275 -282.334546 
L 211.729474 -281.037674 
L 210.643673 -279.505886 
L 209.557872 -280.214004 
L 208.472071 -278.415308 
L 207.386269 -277.919172 
L 206.300468 -276.895393 
L 205.214667 -272.579414 
L 204.128866 -273.012088 
L 203.043065 -271.13334 
L 201.957264 -271.050332 
L 200.871462 -267.56029 
L 199.785661 -265.637018 
L 198.69986 -261.845107 
L 197.614059 -260.144266 
L 196.528258 -256.263154 
L 195.442457 -251.322729 
L 194.356656 -247.114636 
L 193.270854 -242.14209 
L 192.185053 -239.604568 
L 191.099252 -234.776189 
L 190.013451 -232.015307 
L 188.92765 -229.496351 
L 187.841849 -226.188795 
L 186.756047 -221.890485 
L 185.670246 -218.037473 
L 184.584445 -215.74624 
L 183.498644 -212.881304 
L 182.412843 -210.613165 
L 181.327042 -208.731588 
L 180.24124 -207.464487 
L 179.155439 -208.949114 
L 178.069638 -209.516854 
L 176.983837 -207.445371 
L 175.898036 -206.456263 
L 174.812235 -204.779058 
L 173.726434 -208.036498 
L 172.640632 -207.241816 
L 171.554831 -206.477338 
L 170.46903 -205.692788 
L 169.383229 -206.041609 
L 168.297428 -205.602418 
L 167.211627 -204.899104 
L 166.125825 -203.635958 
L 165.040024 -202.4804 
L 163.954223 -203.178161 
L 162.868422 -200.231686 
L 161.782621 -199.561955 
L 160.69682 -198.234026 
L 159.611019 -196.413075 
L 158.525217 -195.586016 
L 157.439416 -192.699577 
L 156.353615 -189.088436 
L 155.267814 -187.432102 
L 154.182013 -186.71513 
L 153.096212 -185.319386 
L 152.01041 -184.185665 
L 150.924609 -184.169711 
L 149.838808 -183.824629 
L 148.753007 -183.320479 
L 147.667206 -183.304268 
L 146.581405 -180.427601 
L 145.495604 -179.108766 
L 144.409802 -177.967454 
L 143.324001 -176.522536 
L 142.2382 -177.791119 
L 141.152399 -175.872588 
L 140.066598 -173.264336 
L 138.980797 -171.376306 
L 137.894995 -171.165937 
L 136.809194 -168.994606 
L 135.723393 -170.058059 
L 134.637592 -168.481326 
L 133.551791 -168.669725 
L 132.46599 -168.87079 
L 131.380189 -170.721082 
L 130.294387 -170.690704 
L 129.208586 -168.776778 
L 128.122785 -169.108683 
L 127.036984 -169.589159 
L 125.951183 -169.426842 
L 124.865382 -171.226108 
L 123.77958 -172.774153 
L 122.693779 -173.966111 
L 121.607978 -175.139582 
L 120.522177 -176.934486 
L 119.436376 -178.736926 
L 118.350575 -181.170123 
L 117.264773 -181.030765 
L 116.178972 -182.026425 
L 115.093171 -182.117502 
L 114.00737 -183.183374 
L 112.921569 -186.006343 
L 111.835768 -187.161906 
L 110.749967 -187.593425 
L 109.664165 -187.252899 
L 108.578364 -187.623182 
L 107.492563 -187.810868 
L 106.406762 -188.477806 
L 105.320961 -188.676306 
L 104.23516 -189.040142 
L 103.149358 -190.433988 
L 102.063557 -192.00445 
L 100.977756 -194.224074 
L 99.891955 -195.361751 
L 98.806154 -198.059108 
L 97.720353 -198.186185 
L 96.634552 -197.244313 
L 95.54875 -198.965884 
L 94.462949 -199.448286 
L 93.377148 -202.489825 
L 92.291347 -202.809596 
L 91.205546 -204.546485 
L 90.119745 -205.727552 
L 89.033943 -208.608419 
L 87.948142 -211.928414 
L 86.862341 -214.377748 
L 85.77654 -216.064362 
L 84.690739 -217.503566 
L 83.604938 -219.21531 
L 82.519137 -222.73492 
L 81.433335 -224.777564 
L 80.347534 -226.832774 
L 79.261733 -228.108594 
L 78.175932 -226.77825 
L 77.090131 -227.549493 
L 76.00433 -230.080115 
L 74.918528 -231.907672 
L 73.832727 -232.222165 
z
" style="stroke: #ff00ff; stroke-opacity: 0.1"/>
    </defs>
    <g clip-path="url(#p477aeffbb6)">
     <use xlink:href="#m22fe44c031" x="0" y="345.6" style="fill: #ff00ff; fill-opacity: 0.1; stroke: #ff00ff; stroke-opacity: 0.1"/>
    </g>
   </g>
   <g id="matplotlib.axis_1">
    <g id="xtick_1">
     <g id="line2d_1">
      <defs>
       <path id="md68ebe4ae7" d="M 0 0 
L 0 3.5 
" style="stroke: #000000; stroke-width: 0.8"/>
      </defs>
      <g>
       <use xlink:href="#md68ebe4ae7" x="73.832727" y="307.584" style="stroke: #000000; stroke-width: 0.8"/>
      </g>
     </g>
     <g id="text_1">
      <!-- −5 -->
      <g transform="translate(66.461634 322.182437) scale(0.1 -0.1)">
       <defs>
        <path id="DejaVuSans-2212" d="M 678 2272 
L 4684 2272 
L 4684 1741 
L 678 1741 
L 678 2272 
z
" transform="scale(0.015625)"/>
        <path id="DejaVuSans-35" d="M 691 4666 
L 3169 4666 
L 3169 4134 
L 1269 4134 
L 1269 2991 
Q 1406 3038 1543 3061 
Q 1681 3084 1819 3084 
Q 2600 3084 3056 2656 
Q 3513 2228 3513 1497 
Q 3513 744 3044 326 
Q 2575 -91 1722 -91 
Q 1428 -91 1123 -41 
Q 819 9 494 109 
L 494 744 
Q 775 591 1075 516 
Q 1375 441 1709 441 
Q 2250 441 2565 725 
Q 2881 1009 2881 1497 
Q 2881 1984 2565 2268 
Q 2250 2553 1709 2553 
Q 1456 2553 1204 2497 
Q 953 2441 691 2322 
L 691 4666 
z
" transform="scale(0.015625)"/>
       </defs>
       <use xlink:href="#DejaVuSans-2212"/>
       <use xlink:href="#DejaVuSans-35" x="83.789062"/>
      </g>
     </g>
    </g>
    <g id="xtick_2">
     <g id="line2d_2">
      <g>
       <use xlink:href="#md68ebe4ae7" x="95.54875" y="307.584" style="stroke: #000000; stroke-width: 0.8"/>
      </g>
     </g>
     <g id="text_2">
      <!-- −4 -->
      <g transform="translate(88.177657 322.182437) scale(0.1 -0.1)">
       <defs>
        <path id="DejaVuSans-34" d="M 2419 4116 
L 825 1625 
L 2419 1625 
L 2419 4116 
z
M 2253 4666 
L 3047 4666 
L 3047 1625 
L 3713 1625 
L 3713 1100 
L 3047 1100 
L 3047 0 
L 2419 0 
L 2419 1100 
L 313 1100 
L 313 1709 
L 2253 4666 
z
" transform="scale(0.015625)"/>
       </defs>
       <use xlink:href="#DejaVuSans-2212"/>
       <use xlink:href="#DejaVuSans-34" x="83.789062"/>
      </g>
     </g>
    </g>
    <g id="xtick_3">
     <g id="line2d_3">
      <g>
       <use xlink:href="#md68ebe4ae7" x="117.264773" y="307.584" style="stroke: #000000; stroke-width: 0.8"/>
      </g>
     </g>
     <g id="text_3">
      <!-- −3 -->
      <g transform="translate(109.89368 322.182437) scale(0.1 -0.1)">
       <defs>
        <path id="DejaVuSans-33" d="M 2597 2516 
Q 3050 2419 3304 2112 
Q 3559 1806 3559 1356 
Q 3559 666 3084 287 
Q 2609 -91 1734 -91 
Q 1441 -91 1130 -33 
Q 819 25 488 141 
L 488 750 
Q 750 597 1062 519 
Q 1375 441 1716 441 
Q 2309 441 2620 675 
Q 2931 909 2931 1356 
Q 2931 1769 2642 2001 
Q 2353 2234 1838 2234 
L 1294 2234 
L 1294 2753 
L 1863 2753 
Q 2328 2753 2575 2939 
Q 2822 3125 2822 3475 
Q 2822 3834 2567 4026 
Q 2313 4219 1838 4219 
Q 1578 4219 1281 4162 
Q 984 4106 628 3988 
L 628 4550 
Q 988 4650 1302 4700 
Q 1616 4750 1894 4750 
Q 2613 4750 3031 4423 
Q 3450 4097 3450 3541 
Q 3450 3153 3228 2886 
Q 3006 2619 2597 2516 
z
" transform="scale(0.015625)"/>
       </defs>
       <use xlink:href="#DejaVuSans-2212"/>
       <use xlink:href="#DejaVuSans-33" x="83.789062"/>
      </g>
     </g>
    </g>
    <g id="xtick_4">
     <g id="line2d_4">
      <g>
       <use xlink:href="#md68ebe4ae7" x="138.980797" y="307.584" style="stroke: #000000; stroke-width: 0.8"/>
      </g>
     </g>
     <g id="text_4">
      <!-- −2 -->
      <g transform="translate(131.609703 322.182437) scale(0.1 -0.1)">
       <defs>
        <path id="DejaVuSans-32" d="M 1228 531 
L 3431 531 
L 3431 0 
L 469 0 
L 469 531 
Q 828 903 1448 1529 
Q 2069 2156 2228 2338 
Q 2531 2678 2651 2914 
Q 2772 3150 2772 3378 
Q 2772 3750 2511 3984 
Q 2250 4219 1831 4219 
Q 1534 4219 1204 4116 
Q 875 4013 500 3803 
L 500 4441 
Q 881 4594 1212 4672 
Q 1544 4750 1819 4750 
Q 2544 4750 2975 4387 
Q 3406 4025 3406 3419 
Q 3406 3131 3298 2873 
Q 3191 2616 2906 2266 
Q 2828 2175 2409 1742 
Q 1991 1309 1228 531 
z
" transform="scale(0.015625)"/>
       </defs>
       <use xlink:href="#DejaVuSans-2212"/>
       <use xlink:href="#DejaVuSans-32" x="83.789062"/>
      </g>
     </g>
    </g>
    <g id="xtick_5">
     <g id="line2d_5">
      <g>
       <use xlink:href="#md68ebe4ae7" x="160.69682" y="307.584" style="stroke: #000000; stroke-width: 0.8"/>
      </g>
     </g>
     <g id="text_5">
      <!-- −1 -->
      <g transform="translate(153.325726 322.182437) scale(0.1 -0.1)">
       <defs>
        <path id="DejaVuSans-31" d="M 794 531 
L 1825 531 
L 1825 4091 
L 703 3866 
L 703 4441 
L 1819 4666 
L 2450 4666 
L 2450 531 
L 3481 531 
L 3481 0 
L 794 0 
L 794 531 
z
" transform="scale(0.015625)"/>
       </defs>
       <use xlink:href="#DejaVuSans-2212"/>
       <use xlink:href="#DejaVuSans-31" x="83.789062"/>
      </g>
     </g>
    </g>
    <g id="xtick_6">
     <g id="line2d_6">
      <g>
       <use xlink:href="#md68ebe4ae7" x="182.412843" y="307.584" style="stroke: #000000; stroke-width: 0.8"/>
      </g>
     </g>
     <g id="text_6">
      <!-- 0 -->
      <g transform="translate(179.231593 322.182437) scale(0.1 -0.1)">
       <defs>
        <path id="DejaVuSans-30" d="M 2034 4250 
Q 1547 4250 1301 3770 
Q 1056 3291 1056 2328 
Q 1056 1369 1301 889 
Q 1547 409 2034 409 
Q 2525 409 2770 889 
Q 3016 1369 3016 2328 
Q 3016 3291 2770 3770 
Q 2525 4250 2034 4250 
z
M 2034 4750 
Q 2819 4750 3233 4129 
Q 3647 3509 3647 2328 
Q 3647 1150 3233 529 
Q 2819 -91 2034 -91 
Q 1250 -91 836 529 
Q 422 1150 422 2328 
Q 422 3509 836 4129 
Q 1250 4750 2034 4750 
z
" transform="scale(0.015625)"/>
       </defs>
       <use xlink:href="#DejaVuSans-30"/>
      </g>
     </g>
    </g>
    <g id="xtick_7">
     <g id="line2d_7">
      <g>
       <use xlink:href="#md68ebe4ae7" x="204.128866" y="307.584" style="stroke: #000000; stroke-width: 0.8"/>
      </g>
     </g>
     <g id="text_7">
      <!-- 1 -->
      <g transform="translate(200.947616 322.182437) scale(0.1 -0.1)">
       <use xlink:href="#DejaVuSans-31"/>
      </g>
     </g>
    </g>
    <g id="xtick_8">
     <g id="line2d_8">
      <g>
       <use xlink:href="#md68ebe4ae7" x="225.844889" y="307.584" style="stroke: #000000; stroke-width: 0.8"/>
      </g>
     </g>
     <g id="text_8">
      <!-- 2 -->
      <g transform="translate(222.663639 322.182437) scale(0.1 -0.1)">
       <use xlink:href="#DejaVuSans-32"/>
      </g>
     </g>
    </g>
    <g id="xtick_9">
     <g id="line2d_9">
      <g>
       <use xlink:href="#md68ebe4ae7" x="247.560912" y="307.584" style="stroke: #000000; stroke-width: 0.8"/>
      </g>
     </g>
     <g id="text_9">
      <!-- 3 -->
      <g transform="translate(244.379662 322.182437) scale(0.1 -0.1)">
       <use xlink:href="#DejaVuSans-33"/>
      </g>
     </g>
    </g>
    <g id="xtick_10">
     <g id="line2d_10">
      <g>
       <use xlink:href="#md68ebe4ae7" x="269.276935" y="307.584" style="stroke: #000000; stroke-width: 0.8"/>
      </g>
     </g>
     <g id="text_10">
      <!-- 4 -->
      <g transform="translate(266.095685 322.182437) scale(0.1 -0.1)">
       <use xlink:href="#DejaVuSans-34"/>
      </g>
     </g>
    </g>
    <g id="xtick_11">
     <g id="line2d_11">
      <g>
       <use xlink:href="#md68ebe4ae7" x="290.992958" y="307.584" style="stroke: #000000; stroke-width: 0.8"/>
      </g>
     </g>
     <g id="text_11">
      <!-- 5 -->
      <g transform="translate(287.811708 322.182437) scale(0.1 -0.1)">
       <use xlink:href="#DejaVuSans-35"/>
      </g>
     </g>
    </g>
    <g id="xtick_12">
     <g id="line2d_12">
      <g>
       <use xlink:href="#md68ebe4ae7" x="312.708981" y="307.584" style="stroke: #000000; stroke-width: 0.8"/>
      </g>
     </g>
     <g id="text_12">
      <!-- 6 -->
      <g transform="translate(309.527731 322.182437) scale(0.1 -0.1)">
       <defs>
        <path id="DejaVuSans-36" d="M 2113 2584 
Q 1688 2584 1439 2293 
Q 1191 2003 1191 1497 
Q 1191 994 1439 701 
Q 1688 409 2113 409 
Q 2538 409 2786 701 
Q 3034 994 3034 1497 
Q 3034 2003 2786 2293 
Q 2538 2584 2113 2584 
z
M 3366 4563 
L 3366 3988 
Q 3128 4100 2886 4159 
Q 2644 4219 2406 4219 
Q 1781 4219 1451 3797 
Q 1122 3375 1075 2522 
Q 1259 2794 1537 2939 
Q 1816 3084 2150 3084 
Q 2853 3084 3261 2657 
Q 3669 2231 3669 1497 
Q 3669 778 3244 343 
Q 2819 -91 2113 -91 
Q 1303 -91 875 529 
Q 447 1150 447 2328 
Q 447 3434 972 4092 
Q 1497 4750 2381 4750 
Q 2619 4750 2861 4703 
Q 3103 4656 3366 4563 
z
" transform="scale(0.015625)"/>
       </defs>
       <use xlink:href="#DejaVuSans-36"/>
      </g>
     </g>
    </g>
    <g id="xtick_13">
     <g id="line2d_13">
      <g>
       <use xlink:href="#md68ebe4ae7" x="334.425005" y="307.584" style="stroke: #000000; stroke-width: 0.8"/>
      </g>
     </g>
     <g id="text_13">
      <!-- 7 -->
      <g transform="translate(331.243755 322.182437) scale(0.1 -0.1)">
       <defs>
        <path id="DejaVuSans-37" d="M 525 4666 
L 3525 4666 
L 3525 4397 
L 1831 0 
L 1172 0 
L 2766 4134 
L 525 4134 
L 525 4666 
z
" transform="scale(0.015625)"/>
       </defs>
       <use xlink:href="#DejaVuSans-37"/>
      </g>
     </g>
    </g>
    <g id="xtick_14">
     <g id="line2d_14">
      <g>
       <use xlink:href="#md68ebe4ae7" x="356.141028" y="307.584" style="stroke: #000000; stroke-width: 0.8"/>
      </g>
     </g>
     <g id="text_14">
      <!-- 8 -->
      <g transform="translate(352.959778 322.182437) scale(0.1 -0.1)">
       <defs>
        <path id="DejaVuSans-38" d="M 2034 2216 
Q 1584 2216 1326 1975 
Q 1069 1734 1069 1313 
Q 1069 891 1326 650 
Q 1584 409 2034 409 
Q 2484 409 2743 651 
Q 3003 894 3003 1313 
Q 3003 1734 2745 1975 
Q 2488 2216 2034 2216 
z
M 1403 2484 
Q 997 2584 770 2862 
Q 544 3141 544 3541 
Q 544 4100 942 4425 
Q 1341 4750 2034 4750 
Q 2731 4750 3128 4425 
Q 3525 4100 3525 3541 
Q 3525 3141 3298 2862 
Q 3072 2584 2669 2484 
Q 3125 2378 3379 2068 
Q 3634 1759 3634 1313 
Q 3634 634 3220 271 
Q 2806 -91 2034 -91 
Q 1263 -91 848 271 
Q 434 634 434 1313 
Q 434 1759 690 2068 
Q 947 2378 1403 2484 
z
M 1172 3481 
Q 1172 3119 1398 2916 
Q 1625 2713 2034 2713 
Q 2441 2713 2670 2916 
Q 2900 3119 2900 3481 
Q 2900 3844 2670 4047 
Q 2441 4250 2034 4250 
Q 1625 4250 1398 4047 
Q 1172 3844 1172 3481 
z
" transform="scale(0.015625)"/>
       </defs>
       <use xlink:href="#DejaVuSans-38"/>
      </g>
     </g>
    </g>
    <g id="xtick_15">
     <g id="line2d_15">
      <g>
       <use xlink:href="#md68ebe4ae7" x="377.857051" y="307.584" style="stroke: #000000; stroke-width: 0.8"/>
      </g>
     </g>
     <g id="text_15">
      <!-- 9 -->
      <g transform="translate(374.675801 322.182437) scale(0.1 -0.1)">
       <defs>
        <path id="DejaVuSans-39" d="M 703 97 
L 703 672 
Q 941 559 1184 500 
Q 1428 441 1663 441 
Q 2288 441 2617 861 
Q 2947 1281 2994 2138 
Q 2813 1869 2534 1725 
Q 2256 1581 1919 1581 
Q 1219 1581 811 2004 
Q 403 2428 403 3163 
Q 403 3881 828 4315 
Q 1253 4750 1959 4750 
Q 2769 4750 3195 4129 
Q 3622 3509 3622 2328 
Q 3622 1225 3098 567 
Q 2575 -91 1691 -91 
Q 1453 -91 1209 -44 
Q 966 3 703 97 
z
M 1959 2075 
Q 2384 2075 2632 2365 
Q 2881 2656 2881 3163 
Q 2881 3666 2632 3958 
Q 2384 4250 1959 4250 
Q 1534 4250 1286 3958 
Q 1038 3666 1038 3163 
Q 1038 2656 1286 2365 
Q 1534 2075 1959 2075 
z
" transform="scale(0.015625)"/>
       </defs>
       <use xlink:href="#DejaVuSans-39"/>
      </g>
     </g>
    </g>
    <g id="xtick_16">
     <g id="line2d_16">
      <g>
       <use xlink:href="#md68ebe4ae7" x="399.573074" y="307.584" style="stroke: #000000; stroke-width: 0.8"/>
      </g>
     </g>
     <g id="text_16">
      <!-- 10 -->
      <g transform="translate(393.210574 322.182437) scale(0.1 -0.1)">
       <use xlink:href="#DejaVuSans-31"/>
       <use xlink:href="#DejaVuSans-30" x="63.623047"/>
      </g>
     </g>
    </g>
    <g id="text_17">
     <!-- Time (s) -->
     <g transform="translate(215.831094 335.860562) scale(0.1 -0.1)">
      <defs>
       <path id="DejaVuSans-54" d="M -19 4666 
L 3928 4666 
L 3928 4134 
L 2272 4134 
L 2272 0 
L 1638 0 
L 1638 4134 
L -19 4134 
L -19 4666 
z
" transform="scale(0.015625)"/>
       <path id="DejaVuSans-69" d="M 603 3500 
L 1178 3500 
L 1178 0 
L 603 0 
L 603 3500 
z
M 603 4863 
L 1178 4863 
L 1178 4134 
L 603 4134 
L 603 4863 
z
" transform="scale(0.015625)"/>
       <path id="DejaVuSans-6d" d="M 3328 2828 
Q 3544 3216 3844 3400 
Q 4144 3584 4550 3584 
Q 5097 3584 5394 3201 
Q 5691 2819 5691 2113 
L 5691 0 
L 5113 0 
L 5113 2094 
Q 5113 2597 4934 2840 
Q 4756 3084 4391 3084 
Q 3944 3084 3684 2787 
Q 3425 2491 3425 1978 
L 3425 0 
L 2847 0 
L 2847 2094 
Q 2847 2600 2669 2842 
Q 2491 3084 2119 3084 
Q 1678 3084 1418 2786 
Q 1159 2488 1159 1978 
L 1159 0 
L 581 0 
L 581 3500 
L 1159 3500 
L 1159 2956 
Q 1356 3278 1631 3431 
Q 1906 3584 2284 3584 
Q 2666 3584 2933 3390 
Q 3200 3197 3328 2828 
z
" transform="scale(0.015625)"/>
       <path id="DejaVuSans-65" d="M 3597 1894 
L 3597 1613 
L 953 1613 
Q 991 1019 1311 708 
Q 1631 397 2203 397 
Q 2534 397 2845 478 
Q 3156 559 3463 722 
L 3463 178 
Q 3153 47 2828 -22 
Q 2503 -91 2169 -91 
Q 1331 -91 842 396 
Q 353 884 353 1716 
Q 353 2575 817 3079 
Q 1281 3584 2069 3584 
Q 2775 3584 3186 3129 
Q 3597 2675 3597 1894 
z
M 3022 2063 
Q 3016 2534 2758 2815 
Q 2500 3097 2075 3097 
Q 1594 3097 1305 2825 
Q 1016 2553 972 2059 
L 3022 2063 
z
" transform="scale(0.015625)"/>
       <path id="DejaVuSans-20" transform="scale(0.015625)"/>
       <path id="DejaVuSans-28" d="M 1984 4856 
Q 1566 4138 1362 3434 
Q 1159 2731 1159 2009 
Q 1159 1288 1364 580 
Q 1569 -128 1984 -844 
L 1484 -844 
Q 1016 -109 783 600 
Q 550 1309 550 2009 
Q 550 2706 781 3412 
Q 1013 4119 1484 4856 
L 1984 4856 
z
" transform="scale(0.015625)"/>
       <path id="DejaVuSans-73" d="M 2834 3397 
L 2834 2853 
Q 2591 2978 2328 3040 
Q 2066 3103 1784 3103 
Q 1356 3103 1142 2972 
Q 928 2841 928 2578 
Q 928 2378 1081 2264 
Q 1234 2150 1697 2047 
L 1894 2003 
Q 2506 1872 2764 1633 
Q 3022 1394 3022 966 
Q 3022 478 2636 193 
Q 2250 -91 1575 -91 
Q 1294 -91 989 -36 
Q 684 19 347 128 
L 347 722 
Q 666 556 975 473 
Q 1284 391 1588 391 
Q 1994 391 2212 530 
Q 2431 669 2431 922 
Q 2431 1156 2273 1281 
Q 2116 1406 1581 1522 
L 1381 1569 
Q 847 1681 609 1914 
Q 372 2147 372 2553 
Q 372 3047 722 3315 
Q 1072 3584 1716 3584 
Q 2034 3584 2315 3537 
Q 2597 3491 2834 3397 
z
" transform="scale(0.015625)"/>
       <path id="DejaVuSans-29" d="M 513 4856 
L 1013 4856 
Q 1481 4119 1714 3412 
Q 1947 2706 1947 2009 
Q 1947 1309 1714 600 
Q 1481 -109 1013 -844 
L 513 -844 
Q 928 -128 1133 580 
Q 1338 1288 1338 2009 
Q 1338 2731 1133 3434 
Q 928 4138 513 4856 
z
" transform="scale(0.015625)"/>
      </defs>
      <use xlink:href="#DejaVuSans-54"/>
      <use xlink:href="#DejaVuSans-69" x="57.958984"/>
      <use xlink:href="#DejaVuSans-6d" x="85.742188"/>
      <use xlink:href="#DejaVuSans-65" x="183.154297"/>
      <use xlink:href="#DejaVuSans-20" x="244.677734"/>
      <use xlink:href="#DejaVuSans-28" x="276.464844"/>
      <use xlink:href="#DejaVuSans-73" x="315.478516"/>
      <use xlink:href="#DejaVuSans-29" x="367.578125"/>
     </g>
    </g>
   </g>
   <g id="matplotlib.axis_2">
    <g id="ytick_1">
     <g id="line2d_17">
      <defs>
       <path id="m1f8c6a4e8d" d="M 0 0 
L -3.5 0 
" style="stroke: #000000; stroke-width: 0.8"/>
      </defs>
      <g>
       <use xlink:href="#m1f8c6a4e8d" x="57.6" y="268.65152" style="stroke: #000000; stroke-width: 0.8"/>
      </g>
     </g>
     <g id="text_18">
      <!-- −2 -->
      <g transform="translate(35.857813 272.450739) scale(0.1 -0.1)">
       <use xlink:href="#DejaVuSans-2212"/>
       <use xlink:href="#DejaVuSans-32" x="83.789062"/>
      </g>
     </g>
    </g>
    <g id="ytick_2">
     <g id="line2d_18">
      <g>
       <use xlink:href="#m1f8c6a4e8d" x="57.6" y="216.698359" style="stroke: #000000; stroke-width: 0.8"/>
      </g>
     </g>
     <g id="text_19">
      <!-- −1 -->
      <g transform="translate(35.857813 220.497577) scale(0.1 -0.1)">
       <use xlink:href="#DejaVuSans-2212"/>
       <use xlink:href="#DejaVuSans-31" x="83.789062"/>
      </g>
     </g>
    </g>
    <g id="ytick_3">
     <g id="line2d_19">
      <g>
       <use xlink:href="#m1f8c6a4e8d" x="57.6" y="164.745197" style="stroke: #000000; stroke-width: 0.8"/>
      </g>
     </g>
     <g id="text_20">
      <!-- 0 -->
      <g transform="translate(44.2375 168.544416) scale(0.1 -0.1)">
       <use xlink:href="#DejaVuSans-30"/>
      </g>
     </g>
    </g>
    <g id="ytick_4">
     <g id="line2d_20">
      <g>
       <use xlink:href="#m1f8c6a4e8d" x="57.6" y="112.792035" style="stroke: #000000; stroke-width: 0.8"/>
      </g>
     </g>
     <g id="text_21">
      <!-- 1 -->
      <g transform="translate(44.2375 116.591254) scale(0.1 -0.1)">
       <use xlink:href="#DejaVuSans-31"/>
      </g>
     </g>
    </g>
    <g id="ytick_5">
     <g id="line2d_21">
      <g>
       <use xlink:href="#m1f8c6a4e8d" x="57.6" y="60.838873" style="stroke: #000000; stroke-width: 0.8"/>
      </g>
     </g>
     <g id="text_22">
      <!-- 2 -->
      <g transform="translate(44.2375 64.638092) scale(0.1 -0.1)">
       <use xlink:href="#DejaVuSans-32"/>
      </g>
     </g>
    </g>
    <g id="text_23">
     <!-- Z-Score -->
     <g transform="translate(29.778125 193.67175) rotate(-90) scale(0.1 -0.1)">
      <defs>
       <path id="DejaVuSans-5a" d="M 359 4666 
L 4025 4666 
L 4025 4184 
L 1075 531 
L 4097 531 
L 4097 0 
L 288 0 
L 288 481 
L 3238 4134 
L 359 4134 
L 359 4666 
z
" transform="scale(0.015625)"/>
       <path id="DejaVuSans-2d" d="M 313 2009 
L 1997 2009 
L 1997 1497 
L 313 1497 
L 313 2009 
z
" transform="scale(0.015625)"/>
       <path id="DejaVuSans-53" d="M 3425 4513 
L 3425 3897 
Q 3066 4069 2747 4153 
Q 2428 4238 2131 4238 
Q 1616 4238 1336 4038 
Q 1056 3838 1056 3469 
Q 1056 3159 1242 3001 
Q 1428 2844 1947 2747 
L 2328 2669 
Q 3034 2534 3370 2195 
Q 3706 1856 3706 1288 
Q 3706 609 3251 259 
Q 2797 -91 1919 -91 
Q 1588 -91 1214 -16 
Q 841 59 441 206 
L 441 856 
Q 825 641 1194 531 
Q 1563 422 1919 422 
Q 2459 422 2753 634 
Q 3047 847 3047 1241 
Q 3047 1584 2836 1778 
Q 2625 1972 2144 2069 
L 1759 2144 
Q 1053 2284 737 2584 
Q 422 2884 422 3419 
Q 422 4038 858 4394 
Q 1294 4750 2059 4750 
Q 2388 4750 2728 4690 
Q 3069 4631 3425 4513 
z
" transform="scale(0.015625)"/>
       <path id="DejaVuSans-63" d="M 3122 3366 
L 3122 2828 
Q 2878 2963 2633 3030 
Q 2388 3097 2138 3097 
Q 1578 3097 1268 2742 
Q 959 2388 959 1747 
Q 959 1106 1268 751 
Q 1578 397 2138 397 
Q 2388 397 2633 464 
Q 2878 531 3122 666 
L 3122 134 
Q 2881 22 2623 -34 
Q 2366 -91 2075 -91 
Q 1284 -91 818 406 
Q 353 903 353 1747 
Q 353 2603 823 3093 
Q 1294 3584 2113 3584 
Q 2378 3584 2631 3529 
Q 2884 3475 3122 3366 
z
" transform="scale(0.015625)"/>
       <path id="DejaVuSans-6f" d="M 1959 3097 
Q 1497 3097 1228 2736 
Q 959 2375 959 1747 
Q 959 1119 1226 758 
Q 1494 397 1959 397 
Q 2419 397 2687 759 
Q 2956 1122 2956 1747 
Q 2956 2369 2687 2733 
Q 2419 3097 1959 3097 
z
M 1959 3584 
Q 2709 3584 3137 3096 
Q 3566 2609 3566 1747 
Q 3566 888 3137 398 
Q 2709 -91 1959 -91 
Q 1206 -91 779 398 
Q 353 888 353 1747 
Q 353 2609 779 3096 
Q 1206 3584 1959 3584 
z
" transform="scale(0.015625)"/>
       <path id="DejaVuSans-72" d="M 2631 2963 
Q 2534 3019 2420 3045 
Q 2306 3072 2169 3072 
Q 1681 3072 1420 2755 
Q 1159 2438 1159 1844 
L 1159 0 
L 581 0 
L 581 3500 
L 1159 3500 
L 1159 2956 
Q 1341 3275 1631 3429 
Q 1922 3584 2338 3584 
Q 2397 3584 2469 3576 
Q 2541 3569 2628 3553 
L 2631 2963 
z
" transform="scale(0.015625)"/>
      </defs>
      <use xlink:href="#DejaVuSans-5a"/>
      <use xlink:href="#DejaVuSans-2d" x="66.755859"/>
      <use xlink:href="#DejaVuSans-53" x="102.839844"/>
      <use xlink:href="#DejaVuSans-63" x="166.316406"/>
      <use xlink:href="#DejaVuSans-6f" x="221.296875"/>
      <use xlink:href="#DejaVuSans-72" x="282.478516"/>
      <use xlink:href="#DejaVuSans-65" x="321.341797"/>
     </g>
    </g>
   </g>
   <g id="line2d_22">
    <path d="M 73.832727 133.367378 
L 74.918528 133.213523 
L 76.00433 134.564994 
L 77.090131 136.610946 
L 78.175932 137.11599 
L 79.261733 135.659596 
L 80.347534 136.641843 
L 82.519137 139.998932 
L 83.604938 143.074234 
L 84.690739 144.541351 
L 85.77654 145.579151 
L 86.862341 147.10496 
L 89.033943 151.890555 
L 90.119745 154.719197 
L 91.205546 155.691304 
L 92.291347 156.850622 
L 93.377148 156.999632 
L 94.462949 159.952755 
L 95.54875 160.042084 
L 96.634552 161.547551 
L 97.720353 159.995509 
L 98.806154 160.307852 
L 99.891955 162.513513 
L 100.977756 163.351391 
L 102.063557 165.503649 
L 104.23516 168.261939 
L 105.320961 168.351833 
L 106.406762 168.596319 
L 107.492563 169.610652 
L 109.664165 170.134546 
L 110.749967 169.811667 
L 111.835768 170.041122 
L 112.921569 170.781787 
L 114.00737 173.030724 
L 115.093171 173.390565 
L 116.178972 173.09068 
L 117.264773 173.467026 
L 118.350575 173.103478 
L 119.436376 175.028119 
L 120.522177 176.254014 
L 121.607978 178.150302 
L 122.693779 179.285091 
L 123.77958 180.036422 
L 125.951183 182.712042 
L 127.036984 182.342253 
L 128.122785 182.701063 
L 129.208586 182.854092 
L 130.294387 181.096564 
L 131.380189 181.117768 
L 132.46599 183.254952 
L 133.551791 183.900726 
L 134.637592 184.270142 
L 135.723393 182.791731 
L 136.809194 184.458316 
L 137.894995 182.764044 
L 138.980797 183.07322 
L 140.066598 181.769427 
L 141.152399 179.419786 
L 142.2382 178.419421 
L 143.324001 180.473425 
L 144.409802 179.586778 
L 145.495604 178.325441 
L 146.581405 177.301333 
L 147.667206 175.333803 
L 148.753007 175.379338 
L 149.838808 174.923651 
L 150.924609 174.616748 
L 152.01041 174.425356 
L 154.182013 171.648939 
L 155.267814 170.898587 
L 156.353615 169.026695 
L 157.439416 166.005099 
L 158.525217 163.417391 
L 159.611019 162.609379 
L 160.69682 161.293145 
L 161.782621 160.174449 
L 162.868422 159.778353 
L 163.954223 157.322177 
L 165.040024 158.118643 
L 166.125825 157.320385 
L 167.211627 156.116519 
L 168.297428 156.089068 
L 169.383229 155.732303 
L 170.46903 156.165148 
L 171.554831 155.912495 
L 172.640632 155.418888 
L 173.726434 155.264535 
L 174.812235 158.833295 
L 176.983837 156.170835 
L 178.069638 154.27573 
L 179.155439 155.269052 
L 180.24124 155.971575 
L 181.327042 154.653184 
L 182.412843 152.869866 
L 183.498644 150.834275 
L 184.584445 148.008432 
L 185.670246 146.13228 
L 188.92765 136.223767 
L 190.013451 134.768071 
L 191.099252 132.622923 
L 192.185053 129.278036 
L 193.270854 127.74095 
L 194.356656 124.426007 
L 195.442457 121.56557 
L 196.528258 118.044816 
L 197.614059 115.243406 
L 198.69986 114.464293 
L 199.785661 111.850279 
L 200.871462 111.143772 
L 201.957264 109.178407 
L 203.043065 109.774412 
L 204.128866 109.323206 
L 205.214667 110.236002 
L 206.300468 107.280847 
L 207.386269 107.550575 
L 208.472071 107.248935 
L 209.557872 106.443494 
L 210.643673 107.623893 
L 212.815275 106.260202 
L 213.901076 104.799647 
L 214.986877 104.530701 
L 216.072679 103.800748 
L 218.244281 101.31884 
L 219.330082 102.509353 
L 220.415883 104.640534 
L 222.587486 106.947192 
L 223.673287 106.348864 
L 224.759088 107.72506 
L 225.844889 108.345924 
L 226.93069 108.431863 
L 228.016491 106.200323 
L 229.102292 106.416988 
L 230.188094 107.120198 
L 231.273895 107.223228 
L 232.359696 107.794153 
L 233.445497 107.704469 
L 234.531298 107.31 
L 235.617099 107.83531 
L 236.702901 109.107515 
L 237.788702 107.245202 
L 238.874503 109.910816 
L 239.960304 111.631833 
L 241.046105 112.292978 
L 242.131906 111.135021 
L 243.217708 109.725014 
L 244.303509 111.173061 
L 245.38931 110.888445 
L 246.475111 111.276399 
L 247.560912 112.824974 
L 248.646713 113.533735 
L 249.732514 116.174222 
L 250.818316 120.102743 
L 251.904117 123.163507 
L 252.989918 127.854552 
L 254.075719 129.704031 
L 255.16152 131.321064 
L 256.247321 133.374062 
L 258.418924 137.082514 
L 259.504725 137.898599 
L 260.590526 141.794096 
L 261.676327 143.831765 
L 262.762128 145.127878 
L 263.847929 146.818677 
L 264.933731 149.980952 
L 266.019532 150.33032 
L 267.105333 151.385684 
L 268.191134 153.661456 
L 269.276935 153.352044 
L 270.362736 154.627813 
L 271.448538 154.887777 
L 272.534339 155.577307 
L 273.62014 155.909846 
L 274.705941 155.418578 
L 275.791742 157.394881 
L 276.877543 157.346538 
L 277.963344 157.524297 
L 279.049146 156.697499 
L 280.134947 156.63103 
L 282.306549 158.024761 
L 284.478151 157.027383 
L 285.563953 157.302223 
L 287.735555 159.548341 
L 288.821356 159.429113 
L 289.907157 159.049665 
L 290.992958 159.876646 
L 292.07876 161.84874 
L 293.164561 161.077563 
L 294.250362 160.502558 
L 295.336163 159.625243 
L 296.421964 159.799082 
L 297.507765 158.770245 
L 298.593566 158.182227 
L 299.679368 156.807434 
L 300.765169 156.79282 
L 301.85097 156.567497 
L 302.936771 154.925673 
L 304.022572 154.464482 
L 305.108373 154.342819 
L 306.194175 154.795481 
L 307.279976 156.89208 
L 308.365777 156.227398 
L 309.451578 157.161139 
L 310.537379 157.66066 
L 311.62318 157.002909 
L 312.708981 157.379666 
L 313.794783 155.286296 
L 314.880584 156.095639 
L 315.966385 155.306432 
L 317.052186 153.827516 
L 318.137987 154.96864 
L 319.223788 155.822696 
L 320.30959 156.468512 
L 321.395391 156.613064 
L 322.481192 158.357568 
L 323.566993 159.349126 
L 324.652794 157.829135 
L 326.824396 156.976823 
L 327.910198 157.437276 
L 328.995999 157.064974 
L 330.0818 158.640864 
L 331.167601 159.531989 
L 332.253402 159.916392 
L 333.339203 160.899552 
L 334.425005 162.324943 
L 335.510806 162.800801 
L 336.596607 165.731203 
L 337.682408 167.734459 
L 339.85401 169.963372 
L 342.025613 174.142422 
L 343.111414 176.686208 
L 344.197215 177.468802 
L 345.283016 177.905634 
L 346.368817 180.177818 
L 347.454618 181.610238 
L 348.54042 181.8973 
L 349.626221 183.159092 
L 351.797823 184.319839 
L 355.055227 188.805626 
L 356.141028 189.202874 
L 357.226829 190.524061 
L 358.31263 193.280222 
L 360.484232 196.478201 
L 361.570033 198.542443 
L 362.655835 201.41825 
L 363.741636 202.870109 
L 364.827437 205.107629 
L 365.913238 206.778757 
L 366.999039 208.07534 
L 368.08484 210.352733 
L 370.256443 212.694187 
L 371.342244 214.309876 
L 372.428045 216.978239 
L 373.513846 216.995878 
L 374.599647 218.151461 
L 375.685448 220.226904 
L 376.77125 221.533073 
L 377.857051 223.586402 
L 378.942852 223.995918 
L 380.028653 225.419785 
L 381.114454 225.380637 
L 382.200255 225.989664 
L 383.286057 227.00439 
L 385.457659 227.424865 
L 386.54346 226.667924 
L 387.629261 226.183753 
L 388.715062 226.587187 
L 389.800863 225.85655 
L 391.972466 224.576248 
L 393.058267 222.728067 
L 394.144068 222.120837 
L 395.229869 219.936301 
L 396.31567 219.337298 
L 397.401472 219.219321 
L 398.487273 218.108968 
L 398.487273 218.108968 
" clip-path="url(#p477aeffbb6)" style="fill: none; stroke: #ff00ff; stroke-width: 1.5; stroke-linecap: square"/>
   </g>
   <g id="line2d_23">
    <path d="M 182.412843 307.584 
L 182.412843 41.472 
" clip-path="url(#p477aeffbb6)" style="fill: none; stroke: #000000; stroke-width: 1.5; stroke-linecap: square"/>
   </g>
   <g id="patch_3">
    <path d="M 57.6 307.584 
L 57.6 41.472 
" style="fill: none; stroke: #000000; stroke-width: 0.8; stroke-linejoin: miter; stroke-linecap: square"/>
   </g>
   <g id="patch_4">
    <path d="M 414.72 307.584 
L 414.72 41.472 
" style="fill: none; stroke: #000000; stroke-width: 0.8; stroke-linejoin: miter; stroke-linecap: square"/>
   </g>
   <g id="patch_5">
    <path d="M 57.6 307.584 
L 414.72 307.584 
" style="fill: none; stroke: #000000; stroke-width: 0.8; stroke-linejoin: miter; stroke-linecap: square"/>
   </g>
   <g id="patch_6">
    <path d="M 57.6 41.472 
L 414.72 41.472 
" style="fill: none; stroke: #000000; stroke-width: 0.8; stroke-linejoin: miter; stroke-linecap: square"/>
   </g>
   <g id="text_24">
    <!-- Event 15_p=0.839 -->
    <g transform="translate(180.415312 35.472) scale(0.12 -0.12)">
     <defs>
      <path id="DejaVuSans-45" d="M 628 4666 
L 3578 4666 
L 3578 4134 
L 1259 4134 
L 1259 2753 
L 3481 2753 
L 3481 2222 
L 1259 2222 
L 1259 531 
L 3634 531 
L 3634 0 
L 628 0 
L 628 4666 
z
" transform="scale(0.015625)"/>
      <path id="DejaVuSans-76" d="M 191 3500 
L 800 3500 
L 1894 563 
L 2988 3500 
L 3597 3500 
L 2284 0 
L 1503 0 
L 191 3500 
z
" transform="scale(0.015625)"/>
      <path id="DejaVuSans-6e" d="M 3513 2113 
L 3513 0 
L 2938 0 
L 2938 2094 
Q 2938 2591 2744 2837 
Q 2550 3084 2163 3084 
Q 1697 3084 1428 2787 
Q 1159 2491 1159 1978 
L 1159 0 
L 581 0 
L 581 3500 
L 1159 3500 
L 1159 2956 
Q 1366 3272 1645 3428 
Q 1925 3584 2291 3584 
Q 2894 3584 3203 3211 
Q 3513 2838 3513 2113 
z
" transform="scale(0.015625)"/>
      <path id="DejaVuSans-74" d="M 1172 4494 
L 1172 3500 
L 2356 3500 
L 2356 3053 
L 1172 3053 
L 1172 1153 
Q 1172 725 1289 603 
Q 1406 481 1766 481 
L 2356 481 
L 2356 0 
L 1766 0 
Q 1100 0 847 248 
Q 594 497 594 1153 
L 594 3053 
L 172 3053 
L 172 3500 
L 594 3500 
L 594 4494 
L 1172 4494 
z
" transform="scale(0.015625)"/>
      <path id="DejaVuSans-5f" d="M 3263 -1063 
L 3263 -1509 
L -63 -1509 
L -63 -1063 
L 3263 -1063 
z
" transform="scale(0.015625)"/>
      <path id="DejaVuSans-70" d="M 1159 525 
L 1159 -1331 
L 581 -1331 
L 581 3500 
L 1159 3500 
L 1159 2969 
Q 1341 3281 1617 3432 
Q 1894 3584 2278 3584 
Q 2916 3584 3314 3078 
Q 3713 2572 3713 1747 
Q 3713 922 3314 415 
Q 2916 -91 2278 -91 
Q 1894 -91 1617 61 
Q 1341 213 1159 525 
z
M 3116 1747 
Q 3116 2381 2855 2742 
Q 2594 3103 2138 3103 
Q 1681 3103 1420 2742 
Q 1159 2381 1159 1747 
Q 1159 1113 1420 752 
Q 1681 391 2138 391 
Q 2594 391 2855 752 
Q 3116 1113 3116 1747 
z
" transform="scale(0.015625)"/>
      <path id="DejaVuSans-3d" d="M 678 2906 
L 4684 2906 
L 4684 2381 
L 678 2381 
L 678 2906 
z
M 678 1631 
L 4684 1631 
L 4684 1100 
L 678 1100 
L 678 1631 
z
" transform="scale(0.015625)"/>
      <path id="DejaVuSans-2e" d="M 684 794 
L 1344 794 
L 1344 0 
L 684 0 
L 684 794 
z
" transform="scale(0.015625)"/>
     </defs>
     <use xlink:href="#DejaVuSans-45"/>
     <use xlink:href="#DejaVuSans-76" x="63.183594"/>
     <use xlink:href="#DejaVuSans-65" x="122.363281"/>
     <use xlink:href="#DejaVuSans-6e" x="183.886719"/>
     <use xlink:href="#DejaVuSans-74" x="247.265625"/>
     <use xlink:href="#DejaVuSans-20" x="286.474609"/>
     <use xlink:href="#DejaVuSans-31" x="318.261719"/>
     <use xlink:href="#DejaVuSans-35" x="381.884766"/>
     <use xlink:href="#DejaVuSans-5f" x="445.507812"/>
     <use xlink:href="#DejaVuSans-70" x="495.507812"/>
     <use xlink:href="#DejaVuSans-3d" x="558.984375"/>
     <use xlink:href="#DejaVuSans-30" x="642.773438"/>
     <use xlink:href="#DejaVuSans-2e" x="706.396484"/>
     <use xlink:href="#DejaVuSans-38" x="738.183594"/>
     <use xlink:href="#DejaVuSans-33" x="801.806641"/>
     <use xlink:href="#DejaVuSans-39" x="865.429688"/>
    </g>
   </g>
  </g>
 </g>
 <defs>
  <clipPath id="p477aeffbb6">
   <rect x="57.6" y="41.472" width="357.12" height="266.112"/>
  </clipPath>
 </defs>
</svg>
