<?xml version="1.0" encoding="utf-8" standalone="no"?>
<!DOCTYPE svg PUBLIC "-//W3C//DTD SVG 1.1//EN"
  "http://www.w3.org/Graphics/SVG/1.1/DTD/svg11.dtd">
<svg xmlns:xlink="http://www.w3.org/1999/xlink" width="460.8pt" height="345.6pt" viewBox="0 0 460.8 345.6" xmlns="http://www.w3.org/2000/svg" version="1.1">
 <metadata>
  <rdf:RDF xmlns:dc="http://purl.org/dc/elements/1.1/" xmlns:cc="http://creativecommons.org/ns#" xmlns:rdf="http://www.w3.org/1999/02/22-rdf-syntax-ns#">
   <cc:Work>
    <dc:type rdf:resource="http://purl.org/dc/dcmitype/StillImage"/>
    <dc:date>2024-11-12T22:27:48.380285</dc:date>
    <dc:format>image/svg+xml</dc:format>
    <dc:creator>
     <cc:Agent>
      <dc:title>Matplotlib v3.8.2, https://matplotlib.org/</dc:title>
     </cc:Agent>
    </dc:creator>
   </cc:Work>
  </rdf:RDF>
 </metadata>
 <defs>
  <style type="text/css">*{stroke-linejoin: round; stroke-linecap: butt}</style>
 </defs>
 <g id="figure_1">
  <g id="patch_1">
   <path d="M 0 345.6 
L 460.8 345.6 
L 460.8 0 
L 0 0 
z
" style="fill: #ffffff"/>
  </g>
  <g id="axes_1">
   <g id="patch_2">
    <path d="M 57.6 307.584 
L 414.72 307.584 
L 414.72 41.472 
L 57.6 41.472 
z
" style="fill: #ffffff"/>
   </g>
   <g id="PolyCollection_1">
    <defs>
     <path id="m187c92b394" d="M 73.832727 -212.615463 
L 73.832727 -159.09692 
L 74.918528 -160.102072 
L 76.00433 -160.8194 
L 77.090131 -160.702631 
L 78.175932 -160.20134 
L 79.261733 -160.319041 
L 80.347534 -160.445757 
L 81.433335 -160.170142 
L 82.519137 -160.152257 
L 83.604938 -160.018296 
L 84.690739 -160.322294 
L 85.77654 -159.882396 
L 86.862341 -159.900239 
L 87.948142 -159.567126 
L 89.033943 -160.075695 
L 90.119745 -160.416672 
L 91.205546 -160.651723 
L 92.291347 -161.305329 
L 93.377148 -162.185491 
L 94.462949 -161.826306 
L 95.54875 -161.807991 
L 96.634552 -161.661133 
L 97.720353 -160.394011 
L 98.806154 -159.807865 
L 99.891955 -159.813936 
L 100.977756 -158.875198 
L 102.063557 -157.991519 
L 103.149358 -157.397053 
L 104.23516 -157.123922 
L 105.320961 -157.065288 
L 106.406762 -157.10943 
L 107.492563 -157.069098 
L 108.578364 -157.2691 
L 109.664165 -156.562881 
L 110.749967 -156.382733 
L 111.835768 -156.568225 
L 112.921569 -157.216022 
L 114.00737 -157.615749 
L 115.093171 -157.837674 
L 116.178972 -156.763154 
L 117.264773 -156.816857 
L 118.350575 -156.521965 
L 119.436376 -156.19211 
L 120.522177 -156.234344 
L 121.607978 -156.353652 
L 122.693779 -157.15891 
L 123.77958 -158.63457 
L 124.865382 -159.016418 
L 125.951183 -159.00427 
L 127.036984 -159.982096 
L 128.122785 -160.081197 
L 129.208586 -160.780138 
L 130.294387 -162.149326 
L 131.380189 -162.43546 
L 132.46599 -163.042295 
L 133.551791 -163.174106 
L 134.637592 -163.398968 
L 135.723393 -163.477403 
L 136.809194 -164.585229 
L 137.894995 -165.598629 
L 138.980797 -165.584477 
L 140.066598 -166.87583 
L 141.152399 -167.424145 
L 142.2382 -169.042031 
L 143.324001 -170.219447 
L 144.409802 -170.869577 
L 145.495604 -171.752396 
L 146.581405 -172.97889 
L 147.667206 -174.827054 
L 148.753007 -175.570922 
L 149.838808 -176.463738 
L 150.924609 -175.956534 
L 152.01041 -175.84519 
L 153.096212 -175.871237 
L 154.182013 -175.57277 
L 155.267814 -175.376886 
L 156.353615 -174.080475 
L 157.439416 -173.304779 
L 158.525217 -172.053864 
L 159.611019 -169.784083 
L 160.69682 -167.124471 
L 161.782621 -165.949685 
L 162.868422 -163.666911 
L 163.954223 -161.332736 
L 165.040024 -158.706615 
L 166.125825 -157.406027 
L 167.211627 -155.329194 
L 168.297428 -152.292447 
L 169.383229 -149.887089 
L 170.46903 -147.309278 
L 171.554831 -144.141258 
L 172.640632 -141.483121 
L 173.726434 -138.840629 
L 174.812235 -136.355217 
L 175.898036 -132.692828 
L 176.983837 -130.185914 
L 178.069638 -127.239843 
L 179.155439 -124.940262 
L 180.24124 -124.914404 
L 181.327042 -122.924641 
L 182.412843 -119.282313 
L 183.498644 -116.804583 
L 184.584445 -116.03059 
L 185.670246 -114.639356 
L 186.756047 -113.374861 
L 187.841849 -111.981334 
L 188.92765 -111.102333 
L 190.013451 -111.430107 
L 191.099252 -112.44913 
L 192.185053 -111.524984 
L 193.270854 -111.463766 
L 194.356656 -111.563411 
L 195.442457 -111.731209 
L 196.528258 -111.439912 
L 197.614059 -112.161358 
L 198.69986 -112.030297 
L 199.785661 -112.527978 
L 200.871462 -113.071717 
L 201.957264 -113.300061 
L 203.043065 -113.244403 
L 204.128866 -113.042673 
L 205.214667 -112.95673 
L 206.300468 -112.507566 
L 207.386269 -112.76459 
L 208.472071 -112.349152 
L 209.557872 -111.470667 
L 210.643673 -111.084299 
L 211.729474 -110.65293 
L 212.815275 -110.631838 
L 213.901076 -112.155941 
L 214.986877 -113.587816 
L 216.072679 -114.366402 
L 217.15848 -115.813331 
L 218.244281 -116.610609 
L 219.330082 -118.203955 
L 220.415883 -119.120857 
L 221.501684 -120.213617 
L 222.587486 -122.29339 
L 223.673287 -124.470246 
L 224.759088 -125.711704 
L 225.844889 -127.863903 
L 226.93069 -128.363787 
L 228.016491 -130.152499 
L 229.102292 -132.22846 
L 230.188094 -133.340502 
L 231.273895 -134.164907 
L 232.359696 -134.83795 
L 233.445497 -136.348977 
L 234.531298 -137.615317 
L 235.617099 -139.164762 
L 236.702901 -141.046143 
L 237.788702 -143.578898 
L 238.874503 -145.064392 
L 239.960304 -146.449762 
L 241.046105 -148.251513 
L 242.131906 -149.274208 
L 243.217708 -149.38597 
L 244.303509 -150.374965 
L 245.38931 -151.056541 
L 246.475111 -152.492599 
L 247.560912 -153.732365 
L 248.646713 -154.157653 
L 249.732514 -154.608729 
L 250.818316 -155.526355 
L 251.904117 -155.652999 
L 252.989918 -154.906327 
L 254.075719 -153.197223 
L 255.16152 -151.998605 
L 256.247321 -150.78731 
L 257.333123 -149.819158 
L 258.418924 -148.838697 
L 259.504725 -147.931787 
L 260.590526 -146.934276 
L 261.676327 -146.384047 
L 262.762128 -145.825247 
L 263.847929 -145.354458 
L 264.933731 -145.046061 
L 266.019532 -145.199095 
L 267.105333 -144.87888 
L 268.191134 -145.419564 
L 269.276935 -145.010709 
L 270.362736 -145.444007 
L 271.448538 -145.093526 
L 272.534339 -144.340051 
L 273.62014 -143.95719 
L 274.705941 -143.077976 
L 275.791742 -141.351293 
L 276.877543 -140.655698 
L 277.963344 -138.873003 
L 279.049146 -136.677955 
L 280.134947 -134.670693 
L 281.220748 -132.724729 
L 282.306549 -130.508893 
L 283.39235 -128.481228 
L 284.478151 -125.666191 
L 285.563953 -124.147348 
L 286.649754 -121.372659 
L 287.735555 -118.625051 
L 288.821356 -116.803716 
L 289.907157 -113.624649 
L 290.992958 -112.393419 
L 292.07876 -109.883247 
L 293.164561 -107.055439 
L 294.250362 -105.067395 
L 295.336163 -103.066031 
L 296.421964 -101.846433 
L 297.507765 -99.847654 
L 298.593566 -97.897138 
L 299.679368 -95.786911 
L 300.765169 -93.802233 
L 301.85097 -90.399062 
L 302.936771 -88.749005 
L 304.022572 -86.406218 
L 305.108373 -83.557439 
L 306.194175 -82.260003 
L 307.279976 -80.398284 
L 308.365777 -77.653277 
L 309.451578 -75.870026 
L 310.537379 -73.549648 
L 311.62318 -71.274027 
L 312.708981 -69.245597 
L 313.794783 -67.364916 
L 314.880584 -64.57616 
L 315.966385 -63.074983 
L 317.052186 -62.292839 
L 318.137987 -61.265554 
L 319.223788 -59.715306 
L 320.30959 -59.311902 
L 321.395391 -58.109612 
L 322.481192 -57.551824 
L 323.566993 -57.044263 
L 324.652794 -56.287907 
L 325.738595 -54.42808 
L 326.824396 -54.030742 
L 327.910198 -53.447728 
L 328.995999 -53.261639 
L 330.0818 -51.662384 
L 331.167601 -52.443571 
L 332.253402 -51.070547 
L 333.339203 -51.033785 
L 334.425005 -50.112 
L 335.510806 -50.433271 
L 336.596607 -51.068993 
L 337.682408 -50.33147 
L 338.768209 -50.527697 
L 339.85401 -50.901027 
L 340.939811 -52.356461 
L 342.025613 -52.697372 
L 343.111414 -53.417602 
L 344.197215 -53.186293 
L 345.283016 -52.650992 
L 346.368817 -53.611849 
L 347.454618 -54.206359 
L 348.54042 -54.882963 
L 349.626221 -55.289042 
L 350.712022 -55.048476 
L 351.797823 -55.999071 
L 352.883624 -56.037707 
L 353.969425 -56.814803 
L 355.055227 -56.575849 
L 356.141028 -56.978485 
L 357.226829 -57.392082 
L 358.31263 -57.708101 
L 359.398431 -57.845019 
L 360.484232 -57.496034 
L 361.570033 -56.84113 
L 362.655835 -55.483756 
L 363.741636 -54.975943 
L 364.827437 -53.508217 
L 365.913238 -52.821211 
L 366.999039 -52.634622 
L 368.08484 -52.875345 
L 369.170642 -53.692591 
L 370.256443 -53.74608 
L 371.342244 -53.609663 
L 372.428045 -54.007118 
L 373.513846 -53.221819 
L 374.599647 -53.214106 
L 375.685448 -53.260504 
L 376.77125 -53.345187 
L 377.857051 -53.351807 
L 378.942852 -53.305839 
L 380.028653 -52.844164 
L 381.114454 -53.522743 
L 382.200255 -53.940553 
L 383.286057 -53.925621 
L 384.371858 -54.046499 
L 385.457659 -54.705034 
L 386.54346 -54.89745 
L 387.629261 -55.091467 
L 388.715062 -55.689792 
L 389.800863 -56.587417 
L 390.886665 -55.318195 
L 391.972466 -54.251179 
L 393.058267 -53.657402 
L 394.144068 -53.634081 
L 395.229869 -52.679196 
L 396.31567 -52.040755 
L 397.401472 -51.37418 
L 398.487273 -50.860551 
L 398.487273 -157.451665 
L 398.487273 -157.451665 
L 397.401472 -157.870299 
L 396.31567 -158.497306 
L 395.229869 -158.888403 
L 394.144068 -159.479989 
L 393.058267 -159.789899 
L 391.972466 -160.008227 
L 390.886665 -160.867296 
L 389.800863 -161.557561 
L 388.715062 -161.535684 
L 387.629261 -162.039801 
L 386.54346 -162.66846 
L 385.457659 -163.090924 
L 384.371858 -162.916077 
L 383.286057 -162.915173 
L 382.200255 -162.574772 
L 381.114454 -162.725565 
L 380.028653 -162.645021 
L 378.942852 -162.535742 
L 377.857051 -162.058589 
L 376.77125 -162.202876 
L 375.685448 -162.644253 
L 374.599647 -163.266459 
L 373.513846 -163.66984 
L 372.428045 -164.588614 
L 371.342244 -164.865909 
L 370.256443 -165.567842 
L 369.170642 -166.016234 
L 368.08484 -166.300437 
L 366.999039 -167.234702 
L 365.913238 -167.620625 
L 364.827437 -169.063932 
L 363.741636 -170.921465 
L 362.655835 -172.607831 
L 361.570033 -174.616597 
L 360.484232 -176.686949 
L 359.398431 -178.091993 
L 358.31263 -179.497573 
L 357.226829 -181.57666 
L 356.141028 -183.68517 
L 355.055227 -186.221296 
L 353.969425 -188.294127 
L 352.883624 -189.432756 
L 351.797823 -191.75304 
L 350.712022 -192.731791 
L 349.626221 -193.805862 
L 348.54042 -195.213492 
L 347.454618 -195.781774 
L 346.368817 -196.709395 
L 345.283016 -196.9017 
L 344.197215 -199.662265 
L 343.111414 -201.258255 
L 342.025613 -202.47853 
L 340.939811 -204.138521 
L 339.85401 -205.436046 
L 338.768209 -207.816282 
L 337.682408 -209.761904 
L 336.596607 -212.56079 
L 335.510806 -214.765372 
L 334.425005 -216.221687 
L 333.339203 -218.717182 
L 332.253402 -219.906261 
L 331.167601 -222.75457 
L 330.0818 -223.853631 
L 328.995999 -226.482711 
L 327.910198 -228.779806 
L 326.824396 -230.849905 
L 325.738595 -232.454157 
L 324.652794 -235.537362 
L 323.566993 -237.101415 
L 322.481192 -238.375764 
L 321.395391 -239.969411 
L 320.30959 -242.378831 
L 319.223788 -243.682161 
L 318.137987 -246.22496 
L 317.052186 -247.138367 
L 315.966385 -248.609519 
L 314.880584 -250.808744 
L 313.794783 -254.073249 
L 312.708981 -255.577455 
L 311.62318 -257.610447 
L 310.537379 -259.175425 
L 309.451578 -261.192197 
L 308.365777 -262.197172 
L 307.279976 -263.831791 
L 306.194175 -265.052491 
L 305.108373 -266.210693 
L 304.022572 -267.445587 
L 302.936771 -268.533691 
L 301.85097 -269.25695 
L 300.765169 -271.019138 
L 299.679368 -270.987716 
L 298.593566 -271.989991 
L 297.507765 -272.856427 
L 296.421964 -273.479134 
L 295.336163 -273.612371 
L 294.250362 -273.775973 
L 293.164561 -274.317608 
L 292.07876 -276.027434 
L 290.992958 -276.935725 
L 289.907157 -276.696702 
L 288.821356 -279.347501 
L 287.735555 -279.453515 
L 286.649754 -280.347774 
L 285.563953 -281.892136 
L 284.478151 -283.200652 
L 283.39235 -285.494562 
L 282.306549 -286.713886 
L 281.220748 -288.493824 
L 280.134947 -289.152913 
L 279.049146 -290.087287 
L 277.963344 -290.955952 
L 276.877543 -291.948209 
L 275.791742 -291.406682 
L 274.705941 -292.032 
L 273.62014 -291.461723 
L 272.534339 -290.690272 
L 271.448538 -290.682645 
L 270.362736 -290.18869 
L 269.276935 -288.645526 
L 268.191134 -289.120585 
L 267.105333 -287.601817 
L 266.019532 -287.819905 
L 264.933731 -286.546863 
L 263.847929 -286.16802 
L 262.762128 -285.725164 
L 261.676327 -285.577373 
L 260.590526 -285.30945 
L 259.504725 -286.280575 
L 258.418924 -287.344052 
L 257.333123 -287.82447 
L 256.247321 -288.359917 
L 255.16152 -288.745206 
L 254.075719 -288.775463 
L 252.989918 -291.181445 
L 251.904117 -291.888728 
L 250.818316 -291.740847 
L 249.732514 -291.387937 
L 248.646713 -291.720463 
L 247.560912 -290.964868 
L 246.475111 -290.211461 
L 245.38931 -288.129878 
L 244.303509 -287.432826 
L 243.217708 -286.645243 
L 242.131906 -286.603501 
L 241.046105 -286.128365 
L 239.960304 -284.098601 
L 238.874503 -282.45305 
L 237.788702 -280.682052 
L 236.702901 -276.920116 
L 235.617099 -274.648729 
L 234.531298 -272.289962 
L 233.445497 -269.946384 
L 232.359696 -267.529861 
L 231.273895 -265.417042 
L 230.188094 -264.192303 
L 229.102292 -262.171502 
L 228.016491 -258.511937 
L 226.93069 -255.799064 
L 225.844889 -254.314577 
L 224.759088 -251.85996 
L 223.673287 -250.656232 
L 222.587486 -247.907922 
L 221.501684 -245.288114 
L 220.415883 -243.18467 
L 219.330082 -241.68569 
L 218.244281 -240.064373 
L 217.15848 -238.348088 
L 216.072679 -236.306198 
L 214.986877 -235.060371 
L 213.901076 -233.07521 
L 212.815275 -230.099099 
L 211.729474 -229.366663 
L 210.643673 -228.102486 
L 209.557872 -227.564829 
L 208.472071 -226.985966 
L 207.386269 -225.700867 
L 206.300468 -224.210532 
L 205.214667 -222.685591 
L 204.128866 -221.413989 
L 203.043065 -219.850289 
L 201.957264 -218.459675 
L 200.871462 -216.988434 
L 199.785661 -215.252897 
L 198.69986 -213.6356 
L 197.614059 -212.42885 
L 196.528258 -210.345706 
L 195.442457 -208.935691 
L 194.356656 -207.146063 
L 193.270854 -205.509379 
L 192.185053 -204.596631 
L 191.099252 -204.250927 
L 190.013451 -202.603898 
L 188.92765 -200.472332 
L 187.841849 -199.293139 
L 186.756047 -198.689464 
L 185.670246 -197.764097 
L 184.584445 -197.146048 
L 183.498644 -196.579775 
L 182.412843 -195.963386 
L 181.327042 -194.831976 
L 180.24124 -194.550144 
L 179.155439 -192.621016 
L 178.069638 -192.138396 
L 176.983837 -192.296746 
L 175.898036 -192.992268 
L 174.812235 -193.96981 
L 173.726434 -194.033249 
L 172.640632 -194.07098 
L 171.554831 -194.1286 
L 170.46903 -194.727843 
L 169.383229 -195.125942 
L 168.297428 -195.13585 
L 167.211627 -195.298094 
L 166.125825 -195.043296 
L 165.040024 -194.503444 
L 163.954223 -194.248858 
L 162.868422 -194.023191 
L 161.782621 -193.590351 
L 160.69682 -192.605997 
L 159.611019 -192.799711 
L 158.525217 -192.825519 
L 157.439416 -192.498597 
L 156.353615 -192.614756 
L 155.267814 -193.002688 
L 154.182013 -192.988242 
L 153.096212 -193.341554 
L 152.01041 -193.79267 
L 150.924609 -193.880845 
L 149.838808 -194.447433 
L 148.753007 -194.112851 
L 147.667206 -193.326979 
L 146.581405 -192.44741 
L 145.495604 -191.873234 
L 144.409802 -192.093691 
L 143.324001 -192.682602 
L 142.2382 -192.2055 
L 141.152399 -191.709919 
L 140.066598 -191.763026 
L 138.980797 -192.472166 
L 137.894995 -193.225017 
L 136.809194 -193.03743 
L 135.723393 -193.245756 
L 134.637592 -193.426913 
L 133.551791 -193.612615 
L 132.46599 -193.927202 
L 131.380189 -194.016105 
L 130.294387 -193.48556 
L 129.208586 -192.722532 
L 128.122785 -191.049384 
L 127.036984 -190.622531 
L 125.951183 -188.970756 
L 124.865382 -188.119378 
L 123.77958 -186.589016 
L 122.693779 -184.922422 
L 121.607978 -183.910034 
L 120.522177 -183.333639 
L 119.436376 -182.21891 
L 118.350575 -181.601004 
L 117.264773 -181.665402 
L 116.178972 -180.683472 
L 115.093171 -181.028488 
L 114.00737 -180.194524 
L 112.921569 -179.619237 
L 111.835768 -179.04752 
L 110.749967 -178.850095 
L 109.664165 -178.939542 
L 108.578364 -179.895593 
L 107.492563 -180.079635 
L 106.406762 -180.408213 
L 105.320961 -180.33548 
L 104.23516 -179.845122 
L 103.149358 -179.594777 
L 102.063557 -180.23368 
L 100.977756 -181.033187 
L 99.891955 -182.074845 
L 98.806154 -181.712867 
L 97.720353 -182.349792 
L 96.634552 -184.35296 
L 95.54875 -184.789339 
L 94.462949 -185.250225 
L 93.377148 -186.450176 
L 92.291347 -185.947567 
L 91.205546 -185.903329 
L 90.119745 -186.418721 
L 89.033943 -187.581014 
L 87.948142 -188.997354 
L 86.862341 -190.501719 
L 85.77654 -192.151064 
L 84.690739 -194.363926 
L 83.604938 -195.782074 
L 82.519137 -197.816545 
L 81.433335 -199.482046 
L 80.347534 -201.300627 
L 79.261733 -202.883079 
L 78.175932 -205.63887 
L 77.090131 -208.348983 
L 76.00433 -210.872715 
L 74.918528 -212.230429 
L 73.832727 -212.615463 
z
" style="stroke: #ff00ff; stroke-opacity: 0.1"/>
    </defs>
    <g clip-path="url(#pf0f841499c)">
     <use xlink:href="#m187c92b394" x="0" y="345.6" style="fill: #ff00ff; fill-opacity: 0.1; stroke: #ff00ff; stroke-opacity: 0.1"/>
    </g>
   </g>
   <g id="matplotlib.axis_1">
    <g id="xtick_1">
     <g id="line2d_1">
      <defs>
       <path id="m1189bd3cf4" d="M 0 0 
L 0 3.5 
" style="stroke: #000000; stroke-width: 0.8"/>
      </defs>
      <g>
       <use xlink:href="#m1189bd3cf4" x="73.832727" y="307.584" style="stroke: #000000; stroke-width: 0.8"/>
      </g>
     </g>
     <g id="text_1">
      <!-- −5 -->
      <g transform="translate(66.461634 322.182437) scale(0.1 -0.1)">
       <defs>
        <path id="DejaVuSans-2212" d="M 678 2272 
L 4684 2272 
L 4684 1741 
L 678 1741 
L 678 2272 
z
" transform="scale(0.015625)"/>
        <path id="DejaVuSans-35" d="M 691 4666 
L 3169 4666 
L 3169 4134 
L 1269 4134 
L 1269 2991 
Q 1406 3038 1543 3061 
Q 1681 3084 1819 3084 
Q 2600 3084 3056 2656 
Q 3513 2228 3513 1497 
Q 3513 744 3044 326 
Q 2575 -91 1722 -91 
Q 1428 -91 1123 -41 
Q 819 9 494 109 
L 494 744 
Q 775 591 1075 516 
Q 1375 441 1709 441 
Q 2250 441 2565 725 
Q 2881 1009 2881 1497 
Q 2881 1984 2565 2268 
Q 2250 2553 1709 2553 
Q 1456 2553 1204 2497 
Q 953 2441 691 2322 
L 691 4666 
z
" transform="scale(0.015625)"/>
       </defs>
       <use xlink:href="#DejaVuSans-2212"/>
       <use xlink:href="#DejaVuSans-35" x="83.789062"/>
      </g>
     </g>
    </g>
    <g id="xtick_2">
     <g id="line2d_2">
      <g>
       <use xlink:href="#m1189bd3cf4" x="95.54875" y="307.584" style="stroke: #000000; stroke-width: 0.8"/>
      </g>
     </g>
     <g id="text_2">
      <!-- −4 -->
      <g transform="translate(88.177657 322.182437) scale(0.1 -0.1)">
       <defs>
        <path id="DejaVuSans-34" d="M 2419 4116 
L 825 1625 
L 2419 1625 
L 2419 4116 
z
M 2253 4666 
L 3047 4666 
L 3047 1625 
L 3713 1625 
L 3713 1100 
L 3047 1100 
L 3047 0 
L 2419 0 
L 2419 1100 
L 313 1100 
L 313 1709 
L 2253 4666 
z
" transform="scale(0.015625)"/>
       </defs>
       <use xlink:href="#DejaVuSans-2212"/>
       <use xlink:href="#DejaVuSans-34" x="83.789062"/>
      </g>
     </g>
    </g>
    <g id="xtick_3">
     <g id="line2d_3">
      <g>
       <use xlink:href="#m1189bd3cf4" x="117.264773" y="307.584" style="stroke: #000000; stroke-width: 0.8"/>
      </g>
     </g>
     <g id="text_3">
      <!-- −3 -->
      <g transform="translate(109.89368 322.182437) scale(0.1 -0.1)">
       <defs>
        <path id="DejaVuSans-33" d="M 2597 2516 
Q 3050 2419 3304 2112 
Q 3559 1806 3559 1356 
Q 3559 666 3084 287 
Q 2609 -91 1734 -91 
Q 1441 -91 1130 -33 
Q 819 25 488 141 
L 488 750 
Q 750 597 1062 519 
Q 1375 441 1716 441 
Q 2309 441 2620 675 
Q 2931 909 2931 1356 
Q 2931 1769 2642 2001 
Q 2353 2234 1838 2234 
L 1294 2234 
L 1294 2753 
L 1863 2753 
Q 2328 2753 2575 2939 
Q 2822 3125 2822 3475 
Q 2822 3834 2567 4026 
Q 2313 4219 1838 4219 
Q 1578 4219 1281 4162 
Q 984 4106 628 3988 
L 628 4550 
Q 988 4650 1302 4700 
Q 1616 4750 1894 4750 
Q 2613 4750 3031 4423 
Q 3450 4097 3450 3541 
Q 3450 3153 3228 2886 
Q 3006 2619 2597 2516 
z
" transform="scale(0.015625)"/>
       </defs>
       <use xlink:href="#DejaVuSans-2212"/>
       <use xlink:href="#DejaVuSans-33" x="83.789062"/>
      </g>
     </g>
    </g>
    <g id="xtick_4">
     <g id="line2d_4">
      <g>
       <use xlink:href="#m1189bd3cf4" x="138.980797" y="307.584" style="stroke: #000000; stroke-width: 0.8"/>
      </g>
     </g>
     <g id="text_4">
      <!-- −2 -->
      <g transform="translate(131.609703 322.182437) scale(0.1 -0.1)">
       <defs>
        <path id="DejaVuSans-32" d="M 1228 531 
L 3431 531 
L 3431 0 
L 469 0 
L 469 531 
Q 828 903 1448 1529 
Q 2069 2156 2228 2338 
Q 2531 2678 2651 2914 
Q 2772 3150 2772 3378 
Q 2772 3750 2511 3984 
Q 2250 4219 1831 4219 
Q 1534 4219 1204 4116 
Q 875 4013 500 3803 
L 500 4441 
Q 881 4594 1212 4672 
Q 1544 4750 1819 4750 
Q 2544 4750 2975 4387 
Q 3406 4025 3406 3419 
Q 3406 3131 3298 2873 
Q 3191 2616 2906 2266 
Q 2828 2175 2409 1742 
Q 1991 1309 1228 531 
z
" transform="scale(0.015625)"/>
       </defs>
       <use xlink:href="#DejaVuSans-2212"/>
       <use xlink:href="#DejaVuSans-32" x="83.789062"/>
      </g>
     </g>
    </g>
    <g id="xtick_5">
     <g id="line2d_5">
      <g>
       <use xlink:href="#m1189bd3cf4" x="160.69682" y="307.584" style="stroke: #000000; stroke-width: 0.8"/>
      </g>
     </g>
     <g id="text_5">
      <!-- −1 -->
      <g transform="translate(153.325726 322.182437) scale(0.1 -0.1)">
       <defs>
        <path id="DejaVuSans-31" d="M 794 531 
L 1825 531 
L 1825 4091 
L 703 3866 
L 703 4441 
L 1819 4666 
L 2450 4666 
L 2450 531 
L 3481 531 
L 3481 0 
L 794 0 
L 794 531 
z
" transform="scale(0.015625)"/>
       </defs>
       <use xlink:href="#DejaVuSans-2212"/>
       <use xlink:href="#DejaVuSans-31" x="83.789062"/>
      </g>
     </g>
    </g>
    <g id="xtick_6">
     <g id="line2d_6">
      <g>
       <use xlink:href="#m1189bd3cf4" x="182.412843" y="307.584" style="stroke: #000000; stroke-width: 0.8"/>
      </g>
     </g>
     <g id="text_6">
      <!-- 0 -->
      <g transform="translate(179.231593 322.182437) scale(0.1 -0.1)">
       <defs>
        <path id="DejaVuSans-30" d="M 2034 4250 
Q 1547 4250 1301 3770 
Q 1056 3291 1056 2328 
Q 1056 1369 1301 889 
Q 1547 409 2034 409 
Q 2525 409 2770 889 
Q 3016 1369 3016 2328 
Q 3016 3291 2770 3770 
Q 2525 4250 2034 4250 
z
M 2034 4750 
Q 2819 4750 3233 4129 
Q 3647 3509 3647 2328 
Q 3647 1150 3233 529 
Q 2819 -91 2034 -91 
Q 1250 -91 836 529 
Q 422 1150 422 2328 
Q 422 3509 836 4129 
Q 1250 4750 2034 4750 
z
" transform="scale(0.015625)"/>
       </defs>
       <use xlink:href="#DejaVuSans-30"/>
      </g>
     </g>
    </g>
    <g id="xtick_7">
     <g id="line2d_7">
      <g>
       <use xlink:href="#m1189bd3cf4" x="204.128866" y="307.584" style="stroke: #000000; stroke-width: 0.8"/>
      </g>
     </g>
     <g id="text_7">
      <!-- 1 -->
      <g transform="translate(200.947616 322.182437) scale(0.1 -0.1)">
       <use xlink:href="#DejaVuSans-31"/>
      </g>
     </g>
    </g>
    <g id="xtick_8">
     <g id="line2d_8">
      <g>
       <use xlink:href="#m1189bd3cf4" x="225.844889" y="307.584" style="stroke: #000000; stroke-width: 0.8"/>
      </g>
     </g>
     <g id="text_8">
      <!-- 2 -->
      <g transform="translate(222.663639 322.182437) scale(0.1 -0.1)">
       <use xlink:href="#DejaVuSans-32"/>
      </g>
     </g>
    </g>
    <g id="xtick_9">
     <g id="line2d_9">
      <g>
       <use xlink:href="#m1189bd3cf4" x="247.560912" y="307.584" style="stroke: #000000; stroke-width: 0.8"/>
      </g>
     </g>
     <g id="text_9">
      <!-- 3 -->
      <g transform="translate(244.379662 322.182437) scale(0.1 -0.1)">
       <use xlink:href="#DejaVuSans-33"/>
      </g>
     </g>
    </g>
    <g id="xtick_10">
     <g id="line2d_10">
      <g>
       <use xlink:href="#m1189bd3cf4" x="269.276935" y="307.584" style="stroke: #000000; stroke-width: 0.8"/>
      </g>
     </g>
     <g id="text_10">
      <!-- 4 -->
      <g transform="translate(266.095685 322.182437) scale(0.1 -0.1)">
       <use xlink:href="#DejaVuSans-34"/>
      </g>
     </g>
    </g>
    <g id="xtick_11">
     <g id="line2d_11">
      <g>
       <use xlink:href="#m1189bd3cf4" x="290.992958" y="307.584" style="stroke: #000000; stroke-width: 0.8"/>
      </g>
     </g>
     <g id="text_11">
      <!-- 5 -->
      <g transform="translate(287.811708 322.182437) scale(0.1 -0.1)">
       <use xlink:href="#DejaVuSans-35"/>
      </g>
     </g>
    </g>
    <g id="xtick_12">
     <g id="line2d_12">
      <g>
       <use xlink:href="#m1189bd3cf4" x="312.708981" y="307.584" style="stroke: #000000; stroke-width: 0.8"/>
      </g>
     </g>
     <g id="text_12">
      <!-- 6 -->
      <g transform="translate(309.527731 322.182437) scale(0.1 -0.1)">
       <defs>
        <path id="DejaVuSans-36" d="M 2113 2584 
Q 1688 2584 1439 2293 
Q 1191 2003 1191 1497 
Q 1191 994 1439 701 
Q 1688 409 2113 409 
Q 2538 409 2786 701 
Q 3034 994 3034 1497 
Q 3034 2003 2786 2293 
Q 2538 2584 2113 2584 
z
M 3366 4563 
L 3366 3988 
Q 3128 4100 2886 4159 
Q 2644 4219 2406 4219 
Q 1781 4219 1451 3797 
Q 1122 3375 1075 2522 
Q 1259 2794 1537 2939 
Q 1816 3084 2150 3084 
Q 2853 3084 3261 2657 
Q 3669 2231 3669 1497 
Q 3669 778 3244 343 
Q 2819 -91 2113 -91 
Q 1303 -91 875 529 
Q 447 1150 447 2328 
Q 447 3434 972 4092 
Q 1497 4750 2381 4750 
Q 2619 4750 2861 4703 
Q 3103 4656 3366 4563 
z
" transform="scale(0.015625)"/>
       </defs>
       <use xlink:href="#DejaVuSans-36"/>
      </g>
     </g>
    </g>
    <g id="xtick_13">
     <g id="line2d_13">
      <g>
       <use xlink:href="#m1189bd3cf4" x="334.425005" y="307.584" style="stroke: #000000; stroke-width: 0.8"/>
      </g>
     </g>
     <g id="text_13">
      <!-- 7 -->
      <g transform="translate(331.243755 322.182437) scale(0.1 -0.1)">
       <defs>
        <path id="DejaVuSans-37" d="M 525 4666 
L 3525 4666 
L 3525 4397 
L 1831 0 
L 1172 0 
L 2766 4134 
L 525 4134 
L 525 4666 
z
" transform="scale(0.015625)"/>
       </defs>
       <use xlink:href="#DejaVuSans-37"/>
      </g>
     </g>
    </g>
    <g id="xtick_14">
     <g id="line2d_14">
      <g>
       <use xlink:href="#m1189bd3cf4" x="356.141028" y="307.584" style="stroke: #000000; stroke-width: 0.8"/>
      </g>
     </g>
     <g id="text_14">
      <!-- 8 -->
      <g transform="translate(352.959778 322.182437) scale(0.1 -0.1)">
       <defs>
        <path id="DejaVuSans-38" d="M 2034 2216 
Q 1584 2216 1326 1975 
Q 1069 1734 1069 1313 
Q 1069 891 1326 650 
Q 1584 409 2034 409 
Q 2484 409 2743 651 
Q 3003 894 3003 1313 
Q 3003 1734 2745 1975 
Q 2488 2216 2034 2216 
z
M 1403 2484 
Q 997 2584 770 2862 
Q 544 3141 544 3541 
Q 544 4100 942 4425 
Q 1341 4750 2034 4750 
Q 2731 4750 3128 4425 
Q 3525 4100 3525 3541 
Q 3525 3141 3298 2862 
Q 3072 2584 2669 2484 
Q 3125 2378 3379 2068 
Q 3634 1759 3634 1313 
Q 3634 634 3220 271 
Q 2806 -91 2034 -91 
Q 1263 -91 848 271 
Q 434 634 434 1313 
Q 434 1759 690 2068 
Q 947 2378 1403 2484 
z
M 1172 3481 
Q 1172 3119 1398 2916 
Q 1625 2713 2034 2713 
Q 2441 2713 2670 2916 
Q 2900 3119 2900 3481 
Q 2900 3844 2670 4047 
Q 2441 4250 2034 4250 
Q 1625 4250 1398 4047 
Q 1172 3844 1172 3481 
z
" transform="scale(0.015625)"/>
       </defs>
       <use xlink:href="#DejaVuSans-38"/>
      </g>
     </g>
    </g>
    <g id="xtick_15">
     <g id="line2d_15">
      <g>
       <use xlink:href="#m1189bd3cf4" x="377.857051" y="307.584" style="stroke: #000000; stroke-width: 0.8"/>
      </g>
     </g>
     <g id="text_15">
      <!-- 9 -->
      <g transform="translate(374.675801 322.182437) scale(0.1 -0.1)">
       <defs>
        <path id="DejaVuSans-39" d="M 703 97 
L 703 672 
Q 941 559 1184 500 
Q 1428 441 1663 441 
Q 2288 441 2617 861 
Q 2947 1281 2994 2138 
Q 2813 1869 2534 1725 
Q 2256 1581 1919 1581 
Q 1219 1581 811 2004 
Q 403 2428 403 3163 
Q 403 3881 828 4315 
Q 1253 4750 1959 4750 
Q 2769 4750 3195 4129 
Q 3622 3509 3622 2328 
Q 3622 1225 3098 567 
Q 2575 -91 1691 -91 
Q 1453 -91 1209 -44 
Q 966 3 703 97 
z
M 1959 2075 
Q 2384 2075 2632 2365 
Q 2881 2656 2881 3163 
Q 2881 3666 2632 3958 
Q 2384 4250 1959 4250 
Q 1534 4250 1286 3958 
Q 1038 3666 1038 3163 
Q 1038 2656 1286 2365 
Q 1534 2075 1959 2075 
z
" transform="scale(0.015625)"/>
       </defs>
       <use xlink:href="#DejaVuSans-39"/>
      </g>
     </g>
    </g>
    <g id="xtick_16">
     <g id="line2d_16">
      <g>
       <use xlink:href="#m1189bd3cf4" x="399.573074" y="307.584" style="stroke: #000000; stroke-width: 0.8"/>
      </g>
     </g>
     <g id="text_16">
      <!-- 10 -->
      <g transform="translate(393.210574 322.182437) scale(0.1 -0.1)">
       <use xlink:href="#DejaVuSans-31"/>
       <use xlink:href="#DejaVuSans-30" x="63.623047"/>
      </g>
     </g>
    </g>
    <g id="text_17">
     <!-- Time (s) -->
     <g transform="translate(215.831094 335.860562) scale(0.1 -0.1)">
      <defs>
       <path id="DejaVuSans-54" d="M -19 4666 
L 3928 4666 
L 3928 4134 
L 2272 4134 
L 2272 0 
L 1638 0 
L 1638 4134 
L -19 4134 
L -19 4666 
z
" transform="scale(0.015625)"/>
       <path id="DejaVuSans-69" d="M 603 3500 
L 1178 3500 
L 1178 0 
L 603 0 
L 603 3500 
z
M 603 4863 
L 1178 4863 
L 1178 4134 
L 603 4134 
L 603 4863 
z
" transform="scale(0.015625)"/>
       <path id="DejaVuSans-6d" d="M 3328 2828 
Q 3544 3216 3844 3400 
Q 4144 3584 4550 3584 
Q 5097 3584 5394 3201 
Q 5691 2819 5691 2113 
L 5691 0 
L 5113 0 
L 5113 2094 
Q 5113 2597 4934 2840 
Q 4756 3084 4391 3084 
Q 3944 3084 3684 2787 
Q 3425 2491 3425 1978 
L 3425 0 
L 2847 0 
L 2847 2094 
Q 2847 2600 2669 2842 
Q 2491 3084 2119 3084 
Q 1678 3084 1418 2786 
Q 1159 2488 1159 1978 
L 1159 0 
L 581 0 
L 581 3500 
L 1159 3500 
L 1159 2956 
Q 1356 3278 1631 3431 
Q 1906 3584 2284 3584 
Q 2666 3584 2933 3390 
Q 3200 3197 3328 2828 
z
" transform="scale(0.015625)"/>
       <path id="DejaVuSans-65" d="M 3597 1894 
L 3597 1613 
L 953 1613 
Q 991 1019 1311 708 
Q 1631 397 2203 397 
Q 2534 397 2845 478 
Q 3156 559 3463 722 
L 3463 178 
Q 3153 47 2828 -22 
Q 2503 -91 2169 -91 
Q 1331 -91 842 396 
Q 353 884 353 1716 
Q 353 2575 817 3079 
Q 1281 3584 2069 3584 
Q 2775 3584 3186 3129 
Q 3597 2675 3597 1894 
z
M 3022 2063 
Q 3016 2534 2758 2815 
Q 2500 3097 2075 3097 
Q 1594 3097 1305 2825 
Q 1016 2553 972 2059 
L 3022 2063 
z
" transform="scale(0.015625)"/>
       <path id="DejaVuSans-20" transform="scale(0.015625)"/>
       <path id="DejaVuSans-28" d="M 1984 4856 
Q 1566 4138 1362 3434 
Q 1159 2731 1159 2009 
Q 1159 1288 1364 580 
Q 1569 -128 1984 -844 
L 1484 -844 
Q 1016 -109 783 600 
Q 550 1309 550 2009 
Q 550 2706 781 3412 
Q 1013 4119 1484 4856 
L 1984 4856 
z
" transform="scale(0.015625)"/>
       <path id="DejaVuSans-73" d="M 2834 3397 
L 2834 2853 
Q 2591 2978 2328 3040 
Q 2066 3103 1784 3103 
Q 1356 3103 1142 2972 
Q 928 2841 928 2578 
Q 928 2378 1081 2264 
Q 1234 2150 1697 2047 
L 1894 2003 
Q 2506 1872 2764 1633 
Q 3022 1394 3022 966 
Q 3022 478 2636 193 
Q 2250 -91 1575 -91 
Q 1294 -91 989 -36 
Q 684 19 347 128 
L 347 722 
Q 666 556 975 473 
Q 1284 391 1588 391 
Q 1994 391 2212 530 
Q 2431 669 2431 922 
Q 2431 1156 2273 1281 
Q 2116 1406 1581 1522 
L 1381 1569 
Q 847 1681 609 1914 
Q 372 2147 372 2553 
Q 372 3047 722 3315 
Q 1072 3584 1716 3584 
Q 2034 3584 2315 3537 
Q 2597 3491 2834 3397 
z
" transform="scale(0.015625)"/>
       <path id="DejaVuSans-29" d="M 513 4856 
L 1013 4856 
Q 1481 4119 1714 3412 
Q 1947 2706 1947 2009 
Q 1947 1309 1714 600 
Q 1481 -109 1013 -844 
L 513 -844 
Q 928 -128 1133 580 
Q 1338 1288 1338 2009 
Q 1338 2731 1133 3434 
Q 928 4138 513 4856 
z
" transform="scale(0.015625)"/>
      </defs>
      <use xlink:href="#DejaVuSans-54"/>
      <use xlink:href="#DejaVuSans-69" x="57.958984"/>
      <use xlink:href="#DejaVuSans-6d" x="85.742188"/>
      <use xlink:href="#DejaVuSans-65" x="183.154297"/>
      <use xlink:href="#DejaVuSans-20" x="244.677734"/>
      <use xlink:href="#DejaVuSans-28" x="276.464844"/>
      <use xlink:href="#DejaVuSans-73" x="315.478516"/>
      <use xlink:href="#DejaVuSans-29" x="367.578125"/>
     </g>
    </g>
   </g>
   <g id="matplotlib.axis_2">
    <g id="ytick_1">
     <g id="line2d_17">
      <defs>
       <path id="m17caab90e3" d="M 0 0 
L -3.5 0 
" style="stroke: #000000; stroke-width: 0.8"/>
      </defs>
      <g>
       <use xlink:href="#m17caab90e3" x="57.6" y="286.305177" style="stroke: #000000; stroke-width: 0.8"/>
      </g>
     </g>
     <g id="text_18">
      <!-- −3 -->
      <g transform="translate(35.857813 290.104395) scale(0.1 -0.1)">
       <use xlink:href="#DejaVuSans-2212"/>
       <use xlink:href="#DejaVuSans-33" x="83.789062"/>
      </g>
     </g>
    </g>
    <g id="ytick_2">
     <g id="line2d_18">
      <g>
       <use xlink:href="#m17caab90e3" x="57.6" y="247.747736" style="stroke: #000000; stroke-width: 0.8"/>
      </g>
     </g>
     <g id="text_19">
      <!-- −2 -->
      <g transform="translate(35.857813 251.546954) scale(0.1 -0.1)">
       <use xlink:href="#DejaVuSans-2212"/>
       <use xlink:href="#DejaVuSans-32" x="83.789062"/>
      </g>
     </g>
    </g>
    <g id="ytick_3">
     <g id="line2d_19">
      <g>
       <use xlink:href="#m17caab90e3" x="57.6" y="209.190295" style="stroke: #000000; stroke-width: 0.8"/>
      </g>
     </g>
     <g id="text_20">
      <!-- −1 -->
      <g transform="translate(35.857813 212.989513) scale(0.1 -0.1)">
       <use xlink:href="#DejaVuSans-2212"/>
       <use xlink:href="#DejaVuSans-31" x="83.789062"/>
      </g>
     </g>
    </g>
    <g id="ytick_4">
     <g id="line2d_20">
      <g>
       <use xlink:href="#m17caab90e3" x="57.6" y="170.632854" style="stroke: #000000; stroke-width: 0.8"/>
      </g>
     </g>
     <g id="text_21">
      <!-- 0 -->
      <g transform="translate(44.2375 174.432072) scale(0.1 -0.1)">
       <use xlink:href="#DejaVuSans-30"/>
      </g>
     </g>
    </g>
    <g id="ytick_5">
     <g id="line2d_21">
      <g>
       <use xlink:href="#m17caab90e3" x="57.6" y="132.075412" style="stroke: #000000; stroke-width: 0.8"/>
      </g>
     </g>
     <g id="text_22">
      <!-- 1 -->
      <g transform="translate(44.2375 135.874631) scale(0.1 -0.1)">
       <use xlink:href="#DejaVuSans-31"/>
      </g>
     </g>
    </g>
    <g id="ytick_6">
     <g id="line2d_22">
      <g>
       <use xlink:href="#m17caab90e3" x="57.6" y="93.517971" style="stroke: #000000; stroke-width: 0.8"/>
      </g>
     </g>
     <g id="text_23">
      <!-- 2 -->
      <g transform="translate(44.2375 97.31719) scale(0.1 -0.1)">
       <use xlink:href="#DejaVuSans-32"/>
      </g>
     </g>
    </g>
    <g id="ytick_7">
     <g id="line2d_23">
      <g>
       <use xlink:href="#m17caab90e3" x="57.6" y="54.96053" style="stroke: #000000; stroke-width: 0.8"/>
      </g>
     </g>
     <g id="text_24">
      <!-- 3 -->
      <g transform="translate(44.2375 58.759749) scale(0.1 -0.1)">
       <use xlink:href="#DejaVuSans-33"/>
      </g>
     </g>
    </g>
    <g id="text_25">
     <!-- Z-Score -->
     <g transform="translate(29.778125 193.67175) rotate(-90) scale(0.1 -0.1)">
      <defs>
       <path id="DejaVuSans-5a" d="M 359 4666 
L 4025 4666 
L 4025 4184 
L 1075 531 
L 4097 531 
L 4097 0 
L 288 0 
L 288 481 
L 3238 4134 
L 359 4134 
L 359 4666 
z
" transform="scale(0.015625)"/>
       <path id="DejaVuSans-2d" d="M 313 2009 
L 1997 2009 
L 1997 1497 
L 313 1497 
L 313 2009 
z
" transform="scale(0.015625)"/>
       <path id="DejaVuSans-53" d="M 3425 4513 
L 3425 3897 
Q 3066 4069 2747 4153 
Q 2428 4238 2131 4238 
Q 1616 4238 1336 4038 
Q 1056 3838 1056 3469 
Q 1056 3159 1242 3001 
Q 1428 2844 1947 2747 
L 2328 2669 
Q 3034 2534 3370 2195 
Q 3706 1856 3706 1288 
Q 3706 609 3251 259 
Q 2797 -91 1919 -91 
Q 1588 -91 1214 -16 
Q 841 59 441 206 
L 441 856 
Q 825 641 1194 531 
Q 1563 422 1919 422 
Q 2459 422 2753 634 
Q 3047 847 3047 1241 
Q 3047 1584 2836 1778 
Q 2625 1972 2144 2069 
L 1759 2144 
Q 1053 2284 737 2584 
Q 422 2884 422 3419 
Q 422 4038 858 4394 
Q 1294 4750 2059 4750 
Q 2388 4750 2728 4690 
Q 3069 4631 3425 4513 
z
" transform="scale(0.015625)"/>
       <path id="DejaVuSans-63" d="M 3122 3366 
L 3122 2828 
Q 2878 2963 2633 3030 
Q 2388 3097 2138 3097 
Q 1578 3097 1268 2742 
Q 959 2388 959 1747 
Q 959 1106 1268 751 
Q 1578 397 2138 397 
Q 2388 397 2633 464 
Q 2878 531 3122 666 
L 3122 134 
Q 2881 22 2623 -34 
Q 2366 -91 2075 -91 
Q 1284 -91 818 406 
Q 353 903 353 1747 
Q 353 2603 823 3093 
Q 1294 3584 2113 3584 
Q 2378 3584 2631 3529 
Q 2884 3475 3122 3366 
z
" transform="scale(0.015625)"/>
       <path id="DejaVuSans-6f" d="M 1959 3097 
Q 1497 3097 1228 2736 
Q 959 2375 959 1747 
Q 959 1119 1226 758 
Q 1494 397 1959 397 
Q 2419 397 2687 759 
Q 2956 1122 2956 1747 
Q 2956 2369 2687 2733 
Q 2419 3097 1959 3097 
z
M 1959 3584 
Q 2709 3584 3137 3096 
Q 3566 2609 3566 1747 
Q 3566 888 3137 398 
Q 2709 -91 1959 -91 
Q 1206 -91 779 398 
Q 353 888 353 1747 
Q 353 2609 779 3096 
Q 1206 3584 1959 3584 
z
" transform="scale(0.015625)"/>
       <path id="DejaVuSans-72" d="M 2631 2963 
Q 2534 3019 2420 3045 
Q 2306 3072 2169 3072 
Q 1681 3072 1420 2755 
Q 1159 2438 1159 1844 
L 1159 0 
L 581 0 
L 581 3500 
L 1159 3500 
L 1159 2956 
Q 1341 3275 1631 3429 
Q 1922 3584 2338 3584 
Q 2397 3584 2469 3576 
Q 2541 3569 2628 3553 
L 2631 2963 
z
" transform="scale(0.015625)"/>
      </defs>
      <use xlink:href="#DejaVuSans-5a"/>
      <use xlink:href="#DejaVuSans-2d" x="66.755859"/>
      <use xlink:href="#DejaVuSans-53" x="102.839844"/>
      <use xlink:href="#DejaVuSans-63" x="166.316406"/>
      <use xlink:href="#DejaVuSans-6f" x="221.296875"/>
      <use xlink:href="#DejaVuSans-72" x="282.478516"/>
      <use xlink:href="#DejaVuSans-65" x="321.341797"/>
     </g>
    </g>
   </g>
   <g id="line2d_24">
    <path d="M 73.832727 159.743808 
L 74.918528 159.43375 
L 76.00433 159.753942 
L 77.090131 161.074193 
L 78.175932 162.679895 
L 79.261733 163.99894 
L 80.347534 164.726808 
L 81.433335 165.773906 
L 82.519137 166.615599 
L 83.604938 167.699815 
L 84.690739 168.25689 
L 85.77654 169.58327 
L 87.948142 171.31776 
L 90.119745 172.182303 
L 91.205546 172.322474 
L 92.291347 171.973552 
L 93.377148 171.282166 
L 94.462949 172.061735 
L 96.634552 172.592953 
L 97.720353 174.228098 
L 98.806154 174.839634 
L 99.891955 174.65561 
L 102.063557 176.4874 
L 103.149358 177.104085 
L 104.23516 177.115478 
L 105.320961 176.899616 
L 106.406762 176.841179 
L 107.492563 177.025634 
L 108.578364 177.017653 
L 109.664165 177.848788 
L 110.749967 177.983586 
L 111.835768 177.792128 
L 114.00737 176.694864 
L 115.093171 176.166919 
L 116.178972 176.876687 
L 117.264773 176.358871 
L 118.350575 176.538515 
L 119.436376 176.39449 
L 120.522177 175.816009 
L 121.607978 175.468157 
L 122.693779 174.559334 
L 123.77958 172.988207 
L 124.865382 172.032102 
L 125.951183 171.612487 
L 127.036984 170.297686 
L 128.122785 170.034709 
L 130.294387 167.782557 
L 131.380189 167.374218 
L 132.46599 167.115251 
L 134.637592 167.18706 
L 135.723393 167.23842 
L 136.809194 166.78867 
L 137.894995 166.188177 
L 138.980797 166.571678 
L 141.152399 166.032968 
L 142.2382 164.976235 
L 143.324001 164.148976 
L 144.409802 164.118366 
L 145.495604 163.787185 
L 146.581405 162.88685 
L 147.667206 161.522983 
L 148.753007 160.758113 
L 149.838808 160.144415 
L 150.924609 160.681311 
L 152.01041 160.78107 
L 153.096212 160.993604 
L 154.182013 161.319494 
L 155.267814 161.410213 
L 156.353615 162.252385 
L 158.525217 163.160309 
L 159.611019 164.308103 
L 160.69682 165.734766 
L 161.782621 165.829982 
L 163.954223 167.809203 
L 165.040024 168.99497 
L 166.125825 169.375339 
L 167.211627 170.286356 
L 168.297428 171.885851 
L 169.383229 173.093485 
L 170.46903 174.581439 
L 171.554831 176.465071 
L 174.812235 180.437487 
L 175.898036 182.757452 
L 178.069638 185.91088 
L 179.155439 186.819361 
L 180.24124 185.867726 
L 181.327042 186.721692 
L 182.412843 187.97715 
L 183.498644 188.907821 
L 184.584445 189.011681 
L 185.670246 189.398273 
L 186.756047 189.567838 
L 187.841849 189.962763 
L 188.92765 189.812667 
L 191.099252 187.249972 
L 192.185053 187.539193 
L 193.270854 187.113428 
L 195.442457 185.26655 
L 196.528258 184.707191 
L 197.614059 183.304896 
L 198.69986 182.767052 
L 201.957264 179.720132 
L 205.214667 177.77884 
L 206.300468 177.240951 
L 207.386269 176.367271 
L 208.472071 175.932441 
L 209.557872 176.082252 
L 210.643673 176.006607 
L 212.815275 175.234531 
L 213.901076 172.984424 
L 214.986877 171.275907 
L 216.072679 170.2637 
L 217.15848 168.51929 
L 218.244281 167.262509 
L 219.330082 165.655178 
L 220.415883 164.447237 
L 221.501684 162.849135 
L 223.673287 158.036761 
L 224.759088 156.814168 
L 225.844889 154.51076 
L 226.93069 153.518575 
L 228.016491 151.267782 
L 229.102292 148.400019 
L 230.188094 146.833598 
L 231.273895 145.809026 
L 232.359696 144.416094 
L 236.702901 136.61687 
L 237.788702 133.469525 
L 241.046105 128.410061 
L 242.131906 127.661146 
L 243.217708 127.584393 
L 244.303509 126.696105 
L 245.38931 126.00679 
L 246.475111 124.24797 
L 247.560912 123.251383 
L 248.646713 122.660942 
L 249.732514 122.601667 
L 250.818316 121.966399 
L 251.904117 121.829137 
L 252.989918 122.556114 
L 254.075719 124.613657 
L 255.16152 125.228094 
L 259.504725 128.493819 
L 260.590526 129.478137 
L 263.847929 129.838761 
L 264.933731 129.803538 
L 266.019532 129.0905 
L 267.105333 129.359651 
L 268.191134 128.329926 
L 269.276935 128.771882 
L 270.362736 127.783651 
L 271.448538 127.711915 
L 272.534339 128.084838 
L 273.62014 127.890543 
L 274.705941 128.045012 
L 275.791742 129.221012 
L 276.877543 129.298046 
L 279.049146 132.217379 
L 281.220748 134.990724 
L 282.306549 136.988611 
L 283.39235 138.612105 
L 284.478151 141.166578 
L 285.563953 142.580258 
L 286.649754 144.739784 
L 287.735555 146.560717 
L 288.821356 147.524392 
L 289.907157 150.439324 
L 290.992958 150.935428 
L 292.07876 152.64466 
L 293.164561 154.913476 
L 294.250362 156.178316 
L 295.336163 157.260799 
L 296.421964 157.937217 
L 298.593566 160.656436 
L 299.679368 162.212686 
L 300.765169 163.189314 
L 301.85097 165.771994 
L 302.936771 166.958652 
L 304.022572 168.674098 
L 305.108373 170.715934 
L 306.194175 171.943753 
L 307.279976 173.484962 
L 308.365777 175.674776 
L 309.451578 177.068888 
L 310.537379 179.237463 
L 313.794783 184.880918 
L 314.880584 187.907548 
L 315.966385 189.757749 
L 318.137987 191.854743 
L 319.223788 193.901267 
L 320.30959 194.754633 
L 321.395391 196.560489 
L 322.481192 197.636206 
L 323.566993 198.527161 
L 324.652794 199.687365 
L 325.738595 202.158882 
L 326.824396 203.159676 
L 328.995999 205.727825 
L 330.0818 207.841992 
L 331.167601 208.000929 
L 332.253402 210.111596 
L 333.339203 210.724516 
L 334.425005 212.433157 
L 335.510806 213.000679 
L 336.596607 213.785108 
L 337.682408 215.553313 
L 339.85401 217.431464 
L 340.939811 217.352509 
L 342.025613 218.012049 
L 343.111414 218.262071 
L 344.197215 219.175721 
L 345.283016 220.823654 
L 346.368817 220.439378 
L 347.454618 220.605933 
L 348.54042 220.551773 
L 349.626221 221.052548 
L 350.712022 221.709866 
L 351.797823 221.723945 
L 352.883624 222.864769 
L 353.969425 223.045535 
L 356.141028 225.268172 
L 358.31263 226.997163 
L 359.398431 227.631494 
L 360.484232 228.508509 
L 361.570033 229.871137 
L 362.655835 231.554207 
L 363.741636 232.651296 
L 364.827437 234.313926 
L 365.913238 235.379082 
L 368.08484 236.012109 
L 369.170642 235.745588 
L 370.256443 235.943039 
L 371.342244 236.362214 
L 372.428045 236.302134 
L 373.513846 237.15417 
L 377.857051 237.894802 
L 378.942852 237.67921 
L 380.028653 237.855408 
L 381.114454 237.475846 
L 384.371858 237.118712 
L 385.457659 236.702021 
L 388.715062 236.987262 
L 389.800863 236.527511 
L 391.972466 238.470297 
L 393.058267 238.87635 
L 394.144068 239.042965 
L 395.229869 239.8162 
L 396.31567 240.33097 
L 397.401472 240.977761 
L 398.487273 241.443892 
L 398.487273 241.443892 
" clip-path="url(#pf0f841499c)" style="fill: none; stroke: #ff00ff; stroke-width: 1.5; stroke-linecap: square"/>
   </g>
   <g id="line2d_25">
    <path d="M 182.412843 307.584 
L 182.412843 41.472 
" clip-path="url(#pf0f841499c)" style="fill: none; stroke: #000000; stroke-width: 1.5; stroke-linecap: square"/>
   </g>
   <g id="patch_3">
    <path d="M 57.6 307.584 
L 57.6 41.472 
" style="fill: none; stroke: #000000; stroke-width: 0.8; stroke-linejoin: miter; stroke-linecap: square"/>
   </g>
   <g id="patch_4">
    <path d="M 414.72 307.584 
L 414.72 41.472 
" style="fill: none; stroke: #000000; stroke-width: 0.8; stroke-linejoin: miter; stroke-linecap: square"/>
   </g>
   <g id="patch_5">
    <path d="M 57.6 307.584 
L 414.72 307.584 
" style="fill: none; stroke: #000000; stroke-width: 0.8; stroke-linejoin: miter; stroke-linecap: square"/>
   </g>
   <g id="patch_6">
    <path d="M 57.6 41.472 
L 414.72 41.472 
" style="fill: none; stroke: #000000; stroke-width: 0.8; stroke-linejoin: miter; stroke-linecap: square"/>
   </g>
   <g id="text_26">
    <!-- Event 6_p=0.875 -->
    <g transform="translate(184.232812 35.472) scale(0.12 -0.12)">
     <defs>
      <path id="DejaVuSans-45" d="M 628 4666 
L 3578 4666 
L 3578 4134 
L 1259 4134 
L 1259 2753 
L 3481 2753 
L 3481 2222 
L 1259 2222 
L 1259 531 
L 3634 531 
L 3634 0 
L 628 0 
L 628 4666 
z
" transform="scale(0.015625)"/>
      <path id="DejaVuSans-76" d="M 191 3500 
L 800 3500 
L 1894 563 
L 2988 3500 
L 3597 3500 
L 2284 0 
L 1503 0 
L 191 3500 
z
" transform="scale(0.015625)"/>
      <path id="DejaVuSans-6e" d="M 3513 2113 
L 3513 0 
L 2938 0 
L 2938 2094 
Q 2938 2591 2744 2837 
Q 2550 3084 2163 3084 
Q 1697 3084 1428 2787 
Q 1159 2491 1159 1978 
L 1159 0 
L 581 0 
L 581 3500 
L 1159 3500 
L 1159 2956 
Q 1366 3272 1645 3428 
Q 1925 3584 2291 3584 
Q 2894 3584 3203 3211 
Q 3513 2838 3513 2113 
z
" transform="scale(0.015625)"/>
      <path id="DejaVuSans-74" d="M 1172 4494 
L 1172 3500 
L 2356 3500 
L 2356 3053 
L 1172 3053 
L 1172 1153 
Q 1172 725 1289 603 
Q 1406 481 1766 481 
L 2356 481 
L 2356 0 
L 1766 0 
Q 1100 0 847 248 
Q 594 497 594 1153 
L 594 3053 
L 172 3053 
L 172 3500 
L 594 3500 
L 594 4494 
L 1172 4494 
z
" transform="scale(0.015625)"/>
      <path id="DejaVuSans-5f" d="M 3263 -1063 
L 3263 -1509 
L -63 -1509 
L -63 -1063 
L 3263 -1063 
z
" transform="scale(0.015625)"/>
      <path id="DejaVuSans-70" d="M 1159 525 
L 1159 -1331 
L 581 -1331 
L 581 3500 
L 1159 3500 
L 1159 2969 
Q 1341 3281 1617 3432 
Q 1894 3584 2278 3584 
Q 2916 3584 3314 3078 
Q 3713 2572 3713 1747 
Q 3713 922 3314 415 
Q 2916 -91 2278 -91 
Q 1894 -91 1617 61 
Q 1341 213 1159 525 
z
M 3116 1747 
Q 3116 2381 2855 2742 
Q 2594 3103 2138 3103 
Q 1681 3103 1420 2742 
Q 1159 2381 1159 1747 
Q 1159 1113 1420 752 
Q 1681 391 2138 391 
Q 2594 391 2855 752 
Q 3116 1113 3116 1747 
z
" transform="scale(0.015625)"/>
      <path id="DejaVuSans-3d" d="M 678 2906 
L 4684 2906 
L 4684 2381 
L 678 2381 
L 678 2906 
z
M 678 1631 
L 4684 1631 
L 4684 1100 
L 678 1100 
L 678 1631 
z
" transform="scale(0.015625)"/>
      <path id="DejaVuSans-2e" d="M 684 794 
L 1344 794 
L 1344 0 
L 684 0 
L 684 794 
z
" transform="scale(0.015625)"/>
     </defs>
     <use xlink:href="#DejaVuSans-45"/>
     <use xlink:href="#DejaVuSans-76" x="63.183594"/>
     <use xlink:href="#DejaVuSans-65" x="122.363281"/>
     <use xlink:href="#DejaVuSans-6e" x="183.886719"/>
     <use xlink:href="#DejaVuSans-74" x="247.265625"/>
     <use xlink:href="#DejaVuSans-20" x="286.474609"/>
     <use xlink:href="#DejaVuSans-36" x="318.261719"/>
     <use xlink:href="#DejaVuSans-5f" x="381.884766"/>
     <use xlink:href="#DejaVuSans-70" x="431.884766"/>
     <use xlink:href="#DejaVuSans-3d" x="495.361328"/>
     <use xlink:href="#DejaVuSans-30" x="579.150391"/>
     <use xlink:href="#DejaVuSans-2e" x="642.773438"/>
     <use xlink:href="#DejaVuSans-38" x="674.560547"/>
     <use xlink:href="#DejaVuSans-37" x="738.183594"/>
     <use xlink:href="#DejaVuSans-35" x="801.806641"/>
    </g>
   </g>
  </g>
 </g>
 <defs>
  <clipPath id="pf0f841499c">
   <rect x="57.6" y="41.472" width="357.12" height="266.112"/>
  </clipPath>
 </defs>
</svg>
