<?xml version="1.0" encoding="utf-8" standalone="no"?>
<!DOCTYPE svg PUBLIC "-//W3C//DTD SVG 1.1//EN"
  "http://www.w3.org/Graphics/SVG/1.1/DTD/svg11.dtd">
<svg xmlns:xlink="http://www.w3.org/1999/xlink" width="460.8pt" height="345.6pt" viewBox="0 0 460.8 345.6" xmlns="http://www.w3.org/2000/svg" version="1.1">
 <metadata>
  <rdf:RDF xmlns:dc="http://purl.org/dc/elements/1.1/" xmlns:cc="http://creativecommons.org/ns#" xmlns:rdf="http://www.w3.org/1999/02/22-rdf-syntax-ns#">
   <cc:Work>
    <dc:type rdf:resource="http://purl.org/dc/dcmitype/StillImage"/>
    <dc:date>2024-11-14T18:55:12.112662</dc:date>
    <dc:format>image/svg+xml</dc:format>
    <dc:creator>
     <cc:Agent>
      <dc:title>Matplotlib v3.8.2, https://matplotlib.org/</dc:title>
     </cc:Agent>
    </dc:creator>
   </cc:Work>
  </rdf:RDF>
 </metadata>
 <defs>
  <style type="text/css">*{stroke-linejoin: round; stroke-linecap: butt}</style>
 </defs>
 <g id="figure_1">
  <g id="patch_1">
   <path d="M 0 345.6 
L 460.8 345.6 
L 460.8 0 
L 0 0 
z
" style="fill: #ffffff"/>
  </g>
  <g id="axes_1">
   <g id="patch_2">
    <path d="M 57.6 307.584 
L 414.72 307.584 
L 414.72 41.472 
L 57.6 41.472 
z
" style="fill: #ffffff"/>
   </g>
   <g id="PolyCollection_1">
    <defs>
     <path id="m02a61d1a4c" d="M 73.832727 -70.410213 
L 73.832727 -50.112 
L 74.918528 -51.419656 
L 76.00433 -52.21158 
L 77.090131 -53.670048 
L 78.175932 -54.153539 
L 79.261733 -54.558062 
L 80.347534 -55.016529 
L 81.433335 -55.00488 
L 82.519137 -55.113188 
L 83.604938 -55.439739 
L 84.690739 -55.900527 
L 85.77654 -56.482448 
L 86.862341 -56.895892 
L 87.948142 -57.564303 
L 89.033943 -58.244561 
L 90.119745 -59.226374 
L 91.205546 -59.938547 
L 92.291347 -60.878674 
L 93.377148 -61.035489 
L 94.462949 -62.249464 
L 95.54875 -62.906591 
L 96.634552 -64.074027 
L 97.720353 -64.770406 
L 98.806154 -65.352526 
L 99.891955 -66.017221 
L 100.977756 -66.832981 
L 102.063557 -68.138884 
L 103.149358 -68.389581 
L 104.23516 -69.075596 
L 105.320961 -69.798995 
L 106.406762 -70.239094 
L 107.492563 -71.471469 
L 108.578364 -72.25535 
L 109.664165 -73.472082 
L 110.749967 -74.682804 
L 111.835768 -75.829277 
L 112.921569 -76.38479 
L 114.00737 -77.720171 
L 115.093171 -78.82743 
L 116.178972 -79.314774 
L 117.264773 -79.779887 
L 118.350575 -80.627546 
L 119.436376 -81.273976 
L 120.522177 -81.949824 
L 121.607978 -82.738539 
L 122.693779 -83.249971 
L 123.77958 -83.574414 
L 124.865382 -84.249399 
L 125.951183 -85.172047 
L 127.036984 -85.481819 
L 128.122785 -85.740522 
L 129.208586 -85.881133 
L 130.294387 -85.848364 
L 131.380189 -85.917309 
L 132.46599 -85.813282 
L 133.551791 -85.625631 
L 134.637592 -84.993283 
L 135.723393 -84.932763 
L 136.809194 -84.607713 
L 137.894995 -85.084543 
L 138.980797 -83.897874 
L 140.066598 -84.101769 
L 141.152399 -83.467682 
L 142.2382 -83.728454 
L 143.324001 -83.575125 
L 144.409802 -83.189737 
L 145.495604 -83.45378 
L 146.581405 -83.493939 
L 147.667206 -83.095075 
L 148.753007 -82.554552 
L 149.838808 -82.253458 
L 150.924609 -82.395436 
L 152.01041 -81.838426 
L 153.096212 -81.649417 
L 154.182013 -81.17781 
L 155.267814 -80.98192 
L 156.353615 -80.538276 
L 157.439416 -80.75024 
L 158.525217 -80.070227 
L 159.611019 -79.224051 
L 160.69682 -78.407244 
L 161.782621 -77.322908 
L 162.868422 -76.487893 
L 163.954223 -75.747975 
L 165.040024 -75.342602 
L 166.125825 -74.240277 
L 167.211627 -73.681918 
L 168.297428 -73.104849 
L 169.383229 -73.014791 
L 170.46903 -72.909356 
L 171.554831 -72.555834 
L 172.640632 -72.271875 
L 173.726434 -72.156769 
L 174.812235 -71.858279 
L 175.898036 -71.476141 
L 176.983837 -71.271135 
L 178.069638 -70.500799 
L 179.155439 -70.351903 
L 180.24124 -70.13462 
L 181.327042 -70.697068 
L 182.412843 -71.286051 
L 183.498644 -71.806539 
L 184.584445 -72.256368 
L 185.670246 -72.667566 
L 186.756047 -73.753839 
L 187.841849 -74.379771 
L 188.92765 -74.774251 
L 190.013451 -75.531089 
L 191.099252 -76.296028 
L 192.185053 -76.783361 
L 193.270854 -77.961208 
L 194.356656 -78.70861 
L 195.442457 -79.828069 
L 196.528258 -80.823067 
L 197.614059 -81.698317 
L 198.69986 -82.241259 
L 199.785661 -83.227154 
L 200.871462 -83.924084 
L 201.957264 -85.309314 
L 203.043065 -85.989573 
L 204.128866 -87.307115 
L 205.214667 -88.722513 
L 206.300468 -90.309436 
L 207.386269 -92.000179 
L 208.472071 -93.783399 
L 209.557872 -95.594166 
L 210.643673 -97.363714 
L 211.729474 -99.506715 
L 212.815275 -100.733437 
L 213.901076 -102.29903 
L 214.986877 -104.149658 
L 216.072679 -105.267785 
L 217.15848 -106.224237 
L 218.244281 -107.362659 
L 219.330082 -108.407204 
L 220.415883 -109.52082 
L 221.501684 -111.105615 
L 222.587486 -112.71164 
L 223.673287 -114.372836 
L 224.759088 -116.085505 
L 225.844889 -117.798907 
L 226.93069 -119.911191 
L 228.016491 -120.667838 
L 229.102292 -121.97768 
L 230.188094 -122.958831 
L 231.273895 -123.926207 
L 232.359696 -124.850997 
L 233.445497 -126.045678 
L 234.531298 -126.9021 
L 235.617099 -127.937211 
L 236.702901 -128.597316 
L 237.788702 -128.903876 
L 238.874503 -129.068678 
L 239.960304 -129.767956 
L 241.046105 -130.205316 
L 242.131906 -130.548367 
L 243.217708 -131.032968 
L 244.303509 -130.564747 
L 245.38931 -130.374928 
L 246.475111 -130.087221 
L 247.560912 -129.680682 
L 248.646713 -129.35471 
L 249.732514 -129.35765 
L 250.818316 -128.785305 
L 251.904117 -128.258274 
L 252.989918 -127.979254 
L 254.075719 -127.849054 
L 255.16152 -127.419308 
L 256.247321 -126.906818 
L 257.333123 -125.920099 
L 258.418924 -125.079433 
L 259.504725 -124.328864 
L 260.590526 -123.823105 
L 261.676327 -123.193662 
L 262.762128 -122.948537 
L 263.847929 -122.383761 
L 264.933731 -121.944956 
L 266.019532 -121.86921 
L 267.105333 -121.761938 
L 268.191134 -121.273563 
L 269.276935 -120.440231 
L 270.362736 -119.299964 
L 271.448538 -118.977979 
L 272.534339 -118.064057 
L 273.62014 -117.798409 
L 274.705941 -117.251754 
L 275.791742 -116.855971 
L 276.877543 -117.055336 
L 277.963344 -116.658319 
L 279.049146 -116.411465 
L 280.134947 -117.137972 
L 281.220748 -117.365841 
L 282.306549 -116.914225 
L 283.39235 -117.525421 
L 284.478151 -117.289007 
L 285.563953 -117.136585 
L 286.649754 -116.537945 
L 287.735555 -116.357053 
L 288.821356 -116.511756 
L 289.907157 -116.338423 
L 290.992958 -116.052338 
L 292.07876 -116.390777 
L 293.164561 -116.82705 
L 294.250362 -117.71285 
L 295.336163 -118.32043 
L 296.421964 -118.786618 
L 297.507765 -119.597271 
L 298.593566 -120.237582 
L 299.679368 -120.946201 
L 300.765169 -121.39033 
L 301.85097 -122.665438 
L 302.936771 -123.472968 
L 304.022572 -124.091023 
L 305.108373 -124.933728 
L 306.194175 -125.781029 
L 307.279976 -126.638021 
L 308.365777 -127.906291 
L 309.451578 -128.970257 
L 310.537379 -129.753626 
L 311.62318 -130.316891 
L 312.708981 -130.673053 
L 313.794783 -130.810268 
L 314.880584 -131.430981 
L 315.966385 -132.108159 
L 317.052186 -132.487815 
L 318.137987 -132.883809 
L 319.223788 -133.012874 
L 320.30959 -133.669221 
L 321.395391 -134.160172 
L 322.481192 -134.891207 
L 323.566993 -135.272645 
L 324.652794 -135.753645 
L 325.738595 -136.245109 
L 326.824396 -136.391751 
L 327.910198 -136.94778 
L 328.995999 -137.24245 
L 330.0818 -136.884049 
L 331.167601 -136.922613 
L 332.253402 -136.923275 
L 333.339203 -137.445497 
L 334.425005 -137.871796 
L 335.510806 -137.86829 
L 336.596607 -138.081707 
L 337.682408 -138.054397 
L 338.768209 -138.175705 
L 339.85401 -137.969018 
L 340.939811 -137.712438 
L 342.025613 -137.516103 
L 343.111414 -137.390552 
L 344.197215 -136.881801 
L 345.283016 -136.907934 
L 346.368817 -137.390086 
L 347.454618 -137.095942 
L 348.54042 -137.098781 
L 349.626221 -137.780301 
L 350.712022 -138.101113 
L 351.797823 -138.617783 
L 352.883624 -139.252164 
L 353.969425 -139.746468 
L 355.055227 -140.434836 
L 356.141028 -141.273442 
L 357.226829 -142.10558 
L 358.31263 -142.075983 
L 359.398431 -142.68809 
L 360.484232 -142.528274 
L 361.570033 -142.580621 
L 362.655835 -142.298303 
L 363.741636 -142.329348 
L 364.827437 -142.387052 
L 365.913238 -141.972132 
L 366.999039 -141.901673 
L 368.08484 -141.981501 
L 369.170642 -142.173977 
L 370.256443 -141.973911 
L 371.342244 -141.425208 
L 372.428045 -141.237466 
L 373.513846 -140.762248 
L 374.599647 -140.113156 
L 375.685448 -139.580946 
L 376.77125 -139.560725 
L 377.857051 -139.073722 
L 378.942852 -139.020079 
L 380.028653 -139.374616 
L 381.114454 -139.832406 
L 382.200255 -139.873919 
L 383.286057 -139.767185 
L 384.371858 -139.912267 
L 385.457659 -140.11562 
L 386.54346 -140.296202 
L 387.629261 -140.35373 
L 388.715062 -141.244441 
L 389.800863 -141.724091 
L 390.886665 -142.169107 
L 391.972466 -142.768304 
L 393.058267 -143.441254 
L 394.144068 -144.251895 
L 395.229869 -145.085324 
L 396.31567 -145.995146 
L 397.401472 -145.737163 
L 398.487273 -146.163128 
L 398.487273 -255.059169 
L 398.487273 -255.059169 
L 397.401472 -254.480173 
L 396.31567 -254.585608 
L 395.229869 -253.37397 
L 394.144068 -252.439317 
L 393.058267 -251.700912 
L 391.972466 -250.983971 
L 390.886665 -250.32666 
L 389.800863 -249.863202 
L 388.715062 -249.451396 
L 387.629261 -248.626321 
L 386.54346 -248.618649 
L 385.457659 -248.619615 
L 384.371858 -248.412543 
L 383.286057 -248.496542 
L 382.200255 -248.8317 
L 381.114454 -249.296359 
L 380.028653 -249.157573 
L 378.942852 -249.323786 
L 377.857051 -249.946266 
L 376.77125 -250.935644 
L 375.685448 -251.557995 
L 374.599647 -252.73061 
L 373.513846 -254.120082 
L 372.428045 -255.221698 
L 371.342244 -256.140503 
L 370.256443 -257.542999 
L 369.170642 -258.558844 
L 368.08484 -259.145684 
L 366.999039 -259.850621 
L 365.913238 -260.855637 
L 364.827437 -262.153242 
L 363.741636 -263.100031 
L 362.655835 -264.124716 
L 361.570033 -265.475697 
L 360.484232 -266.568864 
L 359.398431 -267.46839 
L 358.31263 -267.729384 
L 357.226829 -268.838331 
L 356.141028 -268.888563 
L 355.055227 -269.045912 
L 353.969425 -269.464395 
L 352.883624 -270.020597 
L 351.797823 -270.613651 
L 350.712022 -271.447002 
L 349.626221 -272.447596 
L 348.54042 -273.34862 
L 347.454618 -274.7579 
L 346.368817 -276.466344 
L 345.283016 -277.46678 
L 344.197215 -278.916702 
L 343.111414 -280.939948 
L 342.025613 -282.752139 
L 340.939811 -284.430605 
L 339.85401 -285.877223 
L 338.768209 -286.902507 
L 337.682408 -287.982632 
L 336.596607 -289.406505 
L 335.510806 -290.023317 
L 334.425005 -290.857706 
L 333.339203 -290.986825 
L 332.253402 -291.079018 
L 331.167601 -291.551244 
L 330.0818 -291.719822 
L 328.995999 -292.032 
L 327.910198 -291.921721 
L 326.824396 -291.633351 
L 325.738595 -291.467003 
L 324.652794 -290.724632 
L 323.566993 -289.912274 
L 322.481192 -289.100491 
L 321.395391 -288.066463 
L 320.30959 -287.467532 
L 319.223788 -286.392552 
L 318.137987 -286.104161 
L 317.052186 -285.267224 
L 315.966385 -284.824959 
L 314.880584 -283.558547 
L 313.794783 -282.725535 
L 312.708981 -282.058571 
L 311.62318 -280.98928 
L 310.537379 -279.720131 
L 309.451578 -277.970743 
L 308.365777 -276.12286 
L 307.279976 -274.132434 
L 306.194175 -272.575483 
L 305.108373 -271.109684 
L 304.022572 -269.604342 
L 302.936771 -268.612951 
L 301.85097 -267.541342 
L 300.765169 -266.096927 
L 299.679368 -265.441694 
L 298.593566 -264.360688 
L 297.507765 -263.328658 
L 296.421964 -261.89085 
L 295.336163 -261.06032 
L 294.250362 -260.205528 
L 293.164561 -258.768788 
L 292.07876 -257.908831 
L 290.992958 -257.074395 
L 289.907157 -256.772797 
L 288.821356 -256.306346 
L 287.735555 -255.58059 
L 286.649754 -254.963097 
L 285.563953 -254.679696 
L 284.478151 -253.918441 
L 283.39235 -252.790482 
L 282.306549 -251.073285 
L 281.220748 -250.002486 
L 280.134947 -248.064275 
L 279.049146 -245.779932 
L 277.963344 -244.308083 
L 276.877543 -242.974185 
L 275.791742 -241.349893 
L 274.705941 -240.648198 
L 273.62014 -239.75109 
L 272.534339 -238.658196 
L 271.448538 -238.324124 
L 270.362736 -237.265238 
L 269.276935 -237.154328 
L 268.191134 -236.593209 
L 267.105333 -235.765448 
L 266.019532 -234.662419 
L 264.933731 -233.317453 
L 263.847929 -232.398338 
L 262.762128 -231.804634 
L 261.676327 -230.917641 
L 260.590526 -230.621293 
L 259.504725 -230.219687 
L 258.418924 -230.162229 
L 257.333123 -229.964645 
L 256.247321 -229.533075 
L 255.16152 -229.051169 
L 254.075719 -228.131992 
L 252.989918 -227.391707 
L 251.904117 -226.091379 
L 250.818316 -225.317926 
L 249.732514 -224.268745 
L 248.646713 -222.901964 
L 247.560912 -221.841743 
L 246.475111 -221.177563 
L 245.38931 -220.261653 
L 244.303509 -218.998062 
L 243.217708 -218.001812 
L 242.131906 -215.903511 
L 241.046105 -214.036154 
L 239.960304 -212.098399 
L 238.874503 -209.897695 
L 237.788702 -207.980402 
L 236.702901 -206.123874 
L 235.617099 -203.847902 
L 234.531298 -201.429399 
L 233.445497 -199.036869 
L 232.359696 -196.37138 
L 231.273895 -193.951248 
L 230.188094 -191.571044 
L 229.102292 -189.006167 
L 228.016491 -186.34203 
L 226.93069 -184.263361 
L 225.844889 -180.793082 
L 224.759088 -177.832648 
L 223.673287 -174.842618 
L 222.587486 -172.132111 
L 221.501684 -169.364524 
L 220.415883 -166.563823 
L 219.330082 -164.753109 
L 218.244281 -162.739524 
L 217.15848 -160.450916 
L 216.072679 -158.817015 
L 214.986877 -157.144631 
L 213.901076 -154.476036 
L 212.815275 -152.259919 
L 211.729474 -150.200709 
L 210.643673 -147.234695 
L 209.557872 -144.634672 
L 208.472071 -142.215389 
L 207.386269 -139.468042 
L 206.300468 -137.023451 
L 205.214667 -134.64155 
L 204.128866 -132.127971 
L 203.043065 -129.80707 
L 201.957264 -128.214327 
L 200.871462 -125.960816 
L 199.785661 -124.173464 
L 198.69986 -122.144043 
L 197.614059 -120.339388 
L 196.528258 -118.201355 
L 195.442457 -116.237766 
L 194.356656 -114.032273 
L 193.270854 -112.422645 
L 192.185053 -110.315045 
L 191.099252 -108.680699 
L 190.013451 -106.962138 
L 188.92765 -105.210089 
L 187.841849 -104.251844 
L 186.756047 -102.77496 
L 185.670246 -100.882873 
L 184.584445 -99.46022 
L 183.498644 -97.933775 
L 182.412843 -96.175308 
L 181.327042 -93.814502 
L 180.24124 -92.109029 
L 179.155439 -91.299101 
L 178.069638 -90.498132 
L 176.983837 -90.352149 
L 175.898036 -89.509276 
L 174.812235 -89.07822 
L 173.726434 -88.480665 
L 172.640632 -87.835236 
L 171.554831 -87.510085 
L 170.46903 -87.192993 
L 169.383229 -86.879416 
L 168.297428 -86.519944 
L 167.211627 -86.475145 
L 166.125825 -86.666213 
L 165.040024 -87.303167 
L 163.954223 -87.350914 
L 162.868422 -87.747657 
L 161.782621 -88.20958 
L 160.69682 -88.897276 
L 159.611019 -89.411402 
L 158.525217 -89.926481 
L 157.439416 -90.310694 
L 156.353615 -89.951997 
L 155.267814 -90.356764 
L 154.182013 -90.731861 
L 153.096212 -91.194568 
L 152.01041 -91.437488 
L 150.924609 -91.883034 
L 149.838808 -91.891261 
L 148.753007 -91.968615 
L 147.667206 -92.521347 
L 146.581405 -93.101725 
L 145.495604 -93.119224 
L 144.409802 -92.969099 
L 143.324001 -93.348374 
L 142.2382 -93.53438 
L 141.152399 -93.137001 
L 140.066598 -93.833391 
L 138.980797 -93.652273 
L 137.894995 -94.959528 
L 136.809194 -94.560056 
L 135.723393 -94.948431 
L 134.637592 -94.908576 
L 133.551791 -95.555199 
L 132.46599 -95.645748 
L 131.380189 -95.618898 
L 130.294387 -95.608269 
L 129.208586 -95.551077 
L 128.122785 -95.273056 
L 127.036984 -94.875754 
L 125.951183 -94.658503 
L 124.865382 -93.828659 
L 123.77958 -92.99001 
L 122.693779 -92.709997 
L 121.607978 -91.930596 
L 120.522177 -90.928488 
L 119.436376 -89.99915 
L 118.350575 -89.096165 
L 117.264773 -88.045541 
L 116.178972 -87.200393 
L 115.093171 -86.473027 
L 114.00737 -85.223673 
L 112.921569 -83.797598 
L 111.835768 -83.056827 
L 110.749967 -81.866449 
L 109.664165 -80.838382 
L 108.578364 -79.744907 
L 107.492563 -79.239028 
L 106.406762 -78.235495 
L 105.320961 -78.212443 
L 104.23516 -77.784866 
L 103.149358 -77.390023 
L 102.063557 -77.408886 
L 100.977756 -76.521537 
L 99.891955 -76.203618 
L 98.806154 -75.855215 
L 97.720353 -75.512252 
L 96.634552 -75.112865 
L 95.54875 -74.41561 
L 94.462949 -74.069408 
L 93.377148 -73.156183 
L 92.291347 -73.330782 
L 91.205546 -72.749772 
L 90.119745 -72.462073 
L 89.033943 -71.88763 
L 87.948142 -71.626879 
L 86.862341 -71.184914 
L 85.77654 -71.121593 
L 84.690739 -70.879298 
L 83.604938 -70.80526 
L 82.519137 -70.907462 
L 81.433335 -71.077969 
L 80.347534 -71.748453 
L 79.261733 -71.910918 
L 78.175932 -72.176741 
L 77.090131 -72.334542 
L 76.00433 -71.57046 
L 74.918528 -71.311263 
L 73.832727 -70.410213 
z
" style="stroke: #ff00ff; stroke-opacity: 0.1"/>
    </defs>
    <g clip-path="url(#p8136b98b19)">
     <use xlink:href="#m02a61d1a4c" x="0" y="345.6" style="fill: #ff00ff; fill-opacity: 0.1; stroke: #ff00ff; stroke-opacity: 0.1"/>
    </g>
   </g>
   <g id="matplotlib.axis_1">
    <g id="xtick_1">
     <g id="line2d_1">
      <defs>
       <path id="m4c60a3d6b7" d="M 0 0 
L 0 3.5 
" style="stroke: #000000; stroke-width: 0.8"/>
      </defs>
      <g>
       <use xlink:href="#m4c60a3d6b7" x="73.832727" y="307.584" style="stroke: #000000; stroke-width: 0.8"/>
      </g>
     </g>
     <g id="text_1">
      <!-- −5 -->
      <g transform="translate(66.461634 322.182437) scale(0.1 -0.1)">
       <defs>
        <path id="DejaVuSans-2212" d="M 678 2272 
L 4684 2272 
L 4684 1741 
L 678 1741 
L 678 2272 
z
" transform="scale(0.015625)"/>
        <path id="DejaVuSans-35" d="M 691 4666 
L 3169 4666 
L 3169 4134 
L 1269 4134 
L 1269 2991 
Q 1406 3038 1543 3061 
Q 1681 3084 1819 3084 
Q 2600 3084 3056 2656 
Q 3513 2228 3513 1497 
Q 3513 744 3044 326 
Q 2575 -91 1722 -91 
Q 1428 -91 1123 -41 
Q 819 9 494 109 
L 494 744 
Q 775 591 1075 516 
Q 1375 441 1709 441 
Q 2250 441 2565 725 
Q 2881 1009 2881 1497 
Q 2881 1984 2565 2268 
Q 2250 2553 1709 2553 
Q 1456 2553 1204 2497 
Q 953 2441 691 2322 
L 691 4666 
z
" transform="scale(0.015625)"/>
       </defs>
       <use xlink:href="#DejaVuSans-2212"/>
       <use xlink:href="#DejaVuSans-35" x="83.789062"/>
      </g>
     </g>
    </g>
    <g id="xtick_2">
     <g id="line2d_2">
      <g>
       <use xlink:href="#m4c60a3d6b7" x="95.54875" y="307.584" style="stroke: #000000; stroke-width: 0.8"/>
      </g>
     </g>
     <g id="text_2">
      <!-- −4 -->
      <g transform="translate(88.177657 322.182437) scale(0.1 -0.1)">
       <defs>
        <path id="DejaVuSans-34" d="M 2419 4116 
L 825 1625 
L 2419 1625 
L 2419 4116 
z
M 2253 4666 
L 3047 4666 
L 3047 1625 
L 3713 1625 
L 3713 1100 
L 3047 1100 
L 3047 0 
L 2419 0 
L 2419 1100 
L 313 1100 
L 313 1709 
L 2253 4666 
z
" transform="scale(0.015625)"/>
       </defs>
       <use xlink:href="#DejaVuSans-2212"/>
       <use xlink:href="#DejaVuSans-34" x="83.789062"/>
      </g>
     </g>
    </g>
    <g id="xtick_3">
     <g id="line2d_3">
      <g>
       <use xlink:href="#m4c60a3d6b7" x="117.264773" y="307.584" style="stroke: #000000; stroke-width: 0.8"/>
      </g>
     </g>
     <g id="text_3">
      <!-- −3 -->
      <g transform="translate(109.89368 322.182437) scale(0.1 -0.1)">
       <defs>
        <path id="DejaVuSans-33" d="M 2597 2516 
Q 3050 2419 3304 2112 
Q 3559 1806 3559 1356 
Q 3559 666 3084 287 
Q 2609 -91 1734 -91 
Q 1441 -91 1130 -33 
Q 819 25 488 141 
L 488 750 
Q 750 597 1062 519 
Q 1375 441 1716 441 
Q 2309 441 2620 675 
Q 2931 909 2931 1356 
Q 2931 1769 2642 2001 
Q 2353 2234 1838 2234 
L 1294 2234 
L 1294 2753 
L 1863 2753 
Q 2328 2753 2575 2939 
Q 2822 3125 2822 3475 
Q 2822 3834 2567 4026 
Q 2313 4219 1838 4219 
Q 1578 4219 1281 4162 
Q 984 4106 628 3988 
L 628 4550 
Q 988 4650 1302 4700 
Q 1616 4750 1894 4750 
Q 2613 4750 3031 4423 
Q 3450 4097 3450 3541 
Q 3450 3153 3228 2886 
Q 3006 2619 2597 2516 
z
" transform="scale(0.015625)"/>
       </defs>
       <use xlink:href="#DejaVuSans-2212"/>
       <use xlink:href="#DejaVuSans-33" x="83.789062"/>
      </g>
     </g>
    </g>
    <g id="xtick_4">
     <g id="line2d_4">
      <g>
       <use xlink:href="#m4c60a3d6b7" x="138.980797" y="307.584" style="stroke: #000000; stroke-width: 0.8"/>
      </g>
     </g>
     <g id="text_4">
      <!-- −2 -->
      <g transform="translate(131.609703 322.182437) scale(0.1 -0.1)">
       <defs>
        <path id="DejaVuSans-32" d="M 1228 531 
L 3431 531 
L 3431 0 
L 469 0 
L 469 531 
Q 828 903 1448 1529 
Q 2069 2156 2228 2338 
Q 2531 2678 2651 2914 
Q 2772 3150 2772 3378 
Q 2772 3750 2511 3984 
Q 2250 4219 1831 4219 
Q 1534 4219 1204 4116 
Q 875 4013 500 3803 
L 500 4441 
Q 881 4594 1212 4672 
Q 1544 4750 1819 4750 
Q 2544 4750 2975 4387 
Q 3406 4025 3406 3419 
Q 3406 3131 3298 2873 
Q 3191 2616 2906 2266 
Q 2828 2175 2409 1742 
Q 1991 1309 1228 531 
z
" transform="scale(0.015625)"/>
       </defs>
       <use xlink:href="#DejaVuSans-2212"/>
       <use xlink:href="#DejaVuSans-32" x="83.789062"/>
      </g>
     </g>
    </g>
    <g id="xtick_5">
     <g id="line2d_5">
      <g>
       <use xlink:href="#m4c60a3d6b7" x="160.69682" y="307.584" style="stroke: #000000; stroke-width: 0.8"/>
      </g>
     </g>
     <g id="text_5">
      <!-- −1 -->
      <g transform="translate(153.325726 322.182437) scale(0.1 -0.1)">
       <defs>
        <path id="DejaVuSans-31" d="M 794 531 
L 1825 531 
L 1825 4091 
L 703 3866 
L 703 4441 
L 1819 4666 
L 2450 4666 
L 2450 531 
L 3481 531 
L 3481 0 
L 794 0 
L 794 531 
z
" transform="scale(0.015625)"/>
       </defs>
       <use xlink:href="#DejaVuSans-2212"/>
       <use xlink:href="#DejaVuSans-31" x="83.789062"/>
      </g>
     </g>
    </g>
    <g id="xtick_6">
     <g id="line2d_6">
      <g>
       <use xlink:href="#m4c60a3d6b7" x="182.412843" y="307.584" style="stroke: #000000; stroke-width: 0.8"/>
      </g>
     </g>
     <g id="text_6">
      <!-- 0 -->
      <g transform="translate(179.231593 322.182437) scale(0.1 -0.1)">
       <defs>
        <path id="DejaVuSans-30" d="M 2034 4250 
Q 1547 4250 1301 3770 
Q 1056 3291 1056 2328 
Q 1056 1369 1301 889 
Q 1547 409 2034 409 
Q 2525 409 2770 889 
Q 3016 1369 3016 2328 
Q 3016 3291 2770 3770 
Q 2525 4250 2034 4250 
z
M 2034 4750 
Q 2819 4750 3233 4129 
Q 3647 3509 3647 2328 
Q 3647 1150 3233 529 
Q 2819 -91 2034 -91 
Q 1250 -91 836 529 
Q 422 1150 422 2328 
Q 422 3509 836 4129 
Q 1250 4750 2034 4750 
z
" transform="scale(0.015625)"/>
       </defs>
       <use xlink:href="#DejaVuSans-30"/>
      </g>
     </g>
    </g>
    <g id="xtick_7">
     <g id="line2d_7">
      <g>
       <use xlink:href="#m4c60a3d6b7" x="204.128866" y="307.584" style="stroke: #000000; stroke-width: 0.8"/>
      </g>
     </g>
     <g id="text_7">
      <!-- 1 -->
      <g transform="translate(200.947616 322.182437) scale(0.1 -0.1)">
       <use xlink:href="#DejaVuSans-31"/>
      </g>
     </g>
    </g>
    <g id="xtick_8">
     <g id="line2d_8">
      <g>
       <use xlink:href="#m4c60a3d6b7" x="225.844889" y="307.584" style="stroke: #000000; stroke-width: 0.8"/>
      </g>
     </g>
     <g id="text_8">
      <!-- 2 -->
      <g transform="translate(222.663639 322.182437) scale(0.1 -0.1)">
       <use xlink:href="#DejaVuSans-32"/>
      </g>
     </g>
    </g>
    <g id="xtick_9">
     <g id="line2d_9">
      <g>
       <use xlink:href="#m4c60a3d6b7" x="247.560912" y="307.584" style="stroke: #000000; stroke-width: 0.8"/>
      </g>
     </g>
     <g id="text_9">
      <!-- 3 -->
      <g transform="translate(244.379662 322.182437) scale(0.1 -0.1)">
       <use xlink:href="#DejaVuSans-33"/>
      </g>
     </g>
    </g>
    <g id="xtick_10">
     <g id="line2d_10">
      <g>
       <use xlink:href="#m4c60a3d6b7" x="269.276935" y="307.584" style="stroke: #000000; stroke-width: 0.8"/>
      </g>
     </g>
     <g id="text_10">
      <!-- 4 -->
      <g transform="translate(266.095685 322.182437) scale(0.1 -0.1)">
       <use xlink:href="#DejaVuSans-34"/>
      </g>
     </g>
    </g>
    <g id="xtick_11">
     <g id="line2d_11">
      <g>
       <use xlink:href="#m4c60a3d6b7" x="290.992958" y="307.584" style="stroke: #000000; stroke-width: 0.8"/>
      </g>
     </g>
     <g id="text_11">
      <!-- 5 -->
      <g transform="translate(287.811708 322.182437) scale(0.1 -0.1)">
       <use xlink:href="#DejaVuSans-35"/>
      </g>
     </g>
    </g>
    <g id="xtick_12">
     <g id="line2d_12">
      <g>
       <use xlink:href="#m4c60a3d6b7" x="312.708981" y="307.584" style="stroke: #000000; stroke-width: 0.8"/>
      </g>
     </g>
     <g id="text_12">
      <!-- 6 -->
      <g transform="translate(309.527731 322.182437) scale(0.1 -0.1)">
       <defs>
        <path id="DejaVuSans-36" d="M 2113 2584 
Q 1688 2584 1439 2293 
Q 1191 2003 1191 1497 
Q 1191 994 1439 701 
Q 1688 409 2113 409 
Q 2538 409 2786 701 
Q 3034 994 3034 1497 
Q 3034 2003 2786 2293 
Q 2538 2584 2113 2584 
z
M 3366 4563 
L 3366 3988 
Q 3128 4100 2886 4159 
Q 2644 4219 2406 4219 
Q 1781 4219 1451 3797 
Q 1122 3375 1075 2522 
Q 1259 2794 1537 2939 
Q 1816 3084 2150 3084 
Q 2853 3084 3261 2657 
Q 3669 2231 3669 1497 
Q 3669 778 3244 343 
Q 2819 -91 2113 -91 
Q 1303 -91 875 529 
Q 447 1150 447 2328 
Q 447 3434 972 4092 
Q 1497 4750 2381 4750 
Q 2619 4750 2861 4703 
Q 3103 4656 3366 4563 
z
" transform="scale(0.015625)"/>
       </defs>
       <use xlink:href="#DejaVuSans-36"/>
      </g>
     </g>
    </g>
    <g id="xtick_13">
     <g id="line2d_13">
      <g>
       <use xlink:href="#m4c60a3d6b7" x="334.425005" y="307.584" style="stroke: #000000; stroke-width: 0.8"/>
      </g>
     </g>
     <g id="text_13">
      <!-- 7 -->
      <g transform="translate(331.243755 322.182437) scale(0.1 -0.1)">
       <defs>
        <path id="DejaVuSans-37" d="M 525 4666 
L 3525 4666 
L 3525 4397 
L 1831 0 
L 1172 0 
L 2766 4134 
L 525 4134 
L 525 4666 
z
" transform="scale(0.015625)"/>
       </defs>
       <use xlink:href="#DejaVuSans-37"/>
      </g>
     </g>
    </g>
    <g id="xtick_14">
     <g id="line2d_14">
      <g>
       <use xlink:href="#m4c60a3d6b7" x="356.141028" y="307.584" style="stroke: #000000; stroke-width: 0.8"/>
      </g>
     </g>
     <g id="text_14">
      <!-- 8 -->
      <g transform="translate(352.959778 322.182437) scale(0.1 -0.1)">
       <defs>
        <path id="DejaVuSans-38" d="M 2034 2216 
Q 1584 2216 1326 1975 
Q 1069 1734 1069 1313 
Q 1069 891 1326 650 
Q 1584 409 2034 409 
Q 2484 409 2743 651 
Q 3003 894 3003 1313 
Q 3003 1734 2745 1975 
Q 2488 2216 2034 2216 
z
M 1403 2484 
Q 997 2584 770 2862 
Q 544 3141 544 3541 
Q 544 4100 942 4425 
Q 1341 4750 2034 4750 
Q 2731 4750 3128 4425 
Q 3525 4100 3525 3541 
Q 3525 3141 3298 2862 
Q 3072 2584 2669 2484 
Q 3125 2378 3379 2068 
Q 3634 1759 3634 1313 
Q 3634 634 3220 271 
Q 2806 -91 2034 -91 
Q 1263 -91 848 271 
Q 434 634 434 1313 
Q 434 1759 690 2068 
Q 947 2378 1403 2484 
z
M 1172 3481 
Q 1172 3119 1398 2916 
Q 1625 2713 2034 2713 
Q 2441 2713 2670 2916 
Q 2900 3119 2900 3481 
Q 2900 3844 2670 4047 
Q 2441 4250 2034 4250 
Q 1625 4250 1398 4047 
Q 1172 3844 1172 3481 
z
" transform="scale(0.015625)"/>
       </defs>
       <use xlink:href="#DejaVuSans-38"/>
      </g>
     </g>
    </g>
    <g id="xtick_15">
     <g id="line2d_15">
      <g>
       <use xlink:href="#m4c60a3d6b7" x="377.857051" y="307.584" style="stroke: #000000; stroke-width: 0.8"/>
      </g>
     </g>
     <g id="text_15">
      <!-- 9 -->
      <g transform="translate(374.675801 322.182437) scale(0.1 -0.1)">
       <defs>
        <path id="DejaVuSans-39" d="M 703 97 
L 703 672 
Q 941 559 1184 500 
Q 1428 441 1663 441 
Q 2288 441 2617 861 
Q 2947 1281 2994 2138 
Q 2813 1869 2534 1725 
Q 2256 1581 1919 1581 
Q 1219 1581 811 2004 
Q 403 2428 403 3163 
Q 403 3881 828 4315 
Q 1253 4750 1959 4750 
Q 2769 4750 3195 4129 
Q 3622 3509 3622 2328 
Q 3622 1225 3098 567 
Q 2575 -91 1691 -91 
Q 1453 -91 1209 -44 
Q 966 3 703 97 
z
M 1959 2075 
Q 2384 2075 2632 2365 
Q 2881 2656 2881 3163 
Q 2881 3666 2632 3958 
Q 2384 4250 1959 4250 
Q 1534 4250 1286 3958 
Q 1038 3666 1038 3163 
Q 1038 2656 1286 2365 
Q 1534 2075 1959 2075 
z
" transform="scale(0.015625)"/>
       </defs>
       <use xlink:href="#DejaVuSans-39"/>
      </g>
     </g>
    </g>
    <g id="xtick_16">
     <g id="line2d_16">
      <g>
       <use xlink:href="#m4c60a3d6b7" x="399.573074" y="307.584" style="stroke: #000000; stroke-width: 0.8"/>
      </g>
     </g>
     <g id="text_16">
      <!-- 10 -->
      <g transform="translate(393.210574 322.182437) scale(0.1 -0.1)">
       <use xlink:href="#DejaVuSans-31"/>
       <use xlink:href="#DejaVuSans-30" x="63.623047"/>
      </g>
     </g>
    </g>
    <g id="text_17">
     <!-- Time (s) -->
     <g transform="translate(215.831094 335.860562) scale(0.1 -0.1)">
      <defs>
       <path id="DejaVuSans-54" d="M -19 4666 
L 3928 4666 
L 3928 4134 
L 2272 4134 
L 2272 0 
L 1638 0 
L 1638 4134 
L -19 4134 
L -19 4666 
z
" transform="scale(0.015625)"/>
       <path id="DejaVuSans-69" d="M 603 3500 
L 1178 3500 
L 1178 0 
L 603 0 
L 603 3500 
z
M 603 4863 
L 1178 4863 
L 1178 4134 
L 603 4134 
L 603 4863 
z
" transform="scale(0.015625)"/>
       <path id="DejaVuSans-6d" d="M 3328 2828 
Q 3544 3216 3844 3400 
Q 4144 3584 4550 3584 
Q 5097 3584 5394 3201 
Q 5691 2819 5691 2113 
L 5691 0 
L 5113 0 
L 5113 2094 
Q 5113 2597 4934 2840 
Q 4756 3084 4391 3084 
Q 3944 3084 3684 2787 
Q 3425 2491 3425 1978 
L 3425 0 
L 2847 0 
L 2847 2094 
Q 2847 2600 2669 2842 
Q 2491 3084 2119 3084 
Q 1678 3084 1418 2786 
Q 1159 2488 1159 1978 
L 1159 0 
L 581 0 
L 581 3500 
L 1159 3500 
L 1159 2956 
Q 1356 3278 1631 3431 
Q 1906 3584 2284 3584 
Q 2666 3584 2933 3390 
Q 3200 3197 3328 2828 
z
" transform="scale(0.015625)"/>
       <path id="DejaVuSans-65" d="M 3597 1894 
L 3597 1613 
L 953 1613 
Q 991 1019 1311 708 
Q 1631 397 2203 397 
Q 2534 397 2845 478 
Q 3156 559 3463 722 
L 3463 178 
Q 3153 47 2828 -22 
Q 2503 -91 2169 -91 
Q 1331 -91 842 396 
Q 353 884 353 1716 
Q 353 2575 817 3079 
Q 1281 3584 2069 3584 
Q 2775 3584 3186 3129 
Q 3597 2675 3597 1894 
z
M 3022 2063 
Q 3016 2534 2758 2815 
Q 2500 3097 2075 3097 
Q 1594 3097 1305 2825 
Q 1016 2553 972 2059 
L 3022 2063 
z
" transform="scale(0.015625)"/>
       <path id="DejaVuSans-20" transform="scale(0.015625)"/>
       <path id="DejaVuSans-28" d="M 1984 4856 
Q 1566 4138 1362 3434 
Q 1159 2731 1159 2009 
Q 1159 1288 1364 580 
Q 1569 -128 1984 -844 
L 1484 -844 
Q 1016 -109 783 600 
Q 550 1309 550 2009 
Q 550 2706 781 3412 
Q 1013 4119 1484 4856 
L 1984 4856 
z
" transform="scale(0.015625)"/>
       <path id="DejaVuSans-73" d="M 2834 3397 
L 2834 2853 
Q 2591 2978 2328 3040 
Q 2066 3103 1784 3103 
Q 1356 3103 1142 2972 
Q 928 2841 928 2578 
Q 928 2378 1081 2264 
Q 1234 2150 1697 2047 
L 1894 2003 
Q 2506 1872 2764 1633 
Q 3022 1394 3022 966 
Q 3022 478 2636 193 
Q 2250 -91 1575 -91 
Q 1294 -91 989 -36 
Q 684 19 347 128 
L 347 722 
Q 666 556 975 473 
Q 1284 391 1588 391 
Q 1994 391 2212 530 
Q 2431 669 2431 922 
Q 2431 1156 2273 1281 
Q 2116 1406 1581 1522 
L 1381 1569 
Q 847 1681 609 1914 
Q 372 2147 372 2553 
Q 372 3047 722 3315 
Q 1072 3584 1716 3584 
Q 2034 3584 2315 3537 
Q 2597 3491 2834 3397 
z
" transform="scale(0.015625)"/>
       <path id="DejaVuSans-29" d="M 513 4856 
L 1013 4856 
Q 1481 4119 1714 3412 
Q 1947 2706 1947 2009 
Q 1947 1309 1714 600 
Q 1481 -109 1013 -844 
L 513 -844 
Q 928 -128 1133 580 
Q 1338 1288 1338 2009 
Q 1338 2731 1133 3434 
Q 928 4138 513 4856 
z
" transform="scale(0.015625)"/>
      </defs>
      <use xlink:href="#DejaVuSans-54"/>
      <use xlink:href="#DejaVuSans-69" x="57.958984"/>
      <use xlink:href="#DejaVuSans-6d" x="85.742188"/>
      <use xlink:href="#DejaVuSans-65" x="183.154297"/>
      <use xlink:href="#DejaVuSans-20" x="244.677734"/>
      <use xlink:href="#DejaVuSans-28" x="276.464844"/>
      <use xlink:href="#DejaVuSans-73" x="315.478516"/>
      <use xlink:href="#DejaVuSans-29" x="367.578125"/>
     </g>
    </g>
   </g>
   <g id="matplotlib.axis_2">
    <g id="ytick_1">
     <g id="line2d_17">
      <defs>
       <path id="m0a264556c5" d="M 0 0 
L -3.5 0 
" style="stroke: #000000; stroke-width: 0.8"/>
      </defs>
      <g>
       <use xlink:href="#m0a264556c5" x="57.6" y="303.64148" style="stroke: #000000; stroke-width: 0.8"/>
      </g>
     </g>
     <g id="text_18">
      <!-- −1 -->
      <g transform="translate(35.857813 307.440698) scale(0.1 -0.1)">
       <use xlink:href="#DejaVuSans-2212"/>
       <use xlink:href="#DejaVuSans-31" x="83.789062"/>
      </g>
     </g>
    </g>
    <g id="ytick_2">
     <g id="line2d_18">
      <g>
       <use xlink:href="#m0a264556c5" x="57.6" y="266.386504" style="stroke: #000000; stroke-width: 0.8"/>
      </g>
     </g>
     <g id="text_19">
      <!-- 0 -->
      <g transform="translate(44.2375 270.185722) scale(0.1 -0.1)">
       <use xlink:href="#DejaVuSans-30"/>
      </g>
     </g>
    </g>
    <g id="ytick_3">
     <g id="line2d_19">
      <g>
       <use xlink:href="#m0a264556c5" x="57.6" y="229.131528" style="stroke: #000000; stroke-width: 0.8"/>
      </g>
     </g>
     <g id="text_20">
      <!-- 1 -->
      <g transform="translate(44.2375 232.930746) scale(0.1 -0.1)">
       <use xlink:href="#DejaVuSans-31"/>
      </g>
     </g>
    </g>
    <g id="ytick_4">
     <g id="line2d_20">
      <g>
       <use xlink:href="#m0a264556c5" x="57.6" y="191.876552" style="stroke: #000000; stroke-width: 0.8"/>
      </g>
     </g>
     <g id="text_21">
      <!-- 2 -->
      <g transform="translate(44.2375 195.67577) scale(0.1 -0.1)">
       <use xlink:href="#DejaVuSans-32"/>
      </g>
     </g>
    </g>
    <g id="ytick_5">
     <g id="line2d_21">
      <g>
       <use xlink:href="#m0a264556c5" x="57.6" y="154.621576" style="stroke: #000000; stroke-width: 0.8"/>
      </g>
     </g>
     <g id="text_22">
      <!-- 3 -->
      <g transform="translate(44.2375 158.420794) scale(0.1 -0.1)">
       <use xlink:href="#DejaVuSans-33"/>
      </g>
     </g>
    </g>
    <g id="ytick_6">
     <g id="line2d_22">
      <g>
       <use xlink:href="#m0a264556c5" x="57.6" y="117.3666" style="stroke: #000000; stroke-width: 0.8"/>
      </g>
     </g>
     <g id="text_23">
      <!-- 4 -->
      <g transform="translate(44.2375 121.165818) scale(0.1 -0.1)">
       <use xlink:href="#DejaVuSans-34"/>
      </g>
     </g>
    </g>
    <g id="ytick_7">
     <g id="line2d_23">
      <g>
       <use xlink:href="#m0a264556c5" x="57.6" y="80.111624" style="stroke: #000000; stroke-width: 0.8"/>
      </g>
     </g>
     <g id="text_24">
      <!-- 5 -->
      <g transform="translate(44.2375 83.910842) scale(0.1 -0.1)">
       <use xlink:href="#DejaVuSans-35"/>
      </g>
     </g>
    </g>
    <g id="ytick_8">
     <g id="line2d_24">
      <g>
       <use xlink:href="#m0a264556c5" x="57.6" y="42.856648" style="stroke: #000000; stroke-width: 0.8"/>
      </g>
     </g>
     <g id="text_25">
      <!-- 6 -->
      <g transform="translate(44.2375 46.655866) scale(0.1 -0.1)">
       <use xlink:href="#DejaVuSans-36"/>
      </g>
     </g>
    </g>
    <g id="text_26">
     <!-- Z-Score -->
     <g transform="translate(29.778125 193.67175) rotate(-90) scale(0.1 -0.1)">
      <defs>
       <path id="DejaVuSans-5a" d="M 359 4666 
L 4025 4666 
L 4025 4184 
L 1075 531 
L 4097 531 
L 4097 0 
L 288 0 
L 288 481 
L 3238 4134 
L 359 4134 
L 359 4666 
z
" transform="scale(0.015625)"/>
       <path id="DejaVuSans-2d" d="M 313 2009 
L 1997 2009 
L 1997 1497 
L 313 1497 
L 313 2009 
z
" transform="scale(0.015625)"/>
       <path id="DejaVuSans-53" d="M 3425 4513 
L 3425 3897 
Q 3066 4069 2747 4153 
Q 2428 4238 2131 4238 
Q 1616 4238 1336 4038 
Q 1056 3838 1056 3469 
Q 1056 3159 1242 3001 
Q 1428 2844 1947 2747 
L 2328 2669 
Q 3034 2534 3370 2195 
Q 3706 1856 3706 1288 
Q 3706 609 3251 259 
Q 2797 -91 1919 -91 
Q 1588 -91 1214 -16 
Q 841 59 441 206 
L 441 856 
Q 825 641 1194 531 
Q 1563 422 1919 422 
Q 2459 422 2753 634 
Q 3047 847 3047 1241 
Q 3047 1584 2836 1778 
Q 2625 1972 2144 2069 
L 1759 2144 
Q 1053 2284 737 2584 
Q 422 2884 422 3419 
Q 422 4038 858 4394 
Q 1294 4750 2059 4750 
Q 2388 4750 2728 4690 
Q 3069 4631 3425 4513 
z
" transform="scale(0.015625)"/>
       <path id="DejaVuSans-63" d="M 3122 3366 
L 3122 2828 
Q 2878 2963 2633 3030 
Q 2388 3097 2138 3097 
Q 1578 3097 1268 2742 
Q 959 2388 959 1747 
Q 959 1106 1268 751 
Q 1578 397 2138 397 
Q 2388 397 2633 464 
Q 2878 531 3122 666 
L 3122 134 
Q 2881 22 2623 -34 
Q 2366 -91 2075 -91 
Q 1284 -91 818 406 
Q 353 903 353 1747 
Q 353 2603 823 3093 
Q 1294 3584 2113 3584 
Q 2378 3584 2631 3529 
Q 2884 3475 3122 3366 
z
" transform="scale(0.015625)"/>
       <path id="DejaVuSans-6f" d="M 1959 3097 
Q 1497 3097 1228 2736 
Q 959 2375 959 1747 
Q 959 1119 1226 758 
Q 1494 397 1959 397 
Q 2419 397 2687 759 
Q 2956 1122 2956 1747 
Q 2956 2369 2687 2733 
Q 2419 3097 1959 3097 
z
M 1959 3584 
Q 2709 3584 3137 3096 
Q 3566 2609 3566 1747 
Q 3566 888 3137 398 
Q 2709 -91 1959 -91 
Q 1206 -91 779 398 
Q 353 888 353 1747 
Q 353 2609 779 3096 
Q 1206 3584 1959 3584 
z
" transform="scale(0.015625)"/>
       <path id="DejaVuSans-72" d="M 2631 2963 
Q 2534 3019 2420 3045 
Q 2306 3072 2169 3072 
Q 1681 3072 1420 2755 
Q 1159 2438 1159 1844 
L 1159 0 
L 581 0 
L 581 3500 
L 1159 3500 
L 1159 2956 
Q 1341 3275 1631 3429 
Q 1922 3584 2338 3584 
Q 2397 3584 2469 3576 
Q 2541 3569 2628 3553 
L 2631 2963 
z
" transform="scale(0.015625)"/>
      </defs>
      <use xlink:href="#DejaVuSans-5a"/>
      <use xlink:href="#DejaVuSans-2d" x="66.755859"/>
      <use xlink:href="#DejaVuSans-53" x="102.839844"/>
      <use xlink:href="#DejaVuSans-63" x="166.316406"/>
      <use xlink:href="#DejaVuSans-6f" x="221.296875"/>
      <use xlink:href="#DejaVuSans-72" x="282.478516"/>
      <use xlink:href="#DejaVuSans-65" x="321.341797"/>
     </g>
    </g>
   </g>
   <g id="line2d_25">
    <path d="M 73.832727 285.338893 
L 74.918528 284.23454 
L 76.00433 283.70898 
L 77.090131 282.597705 
L 80.347534 282.217509 
L 81.433335 282.558576 
L 82.519137 282.589675 
L 83.604938 282.477501 
L 84.690739 282.210087 
L 85.77654 281.79798 
L 86.862341 281.559597 
L 89.033943 280.533904 
L 90.119745 279.755776 
L 91.205546 279.25584 
L 92.291347 278.495272 
L 93.377148 278.504164 
L 94.462949 277.440564 
L 95.54875 276.938899 
L 96.634552 276.006554 
L 98.806154 274.99613 
L 100.977756 273.922741 
L 102.063557 272.826115 
L 103.149358 272.710198 
L 105.320961 271.594281 
L 106.406762 271.362706 
L 107.492563 270.244751 
L 108.578364 269.599872 
L 111.835768 266.156948 
L 112.921569 265.508806 
L 114.00737 264.128078 
L 115.093171 262.949772 
L 117.264773 261.687286 
L 118.350575 260.738144 
L 120.522177 259.160844 
L 121.607978 258.265432 
L 122.693779 257.620016 
L 123.77958 257.317788 
L 125.951183 255.684725 
L 129.208586 254.883895 
L 132.46599 254.870485 
L 133.551791 255.009585 
L 134.637592 255.649071 
L 135.723393 255.659403 
L 136.809194 256.016116 
L 137.894995 255.577965 
L 138.980797 256.824926 
L 140.066598 256.63242 
L 141.152399 257.297658 
L 142.2382 256.968583 
L 143.324001 257.13825 
L 144.409802 257.520582 
L 145.495604 257.313498 
L 146.581405 257.302168 
L 148.753007 258.338416 
L 149.838808 258.52764 
L 150.924609 258.460765 
L 152.01041 258.962043 
L 153.096212 259.178007 
L 154.182013 259.645164 
L 155.267814 259.930658 
L 156.353615 260.354863 
L 157.439416 260.069533 
L 158.525217 260.601646 
L 160.69682 261.94774 
L 161.782621 262.833756 
L 163.954223 264.050556 
L 165.040024 264.277116 
L 166.125825 265.146755 
L 168.297428 265.787604 
L 170.46903 265.548825 
L 172.640632 265.546445 
L 173.726434 265.281283 
L 174.812235 265.13175 
L 175.898036 265.107292 
L 176.983837 264.788358 
L 178.069638 265.100535 
L 180.24124 264.478176 
L 181.327042 263.344215 
L 182.412843 261.869321 
L 184.584445 259.741706 
L 185.670246 258.82478 
L 186.756047 257.3356 
L 187.841849 256.284193 
L 188.92765 255.60783 
L 191.099252 253.111637 
L 192.185053 252.050797 
L 193.270854 250.408073 
L 194.356656 249.229558 
L 196.528258 246.087789 
L 197.614059 244.581147 
L 198.69986 243.407349 
L 199.785661 241.899691 
L 200.871462 240.65755 
L 201.957264 238.83818 
L 203.043065 237.701679 
L 205.214667 233.917969 
L 207.386269 229.86589 
L 211.729474 220.746288 
L 212.815275 219.103322 
L 213.901076 217.212467 
L 214.986877 214.952856 
L 217.15848 212.262424 
L 219.330082 209.019843 
L 220.415883 207.557678 
L 224.759088 198.640923 
L 225.844889 196.304006 
L 226.93069 193.512724 
L 228.016491 192.095066 
L 230.188094 188.335063 
L 232.359696 184.988811 
L 233.445497 183.058726 
L 236.702901 178.239405 
L 238.874503 176.116813 
L 239.960304 174.666822 
L 243.217708 171.08261 
L 244.303509 170.818596 
L 245.38931 170.281709 
L 246.475111 169.967608 
L 247.560912 169.838788 
L 248.646713 169.471663 
L 249.732514 168.786803 
L 250.818316 168.548385 
L 251.904117 168.425174 
L 252.989918 167.914519 
L 255.16152 167.364761 
L 256.247321 167.380053 
L 260.590526 168.377801 
L 261.676327 168.544348 
L 262.762128 168.223414 
L 263.847929 168.20895 
L 264.933731 167.968795 
L 266.019532 167.334186 
L 267.105333 166.836307 
L 268.191134 166.666614 
L 269.276935 166.802721 
L 270.362736 167.317399 
L 271.448538 166.948948 
L 272.534339 167.238874 
L 273.62014 166.82525 
L 275.791742 166.497068 
L 276.877543 165.585239 
L 277.963344 165.116799 
L 279.049146 164.504301 
L 280.134947 162.998877 
L 281.220748 161.915837 
L 282.306549 161.606245 
L 283.39235 160.442049 
L 284.478151 159.996276 
L 285.563953 159.69186 
L 286.649754 159.849479 
L 287.735555 159.631178 
L 288.821356 159.190949 
L 289.907157 159.04439 
L 290.992958 159.036633 
L 293.164561 157.802081 
L 294.250362 156.640811 
L 296.421964 155.261266 
L 297.507765 154.137036 
L 299.679368 152.406052 
L 300.765169 151.856371 
L 301.85097 150.49661 
L 305.108373 147.578294 
L 307.279976 145.214773 
L 309.451578 142.1295 
L 310.537379 140.863121 
L 311.62318 139.946914 
L 312.708981 139.234188 
L 313.794783 138.832098 
L 314.880584 138.105236 
L 315.966385 137.133441 
L 317.052186 136.722481 
L 318.137987 136.106015 
L 319.223788 135.897287 
L 320.30959 135.031624 
L 321.395391 134.486682 
L 322.481192 133.604151 
L 325.738595 131.743944 
L 326.824396 131.587449 
L 327.910198 131.16525 
L 328.995999 130.962775 
L 330.0818 131.298064 
L 331.167601 131.363072 
L 332.253402 131.598854 
L 334.425005 131.235249 
L 335.510806 131.654196 
L 336.596607 131.855894 
L 337.682408 132.581485 
L 338.768209 133.060894 
L 339.85401 133.67688 
L 342.025613 135.465879 
L 343.111414 136.43475 
L 344.197215 137.700748 
L 345.283016 138.412643 
L 346.368817 138.671785 
L 347.454618 139.673079 
L 348.54042 140.3763 
L 349.626221 140.486052 
L 350.712022 140.825942 
L 351.797823 140.984283 
L 355.055227 140.859626 
L 357.226829 140.128045 
L 358.31263 140.697316 
L 359.398431 140.52176 
L 361.570033 141.571841 
L 362.655835 142.38849 
L 364.827437 143.329853 
L 365.913238 144.186115 
L 366.999039 144.723853 
L 369.170642 145.23359 
L 370.256443 145.841545 
L 371.342244 146.817144 
L 372.428045 147.370418 
L 373.513846 148.158835 
L 374.599647 149.178117 
L 375.685448 150.03053 
L 376.77125 150.351815 
L 377.857051 151.090006 
L 378.942852 151.428067 
L 380.028653 151.333906 
L 381.114454 151.035618 
L 383.286057 151.468136 
L 384.371858 151.437595 
L 385.457659 151.232383 
L 387.629261 151.109975 
L 388.715062 150.252081 
L 390.886665 149.352116 
L 393.058267 148.028917 
L 395.229869 146.370353 
L 396.31567 145.309623 
L 397.401472 145.491332 
L 398.487273 144.988851 
L 398.487273 144.988851 
" clip-path="url(#p8136b98b19)" style="fill: none; stroke: #ff00ff; stroke-width: 1.5; stroke-linecap: square"/>
   </g>
   <g id="line2d_26">
    <path d="M 182.412843 307.584 
L 182.412843 41.472 
" clip-path="url(#p8136b98b19)" style="fill: none; stroke: #000000; stroke-width: 1.5; stroke-linecap: square"/>
   </g>
   <g id="patch_3">
    <path d="M 57.6 307.584 
L 57.6 41.472 
" style="fill: none; stroke: #000000; stroke-width: 0.8; stroke-linejoin: miter; stroke-linecap: square"/>
   </g>
   <g id="patch_4">
    <path d="M 414.72 307.584 
L 414.72 41.472 
" style="fill: none; stroke: #000000; stroke-width: 0.8; stroke-linejoin: miter; stroke-linecap: square"/>
   </g>
   <g id="patch_5">
    <path d="M 57.6 307.584 
L 414.72 307.584 
" style="fill: none; stroke: #000000; stroke-width: 0.8; stroke-linejoin: miter; stroke-linecap: square"/>
   </g>
   <g id="patch_6">
    <path d="M 57.6 41.472 
L 414.72 41.472 
" style="fill: none; stroke: #000000; stroke-width: 0.8; stroke-linejoin: miter; stroke-linecap: square"/>
   </g>
   <g id="text_27">
    <!-- Event 10_p=0.054 -->
    <g transform="translate(180.415312 35.472) scale(0.12 -0.12)">
     <defs>
      <path id="DejaVuSans-45" d="M 628 4666 
L 3578 4666 
L 3578 4134 
L 1259 4134 
L 1259 2753 
L 3481 2753 
L 3481 2222 
L 1259 2222 
L 1259 531 
L 3634 531 
L 3634 0 
L 628 0 
L 628 4666 
z
" transform="scale(0.015625)"/>
      <path id="DejaVuSans-76" d="M 191 3500 
L 800 3500 
L 1894 563 
L 2988 3500 
L 3597 3500 
L 2284 0 
L 1503 0 
L 191 3500 
z
" transform="scale(0.015625)"/>
      <path id="DejaVuSans-6e" d="M 3513 2113 
L 3513 0 
L 2938 0 
L 2938 2094 
Q 2938 2591 2744 2837 
Q 2550 3084 2163 3084 
Q 1697 3084 1428 2787 
Q 1159 2491 1159 1978 
L 1159 0 
L 581 0 
L 581 3500 
L 1159 3500 
L 1159 2956 
Q 1366 3272 1645 3428 
Q 1925 3584 2291 3584 
Q 2894 3584 3203 3211 
Q 3513 2838 3513 2113 
z
" transform="scale(0.015625)"/>
      <path id="DejaVuSans-74" d="M 1172 4494 
L 1172 3500 
L 2356 3500 
L 2356 3053 
L 1172 3053 
L 1172 1153 
Q 1172 725 1289 603 
Q 1406 481 1766 481 
L 2356 481 
L 2356 0 
L 1766 0 
Q 1100 0 847 248 
Q 594 497 594 1153 
L 594 3053 
L 172 3053 
L 172 3500 
L 594 3500 
L 594 4494 
L 1172 4494 
z
" transform="scale(0.015625)"/>
      <path id="DejaVuSans-5f" d="M 3263 -1063 
L 3263 -1509 
L -63 -1509 
L -63 -1063 
L 3263 -1063 
z
" transform="scale(0.015625)"/>
      <path id="DejaVuSans-70" d="M 1159 525 
L 1159 -1331 
L 581 -1331 
L 581 3500 
L 1159 3500 
L 1159 2969 
Q 1341 3281 1617 3432 
Q 1894 3584 2278 3584 
Q 2916 3584 3314 3078 
Q 3713 2572 3713 1747 
Q 3713 922 3314 415 
Q 2916 -91 2278 -91 
Q 1894 -91 1617 61 
Q 1341 213 1159 525 
z
M 3116 1747 
Q 3116 2381 2855 2742 
Q 2594 3103 2138 3103 
Q 1681 3103 1420 2742 
Q 1159 2381 1159 1747 
Q 1159 1113 1420 752 
Q 1681 391 2138 391 
Q 2594 391 2855 752 
Q 3116 1113 3116 1747 
z
" transform="scale(0.015625)"/>
      <path id="DejaVuSans-3d" d="M 678 2906 
L 4684 2906 
L 4684 2381 
L 678 2381 
L 678 2906 
z
M 678 1631 
L 4684 1631 
L 4684 1100 
L 678 1100 
L 678 1631 
z
" transform="scale(0.015625)"/>
      <path id="DejaVuSans-2e" d="M 684 794 
L 1344 794 
L 1344 0 
L 684 0 
L 684 794 
z
" transform="scale(0.015625)"/>
     </defs>
     <use xlink:href="#DejaVuSans-45"/>
     <use xlink:href="#DejaVuSans-76" x="63.183594"/>
     <use xlink:href="#DejaVuSans-65" x="122.363281"/>
     <use xlink:href="#DejaVuSans-6e" x="183.886719"/>
     <use xlink:href="#DejaVuSans-74" x="247.265625"/>
     <use xlink:href="#DejaVuSans-20" x="286.474609"/>
     <use xlink:href="#DejaVuSans-31" x="318.261719"/>
     <use xlink:href="#DejaVuSans-30" x="381.884766"/>
     <use xlink:href="#DejaVuSans-5f" x="445.507812"/>
     <use xlink:href="#DejaVuSans-70" x="495.507812"/>
     <use xlink:href="#DejaVuSans-3d" x="558.984375"/>
     <use xlink:href="#DejaVuSans-30" x="642.773438"/>
     <use xlink:href="#DejaVuSans-2e" x="706.396484"/>
     <use xlink:href="#DejaVuSans-30" x="738.183594"/>
     <use xlink:href="#DejaVuSans-35" x="801.806641"/>
     <use xlink:href="#DejaVuSans-34" x="865.429688"/>
    </g>
   </g>
  </g>
 </g>
 <defs>
  <clipPath id="p8136b98b19">
   <rect x="57.6" y="41.472" width="357.12" height="266.112"/>
  </clipPath>
 </defs>
</svg>
