<?xml version="1.0" encoding="utf-8" standalone="no"?>
<!DOCTYPE svg PUBLIC "-//W3C//DTD SVG 1.1//EN"
  "http://www.w3.org/Graphics/SVG/1.1/DTD/svg11.dtd">
<svg xmlns:xlink="http://www.w3.org/1999/xlink" width="460.8pt" height="345.6pt" viewBox="0 0 460.8 345.6" xmlns="http://www.w3.org/2000/svg" version="1.1">
 <metadata>
  <rdf:RDF xmlns:dc="http://purl.org/dc/elements/1.1/" xmlns:cc="http://creativecommons.org/ns#" xmlns:rdf="http://www.w3.org/1999/02/22-rdf-syntax-ns#">
   <cc:Work>
    <dc:type rdf:resource="http://purl.org/dc/dcmitype/StillImage"/>
    <dc:date>2024-11-12T22:27:48.904716</dc:date>
    <dc:format>image/svg+xml</dc:format>
    <dc:creator>
     <cc:Agent>
      <dc:title>Matplotlib v3.8.2, https://matplotlib.org/</dc:title>
     </cc:Agent>
    </dc:creator>
   </cc:Work>
  </rdf:RDF>
 </metadata>
 <defs>
  <style type="text/css">*{stroke-linejoin: round; stroke-linecap: butt}</style>
 </defs>
 <g id="figure_1">
  <g id="patch_1">
   <path d="M 0 345.6 
L 460.8 345.6 
L 460.8 0 
L 0 0 
z
" style="fill: #ffffff"/>
  </g>
  <g id="axes_1">
   <g id="patch_2">
    <path d="M 57.6 307.584 
L 414.72 307.584 
L 414.72 41.472 
L 57.6 41.472 
z
" style="fill: #ffffff"/>
   </g>
   <g id="PolyCollection_1">
    <defs>
     <path id="m2a7f582d60" d="M 73.832727 -186.442866 
L 73.832727 -139.559645 
L 74.918528 -140.159465 
L 76.00433 -140.419381 
L 77.090131 -139.958367 
L 78.175932 -139.041312 
L 79.261733 -138.786123 
L 80.347534 -138.593815 
L 81.433335 -137.998901 
L 82.519137 -137.485928 
L 83.604938 -137.151222 
L 84.690739 -137.234426 
L 85.77654 -136.554277 
L 86.862341 -136.261853 
L 87.948142 -135.939581 
L 89.033943 -136.198117 
L 90.119745 -136.251785 
L 91.205546 -136.140239 
L 92.291347 -136.450825 
L 93.377148 -137.048481 
L 94.462949 -136.52529 
L 95.54875 -136.316843 
L 96.634552 -136.037188 
L 97.720353 -134.670292 
L 98.806154 -134.201439 
L 99.891955 -134.406573 
L 100.977756 -133.213472 
L 102.063557 -132.109792 
L 103.149358 -131.58195 
L 104.23516 -131.319792 
L 105.320961 -130.956642 
L 106.406762 -130.685677 
L 107.492563 -130.063964 
L 108.578364 -129.883634 
L 109.664165 -128.883427 
L 110.749967 -128.495574 
L 111.835768 -128.24769 
L 112.921569 -128.358622 
L 114.00737 -128.280387 
L 115.093171 -128.040361 
L 116.178972 -126.733112 
L 117.264773 -126.895231 
L 118.350575 -126.064179 
L 119.436376 -125.465273 
L 120.522177 -125.009532 
L 121.607978 -124.399555 
L 122.693779 -124.643983 
L 123.77958 -125.204887 
L 124.865382 -126.140117 
L 125.951183 -126.028201 
L 127.036984 -126.808646 
L 128.122785 -126.93452 
L 129.208586 -127.339715 
L 130.294387 -128.273838 
L 131.380189 -128.384021 
L 132.46599 -128.975331 
L 133.551791 -129.184645 
L 134.637592 -129.437654 
L 135.723393 -129.364974 
L 136.809194 -129.651067 
L 137.894995 -129.996162 
L 138.980797 -129.280928 
L 140.066598 -129.312224 
L 141.152399 -129.425348 
L 142.2382 -130.471761 
L 143.324001 -131.00253 
L 144.409802 -131.15361 
L 145.495604 -131.149687 
L 146.581405 -132.421043 
L 147.667206 -133.418829 
L 148.753007 -134.0378 
L 149.838808 -135.06548 
L 150.924609 -135.460194 
L 152.01041 -134.869225 
L 153.096212 -134.975648 
L 154.182013 -134.411093 
L 155.267814 -134.802477 
L 156.353615 -134.029911 
L 157.439416 -133.162254 
L 158.525217 -133.621143 
L 159.611019 -132.566644 
L 160.69682 -130.865599 
L 161.782621 -130.273748 
L 162.868422 -129.14075 
L 163.954223 -127.437779 
L 165.040024 -126.483463 
L 166.125825 -126.060191 
L 167.211627 -124.30422 
L 168.297428 -122.194797 
L 169.383229 -120.824889 
L 170.46903 -119.122704 
L 171.554831 -117.63993 
L 172.640632 -115.999728 
L 173.726434 -114.771579 
L 174.812235 -113.220698 
L 175.898036 -110.925776 
L 176.983837 -109.83793 
L 178.069638 -108.151557 
L 179.155439 -107.004279 
L 180.24124 -108.157634 
L 181.327042 -107.121654 
L 182.412843 -105.966813 
L 183.498644 -105.105793 
L 184.584445 -105.46338 
L 185.670246 -105.281539 
L 186.756047 -105.031898 
L 187.841849 -104.569699 
L 188.92765 -104.751283 
L 190.013451 -105.782028 
L 191.099252 -107.327781 
L 192.185053 -107.301201 
L 193.270854 -108.024006 
L 194.356656 -108.65043 
L 195.442457 -109.488655 
L 196.528258 -109.98399 
L 197.614059 -111.228206 
L 198.69986 -111.781321 
L 199.785661 -112.763545 
L 200.871462 -113.901795 
L 201.957264 -114.844616 
L 203.043065 -115.532039 
L 204.128866 -115.963868 
L 205.214667 -116.532607 
L 206.300468 -116.822217 
L 207.386269 -117.574 
L 208.472071 -117.837393 
L 209.557872 -117.5656 
L 210.643673 -117.716585 
L 211.729474 -117.874945 
L 212.815275 -118.185381 
L 213.901076 -119.919806 
L 214.986877 -121.448171 
L 216.072679 -122.377179 
L 217.15848 -124.145256 
L 218.244281 -125.179355 
L 219.330082 -126.774516 
L 220.415883 -127.895964 
L 221.501684 -129.017794 
L 222.587486 -131.065838 
L 223.673287 -133.271889 
L 224.759088 -134.448347 
L 225.844889 -136.417765 
L 226.93069 -137.085069 
L 228.016491 -138.862123 
L 229.102292 -140.887231 
L 230.188094 -142.077634 
L 231.273895 -142.886406 
L 232.359696 -143.733743 
L 233.445497 -145.226455 
L 234.531298 -146.367184 
L 235.617099 -147.874774 
L 236.702901 -149.380298 
L 237.788702 -151.673736 
L 238.874503 -152.887124 
L 239.960304 -153.929731 
L 241.046105 -155.169756 
L 242.131906 -155.884611 
L 243.217708 -155.58279 
L 244.303509 -156.224751 
L 245.38931 -156.442896 
L 246.475111 -157.372661 
L 247.560912 -157.934431 
L 248.646713 -157.856324 
L 249.732514 -157.547455 
L 250.818316 -158.022224 
L 251.904117 -157.751369 
L 252.989918 -156.619497 
L 254.075719 -154.734499 
L 255.16152 -153.518227 
L 256.247321 -152.171434 
L 257.333123 -151.045009 
L 258.418924 -149.95542 
L 259.504725 -149.086938 
L 260.590526 -147.748323 
L 261.676327 -147.144356 
L 262.762128 -146.49151 
L 263.847929 -146.129821 
L 264.933731 -145.767247 
L 266.019532 -145.407105 
L 267.105333 -144.76366 
L 268.191134 -145.07115 
L 269.276935 -144.2624 
L 270.362736 -144.207022 
L 271.448538 -143.855652 
L 272.534339 -142.865415 
L 273.62014 -142.416913 
L 274.705941 -141.445868 
L 275.791742 -139.779465 
L 276.877543 -139.046986 
L 277.963344 -137.525772 
L 279.049146 -135.583114 
L 280.134947 -133.986186 
L 281.220748 -132.247758 
L 282.306549 -130.173612 
L 283.39235 -128.625256 
L 284.478151 -126.171296 
L 285.563953 -124.793954 
L 286.649754 -122.356807 
L 287.735555 -119.796301 
L 288.821356 -118.335942 
L 289.907157 -115.68022 
L 290.992958 -114.710795 
L 292.07876 -112.753724 
L 293.164561 -110.559154 
L 294.250362 -108.836316 
L 295.336163 -107.2158 
L 296.421964 -106.183875 
L 297.507765 -104.646036 
L 298.593566 -103.069878 
L 299.679368 -101.404432 
L 300.765169 -100.088519 
L 301.85097 -97.394347 
L 302.936771 -96.151573 
L 304.022572 -94.239997 
L 305.108373 -92.311285 
L 306.194175 -90.952 
L 307.279976 -89.174584 
L 308.365777 -87.030202 
L 309.451578 -85.737117 
L 310.537379 -83.619006 
L 311.62318 -81.902522 
L 312.708981 -80.098365 
L 313.794783 -78.803283 
L 314.880584 -76.353466 
L 315.966385 -75.077901 
L 317.052186 -74.238021 
L 318.137987 -73.1509 
L 319.223788 -71.698412 
L 320.30959 -71.135151 
L 321.395391 -69.963978 
L 322.481192 -69.449779 
L 323.566993 -68.582396 
L 324.652794 -67.973936 
L 325.738595 -66.200562 
L 326.824396 -65.655465 
L 327.910198 -64.968702 
L 328.995999 -64.384635 
L 330.0818 -63.168509 
L 331.167601 -63.567535 
L 332.253402 -62.261033 
L 333.339203 -62.171676 
L 334.425005 -61.333135 
L 335.510806 -61.294241 
L 336.596607 -61.736758 
L 337.682408 -60.756742 
L 338.768209 -60.706567 
L 339.85401 -60.741381 
L 340.939811 -61.609194 
L 342.025613 -61.472033 
L 343.111414 -62.05039 
L 344.197215 -61.588108 
L 345.283016 -60.746193 
L 346.368817 -61.51342 
L 347.454618 -61.602 
L 348.54042 -61.948876 
L 349.626221 -61.962781 
L 350.712022 -61.697082 
L 351.797823 -62.215317 
L 352.883624 -61.888748 
L 353.969425 -62.358757 
L 355.055227 -61.765039 
L 356.141028 -61.75377 
L 357.226829 -61.645619 
L 358.31263 -61.486786 
L 359.398431 -61.36805 
L 360.484232 -60.876514 
L 361.570033 -59.923699 
L 362.655835 -58.394428 
L 363.741636 -57.699766 
L 364.827437 -56.096528 
L 365.913238 -55.173525 
L 366.999039 -54.832663 
L 368.08484 -54.717831 
L 369.170642 -55.072367 
L 370.256443 -55.093067 
L 371.342244 -54.918909 
L 372.428045 -54.846175 
L 373.513846 -54.082376 
L 374.599647 -53.957997 
L 375.685448 -53.627386 
L 376.77125 -53.394137 
L 377.857051 -53.00338 
L 378.942852 -52.834835 
L 380.028653 -52.299144 
L 381.114454 -52.679534 
L 382.200255 -52.840839 
L 383.286057 -52.414449 
L 384.371858 -52.222748 
L 385.457659 -52.626389 
L 386.54346 -52.875669 
L 387.629261 -52.892287 
L 388.715062 -53.476197 
L 389.800863 -54.1809 
L 390.886665 -53.238997 
L 391.972466 -52.249244 
L 393.058267 -51.859904 
L 394.144068 -51.907031 
L 395.229869 -51.461253 
L 396.31567 -50.937332 
L 397.401472 -50.470786 
L 398.487273 -50.112 
L 398.487273 -146.805603 
L 398.487273 -146.805603 
L 397.401472 -146.893155 
L 396.31567 -147.056056 
L 395.229869 -147.31298 
L 394.144068 -146.811642 
L 393.058267 -146.808863 
L 391.972466 -146.720607 
L 390.886665 -147.559116 
L 389.800863 -147.775416 
L 388.715062 -147.780095 
L 387.629261 -147.787593 
L 386.54346 -148.481442 
L 385.457659 -148.48403 
L 384.371858 -148.677413 
L 383.286057 -149.391379 
L 382.200255 -150.264929 
L 381.114454 -150.786282 
L 380.028653 -151.153508 
L 378.942852 -151.554505 
L 377.857051 -151.671593 
L 376.77125 -152.843679 
L 375.685448 -153.906263 
L 374.599647 -155.25632 
L 373.513846 -155.787315 
L 372.428045 -156.646071 
L 371.342244 -157.900712 
L 370.256443 -158.416484 
L 369.170642 -158.682475 
L 368.08484 -159.650395 
L 366.999039 -160.969058 
L 365.913238 -161.724216 
L 364.827437 -163.522186 
L 363.741636 -165.718205 
L 362.655835 -167.353136 
L 361.570033 -169.651395 
L 360.484232 -171.888152 
L 359.398431 -173.161182 
L 358.31263 -174.455954 
L 357.226829 -176.590685 
L 356.141028 -178.817326 
L 355.055227 -180.936859 
L 353.969425 -183.08095 
L 352.883624 -184.019355 
L 351.797823 -186.147462 
L 350.712022 -187.265363 
L 349.626221 -188.007447 
L 348.54042 -189.5514 
L 347.454618 -190.345979 
L 346.368817 -191.855912 
L 345.283016 -191.918404 
L 344.197215 -194.457027 
L 343.111414 -196.028065 
L 342.025613 -196.624486 
L 340.939811 -198.570199 
L 339.85401 -199.992528 
L 338.768209 -201.931694 
L 337.682408 -203.506579 
L 336.596607 -206.041117 
L 335.510806 -207.41011 
L 334.425005 -208.956067 
L 333.339203 -210.625698 
L 332.253402 -211.450851 
L 331.167601 -213.61037 
L 330.0818 -214.78171 
L 328.995999 -216.190153 
L 327.910198 -218.56996 
L 326.824396 -220.318643 
L 325.738595 -221.805623 
L 324.652794 -224.323682 
L 323.566993 -225.283672 
L 322.481192 -227.103231 
L 321.395391 -228.227731 
L 320.30959 -230.174074 
L 319.223788 -231.51202 
L 318.137987 -233.551551 
L 317.052186 -234.702857 
L 315.966385 -236.085653 
L 314.880584 -237.612056 
L 313.794783 -240.122787 
L 312.708981 -240.614551 
L 311.62318 -242.282242 
L 310.537379 -243.049451 
L 309.451578 -244.876938 
L 308.365777 -245.233027 
L 307.279976 -246.1632 
L 306.194175 -247.53269 
L 305.108373 -248.936848 
L 304.022572 -248.993187 
L 302.936771 -249.757851 
L 301.85097 -250.058615 
L 300.765169 -251.125183 
L 299.679368 -250.539128 
L 298.593566 -251.134311 
L 297.507765 -251.718121 
L 296.421964 -251.98788 
L 295.336163 -252.172122 
L 294.250362 -252.294742 
L 293.164561 -252.892964 
L 292.07876 -253.863069 
L 290.992958 -254.338296 
L 289.907157 -254.131818 
L 288.821356 -256.08683 
L 287.735555 -256.139621 
L 286.649754 -257.410041 
L 285.563953 -258.832955 
L 284.478151 -260.005931 
L 283.39235 -261.898829 
L 282.306549 -262.546675 
L 281.220748 -264.297672 
L 280.134947 -265.067278 
L 279.049146 -265.650214 
L 277.963344 -266.566879 
L 276.877543 -267.393801 
L 275.791742 -267.368354 
L 274.705941 -268.329012 
L 273.62014 -268.484695 
L 272.534339 -268.271191 
L 271.448538 -269.070458 
L 270.362736 -268.904372 
L 269.276935 -268.809704 
L 268.191134 -270.176472 
L 267.105333 -269.541502 
L 266.019532 -270.573923 
L 264.933731 -270.990834 
L 263.847929 -271.065969 
L 262.762128 -270.78798 
L 261.676327 -271.23289 
L 260.590526 -271.515754 
L 259.504725 -273.465013 
L 258.418924 -274.42683 
L 257.333123 -275.513854 
L 256.247321 -276.766824 
L 255.16152 -278.041699 
L 254.075719 -278.829371 
L 252.989918 -281.528726 
L 251.904117 -283.443021 
L 250.818316 -284.476172 
L 249.732514 -285.054282 
L 248.646713 -287.245961 
L 247.560912 -288.271382 
L 246.475111 -289.326301 
L 245.38931 -289.260762 
L 244.303509 -290.151165 
L 243.217708 -290.360749 
L 242.131906 -291.805274 
L 241.046105 -291.942048 
L 239.960304 -292.032 
L 238.874503 -291.778443 
L 237.788702 -291.145842 
L 236.702901 -289.084414 
L 235.617099 -288.508124 
L 234.531298 -286.84325 
L 233.445497 -285.912525 
L 232.359696 -284.225629 
L 231.273895 -282.651128 
L 230.188094 -281.76868 
L 229.102292 -280.12439 
L 228.016491 -278.058275 
L 226.93069 -276.097495 
L 225.844889 -274.78544 
L 224.759088 -273.197429 
L 223.673287 -272.028652 
L 222.587486 -269.344919 
L 221.501684 -267.099445 
L 220.415883 -265.843821 
L 219.330082 -263.748505 
L 218.244281 -261.802535 
L 217.15848 -259.758842 
L 216.072679 -256.405679 
L 214.986877 -254.755329 
L 213.901076 -252.614546 
L 212.815275 -249.935126 
L 211.729474 -248.34729 
L 210.643673 -246.07517 
L 209.557872 -243.897661 
L 208.472071 -242.054464 
L 207.386269 -239.329434 
L 206.300468 -236.681182 
L 205.214667 -233.745504 
L 204.128866 -230.76587 
L 203.043065 -228.054475 
L 201.957264 -224.678934 
L 200.871462 -221.160719 
L 199.785661 -217.851658 
L 198.69986 -215.097365 
L 197.614059 -212.236402 
L 196.528258 -209.069168 
L 195.442457 -205.977582 
L 194.356656 -202.856955 
L 193.270854 -200.388194 
L 192.185053 -197.347045 
L 191.099252 -194.882219 
L 190.013451 -191.790961 
L 188.92765 -188.481898 
L 187.841849 -185.336399 
L 186.756047 -183.226815 
L 185.670246 -180.693609 
L 184.584445 -177.944074 
L 183.498644 -175.230444 
L 182.412843 -172.313453 
L 181.327042 -167.944449 
L 180.24124 -166.679344 
L 179.155439 -163.253287 
L 178.069638 -161.718194 
L 176.983837 -160.736343 
L 175.898036 -159.908099 
L 174.812235 -159.774917 
L 173.726434 -159.256802 
L 172.640632 -158.264069 
L 171.554831 -157.794387 
L 170.46903 -157.306685 
L 169.383229 -157.356861 
L 168.297428 -156.978307 
L 167.211627 -156.964775 
L 166.125825 -156.8911 
L 165.040024 -156.107643 
L 163.954223 -155.408128 
L 162.868422 -155.316157 
L 161.782621 -154.871195 
L 160.69682 -154.084539 
L 159.611019 -154.414713 
L 158.525217 -154.550013 
L 157.439416 -154.203046 
L 156.353615 -154.480548 
L 155.267814 -154.968831 
L 154.182013 -154.909884 
L 153.096212 -155.277471 
L 152.01041 -155.583883 
L 150.924609 -155.754706 
L 149.838808 -156.134944 
L 148.753007 -155.659734 
L 147.667206 -154.93654 
L 146.581405 -154.014202 
L 145.495604 -153.30709 
L 144.409802 -153.454421 
L 143.324001 -153.872175 
L 142.2382 -153.430934 
L 141.152399 -152.886401 
L 140.066598 -152.949449 
L 138.980797 -153.682968 
L 137.894995 -154.548608 
L 136.809194 -154.501235 
L 135.723393 -154.856252 
L 134.637592 -155.062787 
L 133.551791 -155.160186 
L 132.46599 -155.352766 
L 131.380189 -155.328944 
L 130.294387 -154.940927 
L 129.208586 -154.31814 
L 128.122785 -153.00452 
L 127.036984 -152.628225 
L 125.951183 -151.234027 
L 124.865382 -150.601418 
L 123.77958 -149.011555 
L 122.693779 -147.899965 
L 121.607978 -147.267708 
L 120.522177 -147.23825 
L 119.436376 -146.665973 
L 118.350575 -146.416582 
L 117.264773 -146.94381 
L 116.178972 -146.046858 
L 115.093171 -146.716275 
L 114.00737 -146.421577 
L 112.921569 -146.364042 
L 111.835768 -146.379084 
L 110.749967 -146.729503 
L 109.664165 -147.128765 
L 108.578364 -148.47137 
L 107.492563 -149.153681 
L 106.406762 -150.443002 
L 105.320961 -151.020649 
L 104.23516 -151.451338 
L 103.149358 -151.426961 
L 102.063557 -151.921772 
L 100.977756 -153.418165 
L 99.891955 -155.244399 
L 98.806154 -154.478839 
L 97.720353 -154.801759 
L 96.634552 -156.820329 
L 95.54875 -157.499809 
L 94.462949 -158.283004 
L 93.377148 -159.540362 
L 92.291347 -159.597416 
L 91.205546 -160.21552 
L 90.119745 -161.389602 
L 89.033943 -162.492691 
L 87.948142 -163.474259 
L 86.862341 -164.32942 
L 85.77654 -165.990782 
L 84.690739 -168.016979 
L 83.604938 -169.176781 
L 82.519137 -170.876573 
L 81.433335 -173.051705 
L 80.347534 -175.005587 
L 79.261733 -176.61866 
L 78.175932 -179.041774 
L 77.090131 -181.85562 
L 76.00433 -184.210337 
L 74.918528 -185.744673 
L 73.832727 -186.442866 
z
" style="stroke: #ff00ff; stroke-opacity: 0.1"/>
    </defs>
    <g clip-path="url(#pa25fa9a354)">
     <use xlink:href="#m2a7f582d60" x="0" y="345.6" style="fill: #ff00ff; fill-opacity: 0.1; stroke: #ff00ff; stroke-opacity: 0.1"/>
    </g>
   </g>
   <g id="matplotlib.axis_1">
    <g id="xtick_1">
     <g id="line2d_1">
      <defs>
       <path id="md9b8adc1df" d="M 0 0 
L 0 3.5 
" style="stroke: #000000; stroke-width: 0.8"/>
      </defs>
      <g>
       <use xlink:href="#md9b8adc1df" x="73.832727" y="307.584" style="stroke: #000000; stroke-width: 0.8"/>
      </g>
     </g>
     <g id="text_1">
      <!-- −5 -->
      <g transform="translate(66.461634 322.182437) scale(0.1 -0.1)">
       <defs>
        <path id="DejaVuSans-2212" d="M 678 2272 
L 4684 2272 
L 4684 1741 
L 678 1741 
L 678 2272 
z
" transform="scale(0.015625)"/>
        <path id="DejaVuSans-35" d="M 691 4666 
L 3169 4666 
L 3169 4134 
L 1269 4134 
L 1269 2991 
Q 1406 3038 1543 3061 
Q 1681 3084 1819 3084 
Q 2600 3084 3056 2656 
Q 3513 2228 3513 1497 
Q 3513 744 3044 326 
Q 2575 -91 1722 -91 
Q 1428 -91 1123 -41 
Q 819 9 494 109 
L 494 744 
Q 775 591 1075 516 
Q 1375 441 1709 441 
Q 2250 441 2565 725 
Q 2881 1009 2881 1497 
Q 2881 1984 2565 2268 
Q 2250 2553 1709 2553 
Q 1456 2553 1204 2497 
Q 953 2441 691 2322 
L 691 4666 
z
" transform="scale(0.015625)"/>
       </defs>
       <use xlink:href="#DejaVuSans-2212"/>
       <use xlink:href="#DejaVuSans-35" x="83.789062"/>
      </g>
     </g>
    </g>
    <g id="xtick_2">
     <g id="line2d_2">
      <g>
       <use xlink:href="#md9b8adc1df" x="95.54875" y="307.584" style="stroke: #000000; stroke-width: 0.8"/>
      </g>
     </g>
     <g id="text_2">
      <!-- −4 -->
      <g transform="translate(88.177657 322.182437) scale(0.1 -0.1)">
       <defs>
        <path id="DejaVuSans-34" d="M 2419 4116 
L 825 1625 
L 2419 1625 
L 2419 4116 
z
M 2253 4666 
L 3047 4666 
L 3047 1625 
L 3713 1625 
L 3713 1100 
L 3047 1100 
L 3047 0 
L 2419 0 
L 2419 1100 
L 313 1100 
L 313 1709 
L 2253 4666 
z
" transform="scale(0.015625)"/>
       </defs>
       <use xlink:href="#DejaVuSans-2212"/>
       <use xlink:href="#DejaVuSans-34" x="83.789062"/>
      </g>
     </g>
    </g>
    <g id="xtick_3">
     <g id="line2d_3">
      <g>
       <use xlink:href="#md9b8adc1df" x="117.264773" y="307.584" style="stroke: #000000; stroke-width: 0.8"/>
      </g>
     </g>
     <g id="text_3">
      <!-- −3 -->
      <g transform="translate(109.89368 322.182437) scale(0.1 -0.1)">
       <defs>
        <path id="DejaVuSans-33" d="M 2597 2516 
Q 3050 2419 3304 2112 
Q 3559 1806 3559 1356 
Q 3559 666 3084 287 
Q 2609 -91 1734 -91 
Q 1441 -91 1130 -33 
Q 819 25 488 141 
L 488 750 
Q 750 597 1062 519 
Q 1375 441 1716 441 
Q 2309 441 2620 675 
Q 2931 909 2931 1356 
Q 2931 1769 2642 2001 
Q 2353 2234 1838 2234 
L 1294 2234 
L 1294 2753 
L 1863 2753 
Q 2328 2753 2575 2939 
Q 2822 3125 2822 3475 
Q 2822 3834 2567 4026 
Q 2313 4219 1838 4219 
Q 1578 4219 1281 4162 
Q 984 4106 628 3988 
L 628 4550 
Q 988 4650 1302 4700 
Q 1616 4750 1894 4750 
Q 2613 4750 3031 4423 
Q 3450 4097 3450 3541 
Q 3450 3153 3228 2886 
Q 3006 2619 2597 2516 
z
" transform="scale(0.015625)"/>
       </defs>
       <use xlink:href="#DejaVuSans-2212"/>
       <use xlink:href="#DejaVuSans-33" x="83.789062"/>
      </g>
     </g>
    </g>
    <g id="xtick_4">
     <g id="line2d_4">
      <g>
       <use xlink:href="#md9b8adc1df" x="138.980797" y="307.584" style="stroke: #000000; stroke-width: 0.8"/>
      </g>
     </g>
     <g id="text_4">
      <!-- −2 -->
      <g transform="translate(131.609703 322.182437) scale(0.1 -0.1)">
       <defs>
        <path id="DejaVuSans-32" d="M 1228 531 
L 3431 531 
L 3431 0 
L 469 0 
L 469 531 
Q 828 903 1448 1529 
Q 2069 2156 2228 2338 
Q 2531 2678 2651 2914 
Q 2772 3150 2772 3378 
Q 2772 3750 2511 3984 
Q 2250 4219 1831 4219 
Q 1534 4219 1204 4116 
Q 875 4013 500 3803 
L 500 4441 
Q 881 4594 1212 4672 
Q 1544 4750 1819 4750 
Q 2544 4750 2975 4387 
Q 3406 4025 3406 3419 
Q 3406 3131 3298 2873 
Q 3191 2616 2906 2266 
Q 2828 2175 2409 1742 
Q 1991 1309 1228 531 
z
" transform="scale(0.015625)"/>
       </defs>
       <use xlink:href="#DejaVuSans-2212"/>
       <use xlink:href="#DejaVuSans-32" x="83.789062"/>
      </g>
     </g>
    </g>
    <g id="xtick_5">
     <g id="line2d_5">
      <g>
       <use xlink:href="#md9b8adc1df" x="160.69682" y="307.584" style="stroke: #000000; stroke-width: 0.8"/>
      </g>
     </g>
     <g id="text_5">
      <!-- −1 -->
      <g transform="translate(153.325726 322.182437) scale(0.1 -0.1)">
       <defs>
        <path id="DejaVuSans-31" d="M 794 531 
L 1825 531 
L 1825 4091 
L 703 3866 
L 703 4441 
L 1819 4666 
L 2450 4666 
L 2450 531 
L 3481 531 
L 3481 0 
L 794 0 
L 794 531 
z
" transform="scale(0.015625)"/>
       </defs>
       <use xlink:href="#DejaVuSans-2212"/>
       <use xlink:href="#DejaVuSans-31" x="83.789062"/>
      </g>
     </g>
    </g>
    <g id="xtick_6">
     <g id="line2d_6">
      <g>
       <use xlink:href="#md9b8adc1df" x="182.412843" y="307.584" style="stroke: #000000; stroke-width: 0.8"/>
      </g>
     </g>
     <g id="text_6">
      <!-- 0 -->
      <g transform="translate(179.231593 322.182437) scale(0.1 -0.1)">
       <defs>
        <path id="DejaVuSans-30" d="M 2034 4250 
Q 1547 4250 1301 3770 
Q 1056 3291 1056 2328 
Q 1056 1369 1301 889 
Q 1547 409 2034 409 
Q 2525 409 2770 889 
Q 3016 1369 3016 2328 
Q 3016 3291 2770 3770 
Q 2525 4250 2034 4250 
z
M 2034 4750 
Q 2819 4750 3233 4129 
Q 3647 3509 3647 2328 
Q 3647 1150 3233 529 
Q 2819 -91 2034 -91 
Q 1250 -91 836 529 
Q 422 1150 422 2328 
Q 422 3509 836 4129 
Q 1250 4750 2034 4750 
z
" transform="scale(0.015625)"/>
       </defs>
       <use xlink:href="#DejaVuSans-30"/>
      </g>
     </g>
    </g>
    <g id="xtick_7">
     <g id="line2d_7">
      <g>
       <use xlink:href="#md9b8adc1df" x="204.128866" y="307.584" style="stroke: #000000; stroke-width: 0.8"/>
      </g>
     </g>
     <g id="text_7">
      <!-- 1 -->
      <g transform="translate(200.947616 322.182437) scale(0.1 -0.1)">
       <use xlink:href="#DejaVuSans-31"/>
      </g>
     </g>
    </g>
    <g id="xtick_8">
     <g id="line2d_8">
      <g>
       <use xlink:href="#md9b8adc1df" x="225.844889" y="307.584" style="stroke: #000000; stroke-width: 0.8"/>
      </g>
     </g>
     <g id="text_8">
      <!-- 2 -->
      <g transform="translate(222.663639 322.182437) scale(0.1 -0.1)">
       <use xlink:href="#DejaVuSans-32"/>
      </g>
     </g>
    </g>
    <g id="xtick_9">
     <g id="line2d_9">
      <g>
       <use xlink:href="#md9b8adc1df" x="247.560912" y="307.584" style="stroke: #000000; stroke-width: 0.8"/>
      </g>
     </g>
     <g id="text_9">
      <!-- 3 -->
      <g transform="translate(244.379662 322.182437) scale(0.1 -0.1)">
       <use xlink:href="#DejaVuSans-33"/>
      </g>
     </g>
    </g>
    <g id="xtick_10">
     <g id="line2d_10">
      <g>
       <use xlink:href="#md9b8adc1df" x="269.276935" y="307.584" style="stroke: #000000; stroke-width: 0.8"/>
      </g>
     </g>
     <g id="text_10">
      <!-- 4 -->
      <g transform="translate(266.095685 322.182437) scale(0.1 -0.1)">
       <use xlink:href="#DejaVuSans-34"/>
      </g>
     </g>
    </g>
    <g id="xtick_11">
     <g id="line2d_11">
      <g>
       <use xlink:href="#md9b8adc1df" x="290.992958" y="307.584" style="stroke: #000000; stroke-width: 0.8"/>
      </g>
     </g>
     <g id="text_11">
      <!-- 5 -->
      <g transform="translate(287.811708 322.182437) scale(0.1 -0.1)">
       <use xlink:href="#DejaVuSans-35"/>
      </g>
     </g>
    </g>
    <g id="xtick_12">
     <g id="line2d_12">
      <g>
       <use xlink:href="#md9b8adc1df" x="312.708981" y="307.584" style="stroke: #000000; stroke-width: 0.8"/>
      </g>
     </g>
     <g id="text_12">
      <!-- 6 -->
      <g transform="translate(309.527731 322.182437) scale(0.1 -0.1)">
       <defs>
        <path id="DejaVuSans-36" d="M 2113 2584 
Q 1688 2584 1439 2293 
Q 1191 2003 1191 1497 
Q 1191 994 1439 701 
Q 1688 409 2113 409 
Q 2538 409 2786 701 
Q 3034 994 3034 1497 
Q 3034 2003 2786 2293 
Q 2538 2584 2113 2584 
z
M 3366 4563 
L 3366 3988 
Q 3128 4100 2886 4159 
Q 2644 4219 2406 4219 
Q 1781 4219 1451 3797 
Q 1122 3375 1075 2522 
Q 1259 2794 1537 2939 
Q 1816 3084 2150 3084 
Q 2853 3084 3261 2657 
Q 3669 2231 3669 1497 
Q 3669 778 3244 343 
Q 2819 -91 2113 -91 
Q 1303 -91 875 529 
Q 447 1150 447 2328 
Q 447 3434 972 4092 
Q 1497 4750 2381 4750 
Q 2619 4750 2861 4703 
Q 3103 4656 3366 4563 
z
" transform="scale(0.015625)"/>
       </defs>
       <use xlink:href="#DejaVuSans-36"/>
      </g>
     </g>
    </g>
    <g id="xtick_13">
     <g id="line2d_13">
      <g>
       <use xlink:href="#md9b8adc1df" x="334.425005" y="307.584" style="stroke: #000000; stroke-width: 0.8"/>
      </g>
     </g>
     <g id="text_13">
      <!-- 7 -->
      <g transform="translate(331.243755 322.182437) scale(0.1 -0.1)">
       <defs>
        <path id="DejaVuSans-37" d="M 525 4666 
L 3525 4666 
L 3525 4397 
L 1831 0 
L 1172 0 
L 2766 4134 
L 525 4134 
L 525 4666 
z
" transform="scale(0.015625)"/>
       </defs>
       <use xlink:href="#DejaVuSans-37"/>
      </g>
     </g>
    </g>
    <g id="xtick_14">
     <g id="line2d_14">
      <g>
       <use xlink:href="#md9b8adc1df" x="356.141028" y="307.584" style="stroke: #000000; stroke-width: 0.8"/>
      </g>
     </g>
     <g id="text_14">
      <!-- 8 -->
      <g transform="translate(352.959778 322.182437) scale(0.1 -0.1)">
       <defs>
        <path id="DejaVuSans-38" d="M 2034 2216 
Q 1584 2216 1326 1975 
Q 1069 1734 1069 1313 
Q 1069 891 1326 650 
Q 1584 409 2034 409 
Q 2484 409 2743 651 
Q 3003 894 3003 1313 
Q 3003 1734 2745 1975 
Q 2488 2216 2034 2216 
z
M 1403 2484 
Q 997 2584 770 2862 
Q 544 3141 544 3541 
Q 544 4100 942 4425 
Q 1341 4750 2034 4750 
Q 2731 4750 3128 4425 
Q 3525 4100 3525 3541 
Q 3525 3141 3298 2862 
Q 3072 2584 2669 2484 
Q 3125 2378 3379 2068 
Q 3634 1759 3634 1313 
Q 3634 634 3220 271 
Q 2806 -91 2034 -91 
Q 1263 -91 848 271 
Q 434 634 434 1313 
Q 434 1759 690 2068 
Q 947 2378 1403 2484 
z
M 1172 3481 
Q 1172 3119 1398 2916 
Q 1625 2713 2034 2713 
Q 2441 2713 2670 2916 
Q 2900 3119 2900 3481 
Q 2900 3844 2670 4047 
Q 2441 4250 2034 4250 
Q 1625 4250 1398 4047 
Q 1172 3844 1172 3481 
z
" transform="scale(0.015625)"/>
       </defs>
       <use xlink:href="#DejaVuSans-38"/>
      </g>
     </g>
    </g>
    <g id="xtick_15">
     <g id="line2d_15">
      <g>
       <use xlink:href="#md9b8adc1df" x="377.857051" y="307.584" style="stroke: #000000; stroke-width: 0.8"/>
      </g>
     </g>
     <g id="text_15">
      <!-- 9 -->
      <g transform="translate(374.675801 322.182437) scale(0.1 -0.1)">
       <defs>
        <path id="DejaVuSans-39" d="M 703 97 
L 703 672 
Q 941 559 1184 500 
Q 1428 441 1663 441 
Q 2288 441 2617 861 
Q 2947 1281 2994 2138 
Q 2813 1869 2534 1725 
Q 2256 1581 1919 1581 
Q 1219 1581 811 2004 
Q 403 2428 403 3163 
Q 403 3881 828 4315 
Q 1253 4750 1959 4750 
Q 2769 4750 3195 4129 
Q 3622 3509 3622 2328 
Q 3622 1225 3098 567 
Q 2575 -91 1691 -91 
Q 1453 -91 1209 -44 
Q 966 3 703 97 
z
M 1959 2075 
Q 2384 2075 2632 2365 
Q 2881 2656 2881 3163 
Q 2881 3666 2632 3958 
Q 2384 4250 1959 4250 
Q 1534 4250 1286 3958 
Q 1038 3666 1038 3163 
Q 1038 2656 1286 2365 
Q 1534 2075 1959 2075 
z
" transform="scale(0.015625)"/>
       </defs>
       <use xlink:href="#DejaVuSans-39"/>
      </g>
     </g>
    </g>
    <g id="xtick_16">
     <g id="line2d_16">
      <g>
       <use xlink:href="#md9b8adc1df" x="399.573074" y="307.584" style="stroke: #000000; stroke-width: 0.8"/>
      </g>
     </g>
     <g id="text_16">
      <!-- 10 -->
      <g transform="translate(393.210574 322.182437) scale(0.1 -0.1)">
       <use xlink:href="#DejaVuSans-31"/>
       <use xlink:href="#DejaVuSans-30" x="63.623047"/>
      </g>
     </g>
    </g>
    <g id="text_17">
     <!-- Time (s) -->
     <g transform="translate(215.831094 335.860562) scale(0.1 -0.1)">
      <defs>
       <path id="DejaVuSans-54" d="M -19 4666 
L 3928 4666 
L 3928 4134 
L 2272 4134 
L 2272 0 
L 1638 0 
L 1638 4134 
L -19 4134 
L -19 4666 
z
" transform="scale(0.015625)"/>
       <path id="DejaVuSans-69" d="M 603 3500 
L 1178 3500 
L 1178 0 
L 603 0 
L 603 3500 
z
M 603 4863 
L 1178 4863 
L 1178 4134 
L 603 4134 
L 603 4863 
z
" transform="scale(0.015625)"/>
       <path id="DejaVuSans-6d" d="M 3328 2828 
Q 3544 3216 3844 3400 
Q 4144 3584 4550 3584 
Q 5097 3584 5394 3201 
Q 5691 2819 5691 2113 
L 5691 0 
L 5113 0 
L 5113 2094 
Q 5113 2597 4934 2840 
Q 4756 3084 4391 3084 
Q 3944 3084 3684 2787 
Q 3425 2491 3425 1978 
L 3425 0 
L 2847 0 
L 2847 2094 
Q 2847 2600 2669 2842 
Q 2491 3084 2119 3084 
Q 1678 3084 1418 2786 
Q 1159 2488 1159 1978 
L 1159 0 
L 581 0 
L 581 3500 
L 1159 3500 
L 1159 2956 
Q 1356 3278 1631 3431 
Q 1906 3584 2284 3584 
Q 2666 3584 2933 3390 
Q 3200 3197 3328 2828 
z
" transform="scale(0.015625)"/>
       <path id="DejaVuSans-65" d="M 3597 1894 
L 3597 1613 
L 953 1613 
Q 991 1019 1311 708 
Q 1631 397 2203 397 
Q 2534 397 2845 478 
Q 3156 559 3463 722 
L 3463 178 
Q 3153 47 2828 -22 
Q 2503 -91 2169 -91 
Q 1331 -91 842 396 
Q 353 884 353 1716 
Q 353 2575 817 3079 
Q 1281 3584 2069 3584 
Q 2775 3584 3186 3129 
Q 3597 2675 3597 1894 
z
M 3022 2063 
Q 3016 2534 2758 2815 
Q 2500 3097 2075 3097 
Q 1594 3097 1305 2825 
Q 1016 2553 972 2059 
L 3022 2063 
z
" transform="scale(0.015625)"/>
       <path id="DejaVuSans-20" transform="scale(0.015625)"/>
       <path id="DejaVuSans-28" d="M 1984 4856 
Q 1566 4138 1362 3434 
Q 1159 2731 1159 2009 
Q 1159 1288 1364 580 
Q 1569 -128 1984 -844 
L 1484 -844 
Q 1016 -109 783 600 
Q 550 1309 550 2009 
Q 550 2706 781 3412 
Q 1013 4119 1484 4856 
L 1984 4856 
z
" transform="scale(0.015625)"/>
       <path id="DejaVuSans-73" d="M 2834 3397 
L 2834 2853 
Q 2591 2978 2328 3040 
Q 2066 3103 1784 3103 
Q 1356 3103 1142 2972 
Q 928 2841 928 2578 
Q 928 2378 1081 2264 
Q 1234 2150 1697 2047 
L 1894 2003 
Q 2506 1872 2764 1633 
Q 3022 1394 3022 966 
Q 3022 478 2636 193 
Q 2250 -91 1575 -91 
Q 1294 -91 989 -36 
Q 684 19 347 128 
L 347 722 
Q 666 556 975 473 
Q 1284 391 1588 391 
Q 1994 391 2212 530 
Q 2431 669 2431 922 
Q 2431 1156 2273 1281 
Q 2116 1406 1581 1522 
L 1381 1569 
Q 847 1681 609 1914 
Q 372 2147 372 2553 
Q 372 3047 722 3315 
Q 1072 3584 1716 3584 
Q 2034 3584 2315 3537 
Q 2597 3491 2834 3397 
z
" transform="scale(0.015625)"/>
       <path id="DejaVuSans-29" d="M 513 4856 
L 1013 4856 
Q 1481 4119 1714 3412 
Q 1947 2706 1947 2009 
Q 1947 1309 1714 600 
Q 1481 -109 1013 -844 
L 513 -844 
Q 928 -128 1133 580 
Q 1338 1288 1338 2009 
Q 1338 2731 1133 3434 
Q 928 4138 513 4856 
z
" transform="scale(0.015625)"/>
      </defs>
      <use xlink:href="#DejaVuSans-54"/>
      <use xlink:href="#DejaVuSans-69" x="57.958984"/>
      <use xlink:href="#DejaVuSans-6d" x="85.742188"/>
      <use xlink:href="#DejaVuSans-65" x="183.154297"/>
      <use xlink:href="#DejaVuSans-20" x="244.677734"/>
      <use xlink:href="#DejaVuSans-28" x="276.464844"/>
      <use xlink:href="#DejaVuSans-73" x="315.478516"/>
      <use xlink:href="#DejaVuSans-29" x="367.578125"/>
     </g>
    </g>
   </g>
   <g id="matplotlib.axis_2">
    <g id="ytick_1">
     <g id="line2d_17">
      <defs>
       <path id="md0eea3105f" d="M 0 0 
L -3.5 0 
" style="stroke: #000000; stroke-width: 0.8"/>
      </defs>
      <g>
       <use xlink:href="#md0eea3105f" x="57.6" y="275.595198" style="stroke: #000000; stroke-width: 0.8"/>
      </g>
     </g>
     <g id="text_18">
      <!-- −2 -->
      <g transform="translate(35.857813 279.394417) scale(0.1 -0.1)">
       <use xlink:href="#DejaVuSans-2212"/>
       <use xlink:href="#DejaVuSans-32" x="83.789062"/>
      </g>
     </g>
    </g>
    <g id="ytick_2">
     <g id="line2d_18">
      <g>
       <use xlink:href="#md0eea3105f" x="57.6" y="238.947635" style="stroke: #000000; stroke-width: 0.8"/>
      </g>
     </g>
     <g id="text_19">
      <!-- −1 -->
      <g transform="translate(35.857813 242.746854) scale(0.1 -0.1)">
       <use xlink:href="#DejaVuSans-2212"/>
       <use xlink:href="#DejaVuSans-31" x="83.789062"/>
      </g>
     </g>
    </g>
    <g id="ytick_3">
     <g id="line2d_19">
      <g>
       <use xlink:href="#md0eea3105f" x="57.6" y="202.300072" style="stroke: #000000; stroke-width: 0.8"/>
      </g>
     </g>
     <g id="text_20">
      <!-- 0 -->
      <g transform="translate(44.2375 206.099291) scale(0.1 -0.1)">
       <use xlink:href="#DejaVuSans-30"/>
      </g>
     </g>
    </g>
    <g id="ytick_4">
     <g id="line2d_20">
      <g>
       <use xlink:href="#md0eea3105f" x="57.6" y="165.652509" style="stroke: #000000; stroke-width: 0.8"/>
      </g>
     </g>
     <g id="text_21">
      <!-- 1 -->
      <g transform="translate(44.2375 169.451728) scale(0.1 -0.1)">
       <use xlink:href="#DejaVuSans-31"/>
      </g>
     </g>
    </g>
    <g id="ytick_5">
     <g id="line2d_21">
      <g>
       <use xlink:href="#md0eea3105f" x="57.6" y="129.004946" style="stroke: #000000; stroke-width: 0.8"/>
      </g>
     </g>
     <g id="text_22">
      <!-- 2 -->
      <g transform="translate(44.2375 132.804165) scale(0.1 -0.1)">
       <use xlink:href="#DejaVuSans-32"/>
      </g>
     </g>
    </g>
    <g id="ytick_6">
     <g id="line2d_22">
      <g>
       <use xlink:href="#md0eea3105f" x="57.6" y="92.357383" style="stroke: #000000; stroke-width: 0.8"/>
      </g>
     </g>
     <g id="text_23">
      <!-- 3 -->
      <g transform="translate(44.2375 96.156602) scale(0.1 -0.1)">
       <use xlink:href="#DejaVuSans-33"/>
      </g>
     </g>
    </g>
    <g id="ytick_7">
     <g id="line2d_23">
      <g>
       <use xlink:href="#md0eea3105f" x="57.6" y="55.70982" style="stroke: #000000; stroke-width: 0.8"/>
      </g>
     </g>
     <g id="text_24">
      <!-- 4 -->
      <g transform="translate(44.2375 59.509038) scale(0.1 -0.1)">
       <use xlink:href="#DejaVuSans-34"/>
      </g>
     </g>
    </g>
    <g id="text_25">
     <!-- Z-Score -->
     <g transform="translate(29.778125 193.67175) rotate(-90) scale(0.1 -0.1)">
      <defs>
       <path id="DejaVuSans-5a" d="M 359 4666 
L 4025 4666 
L 4025 4184 
L 1075 531 
L 4097 531 
L 4097 0 
L 288 0 
L 288 481 
L 3238 4134 
L 359 4134 
L 359 4666 
z
" transform="scale(0.015625)"/>
       <path id="DejaVuSans-2d" d="M 313 2009 
L 1997 2009 
L 1997 1497 
L 313 1497 
L 313 2009 
z
" transform="scale(0.015625)"/>
       <path id="DejaVuSans-53" d="M 3425 4513 
L 3425 3897 
Q 3066 4069 2747 4153 
Q 2428 4238 2131 4238 
Q 1616 4238 1336 4038 
Q 1056 3838 1056 3469 
Q 1056 3159 1242 3001 
Q 1428 2844 1947 2747 
L 2328 2669 
Q 3034 2534 3370 2195 
Q 3706 1856 3706 1288 
Q 3706 609 3251 259 
Q 2797 -91 1919 -91 
Q 1588 -91 1214 -16 
Q 841 59 441 206 
L 441 856 
Q 825 641 1194 531 
Q 1563 422 1919 422 
Q 2459 422 2753 634 
Q 3047 847 3047 1241 
Q 3047 1584 2836 1778 
Q 2625 1972 2144 2069 
L 1759 2144 
Q 1053 2284 737 2584 
Q 422 2884 422 3419 
Q 422 4038 858 4394 
Q 1294 4750 2059 4750 
Q 2388 4750 2728 4690 
Q 3069 4631 3425 4513 
z
" transform="scale(0.015625)"/>
       <path id="DejaVuSans-63" d="M 3122 3366 
L 3122 2828 
Q 2878 2963 2633 3030 
Q 2388 3097 2138 3097 
Q 1578 3097 1268 2742 
Q 959 2388 959 1747 
Q 959 1106 1268 751 
Q 1578 397 2138 397 
Q 2388 397 2633 464 
Q 2878 531 3122 666 
L 3122 134 
Q 2881 22 2623 -34 
Q 2366 -91 2075 -91 
Q 1284 -91 818 406 
Q 353 903 353 1747 
Q 353 2603 823 3093 
Q 1294 3584 2113 3584 
Q 2378 3584 2631 3529 
Q 2884 3475 3122 3366 
z
" transform="scale(0.015625)"/>
       <path id="DejaVuSans-6f" d="M 1959 3097 
Q 1497 3097 1228 2736 
Q 959 2375 959 1747 
Q 959 1119 1226 758 
Q 1494 397 1959 397 
Q 2419 397 2687 759 
Q 2956 1122 2956 1747 
Q 2956 2369 2687 2733 
Q 2419 3097 1959 3097 
z
M 1959 3584 
Q 2709 3584 3137 3096 
Q 3566 2609 3566 1747 
Q 3566 888 3137 398 
Q 2709 -91 1959 -91 
Q 1206 -91 779 398 
Q 353 888 353 1747 
Q 353 2609 779 3096 
Q 1206 3584 1959 3584 
z
" transform="scale(0.015625)"/>
       <path id="DejaVuSans-72" d="M 2631 2963 
Q 2534 3019 2420 3045 
Q 2306 3072 2169 3072 
Q 1681 3072 1420 2755 
Q 1159 2438 1159 1844 
L 1159 0 
L 581 0 
L 581 3500 
L 1159 3500 
L 1159 2956 
Q 1341 3275 1631 3429 
Q 1922 3584 2338 3584 
Q 2397 3584 2469 3576 
Q 2541 3569 2628 3553 
L 2631 2963 
z
" transform="scale(0.015625)"/>
      </defs>
      <use xlink:href="#DejaVuSans-5a"/>
      <use xlink:href="#DejaVuSans-2d" x="66.755859"/>
      <use xlink:href="#DejaVuSans-53" x="102.839844"/>
      <use xlink:href="#DejaVuSans-63" x="166.316406"/>
      <use xlink:href="#DejaVuSans-6f" x="221.296875"/>
      <use xlink:href="#DejaVuSans-72" x="282.478516"/>
      <use xlink:href="#DejaVuSans-65" x="321.341797"/>
     </g>
    </g>
   </g>
   <g id="line2d_24">
    <path d="M 73.832727 182.598745 
L 74.918528 182.647931 
L 76.00433 183.285141 
L 77.090131 184.693006 
L 78.175932 186.558457 
L 79.261733 187.897608 
L 80.347534 188.800299 
L 82.519137 191.418749 
L 83.604938 192.435999 
L 84.690739 192.974298 
L 85.77654 194.327471 
L 86.862341 195.304364 
L 87.948142 195.89308 
L 89.033943 196.254596 
L 91.205546 197.42212 
L 92.291347 197.57588 
L 93.377148 197.305579 
L 94.462949 198.195853 
L 96.634552 199.171241 
L 97.720353 200.863975 
L 98.806154 201.259861 
L 99.891955 200.774514 
L 100.977756 202.284182 
L 102.063557 203.584218 
L 103.149358 204.095545 
L 104.23516 204.214435 
L 106.406762 205.035661 
L 107.492563 205.991177 
L 108.578364 206.422498 
L 109.664165 207.593904 
L 111.835768 208.286613 
L 115.093171 208.221682 
L 116.178972 209.210015 
L 117.264773 208.680479 
L 118.350575 209.35962 
L 119.436376 209.534377 
L 120.522177 209.476109 
L 121.607978 209.766369 
L 122.693779 209.328026 
L 123.77958 208.491779 
L 124.865382 207.229233 
L 125.951183 206.968886 
L 127.036984 205.881564 
L 128.122785 205.63048 
L 130.294387 203.992617 
L 132.46599 203.435951 
L 135.723393 203.489387 
L 136.809194 203.523849 
L 137.894995 203.327615 
L 138.980797 204.118052 
L 140.066598 204.469163 
L 141.152399 204.444126 
L 142.2382 203.648652 
L 143.324001 203.162648 
L 145.495604 203.371611 
L 147.667206 201.422316 
L 149.838808 199.999788 
L 150.924609 199.99255 
L 152.01041 200.373446 
L 153.096212 200.47344 
L 154.182013 200.939512 
L 155.267814 200.714346 
L 157.439416 201.91735 
L 158.525217 201.514422 
L 159.611019 202.109322 
L 160.69682 203.124931 
L 161.782621 203.027529 
L 162.868422 203.371546 
L 163.954223 204.177046 
L 165.040024 204.304447 
L 166.125825 204.124355 
L 167.211627 204.965503 
L 168.297428 206.013448 
L 169.383229 206.509125 
L 170.46903 207.385306 
L 172.640632 208.468102 
L 173.726434 208.58581 
L 174.812235 209.102193 
L 175.898036 210.183063 
L 176.983837 210.312864 
L 178.069638 210.665125 
L 179.155439 210.471217 
L 180.24124 208.181511 
L 181.327042 208.066948 
L 182.412843 206.459867 
L 183.498644 205.431881 
L 184.584445 203.896273 
L 186.756047 201.470644 
L 187.841849 200.646951 
L 188.92765 198.983409 
L 191.099252 194.495 
L 192.185053 193.275877 
L 193.270854 191.3939 
L 194.356656 189.846308 
L 197.614059 183.867696 
L 199.785661 180.292398 
L 203.043065 173.806743 
L 204.128866 172.235131 
L 206.300468 168.8483 
L 208.472071 165.654071 
L 209.557872 164.868369 
L 211.729474 162.488882 
L 212.815275 161.539746 
L 213.901076 159.332824 
L 214.986877 157.49825 
L 216.072679 156.208571 
L 217.15848 153.647951 
L 218.244281 152.109055 
L 220.415883 148.730108 
L 221.501684 147.541381 
L 222.587486 145.394621 
L 223.673287 142.94973 
L 224.759088 141.777112 
L 225.844889 139.998398 
L 226.93069 139.008718 
L 229.102292 135.094189 
L 230.188094 133.676843 
L 231.273895 132.831233 
L 232.359696 131.620314 
L 233.445497 130.03051 
L 234.531298 128.994783 
L 235.617099 127.408551 
L 236.702901 126.367644 
L 237.788702 124.190211 
L 238.874503 123.267217 
L 241.046105 122.044098 
L 242.131906 121.755057 
L 243.217708 122.628231 
L 244.303509 122.412042 
L 245.38931 122.748171 
L 246.475111 122.250519 
L 247.560912 122.497093 
L 248.646713 123.048858 
L 249.732514 124.299132 
L 250.818316 124.350802 
L 251.904117 125.002805 
L 252.989918 126.525888 
L 254.075719 128.818065 
L 255.16152 129.820037 
L 257.333123 132.320568 
L 258.418924 133.408875 
L 259.504725 134.324024 
L 260.590526 135.967962 
L 262.762128 136.960255 
L 263.847929 137.002105 
L 264.933731 137.220959 
L 266.019532 137.609486 
L 267.105333 138.447419 
L 268.191134 137.976189 
L 269.276935 139.063948 
L 270.362736 139.044303 
L 271.448538 139.136945 
L 272.534339 140.031697 
L 273.62014 140.149196 
L 274.705941 140.71256 
L 275.791742 142.026091 
L 276.877543 142.379606 
L 277.963344 143.553675 
L 279.049146 144.983336 
L 280.134947 146.073268 
L 281.220748 147.327285 
L 282.306549 149.239857 
L 283.39235 150.337957 
L 284.478151 152.511386 
L 285.563953 153.786545 
L 287.735555 157.632039 
L 288.821356 158.388614 
L 289.907157 160.693981 
L 290.992958 161.075455 
L 292.07876 162.291603 
L 293.164561 163.873941 
L 294.250362 165.034471 
L 295.336163 165.906039 
L 296.421964 166.514122 
L 297.507765 167.417921 
L 299.679368 169.62822 
L 300.765169 169.993149 
L 301.85097 171.873519 
L 302.936771 172.645288 
L 304.022572 173.983408 
L 305.108373 174.975934 
L 306.194175 176.357655 
L 308.365777 179.468385 
L 309.451578 180.292973 
L 310.537379 182.265772 
L 311.62318 183.507618 
L 312.708981 185.243542 
L 313.794783 186.136965 
L 314.880584 188.617239 
L 315.966385 190.018223 
L 318.137987 192.248774 
L 319.223788 193.994784 
L 320.30959 194.945387 
L 321.395391 196.504146 
L 322.481192 197.323495 
L 323.566993 198.666966 
L 324.652794 199.451191 
L 325.738595 201.596908 
L 326.824396 202.612946 
L 327.910198 203.830669 
L 330.0818 206.624891 
L 331.167601 207.011047 
L 332.253402 208.744058 
L 333.339203 209.201313 
L 334.425005 210.455399 
L 335.510806 211.247825 
L 336.596607 211.711062 
L 337.682408 213.468339 
L 338.768209 214.280869 
L 339.85401 215.233045 
L 340.939811 215.510303 
L 342.025613 216.55174 
L 343.111414 216.560772 
L 344.197215 217.577433 
L 345.283016 219.267701 
L 346.368817 218.915334 
L 347.454618 219.626011 
L 348.54042 219.849862 
L 349.626221 220.614886 
L 350.712022 221.118777 
L 351.797823 221.41861 
L 352.883624 222.645949 
L 353.969425 222.880147 
L 355.055227 224.249051 
L 357.226829 226.481848 
L 358.31263 227.62863 
L 359.398431 228.335384 
L 360.484232 229.217667 
L 361.570033 230.812453 
L 362.655835 232.726218 
L 363.741636 233.891014 
L 364.827437 235.790643 
L 365.913238 237.151129 
L 366.999039 237.69914 
L 368.08484 238.415887 
L 369.170642 238.722579 
L 370.256443 238.845224 
L 371.342244 239.190189 
L 372.428045 239.853877 
L 373.513846 240.665154 
L 374.599647 240.992842 
L 375.685448 241.833175 
L 376.77125 242.481092 
L 377.857051 243.262513 
L 378.942852 243.40533 
L 380.028653 243.873674 
L 381.114454 243.867092 
L 382.200255 244.047116 
L 383.286057 244.697086 
L 384.371858 245.14992 
L 386.54346 244.921445 
L 387.629261 245.26006 
L 389.800863 244.621842 
L 390.886665 245.200943 
L 391.972466 246.115074 
L 393.058267 246.265616 
L 395.229869 246.212883 
L 397.401472 246.918029 
L 398.487273 247.141198 
L 398.487273 247.141198 
" clip-path="url(#pa25fa9a354)" style="fill: none; stroke: #ff00ff; stroke-width: 1.5; stroke-linecap: square"/>
   </g>
   <g id="line2d_25">
    <path d="M 182.412843 307.584 
L 182.412843 41.472 
" clip-path="url(#pa25fa9a354)" style="fill: none; stroke: #000000; stroke-width: 1.5; stroke-linecap: square"/>
   </g>
   <g id="patch_3">
    <path d="M 57.6 307.584 
L 57.6 41.472 
" style="fill: none; stroke: #000000; stroke-width: 0.8; stroke-linejoin: miter; stroke-linecap: square"/>
   </g>
   <g id="patch_4">
    <path d="M 414.72 307.584 
L 414.72 41.472 
" style="fill: none; stroke: #000000; stroke-width: 0.8; stroke-linejoin: miter; stroke-linecap: square"/>
   </g>
   <g id="patch_5">
    <path d="M 57.6 307.584 
L 414.72 307.584 
" style="fill: none; stroke: #000000; stroke-width: 0.8; stroke-linejoin: miter; stroke-linecap: square"/>
   </g>
   <g id="patch_6">
    <path d="M 57.6 41.472 
L 414.72 41.472 
" style="fill: none; stroke: #000000; stroke-width: 0.8; stroke-linejoin: miter; stroke-linecap: square"/>
   </g>
   <g id="text_26">
    <!-- Group 1_p=0.745 -->
    <g transform="translate(183.158437 35.472) scale(0.12 -0.12)">
     <defs>
      <path id="DejaVuSans-47" d="M 3809 666 
L 3809 1919 
L 2778 1919 
L 2778 2438 
L 4434 2438 
L 4434 434 
Q 4069 175 3628 42 
Q 3188 -91 2688 -91 
Q 1594 -91 976 548 
Q 359 1188 359 2328 
Q 359 3472 976 4111 
Q 1594 4750 2688 4750 
Q 3144 4750 3555 4637 
Q 3966 4525 4313 4306 
L 4313 3634 
Q 3963 3931 3569 4081 
Q 3175 4231 2741 4231 
Q 1884 4231 1454 3753 
Q 1025 3275 1025 2328 
Q 1025 1384 1454 906 
Q 1884 428 2741 428 
Q 3075 428 3337 486 
Q 3600 544 3809 666 
z
" transform="scale(0.015625)"/>
      <path id="DejaVuSans-75" d="M 544 1381 
L 544 3500 
L 1119 3500 
L 1119 1403 
Q 1119 906 1312 657 
Q 1506 409 1894 409 
Q 2359 409 2629 706 
Q 2900 1003 2900 1516 
L 2900 3500 
L 3475 3500 
L 3475 0 
L 2900 0 
L 2900 538 
Q 2691 219 2414 64 
Q 2138 -91 1772 -91 
Q 1169 -91 856 284 
Q 544 659 544 1381 
z
M 1991 3584 
L 1991 3584 
z
" transform="scale(0.015625)"/>
      <path id="DejaVuSans-70" d="M 1159 525 
L 1159 -1331 
L 581 -1331 
L 581 3500 
L 1159 3500 
L 1159 2969 
Q 1341 3281 1617 3432 
Q 1894 3584 2278 3584 
Q 2916 3584 3314 3078 
Q 3713 2572 3713 1747 
Q 3713 922 3314 415 
Q 2916 -91 2278 -91 
Q 1894 -91 1617 61 
Q 1341 213 1159 525 
z
M 3116 1747 
Q 3116 2381 2855 2742 
Q 2594 3103 2138 3103 
Q 1681 3103 1420 2742 
Q 1159 2381 1159 1747 
Q 1159 1113 1420 752 
Q 1681 391 2138 391 
Q 2594 391 2855 752 
Q 3116 1113 3116 1747 
z
" transform="scale(0.015625)"/>
      <path id="DejaVuSans-5f" d="M 3263 -1063 
L 3263 -1509 
L -63 -1509 
L -63 -1063 
L 3263 -1063 
z
" transform="scale(0.015625)"/>
      <path id="DejaVuSans-3d" d="M 678 2906 
L 4684 2906 
L 4684 2381 
L 678 2381 
L 678 2906 
z
M 678 1631 
L 4684 1631 
L 4684 1100 
L 678 1100 
L 678 1631 
z
" transform="scale(0.015625)"/>
      <path id="DejaVuSans-2e" d="M 684 794 
L 1344 794 
L 1344 0 
L 684 0 
L 684 794 
z
" transform="scale(0.015625)"/>
     </defs>
     <use xlink:href="#DejaVuSans-47"/>
     <use xlink:href="#DejaVuSans-72" x="77.490234"/>
     <use xlink:href="#DejaVuSans-6f" x="116.353516"/>
     <use xlink:href="#DejaVuSans-75" x="177.535156"/>
     <use xlink:href="#DejaVuSans-70" x="240.914062"/>
     <use xlink:href="#DejaVuSans-20" x="304.390625"/>
     <use xlink:href="#DejaVuSans-31" x="336.177734"/>
     <use xlink:href="#DejaVuSans-5f" x="399.800781"/>
     <use xlink:href="#DejaVuSans-70" x="449.800781"/>
     <use xlink:href="#DejaVuSans-3d" x="513.277344"/>
     <use xlink:href="#DejaVuSans-30" x="597.066406"/>
     <use xlink:href="#DejaVuSans-2e" x="660.689453"/>
     <use xlink:href="#DejaVuSans-37" x="692.476562"/>
     <use xlink:href="#DejaVuSans-34" x="756.099609"/>
     <use xlink:href="#DejaVuSans-35" x="819.722656"/>
    </g>
   </g>
  </g>
 </g>
 <defs>
  <clipPath id="pa25fa9a354">
   <rect x="57.6" y="41.472" width="357.12" height="266.112"/>
  </clipPath>
 </defs>
</svg>
