<?xml version="1.0" encoding="utf-8" standalone="no"?>
<!DOCTYPE svg PUBLIC "-//W3C//DTD SVG 1.1//EN"
  "http://www.w3.org/Graphics/SVG/1.1/DTD/svg11.dtd">
<svg xmlns:xlink="http://www.w3.org/1999/xlink" width="460.8pt" height="345.6pt" viewBox="0 0 460.8 345.6" xmlns="http://www.w3.org/2000/svg" version="1.1">
 <metadata>
  <rdf:RDF xmlns:dc="http://purl.org/dc/elements/1.1/" xmlns:cc="http://creativecommons.org/ns#" xmlns:rdf="http://www.w3.org/1999/02/22-rdf-syntax-ns#">
   <cc:Work>
    <dc:type rdf:resource="http://purl.org/dc/dcmitype/StillImage"/>
    <dc:date>2024-11-14T18:55:12.895157</dc:date>
    <dc:format>image/svg+xml</dc:format>
    <dc:creator>
     <cc:Agent>
      <dc:title>Matplotlib v3.8.2, https://matplotlib.org/</dc:title>
     </cc:Agent>
    </dc:creator>
   </cc:Work>
  </rdf:RDF>
 </metadata>
 <defs>
  <style type="text/css">*{stroke-linejoin: round; stroke-linecap: butt}</style>
 </defs>
 <g id="figure_1">
  <g id="patch_1">
   <path d="M 0 345.6 
L 460.8 345.6 
L 460.8 0 
L 0 0 
z
" style="fill: #ffffff"/>
  </g>
  <g id="axes_1">
   <g id="patch_2">
    <path d="M 57.6 307.584 
L 414.72 307.584 
L 414.72 41.472 
L 57.6 41.472 
z
" style="fill: #ffffff"/>
   </g>
   <g id="PolyCollection_1">
    <defs>
     <path id="m72747d0134" d="M 73.832727 -75.190744 
L 73.832727 -50.112 
L 74.918528 -51.423462 
L 76.00433 -51.772317 
L 77.090131 -52.607155 
L 78.175932 -52.846579 
L 79.261733 -53.580428 
L 80.347534 -53.687753 
L 81.433335 -53.087038 
L 82.519137 -52.683372 
L 83.604938 -52.102387 
L 84.690739 -52.105478 
L 85.77654 -52.421421 
L 86.862341 -52.348293 
L 87.948142 -52.315113 
L 89.033943 -52.379745 
L 90.119745 -52.516564 
L 91.205546 -52.935547 
L 92.291347 -53.571686 
L 93.377148 -53.634596 
L 94.462949 -53.943741 
L 95.54875 -54.572217 
L 96.634552 -55.26843 
L 97.720353 -56.521252 
L 98.806154 -56.959361 
L 99.891955 -57.020603 
L 100.977756 -57.610638 
L 102.063557 -58.263027 
L 103.149358 -58.091263 
L 104.23516 -58.339633 
L 105.320961 -59.059609 
L 106.406762 -59.355301 
L 107.492563 -60.148529 
L 108.578364 -60.743941 
L 109.664165 -61.834105 
L 110.749967 -63.083309 
L 111.835768 -64.122586 
L 112.921569 -64.482488 
L 114.00737 -65.168129 
L 115.093171 -66.235039 
L 116.178972 -66.856106 
L 117.264773 -67.290674 
L 118.350575 -68.271417 
L 119.436376 -68.313658 
L 120.522177 -68.650053 
L 121.607978 -68.771753 
L 122.693779 -68.864691 
L 123.77958 -68.884759 
L 124.865382 -69.045459 
L 125.951183 -69.39826 
L 127.036984 -69.719531 
L 128.122785 -69.755911 
L 129.208586 -69.764827 
L 130.294387 -70.235618 
L 131.380189 -70.222321 
L 132.46599 -69.318543 
L 133.551791 -68.825621 
L 134.637592 -68.031993 
L 135.723393 -68.45982 
L 136.809194 -67.502262 
L 137.894995 -68.503583 
L 138.980797 -67.157082 
L 140.066598 -67.710173 
L 141.152399 -67.801428 
L 142.2382 -68.229319 
L 143.324001 -67.232005 
L 144.409802 -67.013743 
L 145.495604 -67.684049 
L 146.581405 -67.991416 
L 147.667206 -68.052497 
L 148.753007 -67.485159 
L 149.838808 -67.3255 
L 150.924609 -67.545063 
L 152.01041 -67.078643 
L 153.096212 -67.378769 
L 154.182013 -67.322321 
L 155.267814 -67.359349 
L 156.353615 -67.561081 
L 157.439416 -68.631411 
L 158.525217 -68.748333 
L 159.611019 -68.181396 
L 160.69682 -67.688042 
L 161.782621 -66.928626 
L 162.868422 -66.182932 
L 163.954223 -66.121455 
L 165.040024 -65.473929 
L 166.125825 -64.57699 
L 167.211627 -64.390934 
L 168.297428 -63.739294 
L 169.383229 -63.803209 
L 170.46903 -63.63247 
L 171.554831 -63.345801 
L 172.640632 -63.275713 
L 173.726434 -63.224088 
L 174.812235 -61.877412 
L 175.898036 -61.978643 
L 176.983837 -62.38938 
L 178.069638 -62.296474 
L 179.155439 -61.913804 
L 180.24124 -61.72261 
L 181.327042 -62.846203 
L 182.412843 -64.224003 
L 183.498644 -65.47689 
L 184.584445 -66.926766 
L 185.670246 -68.029815 
L 186.756047 -70.304561 
L 187.841849 -72.205187 
L 188.92765 -73.656256 
L 190.013451 -75.009641 
L 191.099252 -76.637152 
L 192.185053 -78.281289 
L 193.270854 -80.104004 
L 194.356656 -81.934392 
L 195.442457 -84.054938 
L 196.528258 -86.200734 
L 197.614059 -88.051812 
L 198.69986 -88.97537 
L 199.785661 -90.827036 
L 200.871462 -91.7933 
L 201.957264 -93.795305 
L 203.043065 -94.386375 
L 204.128866 -95.878962 
L 205.214667 -97.180548 
L 206.300468 -99.749099 
L 207.386269 -101.38885 
L 208.472071 -103.443276 
L 209.557872 -105.56702 
L 210.643673 -107.076464 
L 211.729474 -109.493474 
L 212.815275 -111.017714 
L 213.901076 -113.134015 
L 214.986877 -115.14458 
L 216.072679 -116.46325 
L 217.15848 -117.912725 
L 218.244281 -119.458717 
L 219.330082 -120.264073 
L 220.415883 -120.877065 
L 221.501684 -122.286076 
L 222.587486 -123.625742 
L 223.673287 -125.61324 
L 224.759088 -127.06315 
L 225.844889 -128.697888 
L 226.93069 -130.848208 
L 228.016491 -132.370719 
L 229.102292 -133.701802 
L 230.188094 -134.526351 
L 231.273895 -135.540979 
L 232.359696 -136.337611 
L 233.445497 -137.59596 
L 234.531298 -138.584042 
L 235.617099 -139.429013 
L 236.702901 -139.754277 
L 237.788702 -140.676237 
L 238.874503 -140.059526 
L 239.960304 -140.264028 
L 241.046105 -140.501398 
L 242.131906 -141.182584 
L 243.217708 -142.112795 
L 244.303509 -141.233376 
L 245.38931 -141.200581 
L 246.475111 -140.792133 
L 247.560912 -139.940409 
L 248.646713 -139.413511 
L 249.732514 -138.617414 
L 250.818316 -136.873283 
L 251.904117 -135.388704 
L 252.989918 -133.652131 
L 254.075719 -132.938148 
L 255.16152 -131.944493 
L 256.247321 -130.709562 
L 257.333123 -129.048628 
L 258.418924 -127.498497 
L 259.504725 -126.322714 
L 260.590526 -124.47168 
L 261.676327 -123.135057 
L 262.762128 -122.346795 
L 263.847929 -121.153028 
L 264.933731 -119.588465 
L 266.019532 -119.285692 
L 267.105333 -118.701707 
L 268.191134 -117.347502 
L 269.276935 -116.497428 
L 270.362736 -114.774656 
L 271.448538 -114.274205 
L 272.534339 -113.014129 
L 273.62014 -112.545813 
L 274.705941 -112.055928 
L 275.791742 -110.945061 
L 276.877543 -111.091314 
L 277.963344 -110.552406 
L 279.049146 -110.503859 
L 280.134947 -111.211825 
L 281.220748 -111.15837 
L 282.306549 -110.429669 
L 283.39235 -111.159128 
L 284.478151 -111.033322 
L 285.563953 -110.732695 
L 286.649754 -109.718692 
L 287.735555 -109.093855 
L 288.821356 -109.203877 
L 289.907157 -109.041207 
L 290.992958 -108.348754 
L 292.07876 -107.876011 
L 293.164561 -108.442265 
L 294.250362 -109.394695 
L 295.336163 -110.149405 
L 296.421964 -110.461565 
L 297.507765 -111.490044 
L 298.593566 -112.205317 
L 299.679368 -113.222056 
L 300.765169 -113.568952 
L 301.85097 -114.793433 
L 302.936771 -116.008993 
L 304.022572 -116.66025 
L 305.108373 -117.462431 
L 306.194175 -118.096655 
L 307.279976 -118.184927 
L 308.365777 -119.610975 
L 309.451578 -120.328958 
L 310.537379 -120.88287 
L 311.62318 -121.620914 
L 312.708981 -121.806713 
L 313.794783 -122.582995 
L 314.880584 -122.935642 
L 315.966385 -123.875332 
L 317.052186 -124.706605 
L 318.137987 -124.739513 
L 319.223788 -124.588761 
L 320.30959 -125.068461 
L 321.395391 -125.535641 
L 322.481192 -125.738145 
L 323.566993 -125.82804 
L 324.652794 -126.838994 
L 325.738595 -127.454762 
L 326.824396 -127.754686 
L 327.910198 -128.188689 
L 328.995999 -128.638076 
L 330.0818 -127.83426 
L 331.167601 -127.642174 
L 332.253402 -127.560374 
L 333.339203 -127.796125 
L 334.425005 -127.822285 
L 335.510806 -127.698002 
L 336.596607 -126.967768 
L 337.682408 -126.258061 
L 338.768209 -125.992327 
L 339.85401 -125.382266 
L 340.939811 -124.37687 
L 342.025613 -123.42411 
L 343.111414 -122.367266 
L 344.197215 -121.520162 
L 345.283016 -121.304153 
L 346.368817 -120.98326 
L 347.454618 -120.156145 
L 348.54042 -120.006395 
L 349.626221 -120.190963 
L 350.712022 -120.260669 
L 351.797823 -120.557473 
L 352.883624 -120.651908 
L 353.969425 -120.525961 
L 355.055227 -120.782109 
L 356.141028 -121.512337 
L 357.226829 -121.898334 
L 358.31263 -120.923588 
L 359.398431 -120.962443 
L 360.484232 -120.291583 
L 361.570033 -119.632072 
L 362.655835 -118.334283 
L 363.741636 -117.866815 
L 364.827437 -117.140425 
L 365.913238 -116.159578 
L 366.999039 -115.654053 
L 368.08484 -114.987131 
L 369.170642 -114.791885 
L 370.256443 -114.15305 
L 371.342244 -113.005799 
L 372.428045 -111.873858 
L 373.513846 -111.389249 
L 374.599647 -110.371888 
L 375.685448 -109.133712 
L 376.77125 -108.599547 
L 377.857051 -107.336254 
L 378.942852 -107.125639 
L 380.028653 -106.974587 
L 381.114454 -107.443419 
L 382.200255 -107.229555 
L 383.286057 -106.815971 
L 384.371858 -106.961026 
L 385.457659 -107.129793 
L 386.54346 -107.623377 
L 387.629261 -107.91471 
L 388.715062 -108.750721 
L 389.800863 -109.509654 
L 390.886665 -110.201666 
L 391.972466 -111.03651 
L 393.058267 -112.2978 
L 394.144068 -113.22838 
L 395.229869 -114.780481 
L 396.31567 -115.864815 
L 397.401472 -115.642984 
L 398.487273 -116.428209 
L 398.487273 -239.030206 
L 398.487273 -239.030206 
L 397.401472 -238.058101 
L 396.31567 -238.09185 
L 395.229869 -236.590213 
L 394.144068 -234.934918 
L 393.058267 -233.930339 
L 391.972466 -232.63368 
L 390.886665 -231.771813 
L 389.800863 -231.173278 
L 388.715062 -230.509195 
L 387.629261 -229.77134 
L 386.54346 -229.672595 
L 385.457659 -229.494942 
L 384.371858 -229.361185 
L 383.286057 -229.522123 
L 382.200255 -230.154489 
L 381.114454 -230.781112 
L 380.028653 -230.581058 
L 378.942852 -231.152544 
L 377.857051 -231.910071 
L 376.77125 -233.463367 
L 375.685448 -234.44214 
L 374.599647 -236.250384 
L 373.513846 -238.039547 
L 372.428045 -239.177916 
L 371.342244 -240.859504 
L 370.256443 -242.65865 
L 369.170642 -244.034017 
L 368.08484 -244.914066 
L 366.999039 -246.223883 
L 365.913238 -247.539885 
L 364.827437 -249.267736 
L 363.741636 -250.783066 
L 362.655835 -252.122812 
L 361.570033 -254.198034 
L 360.484232 -255.803048 
L 359.398431 -257.101771 
L 358.31263 -257.699706 
L 357.226829 -259.499853 
L 356.141028 -259.81598 
L 355.055227 -260.007963 
L 353.969425 -260.728662 
L 352.883624 -261.675675 
L 351.797823 -262.71657 
L 350.712022 -263.723268 
L 349.626221 -264.826586 
L 348.54042 -266.090939 
L 347.454618 -267.62469 
L 346.368817 -269.835557 
L 345.283016 -271.528572 
L 344.197215 -273.138742 
L 343.111414 -275.464584 
L 342.025613 -278.042957 
L 340.939811 -280.360974 
L 339.85401 -282.45341 
L 338.768209 -283.798463 
L 337.682408 -285.198177 
L 336.596607 -287.181759 
L 335.510806 -288.650039 
L 334.425005 -289.593266 
L 333.339203 -290.092801 
L 332.253402 -290.387503 
L 331.167601 -290.919863 
L 330.0818 -291.299572 
L 328.995999 -292.032 
L 327.910198 -291.752486 
L 326.824396 -291.556057 
L 325.738595 -291.249538 
L 324.652794 -290.342063 
L 323.566993 -289.061213 
L 322.481192 -288.541263 
L 321.395391 -287.983272 
L 320.30959 -287.435972 
L 319.223788 -286.567656 
L 318.137987 -286.566637 
L 317.052186 -286.08063 
L 315.966385 -285.207077 
L 314.880584 -283.707801 
L 313.794783 -283.160795 
L 312.708981 -281.913146 
L 311.62318 -280.964134 
L 310.537379 -279.510298 
L 309.451578 -277.928474 
L 308.365777 -276.378379 
L 307.279976 -274.217055 
L 306.194175 -273.326426 
L 305.108373 -272.030982 
L 304.022572 -270.53149 
L 302.936771 -269.433131 
L 301.85097 -267.938277 
L 300.765169 -266.473547 
L 299.679368 -265.905519 
L 298.593566 -264.484478 
L 297.507765 -263.395259 
L 296.421964 -261.718144 
L 295.336163 -261.040494 
L 294.250362 -260.072727 
L 293.164561 -258.589565 
L 292.07876 -257.668749 
L 290.992958 -257.569275 
L 289.907157 -257.687089 
L 288.821356 -257.248848 
L 287.735555 -256.603624 
L 286.649754 -256.444599 
L 285.563953 -256.610939 
L 284.478151 -255.998887 
L 283.39235 -254.761247 
L 282.306549 -252.897986 
L 281.220748 -252.08906 
L 280.134947 -250.395891 
L 279.049146 -248.116784 
L 277.963344 -246.477533 
L 276.877543 -245.252028 
L 275.791742 -243.648239 
L 274.705941 -243.61375 
L 273.62014 -242.660802 
L 272.534339 -241.758955 
L 271.448538 -241.717845 
L 270.362736 -240.838888 
L 269.276935 -241.246079 
L 268.191134 -240.706049 
L 267.105333 -240.665034 
L 266.019532 -239.963183 
L 264.933731 -238.797835 
L 263.847929 -238.94488 
L 262.762128 -238.912884 
L 261.676327 -238.470463 
L 260.590526 -238.870006 
L 259.504725 -239.706774 
L 258.418924 -239.926666 
L 257.333123 -240.376851 
L 256.247321 -240.565065 
L 255.16152 -240.777742 
L 254.075719 -240.382626 
L 252.989918 -240.285854 
L 251.904117 -240.491569 
L 250.818316 -240.731707 
L 249.732514 -240.991143 
L 248.646713 -240.487221 
L 247.560912 -239.702454 
L 246.475111 -239.583904 
L 245.38931 -238.788324 
L 244.303509 -237.501704 
L 243.217708 -236.986103 
L 242.131906 -234.402146 
L 241.046105 -232.091548 
L 239.960304 -230.280595 
L 238.874503 -228.60833 
L 237.788702 -227.477763 
L 236.702901 -224.973798 
L 235.617099 -223.030499 
L 234.531298 -220.600217 
L 233.445497 -217.915298 
L 232.359696 -215.12746 
L 231.273895 -212.792747 
L 230.188094 -210.288961 
L 229.102292 -207.796407 
L 228.016491 -205.083405 
L 226.93069 -202.161626 
L 225.844889 -198.501309 
L 224.759088 -195.597349 
L 223.673287 -192.958822 
L 222.587486 -189.955025 
L 221.501684 -187.379049 
L 220.415883 -184.951782 
L 219.330082 -183.784111 
L 218.244281 -182.095522 
L 217.15848 -179.275099 
L 216.072679 -177.166584 
L 214.986877 -175.02992 
L 213.901076 -172.092115 
L 212.815275 -169.266946 
L 211.729474 -166.833636 
L 210.643673 -163.452153 
L 209.557872 -161.076347 
L 208.472071 -158.15896 
L 207.386269 -155.204695 
L 206.300468 -152.560069 
L 205.214667 -148.934786 
L 204.128866 -146.542839 
L 203.043065 -143.785347 
L 201.957264 -142.211529 
L 200.871462 -139.037825 
L 199.785661 -136.77981 
L 198.69986 -133.680944 
L 197.614059 -131.392514 
L 196.528258 -128.119891 
L 195.442457 -124.734753 
L 194.356656 -121.298701 
L 193.270854 -118.278209 
L 192.185053 -115.383272 
L 191.099252 -112.328127 
L 190.013451 -109.67954 
L 188.92765 -107.163129 
L 187.841849 -105.079178 
L 186.756047 -102.223456 
L 185.670246 -99.073744 
L 184.584445 -96.915189 
L 183.498644 -94.431893 
L 182.412843 -91.955712 
L 181.327042 -88.894723 
L 180.24124 -86.724752 
L 179.155439 -86.199412 
L 178.069638 -85.604142 
L 176.983837 -84.801368 
L 175.898036 -83.563122 
L 174.812235 -82.614911 
L 173.726434 -83.098961 
L 172.640632 -82.267848 
L 171.554831 -81.704378 
L 170.46903 -81.224318 
L 169.383229 -81.001089 
L 168.297428 -80.521524 
L 167.211627 -80.406971 
L 166.125825 -80.256224 
L 165.040024 -80.625028 
L 163.954223 -80.947297 
L 162.868422 -80.534066 
L 161.782621 -80.873715 
L 160.69682 -81.241039 
L 159.611019 -81.312119 
L 158.525217 -81.621008 
L 157.439416 -81.188128 
L 156.353615 -79.815124 
L 155.267814 -79.720467 
L 154.182013 -79.865852 
L 153.096212 -79.973544 
L 152.01041 -79.872703 
L 150.924609 -80.357441 
L 149.838808 -80.2451 
L 148.753007 -80.245089 
L 147.667206 -80.824489 
L 146.581405 -80.659482 
L 145.495604 -80.334797 
L 144.409802 -79.841577 
L 143.324001 -79.933369 
L 142.2382 -80.632271 
L 141.152399 -79.831333 
L 140.066598 -79.87256 
L 138.980797 -79.220241 
L 137.894995 -80.606032 
L 136.809194 -79.595731 
L 135.723393 -80.405248 
L 134.637592 -79.948648 
L 133.551791 -80.754437 
L 132.46599 -81.056135 
L 131.380189 -81.68703 
L 130.294387 -81.753104 
L 129.208586 -81.282913 
L 128.122785 -81.181665 
L 127.036984 -81.018263 
L 125.951183 -80.830509 
L 124.865382 -80.513897 
L 123.77958 -80.15905 
L 122.693779 -80.228436 
L 121.607978 -79.819969 
L 120.522177 -79.35595 
L 119.436376 -78.87362 
L 118.350575 -78.662738 
L 117.264773 -77.551699 
L 116.178972 -76.973861 
L 115.093171 -76.280263 
L 114.00737 -75.315871 
L 112.921569 -74.710743 
L 111.835768 -74.352739 
L 110.749967 -73.332743 
L 109.664165 -72.194301 
L 108.578364 -71.220823 
L 107.492563 -70.788272 
L 106.406762 -70.0253 
L 105.320961 -70.039288 
L 104.23516 -69.6686 
L 103.149358 -69.691588 
L 102.063557 -70.158736 
L 100.977756 -69.932411 
L 99.891955 -69.89419 
L 98.806154 -70.330188 
L 97.720353 -70.044211 
L 96.634552 -69.235655 
L 95.54875 -69.062376 
L 94.462949 -68.836297 
L 93.377148 -68.919785 
L 92.291347 -69.182153 
L 91.205546 -69.097348 
L 90.119745 -69.15001 
L 89.033943 -69.500013 
L 87.948142 -70.182474 
L 86.862341 -70.54846 
L 85.77654 -71.02582 
L 84.690739 -71.183246 
L 83.604938 -71.642955 
L 82.519137 -72.844968 
L 81.433335 -73.656442 
L 80.347534 -74.942372 
L 79.261733 -75.476057 
L 78.175932 -75.267007 
L 77.090131 -75.655617 
L 76.00433 -75.68267 
L 74.918528 -75.989957 
L 73.832727 -75.190744 
z
" style="stroke: #ff00ff; stroke-opacity: 0.1"/>
    </defs>
    <g clip-path="url(#p7d0089209f)">
     <use xlink:href="#m72747d0134" x="0" y="345.6" style="fill: #ff00ff; fill-opacity: 0.1; stroke: #ff00ff; stroke-opacity: 0.1"/>
    </g>
   </g>
   <g id="matplotlib.axis_1">
    <g id="xtick_1">
     <g id="line2d_1">
      <defs>
       <path id="mc976b0ea5a" d="M 0 0 
L 0 3.5 
" style="stroke: #000000; stroke-width: 0.8"/>
      </defs>
      <g>
       <use xlink:href="#mc976b0ea5a" x="73.832727" y="307.584" style="stroke: #000000; stroke-width: 0.8"/>
      </g>
     </g>
     <g id="text_1">
      <!-- −5 -->
      <g transform="translate(66.461634 322.182437) scale(0.1 -0.1)">
       <defs>
        <path id="DejaVuSans-2212" d="M 678 2272 
L 4684 2272 
L 4684 1741 
L 678 1741 
L 678 2272 
z
" transform="scale(0.015625)"/>
        <path id="DejaVuSans-35" d="M 691 4666 
L 3169 4666 
L 3169 4134 
L 1269 4134 
L 1269 2991 
Q 1406 3038 1543 3061 
Q 1681 3084 1819 3084 
Q 2600 3084 3056 2656 
Q 3513 2228 3513 1497 
Q 3513 744 3044 326 
Q 2575 -91 1722 -91 
Q 1428 -91 1123 -41 
Q 819 9 494 109 
L 494 744 
Q 775 591 1075 516 
Q 1375 441 1709 441 
Q 2250 441 2565 725 
Q 2881 1009 2881 1497 
Q 2881 1984 2565 2268 
Q 2250 2553 1709 2553 
Q 1456 2553 1204 2497 
Q 953 2441 691 2322 
L 691 4666 
z
" transform="scale(0.015625)"/>
       </defs>
       <use xlink:href="#DejaVuSans-2212"/>
       <use xlink:href="#DejaVuSans-35" x="83.789062"/>
      </g>
     </g>
    </g>
    <g id="xtick_2">
     <g id="line2d_2">
      <g>
       <use xlink:href="#mc976b0ea5a" x="95.54875" y="307.584" style="stroke: #000000; stroke-width: 0.8"/>
      </g>
     </g>
     <g id="text_2">
      <!-- −4 -->
      <g transform="translate(88.177657 322.182437) scale(0.1 -0.1)">
       <defs>
        <path id="DejaVuSans-34" d="M 2419 4116 
L 825 1625 
L 2419 1625 
L 2419 4116 
z
M 2253 4666 
L 3047 4666 
L 3047 1625 
L 3713 1625 
L 3713 1100 
L 3047 1100 
L 3047 0 
L 2419 0 
L 2419 1100 
L 313 1100 
L 313 1709 
L 2253 4666 
z
" transform="scale(0.015625)"/>
       </defs>
       <use xlink:href="#DejaVuSans-2212"/>
       <use xlink:href="#DejaVuSans-34" x="83.789062"/>
      </g>
     </g>
    </g>
    <g id="xtick_3">
     <g id="line2d_3">
      <g>
       <use xlink:href="#mc976b0ea5a" x="117.264773" y="307.584" style="stroke: #000000; stroke-width: 0.8"/>
      </g>
     </g>
     <g id="text_3">
      <!-- −3 -->
      <g transform="translate(109.89368 322.182437) scale(0.1 -0.1)">
       <defs>
        <path id="DejaVuSans-33" d="M 2597 2516 
Q 3050 2419 3304 2112 
Q 3559 1806 3559 1356 
Q 3559 666 3084 287 
Q 2609 -91 1734 -91 
Q 1441 -91 1130 -33 
Q 819 25 488 141 
L 488 750 
Q 750 597 1062 519 
Q 1375 441 1716 441 
Q 2309 441 2620 675 
Q 2931 909 2931 1356 
Q 2931 1769 2642 2001 
Q 2353 2234 1838 2234 
L 1294 2234 
L 1294 2753 
L 1863 2753 
Q 2328 2753 2575 2939 
Q 2822 3125 2822 3475 
Q 2822 3834 2567 4026 
Q 2313 4219 1838 4219 
Q 1578 4219 1281 4162 
Q 984 4106 628 3988 
L 628 4550 
Q 988 4650 1302 4700 
Q 1616 4750 1894 4750 
Q 2613 4750 3031 4423 
Q 3450 4097 3450 3541 
Q 3450 3153 3228 2886 
Q 3006 2619 2597 2516 
z
" transform="scale(0.015625)"/>
       </defs>
       <use xlink:href="#DejaVuSans-2212"/>
       <use xlink:href="#DejaVuSans-33" x="83.789062"/>
      </g>
     </g>
    </g>
    <g id="xtick_4">
     <g id="line2d_4">
      <g>
       <use xlink:href="#mc976b0ea5a" x="138.980797" y="307.584" style="stroke: #000000; stroke-width: 0.8"/>
      </g>
     </g>
     <g id="text_4">
      <!-- −2 -->
      <g transform="translate(131.609703 322.182437) scale(0.1 -0.1)">
       <defs>
        <path id="DejaVuSans-32" d="M 1228 531 
L 3431 531 
L 3431 0 
L 469 0 
L 469 531 
Q 828 903 1448 1529 
Q 2069 2156 2228 2338 
Q 2531 2678 2651 2914 
Q 2772 3150 2772 3378 
Q 2772 3750 2511 3984 
Q 2250 4219 1831 4219 
Q 1534 4219 1204 4116 
Q 875 4013 500 3803 
L 500 4441 
Q 881 4594 1212 4672 
Q 1544 4750 1819 4750 
Q 2544 4750 2975 4387 
Q 3406 4025 3406 3419 
Q 3406 3131 3298 2873 
Q 3191 2616 2906 2266 
Q 2828 2175 2409 1742 
Q 1991 1309 1228 531 
z
" transform="scale(0.015625)"/>
       </defs>
       <use xlink:href="#DejaVuSans-2212"/>
       <use xlink:href="#DejaVuSans-32" x="83.789062"/>
      </g>
     </g>
    </g>
    <g id="xtick_5">
     <g id="line2d_5">
      <g>
       <use xlink:href="#mc976b0ea5a" x="160.69682" y="307.584" style="stroke: #000000; stroke-width: 0.8"/>
      </g>
     </g>
     <g id="text_5">
      <!-- −1 -->
      <g transform="translate(153.325726 322.182437) scale(0.1 -0.1)">
       <defs>
        <path id="DejaVuSans-31" d="M 794 531 
L 1825 531 
L 1825 4091 
L 703 3866 
L 703 4441 
L 1819 4666 
L 2450 4666 
L 2450 531 
L 3481 531 
L 3481 0 
L 794 0 
L 794 531 
z
" transform="scale(0.015625)"/>
       </defs>
       <use xlink:href="#DejaVuSans-2212"/>
       <use xlink:href="#DejaVuSans-31" x="83.789062"/>
      </g>
     </g>
    </g>
    <g id="xtick_6">
     <g id="line2d_6">
      <g>
       <use xlink:href="#mc976b0ea5a" x="182.412843" y="307.584" style="stroke: #000000; stroke-width: 0.8"/>
      </g>
     </g>
     <g id="text_6">
      <!-- 0 -->
      <g transform="translate(179.231593 322.182437) scale(0.1 -0.1)">
       <defs>
        <path id="DejaVuSans-30" d="M 2034 4250 
Q 1547 4250 1301 3770 
Q 1056 3291 1056 2328 
Q 1056 1369 1301 889 
Q 1547 409 2034 409 
Q 2525 409 2770 889 
Q 3016 1369 3016 2328 
Q 3016 3291 2770 3770 
Q 2525 4250 2034 4250 
z
M 2034 4750 
Q 2819 4750 3233 4129 
Q 3647 3509 3647 2328 
Q 3647 1150 3233 529 
Q 2819 -91 2034 -91 
Q 1250 -91 836 529 
Q 422 1150 422 2328 
Q 422 3509 836 4129 
Q 1250 4750 2034 4750 
z
" transform="scale(0.015625)"/>
       </defs>
       <use xlink:href="#DejaVuSans-30"/>
      </g>
     </g>
    </g>
    <g id="xtick_7">
     <g id="line2d_7">
      <g>
       <use xlink:href="#mc976b0ea5a" x="204.128866" y="307.584" style="stroke: #000000; stroke-width: 0.8"/>
      </g>
     </g>
     <g id="text_7">
      <!-- 1 -->
      <g transform="translate(200.947616 322.182437) scale(0.1 -0.1)">
       <use xlink:href="#DejaVuSans-31"/>
      </g>
     </g>
    </g>
    <g id="xtick_8">
     <g id="line2d_8">
      <g>
       <use xlink:href="#mc976b0ea5a" x="225.844889" y="307.584" style="stroke: #000000; stroke-width: 0.8"/>
      </g>
     </g>
     <g id="text_8">
      <!-- 2 -->
      <g transform="translate(222.663639 322.182437) scale(0.1 -0.1)">
       <use xlink:href="#DejaVuSans-32"/>
      </g>
     </g>
    </g>
    <g id="xtick_9">
     <g id="line2d_9">
      <g>
       <use xlink:href="#mc976b0ea5a" x="247.560912" y="307.584" style="stroke: #000000; stroke-width: 0.8"/>
      </g>
     </g>
     <g id="text_9">
      <!-- 3 -->
      <g transform="translate(244.379662 322.182437) scale(0.1 -0.1)">
       <use xlink:href="#DejaVuSans-33"/>
      </g>
     </g>
    </g>
    <g id="xtick_10">
     <g id="line2d_10">
      <g>
       <use xlink:href="#mc976b0ea5a" x="269.276935" y="307.584" style="stroke: #000000; stroke-width: 0.8"/>
      </g>
     </g>
     <g id="text_10">
      <!-- 4 -->
      <g transform="translate(266.095685 322.182437) scale(0.1 -0.1)">
       <use xlink:href="#DejaVuSans-34"/>
      </g>
     </g>
    </g>
    <g id="xtick_11">
     <g id="line2d_11">
      <g>
       <use xlink:href="#mc976b0ea5a" x="290.992958" y="307.584" style="stroke: #000000; stroke-width: 0.8"/>
      </g>
     </g>
     <g id="text_11">
      <!-- 5 -->
      <g transform="translate(287.811708 322.182437) scale(0.1 -0.1)">
       <use xlink:href="#DejaVuSans-35"/>
      </g>
     </g>
    </g>
    <g id="xtick_12">
     <g id="line2d_12">
      <g>
       <use xlink:href="#mc976b0ea5a" x="312.708981" y="307.584" style="stroke: #000000; stroke-width: 0.8"/>
      </g>
     </g>
     <g id="text_12">
      <!-- 6 -->
      <g transform="translate(309.527731 322.182437) scale(0.1 -0.1)">
       <defs>
        <path id="DejaVuSans-36" d="M 2113 2584 
Q 1688 2584 1439 2293 
Q 1191 2003 1191 1497 
Q 1191 994 1439 701 
Q 1688 409 2113 409 
Q 2538 409 2786 701 
Q 3034 994 3034 1497 
Q 3034 2003 2786 2293 
Q 2538 2584 2113 2584 
z
M 3366 4563 
L 3366 3988 
Q 3128 4100 2886 4159 
Q 2644 4219 2406 4219 
Q 1781 4219 1451 3797 
Q 1122 3375 1075 2522 
Q 1259 2794 1537 2939 
Q 1816 3084 2150 3084 
Q 2853 3084 3261 2657 
Q 3669 2231 3669 1497 
Q 3669 778 3244 343 
Q 2819 -91 2113 -91 
Q 1303 -91 875 529 
Q 447 1150 447 2328 
Q 447 3434 972 4092 
Q 1497 4750 2381 4750 
Q 2619 4750 2861 4703 
Q 3103 4656 3366 4563 
z
" transform="scale(0.015625)"/>
       </defs>
       <use xlink:href="#DejaVuSans-36"/>
      </g>
     </g>
    </g>
    <g id="xtick_13">
     <g id="line2d_13">
      <g>
       <use xlink:href="#mc976b0ea5a" x="334.425005" y="307.584" style="stroke: #000000; stroke-width: 0.8"/>
      </g>
     </g>
     <g id="text_13">
      <!-- 7 -->
      <g transform="translate(331.243755 322.182437) scale(0.1 -0.1)">
       <defs>
        <path id="DejaVuSans-37" d="M 525 4666 
L 3525 4666 
L 3525 4397 
L 1831 0 
L 1172 0 
L 2766 4134 
L 525 4134 
L 525 4666 
z
" transform="scale(0.015625)"/>
       </defs>
       <use xlink:href="#DejaVuSans-37"/>
      </g>
     </g>
    </g>
    <g id="xtick_14">
     <g id="line2d_14">
      <g>
       <use xlink:href="#mc976b0ea5a" x="356.141028" y="307.584" style="stroke: #000000; stroke-width: 0.8"/>
      </g>
     </g>
     <g id="text_14">
      <!-- 8 -->
      <g transform="translate(352.959778 322.182437) scale(0.1 -0.1)">
       <defs>
        <path id="DejaVuSans-38" d="M 2034 2216 
Q 1584 2216 1326 1975 
Q 1069 1734 1069 1313 
Q 1069 891 1326 650 
Q 1584 409 2034 409 
Q 2484 409 2743 651 
Q 3003 894 3003 1313 
Q 3003 1734 2745 1975 
Q 2488 2216 2034 2216 
z
M 1403 2484 
Q 997 2584 770 2862 
Q 544 3141 544 3541 
Q 544 4100 942 4425 
Q 1341 4750 2034 4750 
Q 2731 4750 3128 4425 
Q 3525 4100 3525 3541 
Q 3525 3141 3298 2862 
Q 3072 2584 2669 2484 
Q 3125 2378 3379 2068 
Q 3634 1759 3634 1313 
Q 3634 634 3220 271 
Q 2806 -91 2034 -91 
Q 1263 -91 848 271 
Q 434 634 434 1313 
Q 434 1759 690 2068 
Q 947 2378 1403 2484 
z
M 1172 3481 
Q 1172 3119 1398 2916 
Q 1625 2713 2034 2713 
Q 2441 2713 2670 2916 
Q 2900 3119 2900 3481 
Q 2900 3844 2670 4047 
Q 2441 4250 2034 4250 
Q 1625 4250 1398 4047 
Q 1172 3844 1172 3481 
z
" transform="scale(0.015625)"/>
       </defs>
       <use xlink:href="#DejaVuSans-38"/>
      </g>
     </g>
    </g>
    <g id="xtick_15">
     <g id="line2d_15">
      <g>
       <use xlink:href="#mc976b0ea5a" x="377.857051" y="307.584" style="stroke: #000000; stroke-width: 0.8"/>
      </g>
     </g>
     <g id="text_15">
      <!-- 9 -->
      <g transform="translate(374.675801 322.182437) scale(0.1 -0.1)">
       <defs>
        <path id="DejaVuSans-39" d="M 703 97 
L 703 672 
Q 941 559 1184 500 
Q 1428 441 1663 441 
Q 2288 441 2617 861 
Q 2947 1281 2994 2138 
Q 2813 1869 2534 1725 
Q 2256 1581 1919 1581 
Q 1219 1581 811 2004 
Q 403 2428 403 3163 
Q 403 3881 828 4315 
Q 1253 4750 1959 4750 
Q 2769 4750 3195 4129 
Q 3622 3509 3622 2328 
Q 3622 1225 3098 567 
Q 2575 -91 1691 -91 
Q 1453 -91 1209 -44 
Q 966 3 703 97 
z
M 1959 2075 
Q 2384 2075 2632 2365 
Q 2881 2656 2881 3163 
Q 2881 3666 2632 3958 
Q 2384 4250 1959 4250 
Q 1534 4250 1286 3958 
Q 1038 3666 1038 3163 
Q 1038 2656 1286 2365 
Q 1534 2075 1959 2075 
z
" transform="scale(0.015625)"/>
       </defs>
       <use xlink:href="#DejaVuSans-39"/>
      </g>
     </g>
    </g>
    <g id="xtick_16">
     <g id="line2d_16">
      <g>
       <use xlink:href="#mc976b0ea5a" x="399.573074" y="307.584" style="stroke: #000000; stroke-width: 0.8"/>
      </g>
     </g>
     <g id="text_16">
      <!-- 10 -->
      <g transform="translate(393.210574 322.182437) scale(0.1 -0.1)">
       <use xlink:href="#DejaVuSans-31"/>
       <use xlink:href="#DejaVuSans-30" x="63.623047"/>
      </g>
     </g>
    </g>
    <g id="text_17">
     <!-- Time (s) -->
     <g transform="translate(215.831094 335.860562) scale(0.1 -0.1)">
      <defs>
       <path id="DejaVuSans-54" d="M -19 4666 
L 3928 4666 
L 3928 4134 
L 2272 4134 
L 2272 0 
L 1638 0 
L 1638 4134 
L -19 4134 
L -19 4666 
z
" transform="scale(0.015625)"/>
       <path id="DejaVuSans-69" d="M 603 3500 
L 1178 3500 
L 1178 0 
L 603 0 
L 603 3500 
z
M 603 4863 
L 1178 4863 
L 1178 4134 
L 603 4134 
L 603 4863 
z
" transform="scale(0.015625)"/>
       <path id="DejaVuSans-6d" d="M 3328 2828 
Q 3544 3216 3844 3400 
Q 4144 3584 4550 3584 
Q 5097 3584 5394 3201 
Q 5691 2819 5691 2113 
L 5691 0 
L 5113 0 
L 5113 2094 
Q 5113 2597 4934 2840 
Q 4756 3084 4391 3084 
Q 3944 3084 3684 2787 
Q 3425 2491 3425 1978 
L 3425 0 
L 2847 0 
L 2847 2094 
Q 2847 2600 2669 2842 
Q 2491 3084 2119 3084 
Q 1678 3084 1418 2786 
Q 1159 2488 1159 1978 
L 1159 0 
L 581 0 
L 581 3500 
L 1159 3500 
L 1159 2956 
Q 1356 3278 1631 3431 
Q 1906 3584 2284 3584 
Q 2666 3584 2933 3390 
Q 3200 3197 3328 2828 
z
" transform="scale(0.015625)"/>
       <path id="DejaVuSans-65" d="M 3597 1894 
L 3597 1613 
L 953 1613 
Q 991 1019 1311 708 
Q 1631 397 2203 397 
Q 2534 397 2845 478 
Q 3156 559 3463 722 
L 3463 178 
Q 3153 47 2828 -22 
Q 2503 -91 2169 -91 
Q 1331 -91 842 396 
Q 353 884 353 1716 
Q 353 2575 817 3079 
Q 1281 3584 2069 3584 
Q 2775 3584 3186 3129 
Q 3597 2675 3597 1894 
z
M 3022 2063 
Q 3016 2534 2758 2815 
Q 2500 3097 2075 3097 
Q 1594 3097 1305 2825 
Q 1016 2553 972 2059 
L 3022 2063 
z
" transform="scale(0.015625)"/>
       <path id="DejaVuSans-20" transform="scale(0.015625)"/>
       <path id="DejaVuSans-28" d="M 1984 4856 
Q 1566 4138 1362 3434 
Q 1159 2731 1159 2009 
Q 1159 1288 1364 580 
Q 1569 -128 1984 -844 
L 1484 -844 
Q 1016 -109 783 600 
Q 550 1309 550 2009 
Q 550 2706 781 3412 
Q 1013 4119 1484 4856 
L 1984 4856 
z
" transform="scale(0.015625)"/>
       <path id="DejaVuSans-73" d="M 2834 3397 
L 2834 2853 
Q 2591 2978 2328 3040 
Q 2066 3103 1784 3103 
Q 1356 3103 1142 2972 
Q 928 2841 928 2578 
Q 928 2378 1081 2264 
Q 1234 2150 1697 2047 
L 1894 2003 
Q 2506 1872 2764 1633 
Q 3022 1394 3022 966 
Q 3022 478 2636 193 
Q 2250 -91 1575 -91 
Q 1294 -91 989 -36 
Q 684 19 347 128 
L 347 722 
Q 666 556 975 473 
Q 1284 391 1588 391 
Q 1994 391 2212 530 
Q 2431 669 2431 922 
Q 2431 1156 2273 1281 
Q 2116 1406 1581 1522 
L 1381 1569 
Q 847 1681 609 1914 
Q 372 2147 372 2553 
Q 372 3047 722 3315 
Q 1072 3584 1716 3584 
Q 2034 3584 2315 3537 
Q 2597 3491 2834 3397 
z
" transform="scale(0.015625)"/>
       <path id="DejaVuSans-29" d="M 513 4856 
L 1013 4856 
Q 1481 4119 1714 3412 
Q 1947 2706 1947 2009 
Q 1947 1309 1714 600 
Q 1481 -109 1013 -844 
L 513 -844 
Q 928 -128 1133 580 
Q 1338 1288 1338 2009 
Q 1338 2731 1133 3434 
Q 928 4138 513 4856 
z
" transform="scale(0.015625)"/>
      </defs>
      <use xlink:href="#DejaVuSans-54"/>
      <use xlink:href="#DejaVuSans-69" x="57.958984"/>
      <use xlink:href="#DejaVuSans-6d" x="85.742188"/>
      <use xlink:href="#DejaVuSans-65" x="183.154297"/>
      <use xlink:href="#DejaVuSans-20" x="244.677734"/>
      <use xlink:href="#DejaVuSans-28" x="276.464844"/>
      <use xlink:href="#DejaVuSans-73" x="315.478516"/>
      <use xlink:href="#DejaVuSans-29" x="367.578125"/>
     </g>
    </g>
   </g>
   <g id="matplotlib.axis_2">
    <g id="ytick_1">
     <g id="line2d_17">
      <defs>
       <path id="m1942db6809" d="M 0 0 
L -3.5 0 
" style="stroke: #000000; stroke-width: 0.8"/>
      </defs>
      <g>
       <use xlink:href="#m1942db6809" x="57.6" y="275.572395" style="stroke: #000000; stroke-width: 0.8"/>
      </g>
     </g>
     <g id="text_18">
      <!-- 0 -->
      <g transform="translate(44.2375 279.371614) scale(0.1 -0.1)">
       <use xlink:href="#DejaVuSans-30"/>
      </g>
     </g>
    </g>
    <g id="ytick_2">
     <g id="line2d_18">
      <g>
       <use xlink:href="#m1942db6809" x="57.6" y="222.034735" style="stroke: #000000; stroke-width: 0.8"/>
      </g>
     </g>
     <g id="text_19">
      <!-- 1 -->
      <g transform="translate(44.2375 225.833954) scale(0.1 -0.1)">
       <use xlink:href="#DejaVuSans-31"/>
      </g>
     </g>
    </g>
    <g id="ytick_3">
     <g id="line2d_19">
      <g>
       <use xlink:href="#m1942db6809" x="57.6" y="168.497076" style="stroke: #000000; stroke-width: 0.8"/>
      </g>
     </g>
     <g id="text_20">
      <!-- 2 -->
      <g transform="translate(44.2375 172.296294) scale(0.1 -0.1)">
       <use xlink:href="#DejaVuSans-32"/>
      </g>
     </g>
    </g>
    <g id="ytick_4">
     <g id="line2d_20">
      <g>
       <use xlink:href="#m1942db6809" x="57.6" y="114.959416" style="stroke: #000000; stroke-width: 0.8"/>
      </g>
     </g>
     <g id="text_21">
      <!-- 3 -->
      <g transform="translate(44.2375 118.758634) scale(0.1 -0.1)">
       <use xlink:href="#DejaVuSans-33"/>
      </g>
     </g>
    </g>
    <g id="ytick_5">
     <g id="line2d_21">
      <g>
       <use xlink:href="#m1942db6809" x="57.6" y="61.421756" style="stroke: #000000; stroke-width: 0.8"/>
      </g>
     </g>
     <g id="text_22">
      <!-- 4 -->
      <g transform="translate(44.2375 65.220975) scale(0.1 -0.1)">
       <use xlink:href="#DejaVuSans-34"/>
      </g>
     </g>
    </g>
    <g id="text_23">
     <!-- Z-Score -->
     <g transform="translate(38.157812 193.67175) rotate(-90) scale(0.1 -0.1)">
      <defs>
       <path id="DejaVuSans-5a" d="M 359 4666 
L 4025 4666 
L 4025 4184 
L 1075 531 
L 4097 531 
L 4097 0 
L 288 0 
L 288 481 
L 3238 4134 
L 359 4134 
L 359 4666 
z
" transform="scale(0.015625)"/>
       <path id="DejaVuSans-2d" d="M 313 2009 
L 1997 2009 
L 1997 1497 
L 313 1497 
L 313 2009 
z
" transform="scale(0.015625)"/>
       <path id="DejaVuSans-53" d="M 3425 4513 
L 3425 3897 
Q 3066 4069 2747 4153 
Q 2428 4238 2131 4238 
Q 1616 4238 1336 4038 
Q 1056 3838 1056 3469 
Q 1056 3159 1242 3001 
Q 1428 2844 1947 2747 
L 2328 2669 
Q 3034 2534 3370 2195 
Q 3706 1856 3706 1288 
Q 3706 609 3251 259 
Q 2797 -91 1919 -91 
Q 1588 -91 1214 -16 
Q 841 59 441 206 
L 441 856 
Q 825 641 1194 531 
Q 1563 422 1919 422 
Q 2459 422 2753 634 
Q 3047 847 3047 1241 
Q 3047 1584 2836 1778 
Q 2625 1972 2144 2069 
L 1759 2144 
Q 1053 2284 737 2584 
Q 422 2884 422 3419 
Q 422 4038 858 4394 
Q 1294 4750 2059 4750 
Q 2388 4750 2728 4690 
Q 3069 4631 3425 4513 
z
" transform="scale(0.015625)"/>
       <path id="DejaVuSans-63" d="M 3122 3366 
L 3122 2828 
Q 2878 2963 2633 3030 
Q 2388 3097 2138 3097 
Q 1578 3097 1268 2742 
Q 959 2388 959 1747 
Q 959 1106 1268 751 
Q 1578 397 2138 397 
Q 2388 397 2633 464 
Q 2878 531 3122 666 
L 3122 134 
Q 2881 22 2623 -34 
Q 2366 -91 2075 -91 
Q 1284 -91 818 406 
Q 353 903 353 1747 
Q 353 2603 823 3093 
Q 1294 3584 2113 3584 
Q 2378 3584 2631 3529 
Q 2884 3475 3122 3366 
z
" transform="scale(0.015625)"/>
       <path id="DejaVuSans-6f" d="M 1959 3097 
Q 1497 3097 1228 2736 
Q 959 2375 959 1747 
Q 959 1119 1226 758 
Q 1494 397 1959 397 
Q 2419 397 2687 759 
Q 2956 1122 2956 1747 
Q 2956 2369 2687 2733 
Q 2419 3097 1959 3097 
z
M 1959 3584 
Q 2709 3584 3137 3096 
Q 3566 2609 3566 1747 
Q 3566 888 3137 398 
Q 2709 -91 1959 -91 
Q 1206 -91 779 398 
Q 353 888 353 1747 
Q 353 2609 779 3096 
Q 1206 3584 1959 3584 
z
" transform="scale(0.015625)"/>
       <path id="DejaVuSans-72" d="M 2631 2963 
Q 2534 3019 2420 3045 
Q 2306 3072 2169 3072 
Q 1681 3072 1420 2755 
Q 1159 2438 1159 1844 
L 1159 0 
L 581 0 
L 581 3500 
L 1159 3500 
L 1159 2956 
Q 1341 3275 1631 3429 
Q 1922 3584 2338 3584 
Q 2397 3584 2469 3576 
Q 2541 3569 2628 3553 
L 2631 2963 
z
" transform="scale(0.015625)"/>
      </defs>
      <use xlink:href="#DejaVuSans-5a"/>
      <use xlink:href="#DejaVuSans-2d" x="66.755859"/>
      <use xlink:href="#DejaVuSans-53" x="102.839844"/>
      <use xlink:href="#DejaVuSans-63" x="166.316406"/>
      <use xlink:href="#DejaVuSans-6f" x="221.296875"/>
      <use xlink:href="#DejaVuSans-72" x="282.478516"/>
      <use xlink:href="#DejaVuSans-65" x="321.341797"/>
     </g>
    </g>
   </g>
   <g id="line2d_22">
    <path d="M 73.832727 282.948628 
L 74.918528 281.89329 
L 76.00433 281.872507 
L 77.090131 281.468614 
L 78.175932 281.543207 
L 79.261733 281.071758 
L 80.347534 281.284937 
L 81.433335 282.22826 
L 82.519137 282.83583 
L 83.604938 283.727329 
L 84.690739 283.955638 
L 85.77654 283.87638 
L 89.033943 284.660121 
L 90.119745 284.766713 
L 91.205546 284.583552 
L 92.291347 284.223081 
L 93.377148 284.322809 
L 94.462949 284.209981 
L 96.634552 283.347958 
L 97.720353 282.317269 
L 98.806154 281.955226 
L 99.891955 282.142603 
L 100.977756 281.828476 
L 102.063557 281.389119 
L 103.149358 281.708575 
L 104.23516 281.595884 
L 105.320961 281.050552 
L 106.406762 280.9097 
L 107.492563 280.131599 
L 108.578364 279.617618 
L 109.664165 278.585797 
L 111.835768 276.362338 
L 112.921569 276.003385 
L 114.00737 275.358 
L 115.093171 274.342349 
L 116.178972 273.685017 
L 117.264773 273.178813 
L 118.350575 272.132923 
L 119.436376 272.006361 
L 121.607978 271.304139 
L 122.693779 271.053437 
L 123.77958 271.078095 
L 128.122785 270.131212 
L 129.208586 270.07613 
L 130.294387 269.605639 
L 131.380189 269.645325 
L 132.46599 270.412661 
L 133.551791 270.809971 
L 134.637592 271.609679 
L 135.723393 271.167466 
L 136.809194 272.051004 
L 137.894995 271.045192 
L 138.980797 272.411338 
L 140.066598 271.808634 
L 141.152399 271.78362 
L 142.2382 271.169205 
L 143.324001 272.017313 
L 144.409802 272.17234 
L 145.495604 271.590577 
L 146.581405 271.274551 
L 147.667206 271.161507 
L 148.753007 271.734876 
L 149.838808 271.8147 
L 150.924609 271.648748 
L 152.01041 272.124327 
L 153.096212 271.923843 
L 155.267814 272.060092 
L 156.353615 271.911898 
L 157.439416 270.690231 
L 158.525217 270.41533 
L 159.611019 270.853242 
L 160.69682 271.13546 
L 162.868422 272.241501 
L 163.954223 272.065624 
L 165.040024 272.550521 
L 166.125825 273.183393 
L 167.211627 273.201048 
L 168.297428 273.469591 
L 169.383229 273.197851 
L 171.554831 273.07491 
L 172.640632 272.828219 
L 173.726434 272.438476 
L 174.812235 273.353839 
L 175.898036 272.829117 
L 176.983837 272.004626 
L 178.069638 271.649692 
L 180.24124 271.376319 
L 181.327042 269.729537 
L 182.412843 267.510143 
L 185.670246 262.04822 
L 186.756047 259.335991 
L 187.841849 256.957817 
L 190.013451 253.25541 
L 192.185053 248.767719 
L 194.356656 243.983453 
L 197.614059 235.877837 
L 198.69986 234.271843 
L 199.785661 231.796577 
L 200.871462 230.184437 
L 201.957264 227.596583 
L 203.043065 226.514139 
L 204.128866 224.3891 
L 205.214667 222.542333 
L 206.300468 219.445416 
L 207.386269 217.303227 
L 209.557872 212.278317 
L 210.643673 210.335691 
L 211.729474 207.436445 
L 212.815275 205.45767 
L 214.986877 200.51275 
L 217.15848 197.006088 
L 218.244281 194.822881 
L 219.330082 193.575908 
L 220.415883 192.685576 
L 222.587486 188.809616 
L 223.673287 186.313969 
L 225.844889 182.000402 
L 226.93069 179.095083 
L 229.102292 174.850896 
L 232.359696 169.867464 
L 234.531298 166.00787 
L 235.617099 164.370244 
L 236.702901 163.235963 
L 237.788702 161.523 
L 238.874503 161.266072 
L 241.046105 159.303527 
L 242.131906 157.807635 
L 243.217708 156.050551 
L 244.303509 156.23246 
L 245.38931 155.605548 
L 246.475111 155.411981 
L 247.560912 155.778569 
L 248.646713 155.649634 
L 249.732514 155.795721 
L 251.904117 157.659864 
L 252.989918 158.631007 
L 255.16152 159.238883 
L 256.247321 159.962687 
L 258.418924 161.887419 
L 259.504725 162.585256 
L 260.590526 163.929157 
L 261.676327 164.79724 
L 262.762128 164.97016 
L 263.847929 165.551046 
L 264.933731 166.40685 
L 266.019532 165.975563 
L 267.105333 165.916629 
L 268.191134 166.573224 
L 269.276935 166.728247 
L 270.362736 167.793228 
L 271.448538 167.603975 
L 272.534339 168.213458 
L 274.705941 167.765161 
L 275.791742 168.30335 
L 276.877543 167.428329 
L 277.963344 167.08503 
L 279.049146 166.289679 
L 280.134947 164.796142 
L 281.220748 163.976285 
L 282.306549 163.936172 
L 283.39235 162.639813 
L 284.478151 162.083896 
L 285.563953 161.928183 
L 286.649754 162.518354 
L 287.735555 162.75126 
L 288.821356 162.373638 
L 289.907157 162.235852 
L 290.992958 162.640986 
L 292.07876 162.82762 
L 293.164561 162.084085 
L 294.250362 160.866289 
L 295.336163 160.005051 
L 296.421964 159.510146 
L 297.507765 158.157348 
L 298.593566 157.255102 
L 299.679368 156.036212 
L 300.765169 155.578751 
L 302.936771 152.878938 
L 304.022572 152.00413 
L 305.108373 150.853294 
L 306.194175 149.88846 
L 307.279976 149.399009 
L 308.365777 147.605323 
L 311.62318 144.307476 
L 312.708981 143.740071 
L 313.794783 142.728105 
L 314.880584 142.278279 
L 315.966385 141.058795 
L 317.052186 140.206383 
L 318.137987 139.946925 
L 319.223788 140.021792 
L 320.30959 139.347784 
L 321.395391 138.840544 
L 323.566993 138.155374 
L 324.652794 137.009472 
L 325.738595 136.24785 
L 328.995999 135.264962 
L 330.0818 136.033084 
L 332.253402 136.626061 
L 333.339203 136.655537 
L 334.425005 136.892225 
L 335.510806 137.425979 
L 336.596607 138.525236 
L 337.682408 139.871881 
L 338.768209 140.704605 
L 339.85401 141.682162 
L 342.025613 144.866466 
L 343.111414 146.684075 
L 344.197215 148.270548 
L 346.368817 150.190591 
L 347.454618 151.709583 
L 348.54042 152.551333 
L 350.712022 153.608032 
L 351.797823 153.962978 
L 353.969425 154.972688 
L 355.055227 155.204964 
L 356.141028 154.935842 
L 357.226829 154.900906 
L 358.31263 156.288353 
L 359.398431 156.567893 
L 361.570033 158.684947 
L 362.655835 160.371453 
L 363.741636 161.27506 
L 364.827437 162.395919 
L 365.913238 163.750268 
L 368.08484 165.649402 
L 369.170642 166.187049 
L 370.256443 167.19415 
L 372.428045 170.074113 
L 373.513846 170.885602 
L 375.685448 173.812074 
L 376.77125 174.568543 
L 377.857051 175.976838 
L 378.942852 176.460908 
L 380.028653 176.822178 
L 381.114454 176.487734 
L 383.286057 177.430953 
L 384.371858 177.438894 
L 385.457659 177.287633 
L 386.54346 176.952014 
L 387.629261 176.756975 
L 389.800863 175.258534 
L 390.886665 174.613261 
L 391.972466 173.764905 
L 393.058267 172.48593 
L 394.144068 171.518351 
L 395.229869 169.914653 
L 396.31567 168.621668 
L 397.401472 168.749457 
L 398.487273 167.870792 
L 398.487273 167.870792 
" clip-path="url(#p7d0089209f)" style="fill: none; stroke: #ff00ff; stroke-width: 1.5; stroke-linecap: square"/>
   </g>
   <g id="line2d_23">
    <path d="M 182.412843 307.584 
L 182.412843 41.472 
" clip-path="url(#p7d0089209f)" style="fill: none; stroke: #000000; stroke-width: 1.5; stroke-linecap: square"/>
   </g>
   <g id="patch_3">
    <path d="M 57.6 307.584 
L 57.6 41.472 
" style="fill: none; stroke: #000000; stroke-width: 0.8; stroke-linejoin: miter; stroke-linecap: square"/>
   </g>
   <g id="patch_4">
    <path d="M 414.72 307.584 
L 414.72 41.472 
" style="fill: none; stroke: #000000; stroke-width: 0.8; stroke-linejoin: miter; stroke-linecap: square"/>
   </g>
   <g id="patch_5">
    <path d="M 57.6 307.584 
L 414.72 307.584 
" style="fill: none; stroke: #000000; stroke-width: 0.8; stroke-linejoin: miter; stroke-linecap: square"/>
   </g>
   <g id="patch_6">
    <path d="M 57.6 41.472 
L 414.72 41.472 
" style="fill: none; stroke: #000000; stroke-width: 0.8; stroke-linejoin: miter; stroke-linecap: square"/>
   </g>
   <g id="text_24">
    <!-- Group 3_p=0.052 -->
    <g transform="translate(183.158437 35.472) scale(0.12 -0.12)">
     <defs>
      <path id="DejaVuSans-47" d="M 3809 666 
L 3809 1919 
L 2778 1919 
L 2778 2438 
L 4434 2438 
L 4434 434 
Q 4069 175 3628 42 
Q 3188 -91 2688 -91 
Q 1594 -91 976 548 
Q 359 1188 359 2328 
Q 359 3472 976 4111 
Q 1594 4750 2688 4750 
Q 3144 4750 3555 4637 
Q 3966 4525 4313 4306 
L 4313 3634 
Q 3963 3931 3569 4081 
Q 3175 4231 2741 4231 
Q 1884 4231 1454 3753 
Q 1025 3275 1025 2328 
Q 1025 1384 1454 906 
Q 1884 428 2741 428 
Q 3075 428 3337 486 
Q 3600 544 3809 666 
z
" transform="scale(0.015625)"/>
      <path id="DejaVuSans-75" d="M 544 1381 
L 544 3500 
L 1119 3500 
L 1119 1403 
Q 1119 906 1312 657 
Q 1506 409 1894 409 
Q 2359 409 2629 706 
Q 2900 1003 2900 1516 
L 2900 3500 
L 3475 3500 
L 3475 0 
L 2900 0 
L 2900 538 
Q 2691 219 2414 64 
Q 2138 -91 1772 -91 
Q 1169 -91 856 284 
Q 544 659 544 1381 
z
M 1991 3584 
L 1991 3584 
z
" transform="scale(0.015625)"/>
      <path id="DejaVuSans-70" d="M 1159 525 
L 1159 -1331 
L 581 -1331 
L 581 3500 
L 1159 3500 
L 1159 2969 
Q 1341 3281 1617 3432 
Q 1894 3584 2278 3584 
Q 2916 3584 3314 3078 
Q 3713 2572 3713 1747 
Q 3713 922 3314 415 
Q 2916 -91 2278 -91 
Q 1894 -91 1617 61 
Q 1341 213 1159 525 
z
M 3116 1747 
Q 3116 2381 2855 2742 
Q 2594 3103 2138 3103 
Q 1681 3103 1420 2742 
Q 1159 2381 1159 1747 
Q 1159 1113 1420 752 
Q 1681 391 2138 391 
Q 2594 391 2855 752 
Q 3116 1113 3116 1747 
z
" transform="scale(0.015625)"/>
      <path id="DejaVuSans-5f" d="M 3263 -1063 
L 3263 -1509 
L -63 -1509 
L -63 -1063 
L 3263 -1063 
z
" transform="scale(0.015625)"/>
      <path id="DejaVuSans-3d" d="M 678 2906 
L 4684 2906 
L 4684 2381 
L 678 2381 
L 678 2906 
z
M 678 1631 
L 4684 1631 
L 4684 1100 
L 678 1100 
L 678 1631 
z
" transform="scale(0.015625)"/>
      <path id="DejaVuSans-2e" d="M 684 794 
L 1344 794 
L 1344 0 
L 684 0 
L 684 794 
z
" transform="scale(0.015625)"/>
     </defs>
     <use xlink:href="#DejaVuSans-47"/>
     <use xlink:href="#DejaVuSans-72" x="77.490234"/>
     <use xlink:href="#DejaVuSans-6f" x="116.353516"/>
     <use xlink:href="#DejaVuSans-75" x="177.535156"/>
     <use xlink:href="#DejaVuSans-70" x="240.914062"/>
     <use xlink:href="#DejaVuSans-20" x="304.390625"/>
     <use xlink:href="#DejaVuSans-33" x="336.177734"/>
     <use xlink:href="#DejaVuSans-5f" x="399.800781"/>
     <use xlink:href="#DejaVuSans-70" x="449.800781"/>
     <use xlink:href="#DejaVuSans-3d" x="513.277344"/>
     <use xlink:href="#DejaVuSans-30" x="597.066406"/>
     <use xlink:href="#DejaVuSans-2e" x="660.689453"/>
     <use xlink:href="#DejaVuSans-30" x="692.476562"/>
     <use xlink:href="#DejaVuSans-35" x="756.099609"/>
     <use xlink:href="#DejaVuSans-32" x="819.722656"/>
    </g>
   </g>
  </g>
 </g>
 <defs>
  <clipPath id="p7d0089209f">
   <rect x="57.6" y="41.472" width="357.12" height="266.112"/>
  </clipPath>
 </defs>
</svg>
